<?xml version="1.0" encoding="UTF-8" standalone="no"?>
<svg
   width="545"
   height="280"
   viewBox="0 0 545 279.99999"
   role="img"
   artist="Katerina Limpitsouni"
   source="https://undraw.co/"
   version="1.1"
   id="svg37"
   sodipodi:docname="analyse-data.svg"
   inkscape:version="1.4.2 (f4327f4, 2025-05-13)"
   xmlns:inkscape="http://www.inkscape.org/namespaces/inkscape"
   xmlns:sodipodi="http://sodipodi.sourceforge.net/DTD/sodipodi-0.dtd"
   xmlns="http://www.w3.org/2000/svg"
   xmlns:svg="http://www.w3.org/2000/svg">
  <defs
     id="defs37" />
  <sodipodi:namedview
     id="namedview37"
     pagecolor="#ffffff"
     bordercolor="#000000"
     borderopacity="0.25"
     inkscape:showpageshadow="2"
     inkscape:pageopacity="0.0"
     inkscape:pagecheckerboard="0"
     inkscape:deskcolor="#d1d1d1"
     inkscape:zoom="1.7188016"
     inkscape:cx="254.82871"
     inkscape:cy="91.051812"
     inkscape:window-width="1920"
     inkscape:window-height="991"
     inkscape:window-x="-9"
     inkscape:window-y="-9"
     inkscape:window-maximized="1"
     inkscape:current-layer="g37" />
  <g
     transform="translate(-631.41896,-131.5102)"
     id="g37">
    <g
       id="g3"
       transform="matrix(0.96563726,0,0,0.96563726,13.495146,1.2102753)">
      <ellipse
         cx="710.84869"
         cy="420.26938"
         rx="60.723"
         ry="4.6312976"
         fill="#f2f2f2"
         id="ellipse1"
         style="stroke-width:0.55678" />
      <path
         d="m 760.14378,199.3067 c 3.43199,-3.49267 8.01764,-4.55279 10.23807,-2.36853 2.22045,2.18425 1.24106,6.78547 -2.19203,10.27871 a 12.254175,12.254175 0 0 1 -4.87462,3.11797 l -14.72516,14.6166 -6.71311,-7.05608 15.23185,-13.65781 a 12.254731,12.254731 0 0 1 3.03556,-4.92918 z"
         fill="#ed9da0"
         id="path1"
         style="stroke-width:0.55678" />
      <path
         d="m 713.04185,187.24351 15.44174,34.25701 24.65812,-13.34769 8.82497,4.68364 c 0,0 -20.15544,33.69967 -33.95969,29.86345 -13.80426,-3.83621 -38.31038,-38.62104 -33.89455,-49.35689 4.41582,-10.73583 18.93052,-6.10007 18.93052,-6.10007 z"
         fill="#191558"
         id="path2"
         style="stroke-width:0.55678" />
      <path
         d="m 706.27085,415.55121 h 11.25976 l 5.35622,-43.42885 h -16.61821 z"
         fill="#ed9da0"
         id="path3"
         style="stroke-width:0.55678" />
      <path
         d="m 744.84791,415.29565 v 0 c 0.35078,0.59019 0.53562,2.49605 0.53562,3.18256 v 0 a 3.821739,3.821739 0 0 1 -3.82062,3.82173 h -34.87058 a 2.6068447,2.6068447 0 0 1 -2.60685,-2.60684 v -1.45153 c 0,0 -1.72602,-4.36348 1.82624,-9.74365 0,0 4.41416,4.21093 11.00921,-2.38469 l 1.94484,-3.5233 14.07874,10.29653 7.80384,0.96045 c 1.70709,0.20991 3.22097,-0.0328 4.09901,1.44763 v 0 z"
         fill="#2f2e41"
         id="path4"
         style="stroke-width:0.55678" />
      <path
         d="m 714.79125,189.44168 0.22772,-15.18674 -9.36504,-5.83784 -10.1835,12.45685 z"
         fill="#ed9da0"
         id="path5"
         style="stroke-width:0.55678" />
      <circle
         cx="714.8208"
         cy="162.32538"
         r="16.655521"
         fill="#ed9da0"
         id="circle5"
         style="stroke-width:0.55678" />
      <path
         d="m 737.53517,289.8631 -15.51524,105.57944 h -19.46615 l 2.58847,-60.26755 1.36245,-31.68914 -3.95314,-15.08374 a 67.370399,67.370399 0 0 1 -3.31898,-7.41687 c -1.71042,-4.5862 -3.06228,-10.08495 -1.05787,-12.69458 0.73773,-0.961 2.65639,-1.67034 5.26379,-2.20262 a 54.478712,54.478712 0 0 1 5.44921,-0.7756 c 11.51144,-1.13917 27.88578,-0.42761 27.88578,-0.42761 l 0.41647,13.73688 0.23107,7.67077 z"
         fill="#2f2e41"
         id="path6"
         style="stroke-width:0.55678" />
      <path
         d="m 686.44001,410.38764 11.14006,1.63692 11.61666,-42.18945 -16.44172,-2.41588 z"
         fill="#ed9da0"
         id="path7"
         style="stroke-width:0.55678" />
      <path
         d="m 724.64069,415.74608 v 0 c 0.26113,0.63529 0.16704,2.54728 0.0668,3.22934 v 0 a 3.821739,3.821739 0 0 1 -4.33677,3.22486 l -34.4981,-5.0745 a 2.6068447,2.6068447 0 0 1 -2.20039,-2.95873 l 0.21102,-1.43649 c 0,0 -1.0718,-4.5656 3.22376,-9.37172 0,0 3.75437,4.80835 11.23916,-0.75778 l 2.43703,-3.20316 12.43123,12.2347 7.58112,2.08569 c 1.65864,0.456 3.19146,0.43652 3.84512,2.02724 v 0 z"
         fill="#2f2e41"
         id="path8"
         style="stroke-width:0.55678" />
      <path
         d="m 737.7796,272.25493 -2.12802,18.32698 -11.60553,38.61994 -19.1048,63.58095 -19.2568,-2.83011 17.28301,-90.40328 -1.71098,-15.50187 c 0,0 -0.55677,-1.54062 -1.19596,-3.79669 -1.26779,-4.46315 -2.85851,-11.7308 -1.10855,-15.43785 a 4.33342,4.33342 0 0 1 0.89976,-1.29507 c 0.68817,-0.66813 2.08681,-1.07291 3.96093,-1.28783 7.83279,-0.88528 23.96382,1.64696 31.14128,2.88969 l 2.82621,7.13458 z"
         fill="#2f2e41"
         id="path9"
         style="stroke-width:0.55678" />
      <path
         d="m 697.6118,177.66188 18.92106,9.0822 c 0,0 20.05634,59.41234 20.05634,62.43955 0,3.02722 5.67637,4.91971 2.27055,8.32553 -3.40583,3.40583 6.33894,6.29162 1.0885,9.01038 -5.25044,2.71876 -38.00692,17.60094 -41.64716,16.25798 -10.04542,-3.70092 0.42594,-17.30027 0.42594,-17.30027 0,0 -7.54827,-6.08005 -6.41299,-9.10503 1.13527,-3.02499 -6.81165,-60.92567 -6.81165,-60.92567 z"
         fill="#191558"
         id="path10"
         style="stroke-width:0.55678" />
      <path
         d="m 713.80297,166.31469 2.14249,4.28722 c 0,0 2.14249,-7.71197 5.5678,-9.42574 3.42532,-1.71377 3.85626,-4.2872 3.85626,-4.2872 0,0 4.28721,5.5678 7.2838,4.2872 2.99659,-1.28059 4.2872,-2.14249 0.85689,-7.2838 -3.43033,-5.1413 -2.57066,-2.57064 -2.57066,-2.57064 0,0 -2.99937,-4.28722 -2.57066,-2.99939 0.42872,1.28784 -2.57065,-3.42753 -2.57065,-2.14249 0,1.28506 -2.14249,-2.57064 -2.14249,-1.2856 0,1.28505 -8.99757,-2.99937 -7.71197,-1.2856 1.28562,1.71377 -7.71306,-3.42921 -11.9947,3.4242 -4.28165,6.8534 -10.22527,5.58729 -8.11174,9.86336 2.11354,4.27607 1.25777,15.8454 1.25777,15.8454 h 5.90744 c 0,0 6.08783,-11.56822 10.80153,-6.42692 z"
         fill="#090814"
         id="path11"
         style="stroke-width:0.55678" />
      <g
         id="g2"
         transform="matrix(1.4783705,0,0,1.4783705,-468.8656,-79.784677)">
        <path
           d="m 922.57743,185.45558 a 1.961745,1.961745 0 1 0 0,3.92349 h 27.46488 a 1.961745,1.961745 0 1 0 0,-3.92349 z"
           fill="#e6e6e6"
           id="path13"
           style="fill:#edf1fd;fill-opacity:1;stroke-width:0.471686" />
        <path
           d="m 1110.6,199.0991 v 36.37881 H 925.3934 v -19.1533 c 1.28251,-0.82356 2.57257,-1.64335 3.87443,-2.43578 5.56024,-3.40275 11.50914,-6.58474 17.99766,-7.76396 a 27.169128,27.169128 0 0 1 9.29222,-0.11603 c 3.25463,0.53725 6.36776,1.65892 9.454,2.78294 3.04144,1.11366 6.09089,2.2641 9.27194,2.90748 a 27.14743,27.14743 0 0 0 9.40354,0.18537 c 5.95502,-0.89337 11.55022,-3.28671 17.12221,-5.45175 5.6065,-2.17683 11.3837,-4.23385 17.4524,-4.5046 5.9904,-0.27075 11.9068,1.14431 17.5906,2.89993 11.5888,3.57632 23.422,8.88138 35.693,5.24279 12.4605,-3.68859 23.922,-14.33926 37.7311,-11.17897 a 0.51885487,0.51885487 0 0 1 0.3254,0.20472 z"
           fill="#f2f2f2"
           id="path14"
           style="fill:#edf1fd;fill-opacity:1;stroke-width:0.471686" />
        <g
           id="g1">
          <path
             d="M 1121.5903,271.12135 H 914.07623 a 3.2730309,3.2730309 0 0 1 -3.26973,-3.26973 v -90.24301 a 3.2730309,3.2730309 0 0 1 3.26973,-3.26973 h 207.51407 a 3.2730309,3.2730309 0 0 1 3.2698,3.26973 v 90.24254 a 3.2730309,3.2730309 0 0 1 -3.2698,3.26973 z M 914.07623,175.64686 a 1.9641015,1.9641015 0 0 0 -1.96174,1.96175 v 90.24254 a 1.9641015,1.9641015 0 0 0 1.96174,1.96174 h 207.51407 a 1.9641015,1.9641015 0 0 0 1.9618,-1.96174 v -90.24254 a 1.9641015,1.9641015 0 0 0 -1.9618,-1.96175 z"
             fill="#e6e6e6"
             id="path12"
             style="fill:#edf1fd;fill-opacity:1;stroke-width:0.471686" />
          <path
             d="m 1110.6005,199.73352 a 0.5589482,0.5589482 0 0 1 -0.6339,0.2783 20.649009,20.649009 0 0 0 -5.0188,-0.51886 c -13.5845,0.23962 -24.0267,11.17425 -37.3103,12.81006 -11.9747,1.47307 -23.2457,-4.34989 -34.5048,-7.39274 -5.8489,-1.58157 -11.8818,-2.42022 -17.9019,-1.34572 -5.974,1.06318 -11.5804,3.50699 -17.20999,5.67627 -5.4211,2.08768 -11.05443,4.02914 -16.92363,4.12537 -6.45314,0.10801 -12.26384,-2.55182 -18.25001,-4.57819 -3.11313,-1.05563 -6.30644,-1.89052 -9.60447,-1.97212 a 29.055873,29.055873 0 0 0 -9.46533,1.46553 c -6.36022,2.02212 -12.09074,5.6258 -17.66984,9.20637 a 0.49574225,0.49574225 0 0 1 -0.33018,0.0891 0.59904153,0.59904153 0 0 1 -0.25518,-1.09054 l 0.25518,-0.16226 c 1.27968,-0.82356 2.56739,-1.64335 3.86783,-2.43579 5.54844,-3.40274 11.48744,-6.58474 17.95992,-7.76395 a 27.056395,27.056395 0 0 1 9.27194,-0.11604 c 3.24803,0.53726 6.35644,1.65892 9.43372,2.78295 3.0353,1.11365 6.07815,2.2641 9.2526,2.90748 a 27.034697,27.034697 0 0 0 9.3842,0.18537 c 5.94325,-0.89337 11.52615,-3.28671 17.08634,-5.45175 5.5947,-2.17683 11.3596,-4.23386 17.4147,-4.5046 5.9777,-0.27075 11.8817,1.14431 17.5538,2.89992 11.5648,3.57633 23.373,8.88138 35.6184,5.2428 12.4346,-3.68859 23.8721,-14.33927 37.6524,-11.17897 a 0.51885487,0.51885487 0 0 1 0.325,0.20471 0.59573973,0.59573973 0 0 1 0,0.63725 z"
             fill="#191558"
             id="path15"
             style="stroke-width:0.471686" />
          <circle
             cx="950.9126"
             cy="206.48006"
             r="2.7065356"
             fill="#191558"
             id="circle15"
             style="stroke-width:0.471686" />
          <circle
             cx="1019.35"
             cy="203.00043"
             r="2.7065356"
             fill="#191558"
             id="circle16"
             style="stroke-width:0.471686" />
          <circle
             cx="1094.6608"
             cy="205.78668"
             r="2.7065356"
             fill="#191558"
             id="circle17"
             style="stroke-width:0.471686" />
          <path
             d="m 949.38855,250.84875 a 1.9617431,1.9617431 0 1 0 0,3.92348 h 27.46487 a 1.9617431,1.9617431 0 1 0 0,-3.92348 z"
             fill="#e6e6e6"
             id="path17"
             style="fill:#edf1fd;fill-opacity:1;stroke-width:0.471686" />
          <circle
             cx="931.73242"
             cy="252.59256"
             r="7.4111342"
             fill="#191558"
             id="circle18"
             style="stroke-width:0.471686" />
          <path
             d="m 1015.6534,250.84875 a 1.9617431,1.9617431 0 1 0 0,3.92348 h 27.4649 a 1.9617431,1.9617431 0 1 0 0,-3.92348 z"
             fill="#e6e6e6"
             id="path18"
             style="fill:#edf1fd;fill-opacity:1;stroke-width:0.471686" />
          <circle
             cx="997.99725"
             cy="252.59256"
             r="7.4111342"
             fill="#191558"
             id="circle19"
             style="stroke-width:0.471686" />
          <path
             d="m 1081.9187,250.84875 a 1.9617431,1.9617431 0 1 0 0,3.92348 h 27.4649 a 1.9617431,1.9617431 0 1 0 0,-3.92348 z"
             fill="#e6e6e6"
             id="path19"
             style="fill:#edf1fd;fill-opacity:1;stroke-width:0.471686" />
          <circle
             cx="1064.2625"
             cy="252.59256"
             r="7.4111342"
             fill="#191558"
             id="circle20"
             style="stroke-width:0.471686" />
        </g>
      </g>
      <path
         d="M 944.48609,162.33273 H 842.10612 c -1.9957,0 -3.61312,-1.15233 -3.61547,-2.57211 v -22.25179 c 0,-1.41978 1.61977,-2.57211 3.61547,-2.57211 h 102.37997 c 1.99571,0 3.61312,1.15233 3.61548,2.57211 v 22.25132 c -0.002,1.41978 -1.61977,2.57069 -3.61548,2.57258 z M 842.10612,135.96452 c -1.19761,0 -2.16976,0.6915 -2.16976,1.54336 v 22.25133 c 0,0.85186 0.97168,1.54241 2.16976,1.54336 h 102.37997 c 1.19761,0 2.16976,-0.6915 2.16976,-1.54336 v -22.25038 c 0,-0.85187 -0.97167,-1.54242 -2.16976,-1.54336 z"
         fill="#e6e6e6"
         id="path20"
         style="fill:#edf1fd;fill-opacity:1;stroke-width:0.471686" />
      <path
         d="m 865.25554,147.58216 a 2.1824923,2.1824923 0 0 0 -2.17966,2.17966 v 15.25858 a 2.1824923,2.1824923 0 0 0 2.17966,2.17966 h 78.03577 a 2.1824923,2.1824923 0 0 0 2.17966,-2.17966 v -15.25858 a 2.1824923,2.1824923 0 0 0 -2.17966,-2.17966 z"
         fill="#191558"
         id="path21"
         style="stroke-width:0.471686" />
      <circle
         cx="876.15479"
         cy="157.60927"
         r="4.7956338"
         fill="#ffffff"
         id="circle21"
         style="stroke-width:0.471686" />
      <path
         d="m 898.0099,155.52724 a 1.961745,1.961745 0 0 0 0,3.92349 h 27.46488 a 1.961745,1.961745 0 0 0 0,-3.92349 z"
         fill="#ffffff"
         id="path22"
         style="stroke-width:0.471686" />
      <path
         d="M 1001.4621,383.61354 H 899.08219 c -1.99571,0 -3.61312,-1.15233 -3.61548,-2.5721 v -22.2518 c 0,-1.41978 1.61977,-2.57211 3.61548,-2.57211 h 102.37991 c 1.9957,0 3.6132,1.15233 3.6155,2.57211 v 22.25133 c 0,1.41977 -1.6198,2.57069 -3.6155,2.57257 z m -102.37991,-26.3682 c -1.19761,0 -2.16976,0.69149 -2.16976,1.54335 v 22.25133 c 0,0.85187 0.97167,1.54242 2.16976,1.54336 h 102.37991 c 1.1977,0 2.1698,-0.69149 2.1698,-1.54336 v -22.25038 c 0,-0.85187 -0.9717,-1.54242 -2.1698,-1.54336 z"
         fill="#e6e6e6"
         id="path23"
         style="fill:#edf1fd;fill-opacity:1;stroke-width:0.471686" />
      <path
         d="m 922.23208,368.86344 a 2.1824923,2.1824923 0 0 0 -2.17967,2.17966 v 15.25858 a 2.1824923,2.1824923 0 0 0 2.17967,2.17966 h 78.03572 a 2.1824923,2.1824923 0 0 0 2.1797,-2.17966 V 371.0431 a 2.1824923,2.1824923 0 0 0 -2.1797,-2.17966 z"
         fill="#191558"
         id="path24"
         style="stroke-width:0.471686" />
      <circle
         cx="933.13092"
         cy="378.89008"
         r="4.7956338"
         fill="#ffffff"
         id="circle24"
         style="stroke-width:0.471686" />
      <path
         d="m 954.40417,376.22672 a 1.961745,1.961745 0 1 0 0,3.92349 h 27.46487 a 1.961745,1.961745 0 1 0 0,-3.92349 z"
         fill="#ffffff"
         id="path25"
         style="stroke-width:0.471686" />
      <g
         transform="matrix(-0.53521144,0.15346941,-0.15346941,-0.53521144,816.70875,236.77078)"
         id="g34">
        <path
           d="m 71.634,1.512 37.034,47.445 a 3.942,3.942 0 0 1 -0.681,5.524 c -8.6,20.882 -34.33,36.367 -64.6,50.422 a 3.94,3.94 0 0 1 -5.524,-0.681 L 0.832,56.777 A 3.94,3.94 0 0 1 1.513,51.253 C 26.913,36.911 48.744,20.294 66.11,0.831 a 3.942,3.942 0 0 1 5.524,0.681 z"
           fill="#e6e6e6"
           id="path26"
           style="fill:#edf1fd;fill-opacity:1" />
        <path
           d="M 0.473,52.787 11.746,67.229 A 42.2,42.2 0 0 0 70.8,74.508 l 31.6,-24.66 a 2.242,2.242 0 0 0 0.39,-3.143 L 67,0.859 A 2.242,2.242 0 0 0 63.856,0.475 C 47.875,21.11 26.484,37.169 0.86,49.647 a 2.24,2.24 0 0 0 -0.387,3.14 z"
           transform="translate(2.958,2.91)"
           fill="#ffffff"
           id="path27" />
        <path
           d="m 0.253,1.927 7.341,9.405 A 1.1930198,1.1930198 0 1 0 9.475,9.864 L 2.134,0.459 A 1.1930198,1.1930198 0 1 0 0.253,1.927 Z"
           transform="translate(72.12,25.485)"
           fill="#ccc"
           id="path28"
           style="fill:#edf1fd;fill-opacity:1" />
        <path
           d="m 0.253,1.927 16.122,20.655 a 1.1930198,1.1930198 0 0 0 1.881,-1.468 L 2.134,0.459 A 1.1930198,1.1930198 0 0 0 0.253,1.927 Z"
           transform="translate(58.35,18.508)"
           fill="#ccc"
           id="path29"
           style="fill:#edf1fd;fill-opacity:1" />
        <circle
           cx="7.8590002"
           cy="7.8590002"
           r="7.8590002"
           transform="translate(78.241,39.17)"
           fill="#191558"
           id="circle29" />
        <path
           d="M 0.177,1.828 19.978,27.2 a 1.2,1.2 0 0 0 1.881,-1.468 L 2.058,0.359 A 1.2,1.2 0 0 0 0.177,1.828 Z"
           transform="translate(57.57,34.932)"
           fill="#ccc"
           id="path30"
           style="fill:#edf1fd;fill-opacity:1" />
        <path
           d="M 0.177,1.828 27.815,37.236 A 1.2,1.2 0 0 0 29.7,35.767 L 2.058,0.359 A 1.2,1.2 0 0 0 0.177,1.828 Z"
           transform="translate(44.724,29.14)"
           fill="#ccc"
           id="path31"
           style="fill:#edf1fd;fill-opacity:1" />
        <path
           d="M 0.177,1.828 19.978,27.2 a 1.2,1.2 0 0 0 1.881,-1.468 L 2.058,0.359 A 1.2,1.2 0 0 0 0.177,1.828 Z"
           transform="translate(44.82,44.884)"
           fill="#ccc"
           id="path32"
           style="fill:#edf1fd;fill-opacity:1" />
        <path
           d="M 0.177,1.828 19.978,27.2 a 1.2,1.2 0 0 0 1.881,-1.468 L 2.058,0.359 A 1.2,1.2 0 0 0 0.177,1.828 Z"
           transform="translate(18.619,48.013)"
           fill="#191558"
           id="path33" />
        <path
           d="M 0.177,1.828 27.815,37.236 A 1.2,1.2 0 0 0 29.7,35.767 L 2.058,0.359 A 1.2,1.2 0 0 0 0.177,1.828 Z"
           transform="translate(31.974,39.092)"
           fill="#ccc"
           id="path34"
           style="fill:#edf1fd;fill-opacity:1" />
      </g>
      <g
         transform="matrix(0.55678016,0,0,0.55678016,695.55004,190.29021)"
         id="g36">
        <path
           d="m 176.524,167.424 c 8.434,-2.492 16.556,-0.16 18.141,5.208 1.585,5.368 -3.967,11.737 -12.4,14.229 a 22.009,22.009 0 0 1 -10.374,0.649 l -35.868,10.106 -4.384,-16.933 35.825,-8.165 a 22.01,22.01 0 0 1 9.065,-5.093 z"
           transform="translate(-69.272,-96.081)"
           fill="#ed9da0"
           id="path35" />
        <path
           d="m 141.908,139.929 -5.622,67.254 50.356,0.541 9.773,15.049 c 0,0 -61.035,35.34 -79.362,17.283 C 98.726,221.999 90.573,146.009 106.867,133 c 16.294,-13.009 35.041,6.927 35.041,6.927 z"
           transform="translate(-98.097,-128.596)"
           fill="#191558"
           id="path36" />
      </g>
    </g>
  </g>
</svg>
