<?xml version="1.0" encoding="UTF-8"?>
<svg id="Calque_1" data-name="Calque 1" xmlns="http://www.w3.org/2000/svg" viewBox="0 0 182.36 87.32">
  <defs>
    <style>
      .cls-1 {
        fill: #fff;
      }

      .cls-2 {
        fill: #ce7a63;
      }

      .cls-3 {
        fill: #cb7a63;
      }

      .cls-4 {
        fill: #191558;
      }

      .cls-5 {
        fill: #263238;
      }

      .cls-6 {
        fill: #7c78ab;
      }

      .cls-7 {
        opacity: .4;
      }

      .cls-8 {
        opacity: .3;
      }

      .cls-8, .cls-9 {
        isolation: isolate;
      }

      .cls-9 {
        opacity: .2;
      }
    </style>
  </defs>
  <g id="Groupe_32" data-name="Groupe 32">
    <g id="projection">
      <g id="freepik--Projection--inject-2">
        <path class="cls-4" d="m75.01,64.09c.1-.91.08-1.83-.04-2.74-.08-.58-.19-1.16-.33-1.73h0c-.19-.91-.44-1.78-.75-2.64v-.03s-.12-.34-.12-.34c-1.58-4-3.13-7.97-4.86-11.9-.71-1.63-1.44-3.25-2.2-4.86l-1.83.7-3.03,1.16-.02-3.19v-2.89s-.03-3.8-.03-3.8v-.81l-.03-5.33v-.85L61.65,0h120.38l.34,70.81h-111.32c.64-.38,1.22-.86,1.72-1.42.23-.26.45-.54.65-.83.48-.69.86-1.43,1.13-2.22.19-.53.32-1.08.4-1.64.03-.2.05-.4.06-.61Z"/>
        <path class="cls-1" d="m178.61,2.81v63.53h-104.06c.19-.53.32-1.08.4-1.64.03-.2.05-.4.06-.61.1-.91.08-1.83-.04-2.74-.08-.58-.19-1.16-.33-1.73h0c-.19-.91-.44-1.78-.75-2.64v-.03s-.12-.34-.12-.34c-1.58-4-3.13-7.97-4.86-11.9-.71-1.63-1.44-3.25-2.2-4.86l-1.83.7V2.81h113.73Z"/>
        <path id="Tracé_671" data-name="Tracé 671" class="cls-5" d="m76.7,58.72v-.95l28.08-13.54,28.87,4.18-.13.9-28.58-4.13-28.25,13.54h.01Z"/>
        <path class="cls-4" d="m78.56,57.74v.09c-.05,1.29-1.11,2.32-2.41,2.32-.58,0-1.1-.2-1.51-.53h0c-.19-.91-.44-1.78-.75-2.64v-.03c.31-.94,1.21-1.62,2.26-1.62.67,0,1.27.27,1.7.71.25.25.45.56.57.9.09.25.14.52.14.8Z"/>
        <path id="Tracé_674" data-name="Tracé 674" class="cls-4" d="m107.28,45.35c0,1.33-1.08,2.41-2.41,2.41s-2.41-1.08-2.41-2.41,1.08-2.41,2.41-2.41h0c1.33,0,2.41,1.07,2.41,2.4h0Z"/>
        <path id="Tracé_675" data-name="Tracé 675" class="cls-4" d="m136,48.95c0,1.33-1.08,2.41-2.41,2.41s-2.41-1.08-2.41-2.41,1.08-2.41,2.41-2.41h0c1.33,0,2.41,1.08,2.41,2.41h0Z"/>
        <path id="Tracé_676" data-name="Tracé 676" class="cls-4" d="m164.72,20.58c0,1.33-1.08,2.41-2.41,2.41s-2.41-1.08-2.41-2.41,1.08-2.41,2.41-2.41h0c1.33,0,2.41,1.08,2.41,2.41h0Z"/>
        <path id="Tracé_677" data-name="Tracé 677" class="cls-5" d="m156.18,33.64l-2.17-2.27-20.43,18.68,16.42-22.87-2.17-2.27,11.74-2.85-3.41,11.59h.02Z"/>
        <path id="Tracé_678" data-name="Tracé 678" class="cls-4" d="m158.31,8.03v.39h-.88v1.66h-.43v-3.82h1.52v.39h-1.09v1.39h.88,0Z"/>
        <path id="Tracé_679" data-name="Tracé 679" class="cls-4" d="m159.27,9.17c0,.34.14.55.45.55s.45-.21.45-.55v-2.92h.4v2.9c0,.58-.27.96-.86.96s-.85-.39-.85-.96v-2.9h.42l-.02,2.92h.01Z"/>
        <path id="Tracé_680" data-name="Tracé 680" class="cls-4" d="m161.53,10.07v-3.43h-.7v-.39h1.82v.39h-.7v3.43h-.42Z"/>
        <path id="Tracé_681" data-name="Tracé 681" class="cls-4" d="m163.35,9.17c0,.34.14.55.45.55s.45-.21.45-.55v-2.92h.4v2.9c0,.58-.27.96-.86.96s-.85-.39-.85-.96v-2.9h.42l-.02,2.92h.01Z"/>
        <path id="Tracé_682" data-name="Tracé 682" class="cls-4" d="m165.9,6.25c.6,0,.85.3.85.87v.31c0,.42-.15.68-.45.79.35.1.48.39.48.8v.6c0,.16,0,.31.07.46h-.43c-.06-.14-.09-.3-.07-.46v-.6c0-.46-.2-.57-.55-.57h-.3v1.63h-.43v-3.83h.83,0Zm-.11,1.82c.34,0,.54-.11.54-.52v-.39c0-.34-.13-.52-.45-.52h-.41v1.41l.33.02h0Z"/>
      </g>
    </g>
    <g>
      <path class="cls-3" d="m42.23,54.22c-.23-.06-.49-.13-.78-.2-.29-.06-.61-.13-.94-.19-.17-.04-.34-.07-.52-.1-.35-.07-.72-.13-1.1-.19h-.01c-.64-.1-1.32-.19-2-.26-.23-.02-.46-.05-.7-.07-.67-.06-1.34-.1-1.99-.12-.22-.01-.44-.01-.66-.01-.96,0-1.84.06-2.52.22-.1.02-.19.04-.28.07,1.02-2.97,1.01-6.75.62-10.25.73,1.14,1.65,2.14,2.73,2.95,2.21,1.63,7.02-.93,7.02-.93,0,0-.01.91.05,2.23.05,2.32.41,4.63,1.08,6.85Z"/>
      <path class="cls-4" d="m21.7,59.12c.16-.1.06-.02.23-.11l.41-.04c.43-.21.88-.39,1.34-.51,1.12-.31,2.26-.55,3.41-.72.01-.01.01-.02.01-.03h.01v-.02s.02-.04.03-.06h.02c.56-1.59,1.51-3,2.77-4.13.24-.15.51-.27.79-.34h0c.09-.04.18-.06.28-.08.68-.16,1.56-.22,2.52-.22.22,0,.44,0,.66.01.65.02,1.32.06,1.99.12.24.02.47.05.7.07.68.07,1.36.16,2,.26h.01c.38.06.75.13,1.1.19.18.03.35.06.52.1.33.06.65.13.94.19.29.07.55.14.78.2h.01c.29.08.59.18.86.31.76.38,1.52,1.53,2.07,2.58l4.31.78"/>
      <path class="cls-4" d="m48.95,57.59c2.56.41,5.09,1,7.62,1.49,1.79.35,3.58.77,5.36,1.22l-.03-7.45c-.32-1.15-.63-2.3-.93-3.46-.48-1.83-.93-3.67-1.35-5.52l2.23-.86,3.03-1.16,1.83-.7c.76,1.61,1.49,3.23,2.2,4.86,1.73,3.93,3.28,7.9,4.86,11.9l.11.34v.03c.32.86.57,1.73.76,2.63h0c.14.58.25,1.16.33,1.74.12.91.14,1.83.04,2.74-.01.21-.03.41-.06.61-.08.56-.21,1.11-.4,1.64-.27.79-.65,1.53-1.13,2.22-.2.29-.42.57-.65.83-.5.56-1.08,1.04-1.72,1.42-.09.07-.19.12-.29.18-.56.31-1.15.56-1.76.74-.83.25-1.69.42-2.56.49-1.39.15-2.42.14-3.34.19h-.14l-.76-.1c-1.61-.19-3.22-.42-4.83-.65v-.02s-.01-.08-.01-.12c-.01-.06-.02-.12-.03-.17v-.02s-.09-.01-.09-.01c.25,0,.5-.02.75-.05v-.02c-.34.02-.65.03-.98.04.06,0,.1.01.16.03.01.01.02.01.04.01v.02c.02.1.03.21.04.31l-.13-.02.13.03h0c.09.7.18,1.38.22,2.07h0c.02.34.04.67.05,1v.17c.02.65.02,1.28-.01,1.93v.02c0,.1-.01.2-.01.3h-.01c-.01.28-.03.56-.05.85-.01.23-.03.47-.06.7,0,.02,0,.03-.01.05-.01.11-.02.23-.03.34-.01.09-.02.17-.03.26-.01.02-.01.04-.01.07,0,.02,0,.04-.01.07,0,.06,0,.13-.02.19h0c-.04.29-.08.56-.12.84-.01.07-.02.14-.03.22,0,.05-.01.11-.02.16,0,.02,0,.05,0,.08t-.01.02c-.03.16-.06.32-.09.48-.01.09-.03.17-.05.26h0s-.02,0-.02,0c0,.03-.01.06-.01.1-.17.99-.38,1.97-.57,2.95l-35.42.16c-.18-.94-.39-1.89-.61-2.86-.01-.08-.03-.17-.05-.25-.12-.54-.23-1.07-.35-1.62h0c-.11-.55-.23-1.1-.35-1.65h-.02s0,.02,0,.02c-.37.47-.75.93-1.11,1.39-.37.46-.74.92-1.11,1.38l-2.46,3.05-.48.58h.05l-.02.02-13.07.06c.54-1.86,1.33-3.64,2.35-5.28l2.43-3.61,2.25-3.22c2.98-4.29,5.97-8.61,8.99-12.75,1.09-1.54,2.85-2.48,4.74-2.52"/>
      <path class="cls-4" d="m58.45,38.24c.1.59.21,1.17.32,1.76.26,1.36.55,2.72.85,4.07l2.23-.86,3.03-1.16,1.83-.7c-.17-.38-.35-.75-.53-1.13-.42-.88-.85-1.75-1.3-2.62-.21-.42-.43-.84-.66-1.26-.04-.09-.09-.18-.14-.27-.26-.48-.52-.96-.79-1.44-.05-.1-.11-.2-.17-.29-.32-.48-.79-.83-1.32-1.01-.43-.16-.9-.2-1.37-.12-1.58.41-2.55,1.99-2.23,3.59.08.48.16.96.25,1.44Z"/>
    </g>
    <path id="Tracé_700" data-name="Tracé 700" class="cls-3" d="m39.93,46.71c-.09.47-.19.95-.27,1.45h-.11c-2.35.61-4.85.09-6.76-1.4-1.09-.8-2.02-1.8-2.74-2.95-.13-1.24-.33-2.47-.52-3.56l10.03,6.25.36.21h0Z"/>
    <path id="Tracé_701" data-name="Tracé 701" class="cls-3" d="m46.62,38.36c-.02,3.49-1.74,6.74-4.61,8.72h0c-.68.47-1.44.83-2.24,1.05h-.11c-2.35.61-4.85.09-6.76-1.4-1.09-.8-2.02-1.8-2.74-2.95-1.8-2.78-2.52-6.48-3.79-11.67-1.39-5.45,1.46-11.13,6.37-12.68,1.37-.44,2.83-.51,4.23-.21,6.93,1.51,9.83,12.2,9.64,19.15h.01Z"/>
    <path id="Tracé_702" data-name="Tracé 702" class="cls-9" d="m41.5,47.29c-.49.38-1.04.66-1.64.82-.06-1.32-.04-2.23-.05-2.23l.15-2.3s1.07,3.71,1.55,3.71h-.01Z"/>
    <path id="Tracé_703" data-name="Tracé 703" class="cls-5" d="m44.3,24.37c-.76,1.33-3.14,2.45-3.06,2.13.42-1.1.36-3.22-.88-2.74.34.85,1.31,7.21.85,7.98-.26.42-.53,5.49-2.51,9.96-1.57,3.56-1.58,4.66-1.58,4.66l-6.33,1.31c-2.37-.35-4.54-3.74-4.73-4.09-.82-1.59-3.31-3.74-4.64-4.8-.58-.51-1.01-1.18-1.23-1.92-.42-1.35.5-6.18.71-8.49.3-3.27,1.87-6.3,6.18-8.23,2.66-1.22,4.9-3.82,7.62-4.89,2.7-1.19,5.84-.82,8.19.97,1.11.94,3.33,4.76,1.42,8.14h0-.02Z"/>
    <path id="Tracé_704" data-name="Tracé 704" class="cls-3" d="m40.96,28.91c1.95.65,2.93,3.85,3.01,5.87.07,2.24-1.27,3.7-3.01,2.13-1.34-1.21-2.27-2.81-2.66-4.58-.45-2.19.73-4.06,2.67-3.42h-.01Z"/>
    <path id="Tracé_707" data-name="Tracé 707" class="cls-4" d="m94.92,32.12l33.35-.9-.43-11.61-33.29,2.2s.37,10.31.37,10.31Z"/>
    <path id="Tracé_708" data-name="Tracé 708" class="cls-4" d="m69.72,32.39l26.98-.77-.34-9.53-26.93,1.74.3,8.55h-.01Z"/>
    <path id="Tracé_709" data-name="Tracé 709" class="cls-5" d="m93.12,31.82l1.77.22-.36-10.18-1.74.4.34,9.56h0Z"/>
    <path id="Tracé_710" data-name="Tracé 710" class="cls-9" d="m93.12,31.82l1.77.22-.36-10.18-1.74.4.34,9.56h0Z"/>
    <path id="Tracé_711" data-name="Tracé 711" class="cls-5" d="m94.9,32.12l1.8-.04-.37-10.39-1.8.12.37,10.31Z"/>
    <path id="Tracé_712" data-name="Tracé 712" class="cls-5" d="m65.55,30.96l2.66,1.4-.28-8.35-2.56,1.64.19,5.31h-.01Z"/>
    <path id="Tracé_713" data-name="Tracé 713" class="cls-5" d="m51.85,30.75l7.93-.4-.14-3.91-7.93.46.14,3.85Z"/>
    <path id="Tracé_714" data-name="Tracé 714" class="cls-9" d="m51.85,30.75l7.93-.4-.14-3.91-7.93.46.14,3.85Z"/>
    <path id="Tracé_715" data-name="Tracé 715" class="cls-5" d="m58.69,31.13l8.82-.31-.19-5.46-8.82.52.19,5.26h0Z"/>
    <path id="Tracé_716" data-name="Tracé 716" class="cls-9" d="m65.55,30.96l2.66,1.4-.28-8.35-2.56,1.64.19,5.31h-.01Z"/>
    <path id="Tracé_717" data-name="Tracé 717" class="cls-5" d="m68.21,32.42l1.56-.03-.33-8.58-1.51.2.28,8.35v.06Z"/>
    <path id="Tracé_718" data-name="Tracé 718" class="cls-5" d="m127.14,31.25l5.24-.17-.44-11.66-5.23.26.43,11.58h0Z"/>
    <path id="Tracé_719" data-name="Tracé 719" class="cls-4" d="m129.47,32.1l6.67-.16.17-.52c1.46-4.4,1.21-9.18-.68-13.41h0l-6.67.46.14.39c1.55,4.26,1.68,8.91.37,13.25h0Z"/>
    <g id="Groupe_32-2" data-name="Groupe 32-2" class="cls-7">
      <path id="Tracé_720" data-name="Tracé 720" class="cls-1" d="m122.43,20.86l2.7-.16.05,1.24-2.74.16c-.05-.41-.05-.83,0-1.24h-.01Z"/>
      <path id="Tracé_721" data-name="Tracé 721" class="cls-1" d="m120.8,20.98c-.04.41-.05.83,0,1.24l-23.4,1.29-.1-1.11,23.51-1.42h-.01Z"/>
    </g>
    <g id="Groupe_33" data-name="Groupe 33" class="cls-7">
      <path id="Tracé_722" data-name="Tracé 722" class="cls-1" d="m69.99,24.5l.04,1.04,22-1.29-.04-1.14-21.99,1.39h-.01Z"/>
    </g>
    <g id="Groupe_34" data-name="Groupe 34" class="cls-7">
      <path id="Tracé_723" data-name="Tracé 723" class="cls-1" d="m129.54,18.87l.05,1.3,5.22-.35-.05-1.32-5.23.37h0Z"/>
    </g>
    <path id="Tracé_724" data-name="Tracé 724" class="cls-8" d="m135.47,30.21c-.05.44-.05.89,0,1.34l-5.4.16-.06-1.24,5.46-.26h0Z"/>
    <path id="Tracé_725" data-name="Tracé 725" class="cls-8" d="m125.81,29.42c-.05.41-.05.83,0,1.24l-28.58.99-.05-1.17,28.64-1.06h0Z"/>
    <path id="Tracé_726" data-name="Tracé 726" class="cls-8" d="m91.72,30.3c-.04.38-.04.76,0,1.14l-21.28.68v-1.04l21.29-.78h-.01Z"/>
    <path id="Tracé_727" data-name="Tracé 727" class="cls-4" d="m50.1,27.04l.04,3.71c0,.61.49,1.11,1.11,1.14l2.73.02-.07-6.11-2.73.09c-.6.05-1.06.54-1.08,1.14h0Z"/>
    <path id="Tracé_728" data-name="Tracé 728" class="cls-2" d="m63.62,37.5l1.09-6.96c.03-.29.03-.58,0-.87l-.27-3.71c-.04-.49-.35-.92-.8-1.11l-5-.05c-.64-.24-1.36.1-1.59.74v.02s-.95,4.56-.95,4.56c-.07.34-.07.69,0,1.02l1.44,6.29c.14.53.57.95,1.11,1.06l3.27.02c.74.2,1.5-.23,1.71-.97,0-.02.01-.04.02-.06h-.02s-.02,0-.02,0Z"/>
    <polygon class="cls-6" points="67.08 39.71 66.71 39.85 64.88 40.55 61.85 41.71 59.62 42.57 58.54 42.98 57.17 37.16 57.46 37.06 58.45 36.74 61.82 35.63 64.03 34.91 64.03 34.9 64.22 34.84 64.5 34.75 64.88 35.48 67.08 39.71"/>
  </g>
</svg>