<?xml version="1.0" encoding="UTF-8" standalone="no"?>
<svg
   width="608.02264"
   height="341.57401"
   viewBox="0 0 608.02262 341.574"
   role="img"
   artist="Katerina Limpitsouni"
   source="https://undraw.co/"
   version="1.1"
   id="svg63"
   sodipodi:docname="api-illustration.svg"
   inkscape:version="1.4.2 (f4327f4, 2025-05-13)"
   xmlns:inkscape="http://www.inkscape.org/namespaces/inkscape"
   xmlns:sodipodi="http://sodipodi.sourceforge.net/DTD/sodipodi-0.dtd"
   xmlns="http://www.w3.org/2000/svg"
   xmlns:svg="http://www.w3.org/2000/svg">
  <defs
     id="defs63" />
  <sodipodi:namedview
     id="namedview63"
     pagecolor="#ffffff"
     bordercolor="#000000"
     borderopacity="0.25"
     inkscape:showpageshadow="2"
     inkscape:pageopacity="0.0"
     inkscape:pagecheckerboard="0"
     inkscape:deskcolor="#d1d1d1"
     inkscape:zoom="1.5664087"
     inkscape:cx="294.30378"
     inkscape:cy="103.74048"
     inkscape:window-width="1920"
     inkscape:window-height="991"
     inkscape:window-x="-9"
     inkscape:window-y="-9"
     inkscape:window-maximized="1"
     inkscape:current-layer="g63" />
  <g
     transform="translate(-589.77838,-223.146)"
     id="g63">
    <path
       d="M 311.446,467.2 H 30.128 A 30.162,30.162 0 0 1 0,437.074 V 30.128 A 30.162,30.162 0 0 1 30.128,0 h 281.318 a 30.162,30.162 0 0 1 30.128,30.128 V 437.074 A 30.163,30.163 0 0 1 311.446,467.2 Z"
       transform="rotate(90,487.3275,710.4735)"
       fill="#2f2e41"
       id="path1" />
    <path
       d="M 289.009,428.611 H 8.226 A 8.235,8.235 0 0 1 0,420.385 V 8.226 A 8.235,8.235 0 0 1 8.226,0 h 280.783 a 8.235,8.235 0 0 1 8.226,8.226 v 412.159 a 8.235,8.235 0 0 1 -8.226,8.226 z"
       transform="rotate(90,465.4845,710.8005)"
       fill="#ffffff"
       id="path2" />
    <g
       transform="translate(812.213,439.349)"
       id="g6">
      <path
         d="m 512.7,410.083 a 31.631,31.631 0 0 0 -51.062,-4.717 l -2.036,-1.779 a 34.329,34.329 0 0 1 55.424,5.119 z"
         transform="translate(-451.125,-391.831)"
         fill="#e6e6e6"
         id="path3"
         style="fill:#f0f0f8;fill-opacity:1" />
      <path
         d="m 569.036,463.126 -2.244,-1.508 a 31.647,31.647 0 0 0 0.97,-33.709 l 2.326,-1.377 a 34.351,34.351 0 0 1 -1.052,36.594 z"
         transform="translate(-506.192,-409.657)"
         fill="#191558"
         id="path4" />
      <path
         d="m 450.929,461.484 a 34.327,34.327 0 0 1 -0.282,-45.479 l 2.036,1.779 a 31.624,31.624 0 0 0 0.258,41.9 z"
         transform="translate(-442.175,-404.25)"
         fill="#191558"
         id="path5" />
      <path
         d="m 485.755,515.388 a 34.385,34.385 0 0 1 -25.579,-11.437 l 2.014,-1.8 a 31.631,31.631 0 0 0 49.833,-3.471 l 2.244,1.508 a 34.31,34.31 0 0 1 -28.511,15.2 z"
         transform="translate(-451.422,-446.718)"
         fill="#191558"
         id="path6" />
    </g>
    <g
       transform="translate(927.647,439.349)"
       id="g10">
      <path
         d="m 512.7,410.083 a 31.631,31.631 0 0 0 -51.062,-4.717 l -2.036,-1.779 a 34.329,34.329 0 0 1 55.424,5.119 z"
         transform="translate(-451.125,-391.831)"
         fill="#e6e6e6"
         id="path7"
         style="fill:#f0f0f8;fill-opacity:1" />
      <path
         d="m 569.036,463.126 -2.244,-1.508 a 31.647,31.647 0 0 0 0.97,-33.709 l 2.326,-1.377 a 34.351,34.351 0 0 1 -1.052,36.594 z"
         transform="translate(-506.192,-409.657)"
         fill="#e6e6e6"
         id="path8"
         style="fill:#f0f0f8;fill-opacity:1" />
      <path
         d="m 450.929,461.484 a 34.327,34.327 0 0 1 -0.282,-45.479 l 2.036,1.779 a 31.624,31.624 0 0 0 0.258,41.9 z"
         transform="translate(-442.175,-404.25)"
         fill="#191558"
         id="path9" />
      <path
         d="m 485.755,515.388 a 34.385,34.385 0 0 1 -25.579,-11.437 l 2.014,-1.8 a 31.631,31.631 0 0 0 49.833,-3.471 l 2.244,1.508 a 34.31,34.31 0 0 1 -28.511,15.2 z"
         transform="translate(-451.422,-446.718)"
         fill="#e6e6e6"
         id="path10"
         style="fill:#f0f0f8;fill-opacity:1" />
    </g>
    <g
       transform="translate(1043.081,439.349)"
       id="g14">
      <path
         d="m 512.7,410.083 a 31.631,31.631 0 0 0 -51.062,-4.717 l -2.036,-1.779 a 34.329,34.329 0 0 1 55.424,5.119 z"
         transform="translate(-451.125,-391.831)"
         fill="#e6e6e6"
         id="path11"
         style="fill:#f0f0f8;fill-opacity:1" />
      <path
         d="m 569.036,463.126 -2.244,-1.508 a 31.647,31.647 0 0 0 0.97,-33.709 l 2.326,-1.377 a 34.351,34.351 0 0 1 -1.052,36.594 z"
         transform="translate(-506.192,-409.657)"
         fill="#191558"
         id="path12" />
      <path
         d="m 450.929,461.484 a 34.327,34.327 0 0 1 -0.282,-45.479 l 2.036,1.779 a 31.624,31.624 0 0 0 0.258,41.9 z"
         transform="translate(-442.175,-404.25)"
         fill="#191558"
         id="path13" />
      <path
         d="m 485.755,515.388 a 34.385,34.385 0 0 1 -25.579,-11.437 l 2.014,-1.8 a 31.631,31.631 0 0 0 49.833,-3.471 l 2.244,1.508 a 34.31,34.31 0 0 1 -28.511,15.2 z"
         transform="translate(-451.422,-446.718)"
         fill="#191558"
         id="path14" />
    </g>
    <rect
       width="11.832"
       height="6.652"
       rx="2"
       transform="translate(829.872,465.632)"
       fill="#191558"
       id="rect14"
       x="0"
       y="0" />
    <rect
       width="33.347"
       height="3.118"
       rx="1.559"
       transform="translate(829.872,478.619)"
       fill="#e6e6e6"
       id="rect15"
       x="0"
       y="0"
       style="fill:#f0f0f8;fill-opacity:1" />
    <rect
       width="11.832"
       height="6.652"
       rx="2"
       transform="translate(947.526,465.632)"
       fill="#191558"
       id="rect16"
       x="0"
       y="0" />
    <rect
       width="33.347"
       height="3.118"
       rx="1.559"
       transform="translate(947.526,478.619)"
       fill="#e6e6e6"
       id="rect17"
       x="0"
       y="0"
       style="fill:#f0f0f8;fill-opacity:1" />
    <rect
       width="11.832"
       height="6.652"
       rx="2"
       transform="translate(1060.74,465.632)"
       fill="#191558"
       id="rect18"
       x="0"
       y="0" />
    <rect
       width="33.347"
       height="3.118"
       rx="1.559"
       transform="translate(1060.74,478.619)"
       fill="#e6e6e6"
       id="rect19"
       x="0"
       y="0"
       style="fill:#f0f0f8;fill-opacity:1" />
    <g
       transform="translate(865.992,286.022)"
       id="g37">
      <rect
         width="29.618999"
         height="7.1300001"
         rx="3.5650001"
         transform="translate(37.298)"
         fill="#191558"
         id="rect20"
         x="0"
         y="0" />
      <rect
         width="10.421"
         height="7.1300001"
         rx="3.5650001"
         transform="translate(159.064)"
         fill="#191558"
         id="rect21"
         x="0"
         y="0" />
      <rect
         width="10.421"
         height="7.1300001"
         rx="3.5650001"
         transform="translate(179.908)"
         fill="#191558"
         id="rect22"
         x="0"
         y="0" />
      <rect
         width="70.755997"
         height="7.1300001"
         rx="3.5650001"
         transform="translate(77.338)"
         fill="#191558"
         id="rect23"
         x="0"
         y="0" />
      <rect
         width="29.618999"
         height="7.1300001"
         rx="3.5650001"
         transform="translate(0.001,46.074)"
         fill="#191558"
         id="rect24"
         x="0"
         y="0" />
      <rect
         width="10.421"
         height="7.1300001"
         rx="3.5650001"
         transform="translate(121.767,46.074)"
         fill="#191558"
         id="rect25"
         x="0"
         y="0" />
      <rect
         width="10.421"
         height="7.1300001"
         rx="3.5650001"
         transform="translate(142.61,46.074)"
         fill="#191558"
         id="rect26"
         x="0"
         y="0" />
      <rect
         width="70.755997"
         height="7.1300001"
         rx="3.5650001"
         transform="translate(40.041,46.074)"
         fill="#191558"
         id="rect27"
         x="0"
         y="0" />
      <rect
         width="29.618999"
         height="7.1300001"
         rx="3.5650001"
         transform="translate(122.316,15.906)"
         fill="#191558"
         id="rect28"
         x="0"
         y="0" />
      <rect
         width="29.618999"
         height="7.1300001"
         rx="3.5650001"
         transform="translate(0.001,15.906)"
         fill="#191558"
         id="rect29"
         x="0"
         y="0" />
      <rect
         width="10.421"
         height="7.1300001"
         rx="3.5650001"
         transform="translate(0.001)"
         fill="#191558"
         id="rect30"
         x="0"
         y="0" />
      <rect
         width="10.421"
         height="7.1300001"
         rx="3.5650001"
         transform="translate(0,31.264)"
         fill="#191558"
         id="rect31"
         x="0"
         y="0" />
      <rect
         width="70.755997"
         height="7.1300001"
         rx="3.5650001"
         transform="translate(41.686,15.906)"
         fill="#191558"
         id="rect32"
         x="0"
         y="0" />
      <rect
         width="29.618999"
         height="7.1300001"
         rx="3.5650001"
         transform="translate(60.884,31.264)"
         fill="#191558"
         id="rect33"
         x="0"
         y="0" />
      <rect
         width="29.618999"
         height="7.1300001"
         rx="3.5650001"
         transform="translate(20.843,31.264)"
         fill="#191558"
         id="rect34"
         x="0"
         y="0" />
      <rect
         width="10.421"
         height="7.1300001"
         rx="3.5650001"
         transform="translate(18.675)"
         fill="#191558"
         id="rect35"
         x="0"
         y="0" />
      <rect
         width="10.421"
         height="7.1300001"
         rx="3.5650001"
         transform="translate(181.553,31.264)"
         fill="#191558"
         id="rect36"
         x="0"
         y="0" />
      <rect
         width="70.755997"
         height="7.1300001"
         rx="3.5650001"
         transform="translate(100.375,31.264)"
         fill="#191558"
         id="rect37"
         x="0"
         y="0" />
    </g>
    <path
       d="m 286.549,192.205 -26.939,26.6 26.939,26.6 6.061,-6.061 -20.37,-20.373 20.541,-20.541 z"
       transform="translate(552.602,93.817)"
       fill="#e6e6e6"
       id="path37"
       style="fill:#809df0;fill-opacity:1" />
    <path
       d="m 326.4,192.205 26.938,26.6 -26.938,26.605 -6.061,-6.061 20.372,-20.372 -20.542,-20.541 z"
       transform="translate(758.411,93.817)"
       fill="#e6e6e6"
       id="path38"
       style="fill:#809df0;fill-opacity:1" />
    <path
       d="m 472.167,337.638 h 297.08 v -16.722 c -0.091,-3.562 -4.549,-6.962 -12.366,-9.431 l -0.081,-0.026 a 141.828,141.828 0 0 0 -41.386,-5.809 c -9.692,0.2 -17.989,1.732 -24.662,4.559 -20.769,8.8 -48.052,5.832 -62.466,3.277 a 206.044,206.044 0 0 0 -38.562,-3.141 c -18.046,0.232 -43.446,2.415 -61.97,11.5 -7.075,3.467 -22.461,8.173 -55.588,10.939 z"
       transform="translate(341.273,72.301)"
       fill="#191558"
       style="isolation:isolate"
       id="path39" />
    <path
       d="m 938.155,174.823 h -96.382 a 3.145,3.145 0 0 1 0,-6.29 h 96.382 a 3.145,3.145 0 0 1 0,6.29 z"
       transform="translate(428.736,243.771)"
       fill="#191558"
       id="path41"
       style="display:none" />
    <g
       transform="translate(569.67,276.088)"
       id="g62">
      <g
         transform="translate(52.354,108.408)"
         id="g54">
        <path
           d="m 524.262,403.361 c 8.979,-2.79 18.591,0.227 27.619,-2.348 a 18.722,18.722 0 0 0 5.8,-2.725 36.057,36.057 0 0 0 4.223,-3.758 c 2.716,-2.686 5.665,-5.507 9.745,-5.476 5.373,0.041 9.5,4.032 13.08,7.556 0.506,0.5 1.286,-0.281 0.78,-0.78 -3.291,-3.238 -6.846,-6.654 -11.531,-7.622 a 10.641,10.641 0 0 0 -6.29,0.522 16.419,16.419 0 0 0 -4.674,3.2 c -1.442,1.323 -2.773,2.763 -4.235,4.065 a 17.631,17.631 0 0 1 -5.194,3.279 c -4.139,1.648 -8.678,1.85 -13.08,1.8 -5.526,-0.06 -11.183,-0.437 -16.537,1.227 -0.676,0.21 -0.387,1.274 0.3,1.063 z"
           transform="translate(-523.585,-387.956)"
           fill="#3f3d56"
           id="path53" />
        <path
           d="m 684.549,389.889 2.76,4.865 1.332,2.355 c 0.237,0.418 0.481,0.834 0.713,1.258 0.142,0.259 0.452,0.727 0.156,0.972 a 1.438,1.438 0 0 1 -0.839,0.131 c -0.486,0 -0.973,-0.01 -1.46,-0.015 l -2.738,-0.027 -5.657,-0.057 a 0.551,0.551 0 0 0 0,1.1 c 3.284,0.033 6.57,0.1 9.854,0.1 a 2.356,2.356 0 0 0 1.612,-0.444 1.533,1.533 0 0 0 0.3,-1.767 16.782,16.782 0 0 0 -1.114,-2.045 l -1.2,-2.119 -2.76,-4.865 a 0.552,0.552 0 0 0 -0.952,0.556 z"
           transform="translate(-621.431,-388.666)"
           fill="#3f3d56"
           id="path54" />
      </g>
      <g
         transform="translate(78.497,38.289)"
         id="g56">
        <path
           d="m 768.876,279.724 c 4.324,5.862 11.708,8.39 16.162,14.141 a 14.5,14.5 0 0 1 2.368,4.366 27.924,27.924 0 0 1 0.912,4.284 c 0.462,2.923 1.009,6.037 3.57,7.89 3.373,2.442 7.779,1.842 11.632,1.286 a 0.427,0.427 0 1 1 0.129,0.844 c -3.54,0.511 -7.326,1.012 -10.695,-0.534 a 8.244,8.244 0 0 1 -3.686,-3.213 12.728,12.728 0 0 1 -1.451,-4.144 c -0.3,-1.488 -0.463,-3 -0.778,-4.481 a 13.656,13.656 0 0 0 -1.738,-4.431 26.49,26.49 0 0 0 -7.34,-7.126 c -3.478,-2.5 -7.178,-4.86 -9.759,-8.355 -0.326,-0.444 0.343,-0.973 0.671,-0.529 z"
           transform="translate(-768.115,-279.555)"
           fill="#3f3d56"
           id="path55" />
        <path
           d="m 884.273,274.009 5.106,-2.285 2.471,-1.105 c 0.439,-0.2 0.881,-0.387 1.318,-0.592 0.268,-0.125 0.795,-0.317 0.7,-0.691 -0.064,-0.255 -0.4,-0.459 -0.6,-0.6 -0.391,-0.289 -0.79,-0.568 -1.184,-0.853 l -2.22,-1.6 -4.591,-3.3 a 0.55112453,0.55112453 0 1 1 0.653,-0.888 c 2.664,1.919 5.354,3.809 8,5.757 a 2.356,2.356 0 0 1 1.036,1.31 1.533,1.533 0 0 1 -0.814,1.6 16.79,16.79 0 0 1 -2.109,0.987 l -2.22,1 -5.106,2.285 a 0.552,0.552 0 0 1 -0.437,-1.012 z"
           transform="translate(-851.818,-235.115)"
           fill="#3f3d56"
           id="path56" />
      </g>
      <g
         transform="translate(74.051,154.018)"
         id="g58">
        <path
           d="m 821.974,524.236 c 4.861,-6.59 13.162,-9.431 18.168,-15.9 a 16.3,16.3 0 0 0 2.664,-4.905 31.4,31.4 0 0 0 1.025,-4.816 c 0.518,-3.286 1.134,-6.786 4.014,-8.869 3.792,-2.743 8.745,-2.072 13.076,-1.445 a 0.48023562,0.48023562 0 1 0 0.148,-0.949 c -3.979,-0.575 -8.237,-1.137 -12.022,0.6 a 9.267,9.267 0 0 0 -4.144,3.612 14.3,14.3 0 0 0 -1.628,4.654 c -0.33,1.672 -0.518,3.369 -0.875,5.037 a 15.359,15.359 0 0 1 -1.954,4.981 c -2.054,3.291 -5.137,5.772 -8.251,8.01 -3.908,2.812 -8.072,5.463 -10.971,9.392 -0.365,0.5 0.386,1.094 0.754,0.592 z"
           transform="translate(-821.127,-480.33)"
           fill="#3f3d56"
           id="path57" />
        <path
           d="m 937.273,587.438 5.106,2.285 2.471,1.105 c 0.439,0.2 0.881,0.387 1.318,0.592 0.268,0.125 0.795,0.317 0.7,0.691 -0.064,0.255 -0.4,0.459 -0.6,0.6 -0.391,0.289 -0.79,0.568 -1.184,0.853 l -2.22,1.6 -4.591,3.3 a 0.55112453,0.55112453 0 1 0 0.653,0.888 c 2.664,-1.919 5.354,-3.809 8,-5.757 a 2.356,2.356 0 0 0 1.036,-1.31 1.533,1.533 0 0 0 -0.814,-1.6 16.778,16.778 0 0 0 -2.109,-0.987 l -2.22,-1 -5.106,-2.285 a 0.552,0.552 0 0 0 -0.437,1.012 z"
           transform="translate(-900.372,-586.393)"
           fill="#3f3d56"
           id="path58" />
      </g>
      <g
         transform="translate(51.27)"
         id="g59">
        <circle
           cx="11.254"
           cy="11.254"
           r="11.254"
           transform="rotate(11,2.1475,22.30264)"
           fill="#191558"
           id="circle58"
           style="fill:#809df0;fill-opacity:1" />
        <path
           d="M 3.778,8.559 A 1.167,1.167 0 0 1 3.078,8.326 L 3.068,8.316 0.418,6.289 A 1.175,1.175 0 0 1 1.848,4.427 L 3.562,5.741 7.61,0.46 A 1.175,1.175 0 0 1 9.257,0.242 v 0 L 9.232,0.277 9.258,0.242 A 1.177,1.177 0 0 1 9.475,1.89 L 4.714,8.1 A 1.176,1.176 0 0 1 3.779,8.558 Z"
           transform="rotate(11,-37.317655,51.840483)"
           fill="#ffffff"
           id="path59" />
      </g>
      <g
         transform="translate(43.431,169.183)"
         id="g60">
        <circle
           cx="12.065"
           cy="12.065"
           r="12.065"
           transform="rotate(11,2.302,23.907184)"
           fill="#191558"
           id="circle59"
           style="fill:#809df0;fill-opacity:1" />
        <path
           d="M 4.094,9.176 A 1.251,1.251 0 0 1 3.341,8.926 L 3.328,8.916 0.493,6.748 a 1.2599691,1.2599691 0 1 1 1.533,-2 L 3.862,6.156 8.2,0.494 A 1.258,1.258 0 0 1 9.969,0.261 v 0 L 9.942,0.3 9.969,0.259 A 1.258,1.258 0 0 1 10.2,2.025 l -5.1,6.66 a 1.258,1.258 0 0 1 -1,0.491 z"
           transform="rotate(11,-39.983072,55.346456)"
           fill="#ffffff"
           id="path60" />
      </g>
      <g
         transform="translate(17.899,93.216)"
         id="g61">
        <circle
           cx="12.81"
           cy="12.81"
           r="12.81"
           transform="rotate(11,2.4445,25.387103)"
           fill="#191558"
           id="circle60"
           style="fill:#809df0;fill-opacity:1" />
        <path
           d="M 4.348,9.741 A 1.332,1.332 0 0 1 3.548,9.475 L 3.534,9.464 0.524,7.162 A 1.3380732,1.3380732 0 0 1 2.152,5.038 L 4.1,6.534 8.71,0.522 a 1.337,1.337 0 0 1 1.872,-0.248 v 0 l -0.029,0.04 0.03,-0.04 A 1.339,1.339 0 0 1 10.83,2.149 L 5.414,9.218 A 1.338,1.338 0 0 1 4.35,9.74 Z"
           transform="rotate(11,-42.463858,58.756038)"
           fill="#ffffff"
           id="path61" />
      </g>
    </g>
  </g>
</svg>
