<svg xmlns="http://www.w3.org/2000/svg" width="370.826" height="277.843" viewBox="0 0 370.826 277.843">
  <g id="Open_source-rafiki_1_" data-name="Open source-rafiki (1)" transform="translate(-44.46 -111.481)">
    <g id="freepik--background-simple--inject-2" transform="translate(47.438 111.481)">
      <path id="Tracé_221" data-name="Tracé 221" d="M254.508,333.965c52.573-18.839,143.313-68.182,146.472-136.559,2.99-64.685-40.934-89.654-74.357-85.481-88.435,11.052-77.774,57.841-110.949,60.1-30.825,2.065-25.806-39.216-72.854-36.618s-74.971,23.7-90.562,67.612C29.843,266.2,96.752,318.641,148.552,337.685,186.157,351.5,226.184,344.118,254.508,333.965Z" transform="translate(-47.807 -111.481)" fill="#191558"/>
      <path id="Tracé_222" data-name="Tracé 222" d="M254.508,333.965c52.573-18.839,143.313-68.182,146.472-136.559,2.99-64.685-40.934-89.654-74.357-85.481-88.435,11.052-77.774,57.841-110.949,60.1-30.825,2.065-25.806-39.216-72.854-36.618s-74.971,23.7-90.562,67.612C29.843,266.2,96.752,318.641,148.552,337.685,186.157,351.5,226.184,344.118,254.508,333.965Z" transform="translate(-47.807 -111.481)" fill="#f0f0f8" opacity="0.9"/>
    </g>
    <g id="freepik--Shadow--inject-2" transform="translate(50.538 369.177)">
      <ellipse id="freepik--path--inject-2" cx="172.537" cy="10.073" rx="172.537" ry="10.073" fill="#f5f5f5"/>
    </g>
    <g id="freepik--Coding--inject-2" transform="translate(95.935 148.819)">
      <path id="Tracé_223" data-name="Tracé 223" d="M362.362,158.17l-195.6.044-1.477,1.335-.774,24.792h0l-.338,3.809-.828,9.023h0l-.623,7.2h0l-.356,4.04H112.38l-1.486,1.335L104,304.411a4.031,4.031,0,0,0,4.076,4.449H153.83l.365-4.227h-.24l.89-10.233h0l.623-7.208h0l.5-5.651h0l.632-7.208h0l.507-5.766.614-7.119h0l.249-2.839h50.224l-.89,9.931v.116h0l-3.141,35.951h0l-.133,1.513v.507h0l-.2,2.207,48.738,1.353,1.477-1.148,1.228-14.621h0l.632-7.208h0l1.628-18.625.623-7.119h0l.249-2.839h50.26l1.37-15.671h0l.5-5.749.623-7.119h0l.632-7.208h0l1.264-14.478h46l2.75,1.335,1.477-1.335,3.844-45.045A5,5,0,0,0,362.362,158.17Z" transform="translate(-102.489 -153.961)" fill="#191558"/>
      <path id="Tracé_224" data-name="Tracé 224" d="M329.61,322.64h45.73a4.974,4.974,0,0,0,4.859-4.449l3.88-46.763-50.571-.178-1.522,1.184Z" transform="translate(-127.339 -166.415)" fill="#191558"/>
      <path id="Tracé_225" data-name="Tracé 225" d="M360.232,210.794l3.791-43.354H164.764l-3.791,43.354H113.356l-8.6,98.233h47.626l4.2-48.017H206.8l-4.2,48.017h50.224l4.2-48.017h50.224l-4.2,48.017h48.587l4.2-48.017H307.249l4.4-50.215Z" transform="translate(-102.576 -154.982)" fill="#191558"/>
      <path id="Tracé_226" data-name="Tracé 226" d="M360.232,210.794l3.791-43.354H164.764l-3.791,43.354H113.356l-8.6,98.233h47.626l4.2-48.017H206.8l-4.2,48.017h50.224l4.2-48.017h50.224l-4.2,48.017h48.587l4.2-48.017H307.249l4.4-50.215Z" transform="translate(-102.576 -154.982)" fill="#fff" opacity="0.8"/>
      <path id="Tracé_227" data-name="Tracé 227" d="M231.546,225.2H130.474a1.637,1.637,0,0,1-1.655-1.78l.32-3.559a2.02,2.02,0,0,1,1.967-1.78H232.2a1.628,1.628,0,0,1,1.646,1.78l-.311,3.559a2.02,2.02,0,0,1-1.993,1.78Z" transform="translate(-105.225 -160.559)" fill="#191558"/>
      <path id="Tracé_228" data-name="Tracé 228" d="M231.546,225.2H130.474a1.637,1.637,0,0,1-1.655-1.78l.32-3.559a2.02,2.02,0,0,1,1.967-1.78H232.2a1.628,1.628,0,0,1,1.646,1.78l-.311,3.559a2.02,2.02,0,0,1-1.993,1.78Z" transform="translate(-105.225 -160.559)" fill="#fff" opacity="0.5"/>
      <path id="Tracé_229" data-name="Tracé 229" d="M300.375,225.2h-48.72a1.628,1.628,0,0,1-1.655-1.78l.311-3.559a2.02,2.02,0,0,1,1.975-1.78h48.72a1.628,1.628,0,0,1,1.655,1.78l-.311,3.559A2.02,2.02,0,0,1,300.375,225.2Z" transform="translate(-118.57 -160.559)" fill="#191558"/>
      <path id="Tracé_230" data-name="Tracé 230" d="M300.375,225.2h-48.72a1.628,1.628,0,0,1-1.655-1.78l.311-3.559a2.02,2.02,0,0,1,1.975-1.78h48.72a1.628,1.628,0,0,1,1.655,1.78l-.311,3.559A2.02,2.02,0,0,1,300.375,225.2Z" transform="translate(-118.57 -160.559)" fill="#fff" opacity="0.5"/>
      <path id="Tracé_231" data-name="Tracé 231" d="M230.285,239.649H129.214a1.628,1.628,0,0,1-1.655-1.78l.311-3.559a2.02,2.02,0,0,1,1.967-1.78H230.908a1.628,1.628,0,0,1,1.655,1.78l-.311,3.559A2.02,2.02,0,0,1,230.285,239.649Z" transform="translate(-105.086 -162.15)" fill="#191558"/>
      <path id="Tracé_232" data-name="Tracé 232" d="M230.285,239.649H129.214a1.628,1.628,0,0,1-1.655-1.78l.311-3.559a2.02,2.02,0,0,1,1.967-1.78H230.908a1.628,1.628,0,0,1,1.655,1.78l-.311,3.559A2.02,2.02,0,0,1,230.285,239.649Z" transform="translate(-105.086 -162.15)" fill="#fff" opacity="0.5"/>
      <path id="Tracé_233" data-name="Tracé 233" d="M207.217,268.549H126.684a1.629,1.629,0,0,1-1.655-1.78l.311-3.559a2.02,2.02,0,0,1,1.976-1.78H207.84a1.628,1.628,0,0,1,1.655,1.78l-.311,3.56A2.02,2.02,0,0,1,207.217,268.549Z" transform="translate(-104.807 -165.333)" fill="#191558"/>
      <path id="Tracé_234" data-name="Tracé 234" d="M173.665,203.53h-4.743l-.632,7.2H173a2.02,2.02,0,0,0,1.967-1.78l.311-3.559a1.628,1.628,0,0,0-1.611-1.86Z" transform="translate(-109.572 -158.957)" fill="#191558"/>
      <path id="Tracé_235" data-name="Tracé 235" d="M227.654,189.08H170.222l-.632,7.2h57.432a2.02,2.02,0,0,0,1.967-1.78l.311-3.559a1.628,1.628,0,0,0-1.646-1.86Z" transform="translate(-109.716 -157.365)" fill="#191558"/>
      <path id="Tracé_236" data-name="Tracé 236" d="M227.654,189.08H170.222l-.632,7.2h57.432a2.02,2.02,0,0,0,1.967-1.78l.311-3.559a1.628,1.628,0,0,0-1.646-1.86Z" transform="translate(-109.716 -157.365)" fill="#fff" opacity="0.5"/>
      <path id="Tracé_237" data-name="Tracé 237" d="M311.623,246.88H128.577a2.02,2.02,0,0,0-1.967,1.78l-.311,3.559a1.628,1.628,0,0,0,1.646,1.78H310.991Z" transform="translate(-104.947 -163.731)" fill="#191558"/>
      <path id="Tracé_238" data-name="Tracé 238" d="M311.623,246.88H128.577a2.02,2.02,0,0,0-1.967,1.78l-.311,3.559a1.628,1.628,0,0,0,1.646,1.78H310.991Z" transform="translate(-104.947 -163.731)" fill="#fff" opacity="0.5"/>
      <path id="Tracé_239" data-name="Tracé 239" d="M326.229,232.43H251.017a2.02,2.02,0,0,0-1.967,1.78l-.311,3.559a1.628,1.628,0,0,0,1.646,1.78H325.6Z" transform="translate(-118.432 -162.139)" fill="#191558"/>
      <path id="Tracé_240" data-name="Tracé 240" d="M241.889,275.78H219.073l-.623,7.208h22.807a2.02,2.02,0,0,0,1.967-1.78l.311-3.559a1.629,1.629,0,0,0-1.646-1.869Z" transform="translate(-115.097 -166.913)" fill="#191558"/>
      <path id="Tracé_241" data-name="Tracé 241" d="M158.429,275.78H126.047a2.02,2.02,0,0,0-1.967,1.78l-.311,3.559a1.628,1.628,0,0,0,1.646,1.78h32.373Z" transform="translate(-104.669 -166.914)" fill="#191558"/>
      <g id="Groupe_16" data-name="Groupe 16" transform="translate(19.094 108.866)" opacity="0.5">
        <path id="Tracé_242" data-name="Tracé 242" d="M241.889,275.78H219.073l-.623,7.208h22.807a2.02,2.02,0,0,0,1.967-1.78l.311-3.559a1.629,1.629,0,0,0-1.646-1.869Z" transform="translate(-134.19 -275.78)" fill="#fff"/>
        <path id="Tracé_243" data-name="Tracé 243" d="M158.429,275.78H126.047a2.02,2.02,0,0,0-1.967,1.78l-.311,3.559a1.628,1.628,0,0,0,1.646,1.78h32.373Z" transform="translate(-123.762 -275.78)" fill="#fff"/>
      </g>
      <path id="Tracé_244" data-name="Tracé 244" d="M157.16,290.23H124.786a2,2,0,0,0-1.967,1.78l-.32,3.559a1.637,1.637,0,0,0,1.655,1.78h32.373Z" transform="translate(-104.529 -168.505)" fill="#191558"/>
      <path id="Tracé_245" data-name="Tracé 245" d="M157.16,290.23H124.786a2,2,0,0,0-1.967,1.78l-.32,3.559a1.637,1.637,0,0,0,1.655,1.78h32.373Z" transform="translate(-104.529 -168.505)" fill="#fff" opacity="0.5"/>
      <path id="Tracé_246" data-name="Tracé 246" d="M155.9,304.68H123.517a2.02,2.02,0,0,0-1.967,1.78l-.311,3.559a1.628,1.628,0,0,0,1.646,1.78h32.382Z" transform="translate(-104.39 -170.096)" fill="#191558"/>
      <path id="Tracé_247" data-name="Tracé 247" d="M223.751,304.68h-7.2l-.632,7.208h7.19a2,2,0,0,0,1.967-1.78l.32-3.559a1.628,1.628,0,0,0-1.646-1.869Z" transform="translate(-114.818 -170.096)" fill="#191558"/>
      <g id="Groupe_17" data-name="Groupe 17" transform="translate(16.842 134.583)" opacity="0.5">
        <path id="Tracé_248" data-name="Tracé 248" d="M155.9,304.68H123.517a2.02,2.02,0,0,0-1.967,1.78l-.311,3.559a1.628,1.628,0,0,0,1.646,1.78h32.382Z" transform="translate(-121.232 -304.68)" fill="#fff"/>
        <path id="Tracé_249" data-name="Tracé 249" d="M223.751,304.68h-7.2l-.632,7.208h7.19a2,2,0,0,0,1.967-1.78l.32-3.559a1.628,1.628,0,0,0-1.646-1.869Z" transform="translate(-131.66 -304.68)" fill="#fff"/>
      </g>
      <path id="Tracé_250" data-name="Tracé 250" d="M373.231,164.189a4.022,4.022,0,0,0-4.076-4.449H172.735L171.64,172.3h193.7a2.67,2.67,0,0,1,2.67,2.954l-3.043,34.7h4.227Z" transform="translate(-109.941 -154.134)" fill="#191558"/>
      <path id="Tracé_251" data-name="Tracé 251" d="M373.231,164.189a4.022,4.022,0,0,0-4.076-4.449H172.735L171.64,172.3h193.7a2.67,2.67,0,0,1,2.67,2.954l-3.043,34.7h4.227Z" transform="translate(-109.941 -154.134)" fill="#fff" opacity="0.3"/>
      <path id="Tracé_252" data-name="Tracé 252" d="M377.763,272.59,374,315.668a3.292,3.292,0,0,1-3.221,2.954H327.744l-.374,4.227h45.757a4.974,4.974,0,0,0,4.859-4.449l4-45.757Z" transform="translate(-127.092 -166.562)" fill="#191558"/>
      <path id="Tracé_253" data-name="Tracé 253" d="M377.763,272.59,374,315.668a3.292,3.292,0,0,1-3.221,2.954H327.744l-.374,4.227h45.757a4.974,4.974,0,0,0,4.859-4.449l4-45.757Z" transform="translate(-127.092 -166.562)" fill="#fff" opacity="0.3"/>
      <path id="Tracé_254" data-name="Tracé 254" d="M114.955,216.16l-8.16,93.294a2.67,2.67,0,0,0,2.67,2.954H152.5l-.374,4.227H106.412a4.031,4.031,0,0,1-4.084-4.449l8.383-95.972Z" transform="translate(-102.305 -160.347)" fill="#191558"/>
      <path id="Tracé_255" data-name="Tracé 255" d="M114.955,216.16l-8.16,93.294a2.67,2.67,0,0,0,2.67,2.954H152.5l-.374,4.227H106.412a4.031,4.031,0,0,1-4.084-4.449l8.383-95.972Z" transform="translate(-102.305 -160.347)" fill="#fff" opacity="0.3"/>
      <path id="Tracé_256" data-name="Tracé 256" d="M265.089,324.28H214.865l-.365,4.227h50.215Z" transform="translate(-114.662 -172.255)" fill="#191558"/>
      <path id="Tracé_257" data-name="Tracé 257" d="M265.089,324.28H214.865l-.365,4.227h50.215Z" transform="translate(-114.662 -172.255)" fill="#fff" opacity="0.3"/>
      <path id="Tracé_258" data-name="Tracé 258" d="M268.29,304.68H232.037a2.02,2.02,0,0,0-1.967,1.78l-.311,3.559a1.628,1.628,0,0,0,1.646,1.78h36.262Z" transform="translate(-116.341 -170.096)" fill="#191558"/>
      <path id="Tracé_259" data-name="Tracé 259" d="M332.75,304.68h-3.328l-.632,7.208h3.328a2.02,2.02,0,0,0,1.967-1.78l.311-3.559a1.628,1.628,0,0,0-1.646-1.869Z" transform="translate(-127.249 -170.096)" fill="#191558"/>
      <path id="Tracé_260" data-name="Tracé 260" d="M272.751,275.78H252.1a2.02,2.02,0,0,0-1.967,1.78l-.311,3.559a1.628,1.628,0,0,0,1.655,1.78h20.645Z" transform="translate(-118.551 -166.914)" fill="#191558"/>
      <path id="Tracé_261" data-name="Tracé 261" d="M400.356,178.754h0a.436.436,0,0,1-.4-.48l1.628-18.687a4.538,4.538,0,0,0-4.592-5.037H381.865a.445.445,0,0,1-.445-.445.454.454,0,0,1,.445-.445h15.128a5.419,5.419,0,0,1,5.482,6l-1.637,18.687a.445.445,0,0,1-.48.409Z" transform="translate(-133.045 -153.464)" fill="#191558"/>
      <path id="Tracé_262" data-name="Tracé 262" d="M377.562,154.57h-3.818a.445.445,0,0,1-.445-.445.454.454,0,0,1,.445-.445h3.818a.445.445,0,0,1,0,.89Z" transform="translate(-132.151 -153.466)" fill="#191558"/>
      <path id="Tracé_263" data-name="Tracé 263" d="M271.108,338.19h-5.713a.454.454,0,0,1-.445-.445.445.445,0,0,1,.445-.445h5.713a.445.445,0,0,1,.445.445.454.454,0,0,1-.445.445Z" transform="translate(-120.218 -173.689)" fill="#191558"/>
      <path id="Tracé_264" data-name="Tracé 264" d="M255.012,338.19H213.945a.454.454,0,0,1-.445-.445.445.445,0,0,1,.445-.445h41.05a.445.445,0,0,1,.018.89Z" transform="translate(-114.552 -173.689)" fill="#191558"/>
      <path id="Tracé_265" data-name="Tracé 265" d="M231.792,168.514a2.056,2.056,0,0,1-.81-.845,2.287,2.287,0,0,1-.214-1.21,2.447,2.447,0,0,1,.427-1.21,2.572,2.572,0,0,1,.952-.845,2.732,2.732,0,0,1,1.29-.3,2.385,2.385,0,0,1,1.219.3,2,2,0,0,1,.81.845,2.189,2.189,0,0,1,.2,1.21,2.5,2.5,0,0,1-.418,1.21,2.572,2.572,0,0,1-.952.845,2.723,2.723,0,0,1-1.281.3A2.421,2.421,0,0,1,231.792,168.514Zm2.216-.516a1.913,1.913,0,0,0,1.006-1.539,1.611,1.611,0,0,0-.151-.89,1.5,1.5,0,0,0-.587-.632,1.638,1.638,0,0,0-.89-.231,1.922,1.922,0,0,0-.943.231,1.993,1.993,0,0,0-.7.632,1.878,1.878,0,0,0-.311.89,1.709,1.709,0,0,0,.16.89,1.442,1.442,0,0,0,.587.632,1.673,1.673,0,0,0,.89.231A1.869,1.869,0,0,0,234.008,168Z" transform="translate(-116.452 -154.614)" fill="#fff"/>
      <path id="Tracé_266" data-name="Tracé 266" d="M240.132,165.594a1.433,1.433,0,0,1,.569.623,1.78,1.78,0,0,1,.151.89,2.082,2.082,0,0,1-.311.934,1.869,1.869,0,0,1-.685.632,2.029,2.029,0,0,1-.89.222,1.486,1.486,0,0,1-.676-.151,1.139,1.139,0,0,1-.5-.418l-.16,1.78H237l.418-4.77h.605l-.044.552a1.441,1.441,0,0,1,.57-.436,1.646,1.646,0,0,1,.73-.151,1.717,1.717,0,0,1,.854.294Zm-.6,2.67a1.21,1.21,0,0,0,.463-.436,1.522,1.522,0,0,0,.214-.641,1.352,1.352,0,0,0-.1-.641,1.014,1.014,0,0,0-.383-.436,1.281,1.281,0,0,0-1.664.436,1.522,1.522,0,0,0-.214.641,1.255,1.255,0,0,0,.1.641.89.89,0,0,0,.383.436,1.077,1.077,0,0,0,.587.16,1.219,1.219,0,0,0,.614-.2Z" transform="translate(-117.14 -154.746)" fill="#fff"/>
      <path id="Tracé_267" data-name="Tracé 267" d="M245.4,167.381h-2.839a.979.979,0,0,0,.338.739,1.237,1.237,0,0,0,.836.285,1.424,1.424,0,0,0,1.05-.427l.311.409a1.6,1.6,0,0,1-.632.418,2.091,2.091,0,0,1-.792.151,1.975,1.975,0,0,1-.97-.231,1.477,1.477,0,0,1-.605-.632,1.78,1.78,0,0,1-.151-.89,2.038,2.038,0,0,1,.3-.89,1.886,1.886,0,0,1,.685-.641,1.922,1.922,0,0,1,.89-.222,1.655,1.655,0,0,1,.89.222,1.388,1.388,0,0,1,.552.641,1.886,1.886,0,0,1,.142.934C245.42,167.239,245.411,167.3,245.4,167.381Zm-2.376-1.184a1.246,1.246,0,0,0-.427.73h2.242a1.023,1.023,0,0,0-.294-.73,1,1,0,0,0-.774-.258,1.175,1.175,0,0,0-.747.258Z" transform="translate(-117.684 -154.763)" fill="#fff"/>
      <path id="Tracé_268" data-name="Tracé 268" d="M249.875,165.764a1.406,1.406,0,0,1,.294,1.13l-.178,2.011h-.632l.169-1.94a.943.943,0,0,0-.178-.756.819.819,0,0,0-.676-.258,1.2,1.2,0,0,0-.836.294,1.317,1.317,0,0,0-.374.89l-.151,1.78h-.632l.3-3.488h.605v.525a1.442,1.442,0,0,1,.552-.418,1.913,1.913,0,0,1,.756-.142,1.326,1.326,0,0,1,.979.374Z" transform="translate(-118.206 -154.756)" fill="#fff"/>
      <path id="Tracé_269" data-name="Tracé 269" d="M254.121,168.656a1.86,1.86,0,0,1-.721-.418l.285-.516a1.869,1.869,0,0,0,.641.392,2.394,2.394,0,0,0,.836.142,1.566,1.566,0,0,0,.89-.2.649.649,0,0,0,.329-.516.463.463,0,0,0-.116-.383,1.023,1.023,0,0,0-.365-.231c-.151-.053-.356-.107-.632-.178a5.1,5.1,0,0,1-.819-.249,1.2,1.2,0,0,1-.507-.383.943.943,0,0,1-.169-.7,1.272,1.272,0,0,1,.249-.667,1.575,1.575,0,0,1,.632-.472,2.447,2.447,0,0,1,1.006-.178,2.98,2.98,0,0,1,.792.107,1.779,1.779,0,0,1,.65.3l-.258.525a2.448,2.448,0,0,0-.6-.285,2.269,2.269,0,0,0-.641-.089,1.442,1.442,0,0,0-.89.2.676.676,0,0,0-.329.525.445.445,0,0,0,.125.383.988.988,0,0,0,.374.231,6.331,6.331,0,0,0,.614.178,5.809,5.809,0,0,1,.819.249,1.2,1.2,0,0,1,.507.383.89.89,0,0,1,.169.694,1.21,1.21,0,0,1-.258.659,1.388,1.388,0,0,1-.641.48,2.6,2.6,0,0,1-1,.169,3.079,3.079,0,0,1-.979-.16Z" transform="translate(-118.946 -154.614)" fill="#fff"/>
      <path id="Tracé_270" data-name="Tracé 270" d="M258.907,168.724a1.459,1.459,0,0,1-.587-.641,1.646,1.646,0,0,1-.151-.89,1.878,1.878,0,0,1,.311-.89,1.78,1.78,0,0,1,.7-.641,2.038,2.038,0,0,1,.961-.222,1.78,1.78,0,0,1,.89.222,1.433,1.433,0,0,1,.6.641,1.78,1.78,0,0,1,.151.89,1.922,1.922,0,0,1-.32.89,1.842,1.842,0,0,1-.694.641,2.073,2.073,0,0,1-.961.231,1.78,1.78,0,0,1-.9-.231Zm1.584-.481a1.273,1.273,0,0,0,.463-.436,1.4,1.4,0,0,0,.2-.641,1.255,1.255,0,0,0-.1-.641.961.961,0,0,0-.383-.436,1.157,1.157,0,0,0-.587-.151,1.309,1.309,0,0,0-.614.151,1.353,1.353,0,0,0-.463.436,1.521,1.521,0,0,0-.214.641,1.352,1.352,0,0,0,.1.641.988.988,0,0,0,.392.436,1.077,1.077,0,0,0,.587.16,1.219,1.219,0,0,0,.578-.16Z" transform="translate(-119.47 -154.762)" fill="#fff"/>
      <path id="Tracé_271" data-name="Tracé 271" d="M266.57,165.419l-.311,3.488h-.578l.044-.525a1.415,1.415,0,0,1-.543.418,1.646,1.646,0,0,1-.694.151,1.415,1.415,0,0,1-1.068-.392,1.37,1.37,0,0,1-.3-1.13l.178-2.011h.605l-.169,1.931a1.032,1.032,0,0,0,.178.774.89.89,0,0,0,.676.258,1.139,1.139,0,0,0,.819-.3,1.353,1.353,0,0,0,.365-.89l.151-1.78Z" transform="translate(-120.014 -154.758)" fill="#fff"/>
      <path id="Tracé_272" data-name="Tracé 272" d="M269.424,165.54a1.833,1.833,0,0,1,.8-.16l-.053.614h-.151a1.148,1.148,0,0,0-.828.311,1.3,1.3,0,0,0-.374.89l-.151,1.78H268l.3-3.488h.605l-.044.587A1.21,1.21,0,0,1,269.424,165.54Z" transform="translate(-120.554 -154.755)" fill="#fff"/>
      <path id="Tracé_273" data-name="Tracé 273" d="M271.555,168.72a1.45,1.45,0,0,1-.605-.641,1.646,1.646,0,0,1-.151-.89,1.9,1.9,0,0,1,1.023-1.557,2.109,2.109,0,0,1,.979-.222,1.78,1.78,0,0,1,.828.187,1.193,1.193,0,0,1,.525.561l-.507.3a1.077,1.077,0,0,0-.374-.374,1.157,1.157,0,0,0-.534-.125,1.344,1.344,0,0,0-.623.151,1.308,1.308,0,0,0-.472.436,1.522,1.522,0,0,0-.214.641,1.273,1.273,0,0,0,.107.65.89.89,0,0,0,.383.427,1.157,1.157,0,0,0,.605.16,1.255,1.255,0,0,0,1-.507l.454.3a1.647,1.647,0,0,1-.623.561,2.011,2.011,0,0,1-.89.2A1.868,1.868,0,0,1,271.555,168.72Z" transform="translate(-120.861 -154.758)" fill="#fff"/>
      <path id="Tracé_274" data-name="Tracé 274" d="M278.422,167.378h-2.839a.979.979,0,0,0,.338.739,1.237,1.237,0,0,0,.836.285,1.424,1.424,0,0,0,1.05-.427l.311.409a1.6,1.6,0,0,1-.632.418,2.109,2.109,0,0,1-.8.151,1.967,1.967,0,0,1-.961-.231,1.477,1.477,0,0,1-.605-.632,1.69,1.69,0,0,1-.151-.89,2.038,2.038,0,0,1,.3-.89,1.851,1.851,0,0,1,1.6-.89,1.664,1.664,0,0,1,.89.222,1.442,1.442,0,0,1,.552.641,1.886,1.886,0,0,1,.142.934A.379.379,0,0,0,278.422,167.378Zm-2.376-1.184a1.246,1.246,0,0,0-.427.73h2.242a1.023,1.023,0,0,0-.294-.73,1,1,0,0,0-.739-.276,1.174,1.174,0,0,0-.783.276Z" transform="translate(-121.32 -154.759)" fill="#fff"/>
      <path id="Tracé_275" data-name="Tracé 275" d="M174.175,154.33h5.7a.445.445,0,1,0,0-.89h-5.7a.445.445,0,1,0,0,.89Z" transform="translate(-110.172 -153.44)" fill="#191558"/>
      <path id="Tracé_276" data-name="Tracé 276" d="M185.885,154.33h41.05a.445.445,0,1,0,0-.89h-41.05a.445.445,0,0,0,0,.89Z" transform="translate(-111.461 -153.44)" fill="#191558"/>
    </g>
    <g id="freepik--character-4--inject-2" transform="translate(307.487 186.835)">
      <path id="Tracé_277" data-name="Tracé 277" d="M397.61,207.68l16.071,183.74h2.536l-.676-7.733h35.426l.676,7.733h2.536L438.1,207.68h-2.536l.676,7.724H400.822l-.676-7.724Zm3.435,10.26h35.417l2.2,25.094H403.234Zm2.412,27.586h35.435l2.189,25.085H405.663Zm2.42,27.586h35.417l2.2,25.085H408.075ZM408.3,300.7h35.417l2.2,25.094H410.486Zm2.412,27.63h35.426l2.189,25.085H412.907Zm40.044,52.707H415.318l-2.189-25.085h35.417Z" transform="translate(-346.38 -197.43)" fill="#263238"/>
      <path id="Tracé_278" data-name="Tracé 278" d="M397.61,207.68l16.071,183.74h2.536l-.676-7.733h35.426l.676,7.733h2.536L438.1,207.68h-2.536l.676,7.724H400.822l-.676-7.724Zm3.435,10.26h35.417l2.2,25.094H403.234Zm2.412,27.586h35.435l2.189,25.085H405.663Zm2.42,27.586h35.417l2.2,25.085H408.075ZM408.3,300.7h35.417l2.2,25.094H410.486Zm2.412,27.63h35.426l2.189,25.085H412.907Zm40.044,52.707H415.318l-2.189-25.085h35.417Z" transform="translate(-346.38 -197.43)" fill="#fff" opacity="0.3"/>
      <path id="Tracé_279" data-name="Tracé 279" d="M420.184,218.985l-4.512,4.254-8.658-2v-1.709a.721.721,0,0,0-1.023-.65s-.418.294-.578.267c-.721-.1-2.216-1.887-2.216-1.887a.748.748,0,0,0-.73-.125l-.614.24a.712.712,0,0,0-.445.828l.979,4.334a.721.721,0,0,0,.578.552l2.732.481s7.8,4.805,10.634,4.147,7.048-4.618,7.048-4.618Z" transform="translate(-346.797 -198.466)" fill="#7f3e3b"/>
      <path id="Tracé_280" data-name="Tracé 280" d="M347.083,210.15l-1.967,1.192-3.1,49.165,48.418,1.522,1.762-1.059,4.85-50.411Z" transform="translate(-340.258 -197.702)" fill="#191558"/>
      <path id="Tracé_281" data-name="Tracé 281" d="M393.45,211.944,344.9,211.49l-4.859,50.224,48.551.445Z" transform="translate(-340.04 -197.85)" fill="#191558"/>
      <path id="Tracé_282" data-name="Tracé 282" d="M393.45,211.944,344.9,211.49l-4.859,50.224,48.551.445Z" transform="translate(-340.04 -197.85)" fill="#fff" opacity="0.8"/>
      <path id="Tracé_283" data-name="Tracé 283" d="M369.719,227.97l-25.806-.24-.7,7.208,25.806.24A2.02,2.02,0,0,0,371,233.4l.347-3.559a1.637,1.637,0,0,0-1.628-1.869Z" transform="translate(-340.389 -199.638)" fill="#191558"/>
      <path id="Tracé_284" data-name="Tracé 284" d="M343.485,242.22h-1.041l-.694,7.208h1.032a2.011,2.011,0,0,0,1.984-1.78l.347-3.559a1.628,1.628,0,0,0-1.628-1.869Z" transform="translate(-340.228 -201.234)" fill="#191558"/>
      <path id="Tracé_285" data-name="Tracé 285" d="M343.485,242.22h-1.041l-.694,7.208h1.032a2.011,2.011,0,0,0,1.984-1.78l.347-3.559a1.628,1.628,0,0,0-1.628-1.869Z" transform="translate(-340.228 -201.234)" fill="#fff" opacity="0.5"/>
      <path id="Tracé_286" data-name="Tracé 286" d="M391.69,262.185l4.218.045,4.859-50.224-4.218-.036Z" transform="translate(-345.728 -197.903)" fill="#191558"/>
      <path id="Tracé_287" data-name="Tracé 287" d="M391.69,262.185l4.218.045,4.859-50.224-4.218-.036Z" transform="translate(-345.728 -197.903)" fill="#fff" opacity="0.3"/>
      <path id="Tracé_288" data-name="Tracé 288" d="M414.117,197.72s-3.266.258-3.257,2.518c0,1.433,1.13-.934,2.732-1.664S414.117,197.72,414.117,197.72Z" transform="translate(-347.84 -196.333)" fill="#263238"/>
      <path id="Tracé_289" data-name="Tracé 289" d="M428.6,283.055s1.6,5.428,2.331,7.163c3.8,9.148,11.488,22.389,16.347,36.111l3.907-1.513a175.307,175.307,0,0,0-5.864-20.592c-1.949-5.571-5.339-11.221-7.386-17.326a57.1,57.1,0,0,1-1.112-7.119Z" transform="translate(-349.793 -205.371)" fill="#7f3e3b"/>
      <path id="Tracé_290" data-name="Tracé 290" d="M430.878,244.7s4.307,4.325,5.063,9.878-.89,14.87,1.691,24.916l-9.975,2.732s-8.08-28.227-8.836-35.052Z" transform="translate(-348.716 -201.507)" fill="#263238"/>
      <path id="Tracé_291" data-name="Tracé 291" d="M425.1,272.03l2.581-8.961,3.115-5.019a51.256,51.256,0,0,1-.89,15.057c-.845,3.746-1.548,6.825-2.038,8.988C427.316,280.065,426.266,276.337,425.1,272.03Z" transform="translate(-349.408 -202.977)" opacity="0.4"/>
      <path id="Tracé_292" data-name="Tracé 292" d="M418.152,336.436a1.9,1.9,0,0,1-1.29-.374.4.4,0,0,1,0-.454.534.534,0,0,1,.338-.231c.739-.187,2.26.73,2.323.774a.089.089,0,0,1,.053.107.107.107,0,0,1-.089.08,7.622,7.622,0,0,1-1.335.1Zm-.676-.89a.758.758,0,0,0-.2,0,.258.258,0,0,0-.2.134c-.089.133-.062.2,0,.231.2.294,1.308.329,2.127.249a4.823,4.823,0,0,0-1.717-.605Z" transform="translate(-348.493 -211.491)" fill="#191558"/>
      <path id="Tracé_293" data-name="Tracé 293" d="M419.634,336.211h-.044c-.516-.249-1.557-1.237-1.451-1.726,0-.125.107-.267.4-.285a.774.774,0,0,1,.57.187,3.061,3.061,0,0,1,.65,1.726.09.09,0,0,1-.125.1Zm-1.032-1.78h-.062c-.187,0-.2.08-.214.107,0,.3.65,1.068,1.184,1.406a2.42,2.42,0,0,0-.552-1.37.525.525,0,0,0-.356-.142Z" transform="translate(-348.64 -211.364)" fill="#191558"/>
      <path id="Tracé_294" data-name="Tracé 294" d="M419.526,335.779l4.823.125a.383.383,0,0,1,.365.311l.774,3.933a.641.641,0,0,1-.5.765h-.133c-1.78-.071-3.284-.2-5.446-.249-2.545-.062-1.913.258-4.912.222-1.78,0-2.082-2.082-1.317-2.162,3.515-.356,3.907-1.406,5.295-2.67A1.513,1.513,0,0,1,419.526,335.779Z" transform="translate(-348.052 -211.537)" fill="#263238"/>
      <path id="Tracé_295" data-name="Tracé 295" d="M447.445,333.09a1.9,1.9,0,0,1-1.335.107.4.4,0,0,1-.142-.436.507.507,0,0,1,.231-.338c.632-.436,2.367-.107,2.447-.089a.1.1,0,0,1,.08.08.116.116,0,0,1-.044.116,8.112,8.112,0,0,1-1.237.561Zm-.943-.587-.187.089a.338.338,0,0,0-.142.2c0,.151,0,.2.053.222.294.2,1.344-.151,2.082-.516A4.742,4.742,0,0,0,446.5,332.5Z" transform="translate(-351.704 -211.143)" fill="#191558"/>
      <path id="Tracé_296" data-name="Tracé 296" d="M448.751,332.376h-.044c-.578-.044-1.887-.605-1.967-1.1a.374.374,0,0,1,.276-.4.756.756,0,0,1,.605,0c.685.249,1.184,1.344,1.21,1.388a.116.116,0,0,1,0,.107A.08.08,0,0,1,448.751,332.376Zm-1.611-1.335h-.053c-.169.071-.16.151-.16.178.071.294.979.774,1.6.89a2.456,2.456,0,0,0-1-1.086.543.543,0,0,0-.392,0Z" transform="translate(-351.791 -210.99)" fill="#191558"/>
      <path id="Tracé_297" data-name="Tracé 297" d="M448.635,331.543l4.547-1.575a.409.409,0,0,1,.463.16l2.1,3.426a.641.641,0,0,1-.2.89l-.116.053c-1.655.543-3.141.961-5.188,1.673-2.412.836-1.7.89-4.521,1.931-1.7.614-2.67-1.219-1.993-1.566,3.168-1.566,3.168-2.67,4.031-4.316A1.628,1.628,0,0,1,448.635,331.543Z" transform="translate(-351.435 -210.896)" fill="#263238"/>
      <path id="Tracé_298" data-name="Tracé 298" d="M415.592,283.327s-.151,5.651,0,7.528c.792,9.878,4.013,24.836,4.4,39.394h4.138a176.4,176.4,0,0,0,.7-24.284c-.2-5.1-1.557-10.474-1.584-15.866a56.948,56.948,0,0,1,1.13-7.119Z" transform="translate(-348.353 -205.723)" fill="#7f3e3b"/>
      <path id="Tracé_299" data-name="Tracé 299" d="M425.987,245.86a22.932,22.932,0,0,1,2.251,19.381c-3.889,11.613-2.91,17.317-2.91,17.317H414.5s0-15.19-.463-20.227c-.338-3.559-1.228-7.439-.943-14.238Z" transform="translate(-348.079 -201.635)" fill="#263238"/>
      <path id="Tracé_300" data-name="Tracé 300" d="M425.571,284.67l.329,2.581H414.19V284.67Z" transform="translate(-348.206 -205.909)" fill="#263238"/>
      <path id="Tracé_301" data-name="Tracé 301" d="M425.571,284.67l.329,2.581H414.19V284.67Z" transform="translate(-348.206 -205.909)" fill="#fff" opacity="0.4"/>
      <path id="Tracé_302" data-name="Tracé 302" d="M438.612,281.18l-10.892,3.239.783,2.447,10.839-3.15Z" transform="translate(-349.696 -205.525)" fill="#263238"/>
      <path id="Tracé_303" data-name="Tracé 303" d="M438.612,281.18l-10.892,3.239.783,2.447,10.839-3.15Z" transform="translate(-349.696 -205.525)" fill="#fff" opacity="0.4"/>
      <path id="Tracé_304" data-name="Tracé 304" d="M422.583,215.367s-2.438-.258-2.394-4.734c0,0-2.251-1.023-3.711.294s1.317,4.449-.5,5.722C416,216.631,417.573,217.7,422.583,215.367Z" transform="translate(-348.403 -197.714)" fill="#7f3e3b"/>
      <path id="Tracé_305" data-name="Tracé 305" d="M411.332,203.535c0-.3-.2-.534-.4-.525s-.329.276-.311.57.2.534.392.525S411.349,203.829,411.332,203.535Z" transform="translate(-347.813 -196.916)" fill="#263238"/>
      <path id="Tracé_306" data-name="Tracé 306" d="M410.994,204.21,409.41,206.3a1.967,1.967,0,0,0,1.78.311Z" transform="translate(-347.68 -197.048)" fill="#a02724"/>
      <path id="Tracé_307" data-name="Tracé 307" d="M421.724,202.39c-.187,3.791-.178,5.4-2.065,7.377-2.9,2.02-7.475,1.913-8.427-1.86-.89-3.4-.418-9.023,3.275-10.6a5.188,5.188,0,0,1,7.217,5.081Z" transform="translate(-347.838 -196.242)" fill="#7f3e3b"/>
      <path id="Tracé_308" data-name="Tracé 308" d="M411.851,202.51a.2.2,0,0,1-.16,0,1.415,1.415,0,0,0-1.228-.347.176.176,0,0,1-.1-.338,1.78,1.78,0,0,1,1.557.418.169.169,0,0,1,0,.24h0a.124.124,0,0,1-.071.027Z" transform="translate(-347.771 -196.781)" fill="#263238"/>
      <path id="Tracé_309" data-name="Tracé 309" d="M410.958,202.986l-.828-.116S410.619,203.457,410.958,202.986Z" transform="translate(-347.759 -196.9)" fill="#263238"/>
      <path id="Tracé_310" data-name="Tracé 310" d="M418.458,212.37a5.037,5.037,0,0,1-2.029,1.86,14.09,14.09,0,0,1-.329-1.459A6.843,6.843,0,0,0,418.458,212.37Z" transform="translate(-348.417 -197.947)" opacity="0.2"/>
      <path id="Tracé_311" data-name="Tracé 311" d="M424.259,216.359s0-3.008-3.559-2.447-6.149,2.26-6.229,4.013Z" transform="translate(-348.237 -198.109)" fill="#191558"/>
      <path id="Tracé_312" data-name="Tracé 312" d="M424.259,216.359s0-3.008-3.559-2.447-6.149,2.26-6.229,4.013Z" transform="translate(-348.237 -198.109)" opacity="0.1"/>
      <path id="Tracé_313" data-name="Tracé 313" d="M427.87,216.3s4.707.142,4.707,3.907a6.229,6.229,0,0,1-2.67,5.339Z" transform="translate(-349.713 -198.379)" fill="#191558"/>
      <path id="Tracé_314" data-name="Tracé 314" d="M427.87,216.3s4.707.142,4.707,3.907a6.229,6.229,0,0,1-2.67,5.339Z" transform="translate(-349.713 -198.379)" opacity="0.1"/>
      <path id="Tracé_315" data-name="Tracé 315" d="M431.262,242.026a30.781,30.781,0,0,1-2.821-10.162c-.472-5.553,2.919-15.43-3.106-15.617a28.935,28.935,0,0,0-12.894,2.064c-3.577,1.406-2.821,11.106-2.26,14.781s2.26,12.983,2.26,12.983S422.7,247.392,431.262,242.026Z" transform="translate(-347.712 -198.371)" fill="#191558"/>
      <path id="Tracé_316" data-name="Tracé 316" d="M409.9,231.612a38.374,38.374,0,0,1-.089-6.5l4.085-.507A24.506,24.506,0,0,1,409.9,231.612Z" transform="translate(-347.713 -199.293)" opacity="0.1"/>
      <path id="Tracé_317" data-name="Tracé 317" d="M403.658,223.628l-4.556,4.28-8.658-1.993v-1.842a.632.632,0,0,0-.89-.578,3.561,3.561,0,0,1-.774.125c-.739-.1-2.171-1.717-2.171-1.717a.623.623,0,0,0-.641-.107l-1.833,1.709a.739.739,0,0,0-.356.783l1.967,2.83a1.121,1.121,0,0,0,.721.605l2.67.516s7.813,4.805,10.634,4.147,7.057-4.61,7.057-4.61Z" transform="translate(-344.855 -198.98)" fill="#7f3e3b"/>
      <path id="Tracé_318" data-name="Tracé 318" d="M411.926,218.57s-2.821.819-6.9,4.4c0,0,.151,2.821,3.737,5.927,0,0,3.853-2.412,5.046-5.989S411.926,218.57,411.926,218.57Z" transform="translate(-347.197 -198.629)" fill="#191558"/>
      <path id="Tracé_319" data-name="Tracé 319" d="M414.152,196.81s-2.67,1.228-1.967,3.15,1.112,3.559.587,4.191,1.272.783,1.184-1.344c0,0,.231,2.67,1.593,3s2.3,4.307,1.157,6.229-1.406,6.318-.276,7.306,3.284,1.967,3.026,3.711,2.59.57,2.029-1.548c0,0,1.548,2.394,3.435.231s-1.13-4.138-1.13-4.138,2.287.7,2.34,1.931.81,1.833,1.7.472a3.106,3.106,0,0,0-.561-3.862s1.513-.249,1.7.81,1.922-.712.418-2.1-4.138-2.1-4.093-7.457-.988-9.931-5.081-10.874S414.152,196.81,414.152,196.81Z" transform="translate(-347.973 -196.161)" fill="#263238"/>
      <path id="Tracé_320" data-name="Tracé 320" d="M415.371,204.47a2.892,2.892,0,0,0-.961,2.02c0,1.032.943,1.317,1.78.836s1.709-1.477,1.344-2.42a1.308,1.308,0,0,0-2.162-.436Z" transform="translate(-348.231 -197.032)" fill="#7f3e3b"/>
    </g>
    <g id="freepik--character-3--inject-2" transform="translate(253.552 249.833)">
      <path id="Tracé_321" data-name="Tracé 321" d="M336.379,277.394l-50.536-.214-1.486,1.175L284,306.884l-.667,7.208-.952,10.233-.187,2.029-.2,2.2,47.919.258,2.2-2.225Z" transform="translate(-279.712 -268.082)" fill="#191558"/>
      <path id="Tracé_322" data-name="Tracé 322" d="M279.66,326.482l50.2.267,4.458-48.017L284.1,278.5Z" transform="translate(-279.455 -268.227)" fill="#191558"/>
      <path id="Tracé_323" data-name="Tracé 323" d="M279.66,326.482l50.2.267,4.458-48.017L284.1,278.5Z" transform="translate(-279.455 -268.227)" fill="#fff" opacity="0.8"/>
      <path id="Tracé_324" data-name="Tracé 324" d="M308.171,281.775l-23.884-.125-.667,7.208,23.884.125a2.02,2.02,0,0,0,1.976-1.78l.329-3.559a1.637,1.637,0,0,0-1.637-1.869Z" transform="translate(-279.891 -268.574)" fill="#191558"/>
      <path id="Tracé_325" data-name="Tracé 325" d="M280.94,317.758l50.2.267.667-7.208-50.2-.267Z" transform="translate(-279.596 -271.757)" fill="#191558"/>
      <path id="Tracé_326" data-name="Tracé 326" d="M279.822,330.15l-.392,4.227,50.2.267.392-4.227Z" transform="translate(-279.43 -273.916)" fill="#191558"/>
      <path id="Tracé_327" data-name="Tracé 327" d="M279.822,330.15l-.392,4.227,50.2.267.392-4.227Z" transform="translate(-279.43 -273.916)" fill="#fff" opacity="0.3"/>
      <path id="Tracé_328" data-name="Tracé 328" d="M319.76,343.026s.57,11.72.828,15.617c.721,10.634,3.488,42.491,3.488,42.491h4.734a200.964,200.964,0,0,0,1.29-27.194c-.214-5.188-1.78-9.789-2.127-13.348s1.664-9.21.276-14.362C326.932,341.371,319.76,343.026,319.76,343.026Z" transform="translate(-283.872 -275.304)" fill="#ffc3bd"/>
      <path id="Tracé_329" data-name="Tracé 329" d="M332.41,343.33s1.006,12.307,1.584,16.374c1.495,10.42,7.884,41.352,7.884,41.352l4.734-.214s-.107-16.018-2.251-28.663c-.721-4.227-1.869-7.875-2.323-10.883-.57-3.746.632-10.073-1-15.128C339.511,341.355,332.41,343.33,332.41,343.33Z" transform="translate(-285.265 -275.323)" fill="#ffc3bd"/>
      <path id="Tracé_330" data-name="Tracé 330" d="M335.619,316.09s8.356,7.769,8.062,33.121a41.032,41.032,0,0,1-25.415,1.317s-2.251-18.607,0-32.311Z" transform="translate(-283.597 -272.367)" fill="#263238"/>
      <path id="Tracé_331" data-name="Tracé 331" d="M318.6,275.687c0-.294-.2-.516-.392-.507s-.329.267-.3.561.2.516.383.507S318.621,275.981,318.6,275.687Z" transform="translate(-283.667 -267.862)" fill="#263238"/>
      <path id="Tracé_332" data-name="Tracé 332" d="M318.23,275.185l-.81-.125S317.936,275.621,318.23,275.185Z" transform="translate(-283.614 -267.849)" fill="#263238"/>
      <path id="Tracé_333" data-name="Tracé 333" d="M329.682,286.491s-2.385-.24-2.34-4.627c0,0-2.207-1.006-3.631.285s1.29,4.325-.481,5.6C323.23,287.746,324.805,288.8,329.682,286.491Z" transform="translate(-284.254 -268.557)" fill="#ffc3bd"/>
      <path id="Tracé_334" data-name="Tracé 334" d="M318.468,276.22l-1.548,2.047a1.922,1.922,0,0,0,1.709.3Z" transform="translate(-283.559 -267.976)" fill="#ed893e"/>
      <path id="Tracé_335" data-name="Tracé 335" d="M328.844,273.819c-.178,3.711-.169,5.295-2.02,7.217-2.839,1.984-7.315,1.878-8.249-1.78-.836-3.328-.409-8.828,3.212-10.376a5.081,5.081,0,0,1,7.057,4.974Z" transform="translate(-283.701 -267.124)" fill="#ffc3bd"/>
      <path id="Tracé_336" data-name="Tracé 336" d="M319.245,274.683a.151.151,0,0,1-.16,0,1.371,1.371,0,0,0-1.2-.329.169.169,0,0,1-.2-.116.187.187,0,0,1,.116-.222,1.78,1.78,0,0,1,1.522.409.169.169,0,0,1,0,.231h0a.116.116,0,0,1-.071.027Z" transform="translate(-283.642 -267.73)" fill="#263238"/>
      <path id="Tracé_337" data-name="Tracé 337" d="M325.645,283.59a4.867,4.867,0,0,1-1.984,1.78c-.116-.48-.258-.97-.32-1.424a6.959,6.959,0,0,0,2.3-.356Z" transform="translate(-284.266 -268.788)" opacity="0.2"/>
      <path id="Tracé_338" data-name="Tracé 338" d="M331.217,287.548s-1.379-3.319-5.642-1.949-5.206,3.755-5.206,3.755Z" transform="translate(-283.939 -268.973)" fill="#191558"/>
      <path id="Tracé_339" data-name="Tracé 339" d="M331.217,287.548s-1.379-3.319-5.642-1.949-5.206,3.755-5.206,3.755Z" transform="translate(-283.939 -268.973)" opacity="0.2"/>
      <path id="Tracé_340" data-name="Tracé 340" d="M335.808,288.63s5.508,5.09,3.132,10.073-6.38-2.047-6.38-2.047Z" transform="translate(-285.281 -269.343)" fill="#191558"/>
      <path id="Tracé_341" data-name="Tracé 341" d="M335.808,288.63s5.508,5.09,3.132,10.073-6.38-2.047-6.38-2.047Z" transform="translate(-285.281 -269.343)" opacity="0.2"/>
      <path id="Tracé_342" data-name="Tracé 342" d="M323.589,407.79l5.339.133a.409.409,0,0,1,.409.338l.89,4.343a.712.712,0,0,1-.552.837h-.151c-1.913-.08-3.613-.231-6-.285-2.8-.071-2.1.285-5.41.249-1.984,0-2.3-2.3-1.451-2.385,3.88-.392,4.307-1.548,5.829-2.892A1.718,1.718,0,0,1,323.589,407.79Z" transform="translate(-283.482 -282.466)" fill="#263238"/>
      <path id="Tracé_343" data-name="Tracé 343" d="M342.147,407.729h5.339a.418.418,0,0,1,.409.338l.89,4.325a.721.721,0,0,1-.543.89h-.151c-1.913-.053-3.613-.169-5.989-.187-2.812,0-2.1.32-5.41.338-1.993,0-2.34-2.26-1.495-2.358,3.871-.454,4.28-1.62,5.784-2.99a1.664,1.664,0,0,1,1.166-.356Z" transform="translate(-285.524 -282.459)" fill="#263238"/>
      <path id="Tracé_344" data-name="Tracé 344" d="M337.046,313.067s-7.644,5.615-19.577,2.67c0,0-3.755-17.717-1.237-23.056,2.242-4.77,6.727-5.4,10.3-5.633s9.157-.685,8.97,6.487S335.258,304.88,337.046,313.067Z" transform="translate(-283.387 -269.157)" fill="#191558"/>
      <path id="Tracé_345" data-name="Tracé 345" d="M315.842,306.771a63.351,63.351,0,0,1-.472-7.119l4.449-1.6Z" transform="translate(-283.388 -270.381)" opacity="0.2"/>
      <path id="Tracé_346" data-name="Tracé 346" d="M304.622,303.31l-10.216-1.78-.436-.89a1.611,1.611,0,0,0-1.78-.836l-.463.1-1.192-.89a1.6,1.6,0,0,0-1.958.062h0a1.584,1.584,0,0,0-.587,1.237v1.041a1.6,1.6,0,0,0,.294.89l.81,1.157a1.6,1.6,0,0,0,1.2.685l3.47.222,10.821,2.75Z" transform="translate(-280.373 -270.453)" fill="#ffc3bd"/>
      <path id="Tracé_347" data-name="Tracé 347" d="M320.508,290.351a4.84,4.84,0,0,0-6.042,1c-3.07,2.963-8.285,10.073-8.285,10.073l-1.851-.214-.24,5.277a7.119,7.119,0,0,0,5.339-.3c2.67-1.344,11.266-11.435,11.266-11.435S321.807,291.748,320.508,290.351Z" transform="translate(-282.146 -269.462)" fill="#191558"/>
      <path id="Tracé_348" data-name="Tracé 348" d="M305.627,301.72v2.919l-.819.383.819.552v3.186L303.1,308.2V301.72Z" transform="translate(-282.037 -270.785)" fill="#191558"/>
      <path id="Tracé_349" data-name="Tracé 349" d="M305.627,301.72v2.919l-.819.383.819.552v3.186L303.1,308.2V301.72Z" transform="translate(-282.037 -270.785)" fill="#fff" opacity="0.5"/>
      <path id="Tracé_350" data-name="Tracé 350" d="M333.618,354.175q-1.041.08-2.162.107c-.445-12.28,3.115-16.792,3.115-16.792A56.516,56.516,0,0,0,333.618,354.175Z" transform="translate(-285.155 -274.724)" opacity="0.3"/>
      <path id="Tracé_351" data-name="Tracé 351" d="M323.8,267.3s5.971-2.073,7.048,4,6.487,7.617,3.488,11.666-11.639,1.014-11.791-2.394-.107-9.112-1.37-9.86c0,0,.756,2.349,0,2.349s-1.272-.89-1.175-2.082c0,0,0,1.495-1.78.961s1.023-2.5,1.023-2.5a6.477,6.477,0,0,0-1.78,1.059c-.489.534-.623-.267,0-1.273C317.9,268.428,320.049,266.6,323.8,267.3Z" transform="translate(-283.573 -266.956)" fill="#263238"/>
      <path id="Tracé_352" data-name="Tracé 352" d="M322.624,275.839a2.883,2.883,0,0,0-.934,1.984c-.044,1.006.89,1.29,1.78.819s1.664-1.451,1.308-2.376a1.29,1.29,0,0,0-2.154-.427Z" transform="translate(-284.084 -267.889)" fill="#ffc3bd"/>
    </g>
    <g id="freepik--character-2--inject-2" transform="translate(122.655 241.786)">
      <path id="Tracé_353" data-name="Tracé 353" d="M161.65,301.378l4.9-.676.374-1.2a.961.961,0,0,1,1.166-.632l.561.151,2.118-1.112a.943.943,0,0,1,.516-.1h0a.961.961,0,0,1,.89.979l-.053,1.931a.587.587,0,0,1,0,.125L171.9,302.3a.97.97,0,0,1-.8.8l-3.07.481-5.633,1.2Z" transform="translate(-135.561 -262.306)" fill="#ffb573"/>
      <path id="Tracé_354" data-name="Tracé 354" d="M163.6,299.984a51.862,51.862,0,0,1-7.608,0c-1.344-.107-2.518-1.095-3.559-2.474l-4.245,6.229a9.513,9.513,0,0,0,3.435,2.4c5.339,1.691,12.841-1.37,12.841-1.37A4.787,4.787,0,0,0,163.6,299.984Z" transform="translate(-134.079 -262.274)" fill="#263238"/>
      <path id="Tracé_355" data-name="Tracé 355" d="M163.6,299.984a51.862,51.862,0,0,1-7.608,0c-1.344-.107-2.518-1.095-3.559-2.474l-4.245,6.229a9.513,9.513,0,0,0,3.435,2.4c5.339,1.691,12.841-1.37,12.841-1.37A4.787,4.787,0,0,0,163.6,299.984Z" transform="translate(-134.079 -262.274)" opacity="0.3"/>
      <path id="Tracé_356" data-name="Tracé 356" d="M155.125,277,150.4,328.39l48.711.2,1.513-1.237,4.761-50.117Z" transform="translate(-134.322 -260.015)" fill="#191558"/>
      <path id="Tracé_357" data-name="Tracé 357" d="M148.95,326.327l50.206.187,4.378-48.017-50.206-.187Z" transform="translate(-134.162 -260.159)" fill="#191558"/>
      <path id="Tracé_358" data-name="Tracé 358" d="M148.95,326.327l50.206.187,4.378-48.017-50.206-.187Z" transform="translate(-134.162 -260.159)" fill="#fff" opacity="0.8"/>
      <path id="Tracé_359" data-name="Tracé 359" d="M150.21,317.608l50.2.187.659-7.208L150.86,310.4Z" transform="translate(-134.301 -263.694)" fill="#191558"/>
      <path id="Tracé_360" data-name="Tracé 360" d="M150.21,317.608l50.2.187.659-7.208L150.86,310.4Z" transform="translate(-134.301 -263.694)" fill="#fff" opacity="0.5"/>
      <path id="Tracé_361" data-name="Tracé 361" d="M189.179,296.089l-37-.089-.659,7.208,37,.133a2.011,2.011,0,0,0,1.975-1.78l.329-3.559a1.646,1.646,0,0,0-1.646-1.913Z" transform="translate(-134.445 -262.108)" fill="#191558"/>
      <path id="Tracé_362" data-name="Tracé 362" d="M189.179,296.089l-37-.089-.659,7.208,37,.133a2.011,2.011,0,0,0,1.975-1.78l.329-3.559a1.646,1.646,0,0,0-1.646-1.913Z" transform="translate(-134.445 -262.108)" fill="#fff" opacity="0.5"/>
      <path id="Tracé_363" data-name="Tracé 363" d="M152.84,288.708l50.206.187.659-7.208L153.5,281.5Z" transform="translate(-134.591 -260.511)" fill="#191558"/>
      <path id="Tracé_364" data-name="Tracé 364" d="M152.84,288.708l50.206.187.659-7.208L153.5,281.5Z" transform="translate(-134.591 -260.511)" fill="#fff" opacity="0.5"/>
      <path id="Tracé_365" data-name="Tracé 365" d="M149.112,330l-.392,4.227,50.206.187.383-4.227Z" transform="translate(-134.137 -265.852)" fill="#191558"/>
      <path id="Tracé_366" data-name="Tracé 366" d="M149.112,330l-.392,4.227,50.206.187.383-4.227Z" transform="translate(-134.137 -265.852)" fill="#fff" opacity="0.3"/>
      <path id="Tracé_367" data-name="Tracé 367" d="M145.39,283.3s2.67-.276,2.67-5.224c0,0,2.483-1.13,4.085.329s-1.442,4.876.552,6.309C152.669,284.672,150.916,285.847,145.39,283.3Z" transform="translate(-133.77 -260.088)" fill="#ffb573"/>
      <path id="Tracé_368" data-name="Tracé 368" d="M158.61,270.219c0-.329.214-.587.436-.57s.365.294.347.632-.222.578-.436.57S158.583,270.549,158.61,270.219Z" transform="translate(-135.226 -259.206)" fill="#263238"/>
      <path id="Tracé_369" data-name="Tracé 369" d="M158.842,271l1.78,2.314a2.18,2.18,0,0,1-1.922.347Z" transform="translate(-135.236 -259.354)" fill="#ed893e"/>
      <path id="Tracé_370" data-name="Tracé 370" d="M145.749,268.96c.2,4.182.2,5.962,2.278,8.142,3.2,2.225,8.24,2.109,9.3-2.056.943-3.746.463-9.949-3.613-11.693a5.731,5.731,0,0,0-7.964,5.606Z" transform="translate(-133.809 -258.462)" fill="#ffb573"/>
      <path id="Tracé_371" data-name="Tracé 371" d="M157.894,269.091a.2.2,0,0,0,.178,0,1.548,1.548,0,0,1,1.353-.383.2.2,0,0,0,.24-.133.2.2,0,0,0-.133-.24,1.931,1.931,0,0,0-1.709.454.187.187,0,0,0,0,.267h0A.169.169,0,0,0,157.894,269.091Z" transform="translate(-135.133 -259.056)" fill="#263238"/>
      <path id="Tracé_372" data-name="Tracé 372" d="M150.52,280a5.562,5.562,0,0,0,2.234,2.038c.133-.543.294-1.095.374-1.6A7.823,7.823,0,0,1,150.52,280Z" transform="translate(-134.335 -260.346)" opacity="0.2"/>
      <path id="Tracé_373" data-name="Tracé 373" d="M143.31,284.418a4.05,4.05,0,0,1,4.316-3.168c5.393,0,6.977,2.527,6.977,2.527Z" transform="translate(-133.541 -260.483)" fill="#263238"/>
      <path id="Tracé_374" data-name="Tracé 374" d="M143.31,284.418a4.05,4.05,0,0,1,4.316-3.168c5.393,0,6.977,2.527,6.977,2.527Z" transform="translate(-133.541 -260.483)" opacity="0.3"/>
      <path id="Tracé_375" data-name="Tracé 375" d="M141.97,403.03l.481,7.973,4.467-.16.258-7.653Z" transform="translate(-133.394 -273.895)" fill="#ffb573"/>
      <path id="Tracé_376" data-name="Tracé 376" d="M148.359,411.116a.116.116,0,0,1-.089-.089.124.124,0,0,1,.053-.116c.071-.045,1.7-.979,2.474-.765a.552.552,0,0,1,.347.249.418.418,0,0,1,0,.48,1.993,1.993,0,0,1-1.37.365,8.569,8.569,0,0,1-1.415-.125Zm.356-.151c.89.107,2.047.089,2.26-.214a.272.272,0,0,0,0-.24.285.285,0,0,0-.222-.151.755.755,0,0,0-.2,0,5.25,5.25,0,0,0-1.833.605Z" transform="translate(-134.087 -274.675)" fill="#191558"/>
      <path id="Tracé_377" data-name="Tracé 377" d="M148.3,410.973a.1.1,0,0,1-.053-.1,3.177,3.177,0,0,1,.721-1.78.89.89,0,0,1,.614-.2c.3,0,.4.187.409.311.1.525-1.014,1.539-1.575,1.78h-.044a.071.071,0,0,1-.071-.018Zm1.2-1.887a.578.578,0,0,0-.374.142,2.572,2.572,0,0,0-.614,1.433c.578-.347,1.308-1.139,1.272-1.459,0,0,0-.107-.222-.125Z" transform="translate(-134.085 -274.541)" fill="#191558"/>
      <path id="Tracé_378" data-name="Tracé 378" d="M147.048,410.509h-5.09a.4.4,0,0,0-.4.32l-.89,4.147a.667.667,0,0,0,.516.81h.142c1.833-.044,3.462-.151,5.749-.16,2.67,0,2.011.32,5.179.347,1.913,0,2.251-2.153,1.442-2.26-3.711-.445-4.1-1.566-5.535-2.883a1.611,1.611,0,0,0-1.112-.32Z" transform="translate(-133.248 -274.718)" fill="#263238"/>
      <path id="Tracé_379" data-name="Tracé 379" d="M142.219,407.15h4.823l.133-3.96-5.206-.16Z" transform="translate(-133.394 -273.895)" opacity="0.2"/>
      <path id="Tracé_380" data-name="Tracé 380" d="M138.246,324.87s-.952,6.692,1.406,17.9c1,4.734,2.581,14.327,2.536,19.159,0,3.2-.7,4.654-1.833,12.681s.561,22.549.561,22.549l6.478.071s4.04-26.83,4.8-36.146c.383-4.734.561-19.016.561-19.016l-2.287-17.192Z" transform="translate(-132.963 -265.287)" fill="#191558"/>
      <path id="Tracé_381" data-name="Tracé 381" d="M147.23,337.63s1.45,10.225,6.229,18.6c.187-5.811.267-12.761.267-12.761l-.053-.445-3.31-4.61Z" transform="translate(-133.973 -266.692)" opacity="0.1"/>
      <path id="Tracé_382" data-name="Tracé 382" d="M163.55,403.213l.81,7.955,4.458-.347-.062-7.662Z" transform="translate(-135.77 -273.909)" fill="#ffb573"/>
      <path id="Tracé_383" data-name="Tracé 383" d="M170.278,411.023a.113.113,0,0,1-.044-.2c.071-.044,1.646-1.041,2.438-.89a.6.6,0,0,1,.356.249.418.418,0,0,1,0,.48,1.984,1.984,0,0,1-1.353.418A8.541,8.541,0,0,1,170.278,411.023Zm.347-.16c.89.062,2.047,0,2.251-.311a.312.312,0,0,0,0-.24.276.276,0,0,0-.222-.142.579.579,0,0,0-.214,0,5.151,5.151,0,0,0-1.815.712Z" transform="translate(-136.501 -274.653)" fill="#191558"/>
      <path id="Tracé_384" data-name="Tracé 384" d="M170.213,410.893a.133.133,0,0,1-.053-.1,3.186,3.186,0,0,1,.641-1.833.818.818,0,0,1,.605-.222c.311,0,.409.169.427.294.125.516-.952,1.584-1.495,1.851h-.125Zm1.13-1.94a.57.57,0,0,0-.374.16,2.563,2.563,0,0,0-.552,1.451c.561-.365,1.255-1.192,1.21-1.5,0,0,0-.107-.222-.116Z" transform="translate(-136.498 -274.524)" fill="#191558"/>
      <path id="Tracé_385" data-name="Tracé 385" d="M168.952,410.449l-5.081.24a.4.4,0,0,0-.383.338l-.73,4.182a.685.685,0,0,0,.552.792h.142c1.833-.116,3.453-.294,5.74-.4,2.67-.125,2.02.231,5.188.133,1.913-.071,2.153-2.251,1.344-2.323-3.72-.294-4.156-1.388-5.651-2.67a1.682,1.682,0,0,0-1.121-.294Z" transform="translate(-135.682 -274.711)" fill="#263238"/>
      <path id="Tracé_386" data-name="Tracé 386" d="M168.756,403.16l-5.206.053.4,3.924,4.841-.285Z" transform="translate(-135.77 -273.909)" opacity="0.2"/>
      <path id="Tracé_387" data-name="Tracé 387" d="M145.993,324.87a37.65,37.65,0,0,0,4.245,19.577c5.2,9.441,5.713,12.218,6.087,16.623.356,4.218.383,5.642.943,14.371S161,397.216,161,397.216l6.692-.427s0-27.63-1.13-37.374c-1-8.738-6.336-34.545-6.336-34.545Z" transform="translate(-133.83 -265.287)" fill="#191558"/>
      <path id="Tracé_388" data-name="Tracé 388" d="M142.1,283.58s-8.472,1.095-9.522,5.962,1.379,14.158,4.761,15.324S142.1,283.58,142.1,283.58Z" transform="translate(-132.332 -260.74)" fill="#263238"/>
      <path id="Tracé_389" data-name="Tracé 389" d="M138.885,288.58l-1.486-.89s-2.091,2.67-3.4,12.894c.89,2.376,2.127,4.262,3.559,4.743s2.394-2.919,3.15-7.119Z" transform="translate(-132.516 -261.192)" opacity="0.4"/>
      <path id="Tracé_390" data-name="Tracé 390" d="M137.2,321.527s8.765,2.429,23.457,0a139.015,139.015,0,0,1,.525-24.623c1.584-12.156-1.37-13-9.611-13.419s-14.1-.89-14.371,6.656C136.564,307.574,137.2,321.527,137.2,321.527Z" transform="translate(-132.838 -260.707)" fill="#263238"/>
      <path id="Tracé_391" data-name="Tracé 391" d="M159.9,290.787s.632,6.87,3.319,11.364h0c.125-1.646.285-3.31.5-4.948a33.113,33.113,0,0,0,.347-6.914L161.181,286Z" transform="translate(-135.368 -261.006)" opacity="0.4"/>
      <path id="Tracé_392" data-name="Tracé 392" d="M183.49,302.281l4.9-.641.383-1.2a.961.961,0,0,1,1.166-.641l.552.151,2.118-1.1a1.042,1.042,0,0,1,.516-.107h0a.961.961,0,0,1,.89.979v2.065l-.231,1.459a.961.961,0,0,1-.8.8l-3.061.48-5.633,1.192Z" transform="translate(-137.966 -262.409)" fill="#ffb573"/>
      <path id="Tracé_393" data-name="Tracé 393" d="M158.927,284.09s6.131,0,8.979,4.129c2.385,3.453,4.859,10.785,8.667,11.1a51.871,51.871,0,0,0,7.608,0,4.761,4.761,0,0,1,.89,4.761s-7.5,3.061-12.841,1.37-13.891-17.433-13.891-17.433Z" transform="translate(-135.197 -260.796)" fill="#263238"/>
      <path id="Tracé_394" data-name="Tracé 394" d="M152.545,270.671a10.43,10.43,0,0,0,.739-4.654s3.942,1.477,4.529-.365a1.78,1.78,0,0,0-1.3-2.331s1.949-.258.836-1.584a3.358,3.358,0,0,0-3.115-.845s2-1.264.472-2-3.8,1.531-3.8,1.531,1.308-2.118-.214-2.483-3.382,3.559-3.382,3.559-4.022.4-4.12,1.824a1.281,1.281,0,0,0,1.317,1.433s-2.67.418-2.216,1.78a.97.97,0,0,0,1.584.57s-1.682,1.468-1.1,2.812c.418.97,1.157.481,1.157.481s-.472,1.913.32,2.83,1.1-.721,1.1-.721a3.933,3.933,0,0,0,1.388,2.928s1.264-1.237,3.8-.392Z" transform="translate(-133.424 -257.913)" fill="#263238"/>
      <path id="Tracé_395" data-name="Tracé 395" d="M153.811,271.244a3.212,3.212,0,0,1,1.05,2.234c0,1.139-1.032,1.451-1.967.89s-1.887-1.628-1.486-2.67a1.459,1.459,0,0,1,2.4-.454Z" transform="translate(-134.423 -259.332)" fill="#ffb573"/>
    </g>
    <g id="freepik--character-1--inject-2" transform="translate(44.46 145.5)">
      <path id="Tracé_396" data-name="Tracé 396" d="M98.484,205.49l-.676,7.733H62.391l.676-7.733H60.531L44.46,389.257H47l.676-7.724H83.089l-.676,7.724h2.572L101,205.49ZM95.4,240.844H59.979l2.189-25.112H97.594Zm-2.42,27.586H57.559l2.2-25.085H95.174Zm-2.412,27.63H55.138l2.2-25.094H92.753Zm-2.42,27.586H52.727l2.189-25.085H90.324Zm-2.42,27.586H50.28L52.5,326.254H87.921Zm-35.595,2.536H85.51l-2.2,25.094H47.895Z" transform="translate(-44.46 -155.853)" fill="#263238"/>
      <path id="Tracé_397" data-name="Tracé 397" d="M98.484,205.49l-.676,7.733H62.391l.676-7.733H60.531L44.46,389.257H47l.676-7.724H83.089l-.676,7.724h2.572L101,205.49ZM95.4,240.844H59.979l2.189-25.112H97.594Zm-2.42,27.586H57.559l2.2-25.085H95.174Zm-2.412,27.63H55.138l2.2-25.094H92.753Zm-2.42,27.586H52.727l2.189-25.085H90.324Zm-2.42,27.586H50.28L52.5,326.254H87.921Zm-35.595,2.536H85.51l-2.2,25.094H47.895Z" transform="translate(-44.46 -155.853)" fill="#fff" opacity="0.3"/>
      <path id="Tracé_398" data-name="Tracé 398" d="M76.488,203.522l5.74,3.337,9.958-4.4.116-2.438a1.148,1.148,0,0,1,1.148-1.095h1.014l1-.97a1.157,1.157,0,0,1,1.78.222l.587.89a1.121,1.121,0,0,1,.187.747l-.311,2.954a1.157,1.157,0,0,1-.747.97l-2.67.979s-8.267,5.891-11.292,6.558-9.023-2.492-9.023-2.492Z" transform="translate(-47.71 -154.989)" fill="#ff8b7b"/>
      <path id="Tracé_399" data-name="Tracé 399" d="M154.493,149.71l-45.837.258c-2.465,0-5.046,1.664-5.268,4.129l-3.168,45.837,48.053,1.7,1.628-1.219Z" transform="translate(-50.601 -149.71)" fill="#191558"/>
      <path id="Tracé_400" data-name="Tracé 400" d="M148.3,202.611l3.853-43.39-47.572-.071-3.862,43.39Z" transform="translate(-50.656 -150.75)" fill="#191558"/>
      <path id="Tracé_401" data-name="Tracé 401" d="M148.3,202.611l3.853-43.39-47.572-.071-3.862,43.39Z" transform="translate(-50.656 -150.75)" fill="#fff" opacity="0.8"/>
      <path id="Tracé_402" data-name="Tracé 402" d="M151.027,195.343l-32.311-.053a2.02,2.02,0,0,0-1.967,1.78l-.32,3.559a1.637,1.637,0,0,0,1.646,1.78h32.347Z" transform="translate(-52.385 -154.73)" fill="#191558"/>
      <path id="Tracé_403" data-name="Tracé 403" d="M152.313,180.88H119.966a2.029,2.029,0,0,0-1.976,1.78l-.311,3.559a1.62,1.62,0,0,0,1.646,1.78l32.347.053Z" transform="translate(-52.523 -153.143)" fill="#191558"/>
      <path id="Tracé_404" data-name="Tracé 404" d="M152.313,180.88H119.966a2.029,2.029,0,0,0-1.976,1.78l-.311,3.559a1.62,1.62,0,0,0,1.646,1.78l32.347.053Z" transform="translate(-52.523 -153.143)" fill="#fff" opacity="0.5"/>
      <path id="Tracé_405" data-name="Tracé 405" d="M105.1,166.948a3.284,3.284,0,0,1,3.221-2.954l42.99.062,1.121-12.565-45.713-.071a4.983,4.983,0,0,0-4.859,4.449L97.8,201.68h4.227Z" transform="translate(-50.334 -149.898)" fill="#191558"/>
      <path id="Tracé_406" data-name="Tracé 406" d="M105.1,166.948a3.284,3.284,0,0,1,3.221-2.954l42.99.062,1.121-12.565-45.713-.071a4.983,4.983,0,0,0-4.859,4.449L97.8,201.68h4.227Z" transform="translate(-50.334 -149.898)" fill="#fff" opacity="0.3"/>
      <path id="Tracé_407" data-name="Tracé 407" d="M138.137,157.89a3.239,3.239,0,0,1-3.159,2.9,2.616,2.616,0,0,1-2.67-2.91,3.221,3.221,0,0,1,3.159-2.9,2.616,2.616,0,0,1,2.67,2.91Z" transform="translate(-54.133 -150.29)" fill="#191558"/>
      <path id="Tracé_408" data-name="Tracé 408" d="M138.137,157.89a3.239,3.239,0,0,1-3.159,2.9,2.616,2.616,0,0,1-2.67-2.91,3.221,3.221,0,0,1,3.159-2.9,2.616,2.616,0,0,1,2.67,2.91Z" transform="translate(-54.133 -150.29)" fill="#fff" opacity="0.5"/>
      <path id="Tracé_409" data-name="Tracé 409" d="M126.027,157.87a3.239,3.239,0,0,1-3.159,2.9,2.616,2.616,0,0,1-2.67-2.91,3.239,3.239,0,0,1,3.159-2.9,2.616,2.616,0,0,1,2.67,2.91Z" transform="translate(-52.799 -150.288)" fill="#191558"/>
      <path id="Tracé_410" data-name="Tracé 410" d="M113.907,157.85a3.221,3.221,0,0,1-3.159,2.9,2.616,2.616,0,0,1-2.67-2.91,3.239,3.239,0,0,1,3.159-2.9,2.616,2.616,0,0,1,2.67,2.91Z" transform="translate(-51.465 -150.286)" fill="#191558"/>
      <path id="Tracé_411" data-name="Tracé 411" d="M113.907,157.85a3.221,3.221,0,0,1-3.159,2.9,2.616,2.616,0,0,1-2.67-2.91,3.239,3.239,0,0,1,3.159-2.9,2.616,2.616,0,0,1,2.67,2.91Z" transform="translate(-51.465 -150.286)" opacity="0.2"/>
      <path id="Tracé_412" data-name="Tracé 412" d="M112.669,158.936l-.89-.89.89-.89a.418.418,0,0,0-.587-.587l-.89.89-.89-.89a.418.418,0,0,0-.587.587l.89.89c-.311.3-.623.605-.89.89a.412.412,0,0,0,.578.587l.89-.89.89.89a.418.418,0,1,0,.6-.587Z" transform="translate(-51.633 -150.456)" fill="#fff"/>
      <path id="Tracé_413" data-name="Tracé 413" d="M124.951,157.77h-3.435a.418.418,0,0,0,0,.828h3.435a.418.418,0,0,0,0-.828Z" transform="translate(-52.907 -150.598)" fill="#fff"/>
      <path id="Tracé_414" data-name="Tracé 414" d="M133.96,159.661h1.762l-1.753-1.771Z" transform="translate(-54.317 -150.611)" fill="#fff"/>
      <path id="Tracé_415" data-name="Tracé 415" d="M135.28,156.59l1.762,1.771.009-1.771Z" transform="translate(-54.462 -150.468)" fill="#fff"/>
      <path id="Tracé_416" data-name="Tracé 416" d="M57.756,323.3l-.676,7.964,4.449.481,1.353-7.537Z" transform="translate(-45.85 -168.828)" fill="#ff8b7b"/>
      <path id="Tracé_417" data-name="Tracé 417" d="M62.991,332.7a.109.109,0,0,1,0-.2c.071,0,1.78-.73,2.554-.409a.605.605,0,0,1,.311.3.436.436,0,0,1-.062.48,1.966,1.966,0,0,1-1.406.16,8.388,8.388,0,0,1-1.4-.329Zm.374-.1c.845.231,2.011.383,2.269.116a.236.236,0,0,0,0-.24.285.285,0,0,0-.187-.187.889.889,0,0,0-.2-.053,5.081,5.081,0,0,0-1.922.365Z" transform="translate(-46.493 -169.787)" fill="#191558"/>
      <path id="Tracé_418" data-name="Tracé 418" d="M62.888,332.534a.1.1,0,0,1,0-.1,3.168,3.168,0,0,1,.97-1.691.828.828,0,0,1,.632-.1c.3.071.374.231.365.365,0,.534-1.228,1.379-1.78,1.539h-.089a.071.071,0,0,1-.1-.018Zm1.468-1.691a.614.614,0,0,0-.4.08,2.607,2.607,0,0,0-.81,1.335c.614-.258,1.459-.943,1.468-1.255,0,0,0-.116-.2-.16Z" transform="translate(-46.488 -169.634)" fill="#191558"/>
      <path id="Tracé_419" data-name="Tracé 419" d="M61.661,331.912l-5.046-.7a.4.4,0,0,0-.436.258l-1.486,4a.676.676,0,0,0,.392.89.374.374,0,0,0,.133,0c1.824.222,3.453.356,5.713.676,2.67.374,1.949.6,5.081,1.086,1.887.285,2.536-1.78,1.78-2.029-3.559-.979-3.835-2.145-5.063-3.657a1.646,1.646,0,0,0-1.068-.525Z" transform="translate(-45.582 -169.698)" fill="#263238"/>
      <path id="Tracé_420" data-name="Tracé 420" d="M62.922,324.208,57.8,323.3l-.356,4.156,4.77.7Z" transform="translate(-45.89 -168.828)" fill="#263238" opacity="0.2"/>
      <path id="Tracé_421" data-name="Tracé 421" d="M86.152,181.666s3.6-1.691,3.257-.267-2.981,2.064-3.729,1.539S86.152,181.666,86.152,181.666Z" transform="translate(-48.973 -153.137)" fill="#263238"/>
      <path id="Tracé_422" data-name="Tracé 422" d="M75.8,199.952s2.67-.276,2.67-5.224c0,0,2.483-1.13,4.093.329s-1.45,4.876.543,6.309C83.1,201.367,81.317,202.541,75.8,199.952Z" transform="translate(-47.912 -154.622)" fill="#ff8b7b"/>
      <path id="Tracé_423" data-name="Tracé 423" d="M89,186.929c0-.329.214-.587.436-.57s.365.294.347.632-.222.578-.436.57S89,187.25,89,186.929Z" transform="translate(-49.365 -153.746)" fill="#263238"/>
      <path id="Tracé_424" data-name="Tracé 424" d="M89.252,187.66l1.78,2.314a2.18,2.18,0,0,1-1.922.347Z" transform="translate(-49.377 -153.89)" fill="#ff5652"/>
      <path id="Tracé_425" data-name="Tracé 425" d="M76.153,185.657c.2,4.182.2,5.962,2.287,8.142,3.195,2.225,8.231,2.109,9.29-2.056.943-3.746.463-9.949-3.613-11.693a5.731,5.731,0,0,0-8.009,5.606Z" transform="translate(-47.944 -152.999)" fill="#ff8b7b"/>
      <path id="Tracé_426" data-name="Tracé 426" d="M88.3,185.791a.2.2,0,0,0,.178,0,1.548,1.548,0,0,1,1.353-.383.2.2,0,0,0,.24-.133.2.2,0,0,0-.133-.24,1.931,1.931,0,0,0-1.709.454.187.187,0,0,0,0,.267h0a.169.169,0,0,0,.071.036Z" transform="translate(-49.275 -153.595)" fill="#263238"/>
      <path id="Tracé_427" data-name="Tracé 427" d="M80.93,196.68a5.562,5.562,0,0,0,2.234,2.065c.142-.543.294-1.095.374-1.6a7.822,7.822,0,0,1-2.607-.463Z" transform="translate(-48.477 -154.883)" opacity="0.2"/>
      <path id="Tracé_428" data-name="Tracé 428" d="M78.291,194.046s.294-.356,1.468.16c0,0,2.741-3.079,3.23-5.295a3.346,3.346,0,0,0,1.539-2.67c.107-1.842.16-3.052.89-3.479s2.759-2.269,1.273-4.173-1.379.32-1.379.32-4.369-5.019-3.746-1.691c0,0-4.957-1.139-2.438,1.584,0,0-5.6,1.424-3.746,6.71a7.377,7.377,0,0,0,2.91,8.534Z" transform="translate(-47.822 -152.614)" fill="#263238"/>
      <path id="Tracé_429" data-name="Tracé 429" d="M84.221,187.945a3.212,3.212,0,0,1,1.05,2.234c.044,1.139-1.032,1.451-1.967.89s-1.887-1.628-1.486-2.67a1.468,1.468,0,0,1,2.4-.454Z" transform="translate(-48.564 -153.872)" fill="#ff8b7b"/>
      <path id="Tracé_430" data-name="Tracé 430" d="M80.338,198.979a16.436,16.436,0,0,1,3.559.712,4.957,4.957,0,0,0-3.684-2.4,3.559,3.559,0,0,0-3.933,1.78,18.137,18.137,0,0,1,4.058-.089Z" transform="translate(-47.964 -154.94)" fill="#191558"/>
      <path id="Tracé_431" data-name="Tracé 431" d="M80.338,198.979a16.436,16.436,0,0,1,3.559.712,4.957,4.957,0,0,0-3.684-2.4,3.559,3.559,0,0,0-3.933,1.78,18.137,18.137,0,0,1,4.058-.089Z" transform="translate(-47.964 -154.94)" fill="#fff" opacity="0.5"/>
      <path id="Tracé_432" data-name="Tracé 432" d="M64.148,234.71s-2.287,5.25-1.308,19.479c0,0,1.851,16.81.712,22.247-2.056,9.789-5.5,11.568-6.692,39.519l6.122.89s8.089-28.28,9.94-37.828c1.139-5.927,2.67-23.884,2.67-23.884l.57-19.025Z" transform="translate(-45.826 -159.071)" fill="#263238"/>
      <path id="Tracé_433" data-name="Tracé 433" d="M75.15,324.97l.009,7.991,4.476.1.694-7.626Z" transform="translate(-47.84 -169.012)" fill="#ff8b7b"/>
      <path id="Tracé_434" data-name="Tracé 434" d="M81.05,333.431a.1.1,0,0,1-.08-.089.116.116,0,0,1,.053-.116c.08,0,1.78-.89,2.518-.623a.561.561,0,0,1,.329.276.418.418,0,0,1,0,.481,2,2,0,0,1-1.388.285A7.662,7.662,0,0,1,81.05,333.431Zm.365-.125c.89.151,2.038.2,2.269-.08a.288.288,0,0,0,0-.249.312.312,0,0,0-.2-.16.888.888,0,0,0-.214-.045A5.161,5.161,0,0,0,81.415,333.307Z" transform="translate(-48.481 -169.847)" fill="#191558"/>
      <path id="Tracé_435" data-name="Tracé 435" d="M81,333.277a.089.089,0,0,1,0-.1,3.115,3.115,0,0,1,.819-1.78.819.819,0,0,1,.623-.16c.3.044.392.2.392.338.071.525-1.1,1.477-1.673,1.691h0a.08.08,0,0,1-.16.009Zm1.308-1.78a.552.552,0,0,0-.383.125,2.518,2.518,0,0,0-.694,1.388c.6-.311,1.37-1.059,1.353-1.379,0,0,0-.107-.214-.133Z" transform="translate(-48.482 -169.701)" fill="#191558"/>
      <path id="Tracé_436" data-name="Tracé 436" d="M79.745,332.747l-5.081-.267a.418.418,0,0,0-.418.294l-1.139,4.093a.676.676,0,0,0,.463.836.4.4,0,0,0,.142,0c1.833.062,3.47.053,5.749.178,2.67.142,1.993.427,5.152.641,1.9.133,2.376-2.02,1.566-2.171-3.675-.659-4-1.78-5.339-3.2A1.7,1.7,0,0,0,79.745,332.747Z" transform="translate(-47.612 -169.839)" fill="#263238"/>
      <path id="Tracé_437" data-name="Tracé 437" d="M75.159,329.562l4.787.08.383-4.209-5.179-.463Z" transform="translate(-47.84 -169.012)" fill="#263238" opacity="0.2"/>
      <path id="Tracé_438" data-name="Tracé 438" d="M77.068,259.966l-1.246-2.349-3.31-3.1s-1.05,13.419,2.527,24.08C75.823,273.252,76.668,264.38,77.068,259.966Z" transform="translate(-47.534 -161.253)" opacity="0.4"/>
      <path id="Tracé_439" data-name="Tracé 439" d="M73.368,236.25s-1.059,5.072-.89,16.276,4.28,19.728,4.227,26.42c-.1,9.744-4.254,15-2.536,38.887h6.549s5.188-29.588,5.918-39.519c.756-10.278-.053-41.219-.053-41.219Z" transform="translate(-47.544 -159.241)" fill="#263238"/>
      <path id="Tracé_440" data-name="Tracé 440" d="M73.24,199.79s-4.752.374-5.811,3.648a6.389,6.389,0,0,0,.765,5.615l2.563.73Z" transform="translate(-46.953 -155.225)" fill="#191558"/>
      <path id="Tracé_441" data-name="Tracé 441" d="M73.24,199.79s-4.752.374-5.811,3.648a6.389,6.389,0,0,0,.765,5.615l2.563.73Z" transform="translate(-46.953 -155.225)" opacity="0.1"/>
      <path id="Tracé_442" data-name="Tracé 442" d="M78.957,199.189c3.052.276,9.3,1.691,9.94,8.009s-2.331,28.743-2.331,28.743a83.63,83.63,0,0,1-22.825-2.75,122.943,122.943,0,0,0,4.227-26.838C68.163,201.521,71.776,198.549,78.957,199.189Z" transform="translate(-46.583 -155.15)" fill="#191558"/>
      <path id="Tracé_443" data-name="Tracé 443" d="M85.44,207s2.118,6.291,5.6,10.3c.24-3.159.383-6.051.32-8.053Z" transform="translate(-48.973 -156.019)" opacity="0.1"/>
      <path id="Tracé_444" data-name="Tracé 444" d="M95.576,207.868l5.072,4.289,10.572-2.607.534-2.385a1.148,1.148,0,0,1,1.317-.89l.97.169,1.175-.756a1.157,1.157,0,0,1,1.682.516l.427.988a1.157,1.157,0,0,1,.053.774l-.819,2.857a1.166,1.166,0,0,1-.89.819l-2.812.507s-9.157,4.369-12.262,4.5-8.445-4.013-8.445-4.013Z" transform="translate(-49.712 -155.855)" fill="#ff8b7b"/>
      <path id="Tracé_445" data-name="Tracé 445" d="M86.083,200.56s5.09,1.281,10.963,6.879a11.657,11.657,0,0,1-6.069,6.647S80.61,203.408,86.083,200.56Z" transform="translate(-48.868 -155.31)" fill="#191558"/>
      <path id="Tracé_446" data-name="Tracé 446" d="M56.558,324.09l-.178,2.251,6.656.952.641-2Z" transform="translate(-45.773 -168.915)" fill="#263238"/>
      <path id="Tracé_447" data-name="Tracé 447" d="M56.558,324.09l-.178,2.251,6.656.952.641-2Z" transform="translate(-45.773 -168.915)" fill="#fff" opacity="0.3"/>
      <path id="Tracé_448" data-name="Tracé 448" d="M74.06,326.23l.214,2.251,6.772-.009.392-2.2Z" transform="translate(-47.72 -169.15)" fill="#263238"/>
      <path id="Tracé_449" data-name="Tracé 449" d="M74.06,326.23l.214,2.251,6.772-.009.392-2.2Z" transform="translate(-47.72 -169.15)" fill="#fff" opacity="0.3"/>
    </g>
  </g>
</svg>
