<?xml version="1.0" encoding="UTF-8" standalone="no"?>
<svg
   width="545"
   height="280"
   viewBox="0 0 545.00001 279.99999"
   role="img"
   artist="Katerina Limpitsouni"
   source="https://undraw.co/"
   version="1.1"
   id="svg17"
   sodipodi:docname="code-thinking.svg"
   inkscape:version="1.4.2 (f4327f4, 2025-05-13)"
   xmlns:inkscape="http://www.inkscape.org/namespaces/inkscape"
   xmlns:sodipodi="http://sodipodi.sourceforge.net/DTD/sodipodi-0.dtd"
   xmlns="http://www.w3.org/2000/svg"
   xmlns:svg="http://www.w3.org/2000/svg">
  <defs
     id="defs17" />
  <sodipodi:namedview
     id="namedview17"
     pagecolor="#ffffff"
     bordercolor="#000000"
     borderopacity="0.25"
     inkscape:showpageshadow="2"
     inkscape:pageopacity="0.0"
     inkscape:pagecheckerboard="0"
     inkscape:deskcolor="#d1d1d1"
     inkscape:zoom="0.61486992"
     inkscape:cx="701.77445"
     inkscape:cy="-10.571342"
     inkscape:window-width="1920"
     inkscape:window-height="991"
     inkscape:window-x="-9"
     inkscape:window-y="-9"
     inkscape:window-maximized="1"
     inkscape:current-layer="svg17" />
  <g
     id="g17"
     transform="matrix(0.77814273,0,0,0.77814273,-2.5310815,-93.253691)">
    <path
       d="m 156.98283,317.11994 a 6.6987447,6.6987447 0 1 0 -13.33284,0.88069 l -19.24588,25.20333 a 9.331205,9.331205 0 0 0 1.26116,10.24604 l 1.50974,1.76115 6.92702,-1.38545 7.851,-6.92724 -0.92376,-7.85085 9.69817,-15.23989 -0.0126,-0.0109 a 6.6933243,6.6933243 0 0 0 6.26793,-6.67685 z"
       fill="#ffb9b9"
       id="path1"
       style="display:inline;stroke-width:0.687" />
    <polygon
       points="25.468,405.984 88.8,380.265 95.549,405.331 30.041,422.968 "
       fill="#ffb8b8"
       id="polygon1"
       transform="matrix(0.687,0,0,0.687,3.2527205,149.75695)" />
    <path
       d="M 13.381918,446.35676 3.2527205,408.73518 3.7285642,408.60705 a 15.165635,15.165635 0 0 1 18.5860988,10.70018 l 2.54e-4,9.2e-4 6.186497,22.978 z"
       fill="#2f2e41"
       id="path2"
       style="stroke-width:0.687" />
    <polygon
       points="103.054,409.91 136.185,350.121 157.179,365.388 117.278,420.254 "
       fill="#ffb8b8"
       id="polygon2"
       transform="matrix(0.687,0,0,0.687,3.2527205,149.75695)" />
    <path
       d="m 79.426526,449.75695 -31.510025,-22.9151 0.289825,-0.39856 a 15.165642,15.165642 0 0 1 21.183508,-3.34597 l 7.83e-4,5.6e-4 19.245199,13.99587 z"
       fill="#2f2e41"
       id="path3"
       style="stroke-width:0.687" />
    <path
       d="M 166.89087,381.07272 142.2997,357.18393 a 12.418391,12.418391 0 0 0 -16.26014,-0.90829 l -46.431804,51.58248 4.156474,6.46525 44.33402,-30.01802 30.01803,39.25427 28.63254,-14.31599 z"
       fill="#2f2e41"
       id="path4"
       style="stroke-width:0.687" />
    <path
       d="m 156.26925,386.15274 -18.01089,-1.38545 -13.04338,-3.16207 a 6.7000088,6.7000088 0 1 0 -1.27095,8.69448 l -0.002,0.009 7.85098,3.2327 33.71234,11.54539 4.15635,-3.2327 z"
       fill="#ffb9b9"
       id="path5"
       style="stroke-width:0.687" />
    <polygon
       points="271.131,426.11 253.653,426.11 172.315,395.86 53.332,417.371 49.971,391.826 158.871,344.099 254.326,375.693 285.92,416.699 "
       fill="#2f2e41"
       id="polygon5"
       transform="matrix(0.687,0,0,0.687,3.2527205,149.75695)" />
    <circle
       cx="177.97452"
       cy="305.79694"
       r="18.01079"
       fill="#ffb9b9"
       id="circle5"
       style="stroke-width:0.687" />
    <path
       d="m 224.57628,377.70614 a 103.4835,103.4835 0 0 1 -5.07535,32.00842 l -1.34848,4.14713 -6.46543,29.55618 -6.92721,1.84725 -5.07997,-6.46541 -10.15993,-7.38903 -7.38904,-12.00718 -6.33609,-10.55713 -1.97658,-3.29738 -6.92724,-34.63612 -26.32345,-14.77806 -8.77449,-1.38545 1.84727,-5.07997 7.85086,-10.62175 7.85082,-0.92366 2.30908,-1.84726 1.84726,0.92362 10.1831,3.92286 33.01508,-13.94885 4.83059,0.78971 16.62531,13.85447 a 103.3929,103.3929 0 0 1 6.42389,35.88761 z"
       fill="#ccc"
       id="path6"
       style="fill:#f0f0f8;fill-opacity:1;stroke-width:0.687" />
    <polygon
       points="240.209,331.999 242.226,331.999 263.065,293.683 314.825,325.949 289.281,342.754 251.153,377.131 248.276,372.332 "
       opacity="0.1"
       style="isolation:isolate"
       id="polygon6"
       transform="matrix(0.687,0,0,0.687,3.2527205,149.75695)" />
    <polygon
       points="248.276,375.693 289.281,338.721 314.825,321.915 263.065,289.649 242.226,327.965 230.126,341.41 219.371,344.099 "
       fill="#ccc"
       id="polygon7"
       style="fill:#f0f0f8;fill-opacity:1"
       transform="matrix(0.687,0,0,0.687,3.2527205,149.75695)" />
    <path
       d="m 163.9658,292.40513 -1.95142,0.75079 a 2.7241749,2.7241749 0 0 1 -0.72845,-3.78307 q 0.0158,-0.0233 0.032,-0.0463 l -3.60618,-0.16876 a 27.230921,27.230921 0 0 1 40.65213,-3.27665 c 0.16419,-0.56547 1.95396,0.53469 2.68468,1.65024 0.24553,-0.92015 1.92367,3.52789 2.51721,6.67206 0.2748,-1.04688 1.33135,0.64317 0.40572,2.26483 0.58649,-0.0857 0.8514,1.41486 0.39738,2.25084 0.64166,-0.30144 0.53348,1.48979 -0.16219,2.68686 0.91556,-0.0813 -0.0781,18.77655 -13.81812,17.40255 -0.95655,-4.39508 -0.687,-4.122 -1.81338,-9.77353 -0.52426,-0.55647 -1.09839,-1.06334 -1.67157,-1.56928 l -3.10015,-2.73653 c -3.6049,-3.18206 -6.88418,-7.10938 -11.68651,-8.29865 -3.3003,-0.81731 -5.38706,-1.00183 -3.58851,-4.72073 -1.62497,0.67811 -3.14241,1.68654 -4.78195,2.31635 0.022,-0.51965 0.25118,-1.10114 0.21928,-1.62105 z"
       fill="#2f2e41"
       id="path7"
       style="stroke-width:0.687" />
    <circle
       cx="186.9799"
       cy="307.87512"
       r="3.2327061"
       fill="#ffb9b9"
       id="circle7"
       style="stroke-width:0.687" />
    <rect
       x="-243.45255"
       y="51.531742"
       width="14.846132"
       height="14.846132"
       transform="rotate(-86.18992)"
       fill="#e6e6e6"
       style="isolation:isolate;fill:#f99393;fill-opacity:1;stroke-width:0.687"
       id="rect7" />
    <path
       d="m 26.669556,239.39118 17.987597,1.1979 -1.197915,17.98761 -17.987597,-1.19791 z m 17.153442,1.9279 -16.423457,-1.09375 -1.093745,16.42343 16.423457,1.09374 z"
       fill="#ccc"
       id="path8"
       style="fill:#ecf0fd;fill-opacity:1;stroke-width:0.687" />
    <rect
       x="63.007069"
       y="208.60954"
       width="14.846132"
       height="14.846132"
       transform="rotate(-12.12675)"
       fill="#e6e6e6"
       style="isolation:isolate;fill:#f99393;fill-opacity:1;stroke-width:0.687"
       id="rect8" />
    <path
       d="m 109.75182,180.56902 3.78712,17.62516 -17.625163,3.78712 -3.787115,-17.62517 z m 2.85615,17.02352 -3.45781,-16.09254 -16.092537,3.4578 3.457801,16.09255 z"
       fill="#ccc"
       id="path9"
       style="fill:#ecf0fd;fill-opacity:1;stroke-width:0.687" />
    <rect
       x="-114.33939"
       y="259.35776"
       width="14.846126"
       height="14.846132"
       transform="rotate(-43.12712)"
       fill="#e6e6e6"
       style="isolation:isolate;fill:#f99393;fill-opacity:1;stroke-width:0.687"
       id="rect9" />
    <path
       d="m 115.61615,255.78664 -13.15713,12.32392 -12.323902,-13.15713 13.157122,-12.3239 z m -13.12091,11.21603 12.01302,-11.25225 -11.25226,-12.01301 -12.013026,11.25226 z"
       fill="#ccc"
       id="path10"
       style="fill:#ecf0fd;fill-opacity:1;stroke-width:0.687" />
    <path
       d="M 665.02409,149.75695 H 225.76813 a 12.090163,12.090163 0 0 0 -12.09018,12.09016 v 244.74527 a 12.090197,12.090197 0 0 0 12.09018,12.09021 h 439.25596 a 12.090211,12.090211 0 0 0 12.09018,-12.09021 V 161.84711 a 12.090183,12.090183 0 0 0 -12.09018,-12.09016 z"
       fill="#3f3d56"
       id="path11"
       style="fill:#191558;fill-opacity:1;stroke-width:0.687" />
    <rect
       x="229.88718"
       y="171.12364"
       width="431.01782"
       height="243.13824"
       fill="#ffffff"
       id="rect11"
       style="stroke-width:0.687" />
    <circle
       cx="445.02768"
       cy="160.0719"
       r="4.4206872"
       fill="#ffffff"
       id="circle11"
       style="stroke-width:0.687" />
    <polygon
       points="329.89,385.015 329.89,31.102 777.858,385.015 "
       fill="#f2f2f2"
       style="isolation:isolate;fill:#ecf0fd;fill-opacity:1"
       id="polygon11"
       transform="matrix(0.687,0,0,0.687,3.2527205,149.75695)" />
    <circle
       cx="297.32855"
       cy="354.63699"
       r="41.430771"
       fill="#191558"
       id="circle12"
       style="stroke-width:0.687" />
    <path
       d="m 306.55149,385.77622 a 51.535834,51.535834 0 1 1 51.53586,-51.53582 51.535841,51.535841 0 0 1 -51.53586,51.53582 z m 0,-102.39804 a 50.862176,50.862176 0 1 0 50.86217,50.86224 50.862169,50.862169 0 0 0 -50.8622,-50.86219 z"
       fill="#3f3d56"
       id="path12"
       style="stroke-width:0.687" />
    <rect
       x="520.86395"
       y="297.44104"
       width="40.261787"
       height="8.4129057"
       fill="#3f3d56"
       id="rect12"
       style="fill:#191558;fill-opacity:1;stroke-width:0.687" />
    <rect
       x="482.77243"
       y="251.86356"
       width="116.44474"
       height="3.6055341"
       fill="#3f3d56"
       id="rect13"
       style="fill:#191558;fill-opacity:1;stroke-width:0.687" />
    <rect
       x="482.77243"
       y="266.02905"
       width="116.44474"
       height="3.6055341"
       fill="#3f3d56"
       id="rect14"
       style="fill:#191558;fill-opacity:1;stroke-width:0.687" />
    <rect
       x="482.77243"
       y="280.19458"
       width="116.44474"
       height="3.6055341"
       fill="#3f3d56"
       id="rect15"
       style="fill:#191558;fill-opacity:1;stroke-width:0.687" />
    <rect
       x="613.58459"
       y="185.67442"
       width="16.82584"
       height="16.825819"
       fill="#191558"
       id="rect16"
       style="display:inline;stroke-width:0.687" />
    <path
       d="m 638.22233,210.31222 h -20.43138 v -20.43138 h 20.43138 z m -19.54302,-0.88829 h 18.65467 V 190.7692 h -18.65471 z"
       fill="#ccc"
       id="path16"
       style="fill:#ecf0fd;fill-opacity:1;stroke-width:0.687" />
    <path
       d="m 689.21625,409.8412 h -42.0646 v -3.03074 c 0,-0.33187 -0.26903,-0.6009 -0.60085,-0.60092 h -14.42219 c -0.33189,-2e-5 -0.60099,0.269 -0.60099,0.60088 v 3.03078 h -9.01371 v -3.03074 c 0,-0.33188 -0.26905,-0.60092 -0.60092,-0.60092 h -14.42213 c -0.33187,0 -0.60091,0.26904 -0.60091,0.60092 v 0 3.03074 h -9.01382 v -3.03074 c 10e-6,-0.33188 -0.26903,-0.60092 -0.60091,-0.60092 h -14.42219 c -0.33187,0 -0.60092,0.26904 -0.60092,0.60092 v 0 3.03074 h -9.0138 v -3.03074 c 1e-5,-0.33188 -0.26904,-0.60092 -0.60091,-0.60092 h -14.42214 c -0.33186,-1e-5 -0.6009,0.26901 -0.60091,0.60088 v 3.03078 h -9.01381 v -3.03074 c 0,-0.33188 -0.26905,-0.60092 -0.60092,-0.60092 h -14.42214 c -0.33187,0 -0.60092,0.26904 -0.60091,0.60092 v 0 3.03074 h -9.01386 v -3.03074 c 10e-6,-0.33188 -0.26904,-0.60092 -0.60091,-0.60092 h -14.42214 c -0.33187,0 -0.60092,0.26904 -0.60092,0.60092 v 0 3.03074 h -9.01381 v -3.03074 c 1e-5,-0.33188 -0.26904,-0.60092 -0.60092,-0.60092 H 385.75067 c -0.33188,0 -0.60092,0.26904 -0.60091,0.60092 v 0 3.03074 h -9.01386 v -3.03074 c 0,-0.33188 -0.26904,-0.60092 -0.60091,-0.60092 h -14.4221 c -0.33188,0 -0.60092,0.26904 -0.60092,0.60092 v 0 3.03074 h -9.01385 v -3.03074 c 1e-5,-0.33187 -0.26901,-0.6009 -0.60087,-0.60092 h -14.42219 c -0.33188,0 -0.60092,0.26904 -0.60091,0.60092 v 0 3.03074 h -9.01386 v -3.03074 c 10e-6,-0.33188 -0.26903,-0.60092 -0.60091,-0.60092 h -14.42213 c -0.33188,0 -0.60093,0.26904 -0.60092,0.60092 v 0 3.03074 h -9.01381 v -3.03074 c 0,-0.33188 -0.26904,-0.60092 -0.60092,-0.60092 h -14.42213 c -0.33188,0 -0.60093,0.26904 -0.60092,0.60092 v 0 3.03074 h -9.01385 v -3.03074 c 0,-0.33188 -0.26905,-0.60092 -0.60092,-0.60092 h -14.42215 c -0.33186,0 -0.60089,0.26901 -0.60091,0.60088 v 3.03078 h -9.01383 v -3.03074 c 1e-5,-0.33187 -0.26902,-0.60091 -0.60089,-0.60092 h -14.42214 c -0.33187,0 -0.60091,0.26904 -0.60092,0.60092 v 0 3.03074 h -27.64245 c -7.96511,2e-5 -14.4221,6.45702 -14.4221,14.42213 v 6.52135 c 2e-5,7.9651 6.457,14.42208 14.4221,14.4221 h 479.53576 c 7.96508,-10e-6 14.42205,-6.45699 14.42212,-14.4221 v -6.52135 c 0,-7.96512 -6.45704,-14.42213 -14.42212,-14.42213 z"
       fill="#3f3d56"
       id="path17"
       style="fill:#191558;fill-opacity:1;stroke-width:0.687"
       sodipodi:nodetypes="scscccccsccscccsccscccsccsccsccscccsccscccsccscccsccsccccccscccsccscccsccscccscccccscssccsssccsss" />
  </g>
</svg>
