<?xml version="1.0" encoding="UTF-8" standalone="no"?>
<svg
   width="637.60339"
   height="599.70331"
   viewBox="0 0 637.60339 599.7033"
   role="img"
   artist="Katerina Limpitsouni"
   source="https://undraw.co/"
   version="1.1"
   id="svg29"
   sodipodi:docname="undraw_advanced-customization_7ms4.svg"
   xmlns:inkscape="http://www.inkscape.org/namespaces/inkscape"
   xmlns:sodipodi="http://sodipodi.sourceforge.net/DTD/sodipodi-0.dtd"
   xmlns="http://www.w3.org/2000/svg"
   xmlns:svg="http://www.w3.org/2000/svg">
  <defs
     id="defs29" />
  <sodipodi:namedview
     id="namedview29"
     pagecolor="#ffffff"
     bordercolor="#000000"
     borderopacity="0.25"
     inkscape:showpageshadow="2"
     inkscape:pageopacity="0.0"
     inkscape:pagecheckerboard="0"
     inkscape:deskcolor="#d1d1d1">
    <inkscape:page
       x="0"
       y="0"
       width="637.60339"
       height="599.70331"
       id="page2"
       margin="0"
       bleed="0" />
  </sodipodi:namedview>
  <path
     d="m 562.73613,262.62885 a 9.50264,9.50264 0 0 0 -9.50856,-9.23358 9.11579,9.11579 0 0 0 -1.49961,0.14972 l -16.62067,-28.6843 -17.52229,3.31264 27.01655,36.83234 a 9.47629,9.47629 0 0 0 9.177,7.04467 9.06878,9.06878 0 0 0 8.96388,-9.17249 q -10e-4,-0.12453 -0.006,-0.249 z"
     fill="#a0616a"
     id="path1" />
  <polygon
     points="506.295,581.028 492.409,581.026 485.802,527.463 506.298,527.464 "
     fill="#a0616a"
     id="polygon1" />
  <path
     d="m 506.78438,595.51391 -42.70332,-0.002 v -0.54 a 16.62223,16.62223 0 0 1 16.62132,-16.62106 h 10e-4 l 7.8003,-5.91772 14.55366,5.91862 3.72771,1.3e-4 z"
     fill="#2f2e41"
     id="path2" />
  <polygon
     points="520.928,501.241 511.57,511.5 467.542,480.287 481.354,465.144 "
     fill="#a0616a"
     id="polygon2" />
  <path
     d="m 531.96104,510.6408 -28.77693,31.55094 -0.399,-0.36392 a 16.62224,16.62224 0 0 1 -1.08041,-23.48107 l 6.9e-4,-7.6e-4 0.88386,-9.751 14.18008,-6.76492 2.512,-2.75419 z"
     fill="#2f2e41"
     id="path3" />
  <path
     d="M 417.01594,225.27572 391,272.6458 l 2,34 -11,110 103,86 13,-19 -58,-74 0.69542,-5.24728 a 7.63771,7.63771 0 0 1 1.32153,-9.97152 c 4.983,-4.7812 0.74817,-5.64527 0.74817,-5.64527 L 451,326.6458 510,314.85052 485.252,221.46929 Z"
     fill="#2f2e41"
     id="path4" />
  <path
     d="m 452,292.6458 31,261 27,2.71654 v -91.218 c 0,0 -5,-4.96309 0,-7.23081 5,-2.26772 0,-10.77166 0,-10.77166 V 314.85052 L 485,275.6458 Z"
     fill="#2f2e41"
     id="path5" />
  <path
     d="m 397,74.6458 -24,9 -14,32 c 0,0 -32,16 -20,38 12,22 60.28742,70.28741 60.28742,70.28741 -5.90778,11.52372 -3.88685,20.38877 5.71258,26.71259 12.53272,20.10248 47.7218,10.25409 87,-5 7.26868,-17.72495 -3.98376,-45.17648 -15.045,-72.52756 L 480,136.6458 c 0,0 -34.49606,-50.19678 -40,-50 -5.50394,0.19678 -27,-2 -27,-2 z"
     fill="#3f3d56"
     id="path6" />
  <path
     d="m 431,91.74816 v 0 a 19.239,19.239 0 0 1 29.499,3.69812 l 52.31369,82.87314 c 5.02063,2.37748 7.544,7.74 9.04346,14.32636 3.72864,-1.26514 6.5528,1.19434 7.41266,11.7428 l 19.73114,31.25723 -18,20 -24.89429,-32.99936 c -5.78766,-1.53006 -3.09631,-9.82547 -7.101,-9.413 -4.00469,0.41247 -5.94073,-7.87488 -5.94073,-7.87488 -5.05134,-0.057 -6.5351,-2.427 -5.064,-6.71271 l -51,-72.88189 z"
     fill="#3f3d56"
     id="path7" />
  <path
     d="m 208.54961,89.88262 a 9.50264,9.50264 0 0 0 11.72293,6.18424 9.11591,9.11591 0 0 0 1.39685,-0.56572 l 24.02179,22.8471 15.8817,-8.11024 -36.29065,-27.73995 a 9.47629,9.47629 0 0 0 -10.7887,-4.17713 9.06877,9.06877 0 0 0 -6.02,11.32453 q 0.0364,0.1191 0.0761,0.23717 z"
     fill="#a0616a"
     id="path8" />
  <path
     d="m 357,124.6458 -33,10 -23.25984,-3.69678 -5.21727,-3.72738 c -2.24658,-6.07431 -6.77381,-8.9307 -12.80652,-9.66294 0,0 -4.87986,1.67223 -4.79812,-3.62034 C 277.99995,108.64579 246,89.6458 246,89.6458 l -14,25 18,22 c 6.38947,0.19733 10.32663,-0.64578 7,7 1.35757,7.363 0.41861,5.6539 5.90286,5.78845 L 291,177.6458 l 59,9 37.47244,-13.199 z"
     fill="#3f3d56"
     id="path9" />
  <circle
     cx="365.21039"
     cy="42.757118"
     r="30.71644"
     fill="#a0616a"
     id="circle9" />
  <path
     d="m 384.91774,42.16335 q -0.0395,-0.51366 -0.10535,-1.02726 a 2.30264,2.30264 0 0 0 0.10535,1.02726 z"
     fill="#2f2e41"
     id="path10" />
  <path
     d="m 322.46403,21.67272 c -0.53923,-3.68527 1.51333,-7.86251 5.10168,-8.88461 2.23582,-0.63832 4.62236,-0.0266 6.94171,0.0138 6.50608,0.11 18.07,-10.72993 24.35075,-12.39064 6.29227,-1.656 14.43492,1.80493 14.94424,8.29041 16.08953,-4.79045 28.37513,6.04782 29.12537,23.14065 0.58674,13.3678 -10.78155,31.58743 -22.77064,37.53377 -1.46784,-7.7789 3.96911,-19.43892 2.50465,-27.2097 a 15.75444,15.75444 0 0 0 -2.02937,-6.06981 c -1.20062,-1.7823 -3.40319,-3.07018 -5.48577,-2.54344 a 3.54183,3.54183 0 0 0 -2.46459,4.10189 14.4489,14.4489 0 0 0 -24.16753,-1.12 l 1.69754,-6.988 a 33.62333,33.62333 0 0 1 -16.05187,9.82088 4.46182,4.46182 0 0 1 -0.78031,-1.482 3.36418,3.36418 0 0 1 0.66252,-3.245 7.79112,7.79112 0 0 0 -2.98254,5.3456 15.316,15.316 0 0 1 -10.738,-2.11122 c -3.08386,-2.09986 2.68144,-12.51736 2.14216,-16.2026 z"
     fill="#2f2e41"
     id="path11" />
  <path
     d="m 603.10953,598.67823 h -33.18652 l -0.14258,-0.25879 c -0.42432,-0.76953 -0.834,-1.585 -1.2168,-2.42285 -3.41846,-7.31836 -4.86328,-15.68848 -6.13818,-23.07325 l -0.96,-5.5664 a 3.43688,3.43688 0 0 1 5.41015,-3.36231 q 7.56519,5.5049 15.13623,10.999 c 1.91114,1.39062 4.09375,3 6.18409,4.73925 0.20166,-0.97949 0.41259,-1.96191 0.62353,-2.93066 a 3.43916,3.43916 0 0 1 6.28076,-1.08594 l 3.88281,6.23828 c 2.832,4.55567 5.33155,9.04493 4.82227,13.88672 a 0.75716,0.75716 0 0 1 -0.0132,0.17578 10.94679,10.94679 0 0 1 -0.56348,2.33106 z"
     fill="#f0f0f0"
     id="path12" />
  <path
     d="m 636.41892,599.396 -315.3575,0.30731 a 1.19069,1.19069 0 0 1 0,-2.38135 l 315.3575,-0.30731 a 1.19069,1.19069 0 0 1 0,2.38135 z"
     fill="#cacaca"
     id="path13" />
  <path
     d="M 276,472.6458 H 23 a 23.02588,23.02588 0 0 1 -23,-23 v -340 a 23.02619,23.02619 0 0 1 23,-23 h 253 a 23.02619,23.02619 0 0 1 23,23 v 340 a 23.02588,23.02588 0 0 1 -23,23 z"
     fill="#ffffff"
     id="path14" />
  <path
     d="M 276,472.6458 H 23 a 23.02588,23.02588 0 0 1 -23,-23 v -340 a 23.02619,23.02619 0 0 1 23,-23 h 253 a 23.02619,23.02619 0 0 1 23,23 v 340 a 23.02588,23.02588 0 0 1 -23,23 z m -253,-384 a 21.02359,21.02359 0 0 0 -21,21 v 340 a 21.0239,21.0239 0 0 0 21,21 h 253 a 21.0239,21.0239 0 0 0 21,-21 v -340 a 21.02359,21.02359 0 0 0 -21,-21 z"
     fill="#e6e6e6"
     id="path15" />
  <circle
     cx="60.5"
     cy="189.89943"
     r="9"
     fill="#cccccc"
     id="circle15" />
  <path
     d="M 245.5,190.89943 H 91.25582 a 1,1 0 0 1 0,-2 H 245.5 a 1,1 0 0 1 0,2 z"
     fill="#cccccc"
     id="path16" />
  <circle
     cx="61"
     cy="356.89944"
     r="9"
     fill="#cccccc"
     id="circle16" />
  <circle
     cx="60.561272"
     cy="261.4986"
     r="9"
     fill="#cccccc"
     id="circle17" />
  <path
     d="m 243.5,215.49861 h -40 a 4,4 0 0 1 0,-8 h 40 a 4,4 0 0 1 0,8 z"
     fill="#191558"
     id="path17" />
  <path
     d="m 243.5,314.49861 h -40 a 4,4 0 0 1 0,-8 h 40 a 4,4 0 0 1 0,8 z"
     fill="#191558"
     id="path18" />
  <path
     d="M 214.69682,140.89943 H 99.80322 a 10.55322,10.55322 0 0 1 0,-21.10644 h 114.8936 a 10.55322,10.55322 0 1 1 0,21.10644 z"
     fill="#191558"
     id="path19" />
  <path
     d="m 243.5,439.49861 h -40 a 4,4 0 1 1 0,-8 h 40 a 4,4 0 0 1 0,8 z"
     fill="#191558"
     id="path20" />
  <path
     d="M 235.70996,414.89943 H 101.14014 A 11.11424,11.11424 0 0 1 98.62061,414.5801 11.24845,11.24845 0 0 1 90,403.60939 v -45.74023 a 11.29752,11.29752 0 0 1 11.29,-11.27979 h 134.41996 a 11.144,11.144 0 0 1 5.20264,1.27344 10.81252,10.81252 0 0 1 1.8042,1.17725 11.16537,11.16537 0 0 1 4.2832,8.8291 v 45.74023 a 11.30252,11.30252 0 0 1 -11.29004,11.29004 z M 101.29004,348.58937 a 9.29555,9.29555 0 0 0 -9.29,9.27979 v 45.74023 a 9.25724,9.25724 0 0 0 7.09473,9.02832 9.13326,9.13326 0 0 0 2.05761,0.26172 h 134.55758 a 9.30086,9.30086 0 0 0 9.29,-9.29 v -45.74027 a 9.18459,9.18459 0 0 0 -3.52783,-7.26367 8.86057,8.86057 0 0 0 -1.481,-0.96778 9.16856,9.16856 0 0 0 -4.28125,-1.04834 z"
     fill="#e6e6e6"
     id="path21" />
  <path
     d="m 226.69,413.89943 q 9.165,-22.275 19.31,-44.11 v 24.68 a 119.89862,119.89862 0 0 1 -15.92,19.43 z"
     fill="#e6e6e6"
     id="path22" />
  <path
     d="m 242.09003,349.81942 q -18.135,32.535 -37.95,64.08 h -2.3 q 20.145,-32.04 38.61,-65.15 a 9.82861,9.82861 0 0 1 1.64,1.07 z"
     fill="#e6e6e6"
     id="path23" />
  <path
     d="m 153.37,373.49941 a 407.71473,407.71473 0 0 1 -26.11,40.4 h -13.71 q 13.47006,-16.41 26.96,-32.82 c 2.58,-3.15 5.38,-6.45 9.25,-7.73 z"
     fill="#e6e6e6"
     id="path24" />
  <path
     d="m 135.15002,371.25942 c -1.43,1.49 -2.8,3.04 -4.09,4.65 -2.84,3.42 -5.64,6.87 -8.45,10.31 -1.75,2.13995 -3.5,4.28 -5.23,6.42 a 12.77008,12.77008 0 0 1 -1.56,-1.18 13.99258,13.99258 0 0 1 17.88,-21.52 12.89785,12.89785 0 0 1 1.45,1.32 z"
     fill="#191558"
     id="path25" />
  <path
     d="m 212.47998,380.97939 -26.28,-9.61 -13.05,-4.77 c -4.25,-1.55 -8.49,-3.32 -12.88,-4.44 a 20.3055,20.3055 0 0 0 -11.66,0.15 26.80777,26.80777 0 0 0 -9.09,5.64 q -1.74,1.605 -3.37,3.31 c -1.43,1.49 -2.8,3.04 -4.09,4.65 -2.84,3.42 -5.64,6.87 -8.45,10.31 -1.75,2.13995 -3.5,4.28 -5.23,6.42 q -8.67,10.605 -17.24,21.26 a 10.02168,10.02168 0 0 1 -2.28,-0.29 q 8.94,-11.09994 17.96,-22.15 c 0.69,-0.86 1.4,-1.73 2.1,-2.59 q 4.395,-5.38494 8.8,-10.76 c 2.27,-2.76995 4.52,-5.56 6.98,-8.17 0.22,-0.24 0.44,-0.47 0.67,-0.71 4.99,-5.16 11.22,-9.72 18.68,-9.84 4.39,-0.07 8.63,1.32 12.71,2.79 4.39,1.59 8.77,3.21 13.16,4.82 l 26.46,9.68 6.62,2.42 c 1.17,0.42004 0.67,2.32 -0.52,1.88 z"
     fill="#e6e6e6"
     id="path26" />
  <path
     d="M 127.03754,289.69085 H 95.84923 a 6.29506,6.29506 0 0 1 -6.288,-6.288 v -29.17612 a 6.295,6.295 0 0 1 6.288,-6.288 h 31.18831 a 6.295,6.295 0 0 1 6.288,6.288 v 29.17618 a 6.29506,6.29506 0 0 1 -6.288,6.28794 z"
     fill="#e6e6e6"
     id="path27" />
  <path
     d="m 182.66869,289.69085 h -31.18831 a 6.29506,6.29506 0 0 1 -6.288,-6.288 v -29.17612 a 6.295,6.295 0 0 1 6.288,-6.288 h 31.18831 a 6.295,6.295 0 0 1 6.288,6.288 v 29.17618 a 6.29506,6.29506 0 0 1 -6.288,6.28794 z"
     fill="#e6e6e6"
     id="path28" />
  <path
     d="m 238.29982,289.69085 h -31.1883 a 6.29506,6.29506 0 0 1 -6.288,-6.288 v -29.17612 a 6.29505,6.29505 0 0 1 6.288,-6.288 h 31.1883 a 6.29506,6.29506 0 0 1 6.288,6.288 v 29.17618 a 6.29506,6.29506 0 0 1 -6.288,6.28794 z"
     fill="#e6e6e6"
     id="path29" />
</svg>
