<?xml version="1.0" encoding="UTF-8"?>
<svg id="Calque_2" data-name="Calque 2" xmlns="http://www.w3.org/2000/svg" viewBox="0 0 957.91 957.02">
  <defs>
    <style>
      .cls-1 {
        fill: #f0f0f8;
      }

      .cls-2 {
        fill: #8b9dc9;
      }

      .cls-3 {
        fill: #cecfd9;
      }

      .cls-4 {
        fill: #cddffc;
      }

      .cls-5 {
        fill: #d8d7df;
      }

      .cls-6 {
        fill: #e0ebf8;
      }

      .cls-7 {
        fill: #364590;
      }

      .cls-8 {
        fill: #94b1f9;
      }

      .cls-9 {
        fill: #5765a7;
      }
    </style>
  </defs>
  <g id="Calque_1-2" data-name="Calque 1">
    <path class="cls-2" d="m710.59,482.82v-.05s0,.04,0,.06c0,0,0,0,0,0Z"/>
    <path class="cls-2" d="m729.14,447.56c2.08-1.86,1.14-11.68-3.43-13.82-5.02-11.9-13.67-9.58-14.26-9.53-.24-.34-.49-.67-.78-.98-1.3-1.42-2.98-2.34-4.72-2.97-1.72-.62-3.57-.99-5.38-1.13-1.75-.14-3.62.03-5.26.73-1.54.65-2.95,1.64-3.94,3.04-.24-.06-4.28-.53-6.11-.26-3.16.48-6.13,2.06-8.44,4.43-2.36,2.43-4.07,5.76-4.61,9.25-.02,0-.03.01-.05.02-.8-.19-1.64-.36-2.45-.28-1.85.18-3.48,1.36-4.67,2.87-1.04,1.31-1.77,2.93-2.22,4.55-1.88,6.77-.29,9.25.12,10.71.42,1.49,1.78,3.05,2.94,4.05.64.56,1.33.97,2.07,1.3.01.01.03.03.04.04-.06.41-.08.83-.05,1.24.09,1.22.54,2.28,1.08,3.34.36.7.73,1.39,1.18,2.02.62.88,1.31,1.69,2.23,2.24,1.02.62,2.11.83,3.25.95,1.74.19,3.54,0,5.23-.47.57-.16,2.65-.73,3.36-.97.91,1.05,2.49,1.7,3.82,2.14,1.6.53,3.43.44,5.02-.08.3-.1.59-.21.88-.34.87-.19,1.72-.5,2.41-1.01.14-.1.27-.21.4-.33.85.68,1.9,1.07,2.96,1.12.42.02.84-.13,1.19-.38.87.96,2.19,1.23,3.39,1.25,1.05.02,2.11.06,3.16-.01.73-.05,1.4-.19,2.07-.49.65-.29,1.16-.69,1.71-1.16.31-.26.61-.53.9-.81,1.31.01,2.63-.06,3.92-.23,1.66-.22,3.19-.59,4.73-1.3,1.39-.65,2.63-1.65,3.68-2.82,1.07-1.18,7.93-10.05,4.8-15.69,0-.01-.15-.25-.15-.26Z"/>
    <g id="_2hItr9.tif" data-name="2hItr9.tif">
      <g>
        <path class="cls-2" d="m714.57,445.87s-.2,0-.2,0c.08,0,.14,0,.2,0Z"/>
        <path class="cls-2" d="m702.43,454.04s.04.05.05.07"/>
        <path class="cls-2" d="m702.38,454.17s0,.03,0,.05l-.05-.12s.03.05.05.07Z"/>
        <path class="cls-2" d="m702.57,454.67c-.11-.15-.2-.3-.19-.46l.19.46Z"/>
        <path class="cls-2" d="m702.6,454.43c-.01.08-.02.17-.02.25"/>
        <path class="cls-2" d="m714.23,448.68c-.56.31-3.31,1.45-5.01,2.39-1.7.94-.53.3-2.14,1.2-1.37.76-1.78,1.01-4.1,3.7,0,0-.77-3.23-.77-3.23l-.04-.16c0-.41.1-.8.28-1.17.31-.62.79-1.14,1.23-1.68.23-.28.46-.55.65-.84.48-.72.79-1.51,1.07-2.31.08-.24.19-.47.29-.7.07-.16.17-.32.22-.49.08-.27.16-.54.21-.82.12-.73.25-1.46.33-2.19.09-.86.1-1.72,0-2.58-.09-.8-.13-1.6.16-2.38.24-.63.57-1.3,1.1-1.78.26-.24.61-.43.98-.49.43-.08.84-.13,1.26-.2.31-.05.47-.08.73-.19.1-.04.69-.4.57-.46-.09-.05-.95.19-1.06.2-.4,0-.81-.01-1.2-.11-.06-.01.56-.74.71-.83.37-.21.76-.4,1.17-.55.38-.15.75-.3,1.17-.21.26.05.5.19.77.2.75.04,1.05.16.17-.57-.42-.35-1.04-.45-1.61-.35-1.33.23-2.58,1.04-3.51,1.87-.44.4-.84.83-1.18,1.3-.18.24-.34.49-.49.74-.07.12-.16.25-.21.39-.04.09-.04.23-.16.27-.18.07-.27-.47-.3-.56-.09-.27-.18-.53-.31-.78-.54-1.09-1.31-2.11-1.48-3.31-.03-.22-.05-.45-.06-.68-.02-.37,0-.69.08-1.05s.06-.74.13-1.11c.09-.43.27-.84.51-1.22s.58-.69.76-1.08c.1-.21.07-.5-.15-.61-.32.92-1.11,1.65-1.6,2.51-.53.91-.71,1.96-.62,2.98.06.65.22,1.28.45,1.9.26.69.64,1.33.91,2.02.43,1.07.74,2.22.81,3.36.05.82.06,1.64.02,2.47-.03.73-.05,1.46-.09,2.18-.01.23-.05.46-.21.66-.03-.04-.06-.06-.07-.09-.2-.26-.39-.52-.6-.77-.55-.67-1.12-1.34-1.68-2.01-.15-.18-.31-.36-.39-.56-.2-.5-.38-1.01-.54-1.53-.12-.41-.15-.84-.03-1.27.13-.47.4-.87.65-1.28.11-.19.2-.39.3-.58-.02-.01-.03-.03-.05-.04-.05.02-.1.04-.14.06-.35.21-.65.48-.93.77-.28.3-.53.61-.53,1.04,0,.01,0,.02,0,.03-.08.55-.16,1.1-.22,1.65-.02.2,0,.42.07.61.2.56.53,1.05.87,1.54.5.73,1.01,1.45,1.5,2.18.23.35.43.72.53,1.12.06.23.13.45.11.69s-.11.48-.22.7c-.15.32-.36.62-.52.94-.21.42-.58.76-.93,1.1-.18.17-.36.34-.51.53-.17.2-.3.43-.45.65-.14.2-.3.39-.39.61-.09.2-.11.42-.18.63-.11.3-.32.59-.29.91,0,.05.01.09,0,.14-.08.24-.35-.18-.4-.25-.5-.72-.85-1.51-1.24-2.29-.41-.83-.86-1.66-1.34-2.47-.07-.12-.14-.24-.23-.35-.08-.1-.17-.2-.27-.3-.44-.45-.88-.9-1.32-1.35-.22-.19-.4-.37-.62-.51-.57-.39-1.14-.78-1.72-1.15-.51-.32-1.03-.61-1.55-.92-.18-.11-.39-.2-.53-.35-.36-.4-.48-.89-.44-1.42.04-.5.2-.97.4-1.44.08-.19.17-.39.31-.53.44-.43.88-.86,1.36-1.25.54-.44,1.09-.85,1.67-1.24.43-.29.92-.51,1.37-.78.35-.22.65-.5.76-.92.1-.36.07-.71-.07-1.06-.07-.17-.14-.34-.33-.46-.02.09-.05.16-.06.23-.03.19-.05.37-.07.56-.05.35-.14.69-.49.89-.12.07-.25.13-.38.2-1.27.67-2.61,1.27-3.63,2.24-.49.46-.91.98-1.31,1.51-.36.49-.79.99-.79,1.6,0,.11-.05.22-.09.32-.05.1-.11.1-.18,0-.21-.25-.43-.49-.64-.74-.29-.35-.58-.7-.73-1.12-.1-.27-.17-.55-.24-.84-.12-.51-.25-1.01-.33-1.53-.13-.88.1-1.72.32-2.55.14-.52.29-1.04.43-1.57.18-.7.2-1.41.05-2.11-.11-.49-.25-.96-.55-1.37-.03-.04-.06-.07-.1-.11-.01,0-.02.01-.04.02,0,.07.02.14.03.22.05.29.13.58.16.87.1.92-.09,1.8-.4,2.67-.24.66-.48,1.32-.72,1.98-.03.09-.09.14-.18.09-.17-.08-.37-.15-.52-.26-.31-.23-.59-.49-.9-.73-.53-.41-.84-.93-.9-1.58-.02-.19-.08-.38-.15-.55-.04-.1-.12-.18-.2-.31-.03.08-.04.1-.05.13-.02.3-.06.61-.07.91,0,.56.09,1.09.44,1.55.14.19.29.36.45.53.3.31.6.62.94.9.22.18.4.37.54.62.16.31.2.64.23.97.05.56.26,1.07.43,1.6.18.56.35,1.12.6,1.67.19.42.42.83.72,1.19.31.37.69.69,1.04,1.03.44.42.83.88,1.31,1.26.45.36.97.64,1.48.93.26.15.52.3.77.46.12.08.25.15.35.24.09.08.14.18.27.24.38.17.73.38,1.01.67.35.35.68.73.98,1.12.59.73,1.15,1.49,1.46,2.38.02.04.03.08.05.16-.1-.03-.17-.04-.24-.06-.81-.22-1.65-.26-2.48-.24-1.15.03-2.3.1-3.44.15-.38.01-1.18.38-1.31.41-.32.12-.95.48-2.3,1.29-1.44.87-3,1.8-4.58,2.48-1.48.63-3.32.91-4.75.19-.37-.19-2.81-2.27-3.14-1.72-.11.18.2.29.35.4.37.28.7.58,1.04.9.65.61,1.3,1.25,2.2,1.59.79.29,1.65.29,2.48.19.41-.05.82-.14,1.22-.23.06-.01,1.02-.15,1.02-.15-.61,1.01-.68,2.26-1.47,3.18-.26.31-.6.57-.94.82-.25.19-.54.38-.86.37-.09,0-.92,0-.5.22,1.03.55,2.4-.27,3.06-1,.85-.94,1.06-2.19,1.72-3.23.65-1.04,1.71-1.83,2.88-2.42,1.47-.74,3.25-1.43,4.96-1.57.8-.07,1.61-.13,2.42-.06.65.05,1.28.12,1.88.37.3.12.6.24.79.5.45.63.93,1.24,1.33,1.9.46.74.71,1.57.83,2.43.03.17.05.34.03.51-.07.54-.15,1.05-.17,1.6-.01.42-.07.86-.36,1.19-.17.2-.42.35-.66.5-.9.54-1.77,1.12-2.7,1.61-.42.22-1.9,1.23-1.99,1.27-.13.07-1.85.64-2.35.51-3.23-.78-6.65.94-11.25-2.22-4.55-3.14-9.84-1.24-8.85-1.15,2.03.2,2.63-.88,7.81,2.15,1.94,1.13,4.16,2.17,5,2.29,4.44.63,1.29.16,4.04.62,2.75.45,6.46,5.89,6.46,5.89l-.33,43.88h7.24s-.27-5.94-.27-6.03c0-.3-.01-.59-.02-.89-.02-.81-.04-1.61-.06-2.42-.03-1.21-.06-2.43-.09-3.64-.04-1.52-.07-3.03-.11-4.55-.04-1.72-.08-3.44-.12-5.16-.04-1.82-.08-3.64-.13-5.46s-.08-3.63-.12-5.45c-.04-1.71-.08-3.42-.11-5.13-.03-1.5-.06-3.01-.09-4.51-.02-1.19-.05-2.39-.07-3.58s-.03-2.4-.04-3.6c0-.22,0-.44.06-.65.18-.55.78-.99,1.18-1.42.51-.54.99-1.1,1.45-1.67,1.32-1.61,2.77-3.58,3.9-5.11.73-.98,1.83-1.77,2.87-2.49,1.52-1.06,3.15-1.98,4.77-2.91.23-.13.46-.27.65-.45.27-.27.42-.61.56-.94.1-.24.06-.44-.26-.26Zm-11.85,5.49s0,.03,0,.05l.19.46c-.11-.15-.2-.3-.19-.46l-.05-.12s.03.05.05.07Z"/>
        <path class="cls-2" d="m702.38,454.17s0,.03,0,.05l-.05-.12s.03.05.05.07Z"/>
        <path class="cls-2" d="m702.57,454.67c-.11-.15-.2-.3-.19-.46l.19.46Z"/>
      </g>
    </g>
    <path class="cls-2" d="m446.11,571.6c6.68-4.89,13.4-9.74,19.95-14.82,2.73-2.12,5.37-4.39,8.2-6.37,4.63-3.23,9.94-5.33,14.95-7.87,5.83-2.96,11.45-6,17.57-8.38,3.52-1.37,7.09-2.6,10.55-4.12,4.63-2.03,9.07-4.54,13.76-6.44,7.61-3.08,15.78-4.82,23.92-5.84,7.2-.91,14.03-2.85,21.08-4.54,6.57-1.58,13.2-3.01,19.86-4.13,3.32-.56,6.62-1.09,9.92-1.84,4.69-1.06,9.18-2.45,14.05-2.3,6.43.2,12.82,1.43,19.25,1.84,12.1.78,24.36-.39,36.48-.45,10.18-.05,20.01-.35,30.11-1.53,8.42-.99,16.64-1.05,25.03.02,10.49,1.33,20.87,1.09,31.41,1.13,3.72.01,7.38.64,11.09.68,2.92.04,4.45-1.04,6.92-2.07,1.73,1.69,2.12,5.63,2.8,7.8,1.45,4.6,3.21,9.13,5.41,13.43,1.78,3.48,3.66,7.21,5.89,10.45,2.18,3.17,5.21,5.84,7.63,8.85,1.04,1.29,1.56,2.58,2.21,4.15.89,2.17,1.64,6.31,3.77,7.85,1.95,1.4,4,.25,5.95-.04,1.81-.28,3.12,1.74,4.25,3.18.77.99,1.7,2.12,2.17,3.28.53,1.3.5,2.63,1.22,3.79.3.48.81.84,1.14,1.3.41.58.57,1.57,1.03,2.05.58.61,1.55,1.14,2.33.25,1.31-1.49-1.8-3.85-1.25-5.91.5.52.11,2,.42,2.83.97,2.63,2.59,2.2,5.99,2.18-.24-.41,1.13-2.92,0,0"/>
    <path class="cls-5" d="m842.61,571.92h-139.64v-183.86c0-.79.56-1.43,1.25-1.43h137.12c.7,0,1.25.64,1.25,1.43v183.86h.01Z"/>
    <path class="cls-5" d="m910.79,571.92h-43.03v-226.32c0-.7.57-1.26,1.27-1.26h40.48c.71,0,1.27.56,1.27,1.26v226.32Z"/>
    <path class="cls-5" d="m769.7,571.92h-30.08v-209.05c0-.79.31-1.43.71-1.43h28.66c.39,0,.71.64.71,1.43v209.05Z"/>
    <path class="cls-5" d="m801.84,571.92h-32.13v-237.35c0-.79.42-1.43.95-1.43h30.22c.53,0,.95.64.95,1.43v237.35Z"/>
    <path class="cls-6" d="m244.22,297.56c5.47-3.17,10.92,2.55,11.92-7.57,0,0,11.28-2.1,10.81-10.12-.47-8.02,7.23-3.02,4.35-13.41s7.65-.1,4.64-18.47c-.1-.61,7.73-3.07,10.01-18.35,2.28-15.28,6.88-14.52,9.03-14.52,0,0,2.56-.02,4.22-.22.46-.06.89-.18,1.32-.37,1.81-.79,6.97-3.26,6.74-5.71-.28-2.97,0-6.57-5.76-12.16s-.82-15.67-12.71-22.43c0,0-4.19-19-19.1-13.6,0,0-14.18-12.77-19.81,2.03,0,0-12.29,2.78-8.73,11.06.24.55.55,1.13.93,1.73,6.19,9.63-1.88,13.34-4.22,17.15,0,0-9.73,12.65-2.15,17.77,7.58,5.12,32.79,10.98,25.87,17.8-8.03,7.91-14.97,2.44-13.04,12.15,1.93,9.71,12.22,4.57,7.56,9.38-4.66,4.81-15.11,9.97-11.29,15.13s13.62,5.54,9.31,8.7c0,0-13.52,3.91-8.89,8.1,5.52,5,7.83,4.63,3.86,9.02-3.97,4.39-6.64,7.96-4.88,6.94Z"/>
    <path class="cls-1" d="m743.51,595.07c-129.86,3.3-259.79,4.16-389.68,2.34-113.86-1.59-220.22-8.94-334.66-8.94,25.91,209.57,226.42,368.54,449.83,368.54s408.74-157.36,456-368.16c-60.48,2.59-120.98,4.67-181.5,6.21Z"/>
    <path class="cls-6" d="m83.2,450.4c4.42-9.65,10.02-14.06,9.7-22.12-.45-11.45,6.11-10.78,6.6-11.5.57-.83-4.64-4.41-3.75-9.82.88-5.37,8.42-6.26,11.03-12.38,3.81-8.93-.89-11.78-.62-15.23.39-5.06,9.56-4.21,9.56-4.21-16.47-11.92-5.19-17.45-5.19-17.45-9.07-7.41-9.07-14.2-9.07-14.2-17.38.45-9.63-17.35-9.63-17.35-5-9.95,2.63-14.13,11.67-12.3,9.04,1.83,10.17-3.41,10.17-3.41,14.16-17.78,23.47,8.26,23.47,8.26.55,7.76-15.72,1.5-13.86,8.7.62,2.4,9.41,5.3,9.41,5.3,8.41-1.62,12.07,7.96,12.07,7.96,5.94,2.64,1.85,9.67,1.85,9.67,6.33-7.94,13.86,1.21,13.86,1.21,9.21-15.47,26.66-5.3,26.66-5.3,16.83-5.76,21.33,5.83,21.33,5.83,40.64,1.82,23.69,30.8,23.69,30.8,23.85,3.96,11.19,19.65,11.19,19.65,0,0,16.15,19.31,11.83,33.83-6.34,21.28-25.72,1.36,2.45,111.26,1.9,7.42-34.53,9.28-34.53,9.28l-119.16,6.92c-1.24-19.55-6.22-33.9-10.5-43.35-6.62-14.59-10.85-15.91-13.59-27.99-.93-4.12-5.25-23.2,3.38-42.06Z"/>
    <path id="Nuages" class="cls-6" d="m801.5,281.24s-39.6.71-11.82-12.08c1.63-.75,7.78-.3,7.78-.3,0,0,1.34-9.53,9.31-12.18,7.97-2.64,3.11-12.33,15.13-15.43,6.01-1.55,6.32-4.74,5.13-7.54-2.48-5.82-2.37-12.67,1.08-17.85,4.96-7.44,14.61-14.08,32.99-6.64,2.68,1.08,20.52,17.66.51,29.64-16.2,9.7,44.29,4.87,10.54,42.23-1.37,1.51-70.84.29-70.41.19"/>
    <ellipse id="Son" class="cls-8" cx="569.93" cy="204.36" rx="56.7" ry="57.97"/>
    <path class="cls-6" d="m178.25,149.43c-5.72.16-5.71,9.44,0,9.61,5.72-.16,5.71-9.44,0-9.61Z"/>
    <path class="cls-3" d="m194.4,82.54s-11.12-3.09-10.13-23.5c.99-20.41,20.51-33.28,20.51-33.28,0,0,6.55,7.68,8.73,28.52,2.18,20.84-14.27,27.84-15.87,29.16-1.59,1.31-1.43,13.74-1.89,15.13-.46,1.39-2.25.69-2.59.24s1.61-16.46,1.24-16.27Z"/>
    <path class="cls-9" d="m216.27,57.09c1.78,17.78-20.37,27.36-20.44,26.62-.14-1.43-2.47-20.33,4.02-38.41,6.49-18.08,4.79-19.34,4.99-19.48,0,0,9.51,12.16,11.43,31.27Z"/>
    <path class="cls-3" d="m850,121.99s14.05-3.09,12.8-23.5c-1.25-20.41-25.93-33.28-25.93-33.28,0,0-8.28,7.68-11.03,28.52-2.75,20.84,18.04,27.84,20.06,29.16,2.02,1.31,1.81,13.74,2.39,15.13.58,1.39,2.84.69,3.28.24s-2.03-16.46-1.56-16.27Z"/>
    <path class="cls-9" d="m822.48,96.79c-2.26,17.78,25.74,27.36,25.84,26.62.18-1.43,3.12-20.33-5.08-38.41-8.2-18.08-6.05-19.34-6.31-19.48,0,0-12.03,12.16-14.45,31.27Z"/>
    <path class="cls-5" d="m551.55,571.92s8.1,7.26-83.39-48.51c-6.08-3.71-68.33-6.98-75.85-6.37-86.81,7-33.84-3-84.96-11.66,0,0,20,19.88-13.63,6.54-20.07-7.96,21.81,44.32,24.52,59.26"/>
    <path class="cls-3" d="m26.73,278.39s-11.78,5.05-22.16-13.58c-10.38-18.62.2-43.57.2-43.57,0,0,10.18,2.17,23.67,18.96,13.49,16.79,2.45,34.44,1.73,36.7-.72,2.27,6.3,13.08,6.65,14.62s-1.65,2.18-2.22,2.02-7.64-15.58-7.87-15.16Z"/>
    <path class="cls-9" d="m32.48,240.75c11.44,14.38-3.34,38.27-3.82,37.67-.92-1.16-13.47-16.14-17.59-36.56-4.12-20.42-6.35-20.34-6.24-20.6,0,0,15.34,4.04,27.64,19.49Z"/>
    <path class="cls-3" d="m684.81,101.8s-5,1.34-10.4-9.06c-5.4-10.4-1.79-21.85-1.79-21.85,0,0,4.6,2.12,11.3,11.92,6.7,9.8,2.57,17.54,2.35,18.6s3.35,7.2,3.58,8.01-.64.93-.89.79-4.06-8.6-4.14-8.41Z"/>
    <path class="cls-3" d="m685.74,83.49c5.69,8.38.17,18.88-.07,18.52-.46-.67-6.66-9.47-9.37-20.14-2.7-10.67-3.69-10.85-3.65-10.98,0,0,6.97,3.58,13.09,12.59Z"/>
    <g>
      <path class="cls-2" d="m650.06,513.64h0c-3.37,0-8.33-2.33-8.33-5.45l4.97-204.12c0-3.12-.58-5.91,2.8-5.91h.56c2.51,0,2.43,2.19,2.59,5.27l6.2,205.7c0,3.12-5.42,4.51-8.79,4.51Z"/>
      <path class="cls-2" d="m650.3,271.78s4.15,17.99,0,17.99-14.09-8.23-10.53-22.85c3-12.31,7.75-27.8,11.9-27.8s-.87,19.94-1.37,32.67Z"/>
      <path class="cls-2" d="m665.6,303.89s-18.23-7.37-15.81-10.48c2.42-3.12,15.45-5.79,26.22,5.41,9.07,9.43,19.92,22.03,17.5,25.15-2.42,3.12-17.02-12.27-27.91-20.07Z"/>
      <path class="cls-2" d="m627.09,296.86s18.07-7.7,18.98-3.95c.91,3.74-5.59,14.52-21.8,14.52-13.65,0-31.04-.88-31.95-4.63-.91-3.74,21.23-3.6,34.77-5.94Z"/>
    </g>
    <g>
      <path class="cls-2" d="m573.05,526.49h0c-2.69,0-6.64-1.9-6.64-4.45l3.97-166.6c0-2.55-.46-4.82,2.23-4.82h.45c2,0,1.94,1.79,2.07,4.3l4.95,167.89c0,2.55-4.32,3.68-7.01,3.68Z"/>
      <path class="cls-2" d="m573.24,329.09s3.31,14.68,0,14.68-11.24-6.72-8.4-18.65c2.39-10.05,6.18-22.69,9.5-22.69s-.69,16.28-1.09,26.66Z"/>
      <path class="cls-2" d="m585.45,355.3s-14.55-6.01-12.62-8.56c1.93-2.55,12.33-4.73,20.92,4.41,7.24,7.7,15.89,17.98,13.96,20.52-1.93,2.55-13.58-10.02-22.27-16.38Z"/>
      <path class="cls-2" d="m554.72,349.55s14.42-6.28,15.15-3.23c.73,3.06-4.46,11.85-17.39,11.85-10.89,0-24.76-.72-25.49-3.78-.73-3.06,16.94-2.93,27.74-4.85Z"/>
    </g>
    <path id="_sol" data-name="&amp;lt;sol" class="cls-3" d="m19.17,588.48s.48,34.61,21.22,84.45c1.73,4.17,44.25-.43,58.17,6.6,13.91,7.02,25.22,34.61,72.91,35.76,47.69,1.15,31.06,30.83,52.69,49.36,22.56,19.33,45.9,6.93,74.77,2.13,32.31-5.37,35.6,2.55,52.11-.39,17.47-3.1,21.58,10.54,25.79,23.67,4.21,13.14-25.03,7.55-21.86,21,3.17,13.45,36.09,11.27,38.69,11.15s14.23,3.6,12.98,13.17c-1.55,11.86,109.65-11.72,99.75-44.56-9.9-32.85,109.02-133.38,109.02-133.38,0,0,42.08-65.1,42.08-68.96,0-5.83-638.73,1.34-638.32,0Z"/>
    <path id="Sol" class="cls-4" d="m522.1,586.27l409.32-.15s2.85,65.53-52.68,150.68c-1.53,2.34-41.34,51.44-64.02,77.87-4.87,5.68-21.21,24.59-44.58,42.68-6.49,5.03-39.07,34.02-61.74-10.83-6.51-12.87-68.3-34.1-92.35-27.04-32.42,9.52-28.98,10.41-112.74,73.52-24.7,18.61-78.27-2.36-85.07-54.02-3.45-26.18-7.48-40.68,31.46-54.89,62.67-22.88,40.33-25.09,49.41-56.41,9.08-31.31,19.79-38.67,62.34-57.49,31.83-14.08,25.18-40.47,14.95-47.85-29.93-21.58-53.22-6.99-54.39-28.42l.09-7.66Z"/>
    <rect class="cls-5" x="328.78" y="383.42" width="20.82" height="158.36"/>
    <ellipse class="cls-6" cx="125.42" cy="84.64" rx="3.93" ry="4.36"/>
    <ellipse class="cls-6" cx="175.33" cy="218.25" rx="2.17" ry="2.4"/>
    <ellipse class="cls-6" cx="273.49" cy="123.45" rx="4.97" ry="5.5"/>
    <ellipse class="cls-6" cx="318.72" cy="151.4" rx="2.56" ry="2.84"/>
    <ellipse class="cls-4" cx="814.86" cy="860.24" rx="8.91" ry="7.89"/>
    <ellipse class="cls-3" cx="188.3" cy="734.25" rx="8.91" ry="7.89"/>
    <ellipse class="cls-3" cx="374.37" cy="836.55" rx="9.06" ry="4.82"/>
    <ellipse class="cls-4" cx="909.37" cy="763.05" rx="7.08" ry="6.27"/>
    <path class="cls-6" d="m776.96,172.77s20.99.62,27.96.09c4.44-.34,14.23-6.13-3.34-15.41-.76-.4-10.59-10.43-18.76-1.38-3.7,4.09-5.64,5.08-7.18,5.75-3.57,1.56-4.48,6.68-1.7,9.61h0c.82.86,1.9,1.34,3.02,1.35Z"/>
    <path class="cls-5" d="m236.79,512.01c-11.64,3.15-18.96,6.89-23.56,10.43v-83.2h-19.54v-100.01h-32.67v187.79c-5.16.28-10.24.84-15.11,1.56v-66.45h-10.85v68.37c-2.27.46-4.44.94-6.51,1.43v-69.8h-10.85v72.63c-6.29,1.81-10.12,3.21-10.12,3.21-80,3.82-87.93,33.96-87.93,33.96l233.32-.51c2.7-10.2,3.9-64.84-16.17-59.41Z"/>
    <rect class="cls-8" x="303.14" y="407.83" width="23.72" height="82.75"/>
    <rect class="cls-8" x="318.64" y="373.55" width="14.42" height="120.92"/>
    <path class="cls-9" d="m611.24,65.39s9.51,9.18-.09,26.17c-9.6,16.99-34.05,16.63-34.05,16.63,0,0-3.13-10.45,3.57-29.67,6.7-19.22,25.68-15.61,27.79-15.8,2.11-.2,7.21-10.99,8.25-11.92s2.48.72,2.63,1.31-8.53,13.23-8.09,13.28Z"/>
    <path class="cls-3" d="m579.43,74.87c5.86-16.18,30.43-11.91,30.19-11.23-.47,1.3-6.3,18.74-19.96,30.52-13.65,11.79-12.61,13.81-12.86,13.82,0,0-3.67-15.73,2.63-33.12Z"/>
    <path class="cls-3" d="m851.49,346.76s10.65,4.34,20.28-11.02c9.63-15.36.29-36.23.29-36.23,0,0-9.27,1.68-21.7,15.48-12.43,13.8-2.6,28.6-1.97,30.49s-5.86,10.79-6.2,12.07,1.48,1.83,1.99,1.71,7.1-12.86,7.31-12.51Z"/>
    <path class="cls-9" d="m846.67,315.4c-10.55,11.81,2.62,31.86,3.06,31.36.85-.95,12.41-13.25,16.36-30.18,3.96-16.93,5.98-16.83,5.89-17.05,0,0-13.98,3.17-25.32,15.87Z"/>
    <path class="cls-9" d="m924.13,503.17s-9.03,7.88.08,22.45c9.12,14.58,32.34,14.26,32.34,14.26,0,0,2.97-8.97-3.39-25.46s-24.39-13.39-26.39-13.56c-2-.17-6.85-9.43-7.83-10.23s-2.36.62-2.49,1.13,8.1,11.35,7.68,11.4Z"/>
    <path class="cls-3" d="m954.28,511.21c-5.61-13.92-28.57-10.53-28.33-9.94.45,1.12,6.05,16.12,18.92,26.36,12.87,10.24,11.91,11.97,12.14,11.98,0,0,3.31-13.43-2.72-28.39Z"/>
    <path class="cls-8" d="m811.12,571.92h-38.26v-154.01c0-.79.5-1.43,1.13-1.43h35.98c.63,0,1.13.64,1.13,1.43v154.01h.01Z"/>
    <path class="cls-8" d="m754.66,571.92h-29.8v-110.53c0-.79.39-1.43.88-1.43h28.04c.49,0,.88.64.88,1.43v110.53Z"/>
    <path class="cls-8" d="m902.25,571.92h-43.11v-183.95c0-.79.51-1.43,1.15-1.43h40.81c.64,0,1.15.64,1.15,1.43v183.95Z"/>
    <path class="cls-8" d="m866.5,571.92h-35.7v-123.81c0-.79.47-1.43,1.06-1.43h33.58c.59,0,1.06.64,1.06,1.43v123.81Z"/>
    <path class="cls-8" d="m842.61,571.92h-95.62v-65.91c0-.47,1.26-.85,2.83-.85h89.96c1.57,0,2.83.38,2.83.85v65.91Z"/>
    <path class="cls-4" d="m542.84,571.91s44.63-12.39,96.72-22.1c33.17-6.18,74.97,17.44,74.97,17.44l36.46-.42c9.48-.11,18.76-2.61,27.09-7.19,15.88-8.72,39.72-15.15,77.52-4.91,66.76,18.08,74.41,17.19,74.41,17.19h-387.17Z"/>
    <rect class="cls-9" x="270.04" y="390.99" width="15.45" height="140.84" rx=".87" ry=".87"/>
    <path class="cls-9" d="m280.25,571.92h245.55s-75.65-19.81-89.27-23.14c-21.05-5.15-67.07-9.63-87.8-10.57-28.73-1.31-67-5.97-67-5.97"/>
    <path class="cls-8" d="m136.14,435.93c-2.39-17.14-17.68-14.37-18.78-15.77-25.59-32.62-42.92.86-43.36.79-17.99-2.74-24.08,15.6-24.92,16.4-15.98,15.29-9.98,27.66-9.8,28.4,3.32,13.59,10.93,14.53,11.86,15.2,9.72,7.09,17.41,3.85,21.83,4.93,8.42,2.07,4.19-10.48,25.25,10.92,2.99,3.04,4-20.44,20.23-12.69,16.24,7.74,26.26-8.66,26.76-9.4,17.13-25.73-8.92-37.68-9.07-38.78Zm-37.52,34.61c.72,1.5-1.43,3.76.72,5.26-2.15-1.5,0-3.76-.72-5.26Z"/>
    <g id="_2hItr9.tif-2" data-name="2hItr9.tif">
      <g>
        <path class="cls-8" d="m124.74,453.03s-.31,0-.3,0c.13,0,.22,0,.3,0Z"/>
        <path class="cls-8" d="m106.13,465.54s.05.07.08.11"/>
        <path class="cls-8" d="m106.07,465.75s0,.05,0,.07l-.08-.18s.05.07.08.11Z"/>
        <path class="cls-8" d="m106.35,466.52c-.17-.24-.31-.46-.29-.7l.29.7Z"/>
        <path class="cls-8" d="m106.39,466.15c-.02.13-.03.25-.04.38"/>
        <path class="cls-8" d="m124.23,457.33c-.86.48-5.08,2.23-7.68,3.67-2.6,1.44-.8.46-3.28,1.84-2.1,1.16-2.73,1.55-6.29,5.67,0,0-1.18-4.95-1.18-4.96l-.06-.25c0-.63.15-1.23.43-1.8.48-.96,1.21-1.74,1.88-2.57.34-.43.7-.84,1-1.29.74-1.1,1.21-2.32,1.64-3.55.13-.36.29-.72.44-1.07.11-.25.26-.49.34-.74.13-.41.24-.83.32-1.25.19-1.11.38-2.23.5-3.36.14-1.31.16-2.64.01-3.96-.14-1.23-.2-2.45.25-3.65.36-.96.87-2,1.69-2.73.41-.36.93-.65,1.51-.75.66-.12,1.28-.21,1.93-.31.47-.08.72-.12,1.12-.28.16-.06,1.06-.61.88-.71-.14-.08-1.45.3-1.63.3-.62.01-1.24-.02-1.83-.17-.08-.02.86-1.14,1.09-1.27.57-.32,1.17-.61,1.8-.85.58-.22,1.14-.45,1.8-.33.4.08.77.29,1.18.31,1.14.07,1.61.25.25-.88-.64-.54-1.6-.7-2.47-.54-2.04.36-3.96,1.59-5.38,2.87-.68.61-1.28,1.28-1.81,1.99-.27.37-.53.75-.76,1.14-.11.19-.25.39-.33.59-.06.14-.06.35-.25.42-.28.11-.42-.71-.47-.86-.14-.41-.28-.81-.47-1.2-.82-1.67-2-3.23-2.27-5.07-.05-.34-.07-.69-.1-1.04-.03-.56,0-1.06.12-1.61s.08-1.14.2-1.7c.14-.66.42-1.28.79-1.87s.89-1.06,1.16-1.65c.15-.32.11-.76-.23-.94-.49,1.41-1.7,2.53-2.46,3.85-.81,1.4-1.09,3.01-.95,4.57.09.99.34,1.97.7,2.9.41,1.05.98,2.04,1.4,3.09.66,1.64,1.14,3.41,1.24,5.15.07,1.26.1,2.52.03,3.78-.05,1.11-.08,2.23-.14,3.35-.02.35-.08.7-.32,1.02-.05-.06-.09-.1-.11-.13-.31-.4-.59-.8-.91-1.19-.85-1.03-1.72-2.05-2.57-3.08-.22-.27-.47-.55-.6-.86-.31-.77-.58-1.55-.82-2.34-.19-.63-.24-1.29-.05-1.95.2-.72.62-1.33.99-1.97.17-.3.31-.6.46-.9-.03-.02-.04-.04-.07-.06-.07.03-.15.06-.22.1-.54.32-1,.73-1.42,1.19-.43.46-.82.94-.82,1.6,0,.02,0,.03-.01.04-.12.84-.25,1.69-.33,2.53-.03.31.01.64.11.93.31.86.81,1.62,1.33,2.37.77,1.12,1.55,2.22,2.31,3.35.36.53.66,1.11.82,1.71.09.36.2.69.17,1.05s-.17.74-.33,1.08c-.24.49-.55.95-.79,1.44-.33.65-.89,1.17-1.43,1.69-.27.26-.55.52-.79.81-.26.31-.45.67-.69.99-.22.31-.46.6-.6.94-.13.31-.17.65-.28.96-.16.47-.49.91-.45,1.4,0,.07.02.14,0,.21-.12.37-.53-.27-.61-.38-.77-1.11-1.31-2.32-1.9-3.51-.63-1.28-1.32-2.54-2.05-3.78-.11-.18-.21-.36-.35-.53-.12-.16-.27-.31-.41-.45-.67-.69-1.35-1.38-2.02-2.08-.34-.29-.62-.57-.95-.79-.87-.6-1.74-1.2-2.63-1.76-.78-.49-1.58-.93-2.38-1.41-.27-.16-.59-.31-.8-.54-.56-.62-.73-1.36-.67-2.17.06-.77.31-1.49.61-2.2.12-.29.26-.6.48-.81.67-.67,1.35-1.31,2.08-1.91.82-.67,1.67-1.31,2.56-1.9.66-.44,1.41-.78,2.1-1.19.54-.34,1-.77,1.16-1.4.15-.55.1-1.09-.11-1.62-.1-.26-.21-.51-.5-.71-.03.14-.07.25-.09.35-.04.29-.07.57-.11.86-.08.54-.21,1.06-.75,1.37-.19.11-.39.2-.58.3-1.95,1.03-4,1.95-5.57,3.43-.76.71-1.4,1.51-2.01,2.32-.56.75-1.22,1.52-1.22,2.45,0,.16-.08.34-.14.49-.07.15-.17.15-.28.01-.32-.38-.66-.74-.98-1.13-.44-.53-.88-1.07-1.12-1.72-.15-.42-.26-.85-.36-1.29-.18-.78-.38-1.56-.5-2.34-.2-1.34.15-2.63.49-3.91.22-.8.45-1.6.65-2.41.27-1.07.31-2.15.07-3.23-.17-.74-.39-1.47-.85-2.1-.04-.06-.1-.11-.15-.17-.02.01-.04.02-.06.03.01.11.03.22.04.33.08.44.19.89.24,1.34.16,1.41-.13,2.76-.61,4.09-.37,1.01-.73,2.02-1.1,3.03-.05.14-.13.21-.28.14-.27-.12-.56-.22-.79-.39-.47-.35-.91-.76-1.37-1.11-.82-.63-1.28-1.43-1.39-2.43-.03-.29-.13-.58-.23-.85-.06-.15-.19-.28-.31-.47-.04.12-.06.16-.07.2-.04.46-.1.93-.11,1.4-.01.86.13,1.67.67,2.38.21.29.44.55.69.81.47.48.93.95,1.44,1.38.33.28.62.57.82.95.25.47.31.98.36,1.49.07.85.4,1.64.66,2.46.27.86.54,1.72.92,2.55.29.64.64,1.27,1.1,1.82.47.57,1.06,1.06,1.59,1.58.67.65,1.27,1.35,2.01,1.94.69.55,1.49.99,2.28,1.43.4.23.8.45,1.18.7.18.12.38.23.53.37.14.13.22.28.41.37.59.26,1.12.59,1.55,1.03.54.54,1.03,1.12,1.51,1.71.91,1.12,1.77,2.28,2.24,3.65.03.06.04.13.07.24-.16-.04-.26-.06-.37-.09-1.25-.34-2.52-.4-3.8-.37-1.76.04-3.52.15-5.28.22-.58.02-1.81.58-2.01.62-.5.18-1.46.73-3.53,1.97-2.21,1.33-4.6,2.77-7.02,3.8-2.27.97-5.09,1.4-7.29.3-.57-.29-4.31-3.47-4.82-2.64-.17.28.31.44.54.61.57.43,1.08.9,1.59,1.37,1,.93,2,1.92,3.37,2.43,1.2.45,2.53.45,3.8.29.63-.08,1.25-.21,1.87-.35.09-.02,1.57-.23,1.57-.23-.94,1.55-1.05,3.46-2.25,4.87-.41.47-.92.87-1.43,1.25-.38.29-.82.58-1.33.57-.14,0-1.4,0-.76.34,1.58.85,3.67-.42,4.69-1.53,1.3-1.43,1.63-3.35,2.63-4.96,1-1.59,2.63-2.81,4.42-3.72,2.26-1.14,4.99-2.19,7.6-2.4,1.23-.1,2.47-.2,3.71-.1.99.08,1.97.19,2.88.57.45.18.92.36,1.21.76.7.96,1.42,1.91,2.04,2.91.71,1.14,1.09,2.41,1.28,3.72.04.26.08.53.05.78-.1.82-.23,1.61-.25,2.45-.02.64-.11,1.31-.55,1.82-.27.31-.64.54-1.01.76-1.38.83-2.71,1.71-4.14,2.47-.65.34-1.29.76-1.61,1.37-.25.49-.26,1.05-.32,1.58-.09.84-.33,1.68-.69,2.46-.06.12-.13.25-.26.32-.2.1-.46.02-.64-.12-.43-.33-.76-.75-1.21-1.07-.65-.46-1.35-.86-2.05-1.25-4.44-2.5-10.07.9-17.11-3.96-6.98-4.82-15.09-1.91-13.57-1.76,3.11.31,4.03-1.35,11.98,3.29,2.98,1.74,6.38,3.33,7.66,3.51,6.81.97,1.98.25,6.2.95,4.21.69,9.9,9.03,9.9,9.03l-.51,67.27h11.1s-.42-9.11-.42-9.24c0-.45-.02-.91-.03-1.36-.03-1.24-.06-2.47-.09-3.71-.04-1.86-.09-3.72-.13-5.58-.06-2.33-.11-4.65-.17-6.98-.06-2.64-.12-5.27-.19-7.91-.07-2.79-.13-5.58-.19-8.37s-.13-5.57-.19-8.35c-.06-2.62-.12-5.25-.17-7.87-.05-2.3-.1-4.61-.14-6.91-.04-1.83-.07-3.66-.1-5.49s-.05-3.68-.07-5.52c0-.33,0-.67.1-.99.28-.84,1.2-1.51,1.81-2.17.78-.83,1.51-1.69,2.22-2.56,2.02-2.47,4.24-5.48,5.98-7.84,1.12-1.51,2.81-2.72,4.4-3.82,2.33-1.62,4.83-3.03,7.31-4.47.35-.2.71-.41.99-.68.42-.41.64-.93.86-1.45.16-.37.1-.67-.4-.39Zm-18.17,8.42s0,.05,0,.07l.29.7c-.17-.24-.31-.46-.29-.7l-.08-.18s.05.07.08.11Z"/>
        <path class="cls-8" d="m106.07,465.75s0,.05,0,.07l-.08-.18s.05.07.08.11Z"/>
        <path class="cls-8" d="m106.35,466.52c-.17-.24-.31-.46-.29-.7l.29.7Z"/>
      </g>
    </g>
    <path id="path55" class="cls-7" d="m591.84,545.51c.27,1.24.57,2.45.77,3.63h.13l.64-.84c.13.34.5.7.2,1.24-.07.07,0,.2,0,.34.07.2.07.4.2.77l.27-.7.2.07.5,1.24.07-.34c.07,0,.13,0,.13.07.13.13.27.34.4.57.57.7,1.31,1.04,2.08,1.24.7.2,1.48.27,2.22.4.07,0,.13,0,.2.07.13.2.34.34.64.34.2,0,.4.34.7,0,0,0,.13-.07.2,0,.5.34.64,0,.77-.34l.7.2.2-1.31c.27.34.4.34.57-.07.07-.34.27-.64.34-.97l.34.7c.5-.4.64-.91.64-1.54q0-.5.57-.4c-.2-.34-.27-.64.07-.97.13-.13,0-.5.07-.7.13-.57.13-1.17.57-1.75.2-.2,0-.77,0-1.11,0-.84-.07-1.68-.13-2.52,0-.5-.13-.97-.13-1.48v-.97l.2-.07c.2.5.4,1.04.64,1.54.7,1.68,1.48,3.36,2.01,5.1,1.11,3.36,2.65,6.48,4.03,9.7.5,1.17.84,2.52,1.31,3.76.07.27,0,.5-.27.7-.27.2-.57.5-.64.84-.2.84-1.11,1.11-1.54,1.75-.07.07-.27,0-.34.07-.2.13-.4.27-.5.5,0,.13.13.5.34.57.27.07.64.13.91.07.5-.13.91-.34,1.31-.64.84-.4,1.68-.84,2.52-1.17.2-.07.64-.07.84.07.64.34.77.27,1.17-.27.07-.07.4-.13.57-.07.57.34,1.04.5,1.68.2.27-.13.7,0,1.04,0,.2,0,.34-.13.57-.13-.13-.13-.2-.34-.34-.4-.84-.5-1.61-.91-2.22-1.68-.2-.27-.5-.5-.84-.7-.5-.27-.77-.7-.84-1.24-.34-2.01-.7-3.96-1.04-5.91-.27-1.75-.7-3.49-1.48-5.1-.64-1.24-1.04-2.65-1.54-3.96-.27-.7-.64-1.41-.84-2.08-.07-.2-.13-.5-.07-.7.27-.7,0-1.31-.27-2.01-.5-.91-.91-1.81-1.41-2.79-.13-.27-.13-.64-.13-.91,0-1.11-.34-2.15-.97-3.12-.13-.2-.27-.5-.27-.77-.2-1.61-.77-3.12-1.41-4.6-.27-.7-.5-1.41-.5-2.15-.07-1.54-.07-3.12-.7-4.6-.2-.4-.4-.91-.57-1.31-.2-.84-.5-1.61-.57-2.45-.07-3.36-.7-6.61-2.15-9.7-.13-.27-.13-.57.13-.77.7-.5,1.48-1.04,2.22-1.48.64-.34,1.11-.7,1.48-1.31.13-.27.34-.5.5-.77.13-.13.2-.34.4-.34.91-.34,1.81-.7,2.72-1.04.57-.2.84-.7.7-1.24,0-.13.13-.34.27-.4.77-.5,1.61-.97,2.38-1.48.5-.34.97-.7.91-1.48,0-.13.2-.27.34-.34.34-.2.7-.4,1.11-.64.77-.4.97-1.04.84-1.88-.13-.57-.27-1.04-.4-1.54,0-.13,0-.4.07-.5,3.12-2.79,6.08-5.84,8.43-9.33.64-.91,1.54-1.31,2.32-2.01.27-.2.77-.13,1.11-.2.84-.07,1.75-.2,2.58-.13,1.04.07,2.08.34,3.22.57.77.13,1.48.13,2.15-.2,0,0,.07,0,.07-.07,1.31-.57,1.54-.97,1.41-2.38-.27-1.95-2.08-3.63-4.03-3.69-1.81-.07-3.56-.4-5.3-.97-2.08-.7-1.95-.5-3.29,1.17-.34.4-.64.91-.91,1.41-.27.57-.5,1.11-.7,1.68-.27.64-.57,1.31-1.11,1.75-1.54,1.04-2.99,2.08-4.6,3.05-2.08,1.31-3.83,2.92-5.37,4.8-.13.2-.5.27-.7.34-.4.2-.84.34-1.17.64-.57.5-1.11.84-1.75,1.17-.77.4-1.54.97-2.22,1.61-1.31,1.24-2.79,2.15-4.46,2.85-.97.4-2.01.97-2.79,1.68-.97.84-2.15,1.41-3.22,2.08-1.54.97-3.05,2.01-4.53,3.05-.57.4-1.17.57-1.88.57-1.41-.07-2.79-.13-4.2-.13-2.52-.07-4.93.2-7.32.84-1.31.34-2.58.57-3.96.5-.57,0-1.17.13-1.75.13-.7,0-1.41-.13-2.01-.27-1.11-.2-2.32-.27-3.49-.27-.91,0-1.81.2-2.72.27-.34,0-.7,0-1.04-.13-2.38-.91-4.87-1.31-7.45-1.31-2.45-.07-4.8,0-7.25-.07-.34,0-.7-.2-1.04-.34-.13-.07-.34-.13-.5-.2-.07-.07-.2-.07-.27-.13-.34-.34-.7-.7-1.04-1.11-.2-.2-.34-.5-.64-.7-.5-.4-.97-.97-1.54-1.24-.34-.13-.91.07-1.31.2-1.04.4-2.01,1.04-3.05,1.41-.7.2-1.41.2-2.15.34-1.31.2-2.65.57-3.76,1.31-.84.57-1.41,1.24-1.75,2.15-.57,1.81.27,2.79,2.15,3.42,1.81.64,3.42-.07,5-.7.57-.2,1.11-.27,1.61-.5.7-.27,1.48-.27,2.22-.34.97-.13,1.88-.07,2.79.13.91.2,1.88.07,2.72.34,1.61.4,3.12,1.04,4.8,1.48,2.22.57,4.46,1.04,6.68,1.48,1.11.2,2.22.2,3.36.27q.77.07.84.84c0,.57.07,1.04.13,1.61,0,.57.34.84.84.91.97.13,1.88.4,2.85.13h.4c1.11.57,2.32.5,3.42.4.34,0,.57.07.64.4.07.27.27.34.57.34.64-.07,1.24-.07,1.88-.2.7-.13,1.31-.07,1.95.13,2.32.77,4.67,1.17,7.05.97.13,0,.34.13.5.27.34.5.64,1.04.97,1.54.27.4.64.84.97,1.31.77.97.64,2.08.4,3.29-.2.91-.4,1.81-.57,2.72-.07.77-.13,1.54,0,2.22.13.77.07,1.54-.07,2.22-.4,2.08-.84,4.2-1.11,6.34-.07.64.07,1.31.07,1.95v1.61c0,.84-.13,1.81.07,2.58.4,1.31.2,2.58-.07,3.83-.13.84-.4,1.68-.07,2.52.13.34-.07.77-.13,1.17-.07,1.04-.27,2.15-.27,3.22s-.13,2.15-.4,3.22c-.57,1.88-.34,3.83-.27,5.71.07,1.48.2,2.99.27,4.46,0,.57,0,1.11-.07,1.68,0,.13-.13.34-.27.4-.34.34-.77.7-1.17,1.04-.34.34-.84.57-1.31.5-.27,0-.64-.13-.64.27s.34.5.64.5c1.31,0,2.58-.07,3.83-.13.4,0,.77.07,1.17.13.57.07,1.11.13,1.68.07,1.17-.13,2.45-.34,3.63-.57.27-.07.7-.2.84-.4.34-.4.07-.91-.5-.84-1.24.07-2.45-.5-3.63-.7-.27-.07-.4-.2-.34-.57.4-2.99.57-6.01,1.31-9,.57-2.08.77-4.2.91-6.28.07-.97.2-1.88.4-2.85.27-.23.57-.67.84-1.21h0Zm11.78-8.36h0c-.4-.2-.84-.5-1.24-.77-.07-.07-.13-.13-.2-.27.13,0,.34-.07.34,0,.4.34.77.67,1.11,1.04h0Zm-10.44,10.57l-.13.07-.13-.97h.2l.07.91Z"/>
    <rect class="cls-8" x="169.83" y="504.19" width="79.11" height="44.61"/>
    <path class="cls-9" d="m281.73,532.24c-8.11.16-16.13.71-23.96,1.72-128.89,16.68-239.32,37.96-239.32,37.96h261.8"/>
    <rect class="cls-9" x="239.3" y="296.11" width="20.25" height="275.82" rx=".87" ry=".87"/>
    <rect class="cls-9" x="242.41" y="475.8" width="96.78" height="62.41" rx=".87" ry=".87"/>
    <path class="cls-6" d="m59.9,192.32s39.02,1.19,51.99.17c8.25-.65,26.46-11.71-6.21-29.42-1.42-.77-19.68-19.91-34.89-2.63-6.87,7.81-10.49,9.7-13.34,10.98-6.64,2.97-8.33,12.75-3.16,18.34h0c1.52,1.64,3.53,2.56,5.62,2.57Z"/>
    <circle class="cls-4" cx="615.33" cy="850.92" r="12.42"/>
    <circle class="cls-3" cx="19.17" cy="672.73" r="5.44"/>
    <path class="cls-3" d="m66.58,30.92s-5,1.34-10.4-9.06c-5.4-10.4-1.79-21.85-1.79-21.85,0,0,4.6,2.12,11.3,11.92,6.7,9.8,2.57,17.54,2.35,18.6s3.35,7.2,3.58,8.01-.64.93-.89.79-4.06-8.6-4.14-8.41Z"/>
    <path class="cls-3" d="m67.51,12.61c5.69,8.38.17,18.88-.07,18.52-.46-.67-6.66-9.47-9.37-20.14C55.37.32,54.39.14,54.42.02c0,0,6.97,3.58,13.09,12.59Z"/>
  </g>
</svg>