<svg xmlns="http://www.w3.org/2000/svg" width="800.003" height="618.867" viewBox="0 0 800.003 618.867" xmlns:xlink="http://www.w3.org/1999/xlink" role="img" artist="Katerina Limpitsouni" source="https://undraw.co/"><g transform="translate(-560 -231)"><path d="M15.18,488.765a1.456,1.456,0,0,0,1.308,1.575H668.472a1.6,1.6,0,0,0,0-3.15H16.488a1.456,1.456,0,0,0-1.308,1.575Z" transform="translate(621.678 359.527)" fill="#d6d6e3"/><path d="M353.105,370.945a27.478,27.478,0,0,1-54.387,0H229.146V524.776H422.677V370.945H353.105Z" transform="translate(634.09 321.942)" fill="#d6d6e3"/><path d="M789.214,487.736H10.789A10.8,10.8,0,0,1,0,476.947V32.7A10.8,10.8,0,0,1,10.789,21.911H789.214A10.8,10.8,0,0,1,800,32.7V476.947a10.8,10.8,0,0,1-10.789,10.789Z" transform="translate(560 209.089)" fill="#090814"/><rect width="761.747" height="429.819" transform="translate(580.088 249.003)" fill="#fff"/><g transform="translate(0 -19)"><g transform="translate(-7.803 26)"><path d="M428.8,364.437A38.138,38.138,0,1,1,466.937,326.3,38.138,38.138,0,0,1,428.8,364.437Zm0-73.646A35.508,35.508,0,1,0,464.307,326.3,35.508,35.508,0,0,0,428.8,290.792Z" transform="translate(289.268 16.871)" fill="#3f3d56"/><path d="M443.613,346.517a3.768,3.768,0,0,1-3.769-3.763v-21.4a3.767,3.767,0,0,1,3.762-3.763h.007a3.767,3.767,0,0,1,3.763,3.763v21.4A3.767,3.767,0,0,1,443.613,346.517Zm-9.824,0a3.779,3.779,0,0,1-3.817-3.763V331.227a3.766,3.766,0,0,1,3.762-3.762h.054a3.766,3.766,0,0,1,3.762,3.762v11.527A3.767,3.767,0,0,1,433.789,346.517Zm-9.919,0a3.768,3.768,0,0,1-3.769-3.763V309.845a3.767,3.767,0,0,1,3.762-3.763h.007a3.767,3.767,0,0,1,3.762,3.763v32.909A3.767,3.767,0,0,1,423.87,346.517Zm-9.881,0a3.762,3.762,0,0,1-3.766-3.765l0-4.943a3.762,3.762,0,1,1,7.525,0v4.942a3.767,3.767,0,0,1-3.762,3.763Z" transform="translate(289.268 16.871)" fill="#3B82F6"/></g><g transform="translate(-262 -90.536)"><path d="M631.354,223.629h-84a7,7,0,0,1,0-14h84a7,7,0,0,1,0,14Z" transform="translate(492.646 231.871)" fill="#e6e6e6"/><path d="M642.5,257.629H488.279c-3,0-5.425-3.134-5.425-7s2.429-7,5.425-7H642.5c3,0,5.425,3.134,5.425,7s-2.429,7-5.425,7Z" transform="translate(550.146 220.283)" fill="#e6e6e6"/></g></g><g transform="translate(-9.037 -19)"><g transform="translate(0 26)"><path d="M1007.342,748.437A38.138,38.138,0,1,1,1045.48,710.3,38.138,38.138,0,0,1,1007.342,748.437Zm0-73.646A35.508,35.508,0,1,0,1042.85,710.3a35.508,35.508,0,0,0-35.508-35.508Z" transform="translate(34.857 -367.129)" fill="#3f3d56"/><path d="M1017.856,703.68l-7.435,11.369a4.028,4.028,0,0,1,.919,2.575,4.091,4.091,0,0,1-8.181,0,4.816,4.816,0,0,1,.071-.785l-4.907-2.858a4.075,4.075,0,0,1-4.852.612l-5.221,4.891v4.876A3.651,3.651,0,0,0,991.883,728h30.912a3.659,3.659,0,0,0,3.643-3.643V706.279l-4.994-3.321a4.107,4.107,0,0,1-3.588.722Z" transform="translate(34.857 -367.129)" fill="#3B82F6"/><path d="M995.487,706.978a4.091,4.091,0,0,1,4.091,4.091h0v.526l5.119,2.866a4.083,4.083,0,0,1,2.591-.926,4.519,4.519,0,0,1,.887.094l7.451-11.534a4.076,4.076,0,1,1,7.4-2.356,4.333,4.333,0,0,1-.11.966l3.525,2.355v-6.823a3.659,3.659,0,0,0-3.643-3.643H991.883a3.651,3.651,0,0,0-3.635,3.643V715.78l3.408-3.266a4.083,4.083,0,0,1,3.832-5.5Z" transform="translate(34.857 -367.129)" fill="#3B82F6"/></g><g transform="translate(69.936 -90.536)"><path d="M631.354,223.629h-84a7,7,0,0,1,0-14h84a7,7,0,0,1,0,14Z" transform="translate(492.646 231.871)" fill="#e6e6e6"/><path d="M642.5,257.629H488.279c-3,0-5.425-3.134-5.425-7s2.429-7,5.425-7H642.5c3,0,5.425,3.134,5.425,7s-2.429,7-5.425,7Z" transform="translate(550.146 220.283)" fill="#e6e6e6"/></g></g><g transform="translate(0 -37.949)"><g transform="translate(0 0.086)"><path d="M414.279,391.02a36.95,36.95,0,0,0-7.332-.719,38.137,38.137,0,1,0,7.332.719Zm2.577,71.44a35.472,35.472,0,1,1-9.909-69.532c1.049,0,2.088.05,3.117.13a35.477,35.477,0,0,1,6.793,69.4Z" transform="translate(303.268 73.337)" fill="#3f3d56"/><path d="M429.166,421.709a21.368,21.368,0,0,0-25.551-16.087c-.539.123-1.1.274-1.59.426l5.091,22.371,22.371-5.082C429.393,422.816,429.289,422.248,429.166,421.709Z" transform="translate(303.23 73.32)" fill="#3B82F6"/><path d="M426.979,427.269l-22.38,5.082-5.082-22.371a21.358,21.358,0,1,0,27.443,17.289Z" transform="translate(303.25 73.315)" fill="#3B82F6"/></g><g transform="translate(-262 42.156)"><path d="M631.354,223.629h-84a7,7,0,0,1,0-14h84a7,7,0,0,1,0,14Z" transform="translate(492.646 231.871)" fill="#e6e6e6"/><path d="M642.5,257.629H488.279c-3,0-5.425-3.134-5.425-7s2.429-7,5.425-7H642.5c3,0,5.425,3.134,5.425,7s-2.429,7-5.425,7Z" transform="translate(550.146 220.283)" fill="#e6e6e6"/></g></g><g transform="translate(-9.037 -38.138)"><g transform="translate(162.066 158.691)"><path d="M590.867,364.437A38.138,38.138,0,1,1,629,326.3,38.138,38.138,0,0,1,590.867,364.437Zm0-73.646A35.508,35.508,0,1,0,626.375,326.3a35.508,35.508,0,0,0-35.508-35.508Z" transform="translate(289.268 16.871)" fill="#3f3d56"/><path d="M570.6,340.124a2.773,2.773,0,0,1-1.963-4.731l14.092-14.131a2.351,2.351,0,0,1,1.675-.7h0a2.352,2.352,0,0,1,1.675.693l6.535,6.535a1.411,1.411,0,0,0,1.005.416h0a1.41,1.41,0,0,0,1-.417l9.227-9.243a.473.473,0,0,0,0-.67l-2.985-2.98a1.421,1.421,0,0,1,1-2.427h10.6A1.423,1.423,0,0,1,613.9,313.9v10.6a1.421,1.421,0,0,1-2.426,1.005l-2.99-2.99a.473.473,0,0,0-.67,0L595.32,334.994a2.352,2.352,0,0,1-1.674.693h0a2.353,2.353,0,0,1-1.675-.694l-6.539-6.539a1.456,1.456,0,0,0-2.01,0l-10.857,10.857A2.754,2.754,0,0,1,570.6,340.124Z" transform="translate(289.268 16.871)" fill="#3B82F6"/></g><g transform="translate(69.936 42.156)"><path d="M631.354,223.629h-84a7,7,0,0,1,0-14h84a7,7,0,0,1,0,14Z" transform="translate(492.646 231.871)" fill="#e6e6e6"/><path d="M642.5,257.629H488.279c-3,0-5.425-3.134-5.425-7s2.429-7,5.425-7H642.5c3,0,5.425,3.134,5.425,7s-2.429,7-5.425,7Z" transform="translate(550.146 220.283)" fill="#e6e6e6"/></g></g><circle cx="6.208" cy="6.208" r="6.208" transform="translate(724.76 583.021)" fill="#3B82F6"/><g transform="translate(-10.02 3.607)"><path d="M1149.574,474.911v83.449H554.21V514.423c4.123-1.889,8.27-3.769,12.455-5.588,17.873-7.8,37-15.1,57.855-17.809a121.944,121.944,0,0,1,29.868-.266c10.462,1.233,20.476,3.8,30.391,6.386,9.777,2.554,19.58,5.188,29.806,6.67a121.815,121.815,0,0,0,30.229.426c19.144-2.049,37.129-7.539,55.04-12.505,18.023-4.993,36.594-9.712,56.1-10.333,19.256-.621,38.275,2.625,56.547,6.652,37.254,8.2,75.292,20.372,114.739,12.026,40.056-8.461,76.9-32.887,121.29-25.641a1.845,1.845,0,0,1,1.046.47Z" transform="translate(117.828 66.884)" fill="#f2f2f2"/><path d="M1149.49,476.366a2.121,2.121,0,0,1-2.038.639,92.072,92.072,0,0,0-16.127-1.189c-43.649.55-77.209,25.632-119.889,29.383-38.48,3.379-74.7-9.978-110.881-16.958-18.8-3.628-38.182-5.552-57.528-3.086-19.2,2.439-37.213,8.044-55.3,13.02-17.42,4.789-35.523,9.242-54.384,9.463-20.737.248-39.412-5.854-58.646-10.5-10-2.421-20.265-4.337-30.864-4.523a128.128,128.128,0,0,0-30.417,3.361c-20.439,4.639-38.853,12.9-56.782,21.117a2.09,2.09,0,0,1-1.056.2,1.812,1.812,0,0,1-1.619-1.049,1.226,1.226,0,0,1,.8-1.453l.82-.372c4.113-1.889,8.25-3.769,12.425-5.588,17.83-7.8,36.915-15.1,57.714-17.809a121.348,121.348,0,0,1,29.8-.266c10.437,1.233,20.427,3.8,30.317,6.386,9.754,2.554,19.532,5.188,29.733,6.67a121.219,121.219,0,0,0,30.156.426c19.1-2.049,37.039-7.539,54.906-12.505,17.979-4.993,36.5-9.712,55.962-10.333,19.209-.621,38.182,2.625,56.41,6.652,37.163,8.2,75.109,20.372,114.459,12.027,39.959-8.461,76.712-32.887,120.995-25.641a1.838,1.838,0,0,1,1.044.47A1.047,1.047,0,0,1,1149.49,476.366Z" transform="translate(118.223 97.387)" fill="#3B82F6"/><circle cx="6.208" cy="6.208" r="6.208" transform="translate(968.313 575.039)" fill="#3B82F6"/><circle cx="6.208" cy="6.208" r="6.208" transform="translate(1243.85 567.057)" fill="#3B82F6"/></g></g></svg>