<svg xmlns="http://www.w3.org/2000/svg" width="320.457" height="277.006" viewBox="0 0 320.457 277.006">
  <g id="Metrics-rafiki" transform="translate(-48.71 -84.955)">
    <g id="freepik--background-simple--inject-3" transform="translate(48.71 84.955)">
      <path id="Tracé_529" data-name="Tracé 529" d="M154.143,102.587C133.1,84.555,91.8,75.947,66.892,98.465c-16.526,14.972-21.86,44.505-15.7,70.923C60.409,208.923,84,246.271,116.185,278.047c27.5,27.155,91.943,59.866,146.348,49.895,63.932-11.715,88.772-42.048,99.267-86.3,9.4-39.48,5.16-74.505-12.682-87.631-26.893-19.744-101.113,12.143-133.381,3.67C195.771,152.466,169.837,116.045,154.143,102.587Z" transform="translate(-48.71 -84.955)" fill="#191558"/>
      <path id="Tracé_530" data-name="Tracé 530" d="M154.143,102.587C133.1,84.555,91.8,75.947,66.892,98.465c-16.526,14.972-21.86,44.505-15.7,70.923C60.409,208.923,84,246.271,116.185,278.047c27.5,27.155,91.943,59.866,146.348,49.895,63.932-11.715,88.772-42.048,99.267-86.3,9.4-39.48,5.16-74.505-12.682-87.631-26.893-19.744-101.113,12.143-133.381,3.67C195.771,152.466,169.837,116.045,154.143,102.587Z" transform="translate(-48.71 -84.955)" fill="#f0f0f8" opacity="0.9"/>
    </g>
    <g id="freepik--Shadow--inject-3" transform="translate(50.755 335.511)">
      <ellipse id="freepik--path--inject-3" cx="153.679" cy="8.972" rx="153.679" ry="8.972" fill="#f5f5f5"/>
    </g>
    <g id="freepik--Metrics--inject-3" transform="translate(125.371 104.75)">
      <path id="Tracé_531" data-name="Tracé 531" d="M278.908,401.728l14.838-14.838,14.838,14.838a2.029,2.029,0,0,0,1.443.594h0a2.037,2.037,0,0,0,1.435-3.48L293.746,381.12l-17.723,17.723a2.037,2.037,0,0,0,1.443,3.48h0a2.045,2.045,0,0,0,1.443-.594Z" transform="translate(-172.389 -166.172)" fill="#191558"/>
      <path id="Tracé_532" data-name="Tracé 532" d="M297.718,381.76h-1.007L292.17,386.3v5.556h.214l4.835-4.835,4.835,4.835h.214V386.3Z" transform="translate(-175.862 -166.304)" opacity="0.2"/>
      <path id="Tracé_533" data-name="Tracé 533" d="M294.71,341.71h6.071v50.061a2.378,2.378,0,0,1-2.378,2.378h-1.316a2.378,2.378,0,0,1-2.378-2.378Z" transform="translate(-176.389 -157.999)" fill="#191558"/>
      <rect id="Rectangle_189" data-name="Rectangle 189" width="6.071" height="3.678" transform="translate(118.321 183.711)" opacity="0.2"/>
      <path id="Tracé_534" data-name="Tracé 534" d="M376.216,295.449H160.1a8.061,8.061,0,0,1-8.045-8.053V112.07h232.2V287.4A8.061,8.061,0,0,1,376.216,295.449ZM154.761,114.789V287.4a5.342,5.342,0,0,0,5.334,5.334H376.216a5.342,5.342,0,0,0,5.334-5.334V114.789Z" transform="translate(-146.803 -110.374)" fill="#191558"/>
      <g id="Groupe_22" data-name="Groupe 22" transform="translate(5.247 1.696)" opacity="0.8">
        <path id="Tracé_535" data-name="Tracé 535" d="M376.216,295.449H160.1a8.061,8.061,0,0,1-8.045-8.053V112.07h232.2V287.4A8.061,8.061,0,0,1,376.216,295.449ZM154.761,114.789V287.4a5.342,5.342,0,0,0,5.334,5.334H376.216a5.342,5.342,0,0,0,5.334-5.334V114.789Z" transform="translate(-152.05 -112.07)" fill="#fff"/>
      </g>
      <g id="Groupe_23" data-name="Groupe 23" transform="translate(7.958 4.415)" opacity="0.8">
        <path id="Tracé_536" data-name="Tracé 536" d="M155.47,115.5V288.107a5.342,5.342,0,0,0,5.334,5.334H376.926a5.342,5.342,0,0,0,5.334-5.334V115.5Z" transform="translate(-155.47 -115.5)" fill="#fff"/>
      </g>
      <rect id="Rectangle_190" data-name="Rectangle 190" width="242.713" height="6.119" fill="#191558"/>
      <rect id="Rectangle_191" data-name="Rectangle 191" width="242.713" height="6.119" fill="#fff" opacity="0.5"/>
      <rect id="Rectangle_192" data-name="Rectangle 192" width="242.713" height="3.059" fill="#fff" opacity="0.5"/>
      <path id="Tracé_537" data-name="Tracé 537" d="M332.208,291.94v-1.157h-8.877V281.81h-1.149v8.972h-8.568V281.81h-1.157v8.972h-8.394V281.81h-1.157v8.972h-8.322V281.81h-1.149v8.972h-8.544V281.81H283.7v8.972h-8.79v1.157h8.79v8.394h-8.79v1.157h8.79v8.394h-8.79v1.157h8.79v8.965h1.157v-8.964H293.4v8.964h1.149v-8.964h8.322v8.964h1.157v-8.964h8.394v8.964h1.157v-8.964h8.544v8.964h1.2v-8.964h8.877v-1.157h-8.877v-8.394h8.877v-1.157h-8.877V291.94Zm-19.752,0v8.394h-8.394V291.94Zm-9.511,0v8.394h-8.322V291.94Zm-18.016,0h8.544v8.394h-8.584Zm0,17.945v-8.394h8.544v8.394Zm9.694,0v-8.394h8.322v8.394Zm9.511,0v-8.394h8.394v8.394Zm18.1,0h-8.616v-8.394h8.544Zm0-9.551h-8.616V291.94h8.544Z" transform="translate(-172.283 -145.576)" fill="#191558"/>
      <path id="Tracé_538" data-name="Tracé 538" d="M332.208,291.94v-1.157h-8.877V281.81h-1.149v8.972h-8.568V281.81h-1.157v8.972h-8.394V281.81h-1.157v8.972h-8.322V281.81h-1.149v8.972h-8.544V281.81H283.7v8.972h-8.79v1.157h8.79v8.394h-8.79v1.157h8.79v8.394h-8.79v1.157h8.79v8.965h1.157v-8.964H293.4v8.964h1.149v-8.964h8.322v8.964h1.157v-8.964h8.394v8.964h1.157v-8.964h8.544v8.964h1.2v-8.964h8.877v-1.157h-8.877v-8.394h8.877v-1.157h-8.877V291.94Zm-19.752,0v8.394h-8.394V291.94Zm-9.511,0v8.394h-8.322V291.94Zm-18.016,0h8.544v8.394h-8.584Zm0,17.945v-8.394h8.544v8.394Zm9.694,0v-8.394h8.322v8.394Zm9.511,0v-8.394h8.394v8.394Zm18.1,0h-8.616v-8.394h8.544Zm0-9.551h-8.616V291.94h8.544Z" transform="translate(-172.283 -145.576)" fill="#fff" opacity="0.7"/>
      <path id="Tracé_539" data-name="Tracé 539" d="M328.955,320.86h-51.52a4.066,4.066,0,0,1-4.058-4.042l-.127-32.386a4.058,4.058,0,0,1,4.058-4.082h51.623A4.066,4.066,0,0,1,333,284.416V316.8A4.066,4.066,0,0,1,328.955,320.86Zm-51.623-38.2a1.76,1.76,0,0,0-1.752,1.76l.127,32.386a1.76,1.76,0,0,0,1.752,1.744h51.52a1.76,1.76,0,0,0,1.76-1.752V284.416a1.76,1.76,0,0,0-1.76-1.752Z" transform="translate(-171.938 -145.273)" fill="#191558"/>
      <g id="Groupe_24" data-name="Groupe 24" transform="translate(101.312 135.077)" opacity="0.8">
        <path id="Tracé_540" data-name="Tracé 540" d="M328.955,320.86h-51.52a4.066,4.066,0,0,1-4.058-4.042l-.127-32.386a4.058,4.058,0,0,1,4.058-4.082h51.623A4.066,4.066,0,0,1,333,284.416V316.8A4.066,4.066,0,0,1,328.955,320.86Zm-51.623-38.2a1.76,1.76,0,0,0-1.752,1.76l.127,32.386a1.76,1.76,0,0,0,1.752,1.744h51.52a1.76,1.76,0,0,0,1.76-1.752V284.416a1.76,1.76,0,0,0-1.76-1.752Z" transform="translate(-273.25 -280.35)" fill="#fff"/>
      </g>
      <path id="Tracé_541" data-name="Tracé 541" d="M323.012,301.342V296.57H276.24l.016,4.772Z" transform="translate(-172.558 -148.637)" fill="#191558"/>
      <path id="Tracé_542" data-name="Tracé 542" d="M323.012,301.342V296.57H276.24l.016,4.772Z" transform="translate(-172.558 -148.637)" fill="#fff" opacity="0.6"/>
      <path id="Tracé_543" data-name="Tracé 543" d="M313.292,284.82H276.277a1.955,1.955,0,0,0-.087.531V289.6h37.1Z" transform="translate(-172.548 -146.2)" fill="#191558"/>
      <path id="Tracé_544" data-name="Tracé 544" d="M313.292,284.82H276.277a1.955,1.955,0,0,0-.087.531V289.6h37.1Z" transform="translate(-172.548 -146.2)" fill="#fff" opacity="0.3"/>
      <path id="Tracé_545" data-name="Tracé 545" d="M327.889,321H276.33v4.264a1.792,1.792,0,0,0,.087.507h51.456Z" transform="translate(-172.577 -153.704)" fill="#191558"/>
      <path id="Tracé_546" data-name="Tracé 546" d="M327.889,321H276.33v4.264a1.792,1.792,0,0,0,.087.507h51.456Z" transform="translate(-172.577 -153.704)" opacity="0.2"/>
      <path id="Tracé_547" data-name="Tracé 547" d="M303.768,313.692V308.92H276.28l.024,4.772Z" transform="translate(-172.567 -151.198)" fill="#191558"/>
      <path id="Tracé_548" data-name="Tracé 548" d="M375.645,144.433v-1.149H357.122V124.76h-1.149v18.523H338.02V124.76h-1.149v18.523H318.926V124.76h-1.157v18.523H299.856V124.76h-1.189v18.523H280.722V124.76h-1.157v18.523H261.62V124.76h-1.157v18.523H242.518V124.76h-1.157v18.523H223.416V124.76h-1.149v18.523H204.322V124.76h-1.165v18.523H185.221V124.76h-1.157v18.523H165.54v1.149h18.523v17.945H165.54v1.157h18.523v17.945H165.54v1.157h18.523v17.945H165.54v1.157h18.523v17.945H165.54v1.173h18.523V239.38h1.157V220.856h17.937V239.38h1.157V220.856h17.945V239.38h1.149V220.856h17.953V239.38h1.157V220.856h17.945V239.38h1.157V220.856h17.945V239.38h1.157V220.856h17.945V239.38h1.189V220.856h17.913V239.38h1.157V220.856h17.945V239.38h1.149V220.856h17.953V239.38h1.149V220.856h18.523V219.7H357.122V201.738h18.523v-1.157H357.122V182.636h18.523v-1.157H357.122V163.535h18.523v-1.157H357.122V144.433Zm-38.775,0v17.945H318.926V144.433Zm-38.2,37.047H280.722V163.535h17.945Zm1.189-17.945h17.913v17.945H299.856Zm-20.291,17.945H261.62V163.535h17.945Zm-19.1,0H242.518V163.535h17.945Zm-19.1,0H223.416V163.535h17.945Zm-19.094,0H204.322V163.535h17.945Zm0,1.157v17.945H204.322V182.636Zm1.149,0h17.945v17.945H223.416Zm19.1,0h17.945v17.945H242.518Zm19.1,0h17.945v17.945H261.62Zm19.1,0h17.945v17.945H280.722Zm19.1,0h17.945v17.945H299.856Zm19.1,0h17.945v17.945H318.926Zm0-1.157V163.535h17.945v17.945Zm-1.157-37.047v17.945H299.856V144.433Zm-19.1,0v17.945H280.722V144.433Zm-19.1,0v17.945H261.62V144.433Zm-19.1,0v17.945H242.518V144.433Zm-19.1,0v17.945H223.416V144.433Zm-19.094,0v17.945H204.322V144.433Zm-37.047,0h17.937v17.945H185.221Zm0,19.1h17.937v17.945H185.221Zm0,19.1h17.937v17.945H185.221Zm0,37.047V201.738h17.937v17.945Zm19.1,0V201.738h17.945v17.945Zm19.094,0V201.738h17.945v17.945Zm19.1,0V201.738h17.945v17.945Zm19.1,0V201.738h17.945v17.945Zm19.1,0V201.738h17.945v17.945Zm19.1,0V201.738h17.945v17.945Zm19.1,0V201.738h17.945v17.945Zm37.047,0H338.02V201.738h17.953Zm0-19.1H338.02V182.636h17.953Zm0-19.1H338.02V163.535h17.953Zm0-19.1H338.02V144.433h17.953Z" transform="translate(-149.601 -113.006)" fill="#191558"/>
      <path id="Tracé_549" data-name="Tracé 549" d="M375.645,144.433v-1.149H357.122V124.76h-1.149v18.523H338.02V124.76h-1.149v18.523H318.926V124.76h-1.157v18.523H299.856V124.76h-1.189v18.523H280.722V124.76h-1.157v18.523H261.62V124.76h-1.157v18.523H242.518V124.76h-1.157v18.523H223.416V124.76h-1.149v18.523H204.322V124.76h-1.165v18.523H185.221V124.76h-1.157v18.523H165.54v1.149h18.523v17.945H165.54v1.157h18.523v17.945H165.54v1.157h18.523v17.945H165.54v1.157h18.523v17.945H165.54v1.173h18.523V239.38h1.157V220.856h17.937V239.38h1.157V220.856h17.945V239.38h1.149V220.856h17.953V239.38h1.157V220.856h17.945V239.38h1.157V220.856h17.945V239.38h1.157V220.856h17.945V239.38h1.189V220.856h17.913V239.38h1.157V220.856h17.945V239.38h1.149V220.856h17.953V239.38h1.149V220.856h18.523V219.7H357.122V201.738h18.523v-1.157H357.122V182.636h18.523v-1.157H357.122V163.535h18.523v-1.157H357.122V144.433Zm-38.775,0v17.945H318.926V144.433Zm-38.2,37.047H280.722V163.535h17.945Zm1.189-17.945h17.913v17.945H299.856Zm-20.291,17.945H261.62V163.535h17.945Zm-19.1,0H242.518V163.535h17.945Zm-19.1,0H223.416V163.535h17.945Zm-19.094,0H204.322V163.535h17.945Zm0,1.157v17.945H204.322V182.636Zm1.149,0h17.945v17.945H223.416Zm19.1,0h17.945v17.945H242.518Zm19.1,0h17.945v17.945H261.62Zm19.1,0h17.945v17.945H280.722Zm19.1,0h17.945v17.945H299.856Zm19.1,0h17.945v17.945H318.926Zm0-1.157V163.535h17.945v17.945Zm-1.157-37.047v17.945H299.856V144.433Zm-19.1,0v17.945H280.722V144.433Zm-19.1,0v17.945H261.62V144.433Zm-19.1,0v17.945H242.518V144.433Zm-19.1,0v17.945H223.416V144.433Zm-19.094,0v17.945H204.322V144.433Zm-37.047,0h17.937v17.945H185.221Zm0,19.1h17.937v17.945H185.221Zm0,19.1h17.937v17.945H185.221Zm0,37.047V201.738h17.937v17.945Zm19.1,0V201.738h17.945v17.945Zm19.094,0V201.738h17.945v17.945Zm19.1,0V201.738h17.945v17.945Zm19.1,0V201.738h17.945v17.945Zm19.1,0V201.738h17.945v17.945Zm19.1,0V201.738h17.945v17.945Zm19.1,0V201.738h17.945v17.945Zm37.047,0H338.02V201.738h17.953Zm0-19.1H338.02V182.636h17.953Zm0-19.1H338.02V163.535h17.953Zm0-19.1H338.02V144.433h17.953Z" transform="translate(-149.601 -113.006)" fill="#fff" opacity="0.7"/>
      <path id="Tracé_550" data-name="Tracé 550" d="M372.331,240.208H168.249a4.169,4.169,0,0,1-4.169-4.161V127.459a4.177,4.177,0,0,1,4.169-4.169H372.331a4.177,4.177,0,0,1,4.169,4.169V236.047a4.169,4.169,0,0,1-4.169,4.161ZM168.249,125.6a1.863,1.863,0,0,0-1.855,1.863V236.055a1.839,1.839,0,0,0,.539,1.308,1.871,1.871,0,0,0,1.316.547H372.331a1.855,1.855,0,0,0,1.855-1.855V127.467a1.863,1.863,0,0,0-1.855-1.863Z" transform="translate(-149.298 -112.701)" fill="#191558"/>
      <g id="Groupe_25" data-name="Groupe 25" transform="translate(14.782 10.589)" opacity="0.8">
        <path id="Tracé_551" data-name="Tracé 551" d="M372.331,240.208H168.249a4.169,4.169,0,0,1-4.169-4.161V127.459a4.177,4.177,0,0,1,4.169-4.169H372.331a4.177,4.177,0,0,1,4.169,4.169V236.047a4.169,4.169,0,0,1-4.169,4.161ZM168.249,125.6a1.863,1.863,0,0,0-1.855,1.863V236.055a1.839,1.839,0,0,0,.539,1.308,1.871,1.871,0,0,0,1.316.547H372.331a1.855,1.855,0,0,0,1.855-1.855V127.467a1.863,1.863,0,0,0-1.855-1.863Z" transform="translate(-164.08 -123.29)" fill="#fff"/>
      </g>
      <rect id="Rectangle_193" data-name="Rectangle 193" width="11.461" height="50.418" transform="translate(57.964 74.783)" fill="#191558"/>
      <rect id="Rectangle_194" data-name="Rectangle 194" width="11.461" height="67.61" transform="translate(77.058 57.591)" fill="#191558"/>
      <rect id="Rectangle_195" data-name="Rectangle 195" width="11.461" height="67.61" transform="translate(77.058 57.591)" fill="#fff" opacity="0.6"/>
      <rect id="Rectangle_196" data-name="Rectangle 196" width="11.461" height="50.418" transform="translate(96.16 74.783)" fill="#191558"/>
      <rect id="Rectangle_197" data-name="Rectangle 197" width="11.461" height="50.418" transform="translate(96.16 74.783)" fill="#fff" opacity="0.3"/>
      <rect id="Rectangle_198" data-name="Rectangle 198" width="11.461" height="33.226" transform="translate(19.76 91.975)" fill="#191558"/>
      <rect id="Rectangle_199" data-name="Rectangle 199" width="11.461" height="33.226" transform="translate(19.76 91.975)" fill="#fff" opacity="0.6"/>
      <rect id="Rectangle_200" data-name="Rectangle 200" width="11.461" height="41.525" transform="translate(38.862 83.676)" fill="#191558"/>
      <rect id="Rectangle_201" data-name="Rectangle 201" width="11.461" height="41.525" transform="translate(38.862 83.676)" fill="#fff" opacity="0.3"/>
      <rect id="Rectangle_202" data-name="Rectangle 202" width="11.461" height="33.226" transform="translate(115.262 91.975)" fill="#191558"/>
      <rect id="Rectangle_203" data-name="Rectangle 203" width="11.461" height="84.801" transform="translate(210.763 40.399)" fill="#191558"/>
      <rect id="Rectangle_204" data-name="Rectangle 204" width="11.461" height="84.801" transform="translate(210.763 40.399)" fill="#fff" opacity="0.3"/>
      <rect id="Rectangle_205" data-name="Rectangle 205" width="11.461" height="50.418" transform="translate(134.363 74.783)" fill="#191558"/>
      <rect id="Rectangle_206" data-name="Rectangle 206" width="11.461" height="50.418" transform="translate(134.363 74.783)" fill="#fff" opacity="0.6"/>
      <rect id="Rectangle_207" data-name="Rectangle 207" width="11.461" height="67.61" transform="translate(191.669 57.591)" fill="#191558"/>
      <rect id="Rectangle_208" data-name="Rectangle 208" width="11.461" height="67.61" transform="translate(191.669 57.591)" fill="#fff" opacity="0.6"/>
      <rect id="Rectangle_209" data-name="Rectangle 209" width="11.461" height="58.717" transform="translate(172.567 66.484)" fill="#191558"/>
      <rect id="Rectangle_210" data-name="Rectangle 210" width="11.461" height="41.525" transform="translate(153.465 83.676)" fill="#191558"/>
      <rect id="Rectangle_211" data-name="Rectangle 211" width="11.461" height="41.525" transform="translate(153.465 83.676)" fill="#fff" opacity="0.3"/>
      <path id="Tracé_552" data-name="Tracé 552" d="M396.74,281.86v4.756a14.267,14.267,0,0,1,8.132,3.392l3.384-3.384A19.023,19.023,0,0,0,396.74,281.86Z" transform="translate(-197.549 -145.586)" fill="#191558"/>
      <path id="Tracé_553" data-name="Tracé 553" d="M396.74,281.86v4.756a14.267,14.267,0,0,1,8.132,3.392l3.384-3.384A19.023,19.023,0,0,0,396.74,281.86Z" transform="translate(-197.549 -145.586)" fill="#fff" opacity="0.3"/>
      <path id="Tracé_554" data-name="Tracé 554" d="M389.151,320.486a14.338,14.338,0,0,1-13.126-13.126H371.27a19.11,19.11,0,0,0,17.913,17.913Z" transform="translate(-192.267 -150.875)" fill="#191558"/>
      <path id="Tracé_555" data-name="Tracé 555" d="M389.151,320.486a14.338,14.338,0,0,1-13.126-13.126H371.27a19.11,19.11,0,0,0,17.913,17.913Z" transform="translate(-192.267 -150.875)" fill="#fff" opacity="0.7"/>
      <path id="Tracé_556" data-name="Tracé 556" d="M376.017,299.773a14.322,14.322,0,0,1,13.126-13.118V281.9a19.094,19.094,0,0,0-17.913,17.905Z" transform="translate(-192.258 -145.595)" fill="#191558"/>
      <path id="Tracé_557" data-name="Tracé 557" d="M376.017,299.773a14.322,14.322,0,0,1,13.126-13.118V281.9a19.094,19.094,0,0,0-17.913,17.905Z" transform="translate(-192.258 -145.595)" opacity="0.2"/>
      <path id="Tracé_558" data-name="Tracé 558" d="M409.882,289.928l-3.384,3.384a14.322,14.322,0,0,1-9.757,23.556v4.756a19.1,19.1,0,0,0,13.142-31.7Z" transform="translate(-197.549 -147.258)" fill="#191558"/>
      <path id="Tracé_559" data-name="Tracé 559" d="M235.726,291.94v-1.157h-8.9V281.81h-1.181v8.972h-8.521V281.81h-1.149v8.972H207.58V281.81h-1.157v8.972H198.1V281.81h-1.157v8.972h-8.552V281.81h-1.157v8.972H178.42v1.157h8.83v8.394h-8.83v1.157h8.83v8.394h-8.83v1.157h8.83v8.965h1.141v-8.964h8.536v8.964h1.157v-8.964h8.322v8.964h1.157v-8.964h8.41v8.964h1.149v-8.964h8.521v8.964H226.8v-8.964h8.9v-1.157h-8.877v-8.394h8.9v-1.157h-8.9V291.94Zm-19.752,0v8.394H207.58V291.94Zm-9.551,0v8.394H198.1V291.94Zm-18.016,0h8.536v8.394h-8.552Zm0,17.945v-8.394h8.536v8.394Zm9.694,0v-8.394h8.322v8.394Zm9.511,0v-8.394h8.362v8.394Zm18.087,0h-8.576v-8.394h8.521Zm0-9.551h-8.576V291.94h8.521Z" transform="translate(-152.272 -145.576)" fill="#191558"/>
      <path id="Tracé_560" data-name="Tracé 560" d="M235.726,291.94v-1.157h-8.9V281.81h-1.181v8.972h-8.521V281.81h-1.149v8.972H207.58V281.81h-1.157v8.972H198.1V281.81h-1.157v8.972h-8.552V281.81h-1.157v8.972H178.42v1.157h8.83v8.394h-8.83v1.157h8.83v8.394h-8.83v1.157h8.83v8.965h1.141v-8.964h8.536v8.964h1.157v-8.964h8.322v8.964h1.157v-8.964h8.41v8.964h1.149v-8.964h8.521v8.964H226.8v-8.964h8.9v-1.157h-8.877v-8.394h8.9v-1.157h-8.9V291.94Zm-19.752,0v8.394H207.58V291.94Zm-9.551,0v8.394H198.1V291.94Zm-18.016,0h8.536v8.394h-8.552Zm0,17.945v-8.394h8.536v8.394Zm9.694,0v-8.394h8.322v8.394Zm9.511,0v-8.394h8.362v8.394Zm18.087,0h-8.576v-8.394h8.521Zm0-9.551h-8.576V291.94h8.521Z" transform="translate(-152.272 -145.576)" fill="#fff" opacity="0.7"/>
      <path id="Tracé_561" data-name="Tracé 561" d="M232.437,320.86H180.846a4.066,4.066,0,0,1-4.066-4.066V284.416a4.066,4.066,0,0,1,4.066-4.066h51.591a4.066,4.066,0,0,1,4.066,4.066v32.378a4.066,4.066,0,0,1-4.066,4.066Zm-51.623-38.2a1.76,1.76,0,0,0-1.76,1.752v32.378a1.768,1.768,0,0,0,1.76,1.76h51.623a1.767,1.767,0,0,0,1.76-1.76V284.416a1.76,1.76,0,0,0-1.76-1.752Z" transform="translate(-151.932 -145.273)" fill="#191558"/>
      <g id="Groupe_26" data-name="Groupe 26" transform="translate(24.848 135.077)" opacity="0.8">
        <path id="Tracé_562" data-name="Tracé 562" d="M232.437,320.86H180.846a4.066,4.066,0,0,1-4.066-4.066V284.416a4.066,4.066,0,0,1,4.066-4.066h51.591a4.066,4.066,0,0,1,4.066,4.066v32.378a4.066,4.066,0,0,1-4.066,4.066Zm-51.623-38.2a1.76,1.76,0,0,0-1.76,1.752v32.378a1.768,1.768,0,0,0,1.76,1.76h51.623a1.767,1.767,0,0,0,1.76-1.76V284.416a1.76,1.76,0,0,0-1.76-1.752Z" transform="translate(-176.78 -280.35)" fill="#fff"/>
      </g>
      <path id="Tracé_563" data-name="Tracé 563" d="M227.183,290.43h-5.168l-5.168,5.168-9.717,4.867H196.945l-10.027,10.026H179.69v1.728h7.95l10.027-10.027h9.876l10.336-5.168,4.859-4.859H227.6l7.237-3.614V286.61Z" transform="translate(-152.535 -146.571)" fill="#191558"/>
      <g id="Groupe_27" data-name="Groupe 27" transform="translate(27.155 140.039)" opacity="0.6">
        <path id="Tracé_564" data-name="Tracé 564" d="M227.183,290.43h-5.168l-5.168,5.168-9.717,4.867H196.945l-10.027,10.026H179.69v1.728h7.95l10.027-10.027h9.876l10.336-5.168,4.859-4.859H227.6l7.237-3.614V286.61Z" transform="translate(-179.69 -286.61)" fill="#fff"/>
      </g>
      <path id="Tracé_565" data-name="Tracé 565" d="M226.874,302.2l-19.744,9.876H197.1l-10.027,5.009H179.69v1.736h7.791l10.034-5.017h10.027L227.9,303.627l6.927-6.927V294.25Z" transform="translate(-152.535 -148.156)" fill="#191558"/>
      <path id="Tracé_566" data-name="Tracé 566" d="M227.183,297.76l-10.027,5.017H207.13L197.1,307.787H179.69v1.736h17.826l10.027-5.017h10.027L227.6,299.5h7.237V297.76Z" transform="translate(-152.535 -148.884)" fill="#191558"/>
      <g id="Groupe_28" data-name="Groupe 28" transform="translate(27.155 148.876)" opacity="0.3">
        <path id="Tracé_567" data-name="Tracé 567" d="M227.183,297.76l-10.027,5.017H207.13L197.1,307.787H179.69v1.736h17.826l10.027-5.017h10.027L227.6,299.5h7.237V297.76Z" transform="translate(-179.69 -297.76)" fill="#fff"/>
      </g>
    </g>
    <g id="freepik--Projector--inject-3" transform="translate(127.916 266.802)">
      <rect id="Rectangle_212" data-name="Rectangle 212" width="98.316" height="6.801" rx="2.83" transform="translate(0 21.137)" fill="#191558"/>
      <rect id="Rectangle_213" data-name="Rectangle 213" width="98.316" height="6.801" rx="2.83" transform="translate(0 21.137)" fill="#fff" opacity="0.6"/>
      <rect id="Rectangle_214" data-name="Rectangle 214" width="68.775" height="11.144" transform="translate(14.774 27.937)" fill="#191558"/>
      <rect id="Rectangle_215" data-name="Rectangle 215" width="68.775" height="11.144" transform="translate(14.774 27.937)" fill="#fff" opacity="0.3"/>
      <rect id="Rectangle_216" data-name="Rectangle 216" width="68.775" height="5.572" transform="translate(14.774 73.132)" fill="#191558"/>
      <rect id="Rectangle_217" data-name="Rectangle 217" width="68.775" height="5.572" transform="translate(14.774 73.132)" fill="#fff" opacity="0.3"/>
      <path id="Tracé_568" data-name="Tracé 568" d="M206.21,349.63h7.062v65.287a1.934,1.934,0,0,1-1.934,1.934H208.96a2.719,2.719,0,0,1-2.719-2.719v-64.5Z" transform="translate(-160.579 -321.693)" fill="#263238"/>
      <path id="Tracé_569" data-name="Tracé 569" d="M162.83,349.63h7.062v65.287a1.934,1.934,0,0,1-1.934,1.934H165.58a2.719,2.719,0,0,1-2.719-2.719v-64.5Z" transform="translate(-151.583 -321.693)" fill="#263238"/>
      <path id="Tracé_570" data-name="Tracé 570" d="M249.6,349.63h7.062v65.287a1.934,1.934,0,0,1-1.934,1.934H252.35a2.719,2.719,0,0,1-2.75-2.727Z" transform="translate(-169.578 -321.693)" fill="#263238"/>
      <path id="Tracé_571" data-name="Tracé 571" d="M176.65,337.21h3.725v1.712a1.427,1.427,0,0,1-1.427,1.427h-.872a1.427,1.427,0,0,1-1.427-1.427V337.21Z" transform="translate(-154.449 -319.117)" fill="#263238"/>
      <path id="Tracé_572" data-name="Tracé 572" d="M209.14,337.21h3.725v1.712a1.427,1.427,0,0,1-1.427,1.427h-.872a1.427,1.427,0,0,1-1.427-1.427V337.21Z" transform="translate(-161.187 -319.117)" fill="#263238"/>
      <path id="Tracé_573" data-name="Tracé 573" d="M231.66,332.25h3.725v5.643a1.427,1.427,0,0,1-1.427,1.427h-.872a1.427,1.427,0,0,1-1.427-1.427V332.25Z" transform="translate(-165.857 -318.088)" fill="#263238"/>
      <path id="Tracé_574" data-name="Tracé 574" d="M192.92,332.25h3.725v5.643a1.427,1.427,0,0,1-1.427,1.427h-.872a1.427,1.427,0,0,1-1.427-1.427V332.25Z" transform="translate(-157.823 -318.088)" fill="#263238"/>
      <circle id="Ellipse_10" data-name="Ellipse 10" cx="6.816" cy="6.816" r="6.816" transform="translate(51.028 0.251)" fill="#191558"/>
      <circle id="Ellipse_11" data-name="Ellipse 11" cx="6.816" cy="6.816" r="6.816" transform="translate(51.028 0.251)" fill="#fff" opacity="0.5"/>
      <circle id="Ellipse_12" data-name="Ellipse 12" cx="6.048" cy="6.048" r="6.048" transform="translate(47.817 8.553) rotate(-45)" fill="#191558"/>
      <circle id="Ellipse_13" data-name="Ellipse 13" cx="6.048" cy="6.048" r="6.048" transform="translate(47.817 8.553) rotate(-45)" fill="#fff" opacity="0.2"/>
      <path id="Tracé_575" data-name="Tracé 575" d="M222.9,321.54H190.574a2.425,2.425,0,0,0-.587.071l-15.44,4.05a2.322,2.322,0,0,0-1.728,2.235v5.057a2.314,2.314,0,0,0,2.314,2.314h32.3a2.171,2.171,0,0,0,.587-.079l15.432-4.042a2.314,2.314,0,0,0,1.728-2.243v-5.057a2.307,2.307,0,0,0-2.283-2.307Z" transform="translate(-153.655 -315.867)" fill="#191558"/>
      <path id="Tracé_576" data-name="Tracé 576" d="M222.9,321.54H190.574a2.425,2.425,0,0,0-.587.071l-15.44,4.05a2.322,2.322,0,0,0-1.728,2.235v5.057a2.314,2.314,0,0,0,2.314,2.314h32.3a2.171,2.171,0,0,0,.587-.079l15.432-4.042a2.314,2.314,0,0,0,1.728-2.243v-5.057a2.307,2.307,0,0,0-2.283-2.307Z" transform="translate(-153.655 -315.867)" fill="#fff" opacity="0.7"/>
      <path id="Tracé_577" data-name="Tracé 577" d="M206.819,336.346a2.2,2.2,0,0,0,2.33-2.235v-5.057a2.314,2.314,0,0,0-2.314-2.314h-31.7a2.3,2.3,0,0,0-2.013,1.07,2.275,2.275,0,0,0-.317,1.165v5.057a2.314,2.314,0,0,0,2.314,2.314Z" transform="translate(-153.65 -316.945)" fill="#263238"/>
      <path id="Tracé_578" data-name="Tracé 578" d="M206.819,336.346a2.2,2.2,0,0,0,2.33-2.235v-5.057a2.314,2.314,0,0,0-2.314-2.314h-31.7a2.3,2.3,0,0,0-2.013,1.07,2.275,2.275,0,0,0-.317,1.165v5.057a2.314,2.314,0,0,0,2.314,2.314Z" transform="translate(-153.65 -316.945)" fill="#fff" opacity="0.5"/>
      <path id="Tracé_579" data-name="Tracé 579" d="M180.972,330.454h-5.136a.626.626,0,0,1-.626-.618h0a.626.626,0,0,1,.626-.626h5.152a.626.626,0,0,1,.626.626h0a.618.618,0,0,1-.642.618Z" transform="translate(-154.15 -317.458)" fill="#fff"/>
      <path id="Tracé_580" data-name="Tracé 580" d="M180.972,333.314h-5.136a.626.626,0,0,1-.626-.618h0a.626.626,0,0,1,.626-.626h5.152a.626.626,0,0,1,.626.626h0a.618.618,0,0,1-.642.618Z" transform="translate(-154.15 -318.051)" fill="#fff"/>
      <path id="Tracé_581" data-name="Tracé 581" d="M180.972,336.174h-5.136a.626.626,0,0,1-.626-.618h0a.626.626,0,0,1,.626-.626h5.152a.626.626,0,0,1,.626.626h0a.618.618,0,0,1-.642.618Z" transform="translate(-154.15 -318.644)" fill="#fff"/>
      <path id="Tracé_582" data-name="Tracé 582" d="M210.638,334.656a1.014,1.014,0,0,0-1.435,0l-.713-.721a2.021,2.021,0,0,1,2.861,0Z" transform="translate(-161.052 -318.315)" fill="#191558"/>
      <path id="Tracé_583" data-name="Tracé 583" d="M207.541,332.837l-.721-.721a3.892,3.892,0,0,1,5.548,0l-.721.721A2.949,2.949,0,0,0,207.541,332.837Z" transform="translate(-160.706 -317.82)" fill="#191558"/>
      <path id="Tracé_584" data-name="Tracé 584" d="M206.121,331.291l-.721-.721a5.493,5.493,0,0,1,7.76,0l-.721.721A4.47,4.47,0,0,0,206.121,331.291Z" transform="translate(-160.411 -317.407)" fill="#191558"/>
      <g id="Groupe_29" data-name="Groupe 29" transform="translate(44.989 11.558)" opacity="0.3">
        <path id="Tracé_585" data-name="Tracé 585" d="M210.638,334.656a1.014,1.014,0,0,0-1.435,0l-.713-.721a2.021,2.021,0,0,1,2.861,0Z" transform="translate(-206.041 -329.873)"/>
        <path id="Tracé_586" data-name="Tracé 586" d="M207.541,332.837l-.721-.721a3.892,3.892,0,0,1,5.548,0l-.721.721A2.949,2.949,0,0,0,207.541,332.837Z" transform="translate(-205.694 -329.378)"/>
        <path id="Tracé_587" data-name="Tracé 587" d="M206.121,331.291l-.721-.721a5.493,5.493,0,0,1,7.76,0l-.721.721A4.47,4.47,0,0,0,206.121,331.291Z" transform="translate(-205.4 -328.965)"/>
      </g>
    </g>
    <g id="freepik--character-2--inject-3" transform="translate(298.121 142.683)">
      <path id="Tracé_588" data-name="Tracé 588" d="M422.432,182.67c-.523,3.266-.983,8.045,1.363,10.13,0,0,0,3.321-9.068,7.229-3.48-4.637-1.062-6.864-1.062-6.864,3.6-.991,3.448-2.465,2.734-4.97Z" transform="translate(-373.639 -162.948)" fill="#ff8b7b"/>
      <path id="Tracé_589" data-name="Tracé 589" d="M420.923,185.48l-3.543,3.3a10.4,10.4,0,0,1,.372,1.775c1.387-.246,3.519-1.5,3.765-3.02A4.366,4.366,0,0,0,420.923,185.48Z" transform="translate(-374.579 -163.531)" opacity="0.2" style="isolation: isolate"/>
      <path id="Tracé_590" data-name="Tracé 590" d="M425.687,173c-1.268,5.382-1.688,7.672-4.914,9.987-4.851,3.48-11.176.737-11.54-4.906-.317-5.081,1.823-13.046,7.514-14.267A7.522,7.522,0,0,1,425.687,173Z" transform="translate(-372.883 -158.999)" fill="#ff8b7b"/>
      <path id="Tracé_597" data-name="Tracé 597" d="M377.592,215.223l-6.674-6.468-.412-3.17a1.791,1.791,0,0,0-1.078-1.427L368.1,203.6a1.823,1.823,0,0,1-.872-.793l-.468-.856a1.8,1.8,0,0,0-2.711-.523h0a1.791,1.791,0,0,0-.666,1.395v4.526a1.776,1.776,0,0,0,.84,1.514l4.082,2.584,6.666,8.013Z" transform="translate(-363.38 -166.754)" fill="#ff8b7b"/>
      <path id="Tracé_598" data-name="Tracé 598" d="M401.173,196.317s-4.462.793-12.864,16.9l-1.4,2.631a2.489,2.489,0,0,1-3.8.7l-4.914-4.209-3.107,4.6s8.053,10.359,12.682,9.551S398,212.09,398,212.09,404.858,194.272,401.173,196.317Z" transform="translate(-365.806 -165.745)" fill="#191558"/>
      <path id="Tracé_599" data-name="Tracé 599" d="M395.62,225.5c3.5-4.161,6.642-11.707,6.642-11.707s1.189-3.083,2.306-6.539l-4.034-2.758S396.183,218.371,395.62,225.5Z" transform="translate(-370.066 -167.475)" opacity="0.1"/>
      <path id="Tracé_600" data-name="Tracé 600" d="M413.158,391.1l-.888,10.542-5.913-.365-.087-10.138Z" transform="translate(-372.275 -206.174)" fill="#ff8b7b"/>
      <path id="Tracé_601" data-name="Tracé 601" d="M402.578,403.83a2.608,2.608,0,0,1-1.815-.476.539.539,0,0,1,0-.634.793.793,0,0,1,.46-.341c1.03-.277,3.17.959,3.273,1.015a.145.145,0,0,1-.048.269A10.831,10.831,0,0,1,402.578,403.83Zm-.983-1.2a1.172,1.172,0,0,0-.277.04.38.38,0,0,0-.285.206c-.111.174-.071.269,0,.317.285.4,1.839.42,2.988.277A6.746,6.746,0,0,0,401.6,402.625Z" transform="translate(-371.111 -208.505)" fill="#191558"/>
      <path id="Tracé_602" data-name="Tracé 602" d="M404.868,403.269a.063.063,0,0,1-.063,0c-.737-.325-2.211-1.672-2.077-2.378,0-.174.143-.373.547-.412a1.07,1.07,0,0,1,.793.254,4.131,4.131,0,0,1,.951,2.378.127.127,0,0,1-.166.135Zm-1.5-2.5h-.087c-.262,0-.277.127-.285.166-.04.42.927,1.466,1.688,1.926a3.512,3.512,0,0,0-.793-1.9.792.792,0,0,0-.507-.182Z" transform="translate(-371.538 -208.118)" fill="#191558"/>
      <path id="Tracé_603" data-name="Tracé 603" d="M403.818,402.928h6.737a.539.539,0,0,1,.523.428l1.2,5.485a.9.9,0,0,1-.682,1.078.787.787,0,0,1-.19,0c-2.425-.055-4.589-.2-7.609-.206-3.567,0-2.663.42-6.856.46-2.528,0-2.98-2.853-1.91-2.988,4.906-.594,5.421-2.077,7.324-3.82a2.14,2.14,0,0,1,1.466-.436Z" transform="translate(-369.831 -208.626)" fill="#263238"/>
      <path id="Tracé_604" data-name="Tracé 604" d="M412.627,397.393l-6.309-.135-.048-6.119,6.888-.04Z" transform="translate(-372.275 -206.174)" fill="#263238" opacity="0.2"/>
      <path id="Tracé_605" data-name="Tracé 605" d="M403.2,258.48s-1.4,37.538-1.379,50.053c.04,14.727,2.592,58.867,2.592,58.867h8.283a256.425,256.425,0,0,0,2.774-37.356c-.055-6.658-1.514-13.332-.872-19.435,1.363-13.094,6.555-17.953,6.729-52.13Z" transform="translate(-371.352 -178.67)" fill="#263238"/>
      <path id="Tracé_606" data-name="Tracé 606" d="M420.467,279.861l-2.5-3.131a233.492,233.492,0,0,0-.3,38.584,8.8,8.8,0,0,1,.079-.919c.9-8.719,3.5-13.752,5.184-26.156Z" transform="translate(-374.503 -182.455)" opacity="0.2"/>
      <path id="Tracé_607" data-name="Tracé 607" d="M436.132,390.82l-.246,10.581h-5.929l-.7-10.114Z" transform="translate(-377.043 -206.116)" fill="#ff8b7b"/>
      <path id="Tracé_608" data-name="Tracé 608" d="M426.05,403.83a2.6,2.6,0,0,1-1.807-.476.539.539,0,0,1,0-.634.793.793,0,0,1,.46-.341c1.03-.277,3.17.959,3.273,1.015a.145.145,0,0,1-.048.269A10.85,10.85,0,0,1,426.05,403.83Zm-.975-1.2a1.063,1.063,0,0,0-.277.04.38.38,0,0,0-.285.206c-.111.174-.071.27,0,.317.285.4,1.839.42,2.988.277a6.746,6.746,0,0,0-2.425-.84Z" transform="translate(-375.981 -208.505)" fill="#191558"/>
      <path id="Tracé_609" data-name="Tracé 609" d="M428.348,403.269a.063.063,0,0,1-.063,0c-.737-.325-2.211-1.672-2.077-2.378,0-.174.143-.373.547-.412a1.07,1.07,0,0,1,.793.254,4.132,4.132,0,0,1,.951,2.378.143.143,0,0,1-.071.127.127.127,0,0,1-.079.032Zm-1.514-2.5h-.087c-.262,0-.277.127-.293.166-.04.42.935,1.466,1.7,1.926a3.456,3.456,0,0,0-.793-1.9.793.793,0,0,0-.5-.182Z" transform="translate(-376.408 -208.118)" fill="#191558"/>
      <path id="Tracé_610" data-name="Tracé 610" d="M427.3,402.928h6.729a.547.547,0,0,1,.531.428l1.2,5.485a.9.9,0,0,1-.682,1.078.79.79,0,0,1-.19,0c-2.425-.056-4.589-.2-7.609-.206-3.567,0-2.663.42-6.856.46-2.528,0-2.98-2.853-1.91-2.988,4.906-.594,5.421-2.077,7.324-3.82a2.14,2.14,0,0,1,1.466-.436Z" transform="translate(-374.7 -208.626)" fill="#263238"/>
      <path id="Tracé_611" data-name="Tracé 611" d="M435.981,397.137l-6.3.246-.42-6.1,6.872-.468Z" transform="translate(-377.043 -206.116)" fill="#263238" opacity="0.2"/>
      <path id="Tracé_612" data-name="Tracé 612" d="M417.07,257.97s2.425,38.4,3.218,51.2c.9,14.433,5.548,57.718,5.548,57.718H434.3s1.458-19.371,1.229-37.126c-.1-7.53-2.473-14.624-2.616-20.124-.182-7.134,3.963-32.814,1.427-53.62Z" transform="translate(-374.515 -178.16)" fill="#263238"/>
      <path id="Tracé_613" data-name="Tracé 613" d="M409.09,195.662c-4.914.618-8.513,1.728-8.283,18.3s.943,33.139.943,33.139H431.87s-1.387-25.316,0-35.667.46-15.424-5.984-15.773S413.426,195.123,409.09,195.662Z" transform="translate(-371.14 -165.573)" fill="#191558"/>
      <path id="Tracé_614" data-name="Tracé 614" d="M413.58,193.022v2.108s.658,2.092,6.341,1.982,6.174-2.639,6.174-2.639v-1.53A1.744,1.744,0,0,0,424,191.231a27.488,27.488,0,0,1-8.513.055,1.744,1.744,0,0,0-1.91,1.736Z" transform="translate(-373.791 -164.716)" fill="#191558"/>
      <path id="Tracé_615" data-name="Tracé 615" d="M377.063,223.349l2.956-5.334-1.45-1.244-2.869,4.986C376.017,222.144,376.485,222.7,377.063,223.349Z" transform="translate(-365.935 -170.02)" opacity="0.1"/>
      <path id="Tracé_616" data-name="Tracé 616" d="M377.21,214.7l-3.63,5.873,1.213,2.473,4.375-7.078Z" transform="translate(-365.495 -169.591)" fill="#191558"/>
      <path id="Tracé_617" data-name="Tracé 617" d="M419.889,198.011c-5.715.111-6.341-1.982-6.341-1.982v-.5s-1.68,3.258,3.281,3.781,8.243-1.863,8.933-3.281h0C425.184,196.774,423.718,197.932,419.889,198.011Z" transform="translate(-373.728 -165.615)" opacity="0.1"/>
      <path id="Tracé_618" data-name="Tracé 618" d="M438.541,207.54H434.15s2.425,9.559,4.082,15.186a85.814,85.814,0,0,1,.563-8.719q.345-2.627.476-4.756Z" transform="translate(-378.057 -168.106)" opacity="0.1"/>
      <path id="Tracé_619" data-name="Tracé 619" d="M442.892,241.49l-3.916,10.875-3.075,2.211a1.648,1.648,0,0,0-.69,1.332v1.839a1.709,1.709,0,0,1-.071.491h0a1.633,1.633,0,0,0,1.157,2.077l2.2.531a1.585,1.585,0,0,0,1.688-.6l1.585-2.156a1.585,1.585,0,0,0,.325-.975v-3.17l4.922-10.986Z" transform="translate(-378.246 -175.147)" fill="#ff8b7b"/>
      <path id="Tracé_620" data-name="Tracé 620" d="M432.207,195.75a13.712,13.712,0,0,1,9.892,6.793c3.8,6.341,7.252,20.251,6.214,25.776a39.393,39.393,0,0,1-2.378,8.521l-5.548-2.188a20.648,20.648,0,0,0,1.4-8.933c-.46-4.534-9.321-22.138-9.551-24.214S430.13,196.218,432.207,195.75Z" transform="translate(-377.453 -165.661)" fill="#191558"/>
      <path id="Tracé_621" data-name="Tracé 621" d="M443.5,241.85a20.023,20.023,0,0,1-.793,2.378l5.548,2.188a25.2,25.2,0,0,0,.967-2.631Z" transform="translate(-379.832 -175.221)" opacity="0.1"/>
      <path id="Tracé_622" data-name="Tracé 622" d="M441.53,245.506l6.547,2.2,2.132-1.744-7.886-2.647Z" transform="translate(-379.587 -175.524)" fill="#191558"/>
      <path id="Tracé_623" data-name="Tracé 623" d="M416.81,165.993c-1.918-.507-6.777-2.243-4.478-6.555s2.9,1.149,4.906,1.49,9.02.063,9.511,6.1c0,0,2.307,3.686-1.03,8.782,0,0-2.568-.444-2.18-2.568s-.571-2.536-1.355-3.226-.206-2.988-.206-2.988S418.094,166.334,416.81,165.993Z" transform="translate(-373.407 -157.788)" fill="#263238"/>
      <path id="Tracé_624" data-name="Tracé 624" d="M429.922,180.323a3.963,3.963,0,0,1-2.378,1.878c-1.347.365-2.013-.793-1.641-2.108.349-1.133,1.458-2.7,2.806-2.536a1.791,1.791,0,0,1,1.482,2.045,1.887,1.887,0,0,1-.27.721Z" transform="translate(-376.325 -161.885)" fill="#ff8b7b"/>
      <g id="Groupe_30" data-name="Groupe 30" transform="translate(30.476 9.41)" opacity="0.2">
        <path id="Tracé_626" data-name="Tracé 626" d="M411.349,284.21l-3.63,3.63a15.329,15.329,0,0,1-5.889,24.143c0,.674,0,1.316,0,1.886,0,1.038,0,2.235.048,3.543a20.473,20.473,0,0,0,9.511-33.2Z" transform="translate(-401.83 -193.416)"/>
        <path id="Tracé_627" data-name="Tracé 627" d="M430.83,176.112a7.831,7.831,0,0,0,0-6.452Z" transform="translate(-407.844 -169.66)"/>
        <path id="Tracé_628" data-name="Tracé 628" d="M431.25,179.765a1.775,1.775,0,0,0-.42-1.435v2.378c.04-.063.1-.119.135-.19a1.886,1.886,0,0,0,.285-.753Z" transform="translate(-407.844 -171.458)"/>
        <path id="Tracé_629" data-name="Tracé 629" d="M409.776,280.951a20.362,20.362,0,0,0-6.912-4.011c-.056,1.736-.111,3.559-.174,5.429a15.274,15.274,0,0,1,3.456,2.211Z" transform="translate(-402.008 -191.909)"/>
      </g>
    </g>
    <g id="freepik--character-1--inject-3" transform="translate(78.131 149.129)">
      <path id="Tracé_630" data-name="Tracé 630" d="M88.924,408.18l-.634,11.287,6.309.507,1.609-10.708Z" transform="translate(-86.34 -216.162)" fill="#ff8b7b"/>
      <path id="Tracé_631" data-name="Tracé 631" d="M98.086,422.258a.174.174,0,0,1-.127-.127.151.151,0,0,1,.071-.166c.1-.055,2.378-1.379,3.5-1.086a.792.792,0,0,1,.491.365.6.6,0,0,1,0,.682,2.814,2.814,0,0,1-1.934.507,11.468,11.468,0,0,1-2.005-.174Zm.507-.214c1.229.151,2.885.127,3.17-.3a.463.463,0,0,0,0-.341.412.412,0,0,0-.309-.214.951.951,0,0,0-.3,0A7.134,7.134,0,0,0,98.593,422.044Z" transform="translate(-88.344 -218.787)" fill="#191558"/>
      <path id="Tracé_632" data-name="Tracé 632" d="M97.983,421.841a.143.143,0,0,1-.063-.143,4.433,4.433,0,0,1,1.007-2.56,1.2,1.2,0,0,1,.872-.27c.428.04.563.262.587.436.143.745-1.443,2.18-2.227,2.536h-.063A.135.135,0,0,1,97.983,421.841Zm1.712-2.671a.793.793,0,0,0-.539.2,3.63,3.63,0,0,0-.864,2.021c.793-.483,1.847-1.585,1.807-2.053,0,0,0-.151-.317-.174Z" transform="translate(-88.336 -218.378)" fill="#191558"/>
      <path id="Tracé_633" data-name="Tracé 633" d="M94.889,421.469h-7.2a.6.6,0,0,0-.563.46l-1.276,5.857a.967.967,0,0,0,.729,1.157.862.862,0,0,0,.206,0c2.592-.055,4.9-.214,8.132-.222,3.812,0,2.845.444,7.324.491,2.7,0,3.17-3.044,2.037-3.17-5.239-.634-5.794-2.219-7.823-4.082A2.306,2.306,0,0,0,94.889,421.469Z" transform="translate(-85.829 -218.917)" fill="#263238"/>
      <path id="Tracé_634" data-name="Tracé 634" d="M88.61,414.925l6.7.8.967-6.46L88.99,408.18Z" transform="translate(-86.406 -216.162)" fill="#263238" opacity="0.2"/>
      <path id="Tracé_635" data-name="Tracé 635" d="M100.564,249.92s-6.539,4.328-6.943,18.9c-.293,10.526.388,33.115.793,44.87a43.522,43.522,0,0,1-1.379,12.468c-1.855,7.133-4.756,22.891-5.6,54.215h8.624s9.329-40.376,11.968-58.836,6.9-71.612,6.9-71.612Z" transform="translate(-86.161 -183.341)" fill="#263238"/>
      <path id="Tracé_636" data-name="Tracé 636" d="M117.683,280.358l-6.943-1.878s.658,23.834,3.337,39.123C115.282,306.863,116.613,292.517,117.683,280.358Z" transform="translate(-90.996 -189.264)" opacity="0.4"/>
      <path id="Tracé_637" data-name="Tracé 637" d="M121.92,411.26l.262,11.3h6.333l.753-10.811Z" transform="translate(-93.314 -216.801)" fill="#ff8b7b"/>
      <path id="Tracé_638" data-name="Tracé 638" d="M131.5,424.988a.175.175,0,0,1-.127-.127.15.15,0,0,1,.071-.166c.1-.055,2.378-1.379,3.5-1.086a.792.792,0,0,1,.491.365.6.6,0,0,1,0,.682,2.814,2.814,0,0,1-1.934.507A11.474,11.474,0,0,1,131.5,424.988Zm.507-.214c1.229.143,2.885.127,3.17-.3.04-.055.079-.151,0-.341a.444.444,0,0,0-.309-.222.951.951,0,0,0-.3,0A7.135,7.135,0,0,0,132,424.774Z" transform="translate(-95.273 -219.353)" fill="#191558"/>
      <path id="Tracé_639" data-name="Tracé 639" d="M131.4,424.571a.143.143,0,0,1-.063-.143,4.433,4.433,0,0,1,1.007-2.56,1.165,1.165,0,0,1,.872-.269.521.521,0,0,1,.587.436c.143.745-1.443,2.18-2.227,2.536h-.063A.135.135,0,0,1,131.4,424.571Zm1.712-2.671a.793.793,0,0,0-.539.2,3.63,3.63,0,0,0-.864,2.021c.793-.483,1.847-1.585,1.807-2.053,0-.04,0-.159-.317-.174Z" transform="translate(-95.267 -218.944)" fill="#191558"/>
      <path id="Tracé_640" data-name="Tracé 640" d="M128.3,424.2h-7.2a.6.6,0,0,0-.563.46l-1.276,5.857a.967.967,0,0,0,.729,1.157h.206c2.592-.055,4.9-.214,8.132-.222,3.812,0,2.845.444,7.324.491,2.7,0,3.17-3.044,2.037-3.17-5.239-.634-5.794-2.219-7.823-4.082A2.307,2.307,0,0,0,128.3,424.2Z" transform="translate(-92.758 -219.483)" fill="#263238"/>
      <path id="Tracé_641" data-name="Tracé 641" d="M122.079,418.013l6.737.262.452-6.523-7.348-.491Z" transform="translate(-93.314 -216.801)" fill="#263238" opacity="0.2"/>
      <path id="Tracé_642" data-name="Tracé 642" d="M111.449,254.267s-4.106,10.653.793,29.216c2.053,7.775,5.635,31.657,5.635,31.657a39.908,39.908,0,0,1,.166,12.682,102.805,102.805,0,0,0-.943,16.122c.206,14,1.221,39.155,1.221,39.155h9.123s5.073-46.82,5.073-62.49c0-17.041-5.477-67.958-5.477-67.958Z" transform="translate(-90.808 -183.907)" fill="#263238"/>
      <path id="Tracé_643" data-name="Tracé 643" d="M111.55,200.1s3.844-.618,3.361-7.728c0,0,3.472-1.839,5.9.127s-1.672,7.133,1.324,9.02C122.139,201.522,119.714,203.369,111.55,200.1Z" transform="translate(-91.164 -171.245)" fill="#ff8b7b"/>
      <path id="Tracé_647" data-name="Tracé 647" d="M127.923,184.671a6.341,6.341,0,0,1-4.756,5.12h0a9.269,9.269,0,0,1-1.76.285,11.6,11.6,0,0,1-6.69-1.672c-3.17-2.956-3.329-5.548-3.963-11.517a8.077,8.077,0,0,1,.436-3.757,8.243,8.243,0,0,1,10.542-4.978C127.74,170.309,128.969,179.194,127.923,184.671Z" transform="translate(-90.986 -166.283)" fill="#ff8b7b"/>
      <path id="Tracé_648" data-name="Tracé 648" d="M126.02,195.156h0a9.266,9.266,0,0,1-1.76.285l.262-1.831S125.132,194.918,126.02,195.156Z" transform="translate(-93.799 -171.663)" opacity="0.2"/>
      <path id="Tracé_650" data-name="Tracé 650" d="M120.131,165.983s6.642-.951,8.465,4.526-3.044-1.585-4.233-1.76,3.1,4.993-2.592,11.35l-4.613,8.267s-1.783-.547-2.584.333c0,0-3.709-1.1-4.589-8.6S110.746,165.674,120.131,165.983Z" transform="translate(-90.796 -165.92)" fill="#263238"/>
      <path id="Tracé_651" data-name="Tracé 651" d="M124.91,182.5s2.489-.856,2.822.7S126.947,182.847,124.91,182.5Z" transform="translate(-93.934 -169.31)" fill="#263238"/>
      <path id="Tracé_652" data-name="Tracé 652" d="M115.777,194.07s-3.337.222-2.727,1.7S113.7,194.736,115.777,194.07Z" transform="translate(-91.459 -171.758)" fill="#263238"/>
      <path id="Tracé_653" data-name="Tracé 653" d="M107.96,170.974s-11.2-5.842-12.777,2.774,4.819,11.485,1.76,17.223,4.542,1.76,5.929-3.892,2.758-9.884,5.089-9.947a4.248,4.248,0,0,0,0-6.159Z" transform="translate(-87.717 -166.567)" fill="#263238"/>
      <path id="Tracé_654" data-name="Tracé 654" d="M111.032,171.327s-.5-.262-1.292-.587a9.8,9.8,0,0,1,.2,7.134,2.092,2.092,0,0,1,1.094-.38,4.248,4.248,0,0,0,0-6.167Z" transform="translate(-90.788 -166.92)" fill="#191558"/>
      <path id="Tracé_655" data-name="Tracé 655" d="M123.52,180.944a4.653,4.653,0,0,1,1.7,3.123c.159,1.633-1.371,2.18-2.758,1.5-1.26-.61-2.845-2.2-2.378-3.725a2.108,2.108,0,0,1,3.432-.9Z" transform="translate(-92.917 -168.92)" fill="#ff8b7b"/>
      <circle id="Ellipse_14" data-name="Ellipse 14" cx="1.118" cy="1.118" r="1.118" transform="translate(30.968 16.248)" fill="#191558"/>
      <circle id="Ellipse_15" data-name="Ellipse 15" cx="1.118" cy="1.118" r="1.118" transform="translate(30.968 16.248)" fill="#fff" opacity="0.7"/>
      <path id="Tracé_656" data-name="Tracé 656" d="M101.912,203.36s-7.078.523-10.93,8.632-6.491,23.334,2.639,23.739,8.291-1.823,8.291-1.823v-4.058l-5.849-1.76a2.243,2.243,0,0,1-1.474-2.9l3.075-8.719Z" transform="translate(-86.162 -173.685)" fill="#191558"/>
      <path id="Tracé_657" data-name="Tracé 657" d="M101.912,203.36s-7.078.523-10.93,8.632-6.491,23.334,2.639,23.739,8.291-1.823,8.291-1.823v-4.058l-5.849-1.76a2.243,2.243,0,0,1-1.474-2.9l3.075-8.719Z" transform="translate(-86.162 -173.685)" opacity="0.1"/>
      <path id="Tracé_658" data-name="Tracé 658" d="M111.241,204.17s-2.227-5.6,0-5.5,11.1,1.522,13.189,1.11-3.551,5.073-3.551,5.073Z" transform="translate(-90.894 -172.712)" fill="#191558"/>
      <path id="Tracé_659" data-name="Tracé 659" d="M111.241,204.17s-2.227-5.6,0-5.5,11.1,1.522,13.189,1.11-3.551,5.073-3.551,5.073Z" transform="translate(-90.894 -172.712)" fill="#263238"/>
      <path id="Tracé_660" data-name="Tracé 660" d="M98.282,245.712a23.128,23.128,0,0,0,1.371-8.322c-.309-8.536-1.7-21.995-2.378-27.369-.84-6.595,8.116-7.926,17.437-7.316s14.6.4,13.585,11.358-3.028,31.649-3.028,31.649Z" transform="translate(-88.192 -173.521)" fill="#191558"/>
      <path id="Tracé_661" data-name="Tracé 661" d="M134.862,218.434a20.143,20.143,0,0,0-1.783-2.164l-3.559.793s1.11,13.379,3.892,16.558C133.911,228.476,134.45,222.88,134.862,218.434Z" transform="translate(-94.89 -176.362)" opacity="0.1"/>
      <path id="Tracé_662" data-name="Tracé 662" d="M128.957,203.677a7.72,7.72,0,0,1,7.7,5.136c1.585,4.114,4.835,13.245,6.476,17.953a1.363,1.363,0,0,0,2.489.182l2.2-4.137a6.519,6.519,0,0,1,4.462,3.448c1.221,2.838-6.087,10.566-9.947,10.55-4.272,0-9.844-10.47-11.358-15.282A45.884,45.884,0,0,1,128.957,203.677Z" transform="translate(-94.739 -173.748)" fill="#191558"/>
      <path id="Tracé_663" data-name="Tracé 663" d="M152.83,226.27l2.5-4.264s-1.419-2.655-.483-4.367,1.847-.333,2.742-.856,2.917-4.24,3.892-2.378,2.18,5.081-2.822,8.885l-2.7,6.785Z" transform="translate(-99.725 -175.868)" fill="#ff8b7b"/>
      <path id="Tracé_664" data-name="Tracé 664" d="M152.868,227.246a6.063,6.063,0,0,1,4.629,4.359v.1c.071.388.563,3.305,0,3.353s-1.363-2.735-5.968-5.16a.547.547,0,0,1-.222-.793l.983-1.625A.539.539,0,0,1,152.868,227.246Z" transform="translate(-99.39 -178.635)" fill="#191558"/>
      <path id="Tracé_665" data-name="Tracé 665" d="M152.868,227.246a6.063,6.063,0,0,1,4.629,4.359v.1c.071.388.563,3.305,0,3.353s-1.363-2.735-5.968-5.16a.547.547,0,0,1-.222-.793l.983-1.625A.539.539,0,0,1,152.868,227.246Z" transform="translate(-99.39 -178.635)" fill="#263238"/>
      <path id="Tracé_666" data-name="Tracé 666" d="M116.693,202.7a43.33,43.33,0,0,0-9.963.325c.682.856,2.378,1.7,6.341,1.894,5.834.277,6.626-1.062,8.869-1.839C120.418,202.907,118.627,202.828,116.693,202.7Z" transform="translate(-90.164 -173.518)" opacity="0.1"/>
    </g>
  </g>
</svg>
