<?xml version="1.0" encoding="UTF-8" standalone="no"?>
<svg
   width="545"
   height="280"
   viewBox="0 0 544.99998 279.99999"
   role="img"
   artist="Katerina Limpitsouni"
   source="https://undraw.co/"
   version="1.1"
   id="svg54"
   sodipodi:docname="economy-benchmark.svg"
   inkscape:version="1.4.2 (f4327f4, 2025-05-13)"
   xmlns:inkscape="http://www.inkscape.org/namespaces/inkscape"
   xmlns:sodipodi="http://sodipodi.sourceforge.net/DTD/sodipodi-0.dtd"
   xmlns="http://www.w3.org/2000/svg"
   xmlns:svg="http://www.w3.org/2000/svg">
  <defs
     id="defs54" />
  <sodipodi:namedview
     id="namedview54"
     pagecolor="#ffffff"
     bordercolor="#000000"
     borderopacity="0.25"
     inkscape:showpageshadow="2"
     inkscape:pageopacity="0.0"
     inkscape:pagecheckerboard="0"
     inkscape:deskcolor="#d1d1d1"
     inkscape:zoom="1.3995332"
     inkscape:cx="400.13342"
     inkscape:cy="104.67776"
     inkscape:window-width="1920"
     inkscape:window-height="991"
     inkscape:window-x="-9"
     inkscape:window-y="-9"
     inkscape:window-maximized="1"
     inkscape:current-layer="g54" />
  <g
     transform="matrix(0.72420867,0,0,0.72420867,-53.783809,-45.505652)"
     id="g54">
    <g
       id="g55"
       transform="matrix(1.1,0,0,1.1,94.029167,-2.8314539)">
      <path
         d="M 565.42461,62.835 H 82.773984 a 8.591875,8.591875 0 0 0 -8.508125,8.655 v 327.9125 a 8.5875,8.5875 0 0 0 8.508125,8.63687 H 565.42461 a 8.588125,8.588125 0 0 0 8.50812,-8.63687 V 71.49 a 8.591875,8.591875 0 0 0 -8.50687,-8.655 z"
         fill="#090814"
         id="path1"
         style="stroke-width:0.625" />
      <path
         d="M 551.47398,64.8125 H 83.598984 a 8.265625,8.265625 0 0 0 -8.25,8.264375 V 386.20625 a 8.261875,8.261875 0 0 0 8.25,8.25 H 551.47398 a 8.261875,8.261875 0 0 0 8.25,-8.25 V 73.0775 a 8.265,8.265 0 0 0 -8.24437,-8.264375 z"
         fill="#ffffff"
         id="path2"
         style="stroke-width:0.625" />
      <path
         d="M 234.83773,288.05562 H 106.37711 a 2.38125,2.38125 0 0 1 -2.37875,-2.37875 V 253.8125 a 2.381875,2.381875 0 0 1 2.37875,-2.37875 h 128.46062 a 2.381875,2.381875 0 0 1 2.37875,2.37875 v 31.8625 a 2.381875,2.381875 0 0 1 -2.37875,2.37875 z M 106.37711,252.38437 a 1.42875,1.42875 0 0 0 -1.42938,1.4275 V 285.675 a 1.42875,1.42875 0 0 0 1.4275,1.4275 h 128.4625 a 1.42875,1.42875 0 0 0 1.4275,-1.4275 v -31.86313 a 1.42875,1.42875 0 0 0 -1.4275,-1.4275 z"
         fill="#e6e6e6"
         id="path3"
         style="stroke-width:0.625" />
      <path
         d="m 146.10523,262.90875 a 1.665625,1.665625 0 0 0 0,3.33062 h 78.5 a 1.665625,1.665625 0 0 0 0.125,-3.32875 h -0.0731 -78.5525 z"
         fill="#e6e6e6"
         id="path4"
         style="fill:#ecf0fd;fill-opacity:1;stroke-width:0.625" />
      <path
         d="m 146.10523,272.89875 a 1.6653125,1.6653125 0 1 0 0,3.33062 h 78.5 a 1.665625,1.665625 0 0 0 0.125,-3.32875 h -0.0731 -78.5525 z"
         fill="#e6e6e6"
         id="path5"
         style="fill:#ecf0fd;fill-opacity:1;stroke-width:0.625" />
      <path
         d="m 189.54086,230.3025 a 1.643125,1.643125 0 0 1 -1.46938,-0.89688 19.361875,19.361875 0 0 0 -11.48812,-9.67125 21.969375,21.969375 0 0 0 -3.07875,-0.69687 l -0.2125,-0.0319 10.95625,-34.255 0.1875,0.006 c 21.285,5.78375 33.46312,22.8425 36.6875,27.93313 a 1.645625,1.645625 0 0 1 -0.65813,2.35187 l -30.18437,15.08563 a 1.65,1.65 0 0 1 -0.73938,0.175 z"
         fill="#f2f2f2"
         id="path6"
         style="fill:#ecf0fd;fill-opacity:1;stroke-width:0.625" />
      <circle
         cx="171.15523"
         cy="233.8875"
         fill="#090814"
         id="ellipse6"
         r="2.9293749"
         style="stroke-width:0.625" />
      <path
         d="m 151.49336,230.25937 a 1.645,1.645 0 0 1 -0.76875,-0.19187 l -30.00938,-15.83125 a 1.648125,1.648125 0 0 1 -0.6375,-2.31625 66.521875,66.521875 0 0 1 15.01,-16.835 c 10.36313,-8.21375 22.15188,-12.33438 35.035,-12.265 a 55.615625,55.615625 0 0 1 14.30438,1.9375 l 0.1875,0.05 -10.95875,34.25 -0.15438,-0.0231 a 24.42125,24.42125 0 0 0 -2.98,-0.26437 c -11.15062,-0.3125 -15.9825,7.27812 -17.5425,10.55687 a 1.616875,1.616875 0 0 1 -0.95937,0.84563 1.65875,1.65875 0 0 1 -0.52313,0.0856 z"
         fill="#191558"
         id="path7"
         style="stroke-width:0.625" />
      <path
         d="m 184.38523,184.93312 -7.75,34.625 a 22.113125,22.113125 0 0 0 -3.105,-0.70312 l 10.85,-33.92313 z"
         fill="#090814"
         id="path8"
         style="stroke-width:0.625" />
      <g
         transform="matrix(0.625,0,0,0.625,27.849609,89.139375)"
         id="g9">
        <circle
           cx="15.986"
           cy="15.986"
           r="15.986"
           transform="translate(135.301,272.668)"
           fill="#191558"
           id="circle8" />
        <path
           d="m 576.8,240.8 a 1.862,1.862 0 0 1 -1.49,-0.745 l -4.569,-6.092 a 1.863,1.863 0 0 1 2.981,-2.235 l 2.989,3.985 7.677,-11.515 a 1.863,1.863 0 0 1 3.1,2.067 l -9.138,13.706 a 1.864,1.864 0 0 1 -1.5,0.829 z"
           transform="translate(-427.795,56.57)"
           fill="#ffffff"
           id="path9" />
      </g>
      <path
         d="M 388.33023,288.05562 H 259.86961 a 2.38125,2.38125 0 0 1 -2.37875,-2.37875 V 253.8125 a 2.381875,2.381875 0 0 1 2.37875,-2.37875 h 128.46062 a 2.381875,2.381875 0 0 1 2.37875,2.37875 v 31.8625 a 2.381875,2.381875 0 0 1 -2.37875,2.37875 z M 259.86961,252.38437 a 1.42875,1.42875 0 0 0 -1.42938,1.4275 V 285.675 a 1.42875,1.42875 0 0 0 1.4275,1.4275 h 128.4625 a 1.42875,1.42875 0 0 0 1.4275,-1.4275 v -31.86313 a 1.42875,1.42875 0 0 0 -1.4275,-1.4275 z"
         fill="#e6e6e6"
         id="path10"
         style="stroke-width:0.625" />
      <path
         d="m 299.59773,262.90875 a 1.665625,1.665625 0 0 0 0,3.33062 h 78.5 a 1.665625,1.665625 0 0 0 0.125,-3.32875 h -0.0731 -78.5525 z"
         fill="#e6e6e6"
         id="path11"
         style="fill:#ecf0fd;fill-opacity:1;stroke-width:0.625" />
      <path
         d="m 299.59773,272.89875 a 1.6653125,1.6653125 0 1 0 0,3.33062 h 78.5 a 1.665625,1.665625 0 0 0 0.125,-3.32875 h -0.0731 -78.5525 z"
         fill="#e6e6e6"
         id="path12"
         style="fill:#ecf0fd;fill-opacity:1;stroke-width:0.625" />
      <path
         d="m 343.03336,230.3025 a 1.643125,1.643125 0 0 1 -1.46938,-0.89688 19.361875,19.361875 0 0 0 -11.48812,-9.67125 21.969375,21.969375 0 0 0 -3.07875,-0.69687 l -0.2125,-0.0319 10.95625,-34.255 0.1875,0.006 c 21.285,5.78375 33.46312,22.8425 36.6875,27.93313 a 1.645625,1.645625 0 0 1 -0.65813,2.35187 l -30.18437,15.08563 a 1.65,1.65 0 0 1 -0.73938,0.175 z"
         fill="#f2f2f2"
         id="path13"
         style="fill:#ecf0fd;fill-opacity:1;stroke-width:0.625" />
      <circle
         cx="324.64709"
         cy="233.88625"
         fill="#090814"
         id="ellipse13"
         r="2.9293749"
         style="stroke-width:0.625" />
      <path
         d="m 304.98586,230.25937 a 1.645,1.645 0 0 1 -0.76875,-0.19187 l -30.00938,-15.83125 a 1.648125,1.648125 0 0 1 -0.6375,-2.31625 66.521875,66.521875 0 0 1 15.01,-16.835 c 10.36313,-8.21375 22.15188,-12.33438 35.035,-12.265 a 55.615625,55.615625 0 0 1 14.30438,1.9375 l 0.1875,0.05 -10.95875,34.25 -0.15438,-0.0231 a 24.42125,24.42125 0 0 0 -2.98,-0.26437 c -11.15062,-0.3125 -15.9825,7.27812 -17.5425,10.55687 a 1.616875,1.616875 0 0 1 -0.95937,0.84563 1.65875,1.65875 0 0 1 -0.52313,0.0856 z"
         fill="#191558"
         id="path14"
         style="stroke-width:0.625" />
      <path
         d="m 337.87773,184.93312 -7.75,34.625 a 22.113125,22.113125 0 0 0 -3.105,-0.70312 l 10.85,-33.92313 z"
         fill="#090814"
         id="path15"
         style="stroke-width:0.625" />
      <g
         transform="matrix(0.625,0,0,0.625,181.34211,89.139375)"
         id="g16">
        <circle
           cx="15.986"
           cy="15.986"
           r="15.986"
           transform="translate(135.301,272.668)"
           fill="#191558"
           id="circle15" />
        <path
           d="m 576.8,240.8 a 1.862,1.862 0 0 1 -1.49,-0.745 l -4.569,-6.092 a 1.863,1.863 0 0 1 2.981,-2.235 l 2.989,3.985 7.677,-11.515 a 1.863,1.863 0 0 1 3.1,2.067 l -9.138,13.706 a 1.864,1.864 0 0 1 -1.5,0.829 z"
           transform="translate(-427.795,56.57)"
           fill="#ffffff"
           id="path16" />
      </g>
      <path
         d="M 541.82273,288.05562 H 413.36211 a 2.38125,2.38125 0 0 1 -2.37875,-2.37875 V 253.8125 a 2.381875,2.381875 0 0 1 2.37875,-2.37875 h 128.46062 a 2.381875,2.381875 0 0 1 2.37875,2.37875 v 31.8625 a 2.381875,2.381875 0 0 1 -2.37875,2.37875 z M 413.36211,252.38437 a 1.42875,1.42875 0 0 0 -1.42938,1.4275 V 285.675 a 1.42875,1.42875 0 0 0 1.4275,1.4275 h 128.4625 a 1.42875,1.42875 0 0 0 1.4275,-1.4275 v -31.86313 a 1.42875,1.42875 0 0 0 -1.4275,-1.4275 z"
         fill="#e6e6e6"
         id="path17"
         style="stroke-width:0.625" />
      <path
         d="m 453.09023,262.90875 a 1.665625,1.665625 0 0 0 0,3.33062 h 78.5 a 1.665625,1.665625 0 0 0 0.125,-3.32875 h -0.0731 -78.5525 z"
         fill="#e6e6e6"
         id="path18"
         style="fill:#ecf0fd;fill-opacity:1;stroke-width:0.625" />
      <path
         d="m 453.09023,272.89875 a 1.6653125,1.6653125 0 1 0 0,3.33062 h 78.5 a 1.665625,1.665625 0 0 0 0.125,-3.32875 h -0.0731 -78.5525 z"
         fill="#e6e6e6"
         id="path19"
         style="fill:#ecf0fd;fill-opacity:1;stroke-width:0.625" />
      <path
         d="m 496.52586,230.3025 a 1.643125,1.643125 0 0 1 -1.46938,-0.89688 19.361875,19.361875 0 0 0 -11.48812,-9.67125 21.969375,21.969375 0 0 0 -3.07875,-0.69687 l -0.2125,-0.0319 10.95625,-34.255 0.1875,0.006 c 21.285,5.78375 33.46312,22.8425 36.6875,27.93313 a 1.645625,1.645625 0 0 1 -0.65813,2.35187 l -30.18437,15.08563 a 1.65,1.65 0 0 1 -0.73938,0.175 z"
         fill="#f2f2f2"
         id="path20"
         style="fill:#ecf0fd;fill-opacity:1;stroke-width:0.625" />
      <circle
         cx="478.13962"
         cy="233.88625"
         fill="#090814"
         id="ellipse20"
         r="2.9293749"
         style="stroke-width:0.625" />
      <path
         d="m 458.47836,230.25937 a 1.645,1.645 0 0 1 -0.76875,-0.19187 l -30.00938,-15.83125 a 1.648125,1.648125 0 0 1 -0.6375,-2.31625 66.521875,66.521875 0 0 1 15.01,-16.835 c 10.36313,-8.21375 22.15188,-12.33438 35.035,-12.265 a 55.615625,55.615625 0 0 1 14.30438,1.9375 l 0.1875,0.05 -10.95875,34.25 -0.15438,-0.0231 a 24.42125,24.42125 0 0 0 -2.98,-0.26437 c -11.15062,-0.3125 -15.9825,7.27812 -17.5425,10.55687 a 1.616875,1.616875 0 0 1 -0.95937,0.84563 1.65875,1.65875 0 0 1 -0.52313,0.0856 z"
         fill="#191558"
         id="path21"
         style="stroke-width:0.625" />
      <path
         d="m 491.37023,184.93312 -7.75,34.625 a 22.113125,22.113125 0 0 0 -3.105,-0.70312 l 10.85,-33.92313 z"
         fill="#090814"
         id="path22"
         style="stroke-width:0.625" />
      <g
         transform="matrix(0.625,0,0,0.625,334.83461,89.139375)"
         id="g23">
        <circle
           cx="15.986"
           cy="15.986"
           r="15.986"
           transform="translate(135.301,272.668)"
           fill="#191558"
           id="circle22" />
        <path
           d="m 576.8,240.8 a 1.862,1.862 0 0 1 -1.49,-0.745 l -4.569,-6.092 a 1.863,1.863 0 0 1 2.981,-2.235 l 2.989,3.985 7.677,-11.515 a 1.863,1.863 0 0 1 3.1,2.067 l -9.138,13.706 a 1.864,1.864 0 0 1 -1.5,0.829 z"
           transform="translate(-427.795,56.57)"
           fill="#ffffff"
           id="path23" />
      </g>
      <path
         d="m 107.84961,313.77437 h 432.5 c 2.07125,0 3.75,1.24063 3.75,2.77063 v 49.875 c 0,1.53 -1.67875,2.77062 -3.75,2.77062 h -432.5 c -2.07125,0 -3.75,-1.24062 -3.75,-2.77062 v -49.875 c 0,-1.53 1.67875,-2.77063 3.75,-2.77063 z"
         fill="#f2f2f2"
         id="path24"
         style="fill:#ecf0fd;fill-opacity:1;stroke-width:0.625" />
      <g
         transform="matrix(0.625,0,0,0.625,27.849609,18.563125)"
         id="g53">
        <path
           d="M 1113.179,341.435 H 413.4 c -1.209,0 -2.19,-0.241 -2.19,-0.539 v -82.515 c 0,-0.3 0.98,-0.539 2.19,-0.539 1.21,0 2.19,0.241 2.19,0.539 v 81.977 h 697.592 c 1.21,0 2.19,0.241 2.19,0.539 0,0.298 -0.98,0.539 -2.19,0.539 z"
           transform="translate(-289.207,-140.529)"
           fill="#e6e6e6"
           id="path25"
           style="fill:#191558;fill-opacity:1" />
        <path
           d="m 457.443,359.008 h -15.658 a 1.6,1.6 0 0 1 -1.6,-1.6 v -21.584 a 1.6,1.6 0 0 1 1.6,-1.6 h 15.658 a 1.6,1.6 0 0 1 1.6,1.6 v 21.585 a 1.6,1.6 0 0 1 -1.6,1.6 z"
           transform="translate(-298.186,-164.027)"
           fill="#191558"
           id="path26" />
        <path
           d="m 498.687,349.91 h -15.658 a 1.6,1.6 0 0 1 -1.6,-1.6 v -42.058 a 1.6,1.6 0 0 1 1.6,-1.6 h 15.658 a 1.6,1.6 0 0 1 1.6,1.6 v 42.058 a 1.6,1.6 0 0 1 -1.6,1.6 z"
           transform="translate(-143.43,-154.93)"
           fill="#191558"
           id="path27" />
        <path
           d="m 539.931,359.008 h -15.658 a 1.6,1.6 0 0 1 -1.6,-1.6 v -21.584 a 1.6,1.6 0 0 1 1.6,-1.6 h 15.658 a 1.6,1.6 0 0 1 1.6,1.6 v 21.585 a 1.6,1.6 0 0 1 -1.6,1.599 z"
           transform="translate(-44.674,-164.027)"
           fill="#191558"
           id="path28" />
        <path
           d="m 581.175,346.319 h -15.658 a 1.566,1.566 0 0 1 -1.6,-1.527 v -50.285 a 1.566,1.566 0 0 1 1.6,-1.527 h 15.658 a 1.566,1.566 0 0 1 1.6,1.527 v 50.285 a 1.566,1.566 0 0 1 -1.6,1.527 z"
           transform="translate(26.021,-151.34)"
           fill="#191558"
           id="path29" />
        <path
           d="m 622.419,339.855 h -15.658 a 1.6,1.6 0 0 1 -1.6,-1.6 v -64.686 a 1.6,1.6 0 0 1 1.6,-1.6 h 15.658 a 1.6,1.6 0 0 1 1.6,1.6 v 64.688 a 1.6,1.6 0 0 1 -1.6,1.598 z"
           transform="translate(182.049,-144.875)"
           fill="#191558"
           id="path30" />
        <circle
           cx="3.233"
           cy="3.233"
           transform="translate(148.258,157.266)"
           fill="#3f3d56"
           id="ellipse30"
           r="3.233" />
        <circle
           cx="3.233"
           cy="3.233"
           transform="translate(344.018,139.232)"
           fill="#3f3d56"
           id="ellipse31"
           r="3.233" />
        <circle
           cx="3.233"
           cy="3.233"
           transform="translate(484.197,157.266)"
           fill="#3f3d56"
           id="ellipse32"
           r="3.233" />
        <circle
           cx="3.233"
           cy="3.233"
           transform="translate(596.539,130.016)"
           fill="#3f3d56"
           id="ellipse33"
           r="3.233" />
        <circle
           cx="3.233"
           cy="3.233"
           transform="translate(793.408,114.164)"
           fill="#3f3d56"
           id="ellipse34"
           r="3.233" />
        <path
           d="m 621.578,127.306 -139.01,-18.62 -193.916,18.327 -3.635,-0.863 197.551,-18.81 138.242,18.518 112.575,-27.158 0.639,-0.046 194.4,-15.328 2.267,1 L 736.93,99.61 Z"
           transform="translate(-133.85,33.916)"
           fill="#3f3d56"
           id="path34" />
        <path
           d="m 457.443,361.572 h -15.658 a 1.69,1.69 0 0 1 -1.6,-1.765 v -23.818 a 1.69,1.69 0 0 1 1.6,-1.765 h 15.658 a 1.69,1.69 0 0 1 1.6,1.765 v 23.818 a 1.69,1.69 0 0 1 -1.6,1.765 z"
           transform="translate(-270.186,-166.592)"
           fill="#e6e6e6"
           id="path35"
           style="fill:#ecf0fd;fill-opacity:1" />
        <path
           d="m 457.443,361.572 h -15.658 a 1.69,1.69 0 0 1 -1.6,-1.765 v -23.818 a 1.69,1.69 0 0 1 1.6,-1.765 h 15.658 a 1.69,1.69 0 0 1 1.6,1.765 v 23.818 a 1.69,1.69 0 0 1 -1.6,1.765 z"
           transform="translate(-242.186,-166.592)"
           fill="#e6e6e6"
           id="path36"
           style="fill:#ecf0fd;fill-opacity:1" />
        <path
           d="m 457.443,365.474 h -15.658 a 1.847,1.847 0 0 1 -1.6,-2.017 v -27.216 a 1.847,1.847 0 0 1 1.6,-2.016 h 15.658 a 1.847,1.847 0 0 1 1.6,2.016 v 27.217 a 1.847,1.847 0 0 1 -1.6,2.016 z"
           transform="translate(-214.186,-170.494)"
           fill="#e6e6e6"
           id="path37"
           style="fill:#ecf0fd;fill-opacity:1" />
        <path
           d="m 457.443,367.982 h -15.658 c -0.883,0 -1.6,-0.976 -1.6,-2.178 V 336.4 c 0,-1.2 0.716,-2.177 1.6,-2.178 h 15.658 c 0.883,0 1.6,0.976 1.6,2.178 v 29.4 c 0,1.2 -0.717,2.177 -1.6,2.178 z"
           transform="translate(-186.186,-173.002)"
           fill="#e6e6e6"
           id="path38"
           style="fill:#ecf0fd;fill-opacity:1" />
        <path
           d="m 457.443,370.1 h -15.658 c -0.883,0 -1.6,-1.037 -1.6,-2.315 v -31.246 c 0,-1.278 0.716,-2.313 1.6,-2.315 h 15.658 c 0.883,0 1.6,1.037 1.6,2.315 v 31.241 c 0,1.278 -0.717,2.313 -1.6,2.315 z"
           transform="translate(-158.186,-175.115)"
           fill="#e6e6e6"
           id="path39"
           style="fill:#ecf0fd;fill-opacity:1" />
        <path
           d="m 457.443,371.939 h -15.658 c -0.883,0 -1.6,-1.09 -1.6,-2.434 v -32.847 c 0,-1.343 0.716,-2.432 1.6,-2.434 h 15.658 c 0.883,0 1.6,1.09 1.6,2.434 v 32.847 c 0,1.343 -0.717,2.432 -1.6,2.434 z"
           transform="translate(-130.186,-176.959)"
           fill="#e6e6e6"
           id="path40"
           style="fill:#ecf0fd;fill-opacity:1" />
        <path
           d="m 457.443,371.939 h -15.658 c -0.883,0 -1.6,-1.09 -1.6,-2.434 v -32.847 c 0,-1.343 0.716,-2.432 1.6,-2.434 h 15.658 c 0.883,0 1.6,1.09 1.6,2.434 v 32.847 c 0,1.343 -0.717,2.432 -1.6,2.434 z"
           transform="translate(-74.186,-176.959)"
           fill="#e6e6e6"
           id="path41"
           style="fill:#ecf0fd;fill-opacity:1" />
        <path
           d="m 457.443,370.1 h -15.658 c -0.883,0 -1.6,-1.037 -1.6,-2.315 v -31.246 c 0,-1.278 0.716,-2.313 1.6,-2.315 h 15.658 c 0.883,0 1.6,1.037 1.6,2.315 v 31.241 c 0,1.278 -0.717,2.313 -1.6,2.315 z"
           transform="translate(-46.186,-175.115)"
           fill="#e6e6e6"
           id="path42"
           style="fill:#ecf0fd;fill-opacity:1" />
        <path
           d="m 457.443,365.474 h -15.658 a 1.847,1.847 0 0 1 -1.6,-2.017 v -27.216 a 1.847,1.847 0 0 1 1.6,-2.016 h 15.658 a 1.847,1.847 0 0 1 1.6,2.016 v 27.217 a 1.847,1.847 0 0 1 -1.6,2.016 z"
           transform="translate(-18.186,-170.494)"
           fill="#e6e6e6"
           id="path43"
           style="fill:#ecf0fd;fill-opacity:1" />
        <path
           d="m 457.443,361.572 h -15.658 a 1.69,1.69 0 0 1 -1.6,-1.765 v -23.818 a 1.69,1.69 0 0 1 1.6,-1.765 h 15.658 a 1.69,1.69 0 0 1 1.6,1.765 v 23.818 a 1.69,1.69 0 0 1 -1.6,1.765 z"
           transform="translate(9.814,-166.592)"
           fill="#e6e6e6"
           id="path44"
           style="fill:#ecf0fd;fill-opacity:1" />
        <path
           d="m 457.443,361.572 h -15.658 a 1.69,1.69 0 0 1 -1.6,-1.765 v -23.818 a 1.69,1.69 0 0 1 1.6,-1.765 h 15.658 a 1.69,1.69 0 0 1 1.6,1.765 v 23.818 a 1.69,1.69 0 0 1 -1.6,1.765 z"
           transform="translate(65.754,-166.592)"
           fill="#e6e6e6"
           id="path45"
           style="fill:#ecf0fd;fill-opacity:1" />
        <path
           d="m 457.443,365.474 h -15.658 a 1.847,1.847 0 0 1 -1.6,-2.017 v -27.216 a 1.847,1.847 0 0 1 1.6,-2.016 h 15.658 a 1.847,1.847 0 0 1 1.6,2.016 v 27.217 a 1.847,1.847 0 0 1 -1.6,2.016 z"
           transform="translate(93.754,-170.494)"
           fill="#e6e6e6"
           id="path46"
           style="fill:#ecf0fd;fill-opacity:1" />
        <path
           d="m 457.443,367.982 h -15.658 c -0.883,0 -1.6,-0.976 -1.6,-2.178 V 336.4 c 0,-1.2 0.716,-2.177 1.6,-2.178 h 15.658 c 0.883,0 1.6,0.976 1.6,2.178 v 29.4 c 0,1.2 -0.717,2.177 -1.6,2.178 z"
           transform="translate(121.754,-173.002)"
           fill="#e6e6e6"
           id="path47"
           style="fill:#ecf0fd;fill-opacity:1" />
        <path
           d="m 457.443,371.939 h -15.658 c -0.883,0 -1.6,-1.09 -1.6,-2.434 v -32.847 c 0,-1.343 0.716,-2.432 1.6,-2.434 h 15.658 c 0.883,0 1.6,1.09 1.6,2.434 v 32.847 c 0,1.343 -0.717,2.432 -1.6,2.434 z"
           transform="translate(177.754,-176.959)"
           fill="#e6e6e6"
           id="path48"
           style="fill:#ecf0fd;fill-opacity:1" />
        <path
           d="m 457.443,370.1 h -15.658 c -0.883,0 -1.6,-1.037 -1.6,-2.315 v -31.246 c 0,-1.278 0.716,-2.313 1.6,-2.315 h 15.658 c 0.883,0 1.6,1.037 1.6,2.315 v 31.241 c 0,1.278 -0.717,2.313 -1.6,2.315 z"
           transform="translate(205.754,-175.115)"
           fill="#e6e6e6"
           id="path49"
           style="fill:#ecf0fd;fill-opacity:1" />
        <path
           d="m 457.443,371.939 h -15.658 c -0.883,0 -1.6,-1.09 -1.6,-2.434 v -32.847 c 0,-1.343 0.716,-2.432 1.6,-2.434 h 15.658 c 0.883,0 1.6,1.09 1.6,2.434 v 32.847 c 0,1.343 -0.717,2.432 -1.6,2.434 z"
           transform="translate(233.754,-176.959)"
           fill="#e6e6e6"
           id="path50"
           style="fill:#ecf0fd;fill-opacity:1" />
        <path
           d="m 457.443,379.482 h -15.658 c -0.883,0 -1.6,-1.308 -1.6,-2.92 v -39.417 c 0,-1.612 0.716,-2.919 1.6,-2.92 h 15.658 c 0.883,0 1.6,1.308 1.6,2.92 v 39.417 c 0,1.612 -0.717,2.919 -1.6,2.92 z"
           transform="translate(261.754,-184.502)"
           fill="#e6e6e6"
           id="path51"
           style="fill:#ecf0fd;fill-opacity:1" />
        <path
           d="m 457.443,386.739 h -15.658 c -0.883,0 -1.6,-1.518 -1.6,-3.389 v -45.737 c 0,-1.871 0.716,-3.387 1.6,-3.389 h 15.658 c 0.883,0 1.6,1.518 1.6,3.389 v 45.738 c 0,1.871 -0.717,3.387 -1.6,3.389 z"
           transform="translate(289.754,-191.76)"
           fill="#e6e6e6"
           id="path52"
           style="fill:#ecf0fd;fill-opacity:1" />
        <path
           d="m 457.443,392.724 h -15.658 c -0.883,0 -1.6,-1.691 -1.6,-3.775 V 338 c 0,-2.084 0.716,-3.773 1.6,-3.775 h 15.658 c 0.883,0 1.6,1.691 1.6,3.775 v 50.95 c 0,2.084 -0.717,3.772 -1.6,3.775 z"
           transform="translate(317.754,-197.744)"
           fill="#e6e6e6"
           id="path53"
           style="fill:#ecf0fd;fill-opacity:1" />
      </g>
    </g>
  </g>
</svg>
