<?xml version="1.0" encoding="UTF-8" standalone="no"?>
<svg
   viewBox="0 0 313.27881 300"
   version="1.1"
   id="svg4363"
   sodipodi:docname="Speed test-rafiki(1).svg"
   width="313.27881"
   height="300"
   xmlns:inkscape="http://www.inkscape.org/namespaces/inkscape"
   xmlns:sodipodi="http://sodipodi.sourceforge.net/DTD/sodipodi-0.dtd"
   xmlns="http://www.w3.org/2000/svg"
   xmlns:svg="http://www.w3.org/2000/svg">
  <defs
     id="defs4367" />
  <sodipodi:namedview
     id="namedview4365"
     pagecolor="#ffffff"
     bordercolor="#000000"
     borderopacity="0.25"
     inkscape:showpageshadow="2"
     inkscape:pageopacity="0.0"
     inkscape:pagecheckerboard="0"
     inkscape:deskcolor="#d1d1d1"
     showgrid="false" />
  <polygon
     points="200.69,188.24 191.03,188.24 176.31,243.31 186.13,243.31 "
     style="opacity:0.1;isolation:isolate;fill:#ffffff"
     id="polygon4153"
     sodipodi:insensitive="true"
     transform="translate(-66.56528,-77.358206)" />
  <g
     id="g9949"
     transform="matrix(0.80921199,0,0,0.80921199,-46.999032,-50.583003)">
    <g
       id="freepik--background-simple--inject-3"
       style="fill:#f0f0f8;fill-opacity:1">
      <path
         d="M 432.78,215.1 C 417.35,184.96 374.1,211.75 348.2,222.26 244.32,264.39 239.78,125.12 170.2,91.67 70.35,43.67 47.48,210.45 72.13,284.47 118.81,424.74 520.32,386.23 432.78,215.1 Z"
         style="opacity:0.9;fill:#f0f0f8;fill-opacity:1"
         id="path3993" />
      <path
         d="M 432.78,215.1 C 417.35,184.96 374.1,211.75 348.2,222.26 244.32,264.39 239.78,125.12 170.2,91.67 70.35,43.67 47.48,210.45 72.13,284.47 118.81,424.74 520.32,386.23 432.78,215.1 Z"
         style="opacity:0.9;fill:#f0f0f8;fill-opacity:1"
         id="path3995" />
    </g>
    <rect
       x="237.00999"
       y="200.02"
       width="5.6999998"
       height="3.55"
       style="fill:#263238"
       id="rect4027" />
    <rect
       x="275.67001"
       y="200.02"
       width="5.6999998"
       height="3.55"
       style="fill:#263238"
       id="rect4029" />
    <path
       d="m 258,198 a 0.73,0.73 0 0 1 -0.73,0.72 0.72,0.72 0 0 1 -0.72,-0.72 0.73,0.73 0 0 1 0.72,-0.73 0.73,0.73 0 0 1 0.73,0.73 z"
       style="fill:#ffffff"
       id="path4041" />
    <path
       d="m 260.6,198 a 0.72,0.72 0 0 1 -0.72,0.72 0.73,0.73 0 0 1 -0.73,-0.72 0.73,0.73 0 0 1 0.73,-0.73 0.73,0.73 0 0 1 0.72,0.73 z"
       style="fill:#ffffff"
       id="path4043" />
    <path
       d="m 263.19,198 a 0.73,0.73 0 1 1 -0.73,-0.73 0.73,0.73 0 0 1 0.73,0.73 z"
       style="fill:#ffffff"
       id="path4045" />
    <path
       d="m 265.78,198 a 0.73,0.73 0 0 1 -1.46,0 0.73,0.73 0 1 1 1.46,0 z"
       style="fill:#ffffff"
       id="path4047" />
    <path
       d="m 268.36,198 a 0.72,0.72 0 0 1 -0.72,0.72 0.73,0.73 0 0 1 -0.73,-0.72 0.73,0.73 0 0 1 0.73,-0.73 0.73,0.73 0 0 1 0.72,0.73 z"
       style="fill:#ffffff"
       id="path4049" />
    <path
       d="m 197.25,277 h 21.95 l -0.51,-2.38 c -2.34,-6.31 -14.34,-6.31 -14.34,-6.31 -3,0.17 -5.89,3 -6.71,6.85 z"
       style="fill:#191558"
       id="path4051" />
    <path
       d="m 180.19,250.37 h -20 l 2.63,23.06 h 22.06 z"
       style="fill:#263238"
       id="path4053" />
    <path
       d="m 188.74,276.36 h -1 v 0.26 h -37.46 v -3.19 h 34.57 l -4.66,-23.06 h -20 l -1.11,-9.78 a 2.51,2.51 0 0 1 2.5,-2.39 h 17.16 a 2.52,2.52 0 0 1 2.52,2.39 z"
       style="fill:#263238"
       id="path4055" />
    <polygon
       points="162.79,273.43 160.37,252.19 160.16,250.37 180.19,250.37 184.85,273.43 "
       style="fill:#191558"
       id="polygon4057" />
    <polygon
       points="183.28,250.37 184.89,258.05 161.09,258.05 160.16,250.37 "
       style="opacity:0.1"
       id="polygon4059" />
    <path
       d="m 127,274.11 h -2.62 a 0.48,0.48 0 0 1 -0.5,-0.46 v -2.53 a 0.48,0.48 0 0 1 0.5,-0.46 h 1.88 a 0.5,0.5 0 0 1 0.48,0.34 l 0.74,2.53 a 0.48,0.48 0 0 1 -0.48,0.58 z"
       style="fill:#263238"
       id="path4061" />
    <path
       d="M 130.6,274.11 H 128 a 0.48,0.48 0 0 1 -0.5,-0.46 v -2.53 a 0.48,0.48 0 0 1 0.5,-0.46 h 1.88 a 0.5,0.5 0 0 1 0.48,0.34 l 0.74,2.53 a 0.48,0.48 0 0 1 -0.5,0.58 z"
       style="fill:#263238"
       id="path4063" />
    <path
       d="m 134.22,274.11 h -2.62 a 0.48,0.48 0 0 1 -0.5,-0.46 v -2.53 a 0.48,0.48 0 0 1 0.5,-0.46 h 1.88 a 0.5,0.5 0 0 1 0.48,0.34 l 0.74,2.53 a 0.48,0.48 0 0 1 -0.48,0.58 z"
       style="fill:#263238"
       id="path4065" />
    <path
       d="m 137.84,274.11 h -2.62 a 0.48,0.48 0 0 1 -0.5,-0.46 v -2.53 a 0.48,0.48 0 0 1 0.5,-0.46 h 1.88 a 0.5,0.5 0 0 1 0.48,0.34 l 0.74,2.53 a 0.48,0.48 0 0 1 -0.48,0.58 z"
       style="fill:#263238"
       id="path4067" />
    <path
       d="m 141.45,274.11 h -2.61 a 0.48,0.48 0 0 1 -0.5,-0.46 v -2.53 a 0.48,0.48 0 0 1 0.5,-0.46 h 1.88 a 0.5,0.5 0 0 1 0.48,0.34 l 0.74,2.53 a 0.48,0.48 0 0 1 -0.49,0.58 z"
       style="fill:#263238"
       id="path4069" />
    <path
       d="m 145.07,274.11 h -2.61 a 0.48,0.48 0 0 1 -0.5,-0.46 v -2.53 a 0.48,0.48 0 0 1 0.5,-0.46 h 1.88 a 0.5,0.5 0 0 1 0.48,0.34 l 0.74,2.53 a 0.48,0.48 0 0 1 -0.49,0.58 z"
       style="fill:#263238"
       id="path4071" />
    <path
       d="m 148.69,274.11 h -2.62 a 0.49,0.49 0 0 1 -0.5,-0.46 v -2.53 a 0.49,0.49 0 0 1 0.5,-0.46 H 148 a 0.5,0.5 0 0 1 0.48,0.34 l 0.74,2.53 a 0.48,0.48 0 0 1 -0.53,0.58 z"
       style="fill:#263238"
       id="path4073" />
    <path
       d="m 152.31,274.11 h -2.62 a 0.49,0.49 0 0 1 -0.5,-0.46 v -2.53 a 0.49,0.49 0 0 1 0.5,-0.46 h 1.89 a 0.5,0.5 0 0 1 0.48,0.34 l 0.74,2.53 a 0.48,0.48 0 0 1 -0.49,0.58 z"
       style="fill:#263238"
       id="path4075" />
    <path
       d="m 155.93,274.11 h -2.62 a 0.49,0.49 0 0 1 -0.5,-0.46 v -2.53 a 0.49,0.49 0 0 1 0.5,-0.46 h 1.88 a 0.5,0.5 0 0 1 0.49,0.34 l 0.74,2.53 a 0.48,0.48 0 0 1 -0.49,0.58 z"
       style="fill:#263238"
       id="path4077" />
    <path
       d="m 159.55,274.11 h -2.62 a 0.49,0.49 0 0 1 -0.5,-0.46 v -2.53 a 0.49,0.49 0 0 1 0.5,-0.46 h 1.88 a 0.5,0.5 0 0 1 0.49,0.34 l 0.74,2.53 a 0.48,0.48 0 0 1 -0.49,0.58 z"
       style="fill:#263238"
       id="path4079" />
    <path
       d="m 163.17,274.11 h -2.62 a 0.49,0.49 0 0 1 -0.5,-0.46 v -2.53 a 0.49,0.49 0 0 1 0.5,-0.46 h 1.88 a 0.5,0.5 0 0 1 0.49,0.34 l 0.74,2.53 a 0.48,0.48 0 0 1 -0.49,0.58 z"
       style="fill:#263238"
       id="path4081" />
    <path
       d="m 166.79,274.11 h -2.62 a 0.49,0.49 0 0 1 -0.5,-0.46 v -2.53 a 0.49,0.49 0 0 1 0.5,-0.46 h 1.88 a 0.5,0.5 0 0 1 0.49,0.34 l 0.74,2.53 a 0.48,0.48 0 0 1 -0.49,0.58 z"
       style="fill:#263238"
       id="path4083" />
    <path
       d="m 170.41,274.11 h -2.62 a 0.49,0.49 0 0 1 -0.5,-0.46 v -2.53 a 0.49,0.49 0 0 1 0.5,-0.46 h 1.88 a 0.5,0.5 0 0 1 0.49,0.34 l 0.74,2.53 a 0.48,0.48 0 0 1 -0.49,0.58 z"
       style="fill:#263238"
       id="path4085" />
    <path
       d="m 174,274.11 h -2.62 a 0.49,0.49 0 0 1 -0.5,-0.46 v -2.53 a 0.49,0.49 0 0 1 0.5,-0.46 h 1.88 a 0.5,0.5 0 0 1 0.49,0.34 l 0.74,2.53 a 0.48,0.48 0 0 1 -0.49,0.58 z"
       style="fill:#263238"
       id="path4087" />
    <path
       d="M 177.65,274.11 H 175 a 0.49,0.49 0 0 1 -0.5,-0.46 v -2.53 a 0.49,0.49 0 0 1 0.5,-0.46 h 1.88 a 0.5,0.5 0 0 1 0.49,0.34 l 0.73,2.53 a 0.47,0.47 0 0 1 -0.45,0.58 z"
       style="fill:#263238"
       id="path4089" />
    <path
       d="m 180.29,274.38 a 2.1,2.1 0 0 1 -2.18,2 h -54.2 a 2.09,2.09 0 0 1 -2.18,-2 1.89,1.89 0 0 1 0.64,-1.41 2.26,2.26 0 0 1 1.49,-0.58 h 54.25 a 2.35,2.35 0 0 1 0.6,0.08 2,2 0 0 1 1.58,1.91 z"
       style="fill:#263238"
       id="path4091" />
    <path
       d="m 180.29,274.38 a 2.1,2.1 0 0 1 -2.18,2 h -54.2 a 2.09,2.09 0 0 1 -2.18,-2 1.89,1.89 0 0 1 0.64,-1.41 2.26,2.26 0 0 1 1.49,-0.58 h 54.25 a 2.35,2.35 0 0 1 0.6,0.08 2,2 0 0 1 1.58,1.91 z"
       style="opacity:0.2;fill:#ffffff"
       id="path4093" />
    <path
       d="m 180.29,274.38 a 2.1,2.1 0 0 1 -2.18,2 h -18.35 a 2,2 0 0 1 -1.52,-1.9 1.37,1.37 0 0 1 0,-0.36 1.85,1.85 0 0 1 0.61,-1.05 2.43,2.43 0 0 1 0.46,-0.33 l 0.26,-0.12 a 2.54,2.54 0 0 1 0.83,-0.14 h 18.27 a 2,2 0 0 1 1.62,1.9 z"
       style="fill:#263238"
       id="path4095" />
    <path
       d="m 218.73,185.6 h -5.54 L 207,253.15 h 5.53 a 2,2 0 0 0 1.84,-1.92 l 5.87,-63.71 a 1.62,1.62 0 0 0 -1.51,-1.92 z"
       style="fill:#263238"
       id="path4097" />
    <path
       d="m 210.16,253.15 h -83 a 1.62,1.62 0 0 1 -1.48,-1.92 l 5.87,-63.71 a 2,2 0 0 1 1.84,-1.92 h 83 a 1.62,1.62 0 0 1 1.48,1.92 L 212,251.23 a 2,2 0 0 1 -1.84,1.92 z"
       style="fill:#191558"
       id="path4099" />
    <path
       d="m 210.16,253.15 h -83 a 1.62,1.62 0 0 1 -1.48,-1.92 l 5.87,-63.71 a 2,2 0 0 1 1.84,-1.92 h 83 a 1.62,1.62 0 0 1 1.48,1.92 L 212,251.23 a 2,2 0 0 1 -1.84,1.92 z"
       style="opacity:0.2;fill:#ffffff"
       id="path4101" />
    <polygon
       points="136.45,191.81 211.84,191.81 207.66,239.6 132.27,239.6 "
       style="opacity:0.504082;fill:#ccc9f2;fill-opacity:1"
       id="polygon4103" />
    <polygon
       points="173.61,243.31 188.18,188.24 183.39,188.24 168.66,243.31 "
       style="opacity:0.1;isolation:isolate;fill:#ffffff"
       id="polygon4151" />
    <path
       d="M 143.38,288.13 H 150 l 10.67,126.34 a 2.41,2.41 0 0 1 -2.41,2.62 v 0 a 2.41,2.41 0 0 1 -2.4,-2.18 z"
       style="fill:#263238"
       id="path4155" />
    <path
       d="m 303.49,287.25 h 6.66 l 10.67,127.22 a 2.42,2.42 0 0 1 -2.41,2.62 v 0 a 2.42,2.42 0 0 1 -2.4,-2.18 z"
       style="fill:#263238"
       id="path4157" />
    <rect
       x="109.45"
       y="287.25"
       width="198.72"
       height="22.41"
       style="fill:#191558"
       id="rect4159" />
    <polygon
       points="308.17,309.66 308.17,287.25 273.26,287.42 272.49,309.64 "
       style="opacity:0.3"
       id="polygon4161" />
    <rect
       x="109.47"
       y="287.42001"
       width="160.77"
       height="22.41"
       style="opacity:0.2"
       id="rect4163" />
    <path
       d="m 113.83,287.25 h -6.66 L 107,423.11 a 2.41,2.41 0 0 0 2.42,2.42 v 0 a 2.42,2.42 0 0 0 2.42,-2.38 z"
       style="fill:#263238"
       id="path4165" />
    <path
       d="m 273.94,287.25 h -6.66 l -0.2,135.86 a 2.42,2.42 0 0 0 2.42,2.42 v 0 a 2.41,2.41 0 0 0 2.42,-2.38 z"
       style="fill:#263238"
       id="path4167" />
    <path
       d="M 107.17,287.25 107,423.11 a 2.41,2.41 0 0 0 2.42,2.42 v 0 a 2.42,2.42 0 0 0 2.42,-2.38 l 2,-135.9 z"
       style="opacity:0.2;fill:#ffffff"
       id="path4169" />
    <path
       d="m 273.94,287.25 h -6.66 l -0.2,135.86 a 2.42,2.42 0 0 0 2.42,2.42 v 0 a 2.41,2.41 0 0 0 2.42,-2.38 z"
       style="opacity:0.2;fill:#ffffff"
       id="path4171" />
    <path
       d="m 101.63,281.87 v 0 c 0,-3 1.12,-5.47 2.51,-5.48 h 209 c 1.39,0 2.51,2.46 2.51,5.48 v 0 c 0,3 -1.12,5.46 -2.51,5.47 h -209 c -1.39,-0.01 -2.51,-2.45 -2.51,-5.47 z"
       style="fill:#263238"
       id="path4173" />
    <path
       d="m 101.63,281.87 v 0 c 0,-3 1.12,-5.47 2.51,-5.48 h 209 c 1.39,0 2.51,2.46 2.51,5.48 v 0 c 0,3 -1.12,5.46 -2.51,5.47 h -209 c -1.39,-0.01 -2.51,-2.45 -2.51,-5.47 z"
       style="opacity:0.1;fill:#ffffff"
       id="path4175" />
    <path
       d="m 261.73,281.87 v 0 c 0,-3 1.13,-5.47 2.52,-5.48 h 48.93 c 1.39,0 2.51,2.46 2.51,5.48 v 0 c 0,3 -1.12,5.46 -2.51,5.47 h -48.93 c -1.39,-0.01 -2.51,-2.45 -2.52,-5.47 z"
       style="fill:#263238"
       id="path4177" />
    <path
       d="m 213,267.61 c -15.94,0 -22.13,-14.5 -22.2,-14.67 l 1.25,-0.52 c 0.32,0.78 8.12,18.93 29.67,12.46 21.85,-6.57 39.22,-53.08 39.39,-53.55 l 1.27,0.47 c -0.72,1.94 -17.78,47.61 -40.27,54.37 a 31.37,31.37 0 0 1 -9.11,1.44 z"
       style="fill:#263238"
       id="path4179" />
    <rect
       x="255.11"
       y="203.42"
       width="31.950001"
       height="73.529999"
       style="fill:#263238"
       id="rect4181" />
    <rect
       x="255.11"
       y="203.42"
       width="31.950001"
       height="73.529999"
       style="opacity:0.3"
       id="rect4183" />
    <rect
       x="232.25999"
       y="203.42"
       width="31.950001"
       height="73.529999"
       style="fill:#263238"
       id="rect4185" />
    <path
       d="m 254,219.1 a 6.54,6.54 0 1 1 -6.53,-6.54 6.53,6.53 0 0 1 6.53,6.54 z"
       style="fill:#efeff8;fill-opacity:0.992157"
       id="path4187" />
    <path
       d="m 251.38,219.15 a 3.91,3.91 0 1 1 -3.91,-3.91 3.91,3.91 0 0 1 3.91,3.91 z"
       style="fill:#191558"
       id="path4189" />
    <path
       d="m 250.73,236.71 a 3.27,3.27 0 1 1 -3.26,-3.27 3.27,3.27 0 0 1 3.26,3.27 z"
       style="fill:#efeff8;fill-opacity:0.992157"
       id="path4191" />
    <path
       d="m 249.42,236.74 a 2,2 0 1 1 -1.95,-2 1.95,1.95 0 0 1 1.95,2 z"
       style="fill:#191558"
       id="path4193" />
    <rect
       x="246.96001"
       y="223.06"
       width="1.01"
       height="11.72"
       style="fill:#efeff8;fill-opacity:0.992157"
       id="rect4195" />
    <rect
       x="234.61"
       y="246.00999"
       width="27.26"
       height="27.26"
       style="opacity:0.3"
       id="rect4197" />
    <path
       d="m 250.13,261.45 a 1.61,1.61 0 1 1 -1.61,-1.61 1.61,1.61 0 0 1 1.61,1.61 z"
       style="fill:#263238"
       id="path4199" />
    <path
       d="m 248.52,259.84 c -0.16,-3.89 9.21,-12 3,-12 -6.21,0 -10.33,4.4 -10.09,7 0.24,2.6 7.09,5 7.09,5 z"
       style="fill:#263238"
       id="path4201" />
    <path
       d="m 248.54,263.18 c -3.74,1.07 -13.81,-6.15 -12.35,-0.07 1.46,6.08 6.7,9 9.14,8.18 2.44,-0.82 3.21,-8.11 3.21,-8.11 z"
       style="fill:#263238"
       id="path4203" />
    <path
       d="m 250.26,260.59 c 3.18,2.25 3.87,14.62 7.68,9.67 3.81,-4.95 2.83,-10.87 0.65,-12.25 -2.18,-1.38 -8.33,2.58 -8.33,2.58 z"
       style="fill:#263238"
       id="path4205" />
    <g
       id="freepik--Character--inject-3">
      <polygon
         points="172.62,386.51 161.56,390.44 166.35,410.43 175.34,407.75 "
         style="fill:#ffc4bd;fill-opacity:1"
         id="polygon4214" />
      <polygon
         points="173.74,395.46 163.38,398.36 160.32,384.52 171.99,380.18 "
         style="opacity:0.2;isolation:isolate"
         id="polygon4216" />
      <path
         d="M 176.11,406.23 165.86,409 a 0.78,0.78 0 0 0 -0.53,0.91 l 1.55,9.76 a 1.75,1.75 0 0 0 2,1.49 c 3.54,-1 5.21,-1.74 9.71,-3 2.77,-0.76 9.1,-2.56 13,-3.27 3.9,-0.71 3.09,-5.25 1.38,-5.37 -7.67,-0.47 -12.07,-1.39 -15.16,-3.1 a 2.29,2.29 0 0 0 -1.7,-0.19 z"
         style="fill:#263238"
         id="path4218" />
      <path
         d="m 182.51,406.8 a 1.25,1.25 0 0 0 0,-1.24 0.79,0.79 0 0 0 -0.64,-0.48 c -1.21,-0.16 -3.39,2.21 -3.63,2.49 a 0.21,0.21 0 0 0 0,0.23 0.21,0.21 0 0 0 0.19,0.13 11.94,11.94 0 0 0 2.46,-0.25 2.64,2.64 0 0 0 1.62,-0.88 z m -0.75,-1.29 a 0.4,0.4 0 0 1 0.3,0.25 0.8,0.8 0 0 1 0.06,0.79 c -0.33,0.53 -1.52,0.82 -3.24,0.94 0.91,-0.93 2.24,-2.07 2.88,-1.98 z"
         style="fill:#191558"
         id="path4220" />
      <path
         d="m 178.53,407.87 c 0.77,-0.76 1.68,-3 1.23,-3.94 a 0.82,0.82 0 0 0 -0.92,-0.46 1,1 0 0 0 -0.83,0.52 c -0.72,1.1 0.14,3.68 0.15,3.8 a 0.29,0.29 0 0 0 0.16,0.15 h 0.1 a 0.24,0.24 0 0 0 0.11,-0.07 z m 0.36,-4 c 0.32,0 0.47,0.09 0.48,0.22 a 4.47,4.47 0 0 1 -0.9,3.15 4.87,4.87 0 0 1 -0.1,-3 0.64,0.64 0 0 1 0.41,-0.31 z"
         style="fill:#191558"
         id="path4222" />
      <path
         d="m 120.8,295.3 c 0,0 53.25,4.49 51.94,27.62 -1.07,18.93 -3.88,13.78 1.63,70.06 l -13.39,0.74 c 0,0 -13.62,-46 -11.79,-64.32 -15,0 -49.36,1.31 -54.36,-12.23 a 60.32,60.32 0 0 1 -3.55,-21.45 z"
         style="fill:#263238"
         id="path4224" />
      <polygon
         points="176.07,385.57 157.95,389.6 158.85,396.31 176.35,393.31 "
         style="fill:#191558"
         id="polygon4226" />
      <polygon
         points="203.62,388.62 193.29,394.19 201.08,413.21 209.55,409.19 "
         style="fill:#ffc4bd;fill-opacity:1"
         id="polygon4228" />
      <polygon
         points="206.09,397.29 196.3,401.74 191.16,388.53 202.03,382.46 "
         style="opacity:0.2;isolation:isolate"
         id="polygon4230" />
      <path
         d="m 210.08,407.57 -9.7,4.31 a 0.79,0.79 0 0 0 -0.39,1 l 3,9.41 a 1.74,1.74 0 0 0 2.22,1.16 c 3.35,-1.57 4.88,-2.52 9.14,-4.41 2.63,-1.17 8.61,-3.92 12.34,-5.21 3.73,-1.29 2.25,-5.66 0.55,-5.52 -7.65,0.71 -12.15,0.47 -15.45,-0.75 a 2.35,2.35 0 0 0 -1.71,0.01 z"
         style="fill:#263238"
         id="path4232" />
      <path
         d="m 216.49,407.16 a 1.25,1.25 0 0 0 -0.21,-1.22 0.74,0.74 0 0 0 -0.7,-0.37 c -1.23,0 -3,2.7 -3.21,3 a 0.22,0.22 0 0 0 0,0.23 0.2,0.2 0 0 0 0.21,0.09 11.76,11.76 0 0 0 2.4,-0.62 2.63,2.63 0 0 0 1.51,-1.11 z M 215.55,406 a 0.41,0.41 0 0 1 0.34,0.21 0.77,0.77 0 0 1 0.17,0.77 c -0.23,0.57 -1.37,1 -3.05,1.41 0.75,-1.05 1.9,-2.39 2.54,-2.39 z"
         style="fill:#191558"
         id="path4234" />
      <path
         d="m 212.72,408.83 c 0.65,-0.87 1.21,-3.22 0.62,-4.09 a 0.85,0.85 0 0 0 -1,-0.31 1.08,1.08 0 0 0 -0.74,0.64 c -0.54,1.2 0.71,3.62 0.73,3.73 a 0.25,0.25 0 0 0 0.18,0.12 h 0.1 a 0.23,0.23 0 0 0 0.11,-0.09 z m -0.25,-4 c 0.31,-0.08 0.48,0 0.5,0.14 a 4.43,4.43 0 0 1 -0.4,3.25 4.86,4.86 0 0 1 -0.56,-3 0.58,0.58 0 0 1 0.36,-0.36 z"
         style="fill:#191558"
         id="path4236" />
      <path
         d="m 136.65,295.3 c 0.35,0 59.69,6.11 59.76,26.24 0.13,33.28 9.64,71.44 9.64,71.44 l -11.73,5.81 c 0,0 -20.42,-41.37 -20.11,-67.31 -16.33,-4.69 -58.56,3.18 -63.55,-10.35 -4.09,-11.06 -1.88,-25.83 -1.88,-25.83 z"
         style="opacity:1;fill:#263238"
         id="path4238" />
      <polygon
         points="206.9,386.96 190.32,392.69 192.44,400.47 208.16,393.4 "
         style="fill:#191558"
         id="polygon4240" />
      <path
         d="m 110.24,224.27 c -1.73,3.27 -3.17,6.43 -4.63,9.72 -1.46,3.29 -2.75,6.58 -4,10 -1.25,3.42 -2.31,6.86 -3.23,10.48 a 55.55,55.55 0 0 0 -1.77,11.47 23.69,23.69 0 0 0 0.67,6.76 14.66,14.66 0 0 0 1.58,3.87 12.06,12.06 0 0 0 1.42,1.92 l 0.43,0.47 c 0.25,0.22 0.51,0.47 0.77,0.66 a 8.17,8.17 0 0 0 1.38,0.86 11.32,11.32 0 0 0 2.25,0.85 15.08,15.08 0 0 0 1.87,0.37 24.87,24.87 0 0 0 3.23,0.16 45.82,45.82 0 0 0 5.74,-0.34 108.51,108.51 0 0 0 20.89,-4.86 l -1.24,-5.92 c -6.78,0.46 -13.7,1 -20.19,0.94 -1.62,-0.08 -3.19,-0.08 -4.65,-0.23 a 14.18,14.18 0 0 1 -1.93,-0.34 c -0.52,-0.13 -1,-0.34 -0.81,-0.32 a 1.18,1.18 0 0 1 0.29,0.16 1.61,1.61 0 0 1 0.28,0.24 v 0 a 1.09,1.09 0 0 1 -0.08,-0.19 4,4 0 0 1 -0.27,-1 14.55,14.55 0 0 1 -0.11,-3.55 46.92,46.92 0 0 1 1.8,-8.94 c 0.89,-3.15 2,-6.2 3.15,-9.3 1.15,-3.1 2.44,-6.19 3.81,-9.27 1.37,-3.08 2.8,-6.16 4.2,-9.06 z"
         style="fill:#ff8b7b"
         id="path4242" />
      <path
         d="m 132.61,272.14 7.23,-3.6 3.15,7.8 c 0,0 -8.4,3 -10,0.78 z"
         style="fill:#ffc4bd;fill-opacity:1"
         id="path4244" />
      <polygon
         points="142.99,276.28 139.84,268.49 145.46,270.27 148.42,275.53 "
         style="fill:#ffc4bd;fill-opacity:1"
         id="polygon4246" />
      <path
         d="m 131.74,237.45 c 1.35,3.39 -0.13,-0.45 1.36,2.83 1.49,3.28 3,6.51 4.54,9.74 a 187.56,187.56 0 0 0 10.62,19.12 c 1.07,1.57 2.13,3.13 3.32,4.69 0.59,0.79 1.25,1.56 1.95,2.36 0.38,0.4 0.69,0.78 1.14,1.19 l 0.64,0.62 0.36,0.34 a 9.06,9.06 0 0 0 3.48,1.84 14.83,14.83 0 0 0 2.06,0.44 21.75,21.75 0 0 0 3.42,0.14 43.21,43.21 0 0 0 5.89,-0.59 108.42,108.42 0 0 0 21,-6 l 0.05,-7.48 c -6.87,0.83 -13.89,1.71 -20.49,2 a 45.67,45.67 0 0 1 -4.68,-0.06 11.81,11.81 0 0 1 -1.86,-0.3 2.78,2.78 0 0 1 -0.57,-0.21 c -0.06,0 0,-0.08 0.29,0.1 a 1.18,1.18 0 0 1 0.28,0.22 l -0.1,-0.13 -0.3,-0.33 c -0.19,-0.19 -0.43,-0.51 -0.65,-0.77 -0.43,-0.55 -0.88,-1.14 -1.33,-1.79 -0.88,-1.27 -1.74,-2.67 -2.59,-4.09 -1.7,-2.85 -3.28,-5.87 -4.83,-8.93 -1.55,-3.06 -3,-6.18 -4.5,-9.33 -2.92,-6.26 -2.89,-5.61 -5.6,-11.93 z"
         style="fill:#ffc4bd;fill-opacity:1"
         id="path4248" />
      <path
         d="m 187.16,267.78 9.63,-2 3.78,10.45 c 0,0 -11.11,1.11 -13.16,-1.91 z"
         style="fill:#ffc4bd;fill-opacity:1"
         id="path4250" />
      <polygon
         points="200.57,276.22 196.79,265.77 204.11,268.41 207.77,275.48 "
         style="fill:#ffc4bd;fill-opacity:1"
         id="polygon4252" />
      <path
         d="m 112.19,201.29 5.24,5.47 7.15,7.45 a 8.55,8.55 0 0 0 -1.25,2.85 c -0.64,2.23 -1.18,3.87 3.66,6 a 2.91,2.91 0 0 1 1.81,2.58 c 0,1.38 -1.08,2.88 -5.88,3 a 21.69,21.69 0 0 1 -12.84,-4.28 c -1.83,-1.29 -1.65,-2.48 -0.51,-4.36 3.43,-5.33 3.29,-12.8 2.62,-18.71 z"
         style="fill:#cc9d97;fill-opacity:1"
         id="path4258" />
      <path
         d="m 136.59,204.52 a 13.34,13.34 0 0 1 -7.82,8.84 12.25,12.25 0 0 1 -4,0.92 11.41,11.41 0 0 1 -9,-3.68 c -4.55,-4.83 -4.25,-10.27 -4.55,-19.54 a 13,13 0 0 1 1,-5.49 12.91,12.91 0 0 1 16.78,-6.94 c 9,3.8 9.82,17.58 7.59,25.89 z"
         style="fill:#ffc4bd;fill-opacity:1"
         id="path4262" />
      <path
         d="m 128.77,213.36 a 12.25,12.25 0 0 1 -4,0.92 l -0.16,-0.06 0.88,-1.73 c 0,0 0.51,1.51 3.28,0.87 z"
         style="opacity:0.2"
         id="path4264" />
      <path
         d="m 129,196.88 c -1.62,2.74 -3.6,5.42 -4,8.58 -0.19,1.32 -10.25,3.29 -12.66,0.77 a 22,22 0 0 1 -4.87,-9.17 23.76,23.76 0 0 1 -0.67,-12.72 11.24,11.24 0 0 1 3.85,-6.23 6.83,6.83 0 0 1 7,-0.87 14.73,14.73 0 0 1 22.75,13.61 1.35,1.35 0 0 1 -0.31,0.88 1.46,1.46 0 0 1 -1.15,0.2 l -5.72,-0.69 c -0.72,-0.08 -1.6,-0.32 -1.73,-1 -0.08,-0.45 -0.56,-2.78 -0.58,-3.12 z"
         style="fill:#263238"
         id="path4268" />
      <path
         d="m 122.73,196 a 8.48,8.48 0 0 0 3.27,5.1 c 2.17,1.57 4.35,-0.66 4.34,-3.29 0,-2.37 -1.58,-5.64 -4,-6.16 -2.42,-0.52 -4.12,1.82 -3.61,4.35 z"
         style="fill:#ffc4bd;fill-opacity:1"
         id="path4270" />
      <path
         d="m 114.78,173.2 a 3.08,3.08 0 0 1 3,2 c 0.28,0.71 0.55,2.44 -0.25,2.81 a 26.41,26.41 0 0 0 -2.75,-4.81 z"
         style="fill:#263238"
         id="path4273" />
      <path
         d="m 94.6,224.31 c 0.8,-2.12 4.51,-4.25 6.8,-4.25 h 1.51 a 83.11,83.11 0 0 1 9.1,0.59 161.84,161.84 0 0 1 18,3 c 2.74,0.73 5.39,1.64 7.49,2.43 2.68,1.06 4.25,1.77 4.25,1.77 0,0 -2.93,19.53 -4.45,38.92 -0.84,10.79 -0.5,21.51 -0.76,28.88 H 91.28 c -1.57,-8.85 -1.32,-16.58 -1.45,-32.57 -0.07,-9.58 1.49,-30.03 4.77,-38.77 z"
         style="fill:#191558"
         id="path4275" />
      <path
         d="m 138.33,256 c -0.34,4.07 -0.69,8.34 -1.06,12.61 -5.31,-7.76 -8.26,-29 -8.26,-29 z"
         style="opacity:0.2;isolation:isolate"
         id="path4277" />
      <path
         d="m 144.36,229.31 c 6.49,3.65 12.85,22.35 12.85,22.35 l -14.86,11.21 c -5.67,-5.36 -14,-18.67 -14.87,-24 -1.48,-8.16 6.52,-15.38 16.88,-9.56 z"
         style="fill:#191558"
         id="path4279" />
      <path
         d="m 157.18,428.64 a 4.62,4.62 0 1 0 4.62,-4.64 4.62,4.62 0 0 0 -4.62,4.62 z"
         style="fill:#263238"
         id="path4281" />
      <path
         d="m 88.26,428.64 a 4.62,4.62 0 1 1 -4.62,-4.64 4.62,4.62 0 0 1 4.62,4.62 z"
         style="fill:#263238"
         id="path4283" />
      <path
         d="m 127.22,427.16 a 4.62,4.62 0 1 1 -4.62,-4.62 4.62,4.62 0 0 1 4.62,4.62 z"
         style="fill:#263238"
         id="path4285" />
      <path
         d="m 124,421.46 v -8.94 h 13.23 a 42.72,42.72 0 0 1 7.74,0.73 l 24.68,4.75 a 2.24,2.24 0 0 1 -0.5,4.44 z"
         style="fill:#263238"
         id="path4287" />
      <path
         d="m 124,421.46 v -8.94 h -13.21 a 41.84,41.84 0 0 0 -7.74,0.73 l -27.7,4.42 a 2.25,2.25 0 0 0 -1.77,2.63 2.23,2.23 0 0 0 2.27,1.81 z"
         style="fill:#263238"
         id="path4289" />
      <rect
         x="115.85"
         y="368.07001"
         width="16.389999"
         height="47.169998"
         style="fill:#263238"
         id="rect4291" />
      <rect
         x="118.19"
         y="338.17999"
         width="11.68"
         height="30.120001"
         style="fill:#263238"
         id="rect4293" />
      <polygon
         points="118.19,338.18 129.88,338.18 129.88,343.76 118.19,346.71 "
         style="opacity:0.5;isolation:isolate"
         id="polygon4295" />
      <rect
         x="161.8"
         y="295.14001"
         width="5.9400001"
         height="25.33"
         style="fill:#191558"
         id="rect4297" />
      <rect
         x="161.8"
         y="295.14001"
         width="5.9400001"
         height="25.33"
         style="opacity:0.273469;fill:#ffffff"
         id="rect4299" />
      <path
         d="M 132,338.18 V 228.06 a 14.48,14.48 0 0 0 -4.94,-10.89 l -7.85,-6.87 a 14.43,14.43 0 0 0 -9.52,-3.58 H 81.37 l -13.85,14.74 v 116.72 z"
         style="fill:#191558"
         id="path4301" />
      <path
         d="m 174.25,316.87 h -64.68 v 21.31 h 75.22 a 7.65,7.65 0 0 0 6.58,-11.55 v 0 a 19.89,19.89 0 0 0 -17.12,-9.76 z"
         style="fill:#191558"
         id="path4303" />
      <path
         d="m 67.51,221.47 v 116.71 h 117.28 a 7.65,7.65 0 0 0 6.59,-11.54 19.86,19.86 0 0 0 -17.09,-9.76 H 141.71 A 9.67,9.67 0 0 1 132,307.2 v -79.15 a 14.44,14.44 0 0 0 -4.94,-10.87 l -7.85,-6.88 a 14.45,14.45 0 0 0 -9.53,-3.57 H 81.37 Z"
         style="opacity:0.277;fill:#ffffff"
         id="path4305" />
      <path
         d="M 122.6,338.18 V 228.06 a 14.48,14.48 0 0 0 -4.94,-10.89 l -7.84,-6.87 a 14.48,14.48 0 0 0 -9.53,-3.58 h -22.1 a 14.46,14.46 0 0 0 -10.54,4.56 l -5.65,6 a 14.45,14.45 0 0 0 -3.92,9.9 v 100 a 11,11 0 0 0 11,11 z"
         style="fill:#141146;fill-opacity:1"
         id="path4307" />
      <path
         d="m 144.61,302.87 a 61.25,61.25 0 0 1 40.36,0 5.72,5.72 0 0 0 7.1,-2.71 v 0 c 1.21,-2.56 -0.41,-5.87 -3.7,-7 a 71.49,71.49 0 0 0 -47.14,0 c -3.29,1.15 -4.92,4.47 -3.71,7 v 0 a 5.74,5.74 0 0 0 7.09,2.71 z"
         style="fill:#191558"
         id="path4311" />
      <path
         d="m 144.61,302.87 a 61.25,61.25 0 0 1 40.36,0 5.72,5.72 0 0 0 7.1,-2.71 v 0 c 1.21,-2.56 -0.41,-5.87 -3.7,-7 a 71.49,71.49 0 0 0 -47.14,0 c -3.29,1.15 -4.92,4.47 -3.71,7 v 0 a 5.74,5.74 0 0 0 7.09,2.71 z"
         style="opacity:0.271429;fill:#ffffff"
         id="path4313" />
    </g>
    <g
       id="freepik--Speedometer--inject-3">
      <path
         d="m 443.29,144.13 v 0 -0.3 a 1.45,1.45 0 0 1 0,0.3 z"
         style="fill:#191558"
         id="path4316" />
      <path
         d="m 313.78,103 a 72,72 0 0 0 -21.63,31.51 l -5.1,-0.29 a 84.66,84.66 0 0 1 17,-38 z"
         style="fill:#191558"
         id="path4318" />
      <path
         d="m 313.78,103 a 72,72 0 0 0 -21.63,31.51 l -5.1,-0.29 a 84.66,84.66 0 0 1 17,-38 z"
         style="opacity:0.55;fill:#ffffff"
         id="path4320" />
      <path
         d="M 344,87.68 A 72.08,72.08 0 0 0 313.78,103 L 304,96.27 a 89.4,89.4 0 0 1 32.72,-25.95 z"
         style="fill:#191558"
         id="path4322" />
      <path
         d="M 344,87.68 A 72.08,72.08 0 0 0 313.78,103 L 304,96.27 a 89.4,89.4 0 0 1 32.72,-25.95 z"
         style="opacity:0.45;fill:#ffffff"
         id="path4324" />
      <path
         d="M 376.48,62.64 372.9,87.39 A 63.33,63.33 0 0 0 362.17,86 66.89,66.89 0 0 0 344,87.68 l -7.29,-17.36 a 82.94,82.94 0 0 1 38.57,-7.74 z"
         style="fill:#191558"
         id="path4326" />
      <path
         d="M 376.48,62.64 372.9,87.39 A 63.33,63.33 0 0 0 362.17,86 66.89,66.89 0 0 0 344,87.68 l -7.29,-17.36 a 82.94,82.94 0 0 1 38.57,-7.74 z"
         style="opacity:0.35;fill:#ffffff"
         id="path4328" />
      <path
         d="M 413.24,74.87 396,98 A 58.5,58.5 0 0 0 372.9,87.39 l 3.58,-24.75 a 73,73 0 0 1 36.76,12.23 z"
         style="fill:#191558"
         id="path4330" />
      <path
         d="M 413.24,74.87 396,98 A 58.5,58.5 0 0 0 372.9,87.39 l 3.58,-24.75 a 73,73 0 0 1 36.76,12.23 z"
         style="opacity:0.28;fill:#ffffff"
         id="path4332" />
      <path
         d="M 437.75,104.07 411.8,116.5 A 57,57 0 0 0 396,98 l 17.28,-23.08 a 69.47,69.47 0 0 1 24.47,29.15 z"
         style="fill:#191558"
         id="path4334" />
      <path
         d="M 437.75,104.07 411.8,116.5 A 57,57 0 0 0 396,98 l 17.28,-23.08 a 69.47,69.47 0 0 1 24.47,29.15 z"
         style="opacity:0.18;fill:#ffffff"
         id="path4336" />
      <path
         d="m 443.42,143.11 -24.77,-1.4 A 59,59 0 0 0 411.8,116.5 l 25.95,-12.43 a 73.65,73.65 0 0 1 5.67,39.04 z"
         style="fill:#191558"
         id="path4338" />
      <path
         d="m 443.42,143.11 -24.77,-1.4 A 59,59 0 0 0 411.8,116.5 l 25.95,-12.43 a 73.65,73.65 0 0 1 5.67,39.04 z"
         style="opacity:0.08;fill:#ffffff"
         id="path4340" />
      <path
         d="m 443.34,143.83 a 1.45,1.45 0 0 1 0,0.3 c -1,7 -4.27,18.42 -7.74,25 l -19.85,-5.43 1.95,-7.59 c 0.2,-1 0.36,-2 0.5,-3 v 0 l 0.08,-0.61 v 0 a 62.89,62.89 0 0 0 0.42,-10.83 l 24.77,1.4 c 0,0.14 0,0.28 -0.05,0.42 a 1.53,1.53 0 0 1 -0.08,0.34 z"
         style="fill:#191558"
         id="path4342" />
      <path
         d="m 288.91,161 -1.51,0.26 c -0.38,-1.93 -0.69,-3.88 -0.92,-5.87 a 77.76,77.76 0 0 1 0.14,-18.28 v 0 -0.29 a 1.81,1.81 0 0 1 0.05,-0.31 c 0.11,-0.77 0.22,-1.53 0.35,-2.29 l 5.1,0.29 a 67.85,67.85 0 0 0 -2.94,12.26 c 0,0.1 0,0.2 0,0.3 a 3,3 0 0 0 0,0.31 62.25,62.25 0 0 0 -0.48,7.41 58,58 0 0 0 0.21,6.21 z"
         style="fill:#191558"
         id="path4344" />
      <path
         d="m 288.91,161 -1.51,0.26 c -0.38,-1.93 -0.69,-3.88 -0.92,-5.87 a 77.76,77.76 0 0 1 0.14,-18.28 v 0 -0.29 a 1.81,1.81 0 0 1 0.05,-0.31 c 0.11,-0.77 0.22,-1.53 0.35,-2.29 l 5.1,0.29 a 67.85,67.85 0 0 0 -2.94,12.26 c 0,0.1 0,0.2 0,0.3 a 3,3 0 0 0 0,0.31 62.25,62.25 0 0 0 -0.48,7.41 58,58 0 0 0 0.21,6.21 z"
         style="opacity:0.65;fill:#efeff8;fill-opacity:0.992157"
         id="path4346" />
      <path
         d="m 440.81,163.75 -2.32,5.17 -4.26,-1.16 -39.55,-10.84 -17,-4.67 a 21.44,21.44 0 0 0 3.17,-4.89 20.42,20.42 0 0 0 1.86,-6.52 l 37.56,14.8 v 0 z"
         style="fill:#263238"
         id="path4348" />
      <path
         d="m 382.68,140.84 a 21.21,21.21 0 0 1 -5,11.41 l -15.3,-4.19 5.46,-13.06 z"
         style="fill:#263238"
         id="path4350" />
      <path
         d="m 373.54,140.44 a 14.62,14.62 0 0 1 -3.46,7.84 15.15,15.15 0 0 1 -5,3.87 c -7,3.34 -14.92,0.68 -17.72,-6 -2.8,-6.68 0.61,-14.75 7.6,-18.11 6.99,-3.36 14.93,-0.68 17.72,6 a 12.63,12.63 0 0 1 0.86,6.4 z"
         style="fill:#191558"
         id="path4352" />
      <path
         d="m 409.17,128.14 a 0.46,0.46 0 0 1 -0.44,-0.38 35.76,35.76 0 0 0 -5.17,-12.13 0.47,0.47 0 0 1 0.14,-0.65 0.48,0.48 0 0 1 0.66,0.14 36.67,36.67 0 0 1 5.29,12.46 0.47,0.47 0 0 1 -0.37,0.55 z"
         style="fill:#191558"
         id="path4354" />
      <path
         d="m 300.65,126.31 a 0.46,0.46 0 0 1 -0.22,-0.06 0.47,0.47 0 0 1 -0.16,-0.65 c 0.21,-0.35 21.5,-35.3 56.11,-35.37 16.92,0 32.78,6.89 43.5,19 a 0.45,0.45 0 0 1 0,0.66 0.46,0.46 0 0 1 -0.66,0 56.8,56.8 0 0 0 -42.8,-18.7 c -34.08,0.07 -55.09,34.57 -55.3,34.92 a 0.47,0.47 0 0 1 -0.47,0.2 z"
         style="fill:#191558"
         id="path4356" />
      <path
         d="m 433.79,172.66 h -0.1 L 427.92,171 a 0.47,0.47 0 0 1 -0.32,-0.58 0.47,0.47 0 0 1 0.58,-0.33 l 5.76,1.61 a 0.47,0.47 0 0 1 -0.15,0.92 z"
         style="fill:#191558"
         id="path4358" />
      <path
         d="m 423.82,169.86 h -0.11 L 376.9,156.67 a 0.47,0.47 0 0 1 -0.32,-0.58 0.47,0.47 0 0 1 0.58,-0.33 L 424,168.94 a 0.47,0.47 0 0 1 -0.15,0.92 z"
         style="fill:#191558"
         id="path4360" />
    </g>
  </g>
</svg>
