<?xml version="1.0" encoding="UTF-8" standalone="no"?>
<svg
   width="570.46124"
   height="400"
   viewBox="0 0 570.46124 399.99999"
   role="img"
   artist="Katerina Limpitsouni"
   source="https://undraw.co/"
   version="1.1"
   id="svg68"
   sodipodi:docname="integration-data.svg"
   inkscape:version="1.4.2 (f4327f4, 2025-05-13)"
   xmlns:inkscape="http://www.inkscape.org/namespaces/inkscape"
   xmlns:sodipodi="http://sodipodi.sourceforge.net/DTD/sodipodi-0.dtd"
   xmlns="http://www.w3.org/2000/svg"
   xmlns:svg="http://www.w3.org/2000/svg">
  <defs
     id="defs68" />
  <sodipodi:namedview
     id="namedview68"
     pagecolor="#ffffff"
     bordercolor="#000000"
     borderopacity="0.25"
     inkscape:showpageshadow="2"
     inkscape:pageopacity="0.0"
     inkscape:pagecheckerboard="0"
     inkscape:deskcolor="#d1d1d1"
     inkscape:zoom="1.1079562"
     inkscape:cx="155.2408"
     inkscape:cy="204.43047"
     inkscape:window-width="1920"
     inkscape:window-height="991"
     inkscape:window-x="-9"
     inkscape:window-y="-9"
     inkscape:window-maximized="1"
     inkscape:current-layer="svg68" />
  <path
     d="M 465.93704,250.85839 H 98.526449 a 9.4706088,9.4706088 0 0 1 -9.459911,-9.45991 V 14.845776 A 6.9383283,6.9383283 0 0 1 95.99688,7.9151702 h 372.34979 a 7.0583144,7.0583144 0 0 1 7.05028,7.0504258 V 241.39848 a 9.4706145,9.4706145 0 0 1 -9.45991,9.45991 z"
     fill="#f2f2f2"
     id="path1"
     style="stroke-width:0.573328" />
  <path
     d="M 452.53419,237.46154 H 110.11711 c -5.01949,0 -9.10305,-3.82405 -9.10305,-8.52433 V 31.652207 c 0,-3.485874 3.026,-6.322001 6.74556,-6.322001 h 347.02029 c 3.78122,0 6.8574,2.882876 6.8574,6.426146 V 228.93721 c 2e-5,4.70028 -4.0837,8.52433 -9.10312,8.52433 z"
     fill="#ffffff"
     id="path2"
     style="stroke-width:0.573328" />
  <path
     d="M 475.26524,14.304646 H 88.933773 V 9.488468 A 9.5022049,9.5022049 0 0 1 98.428117,0 H 465.77089 a 9.502159,9.502159 0 0 1 9.49435,9.488468 z"
     fill="#ccc"
     id="path3"
     style="fill:#191558;fill-opacity:0.723232;stroke-width:0.573328" />
  <circle
     cx="106.18828"
     cy="7.1665988"
     r="2.4558043"
     fill="#ffffff"
     id="circle3"
     style="stroke-width:0.573328" />
  <circle
     cx="115.50991"
     cy="7.1665988"
     r="2.4558043"
     fill="#ffffff"
     id="circle4"
     style="stroke-width:0.573328" />
  <circle
     cx="124.83154"
     cy="7.1665988"
     r="2.4558043"
     fill="#ffffff"
     id="circle5"
     style="stroke-width:0.573328" />
  <path
     d="M 414.84446,204.37369 H 149.48623 A 10.044648,10.044648 0 0 1 139.45299,194.34045 V 66.400144 a 7.5123557,7.5123557 0 0 1 7.50366,-7.503934 h 270.29744 a 7.6323819,7.6323819 0 0 1 7.62361,7.623748 V 194.34045 a 10.044602,10.044602 0 0 1 -10.03324,10.03324 z M 146.95665,60.042866 a 6.3642952,6.3642952 0 0 0 -6.357,6.357278 V 194.34045 a 8.8965872,8.8965872 0 0 0 8.88658,8.88658 h 265.35823 a 8.896633,8.896633 0 0 0 8.88659,-8.88658 V 66.519958 a 6.4843386,6.4843386 0 0 0 -6.47696,-6.477092 z"
     fill="#ccc"
     id="path5"
     style="fill:#cccce5;fill-opacity:1;stroke-width:0.573328" />
  <path
     d="m 158.65949,194.34045 h 247.01174 a 9.1732465,9.1732465 0 0 0 9.17324,-9.17325 V 78.214116 a 9.1732465,9.1732465 0 0 0 -9.17324,-9.173247 H 158.65949 a 9.1732465,9.1732465 0 0 0 -9.17324,9.173247 V 185.1672 a 9.1732465,9.1732465 0 0 0 9.17324,9.17325 z"
     fill="#f2f2f2"
     id="path6"
     style="fill:#f0f0f8;fill-opacity:1;stroke-width:0.573328" />
  <circle
     cx="186.70625"
     cy="94.997681"
     r="5.1599512"
     fill="#ccc"
     id="circle6"
     style="fill:#cccce5;fill-opacity:1;stroke-width:0.573328" />
  <circle
     cx="186.70625"
     cy="114.49083"
     r="5.1599512"
     fill="#ccc"
     id="circle7"
     style="fill:#cccce5;fill-opacity:1;stroke-width:0.573328" />
  <circle
     cx="186.70625"
     cy="133.98398"
     r="5.1599512"
     fill="#ccc"
     id="circle8"
     style="fill:#cccce5;fill-opacity:1;stroke-width:0.573328" />
  <circle
     cx="186.70625"
     cy="153.47713"
     r="5.1599512"
     fill="#ccc"
     id="circle9"
     style="fill:#cccce5;fill-opacity:1;stroke-width:0.573328" />
  <path
     d="M 382.21108,95.571005 H 212.50602 a 0.573328,0.573328 0 0 1 0,-1.146656 h 169.70506 a 0.573328,0.573328 0 0 1 0,1.146656 z"
     fill="#cccccc"
     id="path9"
     style="stroke-width:0.573328" />
  <path
     d="M 382.21108,115.06415 H 212.50602 a 0.57332791,0.57332791 0 0 1 0,-1.14665 h 169.70506 a 0.57332791,0.57332791 0 0 1 0,1.14665 z"
     fill="#cccccc"
     id="path10"
     style="stroke-width:0.573328" />
  <path
     d="M 382.21108,134.5573 H 212.50602 a 0.57332791,0.57332791 0 0 1 0,-1.14665 h 169.70506 a 0.57332791,0.57332791 0 0 1 0,1.14665 z"
     fill="#cccccc"
     id="path11"
     style="stroke-width:0.573328" />
  <path
     d="M 382.21108,154.05045 H 212.50602 a 0.57332791,0.57332791 0 0 1 0,-1.14665 h 169.70506 a 0.57332791,0.57332791 0 0 1 0,1.14665 z"
     fill="#cccccc"
     id="path12"
     style="stroke-width:0.573328" />
  <path
     d="m 244.61238,173.5436 h -16.62651 a 2.8699763,2.8699763 0 0 1 -2.86664,-2.86664 v -15.47985 a 2.8699706,2.8699706 0 0 1 2.86664,-2.86664 h 16.62651 a 2.8699648,2.8699648 0 0 1 2.86664,2.86664 v 15.47985 a 2.8699706,2.8699706 0 0 1 -2.86664,2.86664 z"
     fill="#191558"
     id="path13"
     style="stroke-width:0.573328" />
  <path
     d="m 281.8787,173.5436 h -16.62651 a 2.8699247,2.8699247 0 0 1 -2.86664,-2.86664 v -34.973 a 2.8699247,2.8699247 0 0 1 2.86664,-2.86664 h 16.62651 a 2.8699247,2.8699247 0 0 1 2.86664,2.86664 v 34.973 a 2.8699247,2.8699247 0 0 1 -2.86664,2.86664 z"
     fill="#191558"
     id="path14"
     style="stroke-width:0.573328" />
  <path
     d="m 319.71834,173.5436 h -16.62651 a 2.8699247,2.8699247 0 0 1 -2.86664,-2.86664 v -54.46615 a 2.8699247,2.8699247 0 0 1 2.86664,-2.86664 h 16.62651 a 2.8699247,2.8699247 0 0 1 2.86664,2.86664 v 54.46615 a 2.8699247,2.8699247 0 0 1 -2.86664,2.86664 z"
     fill="#191558"
     id="path15"
     style="stroke-width:0.573328" />
  <path
     d="m 358.70464,173.5436 h -16.62651 a 2.8699247,2.8699247 0 0 1 -2.86664,-2.86664 V 97.290988 a 2.8699247,2.8699247 0 0 1 2.86664,-2.866639 h 16.62651 a 2.8699247,2.8699247 0 0 1 2.86664,2.866639 v 73.385972 a 2.8699247,2.8699247 0 0 1 -2.86664,2.86664 z"
     fill="#191558"
     id="path16"
     style="stroke-width:0.573328" />
  <path
     d="M 382.21108,173.5436 H 212.50602 a 0.57333,0.57333 0 0 1 0,-1.14666 h 169.70506 a 0.57333,0.57333 0 0 1 0,1.14666 z"
     fill="#3f3d56"
     id="path17"
     style="stroke-width:0.573328" />
  <path
     d="m 456.77108,280.49655 a 5.7652593,5.7652593 0 0 1 8.78365,-0.99953 l 18.20613,-9.39607 -1.13225,10.58615 -17.11526,7.2997 a 5.7965,5.7965 0 0 1 -8.74227,-7.49025 z"
     fill="#ffb8b8"
     id="path18"
     style="stroke-width:0.573328" />
  <path
     d="m 472.43611,284.44466 a 2.5831748,2.5831748 0 0 1 -0.87354,-1.26793 l -1.44807,-4.67799 a 2.5883863,2.5883863 0 0 1 0.90979,-2.82147 l 14.75614,-11.14571 15.98155,-29.6481 a 8.3112595,8.3112595 0 1 1 13.12921,10.1947 l -9.09214,19.18955 a 26.587233,26.587233 0 0 1 -13.45199,13.01251 l -17.29317,7.50068 a 2.5828422,2.5828422 0 0 1 -2.10351,-0.0225 2.5540038,2.5540038 0 0 1 -0.51427,-0.31371 z"
     fill="#3f3d56"
     id="path19"
     style="stroke-width:0.573328" />
  <circle
     cx="515.29297"
     cy="208.42831"
     r="14.081524"
     fill="#ffb8b8"
     id="circle19"
     style="stroke-width:0.573328" />
  <polygon
     points="888.817,638.449 888.812,685.737 876.553,685.736 870.722,638.448 "
     fill="#ffb8b8"
     id="polygon19"
     transform="matrix(0.57332791,0,0,0.57332791,2.0494223e-6,0)" />
  <path
     d="m 497.53126,391.14305 h 13.55569 v 8.53506 h -22.09074 v 0 a 8.5350523,8.5350523 0 0 1 8.53505,-8.53506 z"
     fill="#2f2e41"
     id="path20"
     style="stroke-width:0.573328" />
  <polygon
     points="928.817,638.451 928.812,685.739 916.553,685.738 910.722,638.449 "
     fill="#ffb8b8"
     id="polygon20"
     transform="matrix(0.57332791,0,0,0.57332791,2.0494223e-6,0)" />
  <path
     d="m 520.46437,391.14409 h 13.5557 v 8.53506 h -22.09075 v 0 a 8.5350523,8.5350523 0 0 1 8.53505,-8.53506 z"
     fill="#2f2e41"
     id="path21"
     style="stroke-width:0.573328" />
  <path
     d="m 533.02754,386.27366 -8.23697,-3.7e-4 a 2.5844074,2.5844074 0 0 1 -2.49086,-1.90878 l -11.8562,-43.97491 a 0.28669835,0.28669835 0 0 0 -0.56297,0.0918 l 2.39499,41.70523 a 2.5795169,2.5795169 0 0 1 -2.7902,2.71872 l -9.25788,-0.77199 a 2.5870505,2.5870505 0 0 1 -2.34835,-2.2727 l -8.43398,-87.57287 3.26295,1.95808 30.57501,-5.19103 12.30208,92.29796 a 2.5803884,2.5803884 0 0 1 -2.55757,2.92084 z"
     fill="#2f2e41"
     id="path22"
     style="stroke-width:0.573328" />
  <path
     d="m 499.67068,303.53093 a 18.8849,18.8849 0 0 1 -9.5698,-2.69349 2.5686122,2.5686122 0 0 1 -1.22479,-2.631 c 1.0753,-6.58538 6.6987,-40.36668 11.81515,-58.78293 2.08383,-7.50076 6.69149,-11.54072 13.69505,-12.00734 10.24422,-0.67194 19.34975,7.34272 20.29787,17.88774 1.67266,18.60356 -5.1217,45.03513 -8.12053,55.53574 a 2.5777511,2.5777511 0 0 1 -4.06347,1.32227 l -6.11252,-4.75487 a 2.02547,2.02547 0 0 0 -2.58922,0.10794 c -5.15206,4.59535 -10.04615,6.01613 -14.12774,6.01594 z"
     fill="#3f3d56"
     id="path23"
     style="stroke-width:0.573328" />
  <polygon
     points="911.786,482.739 906.787,443.738 915.786,481.739 902.784,513.738 "
     opacity="0.2"
     id="polygon23"
     transform="matrix(0.57332791,0,0,0.57332791,2.0494223e-6,0)" />
  <path
     d="m 523.32805,220.0081 a 9.4819549,9.4819549 0 0 0 3.66242,-0.66246 c 0.51263,-0.19753 1.04477,-0.35987 1.55644,-0.55754 4.51888,-1.74562 7.4958,-6.55798 7.60263,-11.40113 0.10684,-4.84315 -2.40104,-9.54398 -6.12521,-12.64205 -3.72418,-3.09806 -8.54803,-4.68875 -13.37835,-5.05675 -5.20306,-0.39641 -11.06196,0.9228 -13.96958,5.25578 -0.77396,1.15337 -1.31527,2.55273 -0.85676,3.94538 a 2.5246781,2.5246781 0 0 0 0.71134,1.09276 c 1.29836,1.15525 2.59285,0.28671 3.91648,0.21003 1.81932,-0.10539 3.45331,1.3673 4.04053,3.09246 0.58723,1.72515 0.32862,3.62437 -0.14567,5.38393 a 13.449699,13.449699 0 0 0 -0.67811,3.2737 3.2912175,3.2912175 0 0 0 1.36357,2.89807 c 1.13681,0.68723 2.62979,0.28959 3.76733,-0.39643 1.13754,-0.68602 2.12048,-1.63989 3.34922,-2.14469 1.22874,-0.50481 2.87952,-0.39273 3.59464,0.72673 a 3.9758513,3.9758513 0 0 1 0.45439,1.31215 c 0.64101,2.92104 0.49366,2.74901 1.13467,5.67006 z"
     fill="#2f2e41"
     id="path24"
     style="stroke-width:0.573328" />
  <path
     d="m 501.50212,373.48399 -88.17549,-30.70791 a 6.0522386,6.0522386 0 0 1 -3.72084,-7.69734 l 22.91344,-65.79423 a 4.4339632,4.4339632 0 0 1 5.63911,-2.72606 l 91.15633,31.74601 a 4.5106401,4.5106401 0 0 1 2.77305,5.73672 l -22.88826,65.72196 a 6.0522386,6.0522386 0 0 1 -7.69734,3.72085 z"
     fill="#e6e6e6"
     id="path25"
     style="fill:#f0f0f8;fill-opacity:1;stroke-width:0.573328" />
  <path
     d="m 420.85096,338.99498 77.10332,26.85192 a 5.8622033,5.8622033 0 0 0 7.46408,-3.60809 l 18.50244,-53.12838 a 5.8622033,5.8622033 0 0 0 -3.6081,-7.46408 l -77.10331,-26.85192 a 5.8622091,5.8622091 0 0 0 -7.46409,3.60809 l -18.50243,53.12839 a 5.8621976,5.8621976 0 0 0 3.60809,7.46407 z"
     fill="#ffffff"
     id="path26"
     style="stroke-width:0.573328" />
  <path
     d="m 440.21263,301.66758 -3.81851,-1.32984 a 0.8279887,0.8279887 0 0 1 -0.50905,-1.05307 l 1.32983,-3.81852 a 0.8279887,0.8279887 0 0 1 1.05308,-0.50905 l 3.81851,1.32984 a 0.8279887,0.8279887 0 0 1 0.50905,1.05307 l -1.32983,3.81852 a 0.82798297,0.82798297 0 0 1 -1.05308,0.50905 z"
     fill="#191558"
     id="path27"
     style="stroke-width:0.573328" />
  <path
     d="m 436.76716,311.56101 -3.81852,-1.32983 a 0.8279887,0.8279887 0 0 1 -0.50905,-1.05307 l 1.32983,-3.81852 a 0.8279887,0.8279887 0 0 1 1.05307,-0.50906 l 3.81853,1.32984 a 0.8279887,0.8279887 0 0 1 0.50904,1.05307 l -1.32983,3.81852 a 0.82799443,0.82799443 0 0 1 -1.05307,0.50905 z"
     fill="#3f3d56"
     id="path28"
     style="stroke-width:0.573328" />
  <path
     d="m 433.32168,321.45445 -3.81852,-1.32983 a 0.8279887,0.8279887 0 0 1 -0.50905,-1.05307 l 1.32983,-3.81853 a 0.8279887,0.8279887 0 0 1 1.05308,-0.50904 l 3.81851,1.32983 a 0.8279887,0.8279887 0 0 1 0.50906,1.05307 l -1.32984,3.81852 a 0.82799443,0.82799443 0 0 1 -1.05307,0.50905 z"
     fill="#cccccc"
     id="path29"
     style="stroke-width:0.573328" />
  <path
     d="m 465.8715,308.46268 -18.39832,-6.40738 a 0.82707137,0.82707137 0 1 1 0.54402,-1.56211 l 18.39832,6.40738 a 0.82707137,0.82707137 0 1 1 -0.54402,1.56211 z"
     fill="#cccccc"
     id="path30"
     style="stroke-width:0.573328" />
  <path
     d="m 462.42602,318.35612 -18.39832,-6.40738 a 0.82707218,0.82707218 0 0 1 0.54402,-1.56212 l 18.39832,6.40738 a 0.82707137,0.82707137 0 1 1 -0.54402,1.56212 z"
     fill="#cccccc"
     id="path31"
     style="stroke-width:0.573328" />
  <path
     d="m 458.98052,328.24956 -18.39832,-6.40738 a 0.82707218,0.82707218 0 0 1 0.54403,-1.56212 l 18.39832,6.40738 a 0.82707218,0.82707218 0 0 1 -0.54403,1.56212 z"
     fill="#cccccc"
     id="path32"
     style="stroke-width:0.573328" />
  <path
     d="m 507.942,333.60983 c 0.13397,-0.32151 0.26026,-0.64825 0.37633,-0.98154 a 17.336639,17.336639 0 0 0 -10.67042,-22.07393 l -6.04732,17.36443 z"
     fill="#191558"
     id="path33"
     style="stroke-width:0.573328" />
  <path
     d="m 489.84193,328.97522 6.04732,-17.36443 a 17.336616,17.336616 0 1 0 10.29411,23.05547 z"
     fill="#3f3d56"
     id="path34"
     style="stroke-width:0.573328" />
  <path
     d="m 511.49163,304.06607 a 5.7652478,5.7652478 0 0 1 6.29474,-6.20707 l 8.52729,-18.62887 5.64201,9.02863 -8.96264,16.3061 a 5.7965,5.7965 0 0 1 -11.5014,-0.49879 z"
     fill="#ffb8b8"
     id="path35"
     style="stroke-width:0.573328" />
  <path
     d="m 526.25442,297.50548 a 2.583169,2.583169 0 0 1 -1.46983,-0.45861 l -4.02633,-2.78732 a 2.5883863,2.5883863 0 0 1 -1.02531,-2.78158 l 4.73287,-17.87654 -5.72112,-33.19167 a 8.3112595,8.3112595 0 1 1 16.62231,-0.0804 l 4.688,20.71056 a 26.587216,26.587216 0 0 1 -2.55465,18.54066 l -8.9786,16.57398 a 2.5828422,2.5828422 0 0 1 -1.66909,1.2804 2.5539465,2.5539465 0 0 1 -0.59825,0.0705 z"
     fill="#3f3d56"
     id="path36"
     style="stroke-width:0.573328" />
  <path
     d="m 569.88794,400 h -108.9323 a 0.57333,0.57333 0 0 1 0,-1.14666 h 108.9323 a 0.57333,0.57333 0 0 1 0,1.14666 z"
     fill="#cccccc"
     id="path37"
     style="stroke-width:0.573328" />
  <polygon
     points="490.539,637.951 490.541,685.239 502.801,685.238 508.633,637.951 "
     fill="#a0616a"
     id="polygon37"
     transform="matrix(0.57332791,0,0,0.57332791,2.0494223e-6,0)" />
  <path
     d="m 279.44805,390.57186 13.84231,-5.7e-4 h 5.7e-4 a 8.8212519,8.8212519 0 0 1 8.8215,8.82136 v 0.28666 l -22.66395,8.4e-4 z"
     fill="#2f2e41"
     id="path38"
     style="stroke-width:0.573328" />
  <polygon
     points="441.539,637.951 441.541,685.239 453.801,685.238 459.633,637.951 "
     fill="#a0616a"
     id="polygon38"
     transform="matrix(0.57332791,0,0,0.57332791,2.0494223e-6,0)" />
  <path
     d="m 251.35498,390.57186 13.84231,-5.7e-4 h 5.7e-4 a 8.8212519,8.8212519 0 0 1 8.8215,8.82136 v 0.28666 l -22.66395,8.4e-4 z"
     fill="#2f2e41"
     id="path39"
     style="stroke-width:0.573328" />
  <circle
     cx="282.64389"
     cy="191.08847"
     r="14.081524"
     fill="#a0616a"
     id="circle39"
     style="stroke-width:0.573328" />
  <path
     d="m 292.11322,387.0152 h -13.04363 a 2.5801304,2.5801304 0 0 1 -2.5797,-2.61133 l 0.75794,-61.93733 a 0.86002626,0.86002626 0 0 0 -1.71368,-0.11478 l -7.59127,62.39533 a 2.5822976,2.5822976 0 0 1 -2.56105,2.26811 H 252.2129 a 2.5797635,2.5797635 0 0 1 -2.57214,-2.78097 l 8.69594,-111.26873 0.23642,-0.0258 41.64017,-4.49705 -5.5229,116.11514 a 2.5770229,2.5770229 0 0 1 -2.57717,2.45736 z"
     fill="#2f2e41"
     id="path40"
     style="stroke-width:0.573328" />
  <path
     d="m 258.84354,279.79616 a 2.5778256,2.5778256 0 0 1 -2.57073,-2.49879 c -0.22732,-7.03558 -0.61687,-31.37962 3.91124,-49.25189 a 23.462653,23.462653 0 0 1 21.66762,-17.68078 v 0 a 23.609322,23.609322 0 0 1 23.25338,14.91996 c 7.61115,19.32295 14.8021,43.14068 5.837,46.87628 -11.75029,4.89568 -42.72637,7.07813 -51.94021,7.63018 q -0.0796,0.005 -0.1583,0.005 z"
     fill="#3f3d56"
     id="path41"
     style="stroke-width:0.573328" />
  <path
     d="m 312.66257,176.85616 a 6.0342762,6.0342762 0 0 0 0.71434,0.62671 l -1.47817,28.39474 -6.1485,3.14786 3.53788,9.90008 11.42627,-4.51487 a 4.5866233,4.5866233 0 0 0 2.88143,-4.69014 l -2.99344,-32.20925 a 6.0182804,6.0182804 0 1 0 -7.93981,-0.65514 z"
     fill="#a0616a"
     id="path42"
     style="stroke-width:0.573328" />
  <path
     d="m 312.01541,206.93457 4.32528,12.29152 a 2.5799756,2.5799756 0 0 1 -1.94305,3.38926 l -12.75392,2.4698 A 7.1651139,7.1651139 0 0 1 296.9266,211.5536 l 11.45147,-6.0446 a 2.5799756,2.5799756 0 0 1 3.63734,1.42558 z"
     fill="#3f3d56"
     id="path43"
     style="stroke-width:0.573328" />
  <path
     d="m 251.66815,176.85616 a 6.0351592,6.0351592 0 0 1 -0.71434,0.62671 l 1.47818,28.39474 6.14849,3.14786 -3.53785,9.90008 -11.42626,-4.51487 a 4.5866233,4.5866233 0 0 1 -2.88143,-4.69014 l 2.99343,-32.20925 a 6.0182804,6.0182804 0 1 1 7.93981,-0.65514 z"
     fill="#a0616a"
     id="path44"
     style="stroke-width:0.573328" />
  <path
     d="m 253.80772,205.38886 a 2.5772236,2.5772236 0 0 1 2.14494,0.12013 l 11.45146,6.0446 a 7.1651139,7.1651139 0 0 1 -4.71712,13.53155 l -12.75392,-2.4698 a 2.5799756,2.5799756 0 0 1 -1.94305,-3.38926 l 4.32529,-12.29152 a 2.5771089,2.5771089 0 0 1 1.4924,-1.5457 z"
     fill="#3f3d56"
     id="path45"
     style="stroke-width:0.573328" />
  <path
     d="m 288.113,193.48875 a 9.255393,9.255393 0 0 1 5.18322,-8.69604 c 4.28039,-2.20964 6.96937,-6.92302 5.79108,-11.22696 -1.50822,-5.50904 -9.00619,-9.08193 -15.08148,-7.18654 a 27.844054,27.844054 0 0 0 -4.73617,2.20119 l -3.9692,2.12762 a 41.124811,41.124811 0 0 0 -4.89278,2.88834 16.23398,16.23398 0 0 0 -6.46157,15.21039 c 0.78165,5.60066 4.44942,10.73696 9.47003,14.2535 a 16.016792,16.016792 0 0 0 6.48938,2.88446 c 2.40655,0.39678 5.08561,-0.0541 6.84519,-1.55073 2.74983,-2.33882 2.46574,-6.25542 1.57638,-9.52662 a 6.9316261,6.9316261 0 0 1 -0.21408,-1.37861 z"
     fill="#2f2e41"
     id="path46"
     style="stroke-width:0.573328" />
  <path
     d="m 335.97015,400 h -108.9323 a 0.57333,0.57333 0 0 1 0,-1.14666 h 108.9323 a 0.57333,0.57333 0 0 1 0,1.14666 z"
     fill="#cccccc"
     id="path47"
     style="stroke-width:0.573328" />
  <path
     d="M 158.18673,295.40922 68.302018,332.28413 A 6.2975771,6.2975771 0 0 1 60.094726,328.8519 L 32.57963,261.78229 a 4.6137015,4.6137015 0 0 1 2.51437,-6.01283 l 92.92332,-38.1215 a 4.6934916,4.6934916 0 0 1 6.11677,2.55805 l 27.48486,66.9959 a 6.2975828,6.2975828 0 0 1 -3.43222,8.20731 z"
     fill="#e6e6e6"
     id="path48"
     style="fill:#f0f0f8;fill-opacity:1;stroke-width:0.573328" />
  <path
     d="m 71.557878,324.14918 78.597912,-32.24453 a 6.0998477,6.0998477 0 0 0 3.32822,-7.95859 l -22.21825,-54.15824 a 6.0998363,6.0998363 0 0 0 -7.95858,-3.3282 l -78.597921,32.24453 a 6.0998306,6.0998306 0 0 0 -3.328209,7.95858 l 22.218246,54.15824 a 6.0998363,6.0998363 0 0 0 7.958582,3.32821 z"
     fill="#ffffff"
     id="path49"
     style="stroke-width:0.573328" />
  <rect
     x="26.970848"
     y="275.9147"
     width="1.249012"
     height="0.20816964"
     transform="rotate(-22.30577)"
     fill="#e6e6e6"
     id="rect49"
     style="stroke-width:0.573328" />
  <path
     d="m 127.42048,246.18194 -2.33443,0.95769 -0.079,-0.19259 2.33443,-0.9577 z m -4.66891,1.9154 -2.33442,0.95769 -0.079,-0.19259 2.33442,-0.95769 z m -4.6689,1.91541 -2.33442,0.95769 -0.079,-0.19259 2.33442,-0.9577 z m -4.6689,1.9154 -2.33442,0.95769 -0.079,-0.19259 2.33442,-0.95769 z m -4.6689,1.91541 -2.33442,0.95769 -0.079,-0.19259 2.33443,-0.95769 z m -4.6689,1.9154 -2.33443,0.95769 -0.079,-0.19259 2.33443,-0.95769 z m -4.668901,1.91541 -2.334425,0.95769 -0.07901,-0.19259 2.334425,-0.95769 z m -4.668901,1.9154 -2.334425,0.95769 -0.07901,-0.19259 2.334425,-0.95769 z m -4.668902,1.91541 -2.334431,0.95769 -0.07901,-0.19259 2.334431,-0.95769 z m -4.668902,1.9154 -2.33443,0.95769 -0.07901,-0.19259 2.334431,-0.95769 z m -4.668913,1.91541 -2.33443,0.95769 -0.07901,-0.19259 2.334431,-0.95769 z m -4.668901,1.9154 -2.334431,0.9577 -0.07901,-0.1926 2.334431,-0.95769 z m -4.668902,1.91541 -2.33443,0.95769 -0.07901,-0.19259 2.334431,-0.95769 z m -4.668901,1.9154 -2.334477,0.95772 -0.07901,-0.19259 2.334476,-0.95772 z m -4.668902,1.91541 -2.33443,0.95769 -0.07901,-0.19259 2.334431,-0.95769 z m -4.668901,1.9154 -2.334477,0.95772 -0.07901,-0.19259 2.334476,-0.95772 z"
     fill="#e6e6e6"
     id="path50"
     style="stroke-width:0.573328" />
  <rect
     x="-57.545822"
     y="275.9147"
     width="1.249012"
     height="0.20816964"
     transform="rotate(-22.30577)"
     fill="#e6e6e6"
     id="rect50"
     style="stroke-width:0.573328" />
  <rect
     x="-14.038473"
     y="295.27444"
     width="1.249012"
     height="0.20816964"
     transform="rotate(-22.30577)"
     fill="#e6e6e6"
     id="rect51"
     style="stroke-width:0.573328" />
  <path
     d="m 96.862405,279.64385 -2.299773,0.94348 -0.07901,-0.1926 2.299774,-0.94348 z m -4.599546,1.88695 -2.299773,0.94347 -0.07901,-0.19259 2.299773,-0.94347 z m -4.599546,1.88695 -2.299773,0.94348 -0.07902,-0.19259 2.299778,-0.94348 z m -4.599564,1.88698 -2.299773,0.94347 -0.07901,-0.19259 2.299773,-0.94348 z m -4.599534,1.88698 -2.299819,0.94349 -0.07901,-0.19259 2.299818,-0.94349 z m -4.599598,1.88697 -2.299773,0.94347 -0.07901,-0.19259 2.299773,-0.94347 z m -4.599546,1.88695 -2.299773,0.94348 -0.07901,-0.19259 2.299773,-0.94348 z m -4.599546,1.88696 -2.299773,0.94347 -0.07901,-0.19259 2.299773,-0.94347 z"
     fill="#e6e6e6"
     id="path51"
     style="stroke-width:0.573328" />
  <rect
     x="-57.545818"
     y="295.27441"
     width="1.249012"
     height="0.20816964"
     transform="rotate(-22.30577)"
     fill="#e6e6e6"
     id="rect52"
     style="stroke-width:0.573328" />
  <rect
     x="-38.394257"
     y="304.43387"
     width="1.249012"
     height="0.20816964"
     transform="rotate(-22.30577)"
     fill="#e6e6e6"
     id="rect53"
     style="stroke-width:0.573328" />
  <path
     d="m 77.739287,297.38934 -2.366124,0.97069 -0.07901,-0.19259 2.366124,-0.97069 z m -4.732282,1.94141 -2.366125,0.97069 -0.07901,-0.19259 2.366124,-0.9707 z m -4.732249,1.94139 -2.366124,0.97069 -0.07901,-0.19259 2.366125,-0.9707 z"
     fill="#e6e6e6"
     id="path53"
     style="stroke-width:0.573328" />
  <rect
     x="-57.545822"
     y="304.43387"
     width="1.249012"
     height="0.20816964"
     transform="rotate(-22.30577)"
     fill="#e6e6e6"
     id="rect54"
     style="stroke-width:0.573328" />
  <rect
     x="-38.394264"
     y="320.0647"
     width="1.249012"
     height="0.20816964"
     transform="rotate(-22.30577)"
     fill="#e6e6e6"
     id="rect55"
     style="stroke-width:0.573328" />
  <path
     d="m 83.671964,311.85054 -2.366124,0.9707 -0.07901,-0.19259 2.366124,-0.9707 z m -4.732283,1.94141 -2.366124,0.9707 -0.07901,-0.1926 2.366124,-0.97069 z m -4.732248,1.94139 -2.366124,0.97069 -0.07901,-0.19259 2.366124,-0.9707 z"
     fill="#e6e6e6"
     id="path55"
     style="stroke-width:0.573328" />
  <rect
     x="-57.545818"
     y="320.0647"
     width="1.249012"
     height="0.20816964"
     transform="rotate(-22.30577)"
     fill="#e6e6e6"
     id="rect56"
     style="stroke-width:0.573328" />
  <path
     d="m 74.895226,315.62383 66.606404,-27.32511 a 6.5822975,6.5822975 0 0 0 3.58741,-8.57841 l -13.45754,-32.80346 -0.13011,0.0578 -16.34517,39.08205 -12.12281,-5.06816 a 1.5721225,1.5721225 0 0 0 -1.39636,0.0872 1.6751265,1.6751265 0 0 0 -0.69487,0.82149 l -8.566267,20.48019 -8.863546,-3.70505 a 1.5781596,1.5781596 0 0 0 -2.065511,0.84738 c -0.05674,0.13913 -5.521911,13.54807 -6.55163,16.10413 z"
     fill="#191558"
     id="path56"
     style="stroke-width:0.573328" />
  <path
     d="m 74.690192,315.93272 -0.19203,-0.0803 6.853888,-16.38939 a 1.7712507,1.7712507 0 0 1 2.315058,-0.94974 l 8.688498,3.63345 8.517464,-20.36741 a 1.771245,1.771245 0 0 1 2.31505,-0.94975 l 11.94773,4.99643 16.42919,-39.28636 0.19203,0.0803 -16.50949,39.47841 -12.13977,-5.07674 a 1.5611719,1.5611719 0 0 0 -2.04271,0.83803 l -8.59777,20.55945 -8.880528,-3.71376 a 1.5631556,1.5631556 0 0 0 -2.042716,0.83802 z"
     fill="#3f3d56"
     id="path57"
     style="stroke-width:0.573328" />
  <circle
     cx="81.221458"
     cy="295.8483"
     r="1.4571817"
     fill="#3f3d56"
     id="circle57"
     style="stroke-width:0.573328" />
  <circle
     cx="100.27827"
     cy="278.13"
     r="1.4571817"
     fill="#3f3d56"
     id="circle58"
     style="stroke-width:0.573328" />
  <circle
     cx="129.95181"
     cy="244.60237"
     r="1.4571817"
     fill="#3f3d56"
     id="circle59"
     style="stroke-width:0.573328" />
  <path
     d="m 48.389508,294.19484 a 5.7877051,5.7877051 0 0 0 2.069668,-8.63005 l 4.327823,-42.31405 h -9.35287 L 41.9947,284.56823 a 5.8190719,5.8190719 0 0 0 6.394808,9.62661 z"
     fill="#ffb8b8"
     id="path59"
     style="stroke-width:0.573328" />
  <circle
     cx="56.977119"
     cy="206.66612"
     r="13.232442"
     fill="#ffb8b8"
     id="circle60"
     style="stroke-width:0.573328" />
  <path
     d="m 59.468262,267.89311 a 2.4200171,2.4200171 0 0 1 -2.332333,-1.77727 c -1.060152,-3.8518 -3.818392,-10.36424 -8.197907,-19.35739 a 16.034393,16.034393 0 0 1 9.10548,-22.13773 v 0 a 16.027141,16.027141 0 0 1 20.594987,10.20982 c 3.394595,10.64257 3.230703,22.04274 3.002627,26.44963 a 2.430337,2.430337 0 0 1 -1.903936,2.24395 l -19.748967,4.31269 a 2.4124033,2.4124033 0 0 1 -0.519951,0.0563 z"
     fill="#ff6584"
     id="path60"
     style="stroke-width:0.573328" />
  <polygon
     points="137.08,641.989 137.082,686.425 148.602,686.425 154.083,641.988 "
     fill="#ffb8b8"
     id="polygon60"
     transform="matrix(0.57332791,0,0,0.57332791,2.0494223e-6,0)" />
  <path
     d="m 97.936418,399.67923 -20.758724,9.4e-4 -3.67e-4,-8.02041 12.738308,-5.8e-4 a 8.020416,8.020416 0 0 1 8.020783,8.02005 z"
     fill="#2f2e41"
     id="path61"
     style="stroke-width:0.573328" />
  <polygon
     points="43.291,632.555 21.882,671.495 31.978,677.045 58.19,640.747 "
     fill="#ffb8b8"
     id="polygon61"
     transform="matrix(0.57332791,0,0,0.57332791,2.0494223e-6,0)" />
  <path
     d="m 26.541605,399.68016 -18.1908415,-10.00089 3.8639825,-7.02828 11.162567,6.13691 a 8.0204102,8.0204102 0 0 1 3.164295,10.89226 v 0 z"
     fill="#2f2e41"
     id="path62"
     style="stroke-width:0.573328" />
  <path
     d="m 78.28427,379.40595 a 2.4241279,2.4241279 0 0 1 -2.401917,-2.11241 l -8.260382,-63.65338 a 1.3469078,1.3469078 0 0 0 -2.51519,-0.4772 L 30.6809,375.6215 a 2.4376355,2.4376355 0 0 1 -2.986184,1.09592 l -7.503825,-2.85899 a 2.4242024,2.4242024 0 0 1 -1.382403,-3.17941 l 23.847684,-58.58305 a 1.8674953,1.8674953 0 0 0 0.121798,-0.46405 c 3.230043,-25.00014 11.448337,-37.71356 13.890106,-41.0145 a 1.8774425,1.8774425 0 0 0 0.267171,-1.7094 l -0.335672,-1.00701 a 2.4231589,2.4231589 0 0 1 0.466552,-2.3581 c 8.798611,-10.02173 24.134238,-4.55313 24.288153,-4.49683 l 0.07683,0.0284 0.04816,0.0658 c 17.19579,23.58275 10.837893,100.17893 9.388818,115.29414 a 2.4177582,2.4177582 0 0 1 -2.227242,2.18186 l -10.168262,0.78289 c -0.06322,0.005 -0.125966,0.007 -0.18831,0.007 z"
     fill="#2f2e41"
     id="path63"
     style="stroke-width:0.573328" />
  <path
     d="m 108.41987,222.037 a 5.6715259,5.6715259 0 0 0 -0.12893,0.88363 l -23.143648,13.35149 -5.62539,-3.23844 -5.99701,7.85093 9.401505,6.70082 a 4.3100556,4.3100556 0 0 0 5.171097,-0.12598 l 23.865086,-18.82733 a 5.6553925,5.6553925 0 1 0 -3.54272,-6.59512 z"
     fill="#ffb8b8"
     id="path64"
     style="stroke-width:0.573328" />
  <path
     d="m 84.373574,236.90448 -7.479968,9.6944 a 2.4244203,2.4244203 0 0 1 -3.665664,0.20078 l -8.467829,-8.79318 a 6.733077,6.733077 0 0 1 8.257343,-10.6373 l 10.62051,5.93861 a 2.424426,2.424426 0 0 1 0.735608,3.5967 z"
     fill="#ff6584"
     id="path65"
     style="stroke-width:0.573328" />
  <path
     d="m 55.382251,253.74723 -12.04977,-2.17578 a 2.4244203,2.4244203 0 0 1 -1.866183,-3.16146 l 3.906301,-11.5657 a 6.733077,6.733077 0 0 1 13.244735,2.43166 l -0.38112,12.16212 a 2.4244317,2.4244317 0 0 1 -2.85398,2.30916 z"
     fill="#ff6584"
     id="path66"
     style="stroke-width:0.573328" />
  <path
     d="m 59.07149,203.6225 c 3.401021,2.32771 7.866632,4.72045 11.34026,2.24164 a 6.3211237,6.3211237 0 0 0 2.074541,-7.28663 c -1.663282,-4.75645 -6.233118,-6.85047 -10.603029,-8.45558 -5.680883,-2.08664 -11.866529,-3.74665 -17.731117,-2.2523 -5.864589,1.49435 -11.047553,7.17244 -9.98888,13.1311 0.851357,4.79183 5.371406,8.77902 4.729731,13.60341 -0.645796,4.85536 -6.106165,7.41109 -10.92681,8.27885 -4.820644,0.86776 -10.215052,1.14659 -13.679455,4.60918 -4.4194805,4.41716 -3.315859,12.31236 0.842689,16.976 4.158548,4.66365 10.434035,6.77764 16.514974,8.21475 8.056874,1.90409 16.770988,2.90477 24.423007,-0.25525 7.652018,-3.16003 13.606682,-11.66644 11.390019,-19.64297 -0.936314,-3.36929 -3.141986,-6.21678 -5.273654,-8.98891 -2.131667,-2.77214 -4.290178,-5.67097 -5.103312,-9.07208 -0.67761,-2.83425 -0.17608,-6.12497 1.703455,-8.25099 a 2.390485,2.390485 0 0 0 0.320232,-2.79423 z"
     fill="#2f2e41"
     id="path67"
     style="stroke-width:0.573328" />
  <path
     d="M 109.50563,400 H 0.57332996 a 0.57333,0.57333 0 0 1 0,-1.14666 H 109.50563 a 0.57333,0.57333 0 0 1 0,1.14666 z"
     fill="#cccccc"
     id="path68"
     style="stroke-width:0.573328" />
</svg>
