<svg xmlns="http://www.w3.org/2000/svg" width="433.446" height="394.447" viewBox="0 0 433.446 394.447">
  <g id="Plan_de_travail_1" data-name="Plan de travail 1" transform="translate(-56.11 -74.67)">
    <g id="freepik--background-simple--inject-15" transform="translate(103.162 77.763)">
      <path id="Tracé_834" data-name="Tracé 834" d="M193.6,86.55C294.11,49.239,332.863,134.122,320.757,203.256s-1.978,91.042,36.763,73.2,94.093-17.784,96.776,55.72S351.362,481.109,205.281,413.831,69.719,132.546,193.6,86.55Z" transform="translate(-98.205 -77.438)" fill="#f0f0f8"/>
      <path id="Tracé_835" data-name="Tracé 835" d="M193.6,86.55C294.11,49.239,332.863,134.122,320.757,203.256s-1.978,91.042,36.763,73.2,94.093-17.784,96.776,55.72S351.362,481.109,205.281,413.831,69.719,132.546,193.6,86.55Z" transform="translate(-98.205 -77.438)" fill="#f0f0f8" opacity="0.9" style="isolation: isolate"/>
    </g>
    <g id="freepik--Shadow--inject-15" transform="translate(56.11 443.811)">
      <ellipse id="freepik--path--inject-15" cx="216.723" cy="12.653" rx="216.723" ry="12.653" fill="#f5f5f5"/>
    </g>
    <g id="freepik--Calculator--inject-15" transform="translate(270.944 113.836)">
      <path id="Tracé_836" data-name="Tracé 836" d="M407.618,343.937H256.552a5.2,5.2,0,0,1-5.242-5.153c0-.145,0-.291.011-.436l12.7-223.05a5.944,5.944,0,0,1,5.868-5.589H421.009a5.2,5.2,0,0,1,5.242,5.153c0,.145,0,.291-.011.436L413.486,338.36A5.942,5.942,0,0,1,407.618,343.937Z" transform="translate(-247.957 -109.71)" fill="#263238"/>
      <path id="Tracé_837" data-name="Tracé 837" d="M407.618,343.937H256.552a5.2,5.2,0,0,1-5.242-5.153c0-.145,0-.291.011-.436l12.7-223.05a5.944,5.944,0,0,1,5.868-5.589H421.009a5.2,5.2,0,0,1,5.242,5.153c0,.145,0,.291-.011.436L413.486,338.36A5.942,5.942,0,0,1,407.618,343.937Z" transform="translate(-247.957 -109.71)" opacity="0.3" style="isolation: isolate"/>
      <path id="Tracé_838" data-name="Tracé 838" d="M423.184,115.309l-12.7,223.05a5.944,5.944,0,0,1-5.868,5.589H253.552a5.2,5.2,0,0,1-5.242-5.153c0-.145,0-.291.011-.436l3.208-56.425,9.49-166.625a5.944,5.944,0,0,1,5.868-5.589H418.009a5.188,5.188,0,0,1,5.186,5.209C423.2,115.052,423.2,115.186,423.184,115.309Z" transform="translate(-248.31 -109.709)" fill="#263238"/>
      <path id="Tracé_839" data-name="Tracé 839" d="M419.261,176.42,410.486,330.5a5.958,5.958,0,0,1-5.857,5.589H253.552a5.183,5.183,0,0,1-5.242-5.131c0-.157,0-.313.011-.458L257.1,176.42H419.261Z" transform="translate(-248.31 -101.854)" fill="#fff" opacity="0.3" style="isolation: isolate"/>
      <path id="Tracé_840" data-name="Tracé 840" d="M401.908,171.732H270.28l1.967-34.662H403.875Z" transform="translate(-245.723 -106.488)" fill="#fff" opacity="0.4" style="isolation: isolate"/>
      <path id="Tracé_841" data-name="Tracé 841" d="M384.546,122.83H391.4l-.615,10.932H383.92Z" transform="translate(-232.34 -108.165)" fill="#fff" opacity="0.2" style="isolation: isolate"/>
      <path id="Tracé_842" data-name="Tracé 842" d="M377.366,122.83h6.852l-.615,10.932H376.74Z" transform="translate(-233.186 -108.165)" fill="#fff" opacity="0.2" style="isolation: isolate"/>
      <path id="Tracé_843" data-name="Tracé 843" d="M370.186,122.83h6.852l-.615,10.932H369.56Z" transform="translate(-234.031 -108.165)" fill="#fff" opacity="0.2" style="isolation: isolate"/>
      <path id="Tracé_844" data-name="Tracé 844" d="M363.006,122.83h6.852l-.615,10.932H362.38Z" transform="translate(-234.877 -108.165)" fill="#fff" opacity="0.2" style="isolation: isolate"/>
      <path id="Tracé_845" data-name="Tracé 845" d="M355.826,122.83h6.852l-.615,10.932H355.2Z" transform="translate(-235.722 -108.165)" fill="#fff" opacity="0.2" style="isolation: isolate"/>
      <path id="Tracé_846" data-name="Tracé 846" d="M348.646,122.83H355.5l-.615,10.932H348.02Z" transform="translate(-236.568 -108.165)" fill="#fff" opacity="0.2" style="isolation: isolate"/>
      <path id="Tracé_847" data-name="Tracé 847" d="M294.722,129.669H272.49l.268-4.639h22.221Z" transform="translate(-245.462 -107.906)" fill="#fff" opacity="0.3" style="isolation: isolate"/>
      <path id="Tracé_848" data-name="Tracé 848" d="M327.506,161.427l-.089,1.464H318.91l.067-1.118,5.1-4.628c1.319-1.207,1.6-1.945,1.643-2.683.078-1.207-.738-1.945-2.4-1.945a3.952,3.952,0,0,0-3.1,1.274L319.1,152.8a5.833,5.833,0,0,1,4.471-1.777c2.47,0,3.99,1.252,3.867,3.275-.067,1.118-.469,2.168-2.168,3.7l-3.834,3.454,6.069-.022Z" transform="translate(-239.996 -104.846)" fill="#263238"/>
      <path id="Tracé_849" data-name="Tracé 849" d="M327.94,160.808a1.2,1.2,0,0,1,1.218-1.118,1.026,1.026,0,0,1,1.051,1.006v.112a1.2,1.2,0,0,1-1.185,1.118A1.122,1.122,0,0,1,327.94,160.808Z" transform="translate(-238.933 -103.824)" fill="#263238"/>
      <path id="Tracé_850" data-name="Tracé 850" d="M341.688,160h-2.236l-.179,2.884h-1.6l.179-2.884H331.27l.067-1.185,6.517-7.69h1.833l-6.248,7.422h4.549l.156-2.548h1.587l-.157,2.548h2.236L341.688,160Z" transform="translate(-238.54 -104.833)" fill="#263238"/>
      <path id="Tracé_851" data-name="Tracé 851" d="M341.662,157.014c.235-3.834,2.426-6.014,5.2-6.014s4.695,2.18,4.471,6.014-2.426,6.014-5.186,6.014-4.706-2.18-4.482-6.014Zm7.97,0c.179-3.007-1.017-4.471-2.861-4.471s-3.23,1.509-3.409,4.471,1.006,4.471,2.873,4.471,3.219-1.464,3.4-4.471Z" transform="translate(-237.319 -104.847)" fill="#263238"/>
      <path id="Tracé_852" data-name="Tracé 852" d="M351.762,157.014c.235-3.834,2.426-6.014,5.2-6.014s4.695,2.18,4.471,6.014-2.426,6.014-5.186,6.014-4.706-2.18-4.482-6.014Zm7.97,0c.179-3.007-1.017-4.471-2.861-4.471s-3.23,1.509-3.409,4.471,1.006,4.471,2.873,4.471,3.219-1.464,3.4-4.471Z" transform="translate(-236.129 -104.847)" fill="#263238"/>
      <path id="Tracé_853" data-name="Tracé 853" d="M361.39,160.808a1.2,1.2,0,0,1,1.218-1.118,1.026,1.026,0,0,1,1.051,1.006v.112a1.2,1.2,0,0,1-1.185,1.118A1.122,1.122,0,0,1,361.39,160.808Z" transform="translate(-234.993 -103.824)" fill="#263238"/>
      <path id="Tracé_854" data-name="Tracé 854" d="M374.481,159.562c-.134,2.135-2.034,3.465-4.929,3.465s-4.605-1.33-4.471-3.465a3.133,3.133,0,0,1,2.236-2.839,2.473,2.473,0,0,1-1.509-2.537c.112-1.967,1.9-3.186,4.471-3.186s4.225,1.218,4.113,3.186a2.877,2.877,0,0,1-1.833,2.537,2.725,2.725,0,0,1,1.923,2.839Zm-1.688,0c.078-1.3-1.028-2.1-2.906-2.1s-3.04.8-3.119,2.1.984,2.146,2.861,2.146,3.085-.861,3.186-2.191l-.022.045Zm-5.309-5.265c-.067,1.118.85,1.889,2.481,1.889s2.683-.727,2.75-1.889-.939-1.9-2.526-1.9-2.627.682-2.705,1.855v.045Z" transform="translate(-234.56 -104.847)" fill="#263238"/>
      <path id="Tracé_855" data-name="Tracé 855" d="M383.866,156.862c-.235,4.024-2.649,6.17-5.969,6.17a5.368,5.368,0,0,1-2.895-.693l.715-1.308a4.017,4.017,0,0,0,2.236.559c2.4,0,4.013-1.5,4.192-4.471v-.425a4.205,4.205,0,0,1-3.51,1.554c-2.358,0-3.957-1.4-3.834-3.566a4.079,4.079,0,0,1,4.4-3.711c3.219.034,4.9,2.146,4.661,5.891Zm-1.945-2.236c.078-1.207-.838-2.236-2.683-2.236a2.508,2.508,0,0,0-2.75,2.236h0c-.078,1.375.905,2.236,2.56,2.236a2.635,2.635,0,0,0,2.873-2.236Z" transform="translate(-233.415 -104.853)" fill="#263238"/>
      <path id="Tracé_856" data-name="Tracé 856" d="M334.973,142.26,334.694,147h-.682l.246-4.158H333.14v-.581Z" transform="translate(-238.32 -105.877)" fill="#263238"/>
      <path id="Tracé_857" data-name="Tracé 857" d="M335.47,146.168a.5.5,0,0,1,.492-.458.413.413,0,0,1,.425.4v.056a.5.5,0,0,1-.481.469.43.43,0,0,1-.436-.436Z" transform="translate(-238.046 -105.47)" fill="#263238"/>
      <path id="Tracé_858" data-name="Tracé 858" d="M338.543,142.26,338.264,147h-.682l.246-4.158H336.71v-.581h1.833Z" transform="translate(-237.9 -105.877)" fill="#263238"/>
      <path id="Tracé_859" data-name="Tracé 859" d="M339.161,144.636c.089-1.543.972-2.426,2.1-2.426s1.889.883,1.8,2.426-.972,2.426-2.09,2.426S339.071,146.178,339.161,144.636Zm3.219,0c.067-1.218-.414-1.822-1.118-1.822s-1.308.6-1.375,1.822.414,1.822,1.118,1.822,1.33-.615,1.33-1.822Z" transform="translate(-237.612 -105.883)" fill="#263238"/>
      <path id="Tracé_860" data-name="Tracé 860" d="M343.241,144.636c.089-1.543.972-2.426,2.09-2.426s1.9.883,1.811,2.426-.984,2.426-2.09,2.426S343.14,146.178,343.241,144.636Zm3.219,0c.067-1.218-.414-1.822-1.118-1.822s-1.308.6-1.375,1.822.4,1.822,1.118,1.822S346.382,145.843,346.46,144.636Z" transform="translate(-237.132 -105.883)" fill="#263238"/>
      <path id="Tracé_861" data-name="Tracé 861" d="M347.12,146.168a.5.5,0,0,1,.492-.458.413.413,0,0,1,.425.4v.056a.5.5,0,0,1-.481.469.43.43,0,0,1-.436-.436Z" transform="translate(-236.674 -105.47)" fill="#263238"/>
      <path id="Tracé_862" data-name="Tracé 862" d="M352.4,145.662c-.056.861-.816,1.4-1.99,1.4s-1.867-.537-1.811-1.4a1.27,1.27,0,0,1,.905-1.118,1.016,1.016,0,0,1-.6-1.028c0-.794.76-1.285,1.8-1.285s1.71.492,1.654,1.285a1.106,1.106,0,0,1-.738,1.028A1.131,1.131,0,0,1,352.4,145.662Zm-.682,0c0-.525-.414-.849-1.118-.849s-1.23.324-1.263.849.4.872,1.118.872,1.241-.358,1.274-.894v.022Zm-2.157-2.124c0,.469.346.76,1.006.76s1.118-.291,1.118-.76-.38-.76-1.017-.76-1.062.313-1.1.738v.022Z" transform="translate(-236.5 -105.88)" fill="#263238"/>
      <path id="Tracé_863" data-name="Tracé 863" d="M352.631,144.636c.089-1.543.972-2.426,2.1-2.426s1.889.883,1.8,2.426-.984,2.426-2.09,2.426S352.53,146.178,352.631,144.636Zm3.219,0c.067-1.218-.414-1.822-1.118-1.822s-1.308.6-1.375,1.822.414,1.822,1.118,1.822S355.772,145.843,355.85,144.636Z" transform="translate(-236.026 -105.883)" fill="#263238"/>
      <path id="Tracé_864" data-name="Tracé 864" d="M359.913,144.8h-1.241l-.078,1.218h-.57l.067-1.218H356.85v-.537h1.285l.078-1.218h.57l-.078,1.218h1.252Z" transform="translate(-235.528 -105.784)" fill="#263238"/>
      <path id="Tracé_865" data-name="Tracé 865" d="M361.843,142.26,361.564,147h-.682l.246-4.158H360.01v-.581h1.833Z" transform="translate(-235.156 -105.877)" fill="#263238"/>
      <path id="Tracé_866" data-name="Tracé 866" d="M362.34,146.168a.482.482,0,0,1,.492-.458.425.425,0,0,1,.425.425v.034a.5.5,0,0,1-.481.469.43.43,0,0,1-.436-.436Z" transform="translate(-234.881 -105.47)" fill="#263238"/>
      <path id="Tracé_867" data-name="Tracé 867" d="M367.162,145.6c0,.8-.682,1.453-1.889,1.453a2.642,2.642,0,0,1-1.733-.581l.347-.537a2.061,2.061,0,0,0,1.42.514c.715,0,1.118-.324,1.174-.838s-.313-.827-1.118-.827h-.391v-.481l1.3-1.464h-2.314v-.581h3.163v.458l-1.341,1.531c.984.089,1.431.626,1.386,1.353Z" transform="translate(-234.74 -105.877)" fill="#263238"/>
      <path id="Tracé_868" data-name="Tracé 868" d="M367.4,144.636c.089-1.543.984-2.426,2.1-2.426s1.9.883,1.811,2.426-.984,2.426-2.1,2.426S367.311,146.178,367.4,144.636Zm3.219,0c.078-1.218-.4-1.822-1.118-1.822s-1.308.6-1.386,1.822.414,1.822,1.118,1.822S370.553,145.843,370.62,144.636Z" transform="translate(-234.286 -105.883)" fill="#263238"/>
      <path id="Tracé_869" data-name="Tracé 869" d="M371.481,144.636c.089-1.543.984-2.426,2.1-2.426s1.9.883,1.8,2.426-.972,2.426-2.09,2.426S371.391,146.178,371.481,144.636Zm3.219,0c.078-1.218-.414-1.822-1.118-1.822s-1.308.6-1.386,1.822.414,1.822,1.118,1.822,1.319-.615,1.386-1.822Z" transform="translate(-233.806 -105.883)" fill="#263238"/>
      <path id="Tracé_870" data-name="Tracé 870" d="M375.37,146.168a.482.482,0,0,1,.492-.458.425.425,0,0,1,.425.425v.034a.5.5,0,0,1-.481.469.425.425,0,0,1-.436-.414Z" transform="translate(-233.347 -105.47)" fill="#263238"/>
      <path id="Tracé_871" data-name="Tracé 871" d="M376.8,144.636c.089-1.543.972-2.426,2.1-2.426s1.9.883,1.8,2.426-.972,2.426-2.09,2.426S376.711,146.178,376.8,144.636Zm3.219,0c.078-1.218-.414-1.822-1.118-1.822s-1.308.6-1.386,1.822.414,1.822,1.118,1.822S379.953,145.843,380.02,144.636Z" transform="translate(-233.179 -105.883)" fill="#263238"/>
      <path id="Tracé_872" data-name="Tracé 872" d="M384.456,144.569a2.362,2.362,0,0,1-2.224,2.493h-.19a2.251,2.251,0,0,1-1.174-.279l.291-.525a1.729,1.729,0,0,0,.905.224,1.649,1.649,0,0,0,1.7-1.6v-.358a1.688,1.688,0,0,1-1.42.615,1.372,1.372,0,0,1-1.542-1.185,1.807,1.807,0,0,1,0-.246,1.652,1.652,0,0,1,1.788-1.5c1.3,0,1.967.883,1.878,2.358Zm-.794-.894c0-.492-.335-.917-1.118-.917a1.013,1.013,0,0,0-1.118.883v.034c0,.559.358.917,1.028.917a1.118,1.118,0,0,0,1.207-.917h0Z" transform="translate(-232.708 -105.883)" fill="#263238"/>
      <path id="Tracé_873" data-name="Tracé 873" d="M411.7,109.731c-14.285,35.567-58.3,122.753-160.555,172.2l9.49-166.625a5.944,5.944,0,0,1,5.868-5.589H411.7Z" transform="translate(-247.977 -109.709)" fill="#fff" opacity="0.1" style="isolation: isolate"/>
      <path id="Tracé_874" data-name="Tracé 874" d="M386.744,185.38H370.223a2.381,2.381,0,0,0-2.358,2.236l-.324,5.734a2.106,2.106,0,0,0,1.945,2.236h16.677a2.381,2.381,0,0,0,2.358-2.236l.324-5.734a2.106,2.106,0,0,0-1.945-2.236Z" transform="translate(-234.27 -100.799)" fill="#263238"/>
      <path id="Tracé_875" data-name="Tracé 875" d="M361.674,185.291H345.142a2.379,2.379,0,0,0-2.347,2.236l-.324,5.734a2.069,2.069,0,0,0,1.911,2.224h16.711a2.4,2.4,0,0,0,2.347-2.236l.335-5.734a2.106,2.106,0,0,0-1.945-2.236h-.157Z" transform="translate(-237.222 -100.81)" fill="#263238"/>
      <path id="Tracé_876" data-name="Tracé 876" d="M385.934,199.641H369.413a2.373,2.373,0,0,0-2.358,2.236l-.324,5.734a2.069,2.069,0,0,0,1.911,2.224h16.711a2.406,2.406,0,0,0,2.358-2.236l.324-5.734a2.106,2.106,0,0,0-1.945-2.236h-.156Z" transform="translate(-234.365 -99.121)" fill="#263238"/>
      <path id="Tracé_877" data-name="Tracé 877" d="M360.865,199.54H344.333a2.4,2.4,0,0,0-2.347,2.236l-.335,5.734a2.106,2.106,0,0,0,1.945,2.236h16.688a2.379,2.379,0,0,0,2.347-2.236l.335-5.734a2.106,2.106,0,0,0-1.945-2.236Z" transform="translate(-237.319 -99.131)" fill="#263238"/>
      <path id="Tracé_878" data-name="Tracé 878" d="M335.77,199.64H319.283a2.381,2.381,0,0,0-2.358,2.236l-.324,5.734a2.106,2.106,0,0,0,1.945,2.236h16.677a2.381,2.381,0,0,0,2.358-2.236l.324-5.734a2.1,2.1,0,0,0-1.934-2.236Z" transform="translate(-240.268 -99.119)" fill="#263238"/>
      <path id="Tracé_879" data-name="Tracé 879" d="M310.694,199.731H294.173a2.381,2.381,0,0,0-2.358,2.236l-.324,5.734a2.069,2.069,0,0,0,1.911,2.224h16.711a2.381,2.381,0,0,0,2.358-2.236l.324-5.734a2.106,2.106,0,0,0-1.945-2.236h-.156Z" transform="translate(-243.226 -99.11)" fill="#263238"/>
      <path id="Tracé_880" data-name="Tracé 880" d="M285.615,199.82H269.083a2.4,2.4,0,0,0-2.347,2.236l-.335,5.734a2.106,2.106,0,0,0,1.945,2.236h16.688a2.379,2.379,0,0,0,2.347-2.236l.335-5.734a2.106,2.106,0,0,0-1.945-2.236Z" transform="translate(-246.18 -99.098)" fill="#263238"/>
      <path id="Tracé_881" data-name="Tracé 881" d="M384.442,218.77H368.793A2.823,2.823,0,0,0,366,221.43l-.458,8.081a2.467,2.467,0,0,0,2.269,2.649h15.872a2.847,2.847,0,0,0,2.794-2.66l.458-8.081a2.471,2.471,0,0,0-2.291-2.649h-.2Z" transform="translate(-234.505 -96.867)" fill="#263238"/>
      <path id="Tracé_882" data-name="Tracé 882" d="M359.373,218.65H343.724a2.821,2.821,0,0,0-2.794,2.649l-.469,8.093a2.477,2.477,0,0,0,2.3,2.638H358.6a2.821,2.821,0,0,0,2.794-2.649l.469-8.093a2.477,2.477,0,0,0-2.3-2.638Z" transform="translate(-237.459 -96.881)" fill="#263238"/>
      <path id="Tracé_883" data-name="Tracé 883" d="M334.282,218.77H318.633a2.847,2.847,0,0,0-2.794,2.66l-.458,8.081a2.471,2.471,0,0,0,2.291,2.649h15.85a2.847,2.847,0,0,0,2.794-2.66l.458-8.081a2.467,2.467,0,0,0-2.269-2.649h-.224Z" transform="translate(-240.412 -96.867)" fill="#263238"/>
      <path id="Tracé_884" data-name="Tracé 884" d="M309.2,218.89H293.554a2.839,2.839,0,0,0-2.794,2.66l-.469,8.081a2.489,2.489,0,0,0,2.314,2.649h15.828a2.839,2.839,0,0,0,2.794-2.66l.469-8.081a2.489,2.489,0,0,0-2.314-2.649Z" transform="translate(-243.367 -96.852)" fill="#263238"/>
      <path id="Tracé_885" data-name="Tracé 885" d="M284.112,219H268.464a2.846,2.846,0,0,0-2.794,2.649l-.458,8.093a2.468,2.468,0,0,0,2.258,2.66h15.839a2.846,2.846,0,0,0,2.794-2.649l.458-8.093A2.468,2.468,0,0,0,284.3,219Z" transform="translate(-246.321 -96.84)" fill="#263238"/>
      <path id="Tracé_886" data-name="Tracé 886" d="M355.192,292H339.543a2.846,2.846,0,0,0-2.794,2.649l-.458,8.093a2.459,2.459,0,0,0,2.28,2.638h15.861a2.846,2.846,0,0,0,2.794-2.649l.458-8.093A2.459,2.459,0,0,0,355.4,292Z" transform="translate(-237.95 -88.243)" fill="#263238"/>
      <path id="Tracé_887" data-name="Tracé 887" d="M330.113,292.11H314.464a2.821,2.821,0,0,0-2.794,2.649l-.469,8.093a2.477,2.477,0,0,0,2.3,2.638h15.839a2.821,2.821,0,0,0,2.794-2.649l.469-8.093a2.477,2.477,0,0,0-2.3-2.638Z" transform="translate(-240.904 -88.23)" fill="#263238"/>
      <path id="Tracé_888" data-name="Tracé 888" d="M304.992,292.23H289.343a2.846,2.846,0,0,0-2.794,2.649l-.458,8.093a2.459,2.459,0,0,0,2.28,2.638h15.861a2.846,2.846,0,0,0,2.794-2.649l.458-8.093a2.459,2.459,0,0,0-2.28-2.638Z" transform="translate(-243.862 -88.216)" fill="#263238"/>
      <path id="Tracé_889" data-name="Tracé 889" d="M280,292.35H264.354A2.821,2.821,0,0,0,261.56,295L261,303.136a2.455,2.455,0,0,0,2.258,2.638h15.872a2.821,2.821,0,0,0,2.794-2.649l.469-8.093a2.473,2.473,0,0,0-2.258-2.683H280Z" transform="translate(-246.816 -88.202)" fill="#263238"/>
      <path id="Tracé_890" data-name="Tracé 890" d="M381.431,273.77H365.782a2.839,2.839,0,0,0-2.794,2.66l-.4,7.031-.067,1.051-1.118,20.5a2.459,2.459,0,0,0,2.28,2.638h15.861A2.821,2.821,0,0,0,382.336,305l1.118-20.5.067-1.051.4-7.031a2.489,2.489,0,0,0-2.314-2.649Z" transform="translate(-234.993 -90.39)" fill="#263238"/>
      <path id="Tracé_891" data-name="Tracé 891" d="M356.243,273.65H340.594A2.821,2.821,0,0,0,337.8,276.3l-.469,8.093a2.477,2.477,0,0,0,2.3,2.638h15.839a2.821,2.821,0,0,0,2.794-2.649l.469-8.093a2.477,2.477,0,0,0-2.3-2.638Z" transform="translate(-237.827 -90.404)" fill="#263238"/>
      <path id="Tracé_892" data-name="Tracé 892" d="M331.152,273.77H315.5a2.847,2.847,0,0,0-2.794,2.66l-.458,8.081a2.467,2.467,0,0,0,2.269,2.649h15.872a2.847,2.847,0,0,0,2.794-2.66l.458-8.081a2.471,2.471,0,0,0-2.291-2.649h-.2Z" transform="translate(-240.781 -90.39)" fill="#263238"/>
      <path id="Tracé_893" data-name="Tracé 893" d="M306.083,273.9H290.344a2.821,2.821,0,0,0-2.794,2.649l-.469,8.093a2.477,2.477,0,0,0,2.3,2.638h15.839a2.821,2.821,0,0,0,2.794-2.649l.469-8.093a2.494,2.494,0,0,0-2.3-2.649h-.1Z" transform="translate(-243.745 -90.376)" fill="#263238"/>
      <path id="Tracé_894" data-name="Tracé 894" d="M280.992,274H265.343a2.846,2.846,0,0,0-2.794,2.649l-.458,8.093a2.459,2.459,0,0,0,2.28,2.638h15.861a2.846,2.846,0,0,0,2.794-2.649l.458-8.093A2.459,2.459,0,0,0,281.2,274Z" transform="translate(-246.688 -90.363)" fill="#263238"/>
      <path id="Tracé_895" data-name="Tracé 895" d="M382.352,255.44H366.7a2.846,2.846,0,0,0-2.794,2.649l-.458,8.093a2.459,2.459,0,0,0,2.28,2.638h15.861a2.846,2.846,0,0,0,2.794-2.649l.458-8.093a2.459,2.459,0,0,0-2.28-2.638h-.212Z" transform="translate(-234.751 -92.548)" fill="#263238"/>
      <path id="Tracé_896" data-name="Tracé 896" d="M357.282,255.32H341.633a2.821,2.821,0,0,0-2.794,2.649l-.458,8.093a2.459,2.459,0,0,0,2.28,2.638h15.861a2.846,2.846,0,0,0,2.794-2.649l.458-8.093a2.477,2.477,0,0,0-2.3-2.638h-.19Z" transform="translate(-237.704 -92.562)" fill="#263238"/>
      <path id="Tracé_897" data-name="Tracé 897" d="M332.192,255.44H316.543a2.846,2.846,0,0,0-2.794,2.649l-.458,8.093a2.477,2.477,0,0,0,2.3,2.638h15.839a2.821,2.821,0,0,0,2.794-2.649l.458-8.093a2.459,2.459,0,0,0-2.28-2.638h-.212Z" transform="translate(-240.658 -92.548)" fill="#263238"/>
      <path id="Tracé_898" data-name="Tracé 898" d="M307.112,255.56H291.463a2.821,2.821,0,0,0-2.794,2.649l-.458,8.093a2.459,2.459,0,0,0,2.28,2.638h15.861a2.846,2.846,0,0,0,2.794-2.649l.458-8.093a2.459,2.459,0,0,0-2.28-2.638Z" transform="translate(-243.612 -92.534)" fill="#263238"/>
      <path id="Tracé_899" data-name="Tracé 899" d="M281.992,255.68H266.343a2.848,2.848,0,0,0-2.794,2.66l-.458,8.081a2.489,2.489,0,0,0,2.314,2.649h15.828a2.839,2.839,0,0,0,2.794-2.66l.458-8.081a2.467,2.467,0,0,0-2.269-2.649Z" transform="translate(-246.57 -92.52)" fill="#263238"/>
      <path id="Tracé_900" data-name="Tracé 900" d="M383.392,237.11H367.743a2.846,2.846,0,0,0-2.794,2.649l-.458,8.093a2.477,2.477,0,0,0,2.3,2.638h15.839a2.821,2.821,0,0,0,2.794-2.649l.458-8.093a2.459,2.459,0,0,0-2.28-2.638Z" transform="translate(-234.629 -94.707)" fill="#263238"/>
      <path id="Tracé_901" data-name="Tracé 901" d="M358.322,237H342.673a2.847,2.847,0,0,0-2.794,2.66l-.458,8.081a2.471,2.471,0,0,0,2.291,2.649h15.85a2.839,2.839,0,0,0,2.794-2.66l.458-8.081A2.467,2.467,0,0,0,358.546,237h-.224Z" transform="translate(-237.581 -94.72)" fill="#263238"/>
      <path id="Tracé_902" data-name="Tracé 902" d="M333.242,237.11H317.593a2.821,2.821,0,0,0-2.794,2.649l-.458,8.093a2.459,2.459,0,0,0,2.28,2.638h15.861a2.846,2.846,0,0,0,2.794-2.649l.458-8.093a2.477,2.477,0,0,0-2.3-2.638Z" transform="translate(-240.535 -94.707)" fill="#263238"/>
      <path id="Tracé_903" data-name="Tracé 903" d="M308.152,237.23H292.5a2.846,2.846,0,0,0-2.794,2.649l-.458,8.093a2.459,2.459,0,0,0,2.28,2.638h15.861a2.821,2.821,0,0,0,2.794-2.649l.458-8.093a2.459,2.459,0,0,0-2.28-2.638Z" transform="translate(-243.489 -94.693)" fill="#263238"/>
      <path id="Tracé_904" data-name="Tracé 904" d="M283.081,237.351H267.343A2.821,2.821,0,0,0,264.549,240l-.458,8.093a2.459,2.459,0,0,0,2.28,2.638h15.861a2.846,2.846,0,0,0,2.794-2.649l.458-8.093a2.494,2.494,0,0,0-2.3-2.649h-.1Z" transform="translate(-246.452 -94.68)" fill="#263238"/>
      <g id="Groupe_36" data-name="Groupe 36" transform="translate(14.177 84.469)" opacity="0.3">
        <path id="Tracé_905" data-name="Tracé 905" d="M386.744,185.38H370.223a2.381,2.381,0,0,0-2.358,2.236l-.324,5.734a2.106,2.106,0,0,0,1.945,2.236h16.677a2.381,2.381,0,0,0,2.358-2.236l.324-5.734a2.106,2.106,0,0,0-1.945-2.236Z" transform="translate(-248.447 -185.268)" fill="#fff"/>
        <path id="Tracé_906" data-name="Tracé 906" d="M361.674,185.291H345.142a2.379,2.379,0,0,0-2.347,2.236l-.324,5.734a2.069,2.069,0,0,0,1.911,2.224h16.711a2.4,2.4,0,0,0,2.347-2.236l.335-5.734a2.106,2.106,0,0,0-1.945-2.236h-.157Z" transform="translate(-251.4 -185.28)" fill="#fff"/>
        <path id="Tracé_907" data-name="Tracé 907" d="M385.934,199.641H369.413a2.373,2.373,0,0,0-2.358,2.236l-.324,5.734a2.069,2.069,0,0,0,1.911,2.224h16.711a2.406,2.406,0,0,0,2.358-2.236l.324-5.734a2.106,2.106,0,0,0-1.945-2.236h-.156Z" transform="translate(-248.543 -183.59)" fill="#fff"/>
        <path id="Tracé_908" data-name="Tracé 908" d="M360.865,199.54H344.333a2.4,2.4,0,0,0-2.347,2.236l-.335,5.734a2.106,2.106,0,0,0,1.945,2.236h16.688a2.379,2.379,0,0,0,2.347-2.236l.335-5.734a2.106,2.106,0,0,0-1.945-2.236Z" transform="translate(-251.496 -183.601)" fill="#fff"/>
        <path id="Tracé_909" data-name="Tracé 909" d="M335.77,199.64H319.283a2.381,2.381,0,0,0-2.358,2.236l-.324,5.734a2.106,2.106,0,0,0,1.945,2.236h16.677a2.381,2.381,0,0,0,2.358-2.236l.324-5.734a2.1,2.1,0,0,0-1.934-2.236Z" transform="translate(-254.446 -183.589)" fill="#fff"/>
        <path id="Tracé_910" data-name="Tracé 910" d="M310.694,199.731H294.173a2.381,2.381,0,0,0-2.358,2.236l-.324,5.734a2.069,2.069,0,0,0,1.911,2.224h16.711a2.381,2.381,0,0,0,2.358-2.236l.324-5.734a2.106,2.106,0,0,0-1.945-2.236h-.156Z" transform="translate(-257.403 -183.579)" fill="#fff"/>
        <path id="Tracé_911" data-name="Tracé 911" d="M285.615,199.82H269.083a2.4,2.4,0,0,0-2.347,2.236l-.335,5.734a2.106,2.106,0,0,0,1.945,2.236h16.688a2.379,2.379,0,0,0,2.347-2.236l.335-5.734a2.106,2.106,0,0,0-1.945-2.236Z" transform="translate(-260.358 -183.568)" fill="#fff"/>
        <path id="Tracé_912" data-name="Tracé 912" d="M384.442,218.77H368.793A2.823,2.823,0,0,0,366,221.43l-.458,8.081a2.467,2.467,0,0,0,2.269,2.649h15.872a2.847,2.847,0,0,0,2.794-2.66l.458-8.081a2.471,2.471,0,0,0-2.291-2.649h-.2Z" transform="translate(-248.683 -181.336)" fill="#fff"/>
        <path id="Tracé_913" data-name="Tracé 913" d="M359.373,218.65H343.724a2.821,2.821,0,0,0-2.794,2.649l-.469,8.093a2.477,2.477,0,0,0,2.3,2.638H358.6a2.821,2.821,0,0,0,2.794-2.649l.469-8.093a2.477,2.477,0,0,0-2.3-2.638Z" transform="translate(-251.636 -181.35)" fill="#fff"/>
        <path id="Tracé_914" data-name="Tracé 914" d="M334.282,218.77H318.633a2.847,2.847,0,0,0-2.794,2.66l-.458,8.081a2.471,2.471,0,0,0,2.291,2.649h15.85a2.847,2.847,0,0,0,2.794-2.66l.458-8.081a2.467,2.467,0,0,0-2.269-2.649h-.224Z" transform="translate(-254.59 -181.336)" fill="#fff"/>
        <path id="Tracé_915" data-name="Tracé 915" d="M309.2,218.89H293.554a2.839,2.839,0,0,0-2.794,2.66l-.469,8.081a2.489,2.489,0,0,0,2.314,2.649h15.828a2.839,2.839,0,0,0,2.794-2.66l.469-8.081a2.489,2.489,0,0,0-2.314-2.649Z" transform="translate(-257.544 -181.322)" fill="#fff"/>
        <path id="Tracé_916" data-name="Tracé 916" d="M284.112,219H268.464a2.846,2.846,0,0,0-2.794,2.649l-.458,8.093a2.468,2.468,0,0,0,2.258,2.66h15.839a2.846,2.846,0,0,0,2.794-2.649l.458-8.093A2.468,2.468,0,0,0,284.3,219Z" transform="translate(-260.498 -181.309)" fill="#fff"/>
        <path id="Tracé_917" data-name="Tracé 917" d="M355.192,292H339.543a2.846,2.846,0,0,0-2.794,2.649l-.458,8.093a2.459,2.459,0,0,0,2.28,2.638h15.861a2.846,2.846,0,0,0,2.794-2.649l.458-8.093A2.459,2.459,0,0,0,355.4,292Z" transform="translate(-252.127 -172.712)" fill="#fff"/>
        <path id="Tracé_918" data-name="Tracé 918" d="M330.113,292.11H314.464a2.821,2.821,0,0,0-2.794,2.649l-.469,8.093a2.477,2.477,0,0,0,2.3,2.638h15.839a2.821,2.821,0,0,0,2.794-2.649l.469-8.093a2.477,2.477,0,0,0-2.3-2.638Z" transform="translate(-255.082 -172.699)" fill="#fff"/>
        <path id="Tracé_919" data-name="Tracé 919" d="M304.992,292.23H289.343a2.846,2.846,0,0,0-2.794,2.649l-.458,8.093a2.459,2.459,0,0,0,2.28,2.638h15.861a2.846,2.846,0,0,0,2.794-2.649l.458-8.093a2.459,2.459,0,0,0-2.28-2.638Z" transform="translate(-258.039 -172.685)" fill="#fff"/>
        <path id="Tracé_920" data-name="Tracé 920" d="M280,292.35H264.354A2.821,2.821,0,0,0,261.56,295L261,303.136a2.455,2.455,0,0,0,2.258,2.638h15.872a2.821,2.821,0,0,0,2.794-2.649l.469-8.093a2.473,2.473,0,0,0-2.258-2.683H280Z" transform="translate(-260.994 -172.671)" fill="#fff"/>
        <path id="Tracé_921" data-name="Tracé 921" d="M381.431,273.77H365.782a2.839,2.839,0,0,0-2.794,2.66l-.4,7.031-.067,1.051-1.118,20.5a2.459,2.459,0,0,0,2.28,2.638h15.861A2.821,2.821,0,0,0,382.336,305l1.118-20.5.067-1.051.4-7.031a2.489,2.489,0,0,0-2.314-2.649Z" transform="translate(-249.17 -174.859)" fill="#fff"/>
        <path id="Tracé_922" data-name="Tracé 922" d="M356.243,273.65H340.594A2.821,2.821,0,0,0,337.8,276.3l-.469,8.093a2.477,2.477,0,0,0,2.3,2.638h15.839a2.821,2.821,0,0,0,2.794-2.649l.469-8.093a2.477,2.477,0,0,0-2.3-2.638Z" transform="translate(-252.005 -174.873)" fill="#fff"/>
        <path id="Tracé_923" data-name="Tracé 923" d="M331.152,273.77H315.5a2.847,2.847,0,0,0-2.794,2.66l-.458,8.081a2.467,2.467,0,0,0,2.269,2.649h15.872a2.847,2.847,0,0,0,2.794-2.66l.458-8.081a2.471,2.471,0,0,0-2.291-2.649h-.2Z" transform="translate(-254.958 -174.859)" fill="#fff"/>
        <path id="Tracé_924" data-name="Tracé 924" d="M306.083,273.9H290.344a2.821,2.821,0,0,0-2.794,2.649l-.469,8.093a2.477,2.477,0,0,0,2.3,2.638h15.839a2.821,2.821,0,0,0,2.794-2.649l.469-8.093a2.494,2.494,0,0,0-2.3-2.649h-.1Z" transform="translate(-257.922 -174.845)" fill="#fff"/>
        <path id="Tracé_925" data-name="Tracé 925" d="M280.992,274H265.343a2.846,2.846,0,0,0-2.794,2.649l-.458,8.093a2.459,2.459,0,0,0,2.28,2.638h15.861a2.846,2.846,0,0,0,2.794-2.649l.458-8.093A2.459,2.459,0,0,0,281.2,274Z" transform="translate(-260.865 -174.832)" fill="#fff"/>
        <path id="Tracé_926" data-name="Tracé 926" d="M382.352,255.44H366.7a2.846,2.846,0,0,0-2.794,2.649l-.458,8.093a2.459,2.459,0,0,0,2.28,2.638h15.861a2.846,2.846,0,0,0,2.794-2.649l.458-8.093a2.459,2.459,0,0,0-2.28-2.638h-.212Z" transform="translate(-248.929 -177.018)" fill="#fff"/>
        <path id="Tracé_927" data-name="Tracé 927" d="M357.282,255.32H341.633a2.821,2.821,0,0,0-2.794,2.649l-.458,8.093a2.459,2.459,0,0,0,2.28,2.638h15.861a2.846,2.846,0,0,0,2.794-2.649l.458-8.093a2.477,2.477,0,0,0-2.3-2.638h-.19Z" transform="translate(-251.881 -177.032)" fill="#fff"/>
        <path id="Tracé_928" data-name="Tracé 928" d="M332.192,255.44H316.543a2.846,2.846,0,0,0-2.794,2.649l-.458,8.093a2.477,2.477,0,0,0,2.3,2.638h15.839a2.821,2.821,0,0,0,2.794-2.649l.458-8.093a2.459,2.459,0,0,0-2.28-2.638h-.212Z" transform="translate(-254.836 -177.018)" fill="#fff"/>
        <path id="Tracé_929" data-name="Tracé 929" d="M307.112,255.56H291.463a2.821,2.821,0,0,0-2.794,2.649l-.458,8.093a2.459,2.459,0,0,0,2.28,2.638h15.861a2.846,2.846,0,0,0,2.794-2.649l.458-8.093a2.459,2.459,0,0,0-2.28-2.638Z" transform="translate(-257.789 -177.004)" fill="#fff"/>
        <path id="Tracé_930" data-name="Tracé 930" d="M281.992,255.68H266.343a2.848,2.848,0,0,0-2.794,2.66l-.458,8.081a2.489,2.489,0,0,0,2.314,2.649h15.828a2.839,2.839,0,0,0,2.794-2.66l.458-8.081a2.467,2.467,0,0,0-2.269-2.649Z" transform="translate(-260.747 -176.989)" fill="#fff"/>
        <path id="Tracé_931" data-name="Tracé 931" d="M383.392,237.11H367.743a2.846,2.846,0,0,0-2.794,2.649l-.458,8.093a2.477,2.477,0,0,0,2.3,2.638h15.839a2.821,2.821,0,0,0,2.794-2.649l.458-8.093a2.459,2.459,0,0,0-2.28-2.638Z" transform="translate(-248.806 -179.176)" fill="#fff"/>
        <path id="Tracé_932" data-name="Tracé 932" d="M358.322,237H342.673a2.847,2.847,0,0,0-2.794,2.66l-.458,8.081a2.471,2.471,0,0,0,2.291,2.649h15.85a2.839,2.839,0,0,0,2.794-2.66l.458-8.081A2.467,2.467,0,0,0,358.546,237h-.224Z" transform="translate(-251.759 -179.189)" fill="#fff"/>
        <path id="Tracé_933" data-name="Tracé 933" d="M333.242,237.11H317.593a2.821,2.821,0,0,0-2.794,2.649l-.458,8.093a2.459,2.459,0,0,0,2.28,2.638h15.861a2.846,2.846,0,0,0,2.794-2.649l.458-8.093a2.477,2.477,0,0,0-2.3-2.638Z" transform="translate(-254.712 -179.176)" fill="#fff"/>
        <path id="Tracé_934" data-name="Tracé 934" d="M308.152,237.23H292.5a2.846,2.846,0,0,0-2.794,2.649l-.458,8.093a2.459,2.459,0,0,0,2.28,2.638h15.861a2.821,2.821,0,0,0,2.794-2.649l.458-8.093a2.459,2.459,0,0,0-2.28-2.638Z" transform="translate(-257.667 -179.162)" fill="#fff"/>
        <path id="Tracé_935" data-name="Tracé 935" d="M283.081,237.351H267.343A2.821,2.821,0,0,0,264.549,240l-.458,8.093a2.459,2.459,0,0,0,2.28,2.638h15.861a2.846,2.846,0,0,0,2.794-2.649l.458-8.093a2.494,2.494,0,0,0-2.3-2.649h-.1Z" transform="translate(-260.63 -179.149)" fill="#fff"/>
      </g>
      <g id="Groupe_37" data-name="Groupe 37" transform="translate(105.237 84.481)" opacity="0.4">
        <path id="Tracé_936" data-name="Tracé 936" d="M386.163,195.585H369.643a2.09,2.09,0,0,1-2.113-2.046v-.19l.324-5.734a2.381,2.381,0,0,1,2.358-2.236h16.521a2.087,2.087,0,0,1,2.1,2.079v.156l-.324,5.734a2.381,2.381,0,0,1-2.358,2.236Z" transform="translate(-339.508 -185.279)"/>
        <path id="Tracé_937" data-name="Tracé 937" d="M361.093,195.5H344.561a2.09,2.09,0,0,1-2.1-2.057v-.179l.324-5.734a2.379,2.379,0,0,1,2.347-2.236h16.532a2.087,2.087,0,0,1,2.1,2.079v.156l-.335,5.734a2.4,2.4,0,0,1-2.347,2.236Z" transform="translate(-342.46 -185.29)"/>
      </g>
      <g id="Groupe_38" data-name="Groupe 38" transform="translate(20.22 100.409)" opacity="0.4">
        <path id="Tracé_938" data-name="Tracé 938" d="M385.353,209.845H368.833a2.09,2.09,0,0,1-2.113-2.046v-.19l.324-5.734a2.381,2.381,0,0,1,2.358-2.236h16.521a2.087,2.087,0,0,1,2.1,2.079v.156l-.324,5.734a2.406,2.406,0,0,1-2.358,2.236Z" transform="translate(-254.586 -199.528)"/>
        <path id="Tracé_939" data-name="Tracé 939" d="M360.283,209.745H343.751a2.087,2.087,0,0,1-2.1-2.079v-.156l.335-5.734a2.4,2.4,0,0,1,2.347-2.236h16.532a2.087,2.087,0,0,1,2.1,2.079v.156l-.335,5.734A2.379,2.379,0,0,1,360.283,209.745Z" transform="translate(-257.538 -199.54)"/>
        <path id="Tracé_940" data-name="Tracé 940" d="M335.192,209.845H318.671a2.087,2.087,0,0,1-2.1-2.079v-.156l.324-5.734a2.381,2.381,0,0,1,2.358-2.236h16.521a2.087,2.087,0,0,1,2.1,2.079v.156l-.324,5.734A2.381,2.381,0,0,1,335.192,209.845Z" transform="translate(-260.492 -199.528)"/>
        <path id="Tracé_941" data-name="Tracé 941" d="M310.113,209.935H293.593a2.09,2.09,0,0,1-2.113-2.046v-.19l.324-5.734a2.381,2.381,0,0,1,2.358-2.236h16.521a2.087,2.087,0,0,1,2.1,2.079v.156l-.324,5.734a2.381,2.381,0,0,1-2.358,2.236Z" transform="translate(-263.447 -199.518)"/>
        <path id="Tracé_942" data-name="Tracé 942" d="M285.033,210.075H268.5A2.087,2.087,0,0,1,266.4,208v-.156l.335-5.734a2.4,2.4,0,0,1,2.347-2.236h16.532a2.087,2.087,0,0,1,2.1,2.079v.156l-.335,5.734A2.379,2.379,0,0,1,285.033,210.075Z" transform="translate(-266.4 -199.501)"/>
      </g>
      <path id="Tracé_943" data-name="Tracé 943" d="M306.481,190.258h32.247a1.305,1.305,0,0,0,1.285-1.23h0A1.126,1.126,0,0,0,339,187.81h-32.37a1.3,1.3,0,0,0-1.285,1.218h0a1.125,1.125,0,0,0,.995,1.23h.145Z" transform="translate(-241.595 -100.513)" opacity="0.2" style="isolation: isolate"/>
      <path id="Tracé_944" data-name="Tracé 944" d="M268.582,190.258h32.247a1.305,1.305,0,0,0,1.285-1.23h0a1.126,1.126,0,0,0-1.017-1.218H268.716a1.3,1.3,0,0,0-1.285,1.218h0a1.117,1.117,0,0,0,.995,1.23h.156Z" transform="translate(-246.059 -100.513)" opacity="0.2" style="isolation: isolate"/>
      <path id="Tracé_945" data-name="Tracé 945" d="M276.553,191.262h-4.281a2,2,0,0,1-2.012-1.99v-.156h0a2.24,2.24,0,0,1,2.236-2.146h4.27a2,2,0,0,1,2.023,1.978v.168h0a2.3,2.3,0,0,1-2.236,2.146Z" transform="translate(-245.725 -100.611)" fill="#263238"/>
      <path id="Tracé_946" data-name="Tracé 946" d="M330.353,191.221h-4.27a2,2,0,0,1-2.023-1.978v-.168h0a2.3,2.3,0,0,1,2.236-2.135h4.281a1.987,1.987,0,0,1,2.012,1.967v.168h0a2.24,2.24,0,0,1-2.236,2.146Z" transform="translate(-239.389 -100.615)" fill="#263238"/>
      <path id="Tracé_947" data-name="Tracé 947" d="M384.442,218.77H368.793A2.823,2.823,0,0,0,366,221.43l-.458,8.081a2.467,2.467,0,0,0,2.269,2.649h15.872a2.847,2.847,0,0,0,2.794-2.66l.458-8.081a2.471,2.471,0,0,0-2.291-2.649h-.2Z" transform="translate(-234.505 -96.867)" opacity="0.5" style="isolation: isolate"/>
      <path id="Tracé_948" data-name="Tracé 948" d="M359.373,218.65H343.724a2.821,2.821,0,0,0-2.794,2.649l-.469,8.093a2.477,2.477,0,0,0,2.3,2.638H358.6a2.821,2.821,0,0,0,2.794-2.649l.469-8.093a2.477,2.477,0,0,0-2.3-2.638Z" transform="translate(-237.459 -96.881)" opacity="0.5" style="isolation: isolate"/>
      <path id="Tracé_949" data-name="Tracé 949" d="M334.282,218.77H318.633a2.847,2.847,0,0,0-2.794,2.66l-.458,8.081a2.471,2.471,0,0,0,2.291,2.649h15.85a2.847,2.847,0,0,0,2.794-2.66l.458-8.081a2.467,2.467,0,0,0-2.269-2.649h-.224Z" transform="translate(-240.412 -96.867)" opacity="0.5" style="isolation: isolate"/>
      <path id="Tracé_950" data-name="Tracé 950" d="M309.2,218.89H293.553a2.839,2.839,0,0,0-2.794,2.66l-.458,8.081a2.467,2.467,0,0,0,2.269,2.649h15.861a2.839,2.839,0,0,0,2.794-2.66l.469-8.081a2.489,2.489,0,0,0-2.314-2.649Z" transform="translate(-243.366 -96.852)" opacity="0.5" style="isolation: isolate"/>
      <path id="Tracé_951" data-name="Tracé 951" d="M284.112,219H268.464a2.846,2.846,0,0,0-2.794,2.649l-.458,8.093a2.468,2.468,0,0,0,2.258,2.66h15.839a2.846,2.846,0,0,0,2.794-2.649l.458-8.093A2.468,2.468,0,0,0,284.3,219Z" transform="translate(-246.321 -96.84)" opacity="0.5" style="isolation: isolate"/>
      <path id="Tracé_952" data-name="Tracé 952" d="M355.192,292H339.543a2.846,2.846,0,0,0-2.794,2.649l-.458,8.093a2.459,2.459,0,0,0,2.28,2.638h15.861a2.846,2.846,0,0,0,2.794-2.649l.458-8.093A2.459,2.459,0,0,0,355.4,292Z" transform="translate(-237.95 -88.243)" opacity="0.5" style="isolation: isolate"/>
      <path id="Tracé_953" data-name="Tracé 953" d="M330.113,292.11H314.464a2.821,2.821,0,0,0-2.794,2.649l-.469,8.093a2.477,2.477,0,0,0,2.3,2.638h15.839a2.821,2.821,0,0,0,2.794-2.649l.469-8.093a2.477,2.477,0,0,0-2.3-2.638Z" transform="translate(-240.904 -88.23)" opacity="0.5" style="isolation: isolate"/>
      <path id="Tracé_954" data-name="Tracé 954" d="M304.992,292.23H289.343a2.846,2.846,0,0,0-2.794,2.649l-.458,8.093a2.459,2.459,0,0,0,2.28,2.638h15.861a2.846,2.846,0,0,0,2.794-2.649l.458-8.093a2.459,2.459,0,0,0-2.28-2.638Z" transform="translate(-243.862 -88.216)" opacity="0.5" style="isolation: isolate"/>
      <path id="Tracé_955" data-name="Tracé 955" d="M280,292.35H264.354A2.821,2.821,0,0,0,261.56,295L261,303.136a2.455,2.455,0,0,0,2.258,2.638h15.872a2.821,2.821,0,0,0,2.794-2.649l.469-8.093a2.473,2.473,0,0,0-2.258-2.683H280Z" transform="translate(-246.816 -88.202)" opacity="0.5" style="isolation: isolate"/>
      <path id="Tracé_956" data-name="Tracé 956" d="M381.431,273.77H365.782a2.839,2.839,0,0,0-2.794,2.66l-.4,7.031-.067,1.051-1.118,20.5a2.459,2.459,0,0,0,2.28,2.638h15.861A2.821,2.821,0,0,0,382.336,305l1.118-20.5.067-1.051.4-7.031a2.489,2.489,0,0,0-2.314-2.649Z" transform="translate(-234.993 -90.39)" opacity="0.3" style="isolation: isolate"/>
      <path id="Tracé_957" data-name="Tracé 957" d="M356.243,273.65H340.594A2.821,2.821,0,0,0,337.8,276.3l-.469,8.093a2.477,2.477,0,0,0,2.3,2.638h15.839a2.821,2.821,0,0,0,2.794-2.649l.469-8.093a2.477,2.477,0,0,0-2.3-2.638Z" transform="translate(-237.827 -90.404)" opacity="0.5" style="isolation: isolate"/>
      <path id="Tracé_958" data-name="Tracé 958" d="M331.152,273.77H315.5a2.847,2.847,0,0,0-2.794,2.66l-.458,8.081a2.467,2.467,0,0,0,2.269,2.649h15.872a2.847,2.847,0,0,0,2.794-2.66l.458-8.081a2.471,2.471,0,0,0-2.291-2.649h-.2Z" transform="translate(-240.781 -90.39)" opacity="0.5" style="isolation: isolate"/>
      <path id="Tracé_959" data-name="Tracé 959" d="M306.083,273.9H290.344a2.821,2.821,0,0,0-2.794,2.649l-.469,8.093a2.477,2.477,0,0,0,2.3,2.638h15.839a2.821,2.821,0,0,0,2.794-2.649l.469-8.093a2.494,2.494,0,0,0-2.3-2.649h-.1Z" transform="translate(-243.745 -90.376)" opacity="0.5" style="isolation: isolate"/>
      <path id="Tracé_960" data-name="Tracé 960" d="M280.992,274H265.343a2.846,2.846,0,0,0-2.794,2.649l-.458,8.093a2.459,2.459,0,0,0,2.28,2.638h15.861a2.846,2.846,0,0,0,2.794-2.649l.458-8.093A2.459,2.459,0,0,0,281.2,274Z" transform="translate(-246.688 -90.363)" opacity="0.3" style="isolation: isolate"/>
      <path id="Tracé_961" data-name="Tracé 961" d="M382.352,255.44H366.7a2.846,2.846,0,0,0-2.794,2.649l-.458,8.093a2.459,2.459,0,0,0,2.28,2.638h15.861a2.846,2.846,0,0,0,2.794-2.649l.458-8.093a2.459,2.459,0,0,0-2.28-2.638h-.212Z" transform="translate(-234.751 -92.548)" opacity="0.5" style="isolation: isolate"/>
      <path id="Tracé_962" data-name="Tracé 962" d="M357.282,255.32H341.633a2.821,2.821,0,0,0-2.794,2.649l-.458,8.093a2.459,2.459,0,0,0,2.28,2.638h15.861a2.846,2.846,0,0,0,2.794-2.649l.458-8.093a2.477,2.477,0,0,0-2.3-2.638h-.19Z" transform="translate(-237.704 -92.562)" opacity="0.5" style="isolation: isolate"/>
      <path id="Tracé_963" data-name="Tracé 963" d="M332.192,255.44H316.543a2.846,2.846,0,0,0-2.794,2.649l-.458,8.093a2.477,2.477,0,0,0,2.3,2.638h15.839a2.821,2.821,0,0,0,2.794-2.649l.458-8.093a2.459,2.459,0,0,0-2.28-2.638h-.212Z" transform="translate(-240.658 -92.548)" opacity="0.5" style="isolation: isolate"/>
      <path id="Tracé_964" data-name="Tracé 964" d="M307.112,255.56H291.463a2.821,2.821,0,0,0-2.794,2.649l-.458,8.093a2.467,2.467,0,0,0,2.269,2.649h15.872a2.847,2.847,0,0,0,2.794-2.66l.458-8.093a2.459,2.459,0,0,0-2.28-2.638Z" transform="translate(-243.612 -92.534)" opacity="0.5" style="isolation: isolate"/>
      <path id="Tracé_965" data-name="Tracé 965" d="M281.992,255.68H266.343a2.848,2.848,0,0,0-2.794,2.66l-.458,8.081a2.489,2.489,0,0,0,2.314,2.649h15.828a2.839,2.839,0,0,0,2.794-2.66l.458-8.081a2.467,2.467,0,0,0-2.269-2.649Z" transform="translate(-246.57 -92.52)" opacity="0.3" style="isolation: isolate"/>
      <path id="Tracé_966" data-name="Tracé 966" d="M383.392,237.11H367.743a2.846,2.846,0,0,0-2.794,2.649l-.458,8.093a2.477,2.477,0,0,0,2.3,2.638h15.839a2.821,2.821,0,0,0,2.794-2.649l.458-8.093a2.459,2.459,0,0,0-2.28-2.638Z" transform="translate(-234.629 -94.707)" opacity="0.5" style="isolation: isolate"/>
      <path id="Tracé_967" data-name="Tracé 967" d="M358.322,237H342.673a2.847,2.847,0,0,0-2.794,2.66l-.458,8.081a2.471,2.471,0,0,0,2.291,2.649h15.85a2.839,2.839,0,0,0,2.794-2.66l.458-8.081A2.467,2.467,0,0,0,358.546,237h-.224Z" transform="translate(-237.581 -94.72)" opacity="0.5" style="isolation: isolate"/>
      <path id="Tracé_968" data-name="Tracé 968" d="M333.242,237.11H317.593a2.821,2.821,0,0,0-2.794,2.649l-.458,8.093a2.459,2.459,0,0,0,2.28,2.638h15.861a2.846,2.846,0,0,0,2.794-2.649l.458-8.093a2.477,2.477,0,0,0-2.3-2.638Z" transform="translate(-240.535 -94.707)" opacity="0.5" style="isolation: isolate"/>
      <path id="Tracé_969" data-name="Tracé 969" d="M308.152,237.23H292.5a2.846,2.846,0,0,0-2.794,2.649l-.458,8.093a2.459,2.459,0,0,0,2.28,2.638h15.861a2.821,2.821,0,0,0,2.794-2.649l.458-8.093a2.459,2.459,0,0,0-2.28-2.638Z" transform="translate(-243.489 -94.693)" opacity="0.5" style="isolation: isolate"/>
      <path id="Tracé_970" data-name="Tracé 970" d="M283.081,237.351H267.343A2.821,2.821,0,0,0,264.549,240l-.458,8.093a2.459,2.459,0,0,0,2.28,2.638h15.861a2.846,2.846,0,0,0,2.794-2.649l.458-8.093a2.494,2.494,0,0,0-2.3-2.649h-.1Z" transform="translate(-246.452 -94.68)" opacity="0.5" style="isolation: isolate"/>
      <path id="Tracé_971" data-name="Tracé 971" d="M387.744,185.38H371.223a2.381,2.381,0,0,0-2.358,2.236l-.324,5.734a2.106,2.106,0,0,0,1.945,2.236h16.677a2.381,2.381,0,0,0,2.358-2.236l.324-5.734a2.106,2.106,0,0,0-1.945-2.236Z" transform="translate(-234.152 -100.799)" fill="#263238"/>
      <path id="Tracé_972" data-name="Tracé 972" d="M362.674,185.291H346.142a2.379,2.379,0,0,0-2.347,2.236l-.324,5.734a2.069,2.069,0,0,0,1.911,2.224h16.711a2.4,2.4,0,0,0,2.347-2.236l.335-5.734a2.106,2.106,0,0,0-1.945-2.236h-.156Z" transform="translate(-237.104 -100.81)" fill="#263238"/>
      <path id="Tracé_973" data-name="Tracé 973" d="M386.934,199.641H370.413a2.373,2.373,0,0,0-2.358,2.236l-.324,5.734a2.069,2.069,0,0,0,1.911,2.224h16.711a2.406,2.406,0,0,0,2.358-2.236l.324-5.734a2.106,2.106,0,0,0-1.945-2.236h-.156Z" transform="translate(-234.247 -99.121)" fill="#263238"/>
      <path id="Tracé_974" data-name="Tracé 974" d="M361.865,199.54H345.333a2.4,2.4,0,0,0-2.347,2.236l-.335,5.734a2.106,2.106,0,0,0,1.945,2.236h16.688a2.379,2.379,0,0,0,2.347-2.236l.335-5.734a2.106,2.106,0,0,0-1.945-2.236Z" transform="translate(-237.201 -99.131)" fill="#263238"/>
      <path id="Tracé_975" data-name="Tracé 975" d="M336.77,199.64H320.283a2.381,2.381,0,0,0-2.358,2.236l-.324,5.734a2.106,2.106,0,0,0,1.945,2.236h16.677a2.381,2.381,0,0,0,2.358-2.236l.324-5.734a2.1,2.1,0,0,0-1.934-2.236Z" transform="translate(-240.151 -99.119)" fill="#263238"/>
      <path id="Tracé_976" data-name="Tracé 976" d="M311.694,199.731H295.173a2.381,2.381,0,0,0-2.358,2.236l-.324,5.734a2.069,2.069,0,0,0,1.911,2.224h16.711a2.381,2.381,0,0,0,2.358-2.236l.324-5.734a2.106,2.106,0,0,0-1.945-2.236h-.156Z" transform="translate(-243.108 -99.11)" fill="#263238"/>
      <path id="Tracé_977" data-name="Tracé 977" d="M286.615,199.82H270.083a2.4,2.4,0,0,0-2.347,2.236l-.335,5.734a2.106,2.106,0,0,0,1.945,2.236h16.688a2.379,2.379,0,0,0,2.347-2.236l.335-5.734a2.106,2.106,0,0,0-1.945-2.236Z" transform="translate(-246.062 -99.098)" fill="#263238"/>
      <path id="Tracé_978" data-name="Tracé 978" d="M385.442,218.77H369.793A2.823,2.823,0,0,0,367,221.43l-.458,8.081a2.467,2.467,0,0,0,2.269,2.649h15.872a2.847,2.847,0,0,0,2.794-2.66l.458-8.081a2.471,2.471,0,0,0-2.291-2.649h-.2Z" transform="translate(-234.388 -96.867)" fill="#263238"/>
      <path id="Tracé_979" data-name="Tracé 979" d="M360.373,218.65H344.724a2.821,2.821,0,0,0-2.794,2.649l-.469,8.093a2.477,2.477,0,0,0,2.3,2.638H359.6a2.821,2.821,0,0,0,2.794-2.649l.469-8.093a2.477,2.477,0,0,0-2.3-2.638Z" transform="translate(-237.341 -96.881)" fill="#263238"/>
      <path id="Tracé_980" data-name="Tracé 980" d="M335.282,218.77H319.633a2.847,2.847,0,0,0-2.794,2.66l-.458,8.081a2.471,2.471,0,0,0,2.291,2.649h15.85a2.847,2.847,0,0,0,2.794-2.66l.458-8.081a2.467,2.467,0,0,0-2.269-2.649h-.224Z" transform="translate(-240.295 -96.867)" fill="#263238"/>
      <path id="Tracé_981" data-name="Tracé 981" d="M310.2,218.89H294.554a2.839,2.839,0,0,0-2.794,2.66l-.469,8.081a2.489,2.489,0,0,0,2.314,2.649h15.828a2.839,2.839,0,0,0,2.794-2.66l.469-8.081a2.489,2.489,0,0,0-2.314-2.649Z" transform="translate(-243.249 -96.852)" fill="#263238"/>
      <path id="Tracé_982" data-name="Tracé 982" d="M285.112,219H269.464a2.846,2.846,0,0,0-2.794,2.649l-.458,8.093a2.468,2.468,0,0,0,2.258,2.66h15.839a2.846,2.846,0,0,0,2.794-2.649l.458-8.093A2.468,2.468,0,0,0,285.3,219Z" transform="translate(-246.203 -96.84)" fill="#263238"/>
      <path id="Tracé_983" data-name="Tracé 983" d="M356.192,292H340.543a2.846,2.846,0,0,0-2.794,2.649l-.458,8.093a2.459,2.459,0,0,0,2.28,2.638h15.861a2.846,2.846,0,0,0,2.794-2.649l.458-8.093A2.459,2.459,0,0,0,356.4,292Z" transform="translate(-237.832 -88.243)" fill="#263238"/>
      <path id="Tracé_984" data-name="Tracé 984" d="M331.113,292.11H315.464a2.821,2.821,0,0,0-2.794,2.649l-.469,8.093a2.477,2.477,0,0,0,2.3,2.638h15.839a2.821,2.821,0,0,0,2.794-2.649l.469-8.093a2.477,2.477,0,0,0-2.3-2.638Z" transform="translate(-240.787 -88.23)" fill="#263238"/>
      <path id="Tracé_985" data-name="Tracé 985" d="M305.992,292.23H290.343a2.846,2.846,0,0,0-2.794,2.649l-.458,8.093a2.459,2.459,0,0,0,2.28,2.638h15.861a2.846,2.846,0,0,0,2.794-2.649l.458-8.093a2.459,2.459,0,0,0-2.28-2.638Z" transform="translate(-243.744 -88.216)" fill="#263238"/>
      <path id="Tracé_986" data-name="Tracé 986" d="M281,292.35H265.354A2.821,2.821,0,0,0,262.56,295L262,303.136a2.455,2.455,0,0,0,2.258,2.638h15.872a2.821,2.821,0,0,0,2.794-2.649l.469-8.093a2.473,2.473,0,0,0-2.258-2.683H281Z" transform="translate(-246.699 -88.202)" fill="#263238"/>
      <path id="Tracé_987" data-name="Tracé 987" d="M382.431,273.77H366.782a2.839,2.839,0,0,0-2.794,2.66l-.4,7.031-.067,1.051-1.118,20.5a2.459,2.459,0,0,0,2.28,2.638h15.861A2.821,2.821,0,0,0,383.336,305l1.118-20.5.067-1.051.4-7.031a2.489,2.489,0,0,0-2.314-2.649Z" transform="translate(-234.875 -90.39)" fill="#263238"/>
      <path id="Tracé_988" data-name="Tracé 988" d="M357.243,273.65H341.594A2.821,2.821,0,0,0,338.8,276.3l-.469,8.093a2.477,2.477,0,0,0,2.3,2.638h15.839a2.821,2.821,0,0,0,2.794-2.649l.469-8.093a2.477,2.477,0,0,0-2.3-2.638Z" transform="translate(-237.71 -90.404)" fill="#263238"/>
      <path id="Tracé_989" data-name="Tracé 989" d="M332.152,273.77H316.5a2.847,2.847,0,0,0-2.794,2.66l-.458,8.081a2.467,2.467,0,0,0,2.269,2.649h15.872a2.847,2.847,0,0,0,2.794-2.66l.458-8.081a2.471,2.471,0,0,0-2.291-2.649h-.2Z" transform="translate(-240.663 -90.39)" fill="#263238"/>
      <path id="Tracé_990" data-name="Tracé 990" d="M307.083,273.9H291.344a2.821,2.821,0,0,0-2.794,2.649l-.469,8.093a2.477,2.477,0,0,0,2.3,2.638h15.839a2.821,2.821,0,0,0,2.794-2.649l.469-8.093a2.494,2.494,0,0,0-2.3-2.649h-.1Z" transform="translate(-243.627 -90.376)" fill="#263238"/>
      <path id="Tracé_991" data-name="Tracé 991" d="M281.992,274H266.343a2.846,2.846,0,0,0-2.794,2.649l-.458,8.093a2.459,2.459,0,0,0,2.28,2.638h15.861a2.846,2.846,0,0,0,2.794-2.649l.458-8.093A2.459,2.459,0,0,0,282.2,274Z" transform="translate(-246.57 -90.363)" fill="#263238"/>
      <path id="Tracé_992" data-name="Tracé 992" d="M383.352,255.44H367.7a2.846,2.846,0,0,0-2.794,2.649l-.458,8.093a2.459,2.459,0,0,0,2.28,2.638h15.861a2.846,2.846,0,0,0,2.794-2.649l.458-8.093a2.459,2.459,0,0,0-2.28-2.638h-.212Z" transform="translate(-234.634 -92.548)" fill="#263238"/>
      <path id="Tracé_993" data-name="Tracé 993" d="M358.282,255.32H342.633a2.821,2.821,0,0,0-2.794,2.649l-.458,8.093a2.459,2.459,0,0,0,2.28,2.638h15.861a2.846,2.846,0,0,0,2.794-2.649l.458-8.093a2.477,2.477,0,0,0-2.3-2.638h-.19Z" transform="translate(-237.586 -92.562)" fill="#263238"/>
      <path id="Tracé_994" data-name="Tracé 994" d="M333.192,255.44H317.543a2.846,2.846,0,0,0-2.794,2.649l-.458,8.093a2.477,2.477,0,0,0,2.3,2.638h15.839a2.821,2.821,0,0,0,2.794-2.649l.458-8.093a2.459,2.459,0,0,0-2.28-2.638h-.212Z" transform="translate(-240.541 -92.548)" fill="#263238"/>
      <path id="Tracé_995" data-name="Tracé 995" d="M308.112,255.56H292.463a2.821,2.821,0,0,0-2.794,2.649l-.458,8.093a2.459,2.459,0,0,0,2.28,2.638h15.861a2.846,2.846,0,0,0,2.794-2.649l.458-8.093a2.459,2.459,0,0,0-2.28-2.638Z" transform="translate(-243.494 -92.534)" fill="#263238"/>
      <path id="Tracé_996" data-name="Tracé 996" d="M282.992,255.68H267.343a2.848,2.848,0,0,0-2.794,2.66l-.458,8.081a2.489,2.489,0,0,0,2.314,2.649h15.828a2.839,2.839,0,0,0,2.794-2.66l.458-8.081a2.467,2.467,0,0,0-2.269-2.649Z" transform="translate(-246.452 -92.52)" fill="#263238"/>
      <path id="Tracé_997" data-name="Tracé 997" d="M384.392,237.11H368.743a2.846,2.846,0,0,0-2.794,2.649l-.458,8.093a2.477,2.477,0,0,0,2.3,2.638h15.839a2.821,2.821,0,0,0,2.794-2.649l.458-8.093a2.459,2.459,0,0,0-2.28-2.638Z" transform="translate(-234.511 -94.707)" fill="#263238"/>
      <path id="Tracé_998" data-name="Tracé 998" d="M359.322,237H343.673a2.847,2.847,0,0,0-2.794,2.66l-.458,8.081a2.471,2.471,0,0,0,2.291,2.649h15.85a2.839,2.839,0,0,0,2.794-2.66l.458-8.081A2.467,2.467,0,0,0,359.546,237h-.224Z" transform="translate(-237.464 -94.72)" fill="#263238"/>
      <path id="Tracé_999" data-name="Tracé 999" d="M334.242,237.11H318.593a2.821,2.821,0,0,0-2.794,2.649l-.458,8.093a2.459,2.459,0,0,0,2.28,2.638h15.861a2.846,2.846,0,0,0,2.794-2.649l.458-8.093a2.477,2.477,0,0,0-2.3-2.638Z" transform="translate(-240.417 -94.707)" fill="#263238"/>
      <path id="Tracé_1000" data-name="Tracé 1000" d="M309.152,237.23H293.5a2.846,2.846,0,0,0-2.794,2.649l-.458,8.093a2.459,2.459,0,0,0,2.28,2.638h15.861a2.821,2.821,0,0,0,2.794-2.649l.458-8.093a2.459,2.459,0,0,0-2.28-2.638Z" transform="translate(-243.372 -94.693)" fill="#263238"/>
      <path id="Tracé_1001" data-name="Tracé 1001" d="M284.081,237.351H268.343A2.821,2.821,0,0,0,265.549,240l-.458,8.093a2.459,2.459,0,0,0,2.28,2.638h15.861a2.846,2.846,0,0,0,2.794-2.649l.458-8.093a2.494,2.494,0,0,0-2.3-2.649h-.1Z" transform="translate(-246.335 -94.68)" fill="#263238"/>
    </g>
    <g id="freepik--Clipboard--inject-2" transform="translate(72.337 74.67)">
      <path id="Tracé_1002" data-name="Tracé 1002" d="M233.835,310.321H96.149a11.417,11.417,0,0,1-11.178-10.485L70.664,95.744A9.648,9.648,0,0,1,79.449,85.3a9.211,9.211,0,0,1,.961-.034H218.1a11.407,11.407,0,0,1,11.178,10.473l14.274,204.092a9.656,9.656,0,0,1-8.774,10.451A8.793,8.793,0,0,1,233.835,310.321Z" transform="translate(-70.628 -73.422)"/>
      <path id="Tracé_1003" data-name="Tracé 1003" d="M233.835,310.321H96.149a11.417,11.417,0,0,1-11.178-10.485L70.664,95.744A9.648,9.648,0,0,1,79.449,85.3a9.211,9.211,0,0,1,.961-.034H218.1a11.407,11.407,0,0,1,11.178,10.473l14.274,204.092a9.656,9.656,0,0,1-8.774,10.451A8.793,8.793,0,0,1,233.835,310.321Z" transform="translate(-70.628 -73.422)" fill="#fff" opacity="0.7" style="isolation: isolate"/>
      <path id="Tracé_1004" data-name="Tracé 1004" d="M234.905,302.314H91.742L77.01,91.56H220.162Z" transform="translate(-69.876 -72.681)" fill="#fff"/>
      <path id="Tracé_1005" data-name="Tracé 1005" d="M173.48,98.355H115.356l-.972-13.771a9.122,9.122,0,0,1,8.294-9.881c.313-.022.615-.034.928-.034h38.317a10.8,10.8,0,0,1,10.608,9.915l.95,13.771Z" transform="translate(-65.479 -74.67)" fill="#263238"/>
      <g id="Groupe_39" data-name="Groupe 39" transform="translate(25.678 34.047)">
        <path id="Tracé_1006" data-name="Tracé 1006" d="M93.6,105.881a.509.509,0,0,1,.525-.481h13.514a.479.479,0,0,1,.525.514v2.627a.489.489,0,0,1-.525.481h-9.59v5.444h7.679a.454.454,0,0,1,.492.514v2.627a.494.494,0,0,1-.492.514H98.049v7.355a.477.477,0,0,1-.525.481h-3.4a.509.509,0,0,1-.525-.481V105.869Z" transform="translate(-93.6 -105.098)" fill="#191558"/>
        <path id="Tracé_1007" data-name="Tracé 1007" d="M109.12,105.881a.509.509,0,0,1,.525-.481H124.02a.454.454,0,0,1,.492.514v2.627a.467.467,0,0,1-.492.481H113.558v4.326h7.377a.454.454,0,0,1,.492.514v2.6a.475.475,0,0,1-.492.514h-7.377v5.354H124.02a.444.444,0,0,1,.492.481v2.638a.475.475,0,0,1-.492.514H109.645a.509.509,0,0,1-.525-.481Z" transform="translate(-91.772 -105.098)" fill="#191558"/>
        <path id="Tracé_1008" data-name="Tracé 1008" d="M124.161,115.715c0-6.505,4.1-10.585,10.239-10.585a13.125,13.125,0,0,1,6.908,1.844c.369.212.4.458.246.727l-1.263,2.481c-.19.358-.4.481-.738.3a10.129,10.129,0,0,0-5.153-1.6c-3.364,0-5.555,2.727-5.555,6.841s2.28,6.841,5.924,6.841a11.367,11.367,0,0,0,4.963-1.3c.335-.179.559-.034.7.335l1.084,2.515c.123.268.056.514-.313.693a14.185,14.185,0,0,1-6.818,1.509c-5.924,0-10.239-3.812-10.239-10.585Z" transform="translate(-90.002 -105.13)" fill="#191558"/>
      </g>
      <path id="Tracé_1009" data-name="Tracé 1009" d="M206.75,132.329H93.174l-.324-4.739H206.415Z" transform="translate(-68.011 -68.438)"/>
      <path id="Tracé_1010" data-name="Tracé 1010" d="M211.33,197.869H97.765l-.335-4.739H210.995Z" transform="translate(-67.471 -60.72)"/>
      <path id="Tracé_1011" data-name="Tracé 1011" d="M198.422,161.836H188.205l-.715-10.216h10.216Zm-9.177-1.118h7.981l-.559-7.981h-7.981Z" transform="translate(-56.865 -65.608)"/>
      <rect id="Rectangle_228" data-name="Rectangle 228" width="113.565" height="1.677" transform="translate(25.678 70.318)"/>
      <rect id="Rectangle_229" data-name="Rectangle 229" width="113.565" height="1.118" transform="translate(26.214 78.31)"/>
      <rect id="Rectangle_230" data-name="Rectangle 230" width="41.883" height="1.118" transform="translate(26.751 86.012)"/>
      <rect id="Rectangle_231" data-name="Rectangle 231" width="98.576" height="1.118" transform="translate(26.84 93.098)"/>
      <path id="Tracé_1012" data-name="Tracé 1012" d="M152.45,171.719h-5.589l-.391-5.589h5.589Zm-4.594-1.118h3.353l-.235-3.353h-3.353Z" transform="translate(-61.696 -63.899)"/>
      <path id="Tracé_1013" data-name="Tracé 1013" d="M152.9,177.945h-5.645l-.391-5.645H152.5Zm-4.594-1.118h3.353l-.246-3.409h-3.353Z" transform="translate(-61.65 -63.173)"/>
      <path id="Tracé_1014" data-name="Tracé 1014" d="M153.311,183.979h-5.589l-.4-5.589h5.645Zm-4.594-1.118h3.353l-.235-3.353h-3.353Z" transform="translate(-61.596 -62.456)"/>
      <rect id="Rectangle_232" data-name="Rectangle 232" width="48.958" height="1.118" transform="translate(92.598 106.098)"/>
      <rect id="Rectangle_233" data-name="Rectangle 233" width="1.118" height="48.958" transform="translate(93.609 114.872) rotate(-89.93)"/>
      <rect id="Rectangle_234" data-name="Rectangle 234" width="1.118" height="48.958" transform="translate(94.09 121.799) rotate(-89.93)"/>
      <path id="Tracé_1015" data-name="Tracé 1015" d="M101.076,171.719H95.431l-.391-5.589h5.589ZM96.471,170.6h3.353l-.235-3.353H96.236Z" transform="translate(-67.753 -63.899)"/>
      <path id="Tracé_1016" data-name="Tracé 1016" d="M101.5,177.945H95.912l-.4-5.645H101.1Zm-4.594-1.118h3.353l-.235-3.409H96.672Z" transform="translate(-67.697 -63.173)"/>
      <path id="Tracé_1017" data-name="Tracé 1017" d="M101.92,183.979H96.331l-.391-5.589h5.589Zm-4.594-1.118h3.353l-.235-3.353H97.091Z" transform="translate(-67.647 -62.456)"/>
      <rect id="Rectangle_235" data-name="Rectangle 235" width="1.118" height="46.108" transform="translate(35.603 107.398) rotate(-89.93)"/>
      <rect id="Rectangle_236" data-name="Rectangle 236" width="1.118" height="46.108" transform="translate(36.14 114.851) rotate(-89.93)"/>
      <rect id="Rectangle_237" data-name="Rectangle 237" width="1.118" height="46.108" transform="translate(36.621 121.79) rotate(-89.93)"/>
      <path id="Tracé_1018" data-name="Tracé 1018" d="M211.085,277.918H153.476L148.2,202.48h57.621l5.265,75.438Zm-56.57-1.118h55.374l-5.119-73.2H149.4l5.119,73.2Z" transform="translate(-61.492 -59.619)"/>
      <rect id="Rectangle_238" data-name="Rectangle 238" width="56.492" height="1.118" transform="translate(88.496 152.809)"/>
      <rect id="Rectangle_239" data-name="Rectangle 239" width="56.492" height="1.118" transform="translate(89.267 163.831)"/>
      <rect id="Rectangle_240" data-name="Rectangle 240" width="56.492" height="1.118" transform="translate(90.039 174.852)"/>
      <rect id="Rectangle_241" data-name="Rectangle 241" width="56.492" height="1.118" transform="translate(90.81 185.873)"/>
      <rect id="Rectangle_242" data-name="Rectangle 242" width="56.492" height="1.118" transform="translate(91.581 196.894)"/>
      <rect id="Rectangle_243" data-name="Rectangle 243" width="56.492" height="1.118" transform="translate(92.352 207.915)"/>
      <path id="Tracé_1019" data-name="Tracé 1019" d="M159.984,277.918H102.855L97.59,202.48h57.185ZM103.905,276.8h54.882l-5.131-73.2H98.775Z" transform="translate(-67.452 -59.619)"/>
      <rect id="Rectangle_244" data-name="Rectangle 244" width="56.011" height="1.118" transform="translate(31.926 152.809)"/>
      <rect id="Rectangle_245" data-name="Rectangle 245" width="56.011" height="1.118" transform="translate(32.697 163.831)"/>
      <rect id="Rectangle_246" data-name="Rectangle 246" width="56.011" height="1.118" transform="translate(33.469 174.852)"/>
      <rect id="Rectangle_247" data-name="Rectangle 247" width="56.011" height="1.118" transform="translate(34.229 185.873)"/>
      <rect id="Rectangle_248" data-name="Rectangle 248" width="56.011" height="1.118" transform="translate(35 196.894)"/>
      <rect id="Rectangle_249" data-name="Rectangle 249" width="56.011" height="1.118" transform="translate(35.771 207.915)"/>
    </g>
    <g id="freepik--Character--inject-15" transform="translate(128.286 202.931)">
      <path id="Tracé_1020" data-name="Tracé 1020" d="M144.028,405.983l29.688-2.593V359.16h10.44v44.219l29.788,2.6a5.121,5.121,0,0,1,4.628,5.1v3.957H139.4V411.08a5.121,5.121,0,0,1,4.628-5.1Z" transform="translate(-118.478 -169.428)" fill="#263238"/>
      <path id="Tracé_1021" data-name="Tracé 1021" d="M144.028,405.983l29.688-2.593V359.16h10.44v44.219l29.788,2.6a5.121,5.121,0,0,1,4.628,5.1v3.957H139.4V411.08a5.121,5.121,0,0,1,4.628-5.1Z" transform="translate(-118.478 -169.428)" fill="#fff" opacity="0.1" style="isolation: isolate"/>
      <path id="Tracé_1022" data-name="Tracé 1022" d="M201.63,414.26a6.83,6.83,0,1,0,6.83-6.829h0A6.836,6.836,0,0,0,201.63,414.26Z" transform="translate(-111.149 -163.744)" fill="#263238"/>
      <path id="Tracé_1023" data-name="Tracé 1023" d="M149.439,414.26a6.83,6.83,0,1,1-6.83-6.829h0a6.824,6.824,0,0,1,6.83,6.807Z" transform="translate(-118.904 -163.744)" fill="#263238"/>
      <path id="Tracé_1024" data-name="Tracé 1024" d="M177.9,370.579h-4.8a4.618,4.618,0,0,1-4.616-4.616h0v-35.9h14.039v35.869a4.618,4.618,0,0,1-4.583,4.65Z" transform="translate(-115.052 -172.855)" fill="#263238"/>
      <path id="Tracé_1025" data-name="Tracé 1025" d="M177.9,370.579h-4.8a4.618,4.618,0,0,1-4.616-4.616h0v-35.9h14.039v35.869a4.618,4.618,0,0,1-4.583,4.65Z" transform="translate(-115.052 -172.855)" fill="#fff" opacity="0.2" style="isolation: isolate"/>
      <path id="Tracé_1026" data-name="Tracé 1026" d="M148.481,261s3.219,64.473,17.1,75.572H150.739S137.494,314.653,136.51,261h11.971Z" transform="translate(-118.818 -180.988)" fill="#263238"/>
      <path id="Tracé_1027" data-name="Tracé 1027" d="M148.481,261s3.219,64.473,17.1,75.572H150.739S137.494,314.653,136.51,261h11.971Z" transform="translate(-118.818 -180.988)" fill="#fff" opacity="0.1" style="isolation: isolate"/>
      <path id="Tracé_1028" data-name="Tracé 1028" d="M146.734,323.85h65.792a5.591,5.591,0,0,1,5.589,5.589v5.1H141.1v-5.1a5.591,5.591,0,0,1,5.589-5.589Z" transform="translate(-118.278 -173.586)" fill="#191558"/>
      <rect id="Rectangle_250" data-name="Rectangle 250" width="82.871" height="5.343" rx="2.01" transform="translate(19.939 155.607)" fill="#263238"/>
      <rect id="Rectangle_251" data-name="Rectangle 251" width="82.871" height="5.343" rx="2.01" transform="translate(19.939 155.607)" fill="#fff" opacity="0.6" style="isolation: isolate"/>
      <path id="Tracé_1029" data-name="Tracé 1029" d="M135.77,277.683h23.786c6.964,0,12-6.259,11.245-13.983l-1.017-10.317c-.76-7.724-7.031-13.983-13.994-13.983h-23.8c-6.964,0-11.994,6.259-11.234,13.983l1.017,10.317C122.535,271.424,128.795,277.683,135.77,277.683Z" transform="translate(-120.682 -183.531)" fill="#191558"/>
      <path id="Tracé_1030" data-name="Tracé 1030" d="M245.3,261.282l6.707.782s4.393-1.956,4.471-2.124,5.868,2.124,5.868,2.124l1.118,4.192s-8.283.883-9.847,0l-8.853.391.537-5.365Z" transform="translate(-106.07 -181.114)" fill="#ebb376"/>
      <path id="Tracé_1031" data-name="Tracé 1031" d="M252.711,270.776H226.768c-2.649,0-6.248-6.461-9.087-12.653-2.593-5.678-4.56-11.111-4.56-11.111l2.783-6.885,2.75-6.807c5.276,3.644,11.759,28.279,11.759,28.279l22.3,2.929s.626,6.248,0,6.248Z" transform="translate(-109.796 -184.247)" fill="#fa595f"/>
      <path id="Tracé_1032" data-name="Tracé 1032" d="M247.648,261.14l-1.218,7.131h3.32V261.14Z" transform="translate(-105.874 -180.971)" fill="#191558"/>
      <path id="Tracé_1033" data-name="Tracé 1033" d="M247.648,261.14l-1.218,7.131h3.32V261.14Z" transform="translate(-105.874 -180.971)" fill="#fff" opacity="0.6" style="isolation: isolate"/>
      <path id="Tracé_1034" data-name="Tracé 1034" d="M217.68,257.406c-2.593-5.678-4.56-11.111-4.56-11.111l2.783-6.885C217.11,242.529,219.692,250.487,217.68,257.406Z" transform="translate(-109.796 -183.53)" fill="#fa595f"/>
      <path id="Tracé_1035" data-name="Tracé 1035" d="M225.96,215.934s-2.616,10.06.637,14.531c0,0-29.241.347-37.467-4.963s1.017-31.3,13.044-35.232,31.99,5.947,23.786,25.664Z" transform="translate(-112.99 -189.418)" fill="#263238"/>
      <path id="Tracé_1036" data-name="Tracé 1036" d="M286.909,396.717l-6.416,1.218s-35.1-84.123-40.687-84.358S177.312,339.5,163.05,324.991s6.36-49.45,6.36-49.45,34.3-4.9,36.886,2.85a54.457,54.457,0,0,1,1.453,6.952c.391,2.37.659,4.359.659,4.359h0c1.062-.268,35.5-9.154,49.07,0,13.8,9.322,29.431,107.015,29.431,107.015Z" transform="translate(-116.285 -179.455)" fill="#ebb376"/>
      <path id="Tracé_1037" data-name="Tracé 1037" d="M184.56,324.795s2.325.056,38.306-1.621c0,0-6.707,61.8-9.613,95.479l7.511.425s30.258-87.521,29.978-98.978-13.413-14.81-13.413-14.81S211.7,320.1,184.56,324.795Z" transform="translate(-113.16 -175.772)" fill="#ebb376"/>
      <path id="Tracé_1038" data-name="Tracé 1038" d="M184.59,323.743c.369,0,4.024-.056,32.1-1.33l-.548-8.093A158.43,158.43,0,0,1,184.59,323.743Z" transform="translate(-113.156 -174.709)" fill="#263238"/>
      <path id="Tracé_1039" data-name="Tracé 1039" d="M222.868,323.174s-6.707,61.8-9.613,95.468l7.511.425s30.258-87.51,29.978-98.967-13.413-14.81-13.413-14.81a190.934,190.934,0,0,1-21.238,10.06,158.43,158.43,0,0,1-31.554,9.423c.369,0,4.024-.056,32.1-1.33Z" transform="translate(-113.162 -175.772)" opacity="0.3" style="isolation: isolate"/>
      <path id="Tracé_1040" data-name="Tracé 1040" d="M163.05,324.991c8.551,8.707,38.708,6.416,59.42,6.416l12.474-46.063-25.1,2.146s-.894-2.236-1.8-4.527c-.749-1.923-1.52-3.89-1.744-4.572-2.582-7.746-36.886-2.85-36.886-2.85S148.787,310.493,163.05,324.991Z" transform="translate(-116.285 -179.455)" fill="#263238"/>
      <path id="Tracé_1041" data-name="Tracé 1041" d="M185.15,292.941l21.495-6.394s-.894-2.236-1.8-4.527C196.473,285.429,185.15,292.941,185.15,292.941Z" transform="translate(-113.09 -178.512)" opacity="0.3" style="isolation: isolate"/>
      <path id="Tracé_1042" data-name="Tracé 1042" d="M169.037,270.61l-.827,5.343,36.886,2.839.984-6.315Z" transform="translate(-115.085 -179.856)" fill="#263238"/>
      <path id="Tracé_1043" data-name="Tracé 1043" d="M169.037,270.61l-.827,5.343,36.886,2.839.984-6.315Z" transform="translate(-115.085 -179.856)" opacity="0.2" style="isolation: isolate"/>
      <rect id="Rectangle_252" data-name="Rectangle 252" width="9.333" height="1.833" transform="translate(63.77 99.497) rotate(-84.13)" fill="#263238"/>
      <rect id="Rectangle_253" data-name="Rectangle 253" width="6.137" height="8.093" transform="translate(73.865 98.221) rotate(-86.32)" fill="#fff"/>
      <rect id="Rectangle_254" data-name="Rectangle 254" width="9.333" height="1.833" transform="translate(86.437 100.489) rotate(-84.13)" fill="#263238"/>
      <path id="Tracé_1044" data-name="Tracé 1044" d="M292.5,393.163a13.056,13.056,0,0,0-4.695-.414h0s-5.913-2.291-13.279-13.76l-6.014.95a5,5,0,0,0-4.08,4.057,2.778,2.778,0,0,0,0,.861,35.331,35.331,0,0,0,1.174,4.259c1.274,4.4,5.812,13.57,5.812,13.57l.984-.425-3.353-8.674c-1.118-2.94,2.571-.525,4.56,2.314s4.762,5.589,11.178,2.951c7.422-3.085,10.362-4.695,7.713-5.689Z" transform="translate(-103.757 -167.093)" fill="#2e353a"/>
      <path id="Tracé_1045" data-name="Tracé 1045" d="M271.684,375.41s3.655,5.1,8.148,10.574,7.97,7.187,7.97,7.187-4.393,2.9-7.824.592-10.909-11.982-15.548-9.344a12.274,12.274,0,0,1,.414-2.85C265.246,380.127,271.684,375.41,271.684,375.41Z" transform="translate(-103.754 -167.515)" fill="#ebb376"/>
      <path id="Tracé_1046" data-name="Tracé 1046" d="M233.153,419.513a13.079,13.079,0,0,0-4.247-2.034h0s-4.728-4.236-7.567-17.56l-5.969-1.23a5.036,5.036,0,0,0-5.253,2.358,3.321,3.321,0,0,0-.335.794,36.043,36.043,0,0,0-.4,4.393c-.358,4.583.659,14.754.659,14.754l1.062-.056v-9.277c0-3.152,2.593.414,3.454,3.767s2.5,6.874,9.412,6.707c7.992-.268,11.312-.727,9.188-2.616Z" transform="translate(-110.246 -164.783)" fill="#2e353a"/>
      <path id="Tracé_1047" data-name="Tracé 1047" d="M220.056,395.53s1.565,6.114,3.845,12.821,4.918,9.535,4.918,9.535-5.131,1.118-7.534-2.236-5.98-15.056-11.256-14.229a11.985,11.985,0,0,1,1.386-2.515C212.31,397.687,220.056,395.53,220.056,395.53Z" transform="translate(-110.16 -165.145)" fill="#ebb376"/>
      <path id="Tracé_1048" data-name="Tracé 1048" d="M220.056,395.53s1.565,6.114,3.845,12.821,4.918,9.535,4.918,9.535-5.131,1.118-7.534-2.236-5.98-15.056-11.256-14.229a11.985,11.985,0,0,1,1.386-2.515C212.31,397.687,220.056,395.53,220.056,395.53Z" transform="translate(-110.16 -165.145)" opacity="0.3" style="isolation: isolate"/>
      <path id="Tracé_1049" data-name="Tracé 1049" d="M223.872,234.2s-3.554,21.36-7.668,27.218a5.612,5.612,0,0,1-.559.693c-3.186,3.353-7.087,10.574-8.942,14.2l-1.118,2.18-36.786-1.61s1.118-7.143,2.325-14.4c.838-5.164,1.945-11.267,3.275-16.99.525-2.236,1.118-4.471,1.677-6.494a47.734,47.734,0,0,1,3.867-10.06,7.709,7.709,0,0,1,2.582-2.94s1.565-.145,4.27-.134h.2a90.283,90.283,0,0,1,27.776,4.628,76.462,76.462,0,0,1,9.1,3.711Z" transform="translate(-115.016 -185.126)" fill="#fa595f"/>
      <path id="Tracé_1050" data-name="Tracé 1050" d="M188.8,226.187s5.343,12.608,14.944,12.608,9.915-7.075,9.915-7.075-9.6-6.3-24.859-5.533Z" transform="translate(-112.66 -185.095)" fill="#fa595f"/>
      <path id="Tracé_1051" data-name="Tracé 1051" d="M201.116,225.3c-6.394-1.721-9.691.637-13.346,6.416l8.283,3.353,6.83,19.784,7.59-17.527,5.7.19s-.727-8.35-15.056-12.217Z" transform="translate(-112.782 -185.257)" fill="#191558"/>
      <path id="Tracé_1052" data-name="Tracé 1052" d="M201.116,225.3c-6.394-1.721-9.691.637-13.346,6.416l8.283,3.353,6.83,19.784,7.59-17.527,5.7.19s-.727-8.35-15.056-12.217Z" transform="translate(-112.782 -185.257)" fill="#fff" opacity="0.6" style="isolation: isolate"/>
      <path id="Tracé_1053" data-name="Tracé 1053" d="M215.612,260.4a5.612,5.612,0,0,1-.559.693c-3.186,3.353-7.087,10.574-8.942,14.2-8.618-1.118-25.418-3.689-27.62-7.947-2.023-3.89-3.756-15.649-4.661-22.869.525-2.236,1.118-4.471,1.677-6.494l12.485-3.5s2.057,13.033,2.381,19.192c.246,5.075,18.778,6.416,25.239,6.729Z" transform="translate(-114.423 -184.111)" opacity="0.2" style="isolation: isolate"/>
      <path id="Tracé_1054" data-name="Tracé 1054" d="M207.022,230.815c.067,2.236,1.341,2.794,1.341,2.794.469,4.169-5.332,14.531-5.332,14.531L194,229.608c5.186-2.068,6.349-7.824,6.561-11.178a17.614,17.614,0,0,0,0-2.66l9.691,6.092a33.746,33.746,0,0,0-2.168,4.247,11.8,11.8,0,0,0-1.062,4.706Z" transform="translate(-112.048 -186.314)" fill="#ebb376"/>
      <path id="Tracé_1055" data-name="Tracé 1055" d="M209.074,221.072a35.48,35.48,0,0,0-1.721,4.471,12.25,12.25,0,0,0-.6,4.8c-5.443.425-7.6-11.591-7.6-11.591v-.067a17.734,17.734,0,0,0-.268-2.66Z" transform="translate(-111.473 -186.285)" opacity="0.2" style="isolation: isolate"/>
      <path id="Tracé_1056" data-name="Tracé 1056" d="M215.694,197.665c9.356,2.861,10.842,8.8,8.584,18.655-2.817,12.3-8.1,20.064-19,13.916C190.422,221.9,200.135,192.926,215.694,197.665Z" transform="translate(-111.588 -188.508)" fill="#ebb376"/>
      <path id="Tracé_1057" data-name="Tracé 1057" d="M200.818,210.785s6.707-6.36,7.824-12.5c0,0,20.869-1.923,16.04,17.191,0,0,6.908-16.174-9.076-21.45s-23.093,18.287-16.923,27.832c.045,0-2.046-7.087,2.135-11.077Z" transform="translate(-111.757 -188.964)" fill="#263238"/>
      <path id="Tracé_1058" data-name="Tracé 1058" d="M201.887,211.672a4.293,4.293,0,0,0-3.275-5.108c-3-.57-6.192,4.974.581,8.607.972.514,1.867-.291,2.694-3.5Z" transform="translate(-111.909 -187.403)" fill="#ebb376"/>
      <path id="Tracé_1059" data-name="Tracé 1059" d="M213.18,266.2a123.852,123.852,0,0,1,15.828-2.3c6.416-.291,13.6-.425,11.826,3.052l-26.089.246-1.565-.995Z" transform="translate(-109.789 -180.663)" fill="#191558"/>
      <path id="Tracé_1060" data-name="Tracé 1060" d="M213.18,266.2a123.852,123.852,0,0,1,15.828-2.3c6.416-.291,13.6-.425,11.826,3.052l-26.089.246-1.565-.995Z" transform="translate(-109.789 -180.663)" fill="#fff" opacity="0.7" style="isolation: isolate"/>
      <rect id="Rectangle_255" data-name="Rectangle 255" width="30.18" height="1.017" transform="translate(102.195 85.545)" fill="#263238"/>
      <rect id="Rectangle_256" data-name="Rectangle 256" width="1.33" height="15.012" transform="translate(102.464 68.438) rotate(-24.58)" fill="#263238"/>
      <path id="Tracé_1061" data-name="Tracé 1061" d="M202.08,261l8.629,2.057a9.718,9.718,0,0,1,3.566-2.917,88.259,88.259,0,0,1,9.467-1.934l1.811,8.651s-12.117,1.23-13.078.984l-10.4-.995V261Z" transform="translate(-111.096 -181.316)" fill="#ebb376"/>
      <path id="Tracé_1062" data-name="Tracé 1062" d="M181.661,225.94c-6.014,1.721-6.449,33.265-4.091,37.4s30.75,8.3,30.75,8.3l1.822-6.36s-23.562-8.171-23.942-8.819,1.543-18.7,1.543-22.277-6.081-8.249-6.081-8.249Z" transform="translate(-114.139 -185.117)" fill="#fa595f"/>
      <path id="Tracé_1063" data-name="Tracé 1063" d="M205.654,259.94l-1.274,8.819,2.448-.346,1.621-7.9Z" transform="translate(-110.826 -181.113)" fill="#191558"/>
      <path id="Tracé_1064" data-name="Tracé 1064" d="M205.654,259.94l-1.274,8.819,2.448-.346,1.621-7.9Z" transform="translate(-110.826 -181.113)" fill="#fff" opacity="0.6" style="isolation: isolate"/>
    </g>
    <g id="freepik--Table--inject-15" transform="translate(192.354 251.803)">
      <path id="Tracé_1065" data-name="Tracé 1065" d="M248.383,436.842H241.99L240.95,273.57h8.484Z" transform="translate(-170.587 -228.38)" fill="#263238"/>
      <path id="Tracé_1066" data-name="Tracé 1066" d="M249.434,273.8l-.168,25.8-.872,137.217H242L241.118,299.6l-.168-25.8Z" transform="translate(-170.587 -228.353)" fill="#fff" opacity="0.4" style="isolation: isolate"/>
      <path id="Tracé_1067" data-name="Tracé 1067" d="M249.434,273.8l-.168,26.089h-8.148L240.95,273.8Z" transform="translate(-170.587 -228.353)" opacity="0.2" style="isolation: isolate"/>
      <path id="Tracé_1068" data-name="Tracé 1068" d="M310.214,436.842h-6.394L292.33,273.57h8.484Z" transform="translate(-164.536 -228.38)" fill="#263238"/>
      <path id="Tracé_1069" data-name="Tracé 1069" d="M310.214,436.815h-6.394L292.889,281.49l-.559-7.69h8.484l.458,7.69Z" transform="translate(-164.536 -228.353)" fill="#fff" opacity="0.5" style="isolation: isolate"/>
      <path id="Tracé_1070" data-name="Tracé 1070" d="M301.272,281.1h-8.383l-.559-7.3h8.484Z" transform="translate(-164.536 -228.353)" opacity="0.2" style="isolation: isolate"/>
      <path id="Tracé_1071" data-name="Tracé 1071" d="M187.554,436.842H181.16l9.4-163.272h8.484Z" transform="translate(-177.628 -228.38)" fill="#263238"/>
      <path id="Tracé_1072" data-name="Tracé 1072" d="M199.044,273.8l-.57,7.69L187.554,436.815H181.16l8.931-155.324.458-7.69Z" transform="translate(-177.628 -228.353)" fill="#fff" opacity="0.5" style="isolation: isolate"/>
      <path id="Tracé_1073" data-name="Tracé 1073" d="M189.608,273.8h8.5l-.57,7.3H189.15Z" transform="translate(-176.687 -228.353)" opacity="0.2" style="isolation: isolate"/>
      <path id="Tracé_1074" data-name="Tracé 1074" d="M183.55,270H320.342v5.589A2.419,2.419,0,0,1,317.927,278H185.976a2.419,2.419,0,0,1-2.414-2.414h0V270h0Z" transform="translate(-177.346 -228.801)" fill="#263238"/>
      <path id="Tracé_1075" data-name="Tracé 1075" d="M183.55,270H320.342v5.589A2.419,2.419,0,0,1,317.927,278H185.976a2.419,2.419,0,0,1-2.414-2.414h0V270h0Z" transform="translate(-177.346 -228.801)" fill="#fff" opacity="0.6" style="isolation: isolate"/>
      <rect id="Rectangle_257" data-name="Rectangle 257" width="136.792" height="4.002" transform="translate(6.204 41.188)" opacity="0.2" style="isolation: isolate"/>
      <path id="Tracé_1076" data-name="Tracé 1076" d="M324.964,271.391H180.236A2.242,2.242,0,0,1,178,269.156h0a2.242,2.242,0,0,1,2.236-2.236H324.964a2.242,2.242,0,0,1,2.235,2.236h0A2.242,2.242,0,0,1,324.964,271.391Z" transform="translate(-178 -229.163)" fill="#263238"/>
      <path id="Tracé_1077" data-name="Tracé 1077" d="M324.964,271.391H180.236A2.242,2.242,0,0,1,178,269.156h0a2.242,2.242,0,0,1,2.236-2.236H324.964a2.242,2.242,0,0,1,2.235,2.236h0A2.242,2.242,0,0,1,324.964,271.391Z" transform="translate(-178 -229.163)" fill="#fff" opacity="0.6" style="isolation: isolate"/>
      <path id="Tracé_1078" data-name="Tracé 1078" d="M297.993,263.28v2.627c0,.782-1.352,1.341-2.124,1.341H234.705c-.794,0-2.046-.559-2.046-1.341V263.28Z" transform="translate(-171.563 -229.592)" fill="#263238"/>
      <path id="Tracé_1079" data-name="Tracé 1079" d="M297.993,263.28v2.627c0,.782-1.352,1.341-2.124,1.341H234.705c-.794,0-2.046-.559-2.046-1.341V263.28Z" transform="translate(-171.563 -229.592)" fill="#fff" opacity="0.6" style="isolation: isolate"/>
      <path id="Tracé_1080" data-name="Tracé 1080" d="M295.8,263.28v2.627c0,.782-1.352,1.341-2.124,1.341h-40.34c-.794,0-2.079-.559-2.079-1.341V263.28Z" transform="translate(-169.373 -229.592)" opacity="0.2" style="isolation: isolate"/>
      <path id="Tracé_1081" data-name="Tracé 1081" d="M305.253,234.671l-7.277,33.142a2.583,2.583,0,0,1-2.358,1.99H255.837a1.725,1.725,0,0,1-1.576-1.856,1.153,1.153,0,0,1,.078-.38l7.277-32.784a2.236,2.236,0,0,1,2.37-1.632h39.77c1.073.022,1.744.447,1.5,1.52Z" transform="translate(-169.02 -233.141)" fill="#263238"/>
      <path id="Tracé_1082" data-name="Tracé 1082" d="M305.253,234.671l-7.277,33.142a2.583,2.583,0,0,1-2.358,1.99H255.837a1.725,1.725,0,0,1-1.576-1.856,1.153,1.153,0,0,1,.078-.38l7.277-32.784a2.236,2.236,0,0,1,2.37-1.632h39.77c1.073.022,1.744.447,1.5,1.52Z" transform="translate(-169.02 -233.141)" fill="#fff" opacity="0.6" style="isolation: isolate"/>
      <path id="Tracé_1083" data-name="Tracé 1083" d="M305.11,234.671l-7.277,33.142a2.583,2.583,0,0,1-2.358,1.99H257.047a1.725,1.725,0,0,1-1.576-1.856,1.154,1.154,0,0,1,.078-.38l7.277-32.784a2.236,2.236,0,0,1,2.37-1.632h38.418C304.686,233.173,305.356,233.6,305.11,234.671Z" transform="translate(-168.877 -233.141)" fill="#fff" opacity="0.4" style="isolation: isolate"/>
      <path id="Tracé_1084" data-name="Tracé 1084" d="M279.274,254.462c1.855,0,3.756-1.99,4.236-4.471s-.626-4.471-2.493-4.471a2.677,2.677,0,0,0-1.028.2,5.666,5.666,0,0,1-3.163,4.046v.2c-.581,2.5.537,4.493,2.448,4.493Z" transform="translate(-166.38 -231.683)" opacity="0.2" style="isolation: isolate"/>
    </g>
  </g>
</svg>
