<?xml version="1.0" encoding="utf-8"?>
<!-- Generator: Adobe Illustrator 27.2.0, SVG Export Plug-In . SVG Version: 6.00 Build 0)  -->
<svg version="1.1" id="Calque_1" xmlns="http://www.w3.org/2000/svg" xmlns:xlink="http://www.w3.org/1999/xlink" x="0px" y="0px"
	 viewBox="0 0 500 500" style="enable-background:new 0 0 500 500;" xml:space="preserve">
<style type="text/css">
	.st0{fill:#191558;}
	.st1{opacity:0.9;fill:#F0F0F8;enable-background:new    ;}
	.st2{fill:#F5F5F5;}
	.st3{fill:#E4897B;}
	.st4{fill:#2E353A;}
	.st5{fill:none;stroke:#191558;stroke-width:0.4831;stroke-linecap:round;stroke-linejoin:round;}
	.st6{opacity:0.2;enable-background:new    ;}
	.st7{opacity:0.6;fill:#FFFFFF;enable-background:new    ;}
	.st8{fill:#FFFFFF;}
	.st9{opacity:0.3;enable-background:new    ;}
	.st10{opacity:0.8;fill:#FFFFFF;enable-background:new    ;}
	.st11{opacity:0.4;enable-background:new    ;}
	.st12{fill:none;stroke:#2E353A;stroke-width:0.5;stroke-linecap:round;stroke-linejoin:round;}
	.st13{opacity:0.2;fill:#FFFFFF;enable-background:new    ;}
	.st14{opacity:0.1;fill:#FFFFFF;enable-background:new    ;}
	.st15{opacity:0.8;}
</style>
<g id="freepik--background-simple--inject-52">
	<path class="st0" d="M95,136.3c41.4-30.3,87,54.4,134,76s106.4-77.5,180-29c44.7,29.4,49.8,183.1-138.6,194.9S15.1,194.7,95,136.3z
		"/>
	<path class="st1" d="M95,136.3c41.4-30.3,87,54.4,134,76s106.4-77.5,180-29c44.7,29.4,49.8,183.1-138.6,194.9S15.1,194.7,95,136.3z
		"/>
</g>
<g id="freepik--Shadow--inject-52">
	<ellipse id="freepik--path--inject-52" class="st2" cx="250" cy="416.2" rx="193.9" ry="11.3"/>
</g>
<g id="freepik--Character--inject-52">
	<g id="freepik--group--inject-52">
		<path class="st3" d="M296.2,185.5l0.3-7.7c0,0,2.1-2.1,2.1-3.4s-2.4-8.9-3.4-9.3s-6.6,2.3-6.7,4s2.9,8,3.4,8.5l-0.8,8.2
			L296.2,185.5z"/>
		<path class="st3" d="M380.4,174.8l-2.7-7.6c-1.1-0.8-2.2-1.7-3.1-2.7c-0.7-1,3.3-8.2,3.9-8.2c2,0.7,3.8,1.8,5.5,3.1
			c0.6,0.7-2.6,6.6-2.6,6.6l4,6.6L380.4,174.8z"/>
		<path class="st0" d="M364.9,173.5c3.7,0.4,21.3,19.2,21.3,19.2l-7.6-21.1l6-2.1c0,0,14.9,23.7,11.6,32.4s-32.4-11.2-32.4-11.2
			L364.9,173.5z"/>
		<polygon class="st3" points="308.5,398.5 304.4,393.1 311.4,386.4 317.7,380.3 323.6,385.9 315.6,392.5 		"/>
		<path class="st4" d="M304.2,391.5c0.6-0.4,5.7,7.2,5.7,7.2s-1.1,8,1.2,13.1s-2.2,4.7-5.9-0.2l-9.2-12
			C293.3,396.1,297.9,396,304.2,391.5z"/>
		<path class="st5" d="M309.8,400.1c0,0,3.4-1.1,3.8,0.7C314.1,403,309.8,400.1,309.8,400.1s3.4,2.6,2.5,3.7
			C310.9,405.6,309.8,400.1,309.8,400.1z"/>
		<polygon class="st6" points="315.6,392.5 311.4,386.4 317.7,380.3 323.6,385.9 		"/>
		<polygon class="st3" points="349.6,407 342.9,407 341.8,397.6 340.8,388.9 348.8,387.6 349.2,397.9 		"/>
		<path class="st4" d="M341.4,406.6c0-0.8,9.2-0.2,9.2-0.2s5.6,5.7,11.1,7s2.4,4.6-3.7,4.6h-15.1C338.5,418,341.2,414.3,341.4,406.6
			z"/>
		<path class="st5" d="M351.7,407.4c0,0,1.2-3.4,2.9-2.6C356.6,405.7,351.7,407.4,351.7,407.4s4.1-1.2,4.5,0.2
			C356.8,409.8,351.7,407.4,351.7,407.4z"/>
		<polygon class="st6" points="349.2,398.1 341.8,397.8 340.8,389 348.8,387.7 		"/>
		<path class="st0" d="M366.5,244.3c0,0,20,47.3,23.1,68s-67.9,76.3-67.9,76.3l-7.3-7.7c0,0,52.8-54.3,52.8-63.6s-20.6-52-20.6-52
			S344.8,248,366.5,244.3z"/>
		<path class="st7" d="M352.1,362.7c-7.2,6.7-14.3,12.7-19.7,17.3c-6.3,5.3-10.5,8.6-10.5,8.6l-7.3-7.7c0,0,7.3-7.5,16.4-17.3
			c7.2-7.8,15.5-17,22.4-25.3c8-9.6,14-17.9,14-21c0-4.9-5.7-19.1-11.1-31.4c-4.9-11-9.5-20.6-9.5-20.6c-0.1-2,0.1-3.9,0.6-5.8
			c1.4-5.4,5.8-12.8,19.2-15.1c0,0,20,47.2,23.1,68C391.4,323.6,370.9,345.3,352.1,362.7z"/>
		<path class="st6" d="M353.3,338.2l-1.3,24.5c-7.2,6.7-14.3,12.7-19.7,17.3c-1.3-5.4-1.7-10.9-1.4-16.5
			C338.1,355.8,346.5,346.5,353.3,338.2z"/>
		<path class="st6" d="M356.2,285.8c-4.9-11-9.5-20.6-9.5-20.6c-0.1-2,0.1-3.9,0.6-5.8c0.7-0.5,1.5-0.8,2.3-1
			C349.6,258.4,355.5,267.7,356.2,285.8z"/>
		<path class="st4" d="M330.5,135.8c0,0,6.1-7.6,16-5.9s8.2,20.1,8.2,20.1c3.8,3.2,5.4,8.3,4.3,13.2c-1.9,8.3-24.6,13.1-33.2,7.4
			s-2-24.2,2.2-26.8S330.5,135.8,330.5,135.8z"/>
		<path class="st0" d="M349.8,258.4l1.2,66.5V393h-11.3c-27.1-129-8.5-161.3-8.5-161.3h0.1c0-0.1,0-0.1,0.1-0.1
			c4.4-9.7,32.9-2.5,32.9-2.5c2,8,3.3,24.3,3.3,24.3L349.8,258.4z"/>
		<path class="st7" d="M349.8,258.4l1.2,66.5V393h-11.3c-27.1-129-8.5-161.3-8.5-161.3h0.1c0-0.1,0-0.1,0.1-0.1
			c4.4-9.7,32.9-2.5,32.9-2.5c2,8,3.3,24.3,3.3,24.3L349.8,258.4z"/>
		<polygon class="st4" points="331,226.7 331,231.5 364,229 364,223.3 		"/>
		
			<rect x="340.6" y="224.7" transform="matrix(0.9987 -5.094156e-02 5.094156e-02 0.9987 -11.2168 17.6915)" class="st0" width="1.6" height="8.4"/>
		
			<rect x="349.4" y="224.7" transform="matrix(0.996 -8.924197e-02 8.924197e-02 0.996 -18.8926 32.4114)" class="st8" width="7.2" height="5.5"/>
		
			<rect x="360.8" y="222.5" transform="matrix(0.9987 -5.094156e-02 5.094156e-02 0.9987 -11.0768 18.7161)" class="st0" width="1.6" height="8.4"/>
		
			<rect x="340.6" y="224.7" transform="matrix(0.9987 -5.094156e-02 5.094156e-02 0.9987 -11.2168 17.6915)" class="st7" width="1.6" height="8.4"/>
		
			<rect x="360.8" y="222.5" transform="matrix(0.9987 -5.094156e-02 5.094156e-02 0.9987 -11.0768 18.7161)" class="st7" width="1.6" height="8.4"/>
		<path class="st0" d="M364.1,223.9l-33,2.9c-0.8-12.3-1.6-20.2-8.8-42c-0.6-1.9-1.3-3.9-2.1-6.1c4.5-1.4,9.1-2.5,13.7-3.3
			c4.9-0.9,9.8-1.4,14.8-1.6c6.4,0,13.8,0.7,13.8,0.7s1,0.2,1.7,7.1C364.9,187.8,365.5,200.6,364.1,223.9z"/>
		<path class="st9" d="M364.1,223.9l-33,2.9c-0.8-12.3-1.6-20.2-8.8-42c-0.6-1.9-1.3-3.9-2.1-6.1c4.5-1.4,9.1-2.5,13.7-3.3
			c4.9-0.9,9.8-1.4,14.8-1.6c6.4,0,13.8,0.7,13.8,0.7s1,0.2,1.7,7.1C364.9,187.8,365.5,200.6,364.1,223.9z"/>
		<path class="st3" d="M346,181c-8.1-1-10.6-4.5-10.6-4.5c5.2-4.9,0.9-13.3,0.9-13.3l9.8,1.8c-0.2,1.4-0.4,2.7-0.4,4.1
			c-0.1,5.9,2.6,6,2.6,6C350.1,178.3,346,181,346,181z"/>
		<path class="st6" d="M346.1,165c-0.2,1.4-0.4,2.7-0.4,4.1c-4.7-1.1-9.4-6-9.4-6L346.1,165z"/>
		<path class="st3" d="M337.4,137.9c8.3-2,12,1.9,14.6,10.2c3.3,10.5,2.7,18.6-8.2,18.8C329,167.2,323.6,141.2,337.4,137.9z"/>
		<path class="st4" d="M331.6,154c0,0,2.3-7.7,0.4-12.9c0,0,14.8-10.6,19.6,5.9c0,0-1.9-15.2-16.2-12.1s-9.3,23.9-0.5,28.4
			C334.9,163.3,330.2,158.9,331.6,154z"/>
		<path class="st3" d="M333.4,155.4c-0.6-2-2.7-3-4.7-2.4c-2.5,0.9-2.5,6.4,4.2,6.2C333.9,159.2,334.2,158.2,333.4,155.4z"/>
		<path class="st3" d="M364.3,181.4c-12.4,6.1-31.4,4.7-42,3.2c-0.6-1.9-1.3-3.9-2.1-6.1c4.5-1.4,9.1-2.5,13.7-3.3
			c4.9-0.9,9.8-1.4,14.8-1.6c6.4,0,13.8,0.7,13.8,0.7S363.6,174.6,364.3,181.4z"/>
		<path class="st0" d="M327.2,175.2c0,0,8.9,11.4,9.2,23.7s-7.9,69.1-7.9,69.1l-9.9-2.8c0,0,7.5-43.7,0-85.9L327.2,175.2z"/>
		<path class="st0" d="M354.7,174c0,0,3.6,11.8,3.1,20.2s8.7,50.1,8.7,50.1l2.7,6.4l-2.6-25.8c0,0,1.6-37.9-1.6-50.9H354.7z"/>
		<path class="st4" d="M337.4,137.9c0,0,3.1,10.4-6.3,15.2c-11.3,5.7-10.2,18.1,0.8,19.6c0,0-11.1-1.1-13.3-8.4s4-18.5,4-18.5
			s-3.4-6.1,5.8-11C333.5,132.2,337.4,137.9,337.4,137.9z"/>
		<polygon class="st0" points="338.2,391.4 352.4,389.3 351.2,395 339.5,396.5 		"/>
		<polygon class="st0" points="314.5,378.2 324,388.5 319.3,391.3 312,383.5 		"/>
		<path class="st0" d="M370.8,151.4c-1.7-3.1-5-4.5-7.4-3.1s-2.9,4.9-1.2,7.9s5,4.4,7.4,3.1S372.5,154.4,370.8,151.4z"/>
		<path class="st0" d="M390.2,140.6l-5.9-10.8c0,0-4.1,8.8-10,12.1l3,5.4l0.5,0.8l3,5.4c5.9-3.3,15.5-2.2,15.5-2.2L390.2,140.6z"/>
		<path class="st10" d="M370.8,151.4c-1.7-3.1-5-4.5-7.4-3.1s-2.9,4.9-1.2,7.9s5,4.4,7.4,3.1S372.5,154.4,370.8,151.4z"/>
		<path class="st10" d="M390.2,140.6l-5.9-10.8c0,0-4.1,8.8-10,12.1l3,5.4l0.5,0.8l3,5.4c5.9-3.3,15.5-2.2,15.5-2.2L390.2,140.6z"/>
		<path class="st0" d="M370.4,157.7c0,0,4.2,6.1,8.2,8.4c0.3,0.2,0.6,0.1,0.8-0.2l3.4-4.2c0.2-0.3,0.2-0.7-0.1-0.9
			c0,0-0.1,0-0.1-0.1c-1.7-0.7-5.6-2.6-7.8-5.3C371.9,151.9,370.4,157.7,370.4,157.7z"/>
		<path class="st9" d="M370.4,157.7c0,0,4.2,6.1,8.2,8.4c0.3,0.2,0.6,0.1,0.8-0.2l3.4-4.2c0.2-0.3,0.2-0.7-0.1-0.9
			c0,0-0.1,0-0.1-0.1c-1.7-0.7-5.6-2.6-7.8-5.3C371.9,151.9,370.4,157.7,370.4,157.7z"/>
		<path class="st8" d="M396.3,151.6c-1.4,0.8-5.2-3.5-8.6-9.6s-5-11.6-3.7-12.3s5.2,3.5,8.6,9.6S397.7,150.9,396.3,151.6z"/>
		<path class="st11" d="M395.8,149.8c-1,0.6-4-2.8-6.8-7.7c-0.2-0.3-0.3-0.6-0.5-0.9s-0.4-0.7-0.6-1c-2.6-4.9-3.9-9.1-2.9-9.7
			s4.4,3.2,7.3,8.5S396.8,149.2,395.8,149.8z"/>
		<path class="st0" d="M369,160.4c0,0-1.5-1-4.1-5.7c-2.9-5.1-2.8-6.5-2.8-6.5l13.2-7.4c0,0,0.2,1.9,2.8,6.6s4,5.6,4,5.6L369,160.4z
			"/>
		<path class="st8" d="M388.9,142.2c-0.2-0.3-0.3-0.6-0.5-0.9s-0.4-0.7-0.6-1l1.4-0.4c0.3-0.1,0.6,0.1,0.8,0.3l0.1,0.2
			c0.2,0.3,0.1,0.6-0.1,0.8L388.9,142.2z"/>
		<path class="st6" d="M388.9,142.2c-0.2-0.3-0.3-0.6-0.5-0.9s-0.4-0.7-0.6-1l1.4-0.4c0.3-0.1,0.6,0.1,0.8,0.3l0.1,0.2
			c0.2,0.3,0.1,0.6-0.1,0.8L388.9,142.2z"/>
		<path class="st0" d="M318.5,179.3c-4.6,2-21,31.3-21,31.3l-0.3-27.7l-7.4-1c0,0-4.5,39.3,5.1,41.5s27.4-25.8,27.4-25.8
			L318.5,179.3z"/>
		<path class="st12" d="M336.3,136.6c0,0,4.2,3.1,1.1,11.1"/>
		<path class="st12" d="M353.8,149.4c0,0,11.7,7.6,4.1,17.3"/>
	</g>
</g>
<g id="freepik--Phone--inject-52">
	<g id="freepik--group--inject-52_00000064323574810657570770000003397593408777963964_">
		<path class="st4" d="M116,77.9h167.9c5.7,0,10.4,4.7,10.4,10.4V407c0,5.7-4.7,10.4-10.4,10.4H116c-5.7,0-10.4-4.7-10.4-10.4V88.3
			C105.6,82.5,110.2,77.9,116,77.9z"/>
		<path class="st0" d="M288,89.3v316.1c0,2.6-2.1,4.6-4.6,4.6c0,0,0,0-0.1,0H116.2c-2.3,0-4.2-1.8-4.2-4.1c0-0.1,0-0.1,0-0.2V88.9
			c-0.1-2.1,1.5-3.8,3.6-3.9c0,0,0,0,0,0h41.8c1.2,0,2.3,0.8,2.7,1.9l1.7,4.3c0.4,1.1,1.5,1.8,2.7,1.9h71.1c1.2,0,2.2-0.7,2.7-1.8
			l1.7-4.3c0.4-1.1,1.5-1.9,2.7-1.9h41.2C286.2,85.1,288,87,288,89.3z"/>
		<rect x="112" y="105.5" class="st13" width="176" height="39.5"/>
		<rect x="131.8" y="94.8" class="st7" width="2.2" height="2.9"/>
		<rect x="128.3" y="93.9" class="st7" width="2.2" height="3.9"/>
		<rect x="124.8" y="92.9" class="st7" width="2.2" height="4.8"/>
		<rect x="121.2" y="91.9" class="st7" width="2.2" height="5.8"/>
		<rect x="267.2" y="93.8" class="st7" width="1.3" height="2.9"/>
		<rect x="269.4" y="92.7" class="st7" width="10.3" height="5"/>
		<circle class="st7" cx="196" cy="85.4" r="2.4"/>
		<path class="st7" d="M203.3,85.4c0,0.9-0.7,1.5-1.6,1.5s-1.6-0.7-1.6-1.6c0-0.9,0.7-1.5,1.6-1.5C202.6,83.9,203.3,84.6,203.3,85.4
			L203.3,85.4z"/>
		<path class="st13" d="M288,350v55.4c0,2.6-2.1,4.6-4.6,4.6c0,0,0,0-0.1,0H116.2c-2.3,0-4.2-1.8-4.2-4.1c0-0.1,0-0.1,0-0.2V350H288
			z"/>
		<polygon class="st0" points="131.3,244.2 199.9,186.6 268.5,244.2 214.8,316.4 166.4,315.4 		"/>
		<polygon class="st9" points="131.3,244.2 199.9,186.6 268.5,244.2 214.8,316.4 166.4,315.4 		"/>
		<path class="st8" d="M153.4,167.6h93.1c1.2,0,2.2,1,2.2,2.2V308c0,1.2-1,2.2-2.2,2.2h-93.1c-1.2,0-2.2-1-2.2-2.2V169.8
			C151.1,168.6,152.1,167.6,153.4,167.6z"/>
		<path class="st6" d="M162.2,180.4h75.4c0.4,0,0.7,0.3,0.7,0.7v1.5c0,0.4-0.3,0.7-0.7,0.7h-75.4c-0.4,0-0.7-0.3-0.7-0.7v-1.5
			C161.5,180.8,161.9,180.4,162.2,180.4z"/>
		<path class="st6" d="M162.2,190.1h75.4c0.4,0,0.7,0.3,0.7,0.7v1.5c0,0.4-0.3,0.7-0.7,0.7h-75.4c-0.4,0-0.7-0.3-0.7-0.7v-1.5
			C161.5,190.4,161.9,190.1,162.2,190.1z"/>
		<path class="st6" d="M162.2,199.8h75.4c0.4,0,0.7,0.3,0.7,0.7v1.5c0,0.4-0.3,0.7-0.7,0.7h-75.4c-0.4,0-0.7-0.3-0.7-0.7v-1.5
			C161.5,200.1,161.9,199.8,162.2,199.8z"/>
		<path class="st6" d="M162.2,209.4h75.4c0.4,0,0.7,0.3,0.7,0.7v1.5c0,0.4-0.3,0.7-0.7,0.7h-75.4c-0.4,0-0.7-0.3-0.7-0.7v-1.5
			C161.5,209.8,161.9,209.4,162.2,209.4z"/>
		<path class="st6" d="M162.2,219.1h75.4c0.4,0,0.7,0.3,0.7,0.7v1.5c0,0.4-0.3,0.7-0.7,0.7h-75.4c-0.4,0-0.7-0.3-0.7-0.7v-1.5
			C161.5,219.4,161.9,219.1,162.2,219.1z"/>
		<path class="st6" d="M162.2,228.8h75.4c0.4,0,0.7,0.3,0.7,0.7v1.5c0,0.4-0.3,0.7-0.7,0.7h-75.4c-0.4,0-0.7-0.3-0.7-0.7v-1.5
			C161.5,229.1,161.9,228.8,162.2,228.8z"/>
		<path class="st6" d="M162.2,238.5h75.4c0.4,0,0.7,0.3,0.7,0.7v1.5c0,0.4-0.3,0.7-0.7,0.7h-75.4c-0.4,0-0.7-0.3-0.7-0.7v-1.5
			C161.5,238.8,161.9,238.5,162.2,238.5z"/>
		<path class="st6" d="M162.2,248.1h75.4c0.4,0,0.7,0.3,0.7,0.7v1.5c0,0.4-0.3,0.7-0.7,0.7h-75.4c-0.4,0-0.7-0.3-0.7-0.7v-1.5
			C161.5,248.4,161.9,248.1,162.2,248.1z"/>
		<path class="st6" d="M162.2,257.8h75.4c0.4,0,0.7,0.3,0.7,0.7v1.5c0,0.4-0.3,0.7-0.7,0.7h-75.4c-0.4,0-0.7-0.3-0.7-0.7v-1.5
			C161.5,258.1,161.9,257.8,162.2,257.8z"/>
		<path class="st0" d="M203.6,294.5l-0.4-0.2c-1.4-0.8-3.1-0.8-4.4,0l-1.9,1L131,244.2v84.4c0,2.4,2,4.4,4.4,4.4c0,0,0,0,0.1,0
			h128.8c2.5,0,3.6-1.9,3.6-4.4v-84.4L203.6,294.5z"/>
		<path class="st7" d="M203.6,294.5l-0.4-0.2c-1.4-0.8-3.1-0.8-4.4,0l-1.9,1L131,244.2v84.4c0,2.4,2,4.4,4.4,4.4c0,0,0,0,0.1,0
			h128.8c2.5,0,3.6-1.9,3.6-4.4v-84.4L203.6,294.5z"/>
		<polygon class="st6" points="193.9,293 196.9,295.4 150.3,321.8 		"/>
		<polygon class="st6" points="254.5,322.8 203.5,294.5 205.9,292.7 		"/>
		<path class="st0" d="M173.8,111.7h55.7c0.5,0,0.8,0.4,0.8,0.8v3.7c0,0.5-0.4,0.8-0.8,0.8h-55.7c-0.5,0-0.8-0.4-0.8-0.8v-3.7
			C173,112,173.4,111.7,173.8,111.7z"/>
		<path class="st0" d="M275.7,139.7H250c-1.8,0-3.3-1.5-3.3-3.3l0,0c0-1.8,1.5-3.3,3.3-3.3l0,0h25.7c1.8,0,3.3,1.5,3.3,3.3l0,0
			C279,138.2,277.5,139.7,275.7,139.7z"/>
		<rect x="124.7" y="358.3" class="st0" width="25.7" height="24.3"/>
		<rect x="155.9" y="358.3" class="st0" width="25.7" height="24.3"/>
		<rect x="187.1" y="358.3" class="st0" width="25.7" height="24.3"/>
		<rect x="218.4" y="358.3" class="st0" width="25.7" height="24.3"/>
		<rect x="249.6" y="358.3" class="st0" width="25.7" height="24.3"/>
		<path class="st0" d="M275.7,399.8H250c-1.8,0-3.3-1.5-3.3-3.3l0,0c0-1.8,1.5-3.3,3.3-3.3h25.7c1.8,0,3.3,1.5,3.3,3.3l0,0
			C279,398.3,277.5,399.8,275.7,399.8z"/>
		<polygon class="st14" points="270,78 105.6,311.9 105.6,208.3 197.1,78 		"/>
		<path class="st14" d="M174.9,78L106,176.3v-88c-0.2-5.5,4-10.1,9.5-10.3c0.2,0,0.3,0,0.5,0H174.9z"/>
	</g>
</g>
<g id="freepik--paper-plane--inject-52">
	<g id="freepik--group--inject-52_00000182504274008417082930000012939913114395813555_">
		<g id="freepik--group--inject-52_00000106131538059997332710000012804009115010045057_">
			<path class="st8" d="M335.6,94.9c-44.1,6.2-102.8,23.7-153.3,45.7c-32.8,14.3-90.1,42.7-104.7,72.6c-4.4,9-4.4,17.3-0.1,24.8
				s14.3,12.7,28.5,16.2v-1.6c-13.5-3.4-23.1-8.3-27.2-15.4s-4-14.9,0.2-23.4c10.5-21.6,48.4-47.8,104-71.9
				c50.2-21.9,108.8-39.4,152.8-45.5c0.4-0.1,0.7-0.4,0.6-0.8C336.4,95.1,336,94.9,335.6,94.9L335.6,94.9z"/>
			<path class="st0" d="M335.6,94.9c-44.1,6.2-102.8,23.7-153.3,45.7c-32.8,14.3-90.1,42.7-104.7,72.6c-4.4,9-4.4,17.3-0.1,24.8
				s14.3,12.7,28.5,16.2v-1.6c-13.5-3.4-23.1-8.3-27.2-15.4s-4-14.9,0.2-23.4c10.5-21.6,48.4-47.8,104-71.9
				c50.2-21.9,108.8-39.4,152.8-45.5c0.4-0.1,0.7-0.4,0.6-0.8C336.4,95.1,336,94.9,335.6,94.9L335.6,94.9z"/>
			<path class="st0" d="M78.2,238.4c-0.3,0-0.5-0.1-0.7-0.4c-4.3-7.5-4.3-15.9,0.1-24.8c14.6-29.9,71.9-58.4,104.7-72.7
				c50.4-21.9,109.2-39.4,153.3-45.7c0.4-0.1,0.8,0.2,0.9,0.6c0.1,0.4-0.2,0.8-0.6,0.8l0,0c-44,6.2-102.5,23.6-152.9,45.5
				c-55.5,24.2-93.4,50.4-103.9,71.9c-4.2,8.5-4.2,16.4-0.2,23.4c0.2,0.4,0.1,0.8-0.3,1C78.4,238.4,78.3,238.4,78.2,238.4z"/>
		</g>
		<g class="st15">
			<path class="st8" d="M78.2,238.4c-0.3,0-0.5-0.1-0.7-0.4c-4.3-7.5-4.3-15.9,0.1-24.8c14.6-29.9,71.9-58.4,104.7-72.7
				c50.4-21.9,109.2-39.4,153.3-45.7c0.4-0.1,0.8,0.2,0.9,0.6c0.1,0.4-0.2,0.8-0.6,0.8l0,0c-44,6.2-102.5,23.6-152.9,45.5
				c-55.5,24.2-93.4,50.4-103.9,71.9c-4.2,8.5-4.2,16.4-0.2,23.4c0.2,0.4,0.1,0.8-0.3,1C78.4,238.4,78.3,238.4,78.2,238.4z"/>
		</g>
	</g>
	<g id="freepik--group--inject-52_00000094606424807815927180000017379151490852398727_">
		<polygon class="st0" points="356.2,105.5 398.7,83 361.5,95.2 		"/>
		<polygon class="st9" points="356.2,105.5 398.7,83 361.5,95.2 		"/>
		<polygon class="st0" points="346.1,85.6 354,91 356.2,105.5 361.5,95.2 375,102 398.7,83 		"/>
		<polygon class="st7" points="346.1,85.6 354,91 356.2,105.5 361.5,95.2 375,102 398.7,83 		"/>
		<polygon class="st6" points="354,91 398.7,83 361.5,95.2 356.2,105.5 		"/>
	</g>
</g>
</svg>
