<svg xmlns="http://www.w3.org/2000/svg" width="107.536" height="94.793" viewBox="0 0 107.536 94.793">
  <g id="freepik--Target--inject-2" transform="translate(-251.146 -81.867)">
    <path id="Tracé_200" data-name="Tracé 200" d="M356.93,142.05a47.419,47.419,0,0,1-46.18,34.59h-5.86v-.43a46.474,46.474,0,0,1-6.39-1.33,47.381,47.381,0,0,1,6.39-92.57v-.44h5.86a47.4,47.4,0,0,1,46.18,60.17h0Z" fill="#191558"/>
    <path id="Tracé_201" data-name="Tracé 201" d="M356.93,142.05a47.419,47.419,0,0,1-46.18,34.59h-5.86v-.43a46.474,46.474,0,0,1-6.39-1.33,47.381,47.381,0,0,1,6.39-92.57v-.44h5.86a47.4,47.4,0,0,1,46.18,60.17h0Z" opacity="0.3" style="isolation: isolate"/>
    <ellipse id="Ellipse_5" data-name="Ellipse 5" cx="47.39" cy="47.38" rx="47.39" ry="47.38" transform="translate(257.88 81.9)" fill="#191558"/>
    <ellipse id="Ellipse_6" data-name="Ellipse 6" cx="37.46" cy="37.45" rx="37.46" ry="37.45" transform="translate(267.81 91.79)" fill="#fff"/>
    <ellipse id="Ellipse_7" data-name="Ellipse 7" cx="27.52" cy="27.51" rx="27.52" ry="27.51" transform="translate(277.78 101.76)" fill="#191558"/>
    <ellipse id="Ellipse_8" data-name="Ellipse 8" cx="17.59" cy="17.58" rx="17.59" ry="17.58" transform="translate(287.69 111.68)" fill="#fff"/>
    <path id="Tracé_202" data-name="Tracé 202" d="M303.2,136.63a7.649,7.649,0,1,0-5.3-9.44A7.646,7.646,0,0,0,303.2,136.63Z" fill="#191558"/>
    <path id="Tracé_203" data-name="Tracé 203" d="M252.23,100.08l11.44-1.75-1.74-11.44a1.221,1.221,0,0,1,.95-1.43,1.209,1.209,0,0,1,1.43.95.5.5,0,0,0,.02.12l1.89,12.36,4.39,3.23-1.52-10a1.21,1.21,0,0,1,1.01-1.38,1.225,1.225,0,0,1,1.39,1.01l1.86,12.41,5.55,4.08-1.51-10a1.206,1.206,0,0,1,.99-1.38h.01a1.215,1.215,0,0,1,1.38,1l1.92,12.37,24.11,17.74c1.51,1.25.52,2.83-.72,2.48L280,112l-11.93,1.82a1.225,1.225,0,0,1-1.39-1.01,1.21,1.21,0,0,1,1.02-1.38l9.53-1.45-5.55-4.08-11.92,1.81a1.225,1.225,0,0,1-1.39-1.01,1.21,1.21,0,0,1,1.02-1.38l9.53-1.45-4.39-3.23-11.93,1.81a1.214,1.214,0,0,1-.48-2.38.5.5,0,0,0,.12-.02v.04Z" fill="#263238"/>
  </g>
</svg>
