<svg xmlns="http://www.w3.org/2000/svg" width="121.1" height="88.526" viewBox="0 0 121.1 88.526">
  <g id="Groupe_31" data-name="Groupe 31" transform="matrix(-0.875, -0.485, 0.485, -0.875, 30.952, 98.012)">
    <g id="freepik--chart-1--inject-2" transform="matrix(-0.875, 0.485, -0.485, -0.875, 251.732, 215.586)">
      <g id="Groupe_11" data-name="Groupe 11" opacity="0.8">
        <path id="Tracé_105" data-name="Tracé 105" d="M192.5,282.9H93.1a8.2,8.2,0,0,1-8.4-8.1v-1L88,236.2a10.087,10.087,0,0,1,10-9.1h99.4a8.2,8.2,0,0,1,8.4,8.1v1.1l-3.3,37.6A10.08,10.08,0,0,1,192.5,282.9Z" fill="#191558"/>
        <path id="Tracé_106" data-name="Tracé 106" d="M192.5,282.9H93.1a8.2,8.2,0,0,1-8.4-8.1v-1L88,236.2a10.087,10.087,0,0,1,10-9.1h99.4a8.2,8.2,0,0,1,8.4,8.1v1.1l-3.3,37.6A10.08,10.08,0,0,1,192.5,282.9Z" fill="#fff" opacity="0.5"/>
      </g>
      <path id="Tracé_107" data-name="Tracé 107" d="M115.1,276.1h-8.3a.789.789,0,0,1-.8-.8v-.1l3.5-39.7a1.063,1.063,0,0,1,1-.9h8.3a.789.789,0,0,1,.8.8v.1l-3.5,39.7A1.063,1.063,0,0,1,115.1,276.1Z" fill="#fff"/>
      <path id="Tracé_108" data-name="Tracé 108" d="M182.9,276.1h-8.3a.789.789,0,0,1-.8-.8v-.1l3.5-39.7a1.063,1.063,0,0,1,1-.9h8.3a.86.86,0,0,1,.8.8v.1l-3.5,39.7A1.063,1.063,0,0,1,182.9,276.1Z" fill="#fff"/>
      <path id="Tracé_109" data-name="Tracé 109" d="M150.2,276.1h-8.3a.789.789,0,0,1-.8-.8v-.1l2.3-26a1.063,1.063,0,0,1,1-.9h8.3a.789.789,0,0,1,.8.8v.1l-2.3,26A1.063,1.063,0,0,1,150.2,276.1Z" fill="#fff"/>
      <path id="Tracé_110" data-name="Tracé 110" d="M132.8,276.1h-8.3a.789.789,0,0,1-.8-.8v-.1l1.7-19.3a1.063,1.063,0,0,1,1-.9h8.3a.789.789,0,0,1,.8.8v.1l-1.7,19.3A1.063,1.063,0,0,1,132.8,276.1Z" fill="#fff"/>
      <path id="Tracé_111" data-name="Tracé 111" d="M166.5,276.1h-8.3a.789.789,0,0,1-.8-.8v-.1l.3-3.1a1.063,1.063,0,0,1,1-.9H167a.789.789,0,0,1,.8.8v.1l-.3,3.1A.987.987,0,0,1,166.5,276.1Z" fill="#fff"/>
      <path id="Tracé_112" data-name="Tracé 112" d="M182.8,232a1.027,1.027,0,0,0-1.3.5l-15.3,30.8a.882.882,0,0,1-1.2.5.781.781,0,0,1-.4-.4l-12-23.7a.732.732,0,0,0-1.1-.3.1.1,0,0,0-.1.1l-16.3,10.3a.75.75,0,0,1-.9,0L111,236.3a.984.984,0,0,0-1.3.4h0l-.1.1a.954.954,0,0,0,.3,1.2h0l24,13.9a.75.75,0,0,0,.9,0l15.6-9.9a.83.83,0,0,1,1.2.2v.1l12.7,25a.856.856,0,0,0,1.2.3.781.781,0,0,0,.4-.4l17-34.1A.65.65,0,0,0,182.8,232Z" opacity="0.3"/>
    </g>
    <path id="Tracé_669" data-name="Tracé 669" d="M.913,36.3c3.9,3.9,6,.1,6,.1l.3-3.9,1.4-17.6.4-5.4.1-1,.4-4.7.2-2.9.1-.7L6.213,0V.1c-.1.3-.3,1.2-.7,2.5l-.3,1.2c-.7,2.5-1.6,6.1-2.4,9.9C.713,23.2-1.187,34.2.913,36.3Z" transform="matrix(-0.982, 0.191, -0.191, -0.982, 33.084, 37.36)" fill="#263238"/>
    <path id="Tracé_667" data-name="Tracé 667" d="M11.382,51.527a11.909,11.909,0,0,0,3.2,1c.3,0,.6.1.8.1,10.1,1.2,20.1-8.8,22.6-22.9,2.6-14.4-3.6-27.6-14-29.5s-20.8,8.3-23.4,22.7C-1.718,35.927,2.982,47.827,11.382,51.527Zm-5.4-27.6c2.2-11.9,8.5-20.9,14.6-21.3h1.4a25.129,25.129,0,0,1,2.7.4c5.4,1.1,10.5,12.4,8.2,25.3-2.1,12.2-9.7,21.4-17.1,21.4a7.568,7.568,0,0,1-1.5-.1h-.1l-.426-.069-.274-.031a5.783,5.783,0,0,1-1.4-.5c-5.5-2.7-8.2-13.2-6.1-25.1Z" transform="matrix(-0.921, 0.391, -0.391, -0.921, 56.109, 80.961)" fill="#191558"/>
    <path id="Tracé_668" data-name="Tracé 668" d="M8.428,46.5l2.3.615,1.6.185c8.1,0,15.5-9.3,17.7-21.4,2.4-12.9-2.6-24.1-8.5-25.3a28.857,28.857,0,0,0-2.9-.4h0a19.483,19.483,0,0,0-2.5-.2c-6.7.4-13.8,9.4-15.7,21.3C-1.272,32.5,2.23,43.631,8.428,46.5Z" transform="matrix(-0.921, 0.391, -0.391, -0.921, 52.625, 79.802)" fill="#fafafa" opacity="0.4"/>
  </g>
</svg>
