<?xml version="1.0" encoding="UTF-8" standalone="no"?>
<svg
   width="800"
   height="645.717"
   viewBox="0 0 800 645.717"
   role="img"
   artist="Katerina Limpitsouni"
   source="https://undraw.co/"
   version="1.1"
   id="svg72"
   sodipodi:docname="real-time-collaboration.svg"
   inkscape:version="1.4.2 (f4327f4, 2025-05-13)"
   xmlns:inkscape="http://www.inkscape.org/namespaces/inkscape"
   xmlns:sodipodi="http://sodipodi.sourceforge.net/DTD/sodipodi-0.dtd"
   xmlns="http://www.w3.org/2000/svg"
   xmlns:svg="http://www.w3.org/2000/svg">
  <defs
     id="defs72" />
  <sodipodi:namedview
     id="namedview72"
     pagecolor="#f0f0f8"
     bordercolor="#000000"
     borderopacity="0.25"
     inkscape:showpageshadow="2"
     inkscape:pageopacity="0.0"
     inkscape:pagecheckerboard="0"
     inkscape:deskcolor="#d1d1d1"
     inkscape:zoom="0.59855945"
     inkscape:cx="327.45285"
     inkscape:cy="259.7904"
     inkscape:window-width="1920"
     inkscape:window-height="991"
     inkscape:window-x="-9"
     inkscape:window-y="-9"
     inkscape:window-maximized="1"
     inkscape:current-layer="svg72" />
  <g
     transform="translate(-518.268 -183.458)"
     id="g72">
    <path
       d="M728.489,455.05c-16.885,10.127-46.969,22.815-77.712,9.775l-19.873-8.43,39.823-44.641a190.191,190.191,0,1,1,57.761,43.3Zm-76.3-171.368a158.052,158.052,0,0,0,50.322,116.286l10.985,10.323-25.059,28.091c13.053-2.648,24.422-9.71,30.187-13.811l7.91-5.628,8.507,4.674a159.683,159.683,0,0,0,76.7,19.62c87.978,0,159.554-71.575,159.554-159.554S899.72,124.128,811.742,124.128,652.188,195.7,652.188,283.682Z"
       transform="translate(316.454 89.67)"
       fill="#090814"
       id="path1"
       style="fill:#3f3d56;fill-opacity:0.5" />
    <path
       d="M638.315,285.234a174.954,174.954,0,1,1,90.871,153.493c-12.1,8.608-41.614,25.778-70.771,13.41l35.1-39.344a174.527,174.527,0,0,1-55.2-127.559Z"
       transform="translate(314.858 88.118)"
       fill="#f2f2f2"
       id="path2" />
    <path
       d="M975.309,285.652A175.031,175.031,0,0,0,815.755,111.317c5.1-.447,10.255-.688,15.469-.688a175.023,175.023,0,1,1,0,350.046c-5.206,0-10.354-.245-15.445-.69A175.032,175.032,0,0,0,975.309,285.652Z"
       transform="translate(298.095 88.079)"
       fill="#e6e6e6"
       style="isolation:isolate;fill:#809df0;fill-opacity:0.13148789"
       id="path3" />
    <path
       d="M366.292,721.46A190.7,190.7,0,1,1,507.3,659.04l39.823,44.642-19.873,8.43c-30.743,13.04-60.826.351-77.712-9.775A190.936,190.936,0,0,1,366.292,721.46Zm0-350.046c-87.978,0-159.554,71.576-159.554,159.554s71.576,159.554,159.554,159.554a159.7,159.7,0,0,0,76.718-19.627l8.493-4.667,7.91,5.628c5.765,4.1,17.134,11.163,30.187,13.811l-25.059-28.091,10.985-10.323a158.052,158.052,0,0,0,50.322-116.286c0-87.978-71.576-159.554-159.554-159.554Z"
       transform="translate(358.582 66.405)"
       fill="#090814"
       id="path4"
       style="fill:#809df0;fill-opacity:0.5" />
    <path
       d="M542.961,532.625A174.954,174.954,0,1,0,452.09,686.118c12.1,8.608,41.613,25.778,70.771,13.41l-35.1-39.344a174.528,174.528,0,0,0,55.2-127.559Z"
       transform="translate(356.936 64.747)"
       fill="#f2f2f2"
       id="path5" />
    <path
       d="M223.853,531.649A175.031,175.031,0,0,1,383.407,357.314c-5.1-.447-10.255-.688-15.469-.688a175.023,175.023,0,1,0,0,350.046c5.206,0,10.354-.245,15.445-.69A175.032,175.032,0,0,1,223.853,531.649Z"
       transform="translate(356.936 64.839)"
       fill="#e6e6e6"
       style="isolation:isolate;fill:#e3e7f2;fill-opacity:1"
       id="path6" />
    <path
       d="M867.754,239.967c-11.451-19.349-34.107-20.251-34.107-20.251s-22.077-2.823-36.239,26.646c-13.2,27.468-31.418,53.989-2.933,60.419l5.145-16.014,3.186,17.207a111.451,111.451,0,0,0,12.188.208c30.505-.985,59.557.288,58.622-10.659C872.373,282.971,878.773,258.585,867.754,239.967Z"
       transform="translate(301.53 77.78)"
       fill="#090814"
       id="path7" />
    <path
       d="M793.77,428.158a45.175,45.175,0,0,1-1.461,6.288c-.717,2.015-1.823,3.879-2.478,5.914-2.089,6.489.807,13.725,5.431,18.733a30.57,30.57,0,0,0,14.9,8.85,60.808,60.808,0,0,0,12.808,1.346c11.9.4,24.115.765,35.4-3.061a61.5,61.5,0,0,0,10.283-4.672,7.7,7.7,0,0,0,2.668-2.1,7.344,7.344,0,0,0,.963-4.31c-.025-5.047-1.048-10.067-.805-15.108.135-2.792.657-5.582.4-8.366a15.433,15.433,0,0,0-11.794-13.294c-3.2-.687-6.519-.313-9.777,0a249.266,249.266,0,0,1-25.444,1.138c-8.68-.055-17.306-1.38-25.943-1.519-2.554-.041-2.5.746-3.316,3.218a60.209,60.209,0,0,0-1.835,6.941Z"
       transform="translate(300.609 59.041)"
       fill="#090814"
       id="path8" />
    <path
       d="M820.373,290.52a15.152,15.152,0,0,1-2.181,6.243c-1.51,2.065-3.972,3.245-5.6,5.221-2.445,2.975-2.586,7.161-2.6,11.011-.009,3.547.063,7.331,2.041,10.276a17.958,17.958,0,0,0,5.147,4.538c7.419,5,15.435,10.089,24.38,10.254,3.706.068,7.68-.889,10.118-3.68a15.193,15.193,0,0,0,2.45-4.371,58.039,58.039,0,0,0,4.108-17.669,20.746,20.746,0,0,0-.782-8.488c-1.087-3.03-3.284-5.522-4.736-8.395a18.688,18.688,0,0,1-1.8-11.059,1.194,1.194,0,0,0-.063-.8,1.168,1.168,0,0,0-.962-.39l-17.736-1.277a38.6,38.6,0,0,1-4.924-.563c-.956-.194-3.481-1.552-4.393-1.191C821.162,280.848,820.719,288.709,820.373,290.52Z"
       transform="translate(298.638 72.067)"
       fill="#ed9da0"
       id="path9" />
    <circle
       cx="26.02"
       cy="26.02"
       r="26.02"
       transform="translate(1109.953 312.925)"
       fill="#ed9da0"
       id="circle9" />
    <path
       d="M824.505,328.044a15.957,15.957,0,0,0,4.57,3.652,14.361,14.361,0,0,0,5.71,1.087c4.69.132,9.775-.728,13.038-4.1,4.206-4.347,4.067-11.358,7.364-16.429a3.661,3.661,0,0,1,1.062-1.162,3.443,3.443,0,0,1,1.807-.416c4.164-.039,7.791,2.662,11.064,5.235a14.575,14.575,0,0,1,3.894,3.967,13.447,13.447,0,0,1,1.313,4.022c1.624,7.93,2.151,16.037,2.673,24.115.288,4.462.577,8.927.555,13.4-.071,14.729-3.494,29.212-6.9,43.543-.439,1.847-1.039,3.91-2.718,4.795a6.7,6.7,0,0,1-2.372.579,290.269,290.269,0,0,1-29.34,2.443q-5.747.088-11.488-.278a6.189,6.189,0,0,1-1.935-.337,5.458,5.458,0,0,1-2.11-1.792c-5.31-6.691-5.624-15.943-5.59-24.485q.124-31.328,2.239-62.607c.116-1.721.142-3.811-1.1-5.165a64.67,64.67,0,0,0,8.26,9.934Z"
       transform="translate(298.156 69.18)"
       fill="#191558"
       id="path10" />
    <path
       d="M815.209,296.435c-.879,1.591-7.358,5.541-8.609,6.86-6.989,7.367-19.744,7.09-26.136,14.98-2.249,2.776-3.417,6.264-4.277,9.732-1.215,4.9-1.864,10.253.172,14.878,1.959,4.45,6.083,7.526,8.883,11.5,3.074,4.364,4.456,9.664,5.781,14.835.978,3.818,1.964,7.731,1.583,11.655-.433,4.461-2.592,8.545-3.866,12.842s-1.494,9.414,1.452,12.79c2.165,2.481,5.561,3.464,8.806,4.017a101.184,101.184,0,0,0,12.551,1.093c3.71.164,7.8.2,10.652-2.183,2.251-1.877,3.229-4.922,3.355-7.85a50.667,50.667,0,0,0-.864-8.735c-.4-3.012-.548-6.05-.675-9.085q-.856-20.428-.234-40.881a34.787,34.787,0,0,0-.414-8.483c-.8-3.648-2.767-6.908-4.412-10.259a38.822,38.822,0,0,1-4.3-20.509C815.154,296.334,818.337,290.774,815.209,296.435Z"
       transform="translate(301.94 70.745)"
       fill="#191558"
       id="path11" />
    <path
       d="M858.812,296.724c1.339,1.376,5.887,1.829,7.59,2.715a26.592,26.592,0,0,0,4.989,1.727,64.777,64.777,0,0,1,17.528,8.045,10.636,10.636,0,0,1,2.931,2.532,11.6,11.6,0,0,1,1.621,4.579,51.959,51.959,0,0,1,1.484,12.519c-.2,4.468-1.545,8.8-2.88,13.064l-4.989,15.949c-3.724,11.905-7.471,23.928-8.519,36.358a85.525,85.525,0,0,0,.768,20.65,2.448,2.448,0,0,1-.252,2,1.97,1.97,0,0,1-1.222.562c-2.408.377-4.738-.851-6.92-1.938a76.625,76.625,0,0,0-21.123-6.912,49.109,49.109,0,0,0,6.561-13.525,81.9,81.9,0,0,0,1.982-9.3l2.321-13.423a131.879,131.879,0,0,0,1.991-14.843,18.58,18.58,0,0,0-.323-5.591,27.128,27.128,0,0,0-2.12-5.043c-3.825-7.956-5.619-17.035-4.114-25.733.659-3.807,1.938-7.618,1.4-11.444-.513-3.679.02-6.538-.924-10.178C852.723,284.544,856.294,294.135,858.812,296.724Z"
       transform="translate(294.876 71.01)"
       fill="#191558"
       id="path12" />
    <path
       d="M780.31,333.579c-1.744,3.618-4.659,6.7-5.651,10.593a23.141,23.141,0,0,0-.493,5.536,26.3,26.3,0,0,0,.821,8.325c.554,1.716,1.455,3.3,2.1,4.982a18.064,18.064,0,0,1,1.183,7.381c-.175,3.485-1.359,6.869-1.452,10.357-.146,5.486,2.392,10.643,4.868,15.541a11.425,11.425,0,0,1,16.606-5.437,3.406,3.406,0,0,0,.748-2.483q.274-9.547.53-19.094c.268-9.844.523-19.819-1.741-29.4-1.022-4.327-2.613-8.637-5.53-11.994-1.536-1.767-6.749-6.422-9.27-4.442-1.134.89-.869,3.314-1.048,4.541a19.264,19.264,0,0,1-1.677,5.6Z"
       transform="translate(302.028 68.019)"
       fill="#191558"
       id="path13" />
    <path
       d="M897.067,322.206a26.632,26.632,0,0,1,.891,8.009q.05,8.253-.219,16.5a30.771,30.771,0,0,1-1.072,8.356c-.563,1.771-1.432,3.431-2.014,5.2-1.743,5.289-.791,11.025-.641,16.592a18.855,18.855,0,0,1-.457,5.367c-.92,3.451-3.391,6.239-5.117,9.366-1.638,2.97-2.627,6.3-4.584,9.069s-5.344,4.966-8.628,4.115c-2.488-.644-4.255-2.846-5.478-5.107a25.048,25.048,0,0,1-2.59-16.248c1.228-6.756,5.2-12.75,6.627-19.466,1.965-9.223-1.022-18.74-.933-28.169a13.614,13.614,0,0,1,.594-4.366c.751-2.154,2.363-3.874,3.853-5.6a70.734,70.734,0,0,0,5.178-6.8c1.066-1.59,2.515-5.681,4.405-6.021C891.1,312.247,896.02,318.945,897.067,322.206Z"
       transform="translate(293.275 68.965)"
       fill="#191558"
       id="path14" />
    <path
       d="M754.267,424.609a25.685,25.685,0,0,0-7.144-.759,17.831,17.831,0,0,0-16.555,21.02,29.944,29.944,0,0,0,2.831,7.736c1.895,3.845,4.167,7.681,7.675,10.145a29.89,29.89,0,0,0,6.773,3.224l18.474,6.959c2.718,1.024,5.436,2.048,8.18,3a160.007,160.007,0,0,0,42.727,8.494,46.263,46.263,0,0,0,13.266-.672,4.319,4.319,0,0,0,2.717-1.468,4.654,4.654,0,0,0,.607-2l1.137-7.958a6.666,6.666,0,0,0-.1-3.355,6.426,6.426,0,0,0-3.071-2.894c-12.145-6.976-26.326-10.824-36.549-20.4-2.407-2.254-4.421-5.826-7.345-7.357-3.316-1.736-7.221-2.727-10.648-4.327C769.754,430.494,762.387,426.475,754.267,424.609Z"
       transform="translate(306.17 58.49)"
       fill="#090814"
       id="path15" />
    <path
       d="M776.274,436.347c6.53,2.046,34.1,16.221,38.823,21.171-.633.228-22.123-11.815-22.768-12.009a129.846,129.846,0,0,1-17.322-6.1c-1.12-.518-7.275-2.952-7-4.365C768.326,433.445,775.115,435.983,776.274,436.347Z"
       transform="translate(302.606 57.48)"
       opacity="0.1"
       id="path16" />
    <path
       d="M864.3,493.543a1.534,1.534,0,0,0,1.035-.3,1.6,1.6,0,0,0,.324-1.191l-.03-10.842c-3.118-1.485-6.605-1.962-10.028-2.419l-15.971-2.135c.367.049-2.5,6.879-2.058,7.791.774,1.607,6.689,3.031,8.359,3.79C851.737,490.87,857.768,493.77,864.3,493.543Z"
       transform="translate(296.037 53.5)"
       fill="#ed9da0"
       id="path17" />
    <path
       d="M810.733,480.826c-3.016.48-6.381.9-8.334,3.252-2.477,2.977-1.422,7.414-.241,11.1a3.6,3.6,0,0,0,4.2,3c2.75.174,5.677.311,8.08-1.038a35.414,35.414,0,0,0,3.139-2.333,20.122,20.122,0,0,1,5.771-2.638,58.35,58.35,0,0,1,11.583-2.387,18.017,18.017,0,0,0,4.563-.8,5.056,5.056,0,0,0,3.214-3.12c.557-1.97-.589-3.979-1.687-5.707a22.767,22.767,0,0,0-4.857-6c-2.976-2.312-4.448-.537-7.446.942a63.171,63.171,0,0,1-17.984,5.731Z"
       transform="translate(299.499 53.841)"
       fill="#ed9da0"
       id="path18" />
    <path
       d="M799.256,483.9l-19.147-5.659a25.342,25.342,0,0,0-7.126-1.381,8.554,8.554,0,0,0-6.544,2.646c-1.485,1.743-1.91,4.124-2.28,6.384l-.792,4.833a24.271,24.271,0,0,0-.443,7.421,8.206,8.206,0,0,0,3.8,6.114c2.65,1.446,5.9.74,8.854.135a96.4,96.4,0,0,1,18.145-1.946c2.292-.027,4.7,0,6.721-1.072a8.391,8.391,0,0,0,4.1-6.687C804.92,490.563,803.544,485.171,799.256,483.9Z"
       transform="translate(303.096 53.48)"
       fill="#2f2e41"
       id="path19" />
    <path
       d="M874.563,478.789c2.482-.435,4.673-1.846,7.051-2.678,3.348-1.172,6.976-1.172,10.523-1.159a6.756,6.756,0,0,1,3.773.756c1.562,1.04,1.963,3.122,2.229,4.98l1.6,11.211a17.591,17.591,0,0,1,.131,6.351,5.975,5.975,0,0,1-3.948,4.616c-2.5.651-4.958-.949-7.322-2-5.909-2.626-12.777-1.955-18.938-3.918a4.245,4.245,0,0,1-2.834-2.027,4.612,4.612,0,0,1-.22-1.937c.105-3.6-.655-8.524.43-11.968C868.015,477.919,871.792,478.789,874.563,478.789Z"
       transform="translate(293.306 53.663)"
       fill="#2f2e41"
       id="path20" />
    <path
       d="M911.831,419.6a33.251,33.251,0,0,1,11.713-.8c3.131.345,6.358,1.216,8.644,3.384,2.783,2.638,3.677,6.718,3.751,10.551a32.966,32.966,0,0,1-7.165,21.053,19.1,19.1,0,0,1-4.1,3.943,26.957,26.957,0,0,1-5.33,2.568l-41.371,16.318c-10.884,4.293-21.806,8.6-33.159,11.428a2.584,2.584,0,0,1-3.477-1.261,85.715,85.715,0,0,1-9.068-16.587,1.118,1.118,0,0,1,.494-1.762l29.262-16.813a29.584,29.584,0,0,0,5.956-4.1,14.785,14.785,0,0,0,3.058-4.257c.607-1.267.663-4.257,1.438-5.193.759-.917,3.354-.99,4.552-1.351a41.314,41.314,0,0,0,4.956-1.873c6.546-2.928,12.375-7.183,18.65-10.612a47.849,47.849,0,0,1,11.192-4.633Z"
       transform="translate(296.558 58.984)"
       fill="#090814"
       id="path21" />
    <path
       d="M896.937,433.238c-5.027,3.776-11.537,7.247-16.519,11.122-1.7,1.323-30.049,17.26-30.449,19.377,4.649.783,34.26-19.932,38.5-22a68.423,68.423,0,0,0,11.714-7.876c.948-.737,4.968-2.954,2.245-3.778C900.89,429.62,898.07,432.483,896.937,433.238Z"
       transform="translate(294.862 57.904)"
       opacity="0.1"
       id="path22" />
    <path
       d="M858.277,297.693H814.147a6.76,6.76,0,0,0-6.76,6.76v2.476h-.479v5.536h.479v3.875h-.479v3.322h.479v40.85a6.76,6.76,0,0,0,6.76,6.76h44.131a6.76,6.76,0,0,0,6.76-6.76V304.453A6.76,6.76,0,0,0,858.277,297.693Z"
       transform="translate(298.93 70.406)"
       fill="#d0cde1"
       id="path23" />
    <path
       d="M707.12,145.678l-22.383-11.725-30.91,4.8-6.395,28.245,15.919-.613,4.447-10.376v10.206l7.346-.283,4.263-16.521,2.665,17.587,26.114-.533Z"
       transform="translate(457.102 170.204)"
       fill="#090814"
       id="path24" />
    <path
       d="M786.96,408.152a11.63,11.63,0,0,0,4.178,4.156,8.171,8.171,0,0,0,7.182-.192,12.642,12.642,0,0,0,5.183-5.2c2.433-4.3,2.936-9.436,2.633-14.363s-1.356-9.779-1.821-14.693c-.339-3.573-.366-7.166-.393-10.755a3.577,3.577,0,0,1,.452-2.175,4.271,4.271,0,0,1,2.4-1.2c4.909-1.459,8.168-6.06,10.5-10.618,1.56-3.043,2.917-6.37,2.616-9.777s-2.749-6.838-6.152-7.186c-2.8-.286-5.395,1.495-7.418,3.459a31.808,31.808,0,0,0-9.313,18.613c-.444,3.464-.317,7.022-1.259,10.384-2.012,7.18-8.305,11.582-11.442,18.042C780.853,393.771,782.761,401.853,786.96,408.152Z"
       transform="translate(301.234 66.776)"
       fill="#ed9da0"
       id="path25" />
    <path
       d="M886.648,378.488a13.569,13.569,0,0,1-7.609,7.312,10.509,10.509,0,0,1-6.615.405,7.335,7.335,0,0,1-4.846-4.334,11.679,11.679,0,0,1-.546-3.256c-.315-4.842-.193-9.831,1.565-14.353.678-1.744,1.593-3.4,2.128-5.191a26.04,26.04,0,0,0,.8-6.336l.578-13.211a8.6,8.6,0,0,0-.2-2.864c-.577-1.912-2.363-3.154-4-4.294-3.959-2.753-7.871-5.966-9.789-10.389a7.287,7.287,0,0,1-.676-4.3c.541-2.623,3.188-4.322,5.8-4.894a12.985,12.985,0,0,1,15.567,10.464c.259,1.491.255,3.014.407,4.519.321,3.194,1.335,6.272,1.97,9.419,1.562,7.751.753,15.762,2.3,23.512C884.779,367.171,889.65,371.4,886.648,378.488Z"
       transform="translate(294.164 69.01)"
       fill="#ed9da0"
       id="path26" />
    <circle
       cx="5.536"
       cy="5.536"
       r="5.536"
       transform="translate(1130.197 386.746)"
       fill="#191558"
       id="circle26" />
    <circle
       cx="16.331"
       cy="16.331"
       r="16.331"
       transform="translate(518.268 558.593)"
       fill="#090814"
       id="circle27" />
    <path
       d="M80.83,485.676l-8.226-8-16.518,5.131,1.586,19.126,33.963-1.577L81.2,486.182Z"
       transform="translate(512.968 137.732)"
       fill="#ed9da0"
       id="path27" />
    <circle
       cx="26.403"
       cy="26.403"
       r="26.403"
       transform="translate(549.404 570.437)"
       fill="#ed9da0"
       id="circle28" />
    <path
       d="M401.071,617.061s32.437,55.743,40.156,64.112a140.1,140.1,0,0,0,11.713,11.674s-3.63,12.038-9.41,11.608A27.2,27.2,0,0,1,434,702.1s-2.58-6.687-7.08-9.62-41.263-39.1-40.4-50.66S401.071,617.061,401.071,617.061Z"
       transform="translate(338.648 40.235)"
       fill="#090814"
       id="path28" />
    <path
       d="M275.023,701.175s34.585,26.844,81.587,1.62l4.051-2.981s-6.836,15.378-7.47,19.547c-.735,4.834-18.532,33.151-21.436,34.508s-3.544,2.608-3.544,2.608l12.325,13.565,4.557-3.354s17.768-25.174,22.965-29.779,29.957-52.1,29.957-52.1,9.467-17.894-14.159-19.24-34.5,5.094-34.5,5.094l-41.93,6.661Z"
       transform="translate(349.179 35.669)"
       fill="#090814"
       id="path29" />
    <path
       d="M457.717,697.842l17.493,12.1s22.317,6.992,8.57,11.645-49.974,6.336-50.8-.084,1.429-16.525,3.236-15.972S450.572,709.344,457.717,697.842Z"
       transform="translate(334.272 32.603)"
       fill="#2f2e41"
       id="path30" />
    <path
       d="M351.043,771.774l3.238,17.78s9.206,17.607-1.847,12.144-33.828-26.215-30.465-30.565,10.785-9.069,11.539-7.651S339.84,774.391,351.043,771.774Z"
       transform="translate(344.776 26.426)"
       fill="#2f2e41"
       id="path31" />
    <path
       d="M306.393,674.506s-23.51,27.448-37.783,20.781-72.668-83.9-66-98.169,8.9-11.235,8.9-11.235l30.151,2.788-8.675-13.909a5.868,5.868,0,0,1,7.91,1.2c3.86,4.184,19.356,14.635,24.754,29.395S286.9,619.383,286.9,619.383Z"
       transform="translate(356.07 44.328)"
       fill="#191558"
       id="path32" />
    <path
       d="M256.024,522.8l-40.753,43.26-36.507-64.456,34.706-41.932Z"
       transform="translate(501.378 139.433)"
       fill="#3f3d56"
       id="path33" />
    <path
       d="M253.368,522.708,216.56,560.723l-33.354-58.58,30.589-38.511Z"
       transform="translate(500.959 139.059)"
       fill="#fff"
       id="path34" />
    <path
       d="M210.948,575.336l2,1.653-1.28,2.5-56.986,16.961-.539-1.952,2.593-2.681Z"
       transform="translate(503.704 128.506)"
       fill="#b3b3b3"
       id="path35" />
    <path
       d="M209.73,570.064l-59.011,18.45-35.972-67.972,57.969-14.562Z"
       transform="translate(507.426 135.058)"
       fill="#d0cde1"
       id="path36" />
    <path
       d="M211.537,561.532l-2.532,1.863-28.1-48.788,2.9-1.357Z"
       transform="translate(501.176 134.371)"
       fill="#3f3d56"
       id="path37" />
    <path
       d="M202.757,564.514l-24.963,7.443-28.338-50.173,24.7-5.685Z"
       transform="translate(504.147 134.102)"
       fill="#3f3d56"
       id="path38" />
    <path
       d="M288.361,621.37l5.168-1.462s28.823-3.259,29.243,5.8-33.112,4.855-33.112,4.855l-4.471-6.076Z"
       transform="translate(348.219 40.02)"
       fill="#ed9da0"
       id="path39" />
    <path
       d="M315.938,664.355l7.194-2.952s21.715-9.736,15.485-16.079S313.176,650,313.176,650l-3.678,3.487Z"
       transform="translate(345.922 37.751)"
       fill="#ed9da0"
       id="path40" />
    <path
       d="M299.521,647.522s11.713,11.674,9.048,14.416-46.371,38.808-57.2,27.268-63.62-69.48-43.08-74.448,25.967,6.648,25.967,6.648l27.115,46.39Z"
       transform="translate(355.928 40.569)"
       fill="#191558"
       id="path41" />
    <path
       d="M112.615,518.781l19.241,6.524-.314,13.891L111.192,537Z"
       transform="translate(507.762 133.849)"
       fill="#191558"
       id="path42" />
    <path
       d="M127.28,563.353l-20.73,12.134L82.865,539.06l22.863,30.006Z"
       transform="translate(510.438 131.933)"
       opacity="0.2"
       id="path43" />
    <circle
       cx="31.432"
       cy="31.432"
       r="31.432"
       transform="translate(532.786 557.755)"
       fill="#090814"
       id="circle43" />
    <path
       d="M236,527.853l-22.009-32.2,9.33-11.549,22.869,33.124Z"
       transform="translate(498.05 137.124)"
       fill="#191558"
       id="path44" />
    <path
       d="M234.119,541.422l-33.506-48.711,1.653-2,33.35,48.826Z"
       transform="translate(499.314 136.5)"
       fill="#e6e6e6"
       id="path45" />
    <path
       d="M229.351,546.655l-33.506-48.711,1.653-2,33.35,48.827Z"
       transform="translate(499.764 136.006)"
       fill="#e6e6e6"
       id="path46" />
    <path
       d="M225.289,550.506l-33.506-48.711,1.653-2,33.35,48.827Z"
       transform="translate(500.148 135.642)"
       fill="#e6e6e6"
       id="path47" />
    <path
       d="M66.117,425.544H75.84A18.563,18.563,0,0,1,94.4,444.108H66.117Z"
       transform="translate(512.02 142.657)"
       fill="#090814"
       id="path48" />
    <g
       transform="translate(702.227 335.635)"
       id="g71">
      <path
         d="M371.039,505.612l-1.763-.131c-.068.917-.117,1.839-.175,2.758l-7.912-.265,8.3,15.553,9.321-14.963-7.941-.266C370.925,507.4,370.972,506.505,371.039,505.612Z"
         transform="translate(-361.189 -284.858)"
         fill="#3f3d56"
         id="path49" />
      <path
         d="M423.317,364.764l1.405,1.073c2.108-2.761,4.31-5.517,6.544-8.193l-1.357-1.133C427.658,359.206,425.44,361.983,423.317,364.764Z"
         transform="translate(-367.058 -270.785)"
         fill="#3f3d56"
         id="path50" />
      <path
         d="M438.272,346.931l1.305,1.192c2.345-2.569,4.781-5.119,7.237-7.583l-1.252-1.248C443.088,341.773,440.635,344.343,438.272,346.931Z"
         transform="translate(-368.471 -269.158)"
         fill="#3f3d56"
         id="path51" />
      <path
         d="M454.736,330.492l1.2,1.3c2.565-2.355,5.214-4.682,7.871-6.915l-1.137-1.354C459.988,325.776,457.32,328.12,454.736,330.492Z"
         transform="translate(-370.026 -267.669)"
         fill="#3f3d56"
         id="path52" />
      <path
         d="M409.991,383.86l1.494.944c1.858-2.94,3.809-5.88,5.8-8.741l-1.451-1.01C413.828,377.935,411.863,380.9,409.991,383.86Z"
         transform="translate(-365.799 -272.537)"
         fill="#3f3d56"
         id="path53" />
      <path
         d="M472.579,315.576l1.076,1.4c2.762-2.121,5.6-4.2,8.446-6.194l-1.013-1.449C478.224,311.34,475.361,313.439,472.579,315.576Z"
         transform="translate(-371.712 -266.328)"
         fill="#3f3d56"
         id="path54" />
      <path
         d="M398.406,404.073l1.572.808c1.593-3.1,3.277-6.2,5.005-9.223l-1.535-.878C401.707,397.826,400.01,400.952,398.406,404.073Z"
         transform="translate(-364.705 -274.4)"
         fill="#3f3d56"
         id="path55" />
      <path
         d="M379.145,459.951l-1.712-.441c-.874,3.392-1.682,6.851-2.4,10.282l1.73.364C377.476,466.752,378.278,463.318,379.145,459.951Z"
         transform="translate(-362.496 -280.515)"
         fill="#3f3d56"
         id="path56" />
      <path
         d="M491.665,302.3l.949,1.492c2.93-1.865,5.943-3.689,8.955-5.423l-.882-1.532C497.652,298.581,494.617,300.419,491.665,302.3Z"
         transform="translate(-373.515 -265.147)"
         fill="#3f3d56"
         id="path57" />
      <path
         d="M374.472,482.613l-1.745-.287c-.568,3.451-1.066,6.968-1.482,10.453l1.756.209C373.414,489.53,373.909,486.039,374.472,482.613Z"
         transform="translate(-362.139 -282.671)"
         fill="#3f3d56"
         id="path58" />
      <path
         d="M388.661,425.253l1.638.666c1.311-3.226,2.713-6.469,4.168-9.636l-1.606-.738C391.394,418.736,389.981,422,388.661,425.253Z"
         transform="translate(-363.784 -276.362)"
         fill="#3f3d56"
         id="path59" />
      <path
         d="M380.841,447.238l1.691.516c1.02-3.336,2.127-6.692,3.293-9.976l-1.666-.591C382.985,440.495,381.868,443.876,380.841,447.238Z"
         transform="translate(-363.045 -278.407)"
         fill="#3f3d56"
         id="path60" />
      <path
         d="M623.726,263.754c3.466-.12,6.995-.168,10.486-.135l.016-1.768c-3.515-.033-7.072.015-10.562.136Z"
         transform="translate(-385.986 -261.841)"
         fill="#3f3d56"
         id="path61" />
      <path
         d="M511.845,290.765l.813,1.569c3.087-1.6,6.248-3.15,9.394-4.607l-.743-1.6C518.139,287.592,514.955,289.154,511.845,290.765Z"
         transform="translate(-375.421 -264.135)"
         fill="#3f3d56"
         id="path62" />
      <path
         d="M669.93,266.205c3.449.488,6.929,1.06,10.345,1.7l.325-1.738c-3.441-.644-6.947-1.22-10.423-1.712Z"
         transform="translate(-390.356 -262.088)"
         fill="#3f3d56"
         id="path63" />
      <path
         d="M692.685,270.466c3.386.791,6.8,1.67,10.153,2.612l.478-1.7c-3.376-.949-6.818-1.834-10.229-2.631Z"
         transform="translate(-392.506 -262.493)"
         fill="#3f3d56"
         id="path64" />
      <path
         d="M714.969,276.735c3.3,1.089,6.625,2.268,9.88,3.505l.628-1.652c-3.28-1.247-6.628-2.435-9.954-3.532Z"
         transform="translate(-394.611 -263.09)"
         fill="#3f3d56"
         id="path65" />
      <path
         d="M646.886,263.975c3.481.183,7,.445,10.456.779l.171-1.759c-3.483-.337-7.028-.6-10.534-.785Z"
         transform="translate(-388.179 -261.876)"
         fill="#3f3d56"
         id="path66" />
      <path
         d="M600.423,263.719l.216,1.755c3.445-.424,6.953-.777,10.426-1.05l-.138-1.763C607.428,262.936,603.894,263.292,600.423,263.719Z"
         transform="translate(-383.79 -261.918)"
         fill="#3f3d56"
         id="path67" />
      <path
         d="M554.878,273.294l.523,1.688c3.322-1.029,6.713-2,10.077-2.876l-.447-1.71C561.641,271.282,558.225,272.257,554.878,273.294Z"
         transform="translate(-379.487 -262.649)"
         fill="#3f3d56"
         id="path68" />
      <path
         d="M532.961,281.074l.671,1.636c3.214-1.319,6.5-2.581,9.759-3.753l-.6-1.663C539.507,278.473,536.2,279.745,532.961,281.074Z"
         transform="translate(-377.416 -263.301)"
         fill="#3f3d56"
         id="path69" />
      <path
         d="M577.434,267.491l.37,1.729c3.4-.728,6.859-1.391,10.293-1.969l-.294-1.744C584.345,266.091,580.855,266.758,577.434,267.491Z"
         transform="translate(-381.618 -262.188)"
         fill="#3f3d56"
         id="path70" />
      <path
         d="M753.175,291.329l-9.88-14.6-3.474,7.151c-.841-.375-1.677-.759-2.517-1.123l-.7,1.623c.82.355,1.631.727,2.447,1.091l-3.457,7.117Z"
         transform="translate(-396.56 -263.248)"
         fill="#3f3d56"
         id="path71" />
    </g>
  </g>
</svg>
