<?xml version="1.0" encoding="utf-8"?>
<!-- Generator: Adobe Illustrator 27.2.0, SVG Export Plug-In . SVG Version: 6.00 Build 0)  -->
<svg version="1.1" id="Calque_1" xmlns="http://www.w3.org/2000/svg" xmlns:xlink="http://www.w3.org/1999/xlink" x="0px" y="0px"
	 viewBox="0 0 307.4 277" style="enable-background:new 0 0 307.4 277;" xml:space="preserve">
<style type="text/css">
	.st0{fill:#191558;}
	.st1{opacity:0.9;fill:#F0F0F8;enable-background:new    ;}
	.st2{fill:#F5F5F5;}
	.st3{opacity:0.8;fill:#FAFAFA;enable-background:new    ;}
	.st4{opacity:0.6;fill:#FAFAFA;enable-background:new    ;}
	.st5{opacity:0.3;enable-background:new    ;}
	.st6{opacity:0.1;fill:#FAFAFA;enable-background:new    ;}
	.st7{opacity:0.9;fill:#FAFAFA;enable-background:new    ;}
	.st8{opacity:0.6;}
	.st9{fill:#FAFAFA;}
	.st10{opacity:0.5;}
	.st11{opacity:0.4;}
	.st12{opacity:0.2;fill:#FAFAFA;enable-background:new    ;}
	.st13{opacity:0.1;}
	.st14{opacity:0.3;fill:#FAFAFA;enable-background:new    ;}
	.st15{opacity:0.3;fill:#FFFFFF;enable-background:new    ;}
	.st16{opacity:0.4;fill:#FFFFFF;enable-background:new    ;}
	.st17{fill:#E4897B;}
	.st18{opacity:0.1;enable-background:new    ;}
	.st19{fill:#263238;}
	.st20{fill:#DE5753;}
	.st21{fill:#CE6F64;}
	.st22{opacity:0.4;fill:#FAFAFA;enable-background:new    ;}
	.st23{opacity:0.4;enable-background:new    ;}
</style>
<g id="Search_engines-rafiki" transform="translate(-56.11 -78.11)">
	<g id="freepik--background-simple--inject-3" transform="translate(62.823 87.34)">
		<path id="Tracé_450" class="st0" d="M145.9,19.5C105.1,33.2,15.1-22.4,1.4,45c-11.2,55.3,45.3,110.9,118.9,129.8
			c52.2,13.4,123.1-9.6,135.2-74.7c7.6-40.7-23-87.1-47.1-96.4C178.3-7.9,172.5,10.5,145.9,19.5z"/>
		<path id="Tracé_451" class="st1" d="M145.9,19.5C105.1,33.2,15.1-22.4,1.4,45c-11.2,55.3,45.3,110.9,118.9,129.8
			c52.2,13.4,123.1-9.6,135.2-74.7c7.6-40.7-23-87.1-47.1-96.4C178.3-7.9,172.5,10.5,145.9,19.5z"/>
	</g>
	<g id="freepik--Shadow--inject-3" transform="translate(56.11 337.17)">
		<ellipse id="Ellipse_9" class="st2" cx="153.7" cy="9" rx="153.7" ry="9"/>
	</g>
	<g id="freepik--Graphics--inject-3" transform="translate(67.002 78.11)">
		<path id="Tracé_452" class="st0" d="M92.5,39.8L92.5,39.8c0-1.5-0.1-3-0.4-4.4C90,22.1,78.5,12.3,65.1,12.1h-0.2
			c-8.9,0-17.2,4.3-22.4,11.5c-0.4,0.6-0.8,1.2-1.2,1.8c0,0-0.1,0.1-0.1,0.1c-2.6,4.3-4,9.2-4,14.3v0.1c0,15.3,12.5,27.6,27.7,27.6
			c8.9,0,17.2-4.3,22.4-11.5c0.4-0.6,0.8-1.2,1.2-1.8c0,0,0.1-0.1,0.1-0.1C91.2,49.7,92.5,44.8,92.5,39.8z M38.4,39.1
			c0.1-4.5,1.4-9,3.7-12.8h8.6c-1.3,4.2-2,8.5-2.1,12.8H38.4z M51.9,26.3h12.3v12.8H49.8C49.9,34.8,50.6,30.4,51.9,26.3z M65.4,25.1
			V13.3c1.7,0.2,3.4,0.8,4.8,1.8c2.9,2,5.4,5.5,7.1,10.1H65.4z M77.8,26.3c1,3,1.6,6,1.9,9.2c0.1,1.2,0.2,2.5,0.2,3.7H65.4V26.3
			H77.8z M62.5,13.6c0.6-0.2,1.2-0.3,1.7-0.3v11.8H52.4C54.6,19.2,58.2,14.8,62.5,13.6L62.5,13.6z M64.3,40.4v12.8H51.9
			c-1-3-1.6-6.1-1.9-9.2c-0.1-1.2-0.2-2.5-0.2-3.7L64.3,40.4z M64.3,54.4v11.8c-1.7-0.2-3.4-0.8-4.8-1.8c-2.9-2-5.4-5.5-7.1-10.1
			L64.3,54.4z M67.2,65.9c-0.6,0.2-1.2,0.3-1.7,0.3V54.4h11.9C75.1,60.3,71.5,64.7,67.2,65.9L67.2,65.9z M65.4,53.2V40.3h14.4
			c0,4.4-0.7,8.7-2.1,12.8L65.4,53.2z M81,40.3h10.3c-0.1,4.5-1.4,8.9-3.7,12.8H79C80.3,49,81,44.7,81,40.3L81,40.3z M91.3,39.1H81
			c0-1.3-0.1-2.5-0.2-3.8c-0.3-3.1-0.9-6.1-1.8-9h8.6c1.7,2.8,2.8,6,3.3,9.2C91.2,36.7,91.3,37.9,91.3,39.1L91.3,39.1z M80.4,18.3
			c2.6,1.9,4.8,4.2,6.6,6.8h-8.4c-1.8-4.9-4.4-8.8-7.7-11l-0.3-0.2C74.1,14.7,77.4,16.2,80.4,18.3L80.4,18.3z M59.1,13.9
			c-3.3,2.2-6.1,6.2-7.9,11.2h-8.3l0.6-0.8C47.1,19,52.7,15.3,59.1,13.9L59.1,13.9z M38.4,40.3h10.3c0,1.3,0.1,2.5,0.2,3.8
			c0.3,3.1,0.9,6.1,1.8,9H42c-1.7-2.8-2.8-6-3.3-9.2C38.5,42.8,38.4,41.6,38.4,40.3L38.4,40.3z M42.8,54.4h8.3
			c1.8,4.9,4.4,8.8,7.7,11l0.3,0.2C52.5,64.1,46.6,60.1,42.8,54.4L42.8,54.4z M70.7,65.6c3.3-2.2,6.1-6.2,7.9-11.2h8.3
			c-0.2,0.3-0.4,0.6-0.6,0.8C82.6,60.5,77,64.2,70.7,65.6z"/>
		<path id="Tracé_453" class="st3" d="M92.5,39.8L92.5,39.8c0-1.5-0.1-3-0.4-4.4C90,22.1,78.5,12.3,65.1,12.1h-0.2
			c-8.9,0-17.2,4.3-22.4,11.5c-0.4,0.6-0.8,1.2-1.2,1.8c0,0-0.1,0.1-0.1,0.1c-2.6,4.3-4,9.2-4,14.3v0.1c0,15.3,12.5,27.6,27.7,27.6
			c8.9,0,17.2-4.3,22.4-11.5c0.4-0.6,0.8-1.2,1.2-1.8c0,0,0.1-0.1,0.1-0.1C91.2,49.7,92.5,44.8,92.5,39.8z M38.4,39.1
			c0.1-4.5,1.4-9,3.7-12.8h8.6c-1.3,4.2-2,8.5-2.1,12.8H38.4z M51.9,26.3h12.3v12.8H49.8C49.9,34.8,50.6,30.4,51.9,26.3z M65.4,25.1
			V13.3c1.7,0.2,3.4,0.8,4.8,1.8c2.9,2,5.4,5.5,7.1,10.1H65.4z M77.8,26.3c1,3,1.6,6,1.9,9.2c0.1,1.2,0.2,2.5,0.2,3.7H65.4V26.3
			H77.8z M62.5,13.6c0.6-0.2,1.2-0.3,1.7-0.3v11.8H52.4C54.6,19.2,58.2,14.8,62.5,13.6L62.5,13.6z M64.3,40.4v12.8H51.9
			c-1-3-1.6-6.1-1.9-9.2c-0.1-1.2-0.2-2.5-0.2-3.7L64.3,40.4z M64.3,54.4v11.8c-1.7-0.2-3.4-0.8-4.8-1.8c-2.9-2-5.4-5.5-7.1-10.1
			L64.3,54.4z M67.2,65.9c-0.6,0.2-1.2,0.3-1.7,0.3V54.4h11.9C75.1,60.3,71.5,64.7,67.2,65.9L67.2,65.9z M65.4,53.2V40.3h14.4
			c0,4.4-0.7,8.7-2.1,12.8L65.4,53.2z M81,40.3h10.3c-0.1,4.5-1.4,8.9-3.7,12.8H79C80.3,49,81,44.7,81,40.3L81,40.3z M91.3,39.1H81
			c0-1.3-0.1-2.5-0.2-3.8c-0.3-3.1-0.9-6.1-1.8-9h8.6c1.7,2.8,2.8,6,3.3,9.2C91.2,36.7,91.3,37.9,91.3,39.1L91.3,39.1z M80.4,18.3
			c2.6,1.9,4.8,4.2,6.6,6.8h-8.4c-1.8-4.9-4.4-8.8-7.7-11l-0.3-0.2C74.1,14.7,77.4,16.2,80.4,18.3L80.4,18.3z M59.1,13.9
			c-3.3,2.2-6.1,6.2-7.9,11.2h-8.3l0.6-0.8C47.1,19,52.7,15.3,59.1,13.9L59.1,13.9z M38.4,40.3h10.3c0,1.3,0.1,2.5,0.2,3.8
			c0.3,3.1,0.9,6.1,1.8,9H42c-1.7-2.8-2.8-6-3.3-9.2C38.5,42.8,38.4,41.6,38.4,40.3L38.4,40.3z M42.8,54.4h8.3
			c1.8,4.9,4.4,8.8,7.7,11l0.3,0.2C52.5,64.1,46.6,60.1,42.8,54.4L42.8,54.4z M70.7,65.6c3.3-2.2,6.1-6.2,7.9-11.2h8.3
			c-0.2,0.3-0.4,0.6-0.6,0.8C82.6,60.5,77,64.2,70.7,65.6z"/>
		<rect id="Rectangle_153" x="23.8" y="52.9" class="st0" width="249.2" height="60.4"/>
		<rect id="Rectangle_154" x="23.8" y="52.9" class="st4" width="249.2" height="60.4"/>
		<rect id="Rectangle_155" x="18.2" y="58.6" class="st0" width="249.2" height="60.4"/>
		<rect id="Rectangle_156" x="18.2" y="58.6" class="st5" width="249.2" height="60.4"/>
		<rect id="Rectangle_157" x="12.6" y="64.2" class="st0" width="249.2" height="60.4"/>
		<rect id="Rectangle_158" x="12.6" y="64.2" class="st6" width="249.2" height="60.4"/>
		<rect id="Rectangle_159" x="24.5" y="76.1" class="st0" width="225.4" height="36.6"/>
		<rect id="Rectangle_160" x="24.5" y="76.1" class="st7" width="225.4" height="36.6"/>
		<rect id="Rectangle_161" x="212" y="76.1" class="st0" width="1.3" height="36.6"/>
		<rect id="Rectangle_162" x="212" y="76.1" class="st4" width="1.3" height="36.6"/>
		<rect id="Rectangle_163" x="30.1" y="81.1" class="st0" width="1.3" height="26.5"/>
		<rect id="Rectangle_164" x="30.1" y="81.1" class="st4" width="1.3" height="26.5"/>
		<path id="Tracé_454" class="st0" d="M230.3,99c-3.2,0-5.8-2.6-5.8-5.9s2.6-5.8,5.9-5.8c1.5,0,3,0.6,4.1,1.7l0,0
			c2.3,2.3,2.3,6,0,8.3C233.4,98.4,231.9,99,230.3,99z M230.3,88.9c-2.4,0-4.3,1.9-4.3,4.3s1.9,4.3,4.3,4.3s4.3-1.9,4.3-4.3
			c0-1.1-0.5-2.2-1.3-3l0,0C232.6,89.3,231.5,88.9,230.3,88.9L230.3,88.9z"/>
		<path id="Tracé_455" class="st0" d="M237.9,101.5c-0.2,0-0.4-0.1-0.6-0.2l-4-4c-0.3-0.3-0.4-0.8-0.1-1.1c0.3-0.3,0.8-0.4,1.1-0.1
			c0,0,0.1,0.1,0.1,0.1l4,4c0.3,0.3,0.3,0.8,0,1.1C238.3,101.4,238.1,101.5,237.9,101.5L237.9,101.5z"/>
		<g id="Groupe_18" transform="translate(224.492 87.299)" class="st8">
			<path id="Tracé_456" class="st9" d="M5.8,11.7C2.6,11.7,0,9.1,0,5.8S2.6,0,5.9,0c1.5,0,3,0.6,4.1,1.7l0,0c2.3,2.3,2.3,6,0,8.3
				C8.9,11.1,7.4,11.7,5.8,11.7z M5.8,1.6c-2.4,0-4.3,1.9-4.3,4.3s1.9,4.3,4.3,4.3s4.3-1.9,4.3-4.3c0-1.1-0.5-2.2-1.3-3l0,0
				C8.1,2,7,1.6,5.8,1.6L5.8,1.6z"/>
			<path id="Tracé_457" class="st9" d="M13.4,14.2c-0.2,0-0.4-0.1-0.6-0.2l-4-4C8.5,9.7,8.5,9.2,8.8,8.8c0.3-0.3,0.8-0.4,1.1-0.1
				c0,0,0.1,0.1,0.1,0.1l4,4c0.3,0.3,0.3,0.8,0,1.1C13.8,14.1,13.6,14.2,13.4,14.2L13.4,14.2z"/>
		</g>
		<rect id="Rectangle_165" x="151.6" y="16.4" class="st0" width="24.9" height="0.6"/>
		<rect id="Rectangle_166" x="151.6" y="19.1" class="st0" width="24.9" height="0.6"/>
		<rect id="Rectangle_167" x="151.6" y="21.7" class="st0" width="24.9" height="0.6"/>
		<rect id="Rectangle_168" x="151.6" y="24.3" class="st0" width="24.9" height="0.6"/>
		<rect id="Rectangle_169" x="151.6" y="26.9" class="st0" width="24.9" height="0.6"/>
		<rect id="Rectangle_170" x="151.6" y="29.6" class="st0" width="16.2" height="0.6"/>
		<g id="Groupe_19" transform="translate(151.642 16.44)" class="st10">
			<rect id="Rectangle_171" x="0" y="0" class="st9" width="24.9" height="0.6"/>
			<rect id="Rectangle_172" x="0" y="2.6" class="st9" width="24.9" height="0.6"/>
			<rect id="Rectangle_173" x="0" y="5.3" class="st9" width="24.9" height="0.6"/>
			<rect id="Rectangle_174" x="0" y="7.9" class="st9" width="24.9" height="0.6"/>
			<rect id="Rectangle_175" x="0" y="10.5" class="st9" width="24.9" height="0.6"/>
			<rect id="Rectangle_176" x="0" y="13.1" class="st9" width="16.2" height="0.6"/>
		</g>
		<rect id="Rectangle_177" x="0" y="129.8" class="st0" width="26.6" height="0.4"/>
		<rect id="Rectangle_178" x="0" y="131.5" class="st0" width="26.6" height="0.4"/>
		<rect id="Rectangle_179" x="0" y="133.1" class="st0" width="26.6" height="0.4"/>
		<rect id="Rectangle_180" x="0" y="134.8" class="st0" width="26.6" height="0.4"/>
		<rect id="Rectangle_181" x="0" y="136.5" class="st0" width="26.6" height="0.4"/>
		<rect id="Rectangle_182" x="0" y="138.2" class="st0" width="16.7" height="0.4"/>
		<g id="Groupe_20" transform="translate(0 129.787)" class="st11">
			<rect id="Rectangle_183" x="0" y="0" class="st9" width="26.6" height="0.4"/>
			<rect id="Rectangle_184" x="0" y="1.7" class="st9" width="26.6" height="0.4"/>
			<rect id="Rectangle_185" x="0" y="3.4" class="st9" width="26.6" height="0.4"/>
			<rect id="Rectangle_186" x="0" y="5" class="st9" width="26.6" height="0.4"/>
			<rect id="Rectangle_187" x="0" y="6.7" class="st9" width="26.6" height="0.4"/>
			<rect id="Rectangle_188" x="0" y="8.4" class="st9" width="16.7" height="0.4"/>
		</g>
		<path id="Tracé_458" class="st0" d="M113.8,20.3L113.8,20.3c-2.8,0-5,2.2-5,5v16.5c0,2.8,2.2,5,5,5l0,0c2.8,0,5-2.2,5-5V25.3
			C118.8,22.6,116.6,20.3,113.8,20.3z"/>
		<path id="Tracé_459" class="st12" d="M113.8,20.3L113.8,20.3c-2.8,0-5,2.2-5,5v16.5c0,2.8,2.2,5,5,5l0,0c2.8,0,5-2.2,5-5V25.3
			C118.8,22.6,116.6,20.3,113.8,20.3z"/>
		<path id="Tracé_460" class="st0" d="M126.4,10.5L126.4,10.5c-2.8,0-5,2.3-5,5v26.4c0,2.8,2.2,5,5,5l0,0c2.8,0,5-2.2,5-5V15.5
			C131.4,12.7,129.2,10.5,126.4,10.5C126.4,10.5,126.4,10.5,126.4,10.5z"/>
		<path id="Tracé_461" class="st5" d="M126.4,10.5L126.4,10.5c-2.8,0-5,2.3-5,5v26.4c0,2.8,2.2,5,5,5l0,0c2.8,0,5-2.2,5-5V15.5
			C131.4,12.7,129.2,10.5,126.4,10.5C126.4,10.5,126.4,10.5,126.4,10.5z"/>
		<path id="Tracé_462" class="st0" d="M138.9,30.2L138.9,30.2c-2.8,0-5,2.2-5,5v6.7c0,2.8,2.2,5,5,5l0,0c2.8,0,5-2.2,5-5
			c0,0,0,0,0,0v-6.7C144,32.4,141.7,30.2,138.9,30.2C138.9,30.2,138.9,30.2,138.9,30.2z"/>
		<path id="Tracé_463" class="st4" d="M138.9,30.2L138.9,30.2c-2.8,0-5,2.2-5,5v6.7c0,2.8,2.2,5,5,5l0,0c2.8,0,5-2.2,5-5
			c0,0,0,0,0,0v-6.7C144,32.4,141.7,30.2,138.9,30.2C138.9,30.2,138.9,30.2,138.9,30.2z"/>
		<path id="Tracé_464" class="st0" d="M244.8,143.5H265l-34.6-35.9l0,0L244.8,143.5"/>
		<g id="Groupe_21" transform="translate(230.428 107.632)" class="st13">
			<path id="Tracé_465" d="M14.3,35.9h20.3L0,0l0,0L14.3,35.9"/>
		</g>
		<path id="Tracé_466" class="st0" d="M225.3,124.6l5.1-16.9l2.9,16.9L225.3,124.6z"/>
		<path id="Tracé_467" class="st0" d="M230.4,107.6v50.2l3.6-3.6l10.7-10.7L230.4,107.6z"/>
		<path id="Tracé_468" class="st14" d="M230.4,107.6v50.2l3.6-3.6l10.7-10.7L230.4,107.6z"/>
		<path id="Tracé_469" class="st0" d="M266.2,0h-44.4c-4.7,0-8.5,3.8-8.5,8.5v22.9c0,4.7,3.8,8.5,8.5,8.5h32.6l-0.2,8l8.2-8h3.8
			c4.7,0,8.5-3.8,8.5-8.5V8.5C274.7,3.8,270.9,0,266.2,0L266.2,0z M220.9,9.8c0-1.3,1.1-2.4,2.4-2.4h10.2c1.3,0,2.4,1.1,2.4,2.4
			s-1.1,2.4-2.4,2.4c0,0,0,0,0,0h-10.2C221.9,12.1,220.9,11.1,220.9,9.8L220.9,9.8z M263.7,32h-17.7c-1.3,0.2-2.5-0.6-2.8-1.9
			c-0.2-1.3,0.6-2.5,1.9-2.8c0.3,0,0.5,0,0.8,0h17.7c1.3-0.2,2.5,0.6,2.8,1.9c0.2,1.3-0.6,2.5-1.9,2.8C264.3,32,264,32,263.7,32
			L263.7,32z M263.7,22h-38.1c-1.3,0.2-2.5-0.6-2.8-1.9c-0.2-1.3,0.6-2.5,1.9-2.8c0.3,0,0.5,0,0.8,0h38.1c1.3-0.2,2.5,0.6,2.8,1.9
			c0.2,1.3-0.6,2.5-1.9,2.8C264.3,22.1,264,22.1,263.7,22L263.7,22z M263.7,12.1h-22.6c-1.3,0-2.4-1.1-2.4-2.4
			c0-1.3,1.1-2.4,2.4-2.4h22.6c1.3,0,2.4,1.1,2.4,2.4S265,12.1,263.7,12.1C263.7,12.1,263.7,12.1,263.7,12.1L263.7,12.1z"/>
	</g>
	<g id="freepik--Character--inject-3" transform="translate(100.66 116.162)">
		<path id="Tracé_477" class="st0" d="M165.7,24.6C152.1,1.1,122-7,98.5,6.6s-31.6,43.6-18,67.1c13.6,23.5,43.6,31.6,67.1,18
			c0,0,0,0,0.1,0C171.2,78.1,179.2,48.1,165.7,24.6z"/>
		<path id="Tracé_470" class="st0" d="M163.2,34.6c-1.9-5.2-4.8-10-8.5-14.1h-63c-3.7,4.1-6.6,8.9-8.5,14.1L91.8,78
			c15.9,17.3,42.9,18.4,60.2,2.4C164.6,68.8,169,50.7,163.2,34.6L163.2,34.6z"/>
		<path id="Tracé_471" class="st6" d="M163.2,34.6c-1.9-5.2-4.8-10-8.5-14.1h-63c-3.7,4.1-6.6,8.9-8.5,14.1L91.8,78
			c15.9,17.3,42.9,18.4,60.2,2.4C164.6,68.8,169,50.7,163.2,34.6L163.2,34.6z"/>
		<path id="Tracé_472" class="st0" d="M165.7,51.1c-0.4,10-4.4,19.5-11.2,26.9H91.8C81,66.3,77.7,49.6,83.1,34.6h80.1
			C165.1,39.9,165.9,45.5,165.7,51.1L165.7,51.1z"/>
		<path id="Tracé_473" class="st7" d="M165.7,51.1c-0.4,10-4.4,19.5-11.2,26.9H91.8C81,66.3,77.7,49.6,83.1,34.6h80.1
			C165.1,39.9,165.9,45.5,165.7,51.1L165.7,51.1z"/>
		<path id="Tracé_474" class="st15" d="M165.7,51.1c-1.1,23.4-21,41.6-44.4,40.5c-23.4-1.1-41.6-21-40.5-44.4
			c1.1-23.4,21-41.6,44.4-40.5c17.1,0.8,32.1,11.8,38,27.9C165.1,39.9,165.9,45.5,165.7,51.1z"/>
		<path id="Tracé_475" class="st16" d="M147.1,14L85.9,69.8c-0.3-0.6-0.6-1.1-0.9-1.7c-1.9-3.7-3.2-7.8-3.9-11.9l0,0L134,8
			C138.7,9.2,143.1,11.3,147.1,14L147.1,14z"/>
		<path id="Tracé_476" class="st16" d="M163.5,35.6L106,88.1c-6-2.6-11.3-6.6-15.4-11.6l62.9-57.3C158,23.8,161.4,29.5,163.5,35.6z
			"/>
		<path id="Tracé_479" class="st17" d="M10.1,99.7l6.1,1.4l-5,3.8c0,0-3.6-1.6-3.8-4.2L10.1,99.7z"/>
		<path id="Tracé_480" class="st17" d="M19.4,105.2l-4.4,2.9l-3.9-3.2l5-3.7L19.4,105.2z"/>
		<path id="Tracé_481" class="st0" d="M88.1,75c-6.5,4.8-13.1,9.3-19.7,13.7S55,97.5,48.2,101.7s-13.6,8.4-20.5,12.4
			c-3.4,2-6.9,4-10.3,6c-1.7,1.1-3.6,1.9-5.5,2.4c-1,0.3-2.1,0.5-3.2,0.5c-1.2,0.1-2.4,0-3.6-0.2c-3.5-0.7-5.8-4.1-5.1-7.6
			c0,0,0,0,0,0c0.1-0.3,0.1-0.5,0.2-0.8c0.4-1.1,0.9-2.2,1.6-3.2c0.6-0.9,1.3-1.7,2-2.5c1.4-1.4,3.1-2.6,4.9-3.6
			c3.5-2,6.9-4,10.4-5.9c6.9-3.9,14-7.7,21-11.5s14.1-7.4,21.3-11s14.3-7,21.7-10.2c2.5-1.1,5.4,0,6.5,2.5
			C90.6,71.2,90,73.7,88.1,75L88.1,75z"/>
		<path id="Tracé_482" class="st18" d="M88.1,75c-6.5,4.8-13.1,9.3-19.7,13.7S55,97.5,48.2,101.7s-13.6,8.4-20.5,12.4
			c-3.4,2-6.9,4-10.3,6c-1.7,1.1-3.6,1.9-5.5,2.4c-1,0.3-2.1,0.5-3.2,0.5c-1.2,0.1-2.4,0-3.6-0.2c-3.5-0.7-5.8-4.1-5.1-7.6
			c0,0,0,0,0,0c0.1-0.3,0.1-0.5,0.2-0.8c0.4-1.1,0.9-2.2,1.6-3.2c0.6-0.9,1.3-1.7,2-2.5c1.4-1.4,3.1-2.6,4.9-3.6
			c3.5-2,6.9-4,10.4-5.9c6.9-3.9,14-7.7,21-11.5s14.1-7.4,21.3-11s14.3-7,21.7-10.2c2.5-1.1,5.4,0,6.5,2.5
			C90.6,71.2,90,73.7,88.1,75L88.1,75z"/>
		<path id="Tracé_483" class="st17" d="M18.9,62.2c-0.4,0.6-0.8,1.4-1.3,2.1s-0.8,1.5-1.2,2.3c-0.8,1.5-1.6,3.1-2.4,4.6
			c-0.8,1.6-1.4,3.2-2.1,4.8c-0.3,0.8-0.7,1.6-0.9,2.4l-0.4,1.2c-0.1,0.2-0.1,0.3-0.2,0.5s-0.1,0.3-0.1,0.5
			c-0.3,1.6-0.5,3.2-0.5,4.8c0,1.7,0,3.4,0.1,5.2s0.2,3.5,0.3,5.3s0.3,3.6,0.5,5.3l-3.1,0.6c-0.5-1.8-1-3.5-1.4-5.3s-0.7-3.6-1-5.4
			s-0.5-3.7-0.7-5.5c-0.2-2-0.1-4,0.2-6c0-0.3,0.1-0.5,0.2-0.8C5,78.4,5,78,5.1,77.8l0.4-1.3c0.3-0.9,0.5-1.8,0.8-2.7
			c0.6-1.8,1.3-3.5,2-5.2s1.5-3.4,2.4-5c0.4-0.8,0.9-1.6,1.4-2.5s0.9-1.6,1.5-2.4L18.9,62.2z"/>
		<path id="Tracé_484" class="st0" d="M15.5,225.8c-0.5,0-1.1-0.1-1.6-0.2c-0.1,0-0.1-0.1-0.1-0.1c0-0.1,0-0.1,0.1-0.2
			c0.2-0.1,2.1-1.3,2.8-1c0.2,0.1,0.3,0.2,0.3,0.4c0.1,0.3,0,0.6-0.2,0.8C16.4,225.8,15.9,225.9,15.5,225.8L15.5,225.8z M14.3,225.4
			c0.7,0.3,1.5,0.2,2.2-0.1c0.1-0.1,0.2-0.3,0.2-0.5c0-0.1-0.1-0.2-0.1-0.2C16.2,224.4,15.1,224.9,14.3,225.4z"/>
		<path id="Tracé_485" class="st0" d="M13.9,225.6C13.9,225.6,13.9,225.6,13.9,225.6c-0.1,0-0.1-0.1-0.1-0.1c0-0.1,0-1.8,0.7-2.4
			c0.2-0.2,0.4-0.2,0.6-0.2c0.2,0,0.4,0.2,0.5,0.4C15.7,223.9,14.6,225.3,13.9,225.6C14,225.6,13.9,225.6,13.9,225.6L13.9,225.6z
			 M15,223.1c-0.1,0-0.2,0-0.3,0.1c-0.4,0.6-0.6,1.3-0.6,2c0.6-0.5,1.3-1.5,1.2-1.9C15.3,223.2,15.2,223.1,15,223.1L15,223.1z"/>
		<path id="Tracé_486" class="st0" d="M43.6,225.8c-0.7,0-1.3-0.1-1.9-0.2c-0.1,0-0.1-0.1-0.1-0.1c0-0.1,0-0.1,0.1-0.2
			c0.3-0.1,2.7-1.4,3.5-1c0.1,0.1,0.2,0.2,0.3,0.4c0,0.3-0.1,0.5-0.3,0.7C44.6,225.7,44.1,225.9,43.6,225.8z M42.1,225.4
			c1.4,0.2,2.4,0.2,2.8-0.2c0.1-0.1,0.2-0.3,0.2-0.5c0-0.1,0-0.1-0.1-0.2C44.6,224.4,43.1,224.9,42.1,225.4L42.1,225.4z"/>
		<path id="Tracé_487" class="st0" d="M41.7,225.6C41.7,225.6,41.6,225.6,41.7,225.6c-0.1,0-0.2-0.1-0.1-0.1c0-0.9,0.4-1.7,0.9-2.4
			c0.2-0.2,0.5-0.3,0.8-0.3c0.4,0,0.5,0.2,0.5,0.4C43.9,224,42.5,225.3,41.7,225.6L41.7,225.6z M43.2,223.1c-0.2,0-0.4,0.1-0.5,0.2
			c-0.5,0.5-0.7,1.2-0.8,1.9c0.7-0.5,1.7-1.5,1.7-1.9C43.5,223.3,43.5,223.1,43.2,223.1L43.2,223.1z"/>
		<path id="Tracé_488" class="st17" d="M28.3,38.3c0.5,3.7,1.6,11.2-1.1,13.5c0,0,0.8,3.8,7.5,4.2c7.5,0.5,3.8-3.5,3.8-3.5
			c-4-1.2-3.7-4.3-2.8-7L28.3,38.3z"/>
		<path id="Tracé_489" class="st19" d="M42.1,30.8c0,0-0.1,0-0.1,0c-0.1-0.1-0.2-0.2-0.1-0.4c0,0,0,0,0,0c0.4-0.9,1.2-1.4,2.2-1.6
			c0.2,0,0.3,0.1,0.3,0.3c0,0.1-0.1,0.2-0.2,0.3l0,0c-0.7,0.1-1.4,0.6-1.7,1.3C42.4,30.7,42.3,30.8,42.1,30.8z"/>
		<path id="Tracé_490" class="st20" d="M44.3,34.1c0.5,1.1,1.2,2.1,2.1,3c-0.5,0.4-1.1,0.6-1.7,0.5L44.3,34.1z"/>
		<path id="Tracé_491" class="st19" d="M43.7,33.3c0,0.5,0.3,0.9,0.7,0.8s0.6-0.5,0.5-1s-0.3-0.9-0.7-0.8S43.7,32.8,43.7,33.3z"/>
		<path id="Tracé_492" class="st19" d="M44.1,32.4l1.2-0.5C45.3,31.9,44.7,32.9,44.1,32.4z"/>
		<path id="Tracé_493" class="st17" d="M34.9,225.5h6.2l0.4-14.3h-6.2L34.9,225.5z"/>
		<path id="Tracé_494" class="st17" d="M6.9,225.5H13l2-14.3H8.8L6.9,225.5z"/>
		<path id="Tracé_495" class="st19" d="M13.4,224.7H6.5c-0.2,0-0.5,0.2-0.5,0.4l-0.8,5.5c-0.1,0.5,0.3,1,0.9,1.1c0,0,0.1,0,0.1,0
			c2.4,0,3.6-0.2,6.6-0.2c1.9,0,4.6,0.2,7.2,0.2s2.7-2.6,1.6-2.8c-4.8-1-5.6-2.5-7.2-3.8C14.2,224.9,13.8,224.7,13.4,224.7z"/>
		<path id="Tracé_496" class="st19" d="M41.3,224.7h-6.9c-0.2,0-0.5,0.2-0.5,0.4l-0.8,5.5c-0.1,0.5,0.3,1,0.9,1.1c0,0,0.1,0,0.1,0
			c2.4,0,3.6-0.2,6.6-0.2c1.9,0,5.8,0.2,8.3,0.2s2.7-2.6,1.6-2.8c-4.8-1-6.7-2.5-8.4-3.8C42,224.9,41.7,224.7,41.3,224.7z"/>
		<path id="Tracé_497" class="st21" d="M41.5,211.2l-0.2,7.4h-6.2l0.2-7.4H41.5z"/>
		<path id="Tracé_498" class="st21" d="M8.8,211.2H15l-1,7.4H7.8L8.8,211.2z"/>
		<path id="Tracé_499" class="st0" d="M21.5,63.1c-1.2,1.8-2.5,3.5-4.1,5.1l-0.7-0.5L9,62.5c0,0,4.3-9.5,7.5-10
			c3.1-0.5,5.3,2.7,6.3,6.1C23.2,59.8,22.5,61.5,21.5,63.1z"/>
		<path id="Tracé_500" class="st4" d="M21.5,63.1c-1.2,1.8-2.5,3.5-4.1,5.1l-0.7-0.5L9,62.5c0,0,4.3-9.5,7.5-10
			c3.1-0.5,5.3,2.7,6.3,6.1C23.2,59.8,22.5,61.5,21.5,63.1z"/>
		<path id="Tracé_501" class="st0" d="M21.5,63.1c-1.2,1.8-2.5,3.5-4.1,5.1l-0.7-0.5c0.3-2.9,1.5-5.7,2.7-6.6
			C20.3,61.2,21,62,21.5,63.1z"/>
		<path id="Tracé_502" class="st22" d="M21.5,63.1c-1.2,1.8-2.5,3.5-4.1,5.1l-0.7-0.5c0.3-2.9,1.5-5.7,2.7-6.6
			C20.3,61.2,21,62,21.5,63.1z"/>
		<path id="Tracé_503" class="st0" d="M48.3,67.9L48.3,67.9c-0.4,2.4-0.9,5.2-1.5,8.5c-0.8,4.2-1.9,9.3-3.3,15.4l-25-1.6
			c1.1-10.2,1.5-16.4-2-37.6c3.6-0.5,7.1-0.7,10.7-0.7c3.8,0,7.6,0.2,11.4,0.7c4.9,0.8,10.3,2.3,10.3,2.3S50.2,55.4,48.3,67.9z"/>
		<path id="Tracé_504" class="st4" d="M48.3,67.9L48.3,67.9c-0.4,2.4-0.9,5.2-1.5,8.5c-0.8,4.2-1.9,9.3-3.3,15.4l-25-1.6
			c1.1-10.2,1.5-16.4-2-37.6c3.6-0.5,7.1-0.7,10.7-0.7c3.8,0,7.6,0.2,11.4,0.7c4.9,0.8,10.3,2.3,10.3,2.3S50.2,55.4,48.3,67.9z"/>
		<path id="Tracé_505" class="st0" d="M48.3,67.9L48.3,67.9c-0.4,2.4-0.9,5.2-1.5,8.5c-1.4-2.9-2.5-6-3.4-9.1H48L48.3,67.9z"/>
		<path id="Tracé_506" class="st22" d="M48.3,67.9L48.3,67.9c-0.4,2.4-0.9,5.2-1.5,8.5c-1.4-2.9-2.5-6-3.4-9.1H48L48.3,67.9z"/>
		<path id="Tracé_507" class="st17" d="M26.9,33.1c0.9,6,1.2,8.6,4.6,11.5c5.1,4.3,12.3,1.8,13.2-4.4c0.8-5.6-0.9-14.5-7.1-16.4
			c-4.4-1.4-9.1,1.1-10.4,5.5C26.8,30.5,26.7,31.9,26.9,33.1L26.9,33.1z"/>
		<path id="Tracé_508" class="st0" d="M36.9,91.4c0,0-0.4,11-1.3,24.9c-0.8,11.7-2,25.3-3.7,36.2l0,0.3
			c-3,19.3-16.3,64.3-16.3,64.3H7.1c0,0,6.9-43.5,8.5-62.6c3.9-48.3-5.8-53.7,2.9-64.4L36.9,91.4z"/>
		<path id="Tracé_509" class="st5" d="M36.9,91.4c0,0-0.4,11-1.3,24.9c-0.8,11.7-2,25.3-3.7,36.2l0,0.3
			c-3,19.3-16.3,64.3-16.3,64.3H7.1c0,0,6.9-43.5,8.5-62.6c3.9-48.3-5.8-53.7,2.9-64.4L36.9,91.4z"/>
		<path id="Tracé_510" class="st0" d="M35.5,116.3c-0.8,11.7-2,25.3-3.7,36.2c-2.8-14.1-7.5-34.8-1.2-48.4
			C32.1,108,33.8,112.3,35.5,116.3z"/>
		<path id="Tracé_511" class="st23" d="M35.5,116.3c-0.8,11.7-2,25.3-3.7,36.2c-2.8-14.1-7.5-34.8-1.2-48.4
			C32.1,108,33.8,112.3,35.5,116.3z"/>
		<path id="Tracé_512" class="st0" d="M43.5,91.8c0,0,7.1,42.3,6.7,61.1c-0.4,19.6-7.6,64.2-7.6,64.2h-8.3c0,0,1.3-43.5,0.6-62.7
			c-0.8-21-9.7-63.8-9.7-63.8L43.5,91.8z"/>
		<path id="Tracé_513" class="st5" d="M43.5,91.8c0,0,7.1,42.3,6.7,61.1c-0.4,19.6-7.6,64.2-7.6,64.2h-8.3c0,0,1.3-43.5,0.6-62.7
			c-0.8-21-9.7-63.8-9.7-63.8L43.5,91.8z"/>
		<path id="Tracé_514" class="st19" d="M32.8,217.5H44l0.9-3.7l-12.5,0.1L32.8,217.5z"/>
		<path id="Tracé_515" class="st19" d="M5.8,217.5H17l0.9-3.7l-12,0.1L5.8,217.5z"/>
		<path id="Tracé_516" class="st19" d="M18.2,88.7l-1.3,2.2c-0.1,0.2,0.1,0.4,0.4,0.4l26.2,1.7c0.2,0,0.4-0.1,0.4-0.2l0.4-2.2
			c0-0.2-0.2-0.3-0.4-0.3l-25.4-1.6C18.4,88.5,18.3,88.6,18.2,88.7z"/>
		<path id="Tracé_517" class="st0" d="M21.4,91.7l-0.7,0c-0.1,0-0.2-0.1-0.2-0.2l0.5-2.9c0-0.1,0.1-0.1,0.3-0.1l0.7,0
			c0.1,0,0.2,0.1,0.2,0.2l-0.5,2.9C21.6,91.7,21.5,91.7,21.4,91.7z"/>
		<path id="Tracé_518" class="st5" d="M21.4,91.7l-0.7,0c-0.1,0-0.2-0.1-0.2-0.2l0.5-2.9c0-0.1,0.1-0.1,0.3-0.1l0.7,0
			c0.1,0,0.2,0.1,0.2,0.2l-0.5,2.9C21.6,91.7,21.5,91.7,21.4,91.7z"/>
		<path id="Tracé_519" class="st0" d="M37.8,92.8l-0.7,0c-0.1,0-0.2-0.1-0.2-0.2l0.5-2.9c0-0.1,0.1-0.1,0.3-0.1l0.7,0
			c0.1,0,0.2,0.1,0.2,0.2l-0.5,2.9C38.1,92.7,38,92.8,37.8,92.8z"/>
		<path id="Tracé_520" class="st5" d="M37.8,92.8l-0.7,0c-0.1,0-0.2-0.1-0.2-0.2l0.5-2.9c0-0.1,0.1-0.1,0.3-0.1l0.7,0
			c0.1,0,0.2,0.1,0.2,0.2l-0.5,2.9C38.1,92.7,38,92.8,37.8,92.8z"/>
		<path id="Tracé_521" class="st17" d="M50.2,61.2c1,3.2,1.9,6.4,2.7,9.6l2.7,9.6l0.3,1.2l0.1,0.3l0,0.2v0.1c0,0.1,0.1,0.2,0.1,0.3
			c0.2,0.5,0.5,0.9,0.8,1.3c0.9,1,2,1.8,3.2,2.5c2.8,1.5,5.7,2.7,8.7,3.5l-0.5,3.1c-3.6-0.2-7.1-0.9-10.4-2.2
			c-1.8-0.7-3.5-1.8-5-3.1c-0.8-0.8-1.5-1.7-2.1-2.7c-0.1-0.3-0.3-0.6-0.4-0.8l-0.1-0.2l-0.1-0.2l-0.1-0.3L50,82.1
			c-1.1-3.2-2.1-6.3-3.1-9.6s-1.9-6.4-2.8-9.6L50.2,61.2z"/>
		<path id="Tracé_522" class="st0" d="M48.8,54.8c3.2,1,6.5,11.4,6.5,11.4l-11.4,4.9c0,0-4.8-11.6-2.6-14.3S45.2,53.6,48.8,54.8z"
			/>
		<path id="Tracé_523" class="st4" d="M48.8,54.8c3.2,1,6.5,11.4,6.5,11.4l-11.4,4.9c0,0-4.8-11.6-2.6-14.3S45.2,53.6,48.8,54.8z"
			/>
		<path id="Tracé_524" class="st19" d="M42.7,23.4c-2-2.5-17.6-4.3-18.5,2.5c-5.5,3.9-0.3,13.9,0.5,16.5
			c-3.8,1.1-16.2,5.3-7.1,13.5s22.6,6.8,25.2-1.7c1.9-5.9-4-15.9-3.9-19.3S46.2,27.7,42.7,23.4z"/>
		<path id="Tracé_525" class="st19" d="M25.8,43.7c-0.1,0-0.1,0-0.2-0.1c-1.4-1.7-6.4-10.9-4.7-15.3c0.6-1.4,1.9-2.3,3.4-2.4
			c0.1,0,0.2,0.1,0.2,0.2c0,0,0,0,0,0c0,0.1-0.1,0.2-0.2,0.2c-1.3,0-2.5,0.9-3,2.1c-1.7,4.2,3.2,13.2,4.6,14.9
			c0.1,0.1,0.1,0.2,0,0.3C25.9,43.6,25.9,43.6,25.8,43.7L25.8,43.7z"/>
		<path id="Tracé_526" class="st17" d="M37.7,34.5c0.2,1.2,0.7,2.2,1.6,3c1.1,1.1,2.2,0.3,2.3-1c0.1-1.2-0.4-3.3-1.7-3.8
			S37.5,33.1,37.7,34.5z"/>
		<path id="Tracé_527" class="st17" d="M65.1,88.9l4.5-1.5l-0.7,5.4c0,0-1.8,0.8-4.1-1.2l-2.2-1.4l1.7-0.9
			C64.6,89.1,64.8,89,65.1,88.9z"/>
		<path id="Tracé_528" class="st17" d="M72.7,87.3l-1.4,4.7l-2.5,0.7l0.7-5.4L72.7,87.3z"/>
	</g>
</g>
</svg>
