<?xml version="1.0" encoding="UTF-8"?>
<svg id="Calque_1" data-name="Calque 1" xmlns="http://www.w3.org/2000/svg" viewBox="0 0 387.78 357.42">
  <defs>
    <style>
      .cls-1 {
        fill: #f5f5f5;
      }

      .cls-2, .cls-3, .cls-4, .cls-5, .cls-6 {
        fill: #fff;
      }

      .cls-7 {
        fill: #ff8b7b;
      }

      .cls-8 {
        fill: #191558;
      }

      .cls-9, .cls-10, .cls-11 {
        fill: #263238;
      }

      .cls-3, .cls-10, .cls-4, .cls-5, .cls-6, .cls-11, .cls-12 {
        isolation: isolate;
      }

      .cls-3, .cls-10, .cls-12 {
        opacity: .2;
      }

      .cls-4 {
        opacity: .9;
      }

      .cls-5 {
        opacity: .5;
      }

      .cls-6, .cls-11 {
        opacity: .4;
      }
    </style>
  </defs>
  <g id="freepik--background-simple--inject-81">
    <path class="cls-8" d="m210.54,264.07c87.13-15.73,184.62-60,170.67-160.9C368.56,11.68,264.89-31.94,186.4,26.63c-33.84,25.26-38.72,67.9-77.37,88.45S13.28,138.99,15.15,197.27c2.89,90.25,138.06,77.14,195.39,66.8Z"/>
    <path class="cls-4" d="m210.54,264.07c87.13-15.73,184.62-60,170.67-160.9C368.56,11.68,264.89-31.94,186.4,26.63c-33.84,25.26-38.72,67.9-77.37,88.45S13.28,138.99,15.15,197.27c2.89,90.25,138.06,77.14,195.39,66.8Z"/>
  </g>
  <g id="freepik--Shadow--inject-81">
    <ellipse id="freepik--path--inject-81" class="cls-1" cx="193.89" cy="346.1" rx="193.89" ry="11.32"/>
  </g>
  <g id="freepik--Character--inject-81">
    <polygon class="cls-7" points="190.26 336.82 199.11 336.9 203.83 316.39 194.97 316.31 190.26 336.82"/>
    <path class="cls-9" d="m199.33,335.86l-9.68-.08c-.37,0-.7.24-.8.6l-2.34,7.85c-.22.63.12,1.31.74,1.53.13.05.27.07.42.06,3.5,0,8.56-.19,13-.15,5.13.05,6.19.36,12.21.42,3.63,0,4.92-3.64,3.42-4-6.82-1.58-9.12-1.79-14.83-5.54-.63-.44-1.37-.68-2.14-.69Z"/>
    <polygon class="cls-12" points="203.82 316.4 201.4 326.97 192.54 326.89 194.96 316.32 203.82 316.4"/>
    <path class="cls-8" d="m202.99,337.45c-.95-.02-1.9-.13-2.83-.34-.09-.02-.16-.09-.17-.18,0-.09.04-.17.12-.21.42-.21,4.14-2,5.16-1.36.19.12.31.33.3.56,0,.39-.17.76-.47,1-.63.4-1.37.58-2.11.53Zm-2.1-.59c1.92.34,3.38.27,4-.21.21-.16.33-.42.32-.69,0-.08-.03-.16-.1-.2-.61-.38-2.71.37-4.22,1.1Z"/>
    <path class="cls-8" d="m200.2,337.12s-.09-.02-.13-.05c-.06-.05-.09-.12-.08-.2,0-.16.7-4,2.81-3.74.56.07.71.35.75.57.14,1-2.13,2.92-3.27,3.4l-.08.02Zm2.42-3.58c-1.27,0-1.91,2.07-2.13,3,1.17-.66,2.73-2.16,2.64-2.76,0,0,0-.17-.38-.21l-.13-.03Z"/>
    <path class="cls-7" d="m243.89,94.49c.13,5.39.32,11,.58,16.46.12,2.74.27,5.48.46,8.2s.41,5.43.71,8.1c.13,1.33.29,2.67.48,4l.13,1c0,.12,0,0,0,.06h0v.29c.36.63.85,1.16,1.45,1.57.87.66,1.79,1.23,2.76,1.73,4.23,2.2,9.6,3.81,14.7,5.25l-.54,6.77c-3,.18-6.01.11-9-.2-1.51-.14-3-.36-4.54-.65-1.57-.29-3.11-.68-4.63-1.17-1.66-.5-3.27-1.17-4.79-2-1.86-1-3.53-2.32-4.92-3.92-.84-1.01-1.51-2.15-2-3.37-.14-.32-.25-.67-.36-1l-.14-.52-.12-.45-.23-1.1c-.34-1.46-.63-2.92-.89-4.37-1.05-5.81-1.69-11.55-2.16-17.3-.2-2.87-.41-5.74-.49-8.61s-.19-5.71-.14-8.68l13.68-.09Z"/>
    <path class="cls-8" d="m227,95.17c-1.26,10.05,1.06,24.89,1.06,24.89,0,0,7,1,12.45-.44s6.6-2.51,6.6-2.51c1.31-6.91,1.36-14,.16-20.93-2.19-11.35-11.31-15.66-17.62-8.73-1.41,1.57-2.23,4.41-2.65,7.72Z"/>
    <path class="cls-12" d="m228.04,100.02c-.54,1.7-.99,3.42-1.36,5.17.2,4.97.66,9.93,1.38,14.86,3.86.5,7.77.43,11.6-.22.16-1.92.26-4,.25-6.07-.02-9.62-5.65-15.34-11.87-13.74Z"/>
    <path class="cls-7" d="m262.07,140.63l6.93-.45-.34,8.78c-3.12.36-6.24-.63-8.6-2.7l2.01-5.63Z"/>
    <path class="cls-7" d="m276.06,144.24l-1.29,3.62c-.35,1.01-1.35,1.63-2.41,1.51l-3.7-.42.34-8.78,5.35,1.05c1.24.25,2.05,1.47,1.8,2.71-.02.1-.05.21-.09.31Z"/>
    <rect class="cls-9" x="262.61" y="141.17" width="12.67" height="4.94" rx="1.18" ry="1.18" transform="translate(12.55 308.65) rotate(-60.87)"/>
    <rect class="cls-9" x="262.83" y="146.79" width="5.4" height="5.98" rx=".64" ry=".64" transform="translate(5.44 308.81) rotate(-60.87)"/>
    <path class="cls-9" d="m278.65,140.86c-2.49,0-4.94-.64-7.11-1.85-7.62-3.93-10.62-13.3-6.69-20.92s13.3-10.62,20.92-6.69,10.62,13.3,6.69,20.92c-.08.15-.16.3-.24.45h0c-2.73,4.95-7.92,8.05-13.57,8.09Zm.88-28.68c-4.88.05-9.36,2.72-11.71,7-3.69,6.1-1.74,14.04,4.36,17.73,6.1,3.69,14.04,1.74,17.73-4.36.16-.27.31-.54.45-.81h0c3.65-6.28,1.52-14.34-4.75-18-1.86-1.02-3.96-1.55-6.08-1.54v-.02Z"/>
    <path class="cls-9" d="m225.32,160.15s4.54,50,3.22,77.35c-1.37,28.36-21.49,84.36-21.49,84.36l-16-.34s11-61.63,10.7-89.85c-.3-30.78-3.13-76.87-3.13-76.87l26.7,5.35Z"/>
    <path class="cls-12" d="m204.41,167.79c-1.83-2.16-3.47-.1-4.85,3.91.57,10.78,1.26,25.34,1.71,39.45,7.81-11.88,9.03-36.37,3.14-43.36Z"/>
    <polygon class="cls-8" points="189.08 322.19 207.9 322.57 209.91 316.32 190.26 316.27 189.08 322.19"/>
    <polygon class="cls-6" points="189.08 322.19 207.9 322.57 209.91 316.32 190.26 316.27 189.08 322.19"/>
    <polygon class="cls-7" points="123.96 301.98 130.66 307.78 145.79 293.72 139.08 287.92 123.96 301.98"/>
    <path class="cls-9" d="m131.25,308.06l-5.06-8.2c-.2-.31-.57-.46-.93-.37l-7.9,2.18c-.65.15-1.05.79-.9,1.44.03.14.09.26.16.38,1.88,2.95,4.7,7.16,7,10.91,2.68,4.37,2.66,4.3,5.81,9.43,1.9,3.11,5.69,2.25,5.19.8-2.28-6.62-3-7.54-2.86-14.37.05-.77-.12-1.53-.51-2.2Z"/>
    <polygon class="cls-12" points="145.78 293.72 137.99 300.97 131.28 295.17 139.08 287.92 145.78 293.72"/>
    <path class="cls-8" d="m131.89,312c-.49-.82-.9-1.68-1.22-2.58-.03-.09,0-.18.07-.24.07-.05.17-.05.24,0,.4.25,3.89,2.47,3.89,3.67,0,.23-.12.44-.32.55-.33.22-.74.27-1.11.14-.67-.33-1.22-.87-1.55-1.54Zm-.59-2.13c.73,1.8,1.56,3,2.27,3.25.25.09.53.06.75-.1.11-.07.13-.14.13-.19-.04-.65-1.8-2.03-3.19-2.97h.04Z"/>
    <path class="cls-8" d="m130.65,309.45s-.01-.09,0-.13c0-.08.06-.14.13-.17.15-.06,3.74-1.51,4.66.4.24.51.08.79-.09.94-.77.65-3.6-.27-4.61-1l-.09-.04Zm4.31.17c-.67-1.08-2.76-.52-3.65-.23,1.18.64,3.28,1.16,3.74.78,0,0,.13-.12,0-.44-.02-.04-.05-.08-.09-.11h0Z"/>
    <path class="cls-9" d="m209.1,156.86s-8.43,46.84-14.47,73.51c-6.27,27.74-49.84,69.6-49.84,69.6l-12-10.63s31.82-41.56,36.44-69.4c5-30.36,9.59-69.18,9.59-69.18l30.28,6.1Z"/>
    <polygon class="cls-8" points="130.41 289.4 144.08 301.65 148.73 297.74 134.3 283.87 130.41 289.4"/>
    <polygon class="cls-6" points="130.41 289.4 144.08 301.65 148.73 297.74 134.3 283.87 130.41 289.4"/>
    <path class="cls-8" d="m239.95,84.93s5,28.31-14.63,75.22l-46.43-9.37c1.12-7.2,12.62-41.1,12.52-76.11,5.35.05,10.7.44,16,1.17,6.66.95,13.26,2.29,19.76,4,4.39,1.36,8.66,3.06,12.78,5.09Z"/>
    <path class="cls-10" d="m231.44,113.26c-.63,9.16-6.76,16.3-13.59,15.84-2.26-.19-4.4-1.12-6.07-2.65l1.94-3.78c1.22,1.12,2.78,1.81,4.44,1.94,5,.34,9.48-4.88,9.93-11.58l3.35.23Z"/>
    <path class="cls-5" d="m231.44,113.26l-3.35-.23c.12-1.75-.05-3.51-.51-5.21-.41-1.58-1.12-3.05-2.11-4.35l2.39-3.3c1.35,1.79,2.33,3.83,2.89,6,.61,2.31.85,4.7.69,7.09Z"/>
    <path class="cls-11" d="m227.89,100.17l-2.39,3.3c-.71-.94-1.59-1.72-2.61-2.31-.94-.56-1.99-.9-3.07-1l.31-4.49c1.48.11,2.91.56,4.19,1.31,1.39.82,2.6,1.9,3.57,3.19Z"/>
    <path class="cls-3" d="m220.12,95.71l-.31,4.49c-5-.34-9.47,4.89-9.92,11.59-.3,4.35,1.16,8.51,3.83,10.88l-1.94,3.78c-3.65-3.25-5.65-8.93-5.24-14.89.62-9.16,6.75-16.31,13.58-15.85Z"/>
    <path class="cls-12" d="m189.95,97.63c-.43,3.52-.93,7-1.47,10.31,3.88-1.8,9.18-11.33,8.61-16.58l-7.14,6.27Z"/>
    <path class="cls-7" d="m213.75,53.99c0,6.61-1.14,18.51-6.44,21.85,0,0,1.79,7.35,15.47,12.35,6.71-3,4.29-8.36,4.29-8.36-6.75-3.13-5.51-8.35-3.27-13l-10.05-12.84Z"/>
    <path class="cls-12" d="m217.89,59.21l5.94,7.57c-.54,1.09-.98,2.22-1.32,3.39-2.62-.94-5.75-4.66-5.46-7.56.07-1.18.35-2.33.84-3.4Z"/>
    <path class="cls-9" d="m233.32,52.07c1.24-3,1.42-6.44-1-8.73.15-2,1.63-4.27,3.68-6.06,2.95-1.63,8.89,9.72-2.68,14.79Z"/>
    <path class="cls-9" d="m236.79,42.36c-.55,0-1-.45-1-1s.45-1,1-1h0c.2,0,4.76-.26,6.23-5.6.15-.53.7-.85,1.23-.7.53.15.85.7.7,1.23h0c-.88,3.86-4.15,6.71-8.09,7.07h-.07Z"/>
    <path class="cls-7" d="m214.89,44.27c-1.21,8.71-2.36,13.75,1.1,19.05,5.2,8,16.62,6.16,20.4-2,3.41-7.36,4.81-20.37-2.92-25.5-5.51-3.69-12.96-2.21-16.65,3.29-1.03,1.55-1.7,3.31-1.93,5.16Z"/>
    <path class="cls-9" d="m214.64,51.99c1.01.03,2.01.15,3,.36.88.21,1.75-.34,1.96-1.21.04-.16.05-.33.04-.5-.16-2.13.42-4.3,2.37-5.24.2-1.6-.2-3.21-1.12-4.54-.22-.51.01-1.1.52-1.32.2-.09.43-.11.64-.05,4.34,1.68,10.89,4.32,14.18,2.61,4.27-2.22,9.16-10.14,2.71-10.69-3.09-.25-2.74-2-5.07-3.6s-8-1.39-12.33.75-11-1.83-13.54,1.33c-1.89,2.31-.71,5.59-.71,5.59,0,0-3.71.5-4.34,7.5-.47,5.24,7.93,15.16,10.55,16.22,1.52-5.42,1.14-7.21,1.14-7.21Z"/>
    <path class="cls-9" d="m208.52,37.96c-.42,0-.8-.27-.94-.67-.48-1.44-2.03-2.23-3.47-1.75-.12.04-.24.09-.35.14-.53.16-1.09-.14-1.25-.67-.15-.5.11-1.03.6-1.22,1.27-.51,2.69-.48,3.94.09,1.11.6,1.97,1.58,2.42,2.76.18.52-.1,1.09-.62,1.27-.11.04-.22.05-.33.05Z"/>
    <path class="cls-7" d="m198.38,90.12c-2.08,2.17-4.33,4.5-6.44,6.81s-4.27,4.65-6.33,7c-4.12,4.63-7.99,9.48-11.6,14.52l-1.26,1.83c-.26.36-.48.75-.67,1.16-.42.95-.71,1.96-.84,3-.27,2.61-.1,5.24.48,7.8,1.35,5.89,3.41,11.6,6.13,17l-5.57,3.88c-1.2-1.39-2.21-2.69-3.22-4.1s-2-2.83-2.84-4.32c-1.84-3.03-3.37-6.23-4.58-9.56-1.34-3.65-2.02-7.5-2-11.39.03-2.22.39-4.41,1.08-6.52.38-1.11.86-2.19,1.43-3.22l1.33-2.3c.87-1.51,1.8-2.92,2.72-4.37s1.91-2.82,2.91-4.18c1.95-2.77,4-5.4,6.14-8s4.3-5.11,6.55-7.57,4.49-4.85,7-7.25l9.58,9.78Z"/>
    <path class="cls-8" d="m191.36,74.67c-8.47.31-21.08,23.68-21.08,23.68,1.66,4,8.91,10.32,12.76,11.35,0,0,10.07-6.41,15.55-15.89,5.74-9.95,1.84-19.47-7.23-19.14Z"/>
    <path class="cls-7" d="m175.64,147.34l9.36,1.75-7.47,8.44s-6.4-2.83-6.41-6.29l4.52-3.9Z"/>
    <path class="cls-7" d="m187.67,157.96l-1.91,2c-1.36,1.39-3.56,1.51-5.05.26l-3.18-2.65,7.47-8.44,3,4.06c1.06,1.46.92,3.47-.33,4.77Z"/>
    <path class="cls-7" d="m209.89,50.31c-.04,2.21.81,4.35,2.35,5.94,2.05,2.1,4.54.61,5.18-2.09.59-2.43.22-6.45-2.43-7.53s-5,.97-5.1,3.68Z"/>
  </g>
  <g id="freepik--Data--inject-81">
    <rect class="cls-8" x="16.37" y="260.34" width="23.8" height="35.41" rx="4.26" ry="4.26"/>
    <rect class="cls-8" x="43.98" y="241.49" width="23.8" height="54.25" rx="4.26" ry="4.26"/>
    <rect class="cls-8" x="71.58" y="249.67" width="23.8" height="46.08" rx="4.26" ry="4.26"/>
    <rect class="cls-8" x="99.18" y="238" width="23.8" height="57.75" rx="4.26" ry="4.26"/>
    <rect class="cls-8" x="126.78" y="225.67" width="23.8" height="70.08" rx="4.26" ry="4.26"/>
    <rect class="cls-8" x="154.39" y="212.67" width="23.8" height="83.08" rx="4.26" ry="4.26"/>
    <rect class="cls-8" x="181.99" y="232.34" width="23.8" height="63.41" rx="4.26" ry="4.26"/>
    <rect class="cls-8" x="209.59" y="207" width="23.8" height="88.75" rx="4.26" ry="4.26"/>
    <rect class="cls-8" x="237.19" y="199.34" width="23.8" height="96.41" rx="4.26" ry="4.26"/>
    <rect class="cls-8" x="264.8" y="204" width="23.8" height="91.75" rx="4.26" ry="4.26"/>
    <rect class="cls-8" x="292.4" y="176.72" width="23.8" height="119.03" rx="4.26" ry="4.26"/>
    <rect class="cls-8" x="320" y="188.05" width="23.8" height="107.7" rx="4.26" ry="4.26"/>
    <rect class="cls-8" x="347.6" y="160.44" width="23.8" height="135.31" rx="4.26" ry="4.26"/>
    <path class="cls-9" d="m28.28,276.11c-.16-.02-.31-.11-.39-.25-.16-.22-.11-.53.11-.7l1.21-.88c.22-.16.53-.11.7.11.16.22.12.52-.09.69,0,0-.01,0-.02.01l-1.21.88c-.09.08-.19.13-.31.14Z"/>
    <path class="cls-9" d="m33.55,272.27c-.16,0-.32-.08-.41-.21-.16-.22-.11-.53.11-.7l2.44-1.77c.22-.16.54-.11.7.11.16.22.11.54-.11.7l-2.39,1.77c-.1.08-.22.11-.34.1Zm6.49-4.73c-.16,0-.31-.08-.4-.21-.16-.22-.11-.53.11-.69l2.44-1.78c.22-.16.53-.11.69.11.16.22.12.52-.09.69,0,0-.01,0-.02.01l-2.43,1.77c-.09.07-.19.1-.3.1Zm6.5-4.73c-.16,0-.31-.07-.41-.2-.16-.22-.11-.53.11-.7l2.44-1.78c.22-.16.54-.11.7.11.16.22.11.54-.11.7l-2.44,1.78c-.08.08-.18.13-.29.14v-.05Zm6.49-4.73c-.28,0-.5-.23-.49-.51,0-.15.08-.3.2-.39l2.44-1.77c.22-.16.53-.11.69.11s.11.53-.11.69h0l-2.43,1.78c-.09.06-.19.09-.3.09h0Zm6.5-4.72c-.16,0-.31-.08-.41-.21-.16-.22-.11-.54.12-.7,0,0,0,0,0,0l2.43-1.77c.22-.16.54-.11.7.11.16.22.11.54-.11.7l-2.44,1.77c-.08.06-.19.1-.29.1h0Zm6.5-4.73c-.16,0-.32-.08-.41-.21-.16-.22-.11-.53.11-.7l2.44-1.77c.22-.16.53-.11.69.11.16.22.12.52-.09.69,0,0-.01,0-.02.01l-2.43,1.77c-.08.07-.18.1-.29.1h0Zm6.49-4.73c-.16,0-.31-.08-.4-.21-.16-.22-.12-.52.09-.69,0,0,.01,0,.02-.01l2.43-1.77c.22-.16.54-.11.7.11.16.22.11.54-.11.7l-2.44,1.77c-.09.05-.19.07-.29.06v.04Zm6.5-4.73c-.28,0-.5-.22-.5-.5,0-.16.07-.31.2-.4l2.44-1.78c.22-.16.54-.11.7.11.16.22.11.54-.11.7l-2.44,1.77c-.08.07-.18.1-.29.1h0Zm6.49-4.73c-.28,0-.5-.23-.49-.51,0-.15.08-.3.2-.39l2.43-1.77c.22-.16.52-.12.69.09,0,0,0,.01.01.02.16.22.11.53-.11.69l-2.44,1.78c-.08.06-.19.09-.29.09h0Zm6.5-4.73c-.28,0-.5-.22-.5-.5,0-.16.07-.31.2-.4l2.44-1.77c.22-.16.52-.12.69.09,0,0,0,.01.01.02.16.22.11.53-.11.7l-2.44,1.77c-.09.06-.19.09-.29.09h0Zm6.49-4.72c-.16,0-.31-.08-.4-.21-.16-.22-.12-.52.09-.69,0,0,.01,0,.02-.01l2.43-1.77c.22-.16.54-.11.7.11,0,0,0,0,0,0,.16.22.11.53-.11.7l-2.43,1.74c-.09.07-.19.12-.3.13h0Zm6.5-4.73c-.16,0-.32-.08-.41-.21-.16-.22-.11-.53.11-.7l2.44-1.77c.22-.16.54-.11.7.11.16.22.11.54-.11.7l-2.44,1.77c-.08.07-.18.1-.29.1h0Zm6.49-4.73c-.16,0-.31-.08-.4-.21-.16-.21-.12-.51.09-.67,0,0,.02-.01.02-.02l2.43-1.78c.22-.16.54-.11.7.11.16.22.11.54-.11.7l-2.43,1.77c-.09.07-.19.1-.3.1h0Zm6.5-4.73c-.16,0-.31-.07-.41-.2-.16-.22-.11-.53.11-.7l2.44-1.78c.22-.16.54-.11.7.11.16.22.11.54-.11.7l-2.44,1.78c-.09.06-.19.09-.29.09h0Zm6.49-4.73c-.16,0-.3-.08-.4-.2-.16-.22-.11-.54.11-.7,0,0,0,0,0,0l2.43-1.77c.2-.19.52-.17.71.03.19.2.17.52-.03.71-.03.02-.06.05-.09.06l-2.43,1.78c-.09.06-.19.09-.3.09h0Zm6.5-4.72c-.16,0-.31-.08-.41-.21-.16-.22-.11-.53.11-.7l2.44-1.77c.22-.16.54-.11.7.11,0,0,0,0,0,0,.16.22.11.53-.11.7l-2.44,1.77c-.08.06-.19.1-.29.1h0Z"/>
    <path class="cls-9" d="m137.47,196.62c-.16,0-.31-.08-.4-.21-.16-.22-.11-.54.11-.7,0,0,0,0,0,0l1.21-.88c.12-.09.28-.12.42-.08l1.45.37c.28.07.44.35.38.62s-.35.44-.62.38l-1.22-.31-1,.74c-.1.06-.21.08-.32.07Z"/>
    <path class="cls-9" d="m249.05,224.22h-.08l-2.84-.73c-.28-.07-.44-.35-.38-.62s.35-.44.62-.38l2.76.71c.17,0,.33.09.42.24.14.21.09.5-.12.64-.01,0-.02.01-.03.02-.11.07-.23.11-.36.12Zm-7.66-2h-.13l-2.92-.75c-.28-.07-.44-.35-.38-.62s.35-.44.62-.38l2.92.75c.28.03.47.28.44.56s-.28.47-.56.44Zm12.14-.55c-.18,0-.35-.1-.44-.26-.13-.24-.05-.54.19-.68l2.61-1.5c.24-.14.55-.05.69.19.13.24.05.54-.19.68l-2.61,1.5c-.08.05-.16.08-.25.09v-.02Zm-19.93-1.46h-.13l-2.92-.75c-.28-.07-.44-.35-.38-.62s.35-.44.62-.38l2.92.75c.28.03.47.28.44.56s-.28.47-.56.44Zm-7.79-2h-.13l-2.92-.75c-.26-.07-.42-.34-.36-.61.07-.27.34-.43.61-.36,0,0,0,0,0,0l2.92.75c.28.03.47.28.44.56s-.28.47-.56.44v-.03Zm34.7-.53c-.18,0-.35-.1-.44-.26-.13-.24-.05-.54.19-.68l2.61-1.5c.24-.14.54-.06.68.18,0,0,0,0,0,.01.13.24.05.54-.19.68l-2.62,1.5c-.07.05-.15.07-.24.08h0Zm-42.49-1.49h-.12l-2.92-.75c-.27-.07-.43-.34-.36-.61,0,0,0,0,0,0,.06-.26.33-.43.59-.37,0,0,.01,0,.02,0l2.92.75c.28.04.47.29.43.57s-.29.47-.57.43v-.03Zm-7.79-2h-.12l-2.92-.75c-.28-.07-.44-.35-.38-.62s.35-.44.62-.38l2.92.75c.28.04.47.29.43.57s-.29.47-.57.43Zm57.25-.51c-.18,0-.35-.1-.43-.26-.14-.24-.06-.54.18-.68l2.62-1.5c.23-.14.53-.06.67.17,0,0,0,.01,0,.02.14.23.06.53-.17.67,0,0,0,0-.01,0l-2.62,1.5c-.08.04-.16.07-.25.07h0Zm-65-1.5h-.12l-2.92-.75c-.28-.07-.44-.35-.38-.62s.35-.44.62-.38l2.92.75c.28.04.47.29.43.57s-.29.47-.57.43Zm-7.78-2h-.13l-2.92-.75c-.28-.07-.44-.35-.38-.62s.35-.44.62-.38l2.92.75c.28.03.47.28.44.56s-.28.47-.56.44Zm79.8-.49c-.18,0-.35-.1-.43-.26-.14-.23-.06-.53.17-.67,0,0,0,0,.01,0l2.62-1.5c.23-.14.53-.06.67.17,0,0,0,.01,0,.02.14.23.06.53-.17.67,0,0,0,0-.01,0l-2.62,1.5c-.09.05-.19.07-.29.06h.04Zm-87.61-1.52h-.13l-2.92-.75c-.28-.07-.44-.35-.38-.62s.35-.44.62-.38l2.92.75c.28.03.47.28.44.56s-.28.47-.56.44Zm-7.79-2h-.13l-2.92-.75c-.26-.07-.42-.34-.36-.61.07-.27.34-.43.61-.36,0,0,0,0,0,0l2.92.75c.28.03.47.28.44.56s-.28.47-.56.44v-.03Zm102.36-.47c-.18,0-.35-.1-.43-.26-.14-.23-.06-.53.17-.67,0,0,0,0,.01,0l2.62-1.5c.23-.14.53-.06.67.17,0,0,0,.01,0,.02.14.23.06.53-.17.67,0,0,0,0-.01,0l-2.62,1.5c-.08.04-.18.06-.27.06h.02Zm-110.17-1.54h-.12l-2.93-.75c-.26-.07-.42-.35-.35-.61.06-.26.33-.43.59-.36,0,0,0,0,0,0l2.93.75c.28.04.47.29.43.57s-.29.47-.57.43v-.03Zm-7.79-2h-.12l-2.92-.75c-.28-.07-.44-.35-.38-.62s.35-.44.62-.38l2.92.75c.28.04.47.29.43.57s-.29.47-.57.43Zm124.92-.45c-.18,0-.35-.1-.43-.26-.14-.23-.06-.53.17-.67,0,0,0,0,.01,0l2.62-1.5c.23-.15.54-.08.69.15.15.23.08.54-.15.69-.02,0-.03.02-.05.03l-2.61,1.5c-.08.04-.16.06-.25.06h0Zm-132.71-1.55h-.12l-2.92-.75c-.28-.07-.44-.35-.38-.62s.35-.44.62-.38l2.92.75c.28.04.47.29.43.57s-.29.47-.57.43Zm-7.78-2h-.13l-2.92-.75c-.28-.07-.44-.35-.38-.62s.35-.44.62-.38l2.92.75c.28.03.47.28.44.56s-.28.47-.56.44Zm147.47-.43c-.18,0-.35-.1-.44-.26-.13-.24-.05-.54.19-.68l2.62-1.5c.23-.14.53-.06.67.17,0,0,0,.01,0,.02.13.24.05.54-.19.68l-2.61,1.5c-.08.03-.16.05-.25.05v.02Zm7-4c-.18,0-.35-.1-.44-.26-.13-.24-.05-.54.19-.68l2.61-1.5c.24-.14.55-.06.68.18s.06.55-.18.68l-2.62,1.5c-.08.04-.17.06-.26.05l.02.02Zm7-4c-.18,0-.35-.1-.43-.26-.14-.24-.06-.54.18-.68l2.62-1.5c.23-.14.53-.06.67.17,0,0,0,.01,0,.02.14.23.06.53-.17.67,0,0,0,0-.01,0l-2.62,1.5c-.09.04-.2.06-.3.05l.05.02Zm7-4c-.18,0-.35-.1-.43-.26-.14-.23-.06-.53.17-.67,0,0,0,0,.01,0l2.62-1.5c.23-.14.53-.06.67.17,0,0,0,.01,0,.02.14.23.06.53-.17.67,0,0,0,0-.01,0l-2.62,1.5c-.1.05-.21.07-.32.05l.07.02Zm7-4c-.18,0-.35-.1-.43-.26-.14-.23-.06-.53.17-.67,0,0,0,0,.01,0l2.62-1.5c.24-.14.55-.06.68.18s.06.55-.18.68l-2.62,1.5c-.11.05-.22.07-.34.05l.09.02Zm7-4c-.18,0-.35-.1-.43-.26-.14-.23-.06-.53.17-.67,0,0,0,0,.01,0l2.62-1.5c.23-.15.54-.08.69.15.15.23.08.54-.15.69-.02,0-.03.02-.05.03l-2.61,1.5c-.11.05-.24.07-.36.05l.11.02Zm7-4c-.18,0-.35-.1-.44-.26-.13-.24-.05-.54.19-.68l2.62-1.5c.23-.14.53-.06.67.17,0,0,0,.01,0,.02.13.24.05.54-.19.68l-2.61,1.5c-.12.06-.25.08-.38.05l.13.02Zm7-4c-.18,0-.35-.1-.44-.26-.13-.24-.05-.54.19-.68l2.61-1.5c.24-.14.54-.06.68.18,0,0,0,0,0,.01.13.24.05.54-.19.68l-2.62,1.5c-.12.07-.26.09-.39.05l.15.02Zm7-4c-.18,0-.35-.1-.43-.26-.13-.24-.05-.54.19-.68l2.61-1.5c.23-.14.53-.06.67.17,0,0,0,.01,0,.02.14.23.06.53-.17.67,0,0,0,0-.01,0l-2.62,1.5c-.13.07-.29.09-.43.05l.18.02Z"/>
    <path class="cls-9" d="m358.2,161.69c-.18,0-.35-.1-.43-.26-.14-.23-.06-.53.17-.67,0,0,0,0,.01,0l1.31-.74c.24-.14.54-.05.67.18.14.24.05.54-.18.68l-1.3.75c-.08.04-.16.07-.25.07Z"/>
    <path class="cls-2" d="m32.38,275.61c0,2.27-1.84,4.11-4.11,4.11s-4.11-1.84-4.11-4.11,1.84-4.11,4.11-4.11h.01c2.27,0,4.1,1.84,4.1,4.11Z"/>
    <path class="cls-9" d="m28.28,280.21c-2.55,0-4.61-2.05-4.62-4.6s2.05-4.61,4.6-4.62,4.61,2.05,4.62,4.6c0,0,0,.01,0,.02-.01,2.54-2.06,4.59-4.6,4.6Zm0-8.21c-1.99,0-3.61,1.61-3.62,3.6s1.61,3.61,3.6,3.62c1.99,0,3.61-1.61,3.62-3.6,0,0,0,0,0-.01,0-1.99-1.61-3.6-3.6-3.61Z"/>
    <circle class="cls-2" cx="138.69" cy="195.23" r="4.1"/>
    <path class="cls-9" d="m138.69,199.86c-2.55,0-4.61-2.05-4.62-4.6,0-2.55,2.05-4.61,4.6-4.62s4.61,2.05,4.62,4.6c0,0,0,0,0,.01,0,2.54-2.06,4.6-4.6,4.61Zm0-8.21c-1.99,0-3.61,1.61-3.62,3.6s1.61,3.61,3.6,3.62,3.61-1.61,3.62-3.6c0,0,0-.01,0-.02,0-1.99-1.61-3.61-3.6-3.62h0v.02Z"/>
    <circle class="cls-2" cx="249.09" cy="223.73" r="4.1"/>
    <path class="cls-9" d="m249.1,228.33c-2.55,0-4.61-2.05-4.62-4.6,0-2.55,2.05-4.61,4.6-4.62,2.55,0,4.61,2.05,4.62,4.6v.02c-.01,2.54-2.06,4.59-4.6,4.6Zm0-8.21c-1.99,0-3.61,1.61-3.62,3.6,0,1.99,1.61,3.61,3.6,3.62s3.61-1.61,3.62-3.6h0c0-2-1.61-3.61-3.6-3.62Z"/>
    <circle class="cls-2" cx="359.5" cy="160.44" r="4.1"/>
    <path class="cls-9" d="m359.5,165.04c-2.54,0-4.6-2.07-4.59-4.61,0-2.54,2.07-4.6,4.61-4.59,2.54,0,4.59,2.06,4.59,4.6,0,2.54-2.07,4.6-4.61,4.6Zm0-8.2c-1.99,0-3.6,1.62-3.59,3.61s1.62,3.6,3.61,3.59c1.98,0,3.59-1.62,3.59-3.6-.01-1.98-1.63-3.59-3.61-3.58v-.02Z"/>
  </g>
</svg>