<?xml version="1.0" encoding="UTF-8" standalone="no"?>
<svg
   width="866.81"
   height="600"
   viewBox="0 0 866.81 600.00001"
   role="img"
   artist="Katerina Limpitsouni"
   source="https://undraw.co/"
   version="1.1"
   id="svg23"
   sodipodi:docname="stats-illu.svg"
   inkscape:version="1.4.2 (f4327f4, 2025-05-13)"
   xmlns:inkscape="http://www.inkscape.org/namespaces/inkscape"
   xmlns:sodipodi="http://sodipodi.sourceforge.net/DTD/sodipodi-0.dtd"
   xmlns="http://www.w3.org/2000/svg"
   xmlns:svg="http://www.w3.org/2000/svg">
  <defs
     id="defs23" />
  <sodipodi:namedview
     id="namedview23"
     pagecolor="#f0f0f8"
     bordercolor="#000000"
     borderopacity="0.25"
     inkscape:showpageshadow="2"
     inkscape:pageopacity="0.0"
     inkscape:pagecheckerboard="0"
     inkscape:deskcolor="#d1d1d1"
     inkscape:zoom="0.87232739"
     inkscape:cx="169.66107"
     inkscape:cy="388.04238"
     inkscape:window-width="1920"
     inkscape:window-height="991"
     inkscape:window-x="-9"
     inkscape:window-y="-9"
     inkscape:window-maximized="1"
     inkscape:current-layer="svg23" />
  <g
     id="g23"
     transform="matrix(0.96706877,0,0,0.96706877,14.272529,-323.24313)">
    <path
       d="m 828.33492,667.88466 -2.71537,21.6217 -6.73908,53.70394 H 683.49775 c 1.05718,-12.03676 2.50247,-29.36207 4.04646,-48.06508 0.15218,-1.86793 0.31188,-3.74756 0.46397,-5.63886 3.87162,-47.01432 8.10823,-100.21632 8.10823,-100.21632 l 17.79852,3.31574 34.53207,6.42112 14.07147,2.61514 37.68114,7.01655 c 18.78727,3.49074 31.7102,30.69301 28.13532,59.22608 z"
       fill="#f2f2f2"
       id="path1" />
    <polygon
       points="710.5803,131.16867 696.93018,95.35764 725.93018,79.35764 742.57875,108.4915 "
       fill="#ffb6b6"
       id="polygon1"
       transform="translate(5e-7,422.93239)" />
    <circle
       cx="704.73529"
       cy="488.60785"
       r="41.244061"
       fill="#ffb6b6"
       id="circle1" />
    <path
       d="m 701.77389,497.82829 c -3.27492,-4.9842 -1.98953,-7.59113 -4.73126,-9.42283 -5e-5,-5e-5 -1.10331,-0.7371 -8.99943,-1.15733 v 0 c -1.76783,-12.72387 -3.9747,-14.26689 -3.97475,-14.26694 -2.54344,-1.77835 -6.31806,-1.20052 -8.66632,-0.11286 -4.96648,2.3004 -4.39069,7.26947 -7.73471,8.22036 -4.61947,1.31356 -13.02411,-6.09155 -13.85211,-14.56892 -0.67539,-6.91516 3.77981,-13.63146 5.54692,-13.27617 1.75207,0.35229 5.94686,-5.00298 8.2118,-4.92038 1.54677,0.0564 7.86668,-2.69052 9.56681,-2.47576 1.85668,0.23458 7.97849,3.42925 8.23359,2.69936 1.77276,-5.07201 1.25174,-6.47929 2.75595,-7.93028 2.66541,-2.57115 7.02574,-0.78067 13.86612,0.18057 14.07429,1.97776 16.5307,-2.66296 23.74347,0.48255 3.64355,1.58896 6.69229,5.8742 12.64108,14.3798 8.31932,11.89498 12.47896,17.84248 12.50565,24.77939 0.0272,7.0744 -3.3985,6.62532 -4.90327,17.09838 -1.67502,11.65826 1.88393,16.98908 -2.00412,20.77661 -3.00495,2.92729 -9.11284,3.62215 -12.32198,1.05303 -5.49439,-4.39856 1.69602,-15.0123 -4.38413,-22.76671 -3.73224,-4.75997 -11.23802,-6.87793 -14.67632,-4.52502 -3.88767,2.66043 -1.74599,10.46929 -4.47987,11.20979 -2.3411,0.63413 -5.77242,-4.58808 -6.34311,-5.45663 z"
       fill="#2f2e41"
       id="path2" />
    <path
       d="m 797.8501,660.27001 c -1.15039,19.66992 -5.71973,25.87988 -7.32031,49.10986 -0.34961,5.1001 -0.55957,11.02002 -0.55957,18.08008 0,1.7998 0.01,3.54004 0.01,5.24023 0,3.61963 -0.0693,7.04004 -0.49023,10.50977 -0.31934,2.77002 -0.86914,5.56006 -1.7793,8.5 h -88.83008 c -0.01,-0.02 -0.01,-0.04 -0.0205,-0.0601 -0.51953,-2.25977 -0.84961,-4.41992 -1.09961,-6.48975 -0.0801,-0.66016 -0.15039,-1.31006 -0.20996,-1.9502 -0.0801,-0.75 -0.15039,-1.48975 -0.21973,-2.21973 -0.27051,-2.91016 -0.54004,-5.66016 -1.18066,-8.29004 -0.85938,-3.63037 -2.41992,-7.05029 -5.62012,-10.3501 -1.30957,-1.3501 -2.61914,-2.3999 -3.89941,-3.31982 -0.25,-0.17041 -0.49023,-0.34033 -0.74023,-0.51025 -3.54004,-2.43018 -6.88965,-4.18018 -9.79004,-9.14014 -0.0498,-0.0698 -0.0898,-0.1499 -0.12988,-0.21973 -0.5,-0.87012 -1.7998,-3.15039 -2.74023,-6.18994 -0.99023,-3.16016 -1.58984,-7.13037 -0.50977,-11.18994 2.57031,-9.62012 12.08984,-10.58008 19.87012,-20.30029 0.83984,-1.0498 1.66992,-2.20996 2.45996,-3.5 3.51953,-5.72021 4.46973,-10.75977 5.58984,-16.75 0.17969,-0.97021 0.33984,-1.93018 0.46973,-2.85986 0.10059,-0.7002 0.19043,-1.39014 0.26074,-2.07031 0.61914,-5.70996 0.31934,-10.62988 -0.41016,-15.02979 -2.37988,-14.41016 -9.40039,-23.33008 -4.44043,-36.26025 1.56055,-4.05957 3.77051,-7.10986 6,-9.71973 4.71973,-5.53027 9.57031,-9.12012 8.73047,-16.25977 -0.85059,-7.2002 -6.31055,-8.19043 -6.91992,-14.48047 -0.31055,-3.17969 0.72949,-6.52979 2.67969,-9.81982 v -0.01 c 6.24023,-10.59033 21.82031,-20.34033 31.71973,-20.03027 1.83008,0.0503 3.4502,0.45996 4.7998,1.25 4.89062,2.87988 2.85059,9.16992 10.34082,17.99023 5.56934,6.5498 11.86914,9.16992 14.25977,10.40967 9.46973,4.94043 17.16992,19.51025 22.39941,38.14014 0.04,0.14014 0.0801,0.27979 0.12012,0.43018 3.23047,11.66992 5.51074,24.91992 6.64062,38.35986 0.47949,5.68994 0.75977,11.41016 0.81934,17.06982 0.0508,4.52002 -0.0498,8.44043 -0.25977,11.93018 z"
       fill="#191558"
       id="path3" />
    <g
       id="g5"
       transform="translate(5e-7,422.93239)">
      <polygon
         points="728.38037,312.92747 725.73975,320.27756 722.68018,328.77756 703.01025,328.77756 706.31006,320.27756 707.84033,316.3176 710.38037,309.7678 714.64014,298.7678 731.33057,304.72776 729.52002,309.7678 "
         fill="#ffb6b6"
         id="polygon3" />
      <path
         d="m 790.84033,167.82737 c -0.0498,0.65039 -0.12012,1.37012 -0.19043,2.15039 -0.7793,7.93994 -2.62012,22.1499 -5.30957,38.35986 -1.41992,8.5498 -3.08008,17.66016 -4.9502,26.70996 -4.01953,19.52979 -9.01953,38.76025 -14.66992,51.3999 -1.00977,2.28027 -2.0498,4.34033 -3.11035,6.16016 -0.80957,1.39014 -1.66016,2.75977 -2.5498,4.10986 -2.87988,4.43018 -6.11035,8.63037 -9.45996,12.55029 -0.12988,0.16992 -0.28027,0.33008 -0.42969,0.5 -0.54004,0.63965 -1.10059,1.27002 -1.66016,1.8999 -2.74023,3.08984 -5.54004,5.96973 -8.25,8.60986 -3.2998,3.22021 -6.48047,6.07031 -9.33008,8.5 h -31.94043 l -0.12988,-0.0601 -4.59961,-2.04004 c 0,0 1.30957,-1.54004 3.5,-4.44971 0.4502,-0.59033 0.92969,-1.24023 1.4502,-1.9502 0.63965,-0.87012 1.33008,-1.83008 2.06934,-2.87012 1.54004,-2.17969 3.29004,-4.73975 5.16992,-7.63965 3.64062,-5.61035 7.79004,-12.51025 11.98047,-20.5 0.48047,-0.93018 0.96973,-1.87012 1.45996,-2.82031 0.01,-0.0298 0.0303,-0.0601 0.04,-0.0898 0.83008,-1.62012 1.65039,-3.29004 2.46973,-4.99023 6.9502,-14.45996 8.94043,-26.45996 9.51074,-30.34961 0.7998,-5.5 1.90918,-13.19043 1.60938,-21.65039 -0.2002,-5.57959 -1.00977,-11.47998 -2.93945,-17.33984 v -0.01 c -0.40039,-1.22998 -0.85059,-2.45996 -1.36035,-3.68018 -0.91016,-2.18994 -1.99023,-4.3501 -3.27051,-6.47998 -5.64941,-9.37988 -10.23926,-9.77002 -13.88965,-19.99023 -1.08008,-3.02979 -3.53027,-9.86963 -2.78027,-17.08984 v -0.01 c 0.0908,-0.89014 0.24023,-1.79004 0.44043,-2.69043 v -0.01 c 0.0498,-0.25 0.12012,-0.50977 0.19043,-0.75977 0.56934,-2.20996 1.50977,-4.40039 2.93945,-6.48047 2.79004,-4.03955 6.59961,-6.43994 10.00977,-7.86963 l 0.0107,-0.0102 c 3.93945,-1.63965 7.33984,-1.98975 8,-2.0498 14.60938,-1.2998 25.93945,10.97998 32.12988,17.68994 2.38965,2.58984 4.58008,4.76025 6.58008,6.52979 15.56934,13.90039 19.83984,5.02002 20.94922,0.43018 0.16992,-0.70996 0.26074,-1.31982 0.31055,-1.72021 z"
         fill="#191558"
         id="path4" />
      <path
         d="m 790.89014,167.30784 c 0,0.0498 -0.01,0.21973 -0.0498,0.5 0.0195,-0.15039 0.0303,-0.30029 0.04,-0.44043 0,-0.0298 0,-0.0498 0.01,-0.0596 z"
         fill="#191558"
         id="path5" />
    </g>
    <path
       d="m 711.47021,801.24999 h -536.0498 c -4.98047,0 -9.04004,4.0498 -9.04004,9.03027 0,4.98975 4.05957,9.03955 9.04004,9.03955 h 536.0498 c 4.97949,0 9.03027,-4.0498 9.03027,-9.03955 0,-4.98047 -4.05078,-9.03027 -9.03027,-9.03027 z"
       fill="#e6e6e6"
       id="path6"
       style="fill:#f0f0f8;fill-opacity:1" />
    <path
       d="M 592.51025,847.93017 H 294.37012 c -4.97998,0 -9.02979,4.0498 -9.02979,9.02979 0,4.97999 4.0498,9.04004 9.02979,9.04004 h 298.14014 c 4.97998,0 9.04004,-4.06006 9.04004,-9.04004 0,-4.97998 -4.06006,-9.02979 -9.04004,-9.02979 z"
       fill="#e6e6e6"
       id="path7"
       style="fill:#f0f0f8;fill-opacity:1" />
    <polygon
       points="283.34352,96.76248 247.84188,111.25294 235.06941,81.27476 268.85306,67.05703 "
       fill="#ffb6b6"
       id="polygon7"
       transform="translate(5e-7,422.93239)" />
    <polygon
       points="283.34352,96.76248 247.84188,111.25294 235.06941,81.27476 268.85306,67.05703 "
       opacity="0.1"
       id="polygon8"
       transform="translate(5e-7,422.93239)" />
    <path
       d="m 239.87213,492.88751 33.32807,38.39973 c 0,0 -23.18474,73.17685 -46.36949,79.69756 -23.18475,6.52071 -65.93162,38.39973 -65.93162,38.39973 l -53.61472,-34.77712 26.08284,-38.39973 c 0,0 63.03352,-86.21827 79.69756,-86.21827 16.66403,0 26.80736,2.89809 26.80736,2.89809 z"
       fill="#191558"
       id="path8" />
    <path
       d="m 194.84299,743.21029 h -77.58192 l -4.90504,-6.55697 -20.02583,-26.7711 -4.60796,-6.15845 c 0,0 -17.38856,-31.87902 -13.76594,-60.85995 3.62262,-28.98093 41.29783,-35.50164 41.29783,-35.50164 h 1.55049 l 46.12313,40.52979 -2.75318,37.71872 14.60637,24.27153 z"
       fill="#2f2e41"
       id="path9" />
    <polygon
       points="112.35603,320.2779 112.35603,289.48566 133.14986,320.2779 "
       fill="#2f2e41"
       id="polygon9"
       transform="translate(5e-7,422.93239)" />
    <path
       d="m 581.64421,696.46404 -2.58651,13.41818 -6.41927,33.32807 H 443.68054 c 1.00701,-7.46988 2.38371,-18.22178 3.85442,-29.82865 0.14496,-1.15922 0.29708,-2.32569 0.44195,-3.49942 3.68789,-29.17657 7.72344,-62.19314 7.72344,-62.19314 l 16.95386,2.05771 32.89328,3.98488 13.40368,1.62293 35.89291,4.35439 c 17.89569,2.16632 30.20533,19.04774 26.80011,36.75505 z"
       fill="#f2f2f2"
       id="path10" />
    <path
       d="m 764.14438,743.21029 h -69.94541 c 1.06503,-1.25341 1.66635,-1.97793 1.66635,-1.97793 l 20.96775,-3.46324 43.20324,-7.12937 c 0,0 1.97068,5.09342 4.10808,12.57055 z"
       fill="#2f2e41"
       id="path11" />
    <polygon
       points="444.81392,140.36878 439.11853,99.94198 467.45495,95.76626 497.87302,138.78423 "
       fill="#a0616a"
       id="polygon11"
       transform="translate(5e-7,422.93239)" />
    <polygon
       points="444.81392,140.36878 439.11853,99.94198 467.45495,95.76626 497.87302,138.78423 "
       opacity="0.1"
       id="polygon12"
       transform="translate(5e-7,422.93239)" />
    <path
       id="uuid-ae755ff6-bb09-410e-86b1-7d1b81a37005-2528"
       d="m 317.44601,607.82877 c -3.90299,-11.25913 -12.8761,-18.37174 -20.04107,-15.88668 -7.16497,2.48507 -9.80758,13.62542 -5.90169,24.88804 1.49853,4.52036 4.05781,8.61612 7.46374,11.94459 l 17.13959,47.49655 22.1173,-8.51819 -19.24476,-45.91882 c 0.61482,-4.72396 0.0891,-9.52647 -1.53311,-14.0055 z"
       fill="#a0616a" />
    <path
       d="m 523.34731,585.90906 -0.0417,43.84082 -4.07898,16.19317 -8.39004,33.30631 -6.10768,30.63286 -4.55003,22.82248 -1.62293,8.15089 c -1.22449,0.81871 -2.44173,1.60117 -3.65888,2.3547 H 388.92101 c -6.02079,-3.61536 -9.38979,-6.42652 -9.38979,-6.42652 0,0 1.66639,-1.56499 3.57189,-4.07907 3.21689,-4.2457 7.10757,-11.2011 4.72391,-17.84501 -0.49992,-1.39112 -0.63033,-3.08648 -0.47821,-4.97747 0.97088,-12.47627 14.05577,-33.57447 14.05577,-33.57447 l -2.70971,-31.31387 -1.18823,-13.72243 8.37769,-66.9101 27.30728,-15.87424 4.71449,-0.45614 46.53611,-2.51407 19.23434,1.10845 0.87664,0.23915 18.79409,39.04457 z"
       fill="#cccccc"
       id="path12" />
    <g
       id="g13"
       transform="translate(5e-7,422.93239)">
      <polygon
         points="525.12415,314.23531 525.35604,319.06075 525.41397,320.2779 502.22923,320.2779 501.20763,309.77232 501.18587,309.56218 507.75009,309.11297 524.82716,307.9465 "
         fill="#ffb6b6"
         id="polygon13" />
      <path
         d="m 531.12143,173.57645 9.73934,57.14315 -7.948,56.23024 -1.23891,8.75221 -2.18807,15.45405 -0.67376,4.75291 0.0218,0.51438 0.16663,3.85451 h -27.53188 l -1.01444,-10.50559 -0.0868,-0.94192 -2.07221,-21.51831 -0.0362,-0.36226 -4.39782,-45.63046 8.62176,-32.98031 0.63767,-2.42722 v -0.007 l 3.75119,-56.46939 -2.90535,-25.66256 -0.0289,-0.23915 c 0.0579,0.0363 0.1087,0.0725 0.16663,0.1087 0.15221,0.0942 0.30433,0.18838 0.4492,0.28983 16.92485,10.73748 27.01025,29.57509 26.56821,49.64435 z"
         fill="#cccccc"
         id="path13" />
    </g>
    <path
       d="m 415.74779,575.3112 -10.58745,-10.95064 c 0,0 -22.66445,10.21757 -23.79416,15.88619 -1.12971,5.66862 -41.14649,88.92555 -41.14649,88.92555 l -17.40981,-46.49871 -22.66197,15.13029 c 0,0 18.1839,72.19186 35.18976,75.58099 17.00586,3.38913 74.00173,-85.44603 74.00173,-85.44603 l 6.40838,-52.62764 z"
       fill="#cccccc"
       id="path14" />
    <path
       d="M 845.64014,713.5161 H 21.16016 C 9.4902405,713.5161 5e-7,723.0161 5e-7,734.68602 c 0,11.66992 9.49023,21.16016 21.1601595,21.16016 h 824.47998 c 11.66992,0 21.16992,-9.48975 21.16992,-21.16016 0,-11.67041 -9.5,-21.16992 -21.16992,-21.16992 z"
       fill="#e6e6e6"
       id="path15"
       style="display:inline;fill:#f0f0f8;fill-opacity:1"
       inkscape:label="path15" />
    <path
       d="m 518.52213,644.87213 -1.60291,74.80242 c -0.15517,7.24107 -6.06962,13.03015 -13.31236,13.03015 H 366.0043 c -7.07149,0 -12.90955,-5.52763 -13.29556,-12.58857 l -4.08931,-74.80242 c -0.41702,-7.62814 5.65604,-14.04226 13.29556,-14.04226 h 143.29478 c 7.46556,0 13.4723,6.13683 13.31236,13.60068 z"
       fill="#3f3d56"
       id="path16" />
    <circle
       cx="296.3848"
       cy="489.34192"
       r="32.92181"
       fill="#ffb6b6"
       id="circle16" />
    <polygon
       points="212.34024,190.22598 207.37412,146.75458 241.32117,152.55077 244.94379,191.67503 269.57758,290.93471 248.29569,298.39388 "
       fill="#ffb6b6"
       id="polygon16"
       transform="translate(5e-7,422.93239)" />
    <path
       d="m 231.52213,644.87213 -1.60291,74.80242 c -0.15517,7.24107 -6.06962,13.03015 -13.31236,13.03015 H 79.0043 c -7.07149,0 -12.90955,-5.52763 -13.29556,-12.58857 l -4.08931,-74.80242 c -0.41702,-7.62814 5.65604,-14.04226 13.29556,-14.04226 h 143.29478 c 7.46556,0 13.4723,6.13683 13.31236,13.60068 z"
       fill="#3f3d56"
       id="path17" />
    <ellipse
       cx="273.50003"
       cy="721.71027"
       rx="26"
       ry="11.5"
       fill="#ffb6b6"
       id="ellipse17" />
    <path
       d="m 190.24228,581.46476 14.85273,-79.15844 c 0,0 41.29783,-5.79619 42.74687,7.96976 1.44904,13.76595 -1.03544,81.04198 -1.03544,81.04198 l -56.56416,-9.85329 z"
       fill="#191558"
       id="path18" />
    <path
       d="m 283.09522,494.51836 c 0,0 20.36536,-7.26838 28.95593,-11.17911 8.59056,-3.91073 25.65708,23.36637 26.03673,8.96042 0.37965,-14.40595 -5.51755,-20.44717 -5.51755,-20.44717 0,0 -1.4726,-31.51507 -33.2233,-27.57494 0,0 6.98375,-15.76734 -15.94076,-18.20547 -22.92451,-2.43813 -58.58934,52.92097 -55.39531,61.19409 3.19403,8.27312 7.02295,15.11285 -2.03888,23.95865 -9.06183,8.8458 -26.03033,58.76917 -13.11998,72.20319 12.91035,13.43402 13.7575,19.26357 4.91188,27.62122 -8.84562,8.35765 -29.75425,26.53032 -7.14719,29.68515 22.60706,3.15483 -2.06828,0.79851 14.7856,-14.0263 16.85389,-14.82481 41.44742,-14.21933 32.26457,-38.00455 -9.18284,-23.78522 6.77112,-57.86925 4.77485,-63.03995 -1.99627,-5.1707 4.4726,-38.00496 4.4726,-38.00496 0,0 15.05504,-2.21189 16.1808,6.85974 z"
       fill="#2f2e41"
       id="path19" />
    <g
       id="g21"
       transform="translate(5e-7,422.93239)">
      <circle
         cx="451.19104"
         cy="75.49881"
         r="35.837769"
         fill="#a0616a"
         id="circle19" />
      <path
         d="m 454.05121,27.31743 c -1.037,0.60534 -2.42604,-0.31053 -2.75855,-1.46432 -0.33251,-1.1538 0.0548,-2.37882 0.43892,-3.51648 l 1.93363,-5.72716 c 1.37137,-4.06183 2.82687,-8.26559 5.79693,-11.35717 4.48283,-4.66624 11.6071,-5.85331 18.02037,-4.99332 8.2359,1.1044 16.36189,5.56405 20.19135,12.93866 3.82945,7.37462 2.19911,17.66485 -4.72046,22.26586 9.8619,11.30338 13.2996,23.9006 12.7568,38.89155 -0.5428,14.99095 -16.87927,28.78752 -27.53282,39.34806 -2.37913,-1.4422 -4.54204,-8.20095 -3.23373,-10.65626 1.3083,-2.45531 -0.5662,-5.29986 1.05409,-7.56146 1.62029,-2.2616 2.97587,1.33954 1.33779,-0.90922 -1.03366,-1.41901 3.00067,-4.68353 1.46421,-5.53283 -7.43161,-4.10794 -9.9033,-13.37111 -14.57083,-20.46464 -5.62991,-8.55611 -15.26549,-14.35039 -25.46249,-15.31167 -5.61717,-0.52953 -11.55014,0.42955 -16.15432,3.69062 -4.60418,3.26106 -7.5849,9.08853 -6.51724,14.62867 -2.76507,-2.80756 -4.14147,-6.92204 -3.62233,-10.82826 0.51914,-3.90621 2.92243,-7.51837 6.32483,-9.50626 -2.06881,-6.84142 -0.29652,-14.71105 4.50527,-20.00518 4.80179,-5.29413 24.28048,-4.39244 31.29074,-2.99911 l -0.54217,-0.93008 z"
         fill="#2f2e41"
         id="path20" />
      <path
         d="m 455.13987,53.47472 c 9.28487,1.0023 15.9888,9.04506 21.64971,16.47254 3.26282,4.28103 6.68059,9.00871 6.59868,14.39076 -0.0828,5.4414 -3.72095,10.10859 -5.45967,15.26538 -2.84199,8.42894 -0.0721,18.45744 6.69308,24.23289 -6.68479,1.26852 -13.91123,-3.74373 -15.06525,-10.44924 -1.34341,-7.80603 4.57394,-15.34005 3.87313,-23.22978 -0.61741,-6.95094 -6.09506,-12.30052 -10.75187,-17.49772 -4.65681,-5.19721 -9.03036,-12.09377 -6.88799,-18.73508 l -0.64983,-0.44975 z"
         fill="#2f2e41"
         id="path21" />
    </g>
    <g
       id="g22"
       transform="translate(5e-7,422.93239)">
      <path
         id="uuid-aec20554-f6ec-4c5b-9d97-717cd04239bf-2529"
         d="m 593.94738,290.97732 c -9.19677,5.23093 -13.95249,14.21631 -10.62254,20.06865 3.32996,5.85234 13.48327,6.3548 22.68262,1.12078 3.70344,-2.04037 6.86441,-4.93798 9.21841,-8.4504 l 38.6872,-22.65576 -11.01865,-17.92815 -36.96889,24.23796 c -4.22349,0.22844 -8.33082,1.46525 -11.97815,3.60692 z"
         fill="#ffb6b6" />
      <path
         d="m 724.9347,124.84081 c -1.15613,-0.45818 -11.30029,-4.29973 -20.56133,0.77222 -10.63836,5.8263 -12.28141,19.12643 -12.85772,23.79133 -1.33125,10.77601 2.59074,13.19133 3.41866,24.10068 1.54899,20.4102 5.63336,-2.8739 -0.88939,6.44247 -2.2578,3.22481 -25.31723,53.19804 -38.03446,62.98648 -24.73342,19.03731 -40.43943,32.44418 -40.43943,32.44418 l 17.93045,19.47744 c 0,0 28.33331,-7.54935 53.37617,-23.81018 25.68825,-16.67995 38.53244,-25.0199 48.46938,-41.33509 0.85574,-1.40497 21.33113,-36.17595 10.33482,-74.6244 -2.50819,-8.76995 -7.10385,-24.83851 -20.74714,-30.24513 z"
         fill="#191558"
         id="path22" />
    </g>
    <path
       d="m 817.52213,644.87213 -1.60291,74.80242 c -0.15517,7.24107 -6.06962,13.03015 -13.31236,13.03015 H 665.0043 c -7.07149,0 -12.90955,-5.52763 -13.29556,-12.58857 l -4.08931,-74.80242 c -0.41702,-7.62814 5.65604,-14.04226 13.29556,-14.04226 h 143.29478 c 7.46556,0 13.4723,6.13683 13.31236,13.60068 z"
       fill="#3f3d56"
       id="path23" />
  </g>
</svg>
