<?xml version="1.0" encoding="UTF-8"?>
<svg id="Calque_1" data-name="Calque 1" xmlns="http://www.w3.org/2000/svg" viewBox="0 0 387.8 331.6">
  <defs>
    <style>
      .cls-1 {
        fill: none;
      }

      .cls-2, .cls-3 {
        fill: #f0f0f8;
      }

      .cls-4 {
        fill: #f5f5f5;
      }

      .cls-5 {
        fill: #eec1bb;
      }

      .cls-6, .cls-7, .cls-8, .cls-9, .cls-10, .cls-11, .cls-12 {
        fill: #fff;
      }

      .cls-13, .cls-14, .cls-15 {
        fill: #191558;
      }

      .cls-16 {
        fill: #263238;
      }

      .cls-17 {
        letter-spacing: 0em;
      }

      .cls-7, .cls-8, .cls-18, .cls-9, .cls-10, .cls-14, .cls-3, .cls-11, .cls-12, .cls-19, .cls-20, .cls-15 {
        isolation: isolate;
      }

      .cls-7, .cls-21, .cls-20 {
        opacity: .2;
      }

      .cls-8, .cls-22 {
        opacity: .3;
      }

      .cls-23 {
        letter-spacing: -.02em;
      }

      .cls-18 {
        opacity: .1;
      }

      .cls-9 {
        opacity: .7;
      }

      .cls-10, .cls-14 {
        opacity: .8;
      }

      .cls-3 {
        opacity: .9;
      }

      .cls-11, .cls-24 {
        opacity: .5;
      }

      .cls-12 {
        opacity: .6;
      }

      .cls-25 {
        letter-spacing: 0em;
      }

      .cls-26 {
        opacity: .4;
      }

      .cls-15 {
        font-family: Runda-Bold, Runda;
        font-size: 10px;
        font-weight: 700;
      }
    </style>
  </defs>
  <g id="freepik--background-simple--inject-2">
    <path class="cls-2" d="m336.3,225.3c19-22.3,35.2-52.2,32.6-86.6-3-39-29.2-72.3-57.1-93.5C269.1,12.8,219.5-.2,172,0c-38.5.2-77.6,9.4-106.7,37.1-29.1,27.7-46.5,76.8-35.6,124.5,7.4,32.5,26.7,60.7,48.9,81.5,33.4,31.2,70.7,53.6,110.4,53.2,36-.5,71.1-11.1,101.3-30.6,17.2-11.1,32.8-24.7,46-40.4Z"/>
    <path class="cls-3" d="m336.3,225.3c19-22.3,35.2-52.2,32.6-86.6-3-39-29.2-72.3-57.1-93.5C269.1,12.8,219.5-.2,172,0c-38.5.2-77.6,9.4-106.7,37.1-29.1,27.7-46.5,76.8-35.6,124.5,7.4,32.5,26.7,60.7,48.9,81.5,33.4,31.2,70.7,53.6,110.4,53.2,36-.5,71.1-11.1,101.3-30.6,17.2-11.1,32.8-24.7,46-40.4Z"/>
  </g>
  <g id="freepik--Shadow--inject-2">
    <ellipse id="freepik--path--inject-2" class="cls-4" cx="193.9" cy="320.3" rx="193.9" ry="11.3"/>
  </g>
  <g id="freepik--Thesis--inject-2">
    <polygon class="cls-16" points="135.7 38.2 125.1 159.1 38 151.5 45.1 160 132.2 167.6 142.8 46.7 135.7 38.2"/>
    <polygon class="cls-11" points="135.7 38.2 125.1 159.1 38 151.5 45.1 160 132.2 167.6 142.8 46.7 135.7 38.2"/>
    <rect class="cls-13" x="26.15" y="51.21" width="121.4" height="87.4" transform="translate(-15.27 173.16) rotate(-85)"/>
    <rect class="cls-12" x="26.15" y="51.21" width="121.4" height="87.4" transform="translate(-15.27 173.16) rotate(-85)"/>
    <path class="cls-16" d="m138.1,55.8h0c-.4,0-.7-.4-.7-.8h0l.3-3.2c0-.4.4-.7.8-.7h0c.4,0,.7.4.7.8l-.3,3.2c-.1.4-.4.7-.8.7h0Z"/>
    <path class="cls-16" d="m132.8,116h0c-.4,0-.7-.4-.7-.8h0l4.8-55.2c0-.4.4-.7.8-.7h0c.4,0,.7.4.7.8h0l-4.9,55.2c0,.4-.3.7-.7.7Z"/>
    <path class="cls-16" d="m130.2,145.3h0c-.4,0-.7-.4-.7-.8l2-23.4c0-.4.4-.7.8-.7h0c.4,0,.7.4.7.8l-2,23.4c0,.5-.4.8-.8.7Z"/>
    <path class="cls-16" d="m129.4,155h0c-.4,0-.7-.4-.7-.8h0l.4-4.3c0-.4.4-.7.8-.7h0c.4,0,.7.4.7.8l-.4,4.3c-.1.5-.4.8-.8.7Z"/>
    <path class="cls-16" d="m69.1,158.9l-15.3-1.3c-.4,0-.7-.4-.7-.8h0c0-.4.4-.7.8-.7l15.3,1.3c.4,0,.7.4.7.8h0c0,.4-.4.7-.8.7Z"/>
    <path class="cls-16" d="m106.5,162.2l-30.7-2.7c-.4,0-.7-.4-.7-.8h0c0-.4.4-.7.8-.7h0l30.7,2.7c.4,0,.7.4.7.8h0c0,.4-.4.7-.8.7h0Z"/>
    <path class="cls-16" d="m115.1,162.9l-4.2-.4c-.4,0-.7-.4-.7-.8h0c0-.4.4-.7.8-.7h0l4.2.4c.4,0,.7.4.7.8h0c0,.5-.4.8-.8.7h0Z"/>
    <g class="cls-26">
      <path class="cls-6" d="m138.1,55.8h0c-.4,0-.7-.4-.7-.8h0l.3-3.2c0-.4.4-.7.8-.7h0c.4,0,.7.4.7.8l-.3,3.2c-.1.4-.4.7-.8.7h0Z"/>
      <path class="cls-6" d="m132.8,116h0c-.4,0-.7-.4-.7-.8h0l4.8-55.2c0-.4.4-.7.8-.7h0c.4,0,.7.4.7.8h0l-4.9,55.2c0,.4-.3.7-.7.7Z"/>
      <path class="cls-6" d="m130.2,145.3h0c-.4,0-.7-.4-.7-.8l2-23.4c0-.4.4-.7.8-.7h0c.4,0,.7.4.7.8l-2,23.4c0,.5-.4.8-.8.7Z"/>
      <path class="cls-6" d="m129.4,155h0c-.4,0-.7-.4-.7-.8h0l.4-4.3c0-.4.4-.7.8-.7h0c.4,0,.7.4.7.8l-.4,4.3c-.1.5-.4.8-.8.7Z"/>
      <path class="cls-6" d="m69.1,158.9l-15.3-1.3c-.4,0-.7-.4-.7-.8h0c0-.4.4-.7.8-.7l15.3,1.3c.4,0,.7.4.7.8h0c0,.4-.4.7-.8.7Z"/>
      <path class="cls-6" d="m106.5,162.2l-30.7-2.7c-.4,0-.7-.4-.7-.8h0c0-.4.4-.7.8-.7h0l30.7,2.7c.4,0,.7.4.7.8h0c0,.4-.4.7-.8.7h0Z"/>
      <path class="cls-6" d="m115.1,162.9l-4.2-.4c-.4,0-.7-.4-.7-.8h0c0-.4.4-.7.8-.7h0l4.2.4c.4,0,.7.4.7.8h0c0,.5-.4.8-.8.7h0Z"/>
    </g>
    <path class="cls-16" d="m53,80.9c-3.1.4-12.4-1.1-12.4-1.1l-2.1,24s9.4.1,12.4,1.1c.9.5,1.8,1,2.6,1.6l2.3-26.7c-.9.5-1.9.9-2.8,1.1Z"/>
    <path d="m51.7,105.3c.8.5,1.8,1.1,1.8,1.1l2.3-26.7s-1,.5-1.9.8l-2.2,24.8Z"/>
    <path class="cls-16" d="m53.7,107.9h0c-.7-.1-1.2-.7-1.2-1.4l2.3-26.8c.1-.7.7-1.2,1.4-1.2h0c.7.1,1.2.7,1.2,1.4h0l-2.3,26.8c0,.7-.6,1.2-1.4,1.2h0Z"/>
    <path class="cls-16" d="m52.3,86.7l-1.1,12.4-8.5-3.6c-.3-.1-.7-.1-.9.2-1.1,1-2.5,1.4-3.9,1.3-1,0-1.9-.5-2.5-1.2-1.1-1.4-.9-3.8-.6-5.9.3-2.1,2.2-3.5,4.2-3.3,1.3.2,2.6.9,3.4,1.9.2.3.5.4.9.3l9-2.1Zm-2,10.8l.8-9.4-7.5,1.7c-.7.2-1.5-.1-2-.7-.7-.8-1.6-1.4-2.7-1.5-1.5-.1-2.8.9-3,2.4-.3,1.8-.5,3.9.4,5,.4.5,1.1.8,1.7.8,1.1.1,2.2-.3,3.1-1,.6-.5,1.4-.7,2.1-.4l7.1,3.1Z"/>
    <g class="cls-24">
      <path class="cls-6" d="m52.3,86.7l-1.1,12.4-8.5-3.6c-.3-.1-.7-.1-.9.2-1.1,1-2.5,1.4-3.9,1.3-1,0-1.9-.5-2.5-1.2-1.1-1.4-.9-3.8-.6-5.9.3-2.1,2.2-3.5,4.2-3.3,1.3.2,2.6.9,3.4,1.9.2.3.5.4.9.3l9-2.1Zm-2,10.8l.8-9.4-7.5,1.7c-.7.2-1.5-.1-2-.7-.7-.8-1.6-1.4-2.7-1.5-1.5-.1-2.8.9-3,2.4-.3,1.8-.5,3.9.4,5,.4.5,1.1.8,1.7.8,1.1.1,2.2-.3,3.1-1,.6-.5,1.4-.7,2.1-.4l7.1,3.1Z"/>
    </g>
    <path class="cls-16" d="m113.3,64.2l-47.1-4.1c-.6-.1-1.1-.6-1-1.2h0c.1-.6.6-1.1,1.2-1l47.1,4.1c.6.1,1.1.6,1,1.2h0c-.1.6-.6,1-1.2,1h0Z"/>
    <path class="cls-16" d="m106.5,70.5l-34.7-3c-.6-.1-1.1-.6-1-1.2h0c.1-.6.6-1.1,1.2-1l34.7,3c.6.1,1.1.6,1,1.2h0c-.1.6-.6,1.1-1.2,1Z"/>
    <path class="cls-16" d="m114.2,135.8c0,.4-.4.7-.8.7h0l-59.9-5.2c-.4,0-.7-.4-.7-.8h0c0-.4.4-.7.8-.7h0l59.9,5.2c.4,0,.7.4.7.8h0Z"/>
    <path class="cls-16" d="m107.4,142.1c0,.4-.4.7-.8.7h0l-47.5-4.2c-.4,0-.7-.4-.7-.8h0c0-.4.4-.7.8-.7h0l47.5,4.1c.4.1.7.5.7.9h0Z"/>
    <circle class="cls-13" cx="86.3" cy="100.7" r="13.4"/>
    <g>
      <rect class="cls-1" x="79.86" y="22.36" width="23.9" height="58.3" transform="translate(34.05 139.53) rotate(-86.02)"/>
      <g class="cls-19">
        <text class="cls-15" transform="translate(80.23 45.7) rotate(3.98)"><tspan class="cls-17" x="0" y="0">N</tspan><tspan class="cls-25" x="7.69" y="0">o</tspan><tspan x="13.67" y="0">te </tspan></text>
        <text class="cls-15" transform="translate(69.13 53.95) rotate(3.98)"><tspan x="0" y="0">d</tspan><tspan class="cls-23" x="6.23" y="0">’</tspan><tspan x="8.44" y="0">analyse</tspan></text>
      </g>
      <rect class="cls-1" x="59.4" y="34.6" width="6.5" height="11.5" transform="translate(18.05 100.05) rotate(-86.02)"/>
    </g>
  </g>
  <g id="freepik--Device--inject-2">
    <path class="cls-16" d="m260.7,195.1l-14-31.1h-32.8l5,29.1c.2,1.4-.7,2.8-2.1,3h-14.8c-.8,0-1.4.6-1.4,1.4h0v1.5c0,.8.6,1.4,1.4,1.4h57.7c.8,0,1.5-.7,1.5-1.5h0v-1.6c-.1-.7-.2-1.5-.5-2.2Zm-15.2-3.8h-15.8c-1,0-1.9-.7-2.1-1.8l-2.4-13.7c-.2-1.1.6-2.2,1.7-2.4h12.3c.8,0,1.6.5,1.9,1.2l6.2,13.7c.5,1.1,0,2.3-1.1,2.8-.2.2-.4.2-.7.2h0Z"/>
    <path class="cls-11" d="m260.7,195.1l-14-31.1h-32.8l5,29.1c.2,1.4-.7,2.8-2.1,3h-14.8c-.8,0-1.4.6-1.4,1.4h0v1.5c0,.8.6,1.4,1.4,1.4h57.7c.8,0,1.5-.7,1.5-1.5h0v-1.6c-.1-.7-.2-1.5-.5-2.2Zm-15.2-3.8h-15.8c-1,0-1.9-.7-2.1-1.8l-2.4-13.7c-.2-1.1.6-2.2,1.7-2.4h12.3c.8,0,1.6.5,1.9,1.2l6.2,13.7c.5,1.1,0,2.3-1.1,2.8-.2.2-.4.2-.7.2h0Z"/>
    <path class="cls-7" d="m245.5,191.3h-15.8c-1,0-1.9-.7-2.1-1.8l-2.4-13.7c-.2-1.1.6-2.2,1.7-2.4h12.3c.8,0,1.6.5,1.9,1.2l6.2,13.7c.5,1.1,0,2.3-1.1,2.8-.2.2-.4.2-.7.2h0Z"/>
    <path class="cls-16" d="m229.2,173.3h-1.9c-1.2,0-2.1.9-2.1,2.1h0v.4l2.4,13.7c.2,1,1,1.7,2.1,1.7h1.9c-1,0-1.9-.7-2.1-1.7l-2.4-13.7c-.2-1.1.6-2.2,1.7-2.4h0c.1-.1.3-.1.4-.1Z"/>
    <path class="cls-16" d="m262.5,195.1l-14-31.1h-1.9l14,31.1c.3.7.5,1.5.5,2.3v1.6c0,.8-.7,1.5-1.5,1.5h1.9c.8,0,1.5-.7,1.5-1.5v-1.6c0-.8-.2-1.6-.5-2.3Z"/>
    <polygon class="cls-20" points="246.6 164 213.8 164 215.1 171.5 250 171.5 246.6 164"/>
    <path class="cls-16" d="m293.7,167.3h-139.9c-2.5,0-4.6-2-4.7-4.5v-.6l8.8-101.1c.3-2.9,2.7-5.1,5.6-5.1h139.9c2.5-.1,4.6,2,4.7,4.5h0v.6l-8.9,101.1c-.3,2.8-2.7,5.1-5.5,5.1Z"/>
    <path class="cls-13" d="m150.1,151.2l-1,10.9c-.3,2.5,1.5,4.8,4,5.1h140.5c2.9,0,5.3-2.2,5.6-5.1l1-10.9h-150.1Z"/>
    <path class="cls-9" d="m150.1,151.2l-1,10.9c-.3,2.5,1.5,4.8,4,5.1h140.5c2.9,0,5.3-2.2,5.6-5.1l1-10.9h-150.1Z"/>
    <path class="cls-13" d="m295.2,148.2h-139.7c-1.4,0-2.5-1.1-2.5-2.4h0v-.3l7.3-83.5c.2-1.5,1.4-2.7,3-2.8h139.7c1.4,0,2.5,1.1,2.5,2.4h0v.3l-7.3,83.5c-.1,1.5-1.4,2.7-3,2.8Z"/>
    <path class="cls-14" d="m295.2,148.2h-139.7c-1.4,0-2.5-1.1-2.5-2.4h0v-.3l7.3-83.5c.2-1.5,1.4-2.7,3-2.8h139.7c1.4,0,2.5,1.1,2.5,2.4h0v.3l-7.3,83.5c-.1,1.5-1.4,2.7-3,2.8Z"/>
    <path class="cls-13" d="m306.5,56h-3.1c2.5-.1,4.6,2,4.7,4.5h0v.6l-8.9,101.1c-.3,2.9-2.7,5.1-5.6,5.1h3.1c2.9,0,5.3-2.3,5.5-5.1l8.8-101.1c.3-2.5-1.5-4.8-4.1-5.1h-.4Z"/>
    <path class="cls-7" d="m306.5,56h-3.1c2.5-.1,4.6,2,4.7,4.5h0v.6l-8.9,101.1c-.3,2.9-2.7,5.1-5.6,5.1h3.1c2.9,0,5.3-2.3,5.5-5.1l8.8-101.1c.3-2.5-1.5-4.8-4.1-5.1h-.4Z"/>
    <polygon class="cls-13" points="190.1 147.5 254.2 147.5 261.6 63.4 197.5 63.4 190.1 147.5"/>
    <polygon class="cls-9" points="190.1 147.5 254.2 147.5 261.6 63.4 197.5 63.4 190.1 147.5"/>
    <path class="cls-16" d="m213.2,74.2h32.3c.4,0,.8-.3.8-.8h0c0-.4-.2-.7-.6-.7h-32.4c-.4,0-.8.3-.8.8h0c0,.4.3.7.7.7h0Z"/>
    <path class="cls-16" d="m202.4,115.4h39.5c.4,0,.8-.3.8-.8h0c0-.4-.2-.7-.6-.7h-39.6c-.4,0-.8.3-.8.8h0c0,.3.2.7.7.7-.1,0,0,0,0,0Z"/>
    <path class="cls-16" d="m202,119.8h45.2c.4,0,.8-.3.8-.8h0c0-.4-.2-.7-.6-.7h-45.3c-.4,0-.8.3-.8.8h0c0,.3.2.7.7.7h0Z"/>
    <path class="cls-16" d="m201.6,124.2h45.2c.4,0,.8-.3.8-.8h0c0-.4-.2-.7-.6-.8h-45.3c-.4,0-.8.3-.8.8h0c0,.4.3.8.7.8h0Z"/>
    <path class="cls-16" d="m201.2,128.6h45.2c.4,0,.8-.3.8-.8h0c0-.4-.2-.7-.6-.8h-45.3c-.4,0-.8.3-.8.8h0c0,.4.3.8.7.8h0Z"/>
    <path class="cls-16" d="m200.9,133h39.5c.4,0,.8-.3.8-.8h0c0-.4-.2-.7-.6-.8h-39.6c-.4,0-.8.3-.8.8h0c0,.4.2.7.6.8h.1Z"/>
    <path class="cls-16" d="m200.5,137.4h45.2c.4,0,.8-.3.8-.8h0c0-.4-.2-.7-.6-.8h-45.3c-.4,0-.8.3-.8.8h0c-.1.4.2.8.7.8q-.1,0,0,0Z"/>
    <path class="cls-16" d="m200.1,141.8h45.2c.4,0,.8-.3.8-.8h0c0-.4-.2-.7-.6-.8h-45.3c-.4,0-.8.3-.8.8h0c0,.4.2.8.7.8-.1,0,0,0,0,0Z"/>
    <path class="cls-16" d="m216.6,79.3h24.7c.4,0,.8-.3.8-.8h0c0-.4-.2-.7-.6-.8h-24.8c-.4,0-.8.3-.8.8h0c0,.4.2.7.7.8-.1,0,0,0,0,0Z"/>
    <path class="cls-16" d="m220.2,84.3h16.7c.4,0,.8-.3.8-.8h0c0-.4-.2-.7-.6-.8h-16.8c-.4,0-.8.3-.8.8h0c0,.4.2.7.7.8-.1,0,0,0,0,0Z"/>
    <g class="cls-26">
      <path class="cls-6" d="m213.2,74.2h32.3c.4,0,.8-.3.8-.8h0c0-.4-.2-.7-.6-.7h-32.4c-.4,0-.8.3-.8.8h0c0,.4.3.7.7.7h0Z"/>
      <path class="cls-6" d="m202.4,115.4h39.5c.4,0,.8-.3.8-.8h0c0-.4-.2-.7-.6-.7h-39.6c-.4,0-.8.3-.8.8h0c0,.3.2.7.7.7-.1,0,0,0,0,0Z"/>
      <path class="cls-6" d="m202,119.8h45.2c.4,0,.8-.3.8-.8h0c0-.4-.2-.7-.6-.7h-45.3c-.4,0-.8.3-.8.8h0c0,.3.2.7.7.7h0Z"/>
      <path class="cls-6" d="m201.6,124.2h45.2c.4,0,.8-.3.8-.8h0c0-.4-.2-.7-.6-.8h-45.3c-.4,0-.8.3-.8.8h0c0,.4.3.8.7.8h0Z"/>
      <path class="cls-6" d="m201.2,128.6h45.2c.4,0,.8-.3.8-.8h0c0-.4-.2-.7-.6-.8h-45.3c-.4,0-.8.3-.8.8h0c0,.4.3.8.7.8h0Z"/>
      <path class="cls-6" d="m200.9,133h39.5c.4,0,.8-.3.8-.8h0c0-.4-.2-.7-.6-.8h-39.6c-.4,0-.8.3-.8.8h0c0,.4.2.7.6.8h.1Z"/>
      <path class="cls-6" d="m200.5,137.4h45.2c.4,0,.8-.3.8-.8h0c0-.4-.2-.7-.6-.8h-45.3c-.4,0-.8.3-.8.8h0c-.1.4.2.8.7.8q-.1,0,0,0Z"/>
      <path class="cls-6" d="m200.1,141.8h45.2c.4,0,.8-.3.8-.8h0c0-.4-.2-.7-.6-.8h-45.3c-.4,0-.8.3-.8.8h0c0,.4.2.8.7.8-.1,0,0,0,0,0Z"/>
      <path class="cls-6" d="m216.6,79.3h24.7c.4,0,.8-.3.8-.8h0c0-.4-.2-.7-.6-.8h-24.8c-.4,0-.8.3-.8.8h0c0,.4.2.7.7.8-.1,0,0,0,0,0Z"/>
      <path class="cls-6" d="m220.2,84.3h16.7c.4,0,.8-.3.8-.8h0c0-.4-.2-.7-.6-.8h-16.8c-.4,0-.8.3-.8.8h0c0,.4.2.7.7.8-.1,0,0,0,0,0Z"/>
    </g>
    <polygon class="cls-11" points="202.3 108 249 108 250.5 90.1 203.8 90.1 202.3 108"/>
  </g>
  <g id="freepik--graduation-cap--inject-2">
    <rect class="cls-16" x="151.1" y="161.8" width="40.9" height="38.6"/>
    <rect class="cls-16" x="111.1" y="161.8" width="40.9" height="38.6"/>
    <rect class="cls-16" x="150.7" y="160.4" width="41.3" height="5.4"/>
    <rect class="cls-16" x="150.7" y="156.4" width="73.9" height="6.2"/>
    <rect class="cls-20" x="111.1" y="161.8" width="40.9" height="38.6"/>
    <rect class="cls-20" x="150.7" y="160.4" width="41.3" height="5.4"/>
    <rect class="cls-20" x="150.7" y="156.4" width="73.9" height="6.2"/>
    <rect class="cls-16" x="78.5" y="156.4" width="73.9" height="6.2"/>
    <path class="cls-13" d="m78.6,222.2h0c.6,0,1-.4,1-1v-60.6c0-1.8,1.4-3.2,3.2-3.2h68.7c.6,0,1-.4,1-1h0c0-.6-.4-1-1-1h-68.7c-2.9,0-5.2,2.3-5.2,5.2v60.6c0,.6.4,1,1,1Z"/>
    <path class="cls-13" d="m78.3,224.8c3.7,0,6.7,4.8,6.7,10.7v7.6h-3.3c-.4,0-2.4-.4-2.4-7.7,0,0-1.1,7.7.7,7.7h-2.8s-1.7-.3-1.7-4.4v-6.2s-2.7,10.5,0,10.5h-3.9v-7.6c.1-5.8,3-10.6,6.7-10.6Z"/>
    <path class="cls-13" d="m76.1,223.2h4.5c.6,0,1-.4,1-1h0c0-.6-.4-1-1-1h-4.5c-.6,0-1,.4-1,1h0c0,.6.4,1,1,1Z"/>
    <path class="cls-13" d="m76.1,225.2h4.5c.6,0,1-.4,1-1h0c0-.6-.4-1-1-1h-4.5c-.6,0-1,.4-1,1h0c0,.6.4,1,1,1Z"/>
  </g>
  <g id="freepik--Books--inject-2">
    <path class="cls-13" d="m288.4,279.5H106.2v38h182.3c-1.7-12.6-1.7-25.4-.1-38Z"/>
    <path class="cls-9" d="m288.4,279.5H106.2v38h182.3c-1.7-12.6-1.7-25.4-.1-38Z"/>
    <path class="cls-13" d="m139.4,319.5h-57.3l-.6-.6c-11.4-11.4-11.4-29.9,0-41.3h0l.6-.6h57.3l-3.4,3.4c-9.8,9.8-9.8,25.8,0,35.6l3.4,3.5Z"/>
    <g class="cls-22">
      <path d="m139.4,319.5h-57.3l-.6-.6c-11.4-11.4-11.4-29.9,0-41.3h0l.6-.6h57.3l-3.4,3.4c-9.8,9.8-9.8,25.8,0,35.6l3.4,3.5Z"/>
    </g>
    <path class="cls-13" d="m290.3,319.5h-154.7l-.2-.2c-5.4-5.3-8.6-12.4-9-20-.3-8.1,2.8-16,8.6-21.7l.6-.6h154.7c1.1,0,2,.9,2,2h0c0,1.1-.9,2-2,2h-153c-9.1,9.7-9.1,24.8,0,34.5h153c1.1,0,2,.9,2,2h0c-.1,1.1-.9,2-2,2Z"/>
    <path class="cls-6" d="m274.1,293.6h-8.8c-.8,0-1.5-.7-1.5-1.5h0c0-.8.7-1.5,1.5-1.5h8.8c.8,0,1.5.7,1.5,1.5h0c0,.8-.7,1.5-1.5,1.5Z"/>
    <path class="cls-6" d="m253.9,293.6h-81.3c-.8,0-1.5-.7-1.5-1.5h0c0-.8.7-1.5,1.5-1.5h81.3c.8,0,1.5.7,1.5,1.5h0c0,.8-.7,1.5-1.5,1.5Z"/>
    <path class="cls-6" d="m161.6,293.6h-18c-.8,0-1.5-.7-1.5-1.5h0c0-.8.7-1.5,1.5-1.5h18c.8,0,1.5.7,1.5,1.5h0c0,.8-.7,1.5-1.5,1.5Z"/>
    <path class="cls-6" d="m274.1,306.3h-77c-.8,0-1.5-.7-1.5-1.5h0c0-.8.7-1.5,1.5-1.5h77c.8,0,1.5.7,1.5,1.5h0c0,.9-.7,1.5-1.5,1.5Z"/>
    <path class="cls-6" d="m185.9,306.3h-42.3c-.8,0-1.5-.7-1.5-1.5h0c0-.8.7-1.5,1.5-1.5h42.3c.8,0,1.5.7,1.5,1.5h0c0,.9-.7,1.5-1.5,1.5Z"/>
    <path class="cls-13" d="m283.6,202.8H119.6v34.2h164.1c-1.6-11.4-1.6-22.9-.1-34.2Z"/>
    <path class="cls-10" d="m283.6,202.8H119.6v34.2h164.1c-1.6-11.4-1.6-22.9-.1-34.2Z"/>
    <path class="cls-13" d="m149.4,238.8h-51.5l-.5-.5c-10.3-10.3-10.3-26.9,0-37.2h0l.5-.5h51.5l-3.1,3.1c-8.9,8.9-8.9,23.2,0,32.1l3.1,3Z"/>
    <g class="cls-21">
      <path class="cls-6" d="m149.4,238.8h-51.5l-.5-.5c-10.3-10.3-10.3-26.9,0-37.2h0l.5-.5h51.5l-3.1,3.1c-8.9,8.9-8.9,23.2,0,32.1l3.1,3Z"/>
    </g>
    <path class="cls-13" d="m285.2,238.8h-139.2l-.1-.2c-4.9-4.8-7.7-11.2-8.1-18-.3-7.3,2.5-14.4,7.7-19.5l.5-.5h139.2c1,0,1.8.8,1.8,1.8h0c0,1-.8,1.8-1.8,1.8h-137.7c-8.2,8.7-8.2,22.3,0,31h137.7c1,0,1.8.8,1.8,1.8h0c.1.9-.7,1.8-1.8,1.8q.1,0,0,0Z"/>
    <g class="cls-26">
      <path class="cls-6" d="m285.2,238.8h-139.2l-.1-.2c-4.9-4.8-7.7-11.2-8.1-18-.3-7.3,2.5-14.4,7.7-19.5l.5-.5h139.2c1,0,1.8.8,1.8,1.8h0c0,1-.8,1.8-1.8,1.8h-137.7c-8.2,8.7-8.2,22.3,0,31h137.7c1,0,1.8.8,1.8,1.8h0c.1.9-.7,1.8-1.8,1.8q.1,0,0,0Z"/>
    </g>
    <path class="cls-6" d="m270.7,215.5h-7.9c-.7,0-1.4-.6-1.4-1.4h0c0-.7.6-1.4,1.4-1.4h7.9c.7,0,1.3.6,1.3,1.4h0c0,.8-.6,1.4-1.3,1.4h0Z"/>
    <path class="cls-6" d="m252.5,215.5h-73.1c-.7,0-1.3-.6-1.4-1.3h0c0-.7.6-1.3,1.3-1.4h73.1c.7,0,1.3.6,1.4,1.3h0c0,.8-.6,1.4-1.3,1.4h0Z"/>
    <path class="cls-6" d="m169.4,215.5h-16.2c-.7,0-1.3-.6-1.4-1.3h0c0-.7.6-1.3,1.3-1.4h16.2c.7,0,1.3.6,1.4,1.3h0c.1.8-.5,1.4-1.3,1.4.1,0,0,0,0,0Z"/>
    <path class="cls-6" d="m270.7,226.9h-69.3c-.7,0-1.3-.6-1.4-1.3h0c0-.7.6-1.3,1.3-1.4h69.3c.7,0,1.3.6,1.3,1.4h0c.1.7-.5,1.3-1.2,1.3h0Z"/>
    <path class="cls-6" d="m191.3,226.9h-38c-.7,0-1.4-.6-1.4-1.3h0c0-.7.6-1.3,1.3-1.4h38c.7,0,1.3.6,1.4,1.3h0c0,.8-.6,1.4-1.3,1.4Z"/>
    <path class="cls-13" d="m289.3,241H125.3v34.2h164.1c-1.5-11.3-1.5-22.8-.1-34.2Z"/>
    <path class="cls-9" d="m289.3,241H125.3v34.2h164.1c-1.5-11.3-1.5-22.8-.1-34.2Z"/>
    <path class="cls-13" d="m155.2,277h-51.6l-.5-.5c-10.3-10.3-10.3-26.9,0-37.2h0l.5-.5h51.6l-3.1,3.1c-8.9,8.9-8.9,23.2,0,32.1h0l3.1,3Z"/>
    <path class="cls-13" d="m291,277h-139.2l-.1-.1c-4.9-4.8-7.7-11.2-8.1-18-.3-7.3,2.5-14.4,7.7-19.5l.5-.5h139.2c1,0,1.8.8,1.8,1.8h0c0,1-.8,1.8-1.8,1.8h-137.7c-8.2,8.7-8.2,22.3,0,31h137.7c1,0,1.8.8,1.8,1.8h0c0,.9-.8,1.7-1.8,1.7Z"/>
    <g class="cls-22">
      <path class="cls-6" d="m291,277h-139.2l-.1-.1c-4.9-4.8-7.7-11.2-8.1-18-.3-7.3,2.5-14.4,7.7-19.5l.5-.5h139.2c1,0,1.8.8,1.8,1.8h0c0,1-.8,1.8-1.8,1.8h-137.7c-8.2,8.7-8.2,22.3,0,31h137.7c1,0,1.8.8,1.8,1.8h0c0,.9-.8,1.7-1.8,1.7Z"/>
    </g>
    <path class="cls-6" d="m159,262.5h7.9c.7,0,1.4.6,1.4,1.4h0c0,.7-.6,1.3-1.4,1.4h-7.9c-.7,0-1.3-.6-1.4-1.4h0c.1-.8.7-1.4,1.4-1.4h0Z"/>
    <path class="cls-6" d="m177.2,262.5h73.1c.7,0,1.3.6,1.4,1.3h0c0,.7-.6,1.4-1.4,1.4h-73.1c-.7,0-1.4-.6-1.4-1.4h0c.1-.7.7-1.3,1.4-1.3h0Z"/>
    <path class="cls-6" d="m260.3,262.5h16.2c.7,0,1.3.6,1.3,1.3h0c0,.7-.6,1.4-1.3,1.4h-16.2c-.8,0-1.4-.6-1.4-1.3h0c0-.8.6-1.4,1.4-1.4-.1,0,0,0,0,0Z"/>
    <path class="cls-6" d="m159,251.1h69.3c.7,0,1.3.6,1.4,1.3h0c0,.7-.6,1.4-1.4,1.4h-69.3c-.7,0-1.3-.6-1.4-1.4h0c.1-.7.7-1.3,1.4-1.3h0Z"/>
    <path class="cls-6" d="m238.4,251.1h38c.7,0,1.3.6,1.3,1.3h0c0,.7-.6,1.4-1.3,1.4h-38c-.7,0-1.4-.6-1.4-1.4h0c.1-.7.7-1.3,1.4-1.3h0Z"/>
  </g>
  <g id="freepik--Character--inject-2">
    <path class="cls-16" d="m261.3,189.6c.1-4.2,5.4-5.8,5.4-5.8,0,0-.2-.4-.3-1,0,0,.5.6,3.2-.6s3.6-1.7,3.6-1.7c-1.7.3-3.4.9-5,1.6-.7.4-1.7.2-2.1-.6l-.1-.1c-.2-.5-.5-3.1.7-1.9,2.3,2.1,15.4-5.9,19.9-.8s-3.5,6.5-3.5,6.5c-7.9,2.2-12.6,8.4-14.7,11.8-.9,1.4-1.8.3-1.9-.1-.5-1.4-.2-2.1,2.7-5.5,0,0-1.7.8-3.4,4.1-.5-1-.9-1.7-1.6-.7s-1.6,1.1-2,.2c-.1-.2-.4-1.8,2.2-4.9-1.4.5-2.5,1.7-2.8,3.1-.3-1.2-.4-2.4-.3-3.6Z"/>
    <path class="cls-13" d="m285.2,184.6s1.1-4.7-5.9-2.4-2.8,5.1-2.8,5.1l8.7-2.7Z"/>
    <path class="cls-20" d="m285.2,184.6s1.1-4.7-5.9-2.4-2.8,5.1-2.8,5.1l8.7-2.7Z"/>
    <path class="cls-13" d="m287.1,186.6s1.4-5.6-7.1-2.8-3.4,6.2-3.4,6.2l10.5-3.4Z"/>
    <path class="cls-16" d="m284.1,222.3s2.4-5.9-9.5-8.1c-11.9-2.2-14.2.4-10.7,4.8l4.8,3.3,9.8,3.2,4.2-1.8,1.4-1.4Z"/>
    <path class="cls-20" d="m284.1,222.3s2.4-5.9-9.5-8.1c-11.9-2.2-14.2.4-10.7,4.8l4.8,3.3,9.8,3.2,4.2-1.8,1.4-1.4Z"/>
    <path class="cls-13" d="m241.8,262.2c-18.3,42.3,4.9,58.8,34,57.8,29.1-1,81.4-17.1,74.2-37.4-5.8-16.3-53.4-9-68.2-5.6l-7.5-11.8-32.5-3Z"/>
    <path class="cls-20" d="m241.8,262.2c-18.3,42.3,4.9,58.8,34,57.8,29.1-1,81.4-17.1,74.2-37.4-5.8-16.3-53.4-9-68.2-5.6l-7.5-11.8-32.5-3Z"/>
    <polygon class="cls-5" points="312.5 309.8 298.9 312.7 293.3 313.9 291.9 307.6 297.6 305.5 309.5 301.3 312.5 309.8"/>
    <polygon class="cls-20" points="312.5 309.8 298.9 312.7 297.6 305.5 309.5 301.3 312.5 309.8"/>
    <polygon class="cls-13" points="298.3 304.3 302.2 302.2 304.5 314 301 313.7 298.3 304.3"/>
    <polygon class="cls-8" points="298.3 304.3 302.2 302.2 304.5 314 301 313.7 298.3 304.3"/>
    <path class="cls-18" d="m281.8,277s62.3-9,59.2,2.5c-2.4,8.8-28.1,19.5-28.1,19.5-24-11.7-43.8-11.3-43.8-11.3l12.7-10.7Z"/>
    <path class="cls-16" d="m243.5,250.8c1.6-10,4.4-24,7.9-30,.5-1.1,1.3-2,2.3-2.6,0,0,1.4-.1,3.8-.1h.2c8.4.1,16.8,1.5,24.8,4.2,2.8.9,5.5,2,8.1,3.3,0,0-3.5,20.9-7.4,25s-9,14.6-9,14.6l-32.5-3c.1,0,.7-4.9,1.8-11.4Z"/>
    <path class="cls-5" d="m279.9,215.9c.6-1.3,1.2-2.6,1.9-3.8l-8.7-5.5v2.4c-.2,3-1.2,8.2-5.9,10,0,0,2,7.7,8.4,8.3h1c2.2-.4,3.8-2.5,3.4-4.7h0s-1.2-.5-1.2-2.5c.1-1.4.5-2.9,1.1-4.2Z"/>
    <path class="cls-20" d="m272.1,206.9c.1.8.2,1.6.2,2.4v.1s1.9,10.8,6.8,10.4c-.1-1.5.1-2.9.5-4.3.4-1.4.9-2.7,1.5-4l-9-4.6Z"/>
    <path class="cls-5" d="m279.1,219c9.7,3.9,14.5-1.5,17-12.5,2-8.8.7-14.1-7.7-16.7-13.9-4.2-22.6,21.7-9.3,29.2Z"/>
    <path class="cls-16" d="m273,211.1c-5.5-8.5.8-29.6,15.1-24.9,14.3,4.7,8.1,19.2,8.1,19.2,2.5-9.9-1.6-11.4-6.4-12.6-3.3-.9-6.8.6-8.4,3.6-1.4,2.4-3.8,4.1-6.5,4.9-3.7,3.4-1.8,9.8-1.9,9.8Z"/>
    <path class="cls-5" d="m286.4,239.8s2.9,19.1,4.8,22.8,13.9,16,13.9,16l3.2-1.7s-11.3-14.1-12.1-16.7-3.3-24.8-3.3-24.8l-6.5,4.4Z"/>
    <path class="cls-16" d="m284.4,238.2l1.5-8.3,4.7-4.4c3.5,1.9,4.2,12.8,4.3,17.3.1,3.9.2,12.8,1.7,16.6,1.7,4.4,11,15.4,11,15.4l-4.4,3.1s-11-9.2-14.1-16.4-4.7-23.3-4.7-23.3Z"/>
    <path class="cls-13" d="m292.7,315.3c0-.1.1-.1.2-.1s.1.1.2.1c0,.1,1,3.1.4,4.4-.1.2-.3.4-.6.5-.3.1-.6.1-.8-.1-.3-.8-.4-1.6-.1-2.4.1-.9.3-1.7.7-2.4Zm.5,3.8c.1-1.1-.1-2.2-.5-3.2-.5,1.4-.9,3.4-.4,3.8,0,.1.2.1.4,0,.2,0,.3-.2.3-.3.1,0,.2-.1.2-.3h0Z"/>
    <path class="cls-13" d="m292.7,315.2c0-.1.1-.1.2-.1s2.1.7,2.8,1.8c.2.3.2.7.1,1.1-.2.5-.4.6-.7.6-.9,0-2.2-2.2-2.4-3.2v-.2q0,.1,0,0Zm2.7,2.6c0-.2,0-.5-.1-.7-.6-.7-1.3-1.2-2.2-1.5.4,1,1.5,2.6,2,2.6.1,0,.2,0,.3-.3v-.1h0Z"/>
    <path class="cls-16" d="m292.9,316.4c-2.7,2-4.7,2.2-6.7,8.2-.5,1.3-3.9,0-3.2-3.1,1.1-5.2,1.4-4,2.4-8.5.8-3.8,1.2-6.5,1.8-9.6l.1-.2h0c.2-.6.9-.9,1.5-.6h0l6.6,2.9c.3.1.5.5.4.8l-1.7,8.5c-.3.6-.7,1.2-1.2,1.6Z"/>
    <polygon class="cls-5" points="319.4 306 332.7 310.1 338.1 311.7 336.3 317.9 330.3 316.9 317.8 314.9 319.4 306"/>
    <polygon class="cls-20" points="319.4 306 332.7 310.1 330.3 316.9 317.8 314.9 319.4 306"/>
    <path class="cls-13" d="m328.5,316.7c-28-2.4-60.1-12.8-60.1-12.8,0,0-5.2-5.1-6.5-1.4s7.8,16.5,7.8,16.5c0,0-13.4-2.4-20.7-12.1s-4.7-25.2,12.9-26,68.6,27.8,68.6,27.8l-2,8Z"/>
    <polygon class="cls-13" points="329.2 317.4 324.7 317.4 328.5 306 331.3 308 329.2 317.4"/>
    <polygon class="cls-8" points="329.2 317.4 324.7 317.4 328.5 306 331.3 308 329.2 317.4"/>
    <path class="cls-13" d="m339.4,310c-.1.1-.2.1-.3,0v-.1c0-.1-.5-3.3.3-4.4.2-.2.4-.3.6-.4.3-.1.6,0,.8.3.2.8.1,1.7-.2,2.4-.5.8-.8,1.5-1.2,2.2Zm0-3.9c-.2,1.1-.3,2.2-.1,3.2.7-1.3,1.4-3.2,1-3.7,0-.1-.1-.2-.4-.1-.2,0-.3.1-.4.3-.1.1-.1.2-.1.3h0Z"/>
    <path class="cls-13" d="m339.3,310h-.2c-.1,0-2-1-2.4-2.2-.1-.4-.1-.7.1-1.1.2-.5.5-.5.7-.5.8.2,1.8,2.5,1.8,3.6v.2Zm-2.2-3c-.1.2-.1.5,0,.7.4.8,1.1,1.4,1.9,1.8-.2-1.1-1-2.8-1.5-2.9-.1,0-.2,0-.3.3l-.1.1h0Z"/>
    <path class="cls-16" d="m339.3,308.9c3-1.5,5-1.4,8-7,.7-1.2,3.9.6,2.7,3.6-2,5-2,3.7-3.7,8-1.4,3.6-2.2,6.2-3.2,9.2l-.2.2h0c-.3.5-1,.7-1.6.4h0l-6-4c-.3-.2-.4-.5-.3-.8l3-8.1c.3-.7.8-1.2,1.3-1.5Z"/>
    <path class="cls-20" d="m251.9,263.1c-.8-1.3-1.6-2.8-2.3-4.2-2.2-4.7-2.9-16-3.1-23.9.7-3.2,1.6-6.4,2.7-9.6l5.7-2.6,2.7,4.5,1.7,3.5s1.7,21.1,6,26.1c2.8,3.2,5.6,6.2,7.2,8l-20.6-1.8Z"/>
    <path class="cls-5" d="m281,277.7s-18.9-17.7-20.7-22.5c-1.8-4.8-2.9-26.2-2.9-26.2l-8.6,4.1s5.1,26,6.7,28.5c2.1,3.5,21.7,17.9,21.7,17.9l3.8-1.8Z"/>
    <path class="cls-16" d="m253.7,218.1c6.7-1.6,5.5,14.5,5.7,19.6.2,4.1,1,13.2,2.9,17.3,2.8,5.9,16.6,19.9,16.6,19.9l-3.5,3.9s-18.2-12.8-21.2-17.4c-2.5-3.6-13.7-40-.5-43.3Z"/>
    <path class="cls-20" d="m288.7,235.5c0,4.2,0,14.3-1.4,20-.7-3-1.3-6.2-1.8-9.1,1.3-3.5,2.4-7.2,3.2-10.9Z"/>
    <path class="cls-16" d="m275.8,199.9s3.6,1.5.9,5.5c.4-1.9.1-3.9-.9-5.5Z"/>
    <path class="cls-16" d="m275.5,232.2s11.8-9.9,7.7-11.6-9.7,7.4-7.7,11.6Z"/>
    <path class="cls-20" d="m264.1,222.1l-3-3.9c1.9.1,3.8.3,5.7.5l3.6,4.3,2.8,4.5,1.5,1.7v2.2c-.1-.1-7.2-4.8-10.6-9.3Z"/>
    <path class="cls-16" d="m275.6,232.8s0-15.9-10.3-18.1c-10.4-2.1,10.6,16.7,10.3,18.1Z"/>
    <path class="cls-16" d="m296.9,198v-.2c1.5-.1,4.7.1,4.4,3.3-.4,4.1-3.7,9.5-1.6,11.8,0,0-3.2-1.3-1-10.3.9-3.5-.8-4.4-1.8-4.6Z"/>
    <path class="cls-5" d="m273.3,206.5c-6.1-3.2-3.2-8.2-.5-7.7h0c2.1.4,3.4,2.5,2.9,4.6h0c-.7,2.8-1.5,3.5-2.4,3.1Z"/>
    <path class="cls-5" d="m308.5,276l7-.8c.4,0,.7.1,1,.4l3.6,4.1c.4.4.4,1.1-.1,1.5-.1,0-.1.1-.2.1l-1,.6c-.3.2-.6.2-.9.1l-6.2-1.9h-.1l-6.1-1c-.6-.1-1-.7-.9-1.3q0-.1.1-.2h0c.1-.3.4-.6.7-.7l3-.9h.1Z"/>
    <path class="cls-5" d="m280.5,277l7-.8c.4,0,.7.1,1,.4l3.6,4.1c.4.4.4,1.1-.1,1.5-.1,0-.1.1-.2.1l-1,.6c-.3.2-.6.2-.9.1l-6.2-1.9h-.1l-6.1-1c-.6-.1-1-.7-.9-1.2q0-.1.1-.2h0c.1-.3.4-.6.7-.7l3-.9.1-.1Z"/>
    <rect class="cls-16" x="299" y="281.6" width="17.2" height="2.8"/>
    <path class="cls-16" d="m300.4,284.4h-21.9c-.8,0-1.4-.6-1.4-1.4v-1.4h23.2v2.8h.1Z"/>
    <path class="cls-8" d="m300.4,284.4h-21.9c-.8,0-1.4-.6-1.4-1.4v-1.4h23.2v2.8h.1Z"/>
    <rect class="cls-16" x="294.2" y="282.5" width="2.8" height="1"/>
    <rect class="cls-16" x="289.9" y="282.5" width="2.8" height="1"/>
    <polygon class="cls-16" points="303.7 281.6 301.9 281.6 309.1 256.6 310.9 256.6 303.7 281.6"/>
    <polygon class="cls-8" points="303.7 281.6 301.9 281.6 309.1 256.6 310.9 256.6 303.7 281.6"/>
    <polygon class="cls-16" points="303 281.6 335.4 281.6 342.6 256.6 310.2 256.6 303 281.6"/>
    <polygon class="cls-12" points="303 281.6 335.4 281.6 342.6 256.6 310.2 256.6 303 281.6"/>
    <path class="cls-16" d="m301.5,281.6h33.7c.6,0,1,.6,1,1.4s-.5,1.4-1,1.4h-33.7c-.6,0-1-.6-1-1.4s.4-1.4,1-1.4Z"/>
    <path class="cls-11" d="m301.5,281.6h33.7c.6,0,1,.6,1,1.4s-.5,1.4-1,1.4h-33.7c-.6,0-1-.6-1-1.4s.4-1.4,1-1.4Z"/>
    <ellipse class="cls-16" cx="301.5" cy="283" rx="1" ry="1.4"/>
    <ellipse class="cls-8" cx="301.5" cy="283" rx="1" ry="1.4"/>
    <polygon class="cls-12" points="321.9 270.8 326.3 270.8 327.3 267.4 322.9 267.4 321.9 270.8"/>
  </g>
</svg>