<?xml version="1.0" encoding="UTF-8" standalone="no"?>
<!-- Generator: Adobe Illustrator 27.2.0, SVG Export Plug-In . SVG Version: 6.00 Build 0)  -->

<svg
   version="1.1"
   id="Calque_1"
   x="0px"
   y="0px"
   viewBox="0 0 451.14398 399.99999"
   xml:space="preserve"
   sodipodi:docname="version-partenaire-cabinet-comptable.svg"
   width="451.14398"
   height="400"
   inkscape:version="1.2.2 (732a01da63, 2022-12-09)"
   xmlns:inkscape="http://www.inkscape.org/namespaces/inkscape"
   xmlns:sodipodi="http://sodipodi.sourceforge.net/DTD/sodipodi-0.dtd"
   xmlns="http://www.w3.org/2000/svg"
   xmlns:svg="http://www.w3.org/2000/svg"><defs
   id="defs205" /><sodipodi:namedview
   id="namedview203"
   pagecolor="#ffffff"
   bordercolor="#000000"
   borderopacity="0.25"
   inkscape:showpageshadow="2"
   inkscape:pageopacity="0.0"
   inkscape:pagecheckerboard="0"
   inkscape:deskcolor="#d1d1d1"
   showgrid="false"
   inkscape:zoom="2.7976028"
   inkscape:cx="43.966213"
   inkscape:cy="126.89435"
   inkscape:window-width="2560"
   inkscape:window-height="1334"
   inkscape:window-x="-11"
   inkscape:window-y="-11"
   inkscape:window-maximized="1"
   inkscape:current-layer="Calque_1" />
<style
   type="text/css"
   id="style2">
	.st0{fill:#F0F0F8;}
	.st1{fill:#F5F5F5;}
	.st2{fill:#191558;}
	.st3{opacity:0.5;fill:#FFFFFF;enable-background:new    ;}
	.st4{fill:#FA595F;}
	.st5{fill:#FFFFFF;}
	.st6{fill:#263238;}
	.st7{fill:#407BFF;}
	.st8{opacity:0.5;}
	.st9{opacity:0.7;fill:#FFFFFF;enable-background:new    ;}
	.st10{fill:none;}
	.st11{fill:#FFC2BC;}
	.st12{opacity:0.1;enable-background:new    ;}
	.st13{opacity:0.3;enable-background:new    ;}
	.st14{fill:#E4897B;}
	.st15{opacity:0.2;enable-background:new    ;}
	.st16{opacity:0.4;fill:#FFFFFF;enable-background:new    ;}
	.st17{fill:#FA969A;}
	.st18{opacity:0.6;fill:#FFFFFF;enable-background:new    ;}
	.st19{opacity:0.2;fill:#FFFFFF;enable-background:new    ;}
	.st20{opacity:0.3;fill:#FFFFFF;enable-background:new    ;}
</style>
<g
   id="PEINT"
   transform="matrix(1.0896343,0,0,1.0896343,-0.05295244,-0.00473801)">
	<g
   id="freepik--background-simple--inject-246">
		<path
   id="Tracé_1230"
   class="st0"
   d="M 16.5,229.1 C 5.9,206.4 -0.6,181.4 0.1,156.1 c 0.9,-30 9.9,-60 27.2,-84 17.3,-24 43,-41.7 71.4,-46.6 28.4,-4.9 59,3.4 80.2,23.7 20.3,19.4 48,32 75.4,29.2 20.6,-2.1 40,-11.2 56.4,-24.5 19.9,-16 47.7,-17 67.8,-1.2 5.8,4.6 10.8,10 14.8,16.2 14.8,22.6 18.3,51.7 13.8,78.7 -4.5,26.9 -16.4,51.9 -30.4,75 -60.3,106.2 -288.3,161.1 -360.2,6.5 z" />
	</g>
	<g
   id="freepik--Shadow--inject-246">
		<ellipse
   id="freepik--path--inject-246"
   class="st1"
   cx="201.89999"
   cy="355.79999"
   rx="193.89999"
   ry="11.3" />
	</g>
	<g
   id="freepik--standard-option--inject-246">
		<path
   id="Tracé_1232"
   class="st2"
   d="m 173.6,13.7 h 58.5 c 10.2,0 18.6,8.3 18.6,18.5 0,0 0,0 0,0.1 v 158.8 c 0,10.2 -8.3,18.6 -18.5,18.6 0,0 -0.1,0 -0.1,0 h -58.5 c -10.2,0 -18.6,-8.3 -18.6,-18.5 0,0 0,-0.1 0,-0.1 V 32.4 c 0,-10.3 8.3,-18.6 18.6,-18.7 0,0 0,0 0,0 z" />
		<path
   id="Tracé_1233"
   class="st3"
   d="m 231.6,13.7 h -57.3 c -10.6,0 -19.2,8.6 -19.2,19.2 v 157.5 c 0,10.6 8.6,19.2 19.2,19.2 h 57.2 c 10.6,0 19.2,-8.6 19.3,-19.2 v 0 V 33 c 0.1,-10.5 -8.4,-19.2 -18.9,-19.3 -0.1,0 -0.2,0 -0.3,0 0,0 0,0 0,0 z" />
		<path
   id="Tracé_1234"
   class="st2"
   d="M 250.9,23.4 V 62.3 H 155.1 V 23.4 c 0,-5.3 4.3,-9.6 9.6,-9.6 h 76.5 c 5.3,0 9.6,4.3 9.7,9.6 0,0 0,0 0,0 0,0 0,0 0,0 z" />
		<path
   id="Tracé_1235"
   class="st2"
   d="m 183.8,178.9 h 40 c 5.4,0 9.8,4.4 9.8,9.8 v 0.8 c 0,5.4 -4.4,9.8 -9.8,9.8 h -40 c -5.4,0 -9.8,-4.4 -9.8,-9.8 v -0.8 c -0.1,-5.4 4.3,-9.7 9.8,-9.8 z" />
		<rect
   id="Rectangle_279"
   x="178.10001"
   y="137.10001"
   class="st2"
   width="49.400002"
   height="2" />
		<rect
   id="Rectangle_280"
   x="178.10001"
   y="104.3"
   class="st2"
   width="49.400002"
   height="2" />
		<rect
   id="Rectangle_281"
   x="178.10001"
   y="72.599998"
   class="st2"
   width="49.400002"
   height="2" />
		<circle
   id="Ellipse_32"
   class="st4"
   cx="201.89999"
   cy="121.1"
   r="8.6000004" />
		<path
   id="Tracé_1236"
   class="st5"
   d="m 208.1,119.3 -5,4.9 -2.3,2.3 -2.3,-2.3 2.3,-2.3 5,-4.9 z" />
		<path
   id="Tracé_1237"
   class="st5"
   d="m 203.1,124.2 -2.3,2.3 -4.9,-4.9 2.3,-2.3 2.6,2.6 z" />
		<circle
   id="Ellipse_33"
   class="st4"
   cx="202.7"
   cy="155.10001"
   r="8.6000004" />
		<path
   id="Tracé_1238"
   class="st5"
   d="m 208.9,153.3 -4.9,4.9 -2.3,2.3 -2.3,-2.3 2.3,-2.3 4.9,-4.9 z" />
		<path
   id="Tracé_1239"
   class="st5"
   d="m 203.9,158.2 -2.3,2.3 -4.9,-4.9 2.3,-2.3 2.6,2.6 z" />
		<circle
   id="Ellipse_34"
   class="st6"
   cx="201.89999"
   cy="89.5"
   r="8.5" />
		<circle
   id="Ellipse_35"
   class="st3"
   cx="201.89999"
   cy="89.5"
   r="8.5" />
		
			<rect
   id="Rectangle_282"
   x="196.8"
   y="87.900002"
   transform="matrix(0.7071,-0.7071,0.7071,0.7071,-4.1591,169.0391)"
   class="st5"
   width="10.4"
   height="3.2" />
		
			<rect
   id="Rectangle_283"
   x="200.39999"
   y="84.300003"
   transform="matrix(0.7071,-0.7071,0.7071,0.7071,-4.1591,169.0391)"
   class="st5"
   width="3.2"
   height="10.4" />
		<path
   id="Tracé_1240"
   class="st4"
   d="m 241.2,24.5 v 22.8 l 4.8,-4.8 v -18 z" />
		<path
   id="Tracé_1241"
   class="st4"
   d="m 250.9,24.5 v 22.8 l -4.8,-4.8 v -18 z" />
		<path
   id="Tracé_1242"
   class="st7"
   d="m 248.4,1.7 v 0 c 0.7,1.3 2.3,1.8 3.6,1.2 v 0 c 1.4,-0.7 3,-0.1 3.7,1.2 0,0 0,0.1 0,0.1 0.2,0.5 0.3,1.1 0.2,1.6 v 0 c -0.2,1.5 0.8,2.8 2.2,3.1 v 0 c 1.5,0.2 2.5,1.6 2.2,3.1 -0.1,0.5 -0.3,1 -0.7,1.4 v 0 c -1,1.1 -1,2.7 0,3.8 v 0 c 1,1.1 1,2.8 -0.1,3.9 -0.4,0.4 -0.9,0.6 -1.4,0.7 v 0 c -1.4,0.3 -2.4,1.6 -2.2,3.1 v 0 c 0.2,1.5 -0.8,2.9 -2.3,3.1 0,0 0,0 0,0 -0.5,0.1 -1.1,0 -1.6,-0.2 v 0 c -1.3,-0.6 -2.9,-0.1 -3.6,1.2 v 0 c -0.7,1.3 -2.4,1.8 -3.7,1.1 -0.5,-0.2 -0.9,-0.6 -1.1,-1.1 v 0 c -0.7,-1.3 -2.4,-1.9 -3.7,-1.2 v 0 c -1.4,0.7 -3,0.1 -3.7,-1.2 0,0 0,0 0,-0.1 C 236,26 235.9,25.4 236,24.9 v 0 c 0.2,-1.5 -0.8,-2.8 -2.2,-3.1 v 0 c -1.5,-0.3 -2.5,-1.7 -2.2,-3.2 0,0 0,0 0,0 0.1,-0.5 0.3,-1 0.7,-1.4 v 0 c 1,-1.1 1,-2.7 0,-3.8 v 0 c -1,-1.1 -1,-2.8 0.1,-3.9 0.4,-0.4 0.9,-0.6 1.4,-0.7 v 0 c 1.4,-0.3 2.4,-1.7 2.2,-3.1 v 0 c -0.2,-1.5 0.8,-2.9 2.3,-3.1 0,0 0,0 0,0 0.5,-0.1 1.1,0 1.6,0.2 v 0 c 1.3,0.6 2.9,0.1 3.6,-1.2 v 0 c 0.7,-1.3 2.4,-1.9 3.7,-1.2 0.5,0.4 0.9,0.8 1.2,1.3 z" />
		<path
   id="Tracé_1243"
   class="st4"
   d="m 248.4,1.7 v 0 c 0.7,1.3 2.3,1.8 3.6,1.2 v 0 c 1.4,-0.7 3,-0.1 3.7,1.2 0,0 0,0.1 0,0.1 0.2,0.5 0.3,1.1 0.2,1.6 v 0 c -0.2,1.5 0.8,2.8 2.2,3.1 v 0 c 1.5,0.2 2.5,1.6 2.2,3.1 -0.1,0.5 -0.3,1 -0.7,1.4 v 0 c -1,1.1 -1,2.7 0,3.8 v 0 c 1,1.1 1,2.8 -0.1,3.9 -0.4,0.4 -0.9,0.6 -1.4,0.7 v 0 c -1.4,0.3 -2.4,1.6 -2.2,3.1 v 0 c 0.2,1.5 -0.8,2.9 -2.3,3.1 0,0 0,0 0,0 -0.5,0.1 -1.1,0 -1.6,-0.2 v 0 c -1.3,-0.6 -2.9,-0.1 -3.6,1.2 v 0 c -0.7,1.3 -2.4,1.8 -3.7,1.1 -0.5,-0.2 -0.9,-0.6 -1.1,-1.1 v 0 c -0.7,-1.3 -2.4,-1.9 -3.7,-1.2 v 0 c -1.4,0.7 -3,0.1 -3.7,-1.2 0,0 0,0 0,-0.1 C 236,26 235.9,25.4 236,24.9 v 0 c 0.2,-1.5 -0.8,-2.8 -2.2,-3.1 v 0 c -1.5,-0.3 -2.5,-1.7 -2.2,-3.2 0,0 0,0 0,0 0.1,-0.5 0.3,-1 0.7,-1.4 v 0 c 1,-1.1 1,-2.7 0,-3.8 v 0 c -1,-1.1 -1,-2.8 0.1,-3.9 0.4,-0.4 0.9,-0.6 1.4,-0.7 v 0 c 1.4,-0.3 2.4,-1.7 2.2,-3.1 v 0 c -0.2,-1.5 0.8,-2.9 2.3,-3.1 0,0 0,0 0,0 0.5,-0.1 1.1,0 1.6,0.2 v 0 c 1.3,0.6 2.9,0.1 3.6,-1.2 v 0 c 0.7,-1.3 2.4,-1.9 3.7,-1.2 0.5,0.4 0.9,0.8 1.2,1.3 z" />
		<g
   id="Groupe_44"
   class="st8">
			<path
   id="Tracé_1244"
   class="st5"
   d="m 248.3,1.6 v 0 c 0.7,1.3 2.3,1.8 3.6,1.2 v 0 c 1.4,-0.7 3,-0.1 3.7,1.2 0,0 0,0.1 0,0.1 0.2,0.5 0.3,1.1 0.2,1.6 v 0 c -0.2,1.5 0.8,2.8 2.2,3.1 v 0 c 1.5,0.2 2.5,1.6 2.2,3.1 -0.1,0.5 -0.3,1 -0.7,1.4 v 0 c -1,1.1 -1,2.7 0,3.8 v 0 c 1,1.1 1,2.8 -0.1,3.9 -0.4,0.4 -0.9,0.6 -1.4,0.7 v 0 c -1.4,0.3 -2.4,1.6 -2.2,3.1 v 0 c 0.2,1.5 -0.8,2.9 -2.3,3.1 0,0 0,0 0,0 -0.5,0.1 -1.1,0 -1.6,-0.2 v 0 c -1.3,-0.6 -2.9,-0.1 -3.6,1.2 v 0 c -0.7,1.3 -2.4,1.8 -3.7,1.1 -0.5,-0.2 -0.9,-0.6 -1.1,-1.1 v 0 c -0.7,-1.3 -2.4,-1.9 -3.7,-1.2 v 0 c -1.4,0.7 -3,0.1 -3.7,-1.2 0,0 0,0 0,-0.1 -0.2,-0.5 -0.3,-1.1 -0.2,-1.6 v 0 c 0.2,-1.5 -0.8,-2.8 -2.2,-3.1 v 0 c -1.5,-0.3 -2.5,-1.7 -2.2,-3.2 0,0 0,0 0,0 0.1,-0.5 0.3,-1 0.7,-1.4 v 0 c 1,-1.1 1,-2.7 0,-3.8 v 0 c -1,-1.1 -1,-2.8 0.1,-3.9 0.4,-0.4 0.9,-0.6 1.4,-0.7 v 0 c 1.4,-0.3 2.4,-1.7 2.2,-3.1 v 0 c -0.2,-1.5 0.8,-2.9 2.3,-3.1 0,0 0,0 0,0 0.5,-0.1 1.1,0 1.6,0.2 v 0 c 1.3,0.6 2.9,0.1 3.6,-1.2 v 0 c 0.7,-1.3 2.4,-1.9 3.7,-1.2 0.5,0.3 0.9,0.8 1.2,1.3 z" />
		</g>
		<path
   id="Tracé_1245"
   class="st5"
   d="m 241.6,12.4 h -1.2 c -0.6,0 -1.1,0.4 -1.1,1 l -0.3,5.7 c 0,0.5 0.4,1 0.9,1.1 h 1.3 c 0.6,0 1.1,-0.5 1.1,-1.1 l 0.3,-5.7 c 0,-0.5 -0.4,-1 -0.9,-1 0,0 0,0 -0.1,0 z" />
		<path
   id="Tracé_1246"
   class="st5"
   d="m 251.6,12.4 h -2.9 l 0.8,-1.9 c 0.1,-0.2 0.1,-0.4 0.1,-0.6 l -0.2,-1.5 c -0.1,-0.6 -0.6,-1.1 -1.2,-1.1 h -1.5 c -0.1,1.5 -0.6,2.9 -1.6,4.1 l -0.9,1.1 c -0.2,0.3 -0.4,0.6 -0.4,1 l -0.3,5.3 c 0,0.7 0.5,1.3 1.2,1.3 0,0 0,0 0,0 h 5.2 c 0.4,0 0.9,-0.2 1.2,-0.5 l 0.5,-0.5 c 0.2,-0.2 0.3,-0.4 0.3,-0.7 l 1,-4.3 c 0.1,-0.4 0,-0.8 -0.2,-1.2 v 0 c -0.3,-0.3 -0.7,-0.5 -1.1,-0.5 z" />
	</g>
	<g
   id="freepik--basic-option--inject-246">
		<path
   id="Tracé_1247"
   class="st6"
   d="m 59.2,24.9 h 58.5 c 10.2,0 18.6,8.3 18.6,18.5 0,0 0,0 0,0.1 v 158.8 c 0,10.2 -8.3,18.6 -18.5,18.6 0,0 -0.1,0 -0.1,0 H 59.3 c -10.2,0 -18.6,-8.3 -18.6,-18.5 0,0 0,-0.1 0,-0.1 V 43.5 C 40.6,33.3 48.8,25 59.1,24.9 c 0,0 0.1,0 0.1,0 z" />
		<path
   id="Tracé_1248"
   class="st9"
   d="m 59.5,24.9 h 57.9 c 10.4,0 18.9,8.5 18.9,18.9 V 202 c 0,10.4 -8.5,18.9 -18.9,18.9 h -58 C 49,220.9 40.5,212.4 40.5,202 V 43.8 C 40.6,33.4 49,25 59.5,24.9 Z" />
		<path
   id="Tracé_1249"
   class="st7"
   d="M 136.4,34.5 V 73.4 H 40.5 V 34.5 c 0,-5.3 4.3,-9.6 9.6,-9.6 h 76.5 c 5.4,0 9.7,4.3 9.8,9.6 0,0 0,0 0,0 z" />
		<path
   id="Tracé_1250"
   class="st2"
   d="M 136.4,34.5 V 73.4 H 40.5 V 34.5 c 0,-5.3 4.3,-9.6 9.6,-9.6 h 76.5 c 5.4,0 9.7,4.3 9.8,9.6 0,0 0,0 0,0 z" />
		<circle
   id="Ellipse_36"
   class="st6"
   cx="87.099998"
   cy="134.10001"
   r="8.5" />
		<circle
   id="Ellipse_37"
   class="st3"
   cx="87.099998"
   cy="134.10001"
   r="8.5" />
		
			<rect
   id="Rectangle_284"
   x="81.800003"
   y="132.39999"
   transform="matrix(0.7071,-0.7071,0.7071,0.7071,-69.3008,100.7776)"
   class="st5"
   width="10.4"
   height="3.2" />
		
			<rect
   id="Rectangle_285"
   x="85.5"
   y="128.89999"
   transform="matrix(0.7071,-0.7071,0.7071,0.7071,-69.336,100.841)"
   class="st5"
   width="3.2"
   height="10.4" />
		<circle
   id="Ellipse_38"
   class="st4"
   cx="87.400002"
   cy="165.5"
   r="8.6000004" />
		<path
   id="Tracé_1251"
   class="st5"
   d="m 93.6,163.6 -4.9,5 -2.3,2.3 -2.3,-2.3 2.3,-2.3 4.9,-5 z" />
		<path
   id="Tracé_1252"
   class="st5"
   d="m 88.7,168.6 -2.3,2.3 -4.9,-4.9 2.3,-2.3 2.6,2.6 z" />
		<path
   id="Tracé_1253"
   class="st2"
   d="m 68.4,190.1 h 40 c 5.4,0 9.8,4.4 9.8,9.8 v 0.8 c 0,5.4 -4.4,9.8 -9.8,9.8 h -40 c -5.4,0 -9.8,-4.4 -9.8,-9.8 v -0.8 c 0,-5.4 4.4,-9.7 9.8,-9.8 z" />
		<rect
   id="Rectangle_286"
   x="62.799999"
   y="148.3"
   class="st2"
   width="49.400002"
   height="2" />
		<rect
   id="Rectangle_287"
   x="62.799999"
   y="115.5"
   class="st2"
   width="49.400002"
   height="2" />
		<rect
   id="Rectangle_288"
   x="62.799999"
   y="83.800003"
   class="st2"
   width="49.400002"
   height="2" />
		<circle
   id="Ellipse_39"
   class="st6"
   cx="87.099998"
   cy="100.6"
   r="8.5" />
		<circle
   id="Ellipse_40"
   class="st3"
   cx="87.099998"
   cy="100.6"
   r="8.5" />
		
			<rect
   id="Rectangle_289"
   x="81.800003"
   y="99"
   transform="matrix(0.7071,-0.7071,0.7071,0.7071,-45.6616,91.0222)"
   class="st5"
   width="10.4"
   height="3.2" />
		
			<rect
   id="Rectangle_290"
   x="85.400002"
   y="95.400002"
   transform="matrix(0.7071,-0.7071,0.7071,0.7071,-45.6616,91.0222)"
   class="st5"
   width="3.2"
   height="10.4" />
	</g>
	<rect
   id="Rectangle_291"
   x="50.5"
   y="38"
   class="st10"
   width="73"
   height="33.099998" />
	<g
   id="Groupe_45">
		<g
   id="Version">
			<g
   id="g57">
				<path
   class="st5"
   d="m 72.1,46 c -0.1,0.2 -0.2,0.2 -0.3,0.2 h -2.1 c -0.2,0 -0.3,-0.1 -0.4,-0.2 l -2.7,-7.5 c -0.1,-0.3 0,-0.4 0.3,-0.4 h 1.6 c 0.3,0 0.4,0.1 0.5,0.3 l 1.8,5.8 1.8,-5.7 c 0.1,-0.2 0.2,-0.3 0.5,-0.3 h 1.5 c 0.3,0 0.4,0.1 0.3,0.4 z"
   id="path55" />
			</g>
			<g
   id="g61">
				<path
   class="st5"
   d="m 79.7,45.9 c -0.6,0.3 -1.4,0.4 -2.3,0.4 -0.9,0 -1.8,-0.2 -2.3,-0.7 -0.5,-0.5 -0.8,-1.1 -0.8,-2 0,-0.9 0.3,-1.5 0.8,-2 0.5,-0.5 1.2,-0.7 2.1,-0.7 0.8,0 1.4,0.2 1.9,0.7 0.5,0.5 0.7,1 0.7,1.8 0,0.2 0,0.4 0,0.5 0,0.1 -0.1,0.1 -0.3,0.1 h -2.9 c 0.2,0.4 0.5,0.7 1.1,0.7 0.2,0 0.3,0 0.5,0 0.2,0 0.3,-0.1 0.4,-0.1 0.1,0 0.2,-0.1 0.4,-0.1 0.1,0 0.2,-0.1 0.3,-0.1 0.2,0 0.3,0 0.3,0.1 l 0.3,1 c 0,0.3 -0.1,0.4 -0.2,0.4 z M 77,42.6 c -0.3,0 -0.6,0.2 -0.7,0.6 h 1.3 c 0,-0.4 -0.2,-0.6 -0.6,-0.6 z"
   id="path59" />
			</g>
			<g
   id="g65">
				<path
   class="st5"
   d="m 80.6,46 v -4.5 c 0,-0.2 0.1,-0.2 0.2,-0.2 h 1.5 c 0.2,0 0.2,0.1 0.2,0.2 v 0.4 c 0.4,-0.5 0.9,-0.8 1.4,-0.8 0.3,0 0.5,0 0.7,0.1 0.1,0.1 0.2,0.2 0.1,0.3 l -0.3,1.4 c 0,0.1 -0.1,0.2 -0.3,0.1 -0.3,-0.1 -0.5,-0.1 -0.7,-0.1 -0.3,0 -0.6,0.1 -0.8,0.2 V 46 c 0,0.2 -0.1,0.2 -0.2,0.2 h -1.5 c -0.2,0 -0.3,-0.1 -0.3,-0.2 z"
   id="path63" />
			</g>
			<g
   id="g75">
				<path
   class="st5"
   d="m 87.4,44.9 c 0.2,0 0.3,-0.1 0.3,-0.2 0,-0.1 -0.1,-0.1 -0.2,-0.2 -0.1,-0.1 -0.3,-0.1 -0.7,-0.2 -1.2,-0.2 -1.8,-0.8 -1.8,-1.6 0,-0.5 0.2,-0.9 0.7,-1.2 0.5,-0.3 1,-0.5 1.8,-0.5 0.4,0 0.8,0 1.2,0.1 0.4,0.1 0.8,0.2 1,0.4 0.1,0.1 0.2,0.2 0.1,0.3 l -0.4,0.9 c -0.1,0.2 -0.2,0.3 -0.4,0.1 -0.5,-0.3 -1,-0.4 -1.5,-0.4 -0.2,0 -0.3,0 -0.3,0.2 0,0.1 0.1,0.1 0.2,0.2 0.1,0 0.4,0.1 0.8,0.2 0.6,0.1 1,0.3 1.3,0.5 0.3,0.2 0.4,0.6 0.4,1 0,1.2 -0.8,1.8 -2.6,1.8 -0.9,0 -1.7,-0.2 -2.3,-0.5 -0.2,-0.1 -0.2,-0.2 -0.1,-0.4 l 0.3,-0.9 c 0.1,-0.2 0.2,-0.2 0.4,-0.1 0.6,0.3 1.2,0.5 1.8,0.5 z"
   id="path67" />
				<path
   class="st5"
   d="m 91.7,40.6 c -0.3,0 -0.6,-0.1 -0.8,-0.3 -0.2,-0.2 -0.3,-0.5 -0.3,-0.8 0,-0.3 0.1,-0.6 0.3,-0.8 0.2,-0.2 0.5,-0.3 0.8,-0.3 0.3,0 0.6,0.1 0.8,0.3 0.2,0.2 0.3,0.5 0.3,0.8 0,0.3 -0.1,0.6 -0.3,0.8 -0.2,0.2 -0.5,0.3 -0.8,0.3 z m -1,5.4 v -4.5 c 0,-0.2 0.1,-0.2 0.2,-0.2 h 1.5 c 0.2,0 0.2,0.1 0.2,0.2 V 46 c 0,0.2 -0.1,0.2 -0.2,0.2 h -1.5 c -0.1,0 -0.2,-0.1 -0.2,-0.2 z"
   id="path69" />
				<path
   class="st5"
   d="m 98.7,45.7 c -0.5,0.5 -1.3,0.7 -2.2,0.7 -0.9,0 -1.6,-0.2 -2.2,-0.7 -0.6,-0.5 -0.8,-1.1 -0.8,-2 0,-0.9 0.3,-1.5 0.8,-2 0.5,-0.5 1.3,-0.7 2.2,-0.7 0.9,0 1.6,0.2 2.2,0.7 0.6,0.5 0.8,1.1 0.8,2 0,0.9 -0.3,1.5 -0.8,2 z m -2.8,-1.3 c 0.2,0.2 0.3,0.3 0.6,0.3 0.3,0 0.4,-0.1 0.6,-0.3 0.2,-0.2 0.2,-0.4 0.2,-0.7 0,-0.3 -0.1,-0.5 -0.2,-0.7 -0.1,-0.2 -0.3,-0.3 -0.6,-0.3 -0.3,0 -0.4,0.1 -0.6,0.3 -0.2,0.2 -0.2,0.4 -0.2,0.7 0,0.3 0.1,0.5 0.2,0.7 z"
   id="path71" />
				<path
   class="st5"
   d="m 100.3,46 v -4.5 c 0,-0.2 0.1,-0.2 0.2,-0.2 h 1.5 c 0.2,0 0.2,0.1 0.2,0.2 v 0.2 c 0.4,-0.4 0.9,-0.5 1.5,-0.5 0.6,0 1.1,0.2 1.4,0.5 0.4,0.3 0.5,0.8 0.5,1.5 V 46 c 0,0.2 -0.1,0.2 -0.2,0.2 H 104 c -0.2,0 -0.2,-0.1 -0.2,-0.2 v -2.4 c 0,-0.5 -0.2,-0.8 -0.7,-0.8 -0.3,0 -0.5,0.1 -0.8,0.3 v 2.8 c 0,0.2 -0.1,0.2 -0.2,0.2 h -1.5 c -0.3,0.1 -0.3,0 -0.3,-0.1 z"
   id="path73" />
			</g>
		</g>
		<g
   id="Simple">
			<g
   id="g90">
				<path
   class="st5"
   d="m 73,58.9 c 0.5,0 0.8,-0.2 0.8,-0.5 0,-0.2 -0.1,-0.3 -0.3,-0.4 -0.2,-0.1 -0.7,-0.3 -1.4,-0.5 -0.9,-0.3 -1.6,-0.6 -2.1,-1 -0.4,-0.4 -0.6,-1 -0.6,-1.6 0,-0.7 0.3,-1.3 0.8,-1.8 0.6,-0.5 1.3,-0.7 2.4,-0.7 1.1,0 2.2,0.3 3.2,0.9 0.1,0.1 0.2,0.2 0.1,0.3 l -0.6,1.3 c -0.1,0.1 -0.1,0.2 -0.2,0.2 -0.1,0 -0.2,0 -0.3,0 -1,-0.5 -1.8,-0.8 -2.4,-0.8 -0.6,0 -0.9,0.2 -0.9,0.5 0,0.2 0.1,0.3 0.3,0.4 0.2,0.1 0.7,0.3 1.5,0.5 0.8,0.2 1.5,0.5 1.9,0.9 0.4,0.4 0.6,0.9 0.6,1.6 0,0.8 -0.3,1.5 -0.9,1.9 -0.6,0.4 -1.3,0.7 -2.3,0.7 -1.2,0 -2.4,-0.3 -3.5,-0.8 -0.2,-0.1 -0.2,-0.2 -0.1,-0.4 l 0.6,-1.3 c 0.1,-0.2 0.2,-0.2 0.4,-0.1 0.4,0.2 0.7,0.3 0.9,0.4 0.2,0.1 0.5,0.2 0.8,0.3 0.7,0 1,0 1.3,0 z"
   id="path78" />
				<path
   class="st5"
   d="m 78,55 c -0.3,0 -0.6,-0.1 -0.8,-0.3 -0.2,-0.2 -0.3,-0.5 -0.3,-0.8 0,-0.3 0.1,-0.6 0.3,-0.8 0.2,-0.2 0.5,-0.3 0.8,-0.3 0.3,0 0.6,0.1 0.8,0.3 0.2,0.2 0.3,0.5 0.3,0.8 0,0.3 -0.1,0.6 -0.3,0.8 C 78.6,54.9 78.4,55 78,55 Z m -1,5.4 v -4.5 c 0,-0.2 0.1,-0.2 0.2,-0.2 h 1.5 c 0.2,0 0.2,0.1 0.2,0.2 v 4.5 c 0,0.2 -0.1,0.2 -0.2,0.2 H 77.2 C 77.1,60.6 77,60.5 77,60.4 Z"
   id="path80" />
				<path
   class="st5"
   d="m 80.1,60.4 v -4.5 c 0,-0.2 0.1,-0.2 0.2,-0.2 h 1.5 c 0.2,0 0.2,0.1 0.2,0.2 V 56 c 0.4,-0.4 0.9,-0.5 1.4,-0.5 0.7,0 1.2,0.2 1.5,0.7 0.5,-0.5 1,-0.7 1.7,-0.7 0.6,0 1,0.2 1.4,0.5 0.3,0.3 0.5,0.8 0.5,1.5 v 2.9 c 0,0.2 -0.1,0.2 -0.2,0.2 h -1.5 c -0.2,0 -0.2,-0.1 -0.2,-0.2 V 58 c 0,-0.5 -0.2,-0.8 -0.6,-0.8 -0.2,0 -0.4,0.1 -0.6,0.2 v 2.9 c 0,0.2 -0.1,0.2 -0.2,0.2 h -1.5 c -0.2,0 -0.2,-0.1 -0.2,-0.2 V 58 c 0,-0.5 -0.2,-0.8 -0.6,-0.8 -0.2,0 -0.4,0.1 -0.6,0.2 v 2.9 c 0,0.2 -0.1,0.2 -0.2,0.2 h -1.5 c -0.4,0.1 -0.5,0 -0.5,-0.1 z"
   id="path82" />
				<path
   class="st5"
   d="m 89.7,63.4 v -7.6 c 0,-0.2 0.1,-0.2 0.2,-0.2 h 1.5 c 0.2,0 0.2,0.1 0.2,0.2 V 56 c 0.4,-0.4 0.8,-0.5 1.4,-0.5 0.7,0 1.2,0.2 1.6,0.7 0.4,0.5 0.7,1.1 0.7,2 0,0.8 -0.2,1.5 -0.6,1.9 -0.4,0.5 -1,0.7 -1.7,0.7 -0.6,0 -1,-0.2 -1.4,-0.5 v 3.1 c 0,0.2 -0.1,0.2 -0.2,0.2 h -1.5 c -0.2,0 -0.2,-0.1 -0.2,-0.2 z m 2.8,-4.3 c 0.2,0 0.4,-0.1 0.6,-0.3 0.1,-0.2 0.2,-0.4 0.2,-0.7 0,-0.3 -0.1,-0.5 -0.2,-0.7 -0.1,-0.2 -0.3,-0.3 -0.6,-0.3 -0.3,0 -0.6,0.1 -0.8,0.4 v 1.1 c 0.3,0.3 0.5,0.5 0.8,0.5 z"
   id="path84" />
				<path
   class="st5"
   d="m 96.3,60.4 v -7.7 c 0,-0.2 0.1,-0.2 0.2,-0.2 H 98 c 0.2,0 0.2,0.1 0.2,0.2 v 7.7 c 0,0.2 -0.1,0.2 -0.2,0.2 h -1.5 c -0.1,0 -0.2,-0.1 -0.2,-0.2 z"
   id="path86" />
				<path
   class="st5"
   d="m 104.6,60.3 c -0.6,0.3 -1.4,0.4 -2.3,0.4 -0.9,0 -1.8,-0.2 -2.3,-0.7 -0.5,-0.5 -0.8,-1.1 -0.8,-2 0,-0.9 0.3,-1.5 0.8,-2 0.5,-0.5 1.2,-0.7 2.1,-0.7 0.8,0 1.4,0.2 1.9,0.7 0.5,0.5 0.7,1 0.7,1.8 0,0.2 0,0.4 0,0.5 0,0.1 -0.1,0.1 -0.3,0.1 h -2.9 c 0.2,0.4 0.5,0.7 1.1,0.7 0.2,0 0.3,0 0.5,0 0.2,0 0.3,-0.1 0.4,-0.1 0.1,0 0.2,-0.1 0.4,-0.1 0.1,0 0.2,-0.1 0.3,-0.1 0.2,0 0.3,0 0.3,0.1 l 0.3,1 c 0,0.3 -0.1,0.4 -0.2,0.4 z M 101.9,57 c -0.3,0 -0.6,0.2 -0.7,0.6 h 1.3 c 0,-0.4 -0.2,-0.6 -0.6,-0.6 z"
   id="path88" />
			</g>
		</g>
	</g>
	<rect
   id="Rectangle_292"
   x="165.39999"
   y="29.200001"
   class="st10"
   width="73"
   height="33.099998" />
	<g
   id="Groupe_46">
		<g
   id="Version-2">
			<g
   id="g97">
				<path
   class="st5"
   d="m 187,37.1 c -0.1,0.2 -0.2,0.2 -0.4,0.2 h -2.1 c -0.2,0 -0.3,-0.1 -0.4,-0.2 l -2.7,-7.5 c -0.1,-0.3 0,-0.4 0.3,-0.4 h 1.6 c 0.3,0 0.4,0.1 0.5,0.3 l 1.8,5.8 1.8,-5.7 c 0.1,-0.2 0.2,-0.3 0.5,-0.3 h 1.5 c 0.3,0 0.4,0.1 0.3,0.4 z"
   id="path95" />
			</g>
			<g
   id="g101">
				<path
   class="st5"
   d="m 194.7,37 c -0.6,0.3 -1.4,0.4 -2.3,0.4 -0.9,0 -1.8,-0.2 -2.3,-0.7 -0.5,-0.5 -0.8,-1.1 -0.8,-2 0,-0.9 0.3,-1.5 0.8,-2 0.5,-0.5 1.2,-0.7 2.1,-0.7 0.8,0 1.4,0.2 1.9,0.7 0.5,0.5 0.7,1 0.7,1.8 0,0.2 0,0.4 0,0.5 0,0.1 -0.1,0.1 -0.3,0.1 h -2.9 c 0.2,0.4 0.5,0.7 1.1,0.7 0.2,0 0.4,0 0.5,0 0.2,0 0.3,-0.1 0.4,-0.1 0.1,0 0.2,-0.1 0.4,-0.1 0.1,0 0.2,-0.1 0.3,-0.1 0.2,0 0.3,0 0.3,0.1 l 0.3,1 c 0,0.3 -0.1,0.4 -0.2,0.4 z M 192,33.7 c -0.3,0 -0.6,0.2 -0.7,0.6 h 1.3 c 0,-0.4 -0.2,-0.6 -0.6,-0.6 z"
   id="path99" />
			</g>
			<g
   id="g105">
				<path
   class="st5"
   d="m 195.6,37.1 v -4.5 c 0,-0.2 0.1,-0.2 0.2,-0.2 h 1.5 c 0.2,0 0.2,0.1 0.2,0.2 V 33 c 0.4,-0.5 0.9,-0.8 1.4,-0.8 0.3,0 0.5,0 0.6,0.1 0.1,0.1 0.1,0.2 0.1,0.3 l -0.3,1.4 c 0,0.1 -0.1,0.2 -0.3,0.1 -0.3,-0.1 -0.5,-0.1 -0.7,-0.1 -0.3,0 -0.6,0.1 -0.8,0.2 V 37 c 0,0.2 -0.1,0.2 -0.2,0.2 h -1.5 c -0.1,0.1 -0.2,0 -0.2,-0.1 z"
   id="path103" />
			</g>
			<g
   id="g115">
				<path
   class="st5"
   d="m 202.4,36 c 0.2,0 0.3,-0.1 0.3,-0.2 0,-0.1 -0.1,-0.1 -0.2,-0.2 -0.1,-0.1 -0.3,-0.1 -0.7,-0.2 -1.2,-0.2 -1.8,-0.8 -1.8,-1.6 0,-0.5 0.2,-0.9 0.6,-1.2 0.4,-0.3 1,-0.5 1.8,-0.5 0.4,0 0.8,0 1.2,0.1 0.4,0.1 0.8,0.2 1,0.4 0.1,0.1 0.2,0.2 0.1,0.3 l -0.4,0.9 c -0.1,0.2 -0.2,0.3 -0.4,0.1 -0.5,-0.3 -1,-0.4 -1.5,-0.4 -0.2,0 -0.3,0 -0.3,0.2 0,0.1 0.1,0.1 0.2,0.2 0.1,0 0.4,0.1 0.8,0.2 0.6,0.1 1,0.3 1.3,0.5 0.3,0.2 0.4,0.6 0.4,1 0,1.2 -0.9,1.8 -2.6,1.8 -0.9,0 -1.7,-0.2 -2.3,-0.5 -0.2,-0.1 -0.2,-0.2 -0.1,-0.4 l 0.4,-0.9 c 0.1,-0.2 0.2,-0.2 0.4,-0.1 0.6,0.4 1.2,0.5 1.8,0.5 z"
   id="path107" />
				<path
   class="st5"
   d="m 206.7,31.7 c -0.3,0 -0.6,-0.1 -0.8,-0.3 -0.2,-0.2 -0.3,-0.5 -0.3,-0.8 0,-0.3 0.1,-0.6 0.3,-0.8 0.2,-0.2 0.5,-0.3 0.8,-0.3 0.3,0 0.6,0.1 0.8,0.3 0.2,0.2 0.3,0.5 0.3,0.8 0,0.3 -0.1,0.6 -0.3,0.8 -0.2,0.2 -0.5,0.3 -0.8,0.3 z m -1,5.4 v -4.5 c 0,-0.2 0.1,-0.2 0.2,-0.2 h 1.5 c 0.2,0 0.2,0.1 0.2,0.2 v 4.5 c 0,0.2 -0.1,0.2 -0.2,0.2 h -1.5 c -0.1,0 -0.2,0 -0.2,-0.2 z"
   id="path109" />
				<path
   class="st5"
   d="m 213.6,36.8 c -0.5,0.5 -1.3,0.7 -2.2,0.7 -0.9,0 -1.6,-0.2 -2.2,-0.7 -0.5,-0.5 -0.8,-1.1 -0.8,-2 0,-0.9 0.3,-1.5 0.8,-2 0.5,-0.5 1.3,-0.7 2.2,-0.7 0.9,0 1.6,0.2 2.2,0.7 0.5,0.5 0.8,1.1 0.8,2 0,0.9 -0.2,1.5 -0.8,2 z m -2.7,-1.3 c 0.1,0.2 0.3,0.3 0.6,0.3 0.3,0 0.4,-0.1 0.6,-0.3 0.1,-0.2 0.2,-0.4 0.2,-0.7 0,-0.3 -0.1,-0.5 -0.2,-0.7 -0.1,-0.2 -0.3,-0.3 -0.6,-0.3 -0.3,0 -0.4,0.1 -0.6,0.3 -0.1,0.2 -0.2,0.4 -0.2,0.7 0,0.3 0.1,0.5 0.2,0.7 z"
   id="path111" />
				<path
   class="st5"
   d="m 215.3,37.1 v -4.5 c 0,-0.2 0.1,-0.2 0.2,-0.2 h 1.5 c 0.2,0 0.2,0.1 0.2,0.2 v 0.2 c 0.4,-0.4 0.9,-0.5 1.5,-0.5 0.6,0 1.1,0.2 1.4,0.5 0.4,0.3 0.5,0.8 0.5,1.5 v 2.9 c 0,0.2 -0.1,0.2 -0.2,0.2 H 219 c -0.2,0 -0.2,-0.1 -0.2,-0.2 v -2.4 c 0,-0.5 -0.2,-0.8 -0.7,-0.8 -0.3,0 -0.5,0.1 -0.8,0.3 v 2.8 c 0,0.2 -0.1,0.2 -0.2,0.2 h -1.5 c -0.3,0 -0.3,-0.1 -0.3,-0.2 z"
   id="path113" />
			</g>
		</g>
		<g
   id="Partenaire">
			<g
   id="g120">
				<path
   class="st5"
   d="m 174.6,51.5 v -7.7 c 0,-0.2 0.1,-0.2 0.2,-0.2 h 3 c 1,0 1.9,0.3 2.5,0.8 0.6,0.5 0.9,1.2 0.9,2.1 0,0.9 -0.3,1.5 -1,2.1 -0.7,0.6 -1.5,0.8 -2.5,0.8 h -1.1 v 2.2 c 0,0.2 -0.1,0.2 -0.2,0.2 h -1.7 c 0,-0.1 -0.1,-0.1 -0.1,-0.3 z m 3.3,-6.1 h -1.1 v 2.2 h 1.1 c 0.4,0 0.6,-0.1 0.9,-0.3 0.2,-0.2 0.3,-0.5 0.3,-0.8 0,-0.3 -0.1,-0.6 -0.3,-0.8 -0.2,-0.2 -0.5,-0.3 -0.9,-0.3 z"
   id="path118" />
			</g>
			<g
   id="g136">
				<path
   class="st5"
   d="m 187.2,50.9 -0.8,0.7 c -0.2,0.2 -0.5,0.2 -0.8,0 l -0.4,-0.3 c -0.6,0.3 -1.1,0.5 -1.6,0.5 -0.6,0 -1,-0.1 -1.4,-0.4 -0.4,-0.3 -0.5,-0.7 -0.5,-1.2 0,-0.4 0.2,-0.7 0.5,-1 0.3,-0.3 0.9,-0.4 1.5,-0.4 h 0.9 v 0 c 0,-0.3 -0.2,-0.5 -0.6,-0.5 -0.4,0 -0.9,0.1 -1.6,0.4 -0.1,0 -0.2,0 -0.2,0 0,0 -0.1,-0.1 -0.1,-0.2 l -0.4,-1 c -0.1,-0.2 0,-0.3 0.2,-0.4 0.8,-0.4 1.6,-0.6 2.5,-0.6 0.7,0 1.3,0.2 1.7,0.5 0.4,0.3 0.6,0.9 0.6,1.7 V 50 c 0,0.2 0.1,0.3 0.1,0.3 l 0.4,0.2 c 0.1,0 0.1,0.1 0.1,0.2 0,0.1 0,0.2 -0.1,0.2 z m -3,-0.4 c 0.1,0 0.3,0 0.4,-0.1 v -0.7 h -0.4 c -0.3,0 -0.5,0.1 -0.5,0.4 0,0.3 0.2,0.4 0.5,0.4 z"
   id="path122" />
				<path
   class="st5"
   d="M 187.9,51.5 V 47 c 0,-0.2 0.1,-0.2 0.2,-0.2 h 1.5 c 0.2,0 0.2,0.1 0.2,0.2 v 0.4 c 0.4,-0.5 0.9,-0.8 1.4,-0.8 0.3,0 0.5,0 0.6,0.1 0.1,0.1 0.1,0.2 0.1,0.3 l -0.3,1.4 c 0,0.1 -0.1,0.2 -0.3,0.1 -0.3,-0.1 -0.5,-0.1 -0.7,-0.1 -0.3,0 -0.6,0.1 -0.8,0.2 v 2.8 c 0,0.2 -0.1,0.2 -0.2,0.2 h -1.5 c -0.1,0.1 -0.2,0 -0.2,-0.1 z"
   id="path124" />
				<path
   class="st5"
   d="m 192.7,48.3 c -0.2,0 -0.2,-0.1 -0.2,-0.2 V 47 c 0,-0.2 0.1,-0.2 0.2,-0.2 h 0.5 v -1.3 c 0,-0.2 0.1,-0.2 0.2,-0.2 h 1.5 c 0.2,0 0.2,0.1 0.2,0.2 v 1.3 h 1.1 c 0.2,0 0.2,0.1 0.2,0.2 v 1.1 c 0,0.2 -0.1,0.2 -0.2,0.2 h -1.1 v 1.4 c 0,0.3 0.1,0.5 0.3,0.5 0.2,0 0.3,0 0.5,-0.1 0.1,-0.1 0.3,0 0.3,0.1 l 0.4,1.1 c 0.1,0.1 0,0.2 -0.1,0.3 -0.4,0.2 -0.9,0.3 -1.4,0.3 -0.7,0 -1.2,-0.2 -1.5,-0.5 -0.3,-0.3 -0.5,-0.8 -0.5,-1.5 v -1.5 z"
   id="path126" />
				<path
   class="st5"
   d="m 202.8,51.5 c -0.6,0.3 -1.4,0.4 -2.3,0.4 -0.9,0 -1.8,-0.2 -2.3,-0.7 -0.5,-0.5 -0.8,-1.1 -0.8,-2 0,-0.9 0.3,-1.5 0.8,-2 0.5,-0.5 1.2,-0.7 2.1,-0.7 0.8,0 1.4,0.2 1.9,0.7 0.5,0.5 0.7,1 0.7,1.8 0,0.2 0,0.4 0,0.5 0,0.1 -0.1,0.1 -0.3,0.1 h -2.9 c 0.2,0.4 0.5,0.7 1.1,0.7 0.2,0 0.4,0 0.5,0 0.2,0 0.3,-0.1 0.4,-0.1 0.1,0 0.2,-0.1 0.4,-0.1 0.1,0 0.2,-0.1 0.3,-0.1 0.2,0 0.3,0 0.3,0.1 l 0.3,1 c 0,0.2 -0.1,0.3 -0.2,0.4 z m -2.6,-3.4 c -0.3,0 -0.6,0.2 -0.7,0.6 h 1.3 c -0.1,-0.4 -0.3,-0.6 -0.6,-0.6 z"
   id="path128" />
				<path
   class="st5"
   d="M 203.7,51.5 V 47 c 0,-0.2 0.1,-0.2 0.2,-0.2 h 1.5 c 0.2,0 0.2,0.1 0.2,0.2 v 0.2 c 0.4,-0.4 0.9,-0.5 1.5,-0.5 0.6,0 1.1,0.2 1.4,0.5 0.4,0.3 0.5,0.8 0.5,1.5 v 2.9 c 0,0.2 -0.1,0.2 -0.2,0.2 h -1.5 c -0.2,0 -0.2,-0.1 -0.2,-0.2 v -2.4 c 0,-0.5 -0.2,-0.8 -0.7,-0.8 -0.3,0 -0.5,0.1 -0.8,0.3 v 2.8 c 0,0.2 -0.1,0.2 -0.2,0.2 H 204 c -0.2,0 -0.3,-0.1 -0.3,-0.2 z"
   id="path130" />
				<path
   class="st5"
   d="m 215.5,50.9 -0.8,0.7 c -0.2,0.2 -0.5,0.2 -0.8,0 l -0.4,-0.3 c -0.6,0.3 -1.1,0.5 -1.6,0.5 -0.6,0 -1,-0.1 -1.4,-0.4 -0.4,-0.3 -0.5,-0.7 -0.5,-1.2 0,-0.4 0.2,-0.7 0.5,-1 0.3,-0.3 0.9,-0.4 1.5,-0.4 h 0.9 v 0 c 0,-0.3 -0.2,-0.5 -0.6,-0.5 -0.4,0 -0.9,0.1 -1.6,0.4 -0.1,0 -0.2,0 -0.2,0 0,0 -0.1,-0.1 -0.1,-0.2 l -0.4,-1 c -0.1,-0.2 0,-0.3 0.2,-0.4 0.8,-0.4 1.6,-0.6 2.5,-0.6 0.7,0 1.3,0.2 1.7,0.5 0.4,0.3 0.6,0.9 0.6,1.7 V 50 c 0,0.2 0.1,0.3 0.1,0.3 l 0.4,0.2 c 0.1,0 0.1,0.1 0.1,0.2 0,0.1 0,0.2 -0.1,0.2 z m -3,-0.4 c 0.1,0 0.3,0 0.4,-0.1 v -0.7 h -0.4 c -0.3,0 -0.5,0.1 -0.5,0.4 0,0.3 0.2,0.4 0.5,0.4 z"
   id="path132" />
				<path
   class="st5"
   d="m 217.2,46.1 c -0.3,0 -0.6,-0.1 -0.8,-0.3 -0.2,-0.2 -0.3,-0.5 -0.3,-0.8 0,-0.3 0.1,-0.6 0.3,-0.8 0.2,-0.2 0.5,-0.3 0.8,-0.3 0.3,0 0.6,0.1 0.8,0.3 0.2,0.2 0.3,0.5 0.3,0.8 0,0.3 -0.1,0.6 -0.3,0.8 -0.1,0.2 -0.4,0.3 -0.8,0.3 z m -1,5.4 V 47 c 0,-0.2 0.1,-0.2 0.2,-0.2 h 1.5 c 0.2,0 0.2,0.1 0.2,0.2 v 4.5 c 0,0.2 -0.1,0.2 -0.2,0.2 h -1.5 c -0.1,0 -0.2,0 -0.2,-0.2 z"
   id="path134" />
			</g>
			<g
   id="g140">
				<path
   class="st5"
   d="M 219.4,51.5 V 47 c 0,-0.2 0.1,-0.2 0.2,-0.2 h 1.5 c 0.2,0 0.2,0.1 0.2,0.2 v 0.4 c 0.4,-0.5 0.9,-0.8 1.4,-0.8 0.3,0 0.5,0 0.6,0.1 0.1,0.1 0.1,0.2 0.1,0.3 l -0.3,1.4 c 0,0.1 -0.1,0.2 -0.3,0.1 -0.3,-0.1 -0.5,-0.1 -0.7,-0.1 -0.3,0 -0.6,0.1 -0.8,0.2 v 2.8 c 0,0.2 -0.1,0.2 -0.2,0.2 h -1.5 c -0.2,0.1 -0.3,0 -0.2,-0.1 z"
   id="path138" />
			</g>
			<g
   id="g144">
				<path
   class="st5"
   d="m 229.2,51.5 c -0.6,0.3 -1.4,0.4 -2.3,0.4 -0.9,0 -1.8,-0.2 -2.3,-0.7 -0.5,-0.5 -0.8,-1.1 -0.8,-2 0,-0.9 0.3,-1.5 0.8,-2 0.5,-0.5 1.2,-0.7 2.1,-0.7 0.8,0 1.4,0.2 1.9,0.7 0.5,0.5 0.7,1 0.7,1.8 0,0.2 0,0.4 0,0.5 0,0.1 -0.1,0.1 -0.3,0.1 h -2.9 c 0.2,0.4 0.5,0.7 1.1,0.7 0.2,0 0.4,0 0.5,0 0.2,0 0.3,-0.1 0.4,-0.1 0.1,0 0.2,-0.1 0.4,-0.1 0.1,0 0.2,-0.1 0.3,-0.1 0.2,0 0.3,0 0.3,0.1 l 0.3,1 c 0,0.2 -0.1,0.3 -0.2,0.4 z m -2.6,-3.4 c -0.3,0 -0.6,0.2 -0.7,0.6 h 1.3 c -0.1,-0.4 -0.3,-0.6 -0.6,-0.6 z"
   id="path142" />
			</g>
		</g>
	</g>
	<g
   id="Groupe_47">
		<path
   id="Tracé_1254"
   class="st11"
   d="m 262.5,350.6 8.5,1.2 6,-14.6 -9.4,-3.2 z" />
		<path
   id="Tracé_1255"
   class="st12"
   d="m 265.2,341.3 2.2,-6.7 4.3,0.8 5.2,1.8 -2.6,6.3 z" />
		<path
   id="Tracé_1256"
   class="st7"
   d="m 260.6,347.9 c -0.2,-0.2 -0.5,-0.4 -0.8,-0.6 -0.3,-0.3 -0.7,-0.5 -1.1,-0.7 -0.8,-0.5 -1.7,-0.9 -2.7,-0.9 -0.3,0 -0.6,0.1 -0.8,0.3 -0.3,0.2 -0.4,0.5 -0.3,0.8 0.7,0.6 1.6,1 2.6,1.1 l 0.8,0.1 c 0.7,0.1 1.5,0.2 2.2,0.2 v 0 c 0.1,0 0.1,0 0.2,-0.1 0.2,0 0.1,-0.1 -0.1,-0.2 z m -1.7,-0.1 c -1.6,-0.2 -3.3,-0.6 -3.5,-1.1 0,-0.1 -0.1,-0.2 0.2,-0.4 0.1,-0.1 0.3,-0.2 0.5,-0.2 h 0.5 c 1,0.3 2,0.8 2.9,1.4 0.2,0.1 0.3,0.2 0.5,0.3 z" />
		<path
   id="Tracé_1257"
   class="st7"
   d="m 260.1,344.7 c -0.3,-0.3 -0.7,-0.5 -1.1,-0.6 -0.4,-0.1 -0.8,0 -1,0.4 -0.2,0.5 0.2,1.3 0.7,2.1 0.2,0.3 0.5,0.6 0.7,0.9 0.3,0.3 0.6,0.5 0.9,0.7 h 0.2 c 0.1,0 0.1,0 0.1,-0.1 v 0 c 0,-0.3 0.1,-0.6 0.1,-0.9 0.2,-0.8 0,-1.8 -0.6,-2.5 z m 0.3,2.9 c -0.1,-0.1 -0.2,-0.2 -0.4,-0.3 -0.9,-0.9 -1.8,-2.2 -1.6,-2.7 0,0 0.1,-0.2 0.5,-0.1 h 0.1 c 0.3,0.1 0.5,0.2 0.7,0.4 0.4,0.7 0.6,1.5 0.6,2.3 0,0.2 0.1,0.3 0.1,0.4 z" />
		<path
   id="Tracé_1258"
   class="st6"
   d="m 261.8,347.3 10.3,2 c 0.4,0.1 0.6,0.3 0.7,0.7 l -0.1,7.5 c -0.1,0.7 -0.7,1.2 -1.4,1.2 H 271 c -3.7,-0.8 -7,-1.6 -11.6,-2.4 -5.5,-1 -4.2,-0.2 -10.7,-1.4 -3.9,-0.7 -3.6,-4.6 -1.9,-4.5 7.8,0.6 9,-1.2 12.6,-2.9 0.7,-0.3 1.6,-0.3 2.4,-0.2 z" />
		<path
   id="Tracé_1259"
   class="st11"
   d="m 323.5,350.3 8.1,-0.3 2.1,-12.4 -10,-1.4 z" />
		<path
   id="Tracé_1260"
   class="st12"
   d="m 323.6,336.2 10,1.4 -1.4,8.4 -8.6,-0.1 z" />
		<path
   id="Tracé_1261"
   class="st7"
   d="m 335.5,343.6 -14.6,-0.4 -0.6,-5.2 16.4,0.5 z" />
		<path
   id="Tracé_1262"
   class="st3"
   d="m 335.5,343.6 -14.6,-0.4 -0.6,-5.2 16.4,0.5 z" />
		<path
   id="Tracé_1263"
   class="st7"
   d="m 322.4,350.5 c 0,0 -0.4,-0.2 -0.9,-0.4 -0.4,-0.2 -0.8,-0.3 -1.2,-0.4 -0.9,-0.4 -1.9,-0.5 -2.8,-0.4 -0.3,0.1 -0.5,0.2 -0.7,0.5 -0.2,0.3 -0.2,0.6 0,0.9 0.8,0.5 1.8,0.7 2.7,0.5 h 0.7 c 0.7,-0.1 1.3,-0.2 2,-0.3 v 0 c 0.1,0 0.1,-0.1 0.2,-0.2 0,0 0,-0.1 0,-0.2 z m -1.8,0.2 c -1.5,0.1 -3.1,0.1 -3.5,-0.3 -0.1,-0.1 -0.1,-0.2 0,-0.4 0.1,-0.2 0.2,-0.3 0.4,-0.3 h 0.4 c 1,0.1 2,0.4 3,0.8 0.2,0.1 0.4,0.1 0.5,0.2 z" />
		<path
   id="Tracé_1264"
   class="st7"
   d="m 322.5,350.7 c 0,-0.3 -0.1,-0.6 -0.2,-0.9 -0.2,-0.9 -0.7,-1.7 -1.3,-2.3 -0.4,-0.2 -0.8,-0.4 -1.2,-0.3 -0.6,0.1 -0.8,0.3 -0.8,0.6 -0.1,0.5 0.5,1.3 1.3,1.9 0.6,0.4 1.2,0.8 1.9,1.1 h 0.2 z m -3.1,-2.9 c 0,-0.1 0,-0.2 0.4,-0.2 h 0.1 c 0.3,0 0.5,0.1 0.8,0.2 0.6,0.6 1,1.3 1.2,2.1 0,0.1 0.1,0.3 0.1,0.4 l -0.4,-0.2 c -1.1,-0.7 -2.2,-1.8 -2.2,-2.3 z" />
		<path
   id="Tracé_1265"
   class="st6"
   d="m 323.1,349.7 9.9,-0.3 c 0.4,0 0.7,0.2 0.8,0.5 l 2,7.3 c 0.2,0.6 -0.2,1.3 -0.9,1.5 v 0 h -0.3 c -3.6,0.1 -6.7,0 -11.2,0.1 -5.2,0.1 -3.9,0.7 -10,1 -3.7,0.2 -4.5,-3.7 -2.9,-3.9 7.2,-1.1 7.8,-3.1 10.5,-5.6 0.6,-0.4 1.4,-0.6 2.1,-0.6 z" />
		<path
   id="Tracé_1266"
   class="st6"
   d="m 300,167.9 -33.6,166 14.2,3.1 c 9.9,-21.6 18.2,-43.6 24.3,-60.8 2.9,-8.2 4,-15.8 6.1,-23 2.6,-8.5 6.2,-16.4 8,-23.6 9.2,-37.5 7.8,-56.1 7.8,-56.1 l 2.1,-5 z" />
		<path
   id="Tracé_1267"
   class="st13"
   d="m 324.5,202.6 c -1.2,7.5 -2.9,16.6 -5.5,27 -0.8,3.4 -6.6,19.9 -8,23.6 -2.4,-23.8 2.4,-64.3 2.4,-64.3 z" />
		<path
   id="Tracé_1268"
   class="st6"
   d="m 311.8,168.4 5.5,90.5 4.8,79.3 13.3,0.5 c 3.2,-19.5 5.4,-37.2 6.9,-53.2 1,-10.4 -1.4,-17.9 -1,-26.8 0.1,-1.5 0.2,-3 0.3,-4.6 1.6,-25.5 1.1,-51.1 -1.7,-76.5 -0.5,-4.8 -0.9,-8.1 -0.9,-8.1 l -27.2,-2.4 z" />
		<path
   id="Tracé_1269"
   class="st7"
   d="m 278.9,341.6 -14,-3.5 0.8,-5.3 15.7,4.2 z" />
		<path
   id="Tracé_1270"
   class="st3"
   d="m 278.9,341.6 -14,-3.5 0.8,-5.3 15.7,4.2 z" />
		<g
   id="freepik--group--inject-2">
			<path
   id="Tracé_1271"
   class="st6"
   d="m 229.8,107.4 c -0.5,-1.2 -18.2,-5.6 -18.2,-5.6 0,0 -1.4,0.4 -1.4,0.8 0,0.4 1.1,1.1 1.1,1.1 0,0 20,6.8 18.5,3.7 z" />
			<path
   id="Tracé_1272"
   class="st4"
   d="m 202.1,98.6 c 0.8,1.8 2.1,3.3 3.9,4.2 1.6,0.8 3.5,1.1 5.3,0.8 -0.4,-0.6 -0.3,-1.4 0.3,-1.9 l 0.1,-0.1 c 0,0 -2,-3.6 -4.7,-2.5 l -0.9,0.3 c -1.4,0.4 -2.9,0.1 -4,-0.8 z" />
			<path
   id="Tracé_1273"
   class="st14"
   d="m 222.8,104.5 c 0,0 2.9,12 5.4,13.2 1.4,0.7 3,0.9 4.5,0.6 0,0 0.5,0.7 1.5,1.9 4.3,5.3 16.9,20 24.3,20 9.1,0 28.3,-5 28.3,-5 L 279.3,124 c 0,0 -13.9,6.6 -17.2,7.1 -3.3,0.5 -25,-16 -25,-16 0,0 -3.9,-10.7 -4.4,-10.6 z" />
			<path
   id="Tracé_1274"
   class="st6"
   d="m 264.5,127.8 11.4,12.3 2.6,-0.3 16.2,-1.8 -6.1,-9.5 -6.2,-13.6 c -9.2,6.5 -17.9,12.9 -17.9,12.9 z" />
			<path
   id="Tracé_1275"
   class="st15"
   d="m 276.2,140.2 17.8,-2 -6.8,-10.5 c -3.3,4.5 -6.9,8.7 -11,12.5 z" />
			<path
   id="Tracé_1276"
   class="st6"
   d="m 280.6,116.8 c 17.1,30.7 17.1,56.2 17.1,56.2 l 47.9,0.4 c 0,0 -0.8,-19.1 -3.2,-30.3 -1.9,-9.5 -5.1,-18.8 -9.4,-27.5 -4.4,-8.6 -8.2,-12.1 -8.2,-12.1 -2,-0.8 -10.5,-0.1 -16.6,1.6 -8.5,2.3 -19,4.2 -23.7,7.5 -5,3.4 -3.9,4.2 -3.9,4.2 z" />
			<path
   id="Tracé_1277"
   class="st4"
   d="m 292.6,121.3 c 4.2,1.6 0.6,6 1.5,8 1,2 8.9,6.6 6.7,8.6 -2.2,2 -2.8,2.6 -2,6.5 0.7,4 -1.1,-0.4 -1.9,-3.6 -0.7,-3.2 -3,-0.6 -4.3,-2.9 -1.3,-2.3 -0.6,-5.1 -3,-5.4 -2.4,-0.3 -1.2,-5.2 -1.6,-7 -0.2,-1.7 2.7,-5 4.6,-4.2 z" />
			<path
   id="Tracé_1278"
   class="st4"
   d="m 332,155.2 c -2.7,-2.2 -6.1,-2 -7.2,0 -1.1,2 -4.7,7.1 -5.6,5.7 -0.9,-1.4 -2.2,-0.2 -1.5,1.6 0.7,1.8 2,3 0,4.1 -2,1.1 -0.9,3.6 1.3,3.2 2.2,-0.4 2.8,2.8 4.2,2.2 2.1,-1.1 4.5,-1.6 6.9,-1.6 3.2,0.2 7.6,1.6 6.2,-1 -1.4,-2.6 -3.1,-5.3 -0.7,-6 2.5,-0.7 0.9,-3.1 -1.8,-2.1 -2.7,1 -0.3,-4.9 -1.8,-6.1 z" />
			<path
   id="Tracé_1279"
   class="st15"
   d="m 324.8,128.4 c 4.5,13.8 13,15 17.6,14.6 -1.9,-9.5 -5.1,-18.8 -9.4,-27.5 -6.2,1.7 -10.6,5.4 -8.2,12.9 z" />
			<path
   id="Tracé_1280"
   class="st14"
   d="m 342.1,116.5 c 0,0 12.9,13.9 15.2,15.5 2.3,1.6 9.3,-4.8 9.3,-4.8 l 7.3,4.8 c 0,0 -6.7,7.5 -13.4,10.7 -6.7,3.1 -25.3,-16.7 -25.3,-16.7 0,0 6.9,-9.5 6.9,-9.5 z" />
			<path
   id="Tracé_1281"
   class="st6"
   d="m 324.8,103.4 c -5.9,-1.5 0.5,24.8 0.5,24.8 l 14.6,10.5 11.9,-14.4 c 0,-0.1 -12.9,-17.3 -27,-20.9 z" />
			<path
   id="Tracé_1282"
   class="st6"
   d="m 376.4,104.3 c -6.8,0.9 4.2,6.2 0,9.2 -4.2,3 -20,11 -7.6,20.2 12.3,9.2 38.2,6.9 44,-5.5 5.8,-12.4 -8.4,-27.7 -36.4,-23.9 z" />
			<path
   id="Tracé_1283"
   class="st16"
   d="m 376.4,104.3 c -6.8,0.9 4.2,6.2 0,9.2 -4.2,3 -20,11 -7.6,20.2 12.3,9.2 38.2,6.9 44,-5.5 5.8,-12.4 -8.4,-27.7 -36.4,-23.9 z" />
			<path
   id="Tracé_1284"
   class="st5"
   d="m 392.4,108.2 c -4.7,-1.2 -6.1,-1 -6.9,1.6 -0.8,2.6 -1.4,3.9 1.8,4.4 3.2,0.5 7.7,2.4 7.5,0 -0.2,-2.4 3.6,-0.1 2.2,-3 -1.4,-2.9 -1.5,-2.2 -4.6,-3 z" />
			<path
   id="Tracé_1285"
   class="st4"
   d="m 382.2,124.1 c 3.1,-2.1 5.5,-4 2.5,-5.1 -3,-1.1 -4.7,-0.6 -6.7,-0.5 -2,0.1 -3.8,-0.1 -5.1,3 -1.4,3.1 -0.4,6.4 3.4,6.1 3.8,-0.3 4.1,-2.3 5.9,-3.5 z" />
			<path
   id="Tracé_1286"
   class="st7"
   d="m 404.2,127.6 c -0.5,-2.9 -1.4,-3.8 -4.5,-4.7 -3.1,-0.9 -8,1.4 -8.7,2.3 -0.7,0.9 -5.8,1.7 -3.6,3.9 2.2,2.2 3.6,4.1 7.3,3.2 3.7,-0.7 10.2,0.5 9.5,-4.7 z" />
			<path
   id="Tracé_1287"
   class="st7"
   d="m 406,116 c -2.7,-2.4 -3.4,-4.1 -5.5,-1.8 -2.2,2.3 -2.6,5.5 0,5.9 2.6,0.4 6.3,4.2 7.1,1.4 0.8,-2.8 1.5,-2.8 -1.6,-5.5 z" />
			<path
   id="Tracé_1288"
   class="st7"
   d="m 380.9,132.7 c 3.3,-2.9 3,-4.2 0,-4 -3,0.2 -7.9,0.1 -5.8,2.4 2.1,2.3 1.9,5 5.8,1.6 z" />
			<path
   id="Tracé_1289"
   class="st7"
   d="m 392.8,120.5 c 1.8,-0.1 3,-2.2 0,-2.7 -3,-0.5 -5.4,2.9 0,2.7 z" />
			<path
   id="Tracé_1290"
   class="st17"
   d="m 392.8,120.5 c 1.8,-0.1 3,-2.2 0,-2.7 -3,-0.5 -5.4,2.9 0,2.7 z" />
			<path
   id="Tracé_1291"
   class="st16"
   d="m 404.2,127.6 c -0.5,-2.9 -1.4,-3.8 -4.5,-4.7 -3.1,-0.9 -8,1.4 -8.7,2.3 -0.7,0.9 -5.8,1.7 -3.6,3.9 2.2,2.2 3.6,4.1 7.3,3.2 3.7,-0.7 10.2,0.5 9.5,-4.7 z" />
			<path
   id="Tracé_1292"
   class="st15"
   d="m 380.9,132.7 c 3.3,-2.9 3,-4.2 0,-4 -3,0.2 -7.9,0.1 -5.8,2.4 2.1,2.3 1.9,5 5.8,1.6 z" />
			<path
   id="Tracé_1293"
   class="st18"
   d="m 406,116 c -2.7,-2.4 -3.4,-4.1 -5.5,-1.8 -2.2,2.3 -2.6,5.5 0,5.9 2.6,0.4 6.3,4.2 7.1,1.4 0.8,-2.8 1.5,-2.8 -1.6,-5.5 z" />
			<path
   id="Tracé_1294"
   class="st14"
   d="m 291,99.4 c 1.7,2.2 3,4.6 3.9,7.2 0.3,0.9 0.6,1.8 0.9,2.8 5.2,1.1 10.7,-0.6 14.4,-4.4 -5.2,-2.5 -6.8,-6.1 -7.3,-8.3 -0.1,-0.7 -0.2,-1.3 -0.1,-2 v -0.1 l -0.3,0.1 c 0,0 -11.5,4.7 -11.5,4.7 z" />
			<path
   id="Tracé_1295"
   class="st15"
   d="m 291,99.4 c 1.7,2.2 3,4.6 3.9,7.2 5.8,-2.3 6.3,-7.9 6.8,-10.7 0.1,-0.7 0.6,-1.2 1.3,-1.4 l -0.4,0.1 h -0.2 z" />
			<path
   id="Tracé_1296"
   class="st6"
   d="m 312.5,72.7 c 0,0 7.2,-4.7 9.2,2.8 2,7.5 -3.2,9.4 -3.2,9.4 0,0 1.7,-9.4 -6,-9.4 z" />
			<path
   id="Tracé_1297"
   class="st6"
   d="m 283.4,72.3 c 0,0 -4.5,8.7 0,15 4.5,6.3 11.4,-14.5 11.4,-14.5 z" />
			<path
   id="Tracé_1298"
   class="st19"
   d="m 283.4,72.3 c 0,0 -4.5,8.7 0,15 4.5,6.3 11.4,-14.5 11.4,-14.5 z" />
			<path
   id="Tracé_1299"
   class="st14"
   d="m 298.5,101.1 c -3.9,3.6 -9.7,4 -14,0.9 -2.4,-1.8 -4.1,-4.4 -4.7,-7.4 -0.1,-0.4 -0.1,-0.8 -0.2,-1.2 -0.1,-0.9 -0.1,-1.8 -0.1,-2.7 0.2,-7.6 3.5,-17.6 11.3,-19.4 6.2,-1.5 12.5,2.3 14,8.5 0.4,1.8 0.4,3.6 0,5.4 -1.6,7.6 -2.3,12.4 -6.3,15.9 z" />
			<path
   id="Tracé_1305"
   class="st6"
   d="m 302.1,90.6 c 0.7,0.4 -0.8,6.9 -0.8,6.9 0,0 3.5,-1 6.3,-6.2 5.4,-10.2 4.1,-12.9 1.7,-15.1 -4.4,-4.1 -12.2,0.3 -12.2,0.3 2.4,0 4.1,2.5 2.8,4.5 -1.8,2.8 -1.1,8 0.9,10.3 -0.1,0.1 0.3,-1.2 1.3,-0.7 z" />
			<path
   id="Tracé_1307"
   class="st6"
   d="m 297,76.5 c 0,0 -9,0.3 -12.9,-1 -0.9,-0.6 -1.4,-1.6 -1.5,-2.6 -0.3,-3.7 5.6,-9.8 15.2,-9.4 14.4,0.6 20.7,15.6 11.6,23.9 0.1,0.1 -0.8,-11.2 -12.4,-10.9 z" />
			<path
   id="Tracé_1308"
   class="st19"
   d="m 302.1,90.6 c 0.7,0.4 -0.8,6.9 -0.8,6.9 0,0 3.5,-1 6.3,-6.2 5.4,-10.2 4.1,-12.9 1.7,-15.1 -4.4,-4.1 -12.2,0.3 -12.2,0.3 2.4,0 4.1,2.5 2.8,4.5 -1.8,2.8 -1.1,8 0.9,10.3 -0.1,0.1 0.3,-1.2 1.3,-0.7 z" />
			<path
   id="Tracé_1309"
   class="st14"
   d="m 307.5,92.6 c -1.2,1.7 -3.1,2.9 -5.2,3.3 -2.8,0.5 -3.9,-2.1 -2.9,-4.6 0.9,-2.2 3.5,-5.2 6.2,-4.5 2.7,0.7 3.4,3.6 1.9,5.8 z" />
			<path
   id="Tracé_1311"
   class="st20"
   d="m 202.1,98.6 c 0.8,1.8 2.1,3.3 3.9,4.2 -0.2,-0.4 -0.4,-0.8 -0.5,-1.2 -0.2,-0.9 3.3,-0.4 1.4,-1.3 -0.4,-0.1 -0.7,-0.5 -0.8,-0.9 -1.4,0.4 -2.9,0.1 -4,-0.8 z" />
		</g>
	</g>
</g>
</svg>
