<svg xmlns="http://www.w3.org/2000/svg" width="414.032" height="367.136" viewBox="0 0 414.032 367.136">
  <g id="PEINT" transform="translate(-48.049 -56.564)">
    <g id="freepik--background-simple--inject-246">
      <path id="Tracé_1230" data-name="Tracé 1230" d="M64.5,285.7C53.9,263,47.4,238,48.1,212.7c.9-30,9.9-60,27.2-84s43-41.7,71.4-46.6,59,3.4,80.2,23.7c20.3,19.4,48,32,75.4,29.2,20.6-2.1,40-11.2,56.4-24.5,19.9-16,47.7-17,67.8-1.2a69.006,69.006,0,0,1,14.8,16.2c14.8,22.6,18.3,51.7,13.8,78.7-4.5,26.9-16.4,51.9-30.4,75-60.2,106.2-288.2,161.1-360.2,6.5Z" fill="#f0f0f8"/>
    </g>
    <g id="freepik--Shadow--inject-246">
      <ellipse id="freepik--path--inject-246" cx="193.9" cy="11.3" rx="193.9" ry="11.3" transform="translate(56.1 401.1)" fill="#f5f5f5"/>
    </g>
    <g id="freepik--standard-option--inject-246">
      <path id="Tracé_1232" data-name="Tracé 1232" d="M221.7,70.3h58.5a18.565,18.565,0,0,1,18.6,18.6V247.7a18.565,18.565,0,0,1-18.6,18.6H221.7a18.565,18.565,0,0,1-18.6-18.6V89a18.65,18.65,0,0,1,18.6-18.7Z" fill="#191558"/>
      <path id="Tracé_1233" data-name="Tracé 1233" d="M279.6,70.3H222.3a19.2,19.2,0,0,0-19.2,19.2V247a19.2,19.2,0,0,0,19.2,19.2h57.2A19.291,19.291,0,0,0,298.8,247h0V89.6a19.1,19.1,0,0,0-19.2-19.3h0Z" fill="#fff" opacity="0.5" style="isolation: isolate"/>
      <path id="Tracé_1234" data-name="Tracé 1234" d="M298.9,80v38.9H203.1V80a9.6,9.6,0,0,1,9.6-9.6h76.5a9.624,9.624,0,0,1,9.7,9.6Z" fill="#191558"/>
      <path id="Tracé_1235" data-name="Tracé 1235" d="M231.8,235.5h40a9.816,9.816,0,0,1,9.8,9.8v.8a9.816,9.816,0,0,1-9.8,9.8h-40a9.816,9.816,0,0,1-9.8-9.8v-.8a9.816,9.816,0,0,1,9.8-9.8Z" fill="#191558"/>
      <rect id="Rectangle_279" data-name="Rectangle 279" width="49.4" height="2" transform="translate(226.1 193.7)" fill="#191558"/>
      <rect id="Rectangle_280" data-name="Rectangle 280" width="49.4" height="2" transform="translate(226.1 160.9)" fill="#191558"/>
      <rect id="Rectangle_281" data-name="Rectangle 281" width="49.4" height="2" transform="translate(226.1 129.2)" fill="#191558"/>
      <circle id="Ellipse_32" data-name="Ellipse 32" cx="8.6" cy="8.6" r="8.6" transform="translate(241.39 169.1)" fill="#fa595f"/>
      <path id="Tracé_1236" data-name="Tracé 1236" d="M256.2,175.9l-5,4.9-2.3,2.3-2.3-2.3,2.3-2.3,5-4.9Z" fill="#fff"/>
      <path id="Tracé_1237" data-name="Tracé 1237" d="M251.2,180.8l-2.3,2.3-4.9-4.9,2.3-2.3,2.6,2.6Z" fill="#fff"/>
      <circle id="Ellipse_33" data-name="Ellipse 33" cx="8.6" cy="8.6" r="8.6" transform="translate(241.604 203.698) rotate(-4.07)" fill="#fa595f"/>
      <path id="Tracé_1238" data-name="Tracé 1238" d="M256.9,209.9l-4.9,4.9-2.3,2.3-2.3-2.3,2.3-2.3,4.9-4.9Z" fill="#fff"/>
      <path id="Tracé_1239" data-name="Tracé 1239" d="M252,214.8l-2.3,2.3-4.9-4.9,2.3-2.3,2.6,2.6Z" fill="#fff"/>
      <circle id="Ellipse_34" data-name="Ellipse 34" cx="8.5" cy="8.5" r="8.5" transform="translate(241.5 137.6)" fill="#263238"/>
      <circle id="Ellipse_35" data-name="Ellipse 35" cx="8.5" cy="8.5" r="8.5" transform="translate(241.5 137.6)" fill="#fff" opacity="0.5" style="isolation: isolate"/>
      <rect id="Rectangle_282" data-name="Rectangle 282" width="10.4" height="3.2" transform="translate(245.212 148.653) rotate(-45)" fill="#fff"/>
      <rect id="Rectangle_283" data-name="Rectangle 283" width="3.2" height="10.4" transform="translate(245.212 143.562) rotate(-45)" fill="#fff"/>
      <path id="Tracé_1240" data-name="Tracé 1240" d="M289.3,81.1v22.8l4.8-4.8v-18Z" fill="#fa595f"/>
      <path id="Tracé_1241" data-name="Tracé 1241" d="M298.9,81.1v22.8l-4.8-4.8v-18Z" fill="#fa595f"/>
      <path id="Tracé_1242" data-name="Tracé 1242" d="M296.5,58.3h0a2.783,2.783,0,0,0,3.6,1.2h0a2.731,2.731,0,0,1,3.7,1.3,2.851,2.851,0,0,1,.2,1.6h0a2.784,2.784,0,0,0,2.2,3.1h0a2.688,2.688,0,0,1,1.5,4.5h0a2.782,2.782,0,0,0,0,3.8h0a2.81,2.81,0,0,1-.1,3.9,2.666,2.666,0,0,1-1.4.7h0a2.784,2.784,0,0,0-2.2,3.1h0a2.722,2.722,0,0,1-2.3,3.1,2.966,2.966,0,0,1-1.6-.2h0a2.783,2.783,0,0,0-3.6,1.2h0a2.77,2.77,0,0,1-3.7,1.1,2.345,2.345,0,0,1-1.1-1.1h0a2.778,2.778,0,0,0-3.7-1.2h0a2.731,2.731,0,0,1-3.7-1.3,2.851,2.851,0,0,1-.2-1.6h0a2.784,2.784,0,0,0-2.2-3.1h0a2.729,2.729,0,0,1-2.2-3.2,2.666,2.666,0,0,1,.7-1.4h0a2.782,2.782,0,0,0,0-3.8h0a2.81,2.81,0,0,1,.1-3.9,2.666,2.666,0,0,1,1.4-.7h0a2.784,2.784,0,0,0,2.2-3.1h0a2.722,2.722,0,0,1,2.3-3.1,2.966,2.966,0,0,1,1.6.2h0a2.783,2.783,0,0,0,3.6-1.2h0a2.778,2.778,0,0,1,3.7-1.2,3.745,3.745,0,0,1,1.2,1.3Z" fill="#407bff"/>
      <path id="Tracé_1243" data-name="Tracé 1243" d="M296.5,58.3h0a2.783,2.783,0,0,0,3.6,1.2h0a2.731,2.731,0,0,1,3.7,1.3,2.851,2.851,0,0,1,.2,1.6h0a2.784,2.784,0,0,0,2.2,3.1h0a2.688,2.688,0,0,1,1.5,4.5h0a2.782,2.782,0,0,0,0,3.8h0a2.81,2.81,0,0,1-.1,3.9,2.666,2.666,0,0,1-1.4.7h0a2.784,2.784,0,0,0-2.2,3.1h0a2.722,2.722,0,0,1-2.3,3.1,2.966,2.966,0,0,1-1.6-.2h0a2.783,2.783,0,0,0-3.6,1.2h0a2.77,2.77,0,0,1-3.7,1.1,2.345,2.345,0,0,1-1.1-1.1h0a2.778,2.778,0,0,0-3.7-1.2h0a2.731,2.731,0,0,1-3.7-1.3,2.851,2.851,0,0,1-.2-1.6h0a2.784,2.784,0,0,0-2.2-3.1h0a2.729,2.729,0,0,1-2.2-3.2,2.666,2.666,0,0,1,.7-1.4h0a2.782,2.782,0,0,0,0-3.8h0a2.81,2.81,0,0,1,.1-3.9,2.666,2.666,0,0,1,1.4-.7h0a2.784,2.784,0,0,0,2.2-3.1h0a2.722,2.722,0,0,1,2.3-3.1,2.966,2.966,0,0,1,1.6.2h0a2.783,2.783,0,0,0,3.6-1.2h0a2.778,2.778,0,0,1,3.7-1.2,3.745,3.745,0,0,1,1.2,1.3Z" fill="#fa595f"/>
      <g id="Groupe_44" data-name="Groupe 44" opacity="0.5">
        <path id="Tracé_1244" data-name="Tracé 1244" d="M296.39,58.16h0a2.783,2.783,0,0,0,3.6,1.2h0a2.731,2.731,0,0,1,3.7,1.3,2.851,2.851,0,0,1,.2,1.6h0a2.784,2.784,0,0,0,2.2,3.1h0a2.688,2.688,0,0,1,1.5,4.5h0a2.782,2.782,0,0,0,0,3.8h0a2.81,2.81,0,0,1-.1,3.9,2.666,2.666,0,0,1-1.4.7h0a2.784,2.784,0,0,0-2.2,3.1h0a2.722,2.722,0,0,1-2.3,3.1,2.966,2.966,0,0,1-1.6-.2h0a2.783,2.783,0,0,0-3.6,1.2h0a2.77,2.77,0,0,1-3.7,1.1,2.345,2.345,0,0,1-1.1-1.1h0a2.778,2.778,0,0,0-3.7-1.2h0a2.731,2.731,0,0,1-3.7-1.3,2.851,2.851,0,0,1-.2-1.6h0a2.784,2.784,0,0,0-2.2-3.1h0a2.729,2.729,0,0,1-2.2-3.2,2.666,2.666,0,0,1,.7-1.4h0a2.782,2.782,0,0,0,0-3.8h0a2.81,2.81,0,0,1,.1-3.9,2.666,2.666,0,0,1,1.4-.7h0a2.784,2.784,0,0,0,2.2-3.1h0a2.722,2.722,0,0,1,2.3-3.1,2.966,2.966,0,0,1,1.6.2h0a2.783,2.783,0,0,0,3.6-1.2h0a2.778,2.778,0,0,1,3.7-1.2,3.745,3.745,0,0,1,1.2,1.3Z" fill="#fff"/>
      </g>
      <path id="Tracé_1245" data-name="Tracé 1245" d="M289.7,69h-1.2a1.09,1.09,0,0,0-1.1,1l-.3,5.7a1.088,1.088,0,0,0,.9,1.1h1.3a1.11,1.11,0,0,0,1.1-1.1l.3-5.7a.945.945,0,0,0-1-1Z" fill="#fff"/>
      <path id="Tracé_1246" data-name="Tracé 1246" d="M299.6,69h-2.9l.8-1.9a1.268,1.268,0,0,0,.1-.6l-.2-1.5a1.278,1.278,0,0,0-1.2-1.1h-1.5a6.992,6.992,0,0,1-1.6,4.1l-.9,1.1a1.777,1.777,0,0,0-.4,1l-.3,5.3a1.24,1.24,0,0,0,1.2,1.3h5.2a1.656,1.656,0,0,0,1.2-.5l.5-.5a1.08,1.08,0,0,0,.3-.7l1-4.3a1.721,1.721,0,0,0-.2-1.2h0a1.29,1.29,0,0,0-1.1-.5Z" fill="#fff"/>
    </g>
    <g id="freepik--basic-option--inject-246">
      <path id="Tracé_1247" data-name="Tracé 1247" d="M107.3,81.5h58.5a18.565,18.565,0,0,1,18.6,18.6V258.9a18.565,18.565,0,0,1-18.6,18.6H107.3a18.565,18.565,0,0,1-18.6-18.6V100.1A18.5,18.5,0,0,1,107.3,81.5Z" fill="#263238"/>
      <path id="Tracé_1248" data-name="Tracé 1248" d="M107.5,81.5h57.9a18.949,18.949,0,0,1,18.9,18.9V258.6a18.949,18.949,0,0,1-18.9,18.9H107.5a18.949,18.949,0,0,1-18.9-18.9V100.4a18.949,18.949,0,0,1,18.9-18.9Z" fill="#fff" opacity="0.7" style="isolation: isolate"/>
      <path id="Tracé_1249" data-name="Tracé 1249" d="M184.4,91.1V130H88.6V91.1a9.6,9.6,0,0,1,9.6-9.6h76.5a9.624,9.624,0,0,1,9.7,9.6h0Z" fill="#407bff"/>
      <path id="Tracé_1250" data-name="Tracé 1250" d="M184.4,91.1V130H88.6V91.1a9.6,9.6,0,0,1,9.6-9.6h76.5a9.624,9.624,0,0,1,9.7,9.6h0Z" fill="#191558"/>
      <circle id="Ellipse_36" data-name="Ellipse 36" cx="8.5" cy="8.5" r="8.5" transform="translate(126.6 182.2)" fill="#263238"/>
      <circle id="Ellipse_37" data-name="Ellipse 37" cx="8.5" cy="8.5" r="8.5" transform="translate(126.6 182.2)" fill="#fff" opacity="0.5" style="isolation: isolate"/>
      <rect id="Rectangle_284" data-name="Rectangle 284" width="10.4" height="3.2" transform="translate(130.242 193.146) rotate(-45)" fill="#fff"/>
      <rect id="Rectangle_285" data-name="Rectangle 285" width="3.2" height="10.4" transform="translate(130.301 188.139) rotate(-45)" fill="#fff"/>
      <circle id="Ellipse_38" data-name="Ellipse 38" cx="8.6" cy="8.6" r="8.6" transform="translate(126.9 213.5)" fill="#fa595f"/>
      <path id="Tracé_1251" data-name="Tracé 1251" d="M141.6,220.2l-4.9,5-2.3,2.3-2.3-2.3,2.3-2.3,4.9-5Z" fill="#fff"/>
      <path id="Tracé_1252" data-name="Tracé 1252" d="M136.7,225.2l-2.3,2.3-4.9-4.9,2.3-2.3,2.6,2.6Z" fill="#fff"/>
      <path id="Tracé_1253" data-name="Tracé 1253" d="M116.5,246.7h40a9.816,9.816,0,0,1,9.8,9.8v.8a9.816,9.816,0,0,1-9.8,9.8h-40a9.816,9.816,0,0,1-9.8-9.8v-.8A9.816,9.816,0,0,1,116.5,246.7Z" fill="#191558"/>
      <rect id="Rectangle_286" data-name="Rectangle 286" width="49.4" height="2" transform="translate(110.8 204.9)" fill="#191558"/>
      <rect id="Rectangle_287" data-name="Rectangle 287" width="49.4" height="2" transform="translate(110.8 172.1)" fill="#191558"/>
      <rect id="Rectangle_288" data-name="Rectangle 288" width="49.4" height="2" transform="translate(110.8 140.4)" fill="#191558"/>
      <circle id="Ellipse_39" data-name="Ellipse 39" cx="8.5" cy="8.5" r="8.5" transform="translate(126.6 148.7)" fill="#263238"/>
      <circle id="Ellipse_40" data-name="Ellipse 40" cx="8.5" cy="8.5" r="8.5" transform="translate(126.6 148.7)" fill="#fff" opacity="0.5" style="isolation: isolate"/>
      <rect id="Rectangle_289" data-name="Rectangle 289" width="10.4" height="3.2" transform="translate(130.276 159.737) rotate(-45)" fill="#fff"/>
      <rect id="Rectangle_290" data-name="Rectangle 290" width="3.2" height="10.4" transform="translate(130.276 154.646) rotate(-45)" fill="#fff"/>
    </g>
    <rect id="Rectangle_291" data-name="Rectangle 291" width="73" height="33.1" transform="translate(98.5 94.6)" fill="none"/>
    <g id="Groupe_45" data-name="Groupe 45" style="isolation: isolate">
      <text id="Version" transform="translate(114.43 102.79)" fill="#fff" font-size="12" font-family="false, Alpino" style="isolation: isolate"><tspan x="0" y="0" letter-spacing="-0.08em">V</tspan><tspan y="0">e</tspan><tspan y="0" letter-spacing="-0.03em">r</tspan><tspan y="0">sion</tspan></text>
      <text id="Simple" transform="translate(117.03 117.19)" fill="#fff" font-size="12" font-family="false, Alpino" style="isolation: isolate"><tspan x="0" y="0">Simple</tspan></text>
    </g>
    <rect id="Rectangle_292" data-name="Rectangle 292" width="73" height="33.1" transform="translate(213.5 85.8)" fill="none"/>
    <g id="Groupe_46" data-name="Groupe 46" style="isolation: isolate">
      <text id="Version-2" data-name="Version" transform="translate(229.41 93.91)" fill="#fff" font-size="12" font-family="false, Alpino" style="isolation: isolate"><tspan x="0" y="0" letter-spacing="-0.08em">V</tspan><tspan y="0">e</tspan><tspan y="0" letter-spacing="-0.03em">r</tspan><tspan y="0">sion</tspan></text>
      <text id="Partenaire" transform="translate(221.91 108.31)" fill="#fff" font-size="12" font-family="false, Alpino" style="isolation: isolate"><tspan x="0" y="0" letter-spacing="-0.02em">P</tspan><tspan y="0">artenai</tspan><tspan y="0" letter-spacing="-0.02em">r</tspan><tspan y="0">e</tspan></text>
    </g>
    <g id="Groupe_47" data-name="Groupe 47">
      <path id="Tracé_1254" data-name="Tracé 1254" d="M310.5,407.2l8.5,1.2,6-14.6-9.4-3.2Z" fill="#ffc2bc"/>
      <path id="Tracé_1255" data-name="Tracé 1255" d="M313.3,397.9l2.2-6.7,4.3.8,5.2,1.8-2.6,6.3Z" opacity="0.1" style="isolation: isolate"/>
      <path id="Tracé_1256" data-name="Tracé 1256" d="M308.7,404.5a4.521,4.521,0,0,0-.8-.6,6.728,6.728,0,0,0-1.1-.7,5.123,5.123,0,0,0-2.7-.9,1.136,1.136,0,0,0-.8.3.67.67,0,0,0-.3.8,4.708,4.708,0,0,0,2.6,1.1l.8.1a16.351,16.351,0,0,0,2.2.2h0a.349.349,0,0,0,.2-.1c.1,0,0-.1-.1-.2Zm-1.7-.1c-1.6-.2-3.3-.6-3.5-1.1,0-.1-.1-.2.2-.4a.764.764,0,0,1,.5-.2h.5a11.078,11.078,0,0,1,2.9,1.4c.2.1.3.2.5.3H307Z" fill="#407bff"/>
      <path id="Tracé_1257" data-name="Tracé 1257" d="M308.2,401.3a2.384,2.384,0,0,0-1.1-.6.88.88,0,0,0-1,.4c-.2.5.2,1.3.7,2.1.2.3.5.6.7.9a5.5,5.5,0,0,0,.9.7h.2a.1.1,0,0,0,.1-.1c0-.3.1-.6.1-.9a3.165,3.165,0,0,0-.6-2.5Zm.2,2.9a1.38,1.38,0,0,0-.4-.3c-.9-.9-1.8-2.2-1.6-2.7,0,0,.1-.2.5-.1h.1a1.612,1.612,0,0,1,.7.4,3.8,3.8,0,0,1,.6,2.3.756.756,0,0,1,.1.4Z" fill="#407bff"/>
      <path id="Tracé_1258" data-name="Tracé 1258" d="M309.8,403.9l10.3,2a.842.842,0,0,1,.7.7l-.1,7.5a1.333,1.333,0,0,1-1.4,1.2H319c-3.7-.8-7-1.6-11.6-2.4-5.5-1-4.2-.2-10.7-1.4-3.9-.7-3.6-4.6-1.9-4.5,7.8.6,9-1.2,12.6-2.9a3.973,3.973,0,0,1,2.4-.2Z" fill="#263238"/>
      <path id="Tracé_1259" data-name="Tracé 1259" d="M371.5,406.9l8.1-.3,2.1-12.4-10-1.4Z" fill="#ffc2bc"/>
      <path id="Tracé_1260" data-name="Tracé 1260" d="M371.7,392.8l10,1.4-1.4,8.4-8.6-.1Z" opacity="0.1" style="isolation: isolate"/>
      <path id="Tracé_1261" data-name="Tracé 1261" d="M383.6,400.2l-14.6-.4-.6-5.2,16.4.5Z" fill="#407bff"/>
      <path id="Tracé_1262" data-name="Tracé 1262" d="M383.6,400.2l-14.6-.4-.6-5.2,16.4.5Z" fill="#fff" opacity="0.5" style="isolation: isolate"/>
      <path id="Tracé_1263" data-name="Tracé 1263" d="M370.4,407.1s-.4-.2-.9-.4a5.639,5.639,0,0,0-1.2-.4,5.333,5.333,0,0,0-2.8-.4,1.157,1.157,0,0,0-.7.5.75.75,0,0,0,0,.9,3.6,3.6,0,0,0,2.7.5h.7c.7-.1,1.3-.2,2-.3h0c.1,0,.1-.1.2-.2a.139.139,0,0,0,0-.2Zm-1.7.2c-1.5.1-3.1.1-3.5-.3-.1-.1-.1-.2,0-.4s.2-.3.4-.3h.4a10.24,10.24,0,0,1,3,.8c.2.1.4.1.5.2h-.8Z" fill="#407bff"/>
      <path id="Tracé_1264" data-name="Tracé 1264" d="M370.5,407.3a2.92,2.92,0,0,0-.2-.9,4.784,4.784,0,0,0-1.3-2.3,1.676,1.676,0,0,0-1.2-.3c-.6.1-.8.3-.8.6-.1.5.5,1.3,1.3,1.9a8.85,8.85,0,0,0,1.9,1.1h.2l.1-.1Zm-3.1-2.9c0-.1,0-.2.4-.2h.1a2.353,2.353,0,0,1,.8.2,4.451,4.451,0,0,1,1.2,2.1c0,.1.1.3.1.4l-.4-.2C368.5,406,367.4,404.9,367.4,404.4Z" fill="#407bff"/>
      <path id="Tracé_1265" data-name="Tracé 1265" d="M371.2,406.3l9.9-.3a.792.792,0,0,1,.8.5l2,7.3a1.225,1.225,0,0,1-.9,1.5h-.3c-3.6.1-6.7,0-11.2.1-5.2.1-3.9.7-10,1-3.7.2-4.5-3.7-2.9-3.9,7.2-1.1,7.8-3.1,10.5-5.6A3.068,3.068,0,0,1,371.2,406.3Z" fill="#263238"/>
      <path id="Tracé_1266" data-name="Tracé 1266" d="M348.1,224.5l-33.6,166,14.2,3.1c9.9-21.6,18.2-43.6,24.3-60.8,2.9-8.2,4-15.8,6.1-23,2.6-8.5,6.2-16.4,8-23.6,9.2-37.5,7.8-56.1,7.8-56.1l2.1-5Z" fill="#263238"/>
      <path id="Tracé_1267" data-name="Tracé 1267" d="M372.6,259.2c-1.2,7.5-2.9,16.6-5.5,27-.8,3.4-6.6,19.9-8,23.6-2.4-23.8,2.4-64.3,2.4-64.3Z" opacity="0.3" style="isolation: isolate"/>
      <path id="Tracé_1268" data-name="Tracé 1268" d="M359.8,225l5.5,90.5,4.8,79.3,13.3.5c3.2-19.5,5.4-37.2,6.9-53.2,1-10.4-1.4-17.9-1-26.8.1-1.5.2-3,.3-4.6a444.28,444.28,0,0,0-1.7-76.5c-.5-4.8-.9-8.1-.9-8.1l-27.2-2.4V225Z" fill="#263238"/>
      <path id="Tracé_1269" data-name="Tracé 1269" d="M326.9,398.2l-14-3.5.8-5.3,15.7,4.2Z" fill="#407bff"/>
      <path id="Tracé_1270" data-name="Tracé 1270" d="M326.9,398.2l-14-3.5.8-5.3,15.7,4.2Z" fill="#fff" opacity="0.5" style="isolation: isolate"/>
      <g id="freepik--group--inject-2">
        <path id="Tracé_1271" data-name="Tracé 1271" d="M277.8,164c-.5-1.2-18.2-5.6-18.2-5.6s-1.4.4-1.4.8,1.1,1.1,1.1,1.1S279.3,167.1,277.8,164Z" fill="#263238"/>
        <path id="Tracé_1272" data-name="Tracé 1272" d="M250.1,155.2a8.392,8.392,0,0,0,3.9,4.2,8.891,8.891,0,0,0,5.3.8,1.417,1.417,0,0,1,.3-1.9l.1-.1s-2-3.6-4.7-2.5l-.9.3a4.721,4.721,0,0,1-4-.8Z" fill="#fa595f"/>
        <path id="Tracé_1273" data-name="Tracé 1273" d="M270.8,161.1s2.9,12,5.4,13.2a7.028,7.028,0,0,0,4.5.6s.5.7,1.5,1.9c4.3,5.3,16.9,20,24.3,20,9.1,0,28.3-5,28.3-5l-7.5-11.2s-13.9,6.6-17.2,7.1-25-16-25-16-3.9-10.7-4.4-10.6h-9.9Z" fill="#e4897b"/>
        <path id="Tracé_1274" data-name="Tracé 1274" d="M312.6,184.4,324,196.7l2.6-.3,16.2-1.8-6.1-9.5-6.2-13.6c-9.2,6.5-17.9,12.9-17.9,12.9Z" fill="#263238"/>
        <path id="Tracé_1275" data-name="Tracé 1275" d="M324.3,196.8l17.8-2-6.8-10.5A100.42,100.42,0,0,1,324.3,196.8Z" opacity="0.2" style="isolation: isolate"/>
        <path id="Tracé_1276" data-name="Tracé 1276" d="M328.7,173.4c17.1,30.7,17.1,56.2,17.1,56.2l47.9.4s-.8-19.1-3.2-30.3a111.765,111.765,0,0,0-9.4-27.5c-4.4-8.6-8.2-12.1-8.2-12.1-2-.8-10.5-.1-16.6,1.6-8.5,2.3-19,4.2-23.7,7.5-5,3.4-3.9,4.2-3.9,4.2Z" fill="#263238"/>
        <path id="Tracé_1277" data-name="Tracé 1277" d="M340.7,177.9c4.2,1.6.6,6,1.5,8,1,2,8.9,6.6,6.7,8.6s-2.8,2.6-2,6.5c.7,4-1.1-.4-1.9-3.6-.7-3.2-3-.6-4.3-2.9s-.6-5.1-3-5.4-1.2-5.2-1.6-7c-.3-1.7,2.6-5,4.6-4.2Z" fill="#fa595f"/>
        <path id="Tracé_1278" data-name="Tracé 1278" d="M380,211.8c-2.7-2.2-6.1-2-7.2,0s-4.7,7.1-5.6,5.7-2.2-.2-1.5,1.6,2,3,0,4.1-.9,3.6,1.3,3.2,2.8,2.8,4.2,2.2a14.891,14.891,0,0,1,6.9-1.6c3.2.2,7.6,1.6,6.2-1s-3.1-5.3-.7-6c2.5-.7.9-3.1-1.8-2.1s-.3-4.9-1.8-6.1Z" fill="#fa595f"/>
        <path id="Tracé_1279" data-name="Tracé 1279" d="M372.8,185c4.5,13.8,13,15,17.6,14.6a111.765,111.765,0,0,0-9.4-27.5C374.8,173.8,370.4,177.5,372.8,185Z" opacity="0.2" style="isolation: isolate"/>
        <path id="Tracé_1280" data-name="Tracé 1280" d="M390.2,173.1s12.9,13.9,15.2,15.5,9.3-4.8,9.3-4.8l7.3,4.8s-6.7,7.5-13.4,10.7c-6.7,3.1-25.3-16.7-25.3-16.7Z" fill="#e4897b"/>
        <path id="Tracé_1281" data-name="Tracé 1281" d="M372.8,160c-5.9-1.5.5,24.8.5,24.8l14.6,10.5,11.9-14.4c0-.1-12.9-17.3-27-20.9Z" fill="#263238"/>
        <path id="Tracé_1282" data-name="Tracé 1282" d="M424.4,160.9c-6.8.9,4.2,6.2,0,9.2s-20,11-7.6,20.2c12.3,9.2,38.2,6.9,44-5.5S452.4,157.1,424.4,160.9Z" fill="#263238"/>
        <path id="Tracé_1283" data-name="Tracé 1283" d="M424.4,160.9c-6.8.9,4.2,6.2,0,9.2s-20,11-7.6,20.2c12.3,9.2,38.2,6.9,44-5.5S452.4,157.1,424.4,160.9Z" fill="#fff" opacity="0.4" style="isolation: isolate"/>
        <path id="Tracé_1284" data-name="Tracé 1284" d="M440.4,164.8c-4.7-1.2-6.1-1-6.9,1.6s-1.4,3.9,1.8,4.4,7.7,2.4,7.5,0,3.6-.1,2.2-3S443.5,165.6,440.4,164.8Z" fill="#fff"/>
        <path id="Tracé_1285" data-name="Tracé 1285" d="M430.3,180.7c3.1-2.1,5.5-4,2.5-5.1s-4.7-.6-6.7-.5-3.8-.1-5.1,3c-1.4,3.1-.4,6.4,3.4,6.1s4.1-2.3,5.9-3.5Z" fill="#fa595f"/>
        <path id="Tracé_1286" data-name="Tracé 1286" d="M452.3,184.2c-.5-2.9-1.4-3.8-4.5-4.7s-8,1.4-8.7,2.3-5.8,1.7-3.6,3.9,3.6,4.1,7.3,3.2c3.7-.7,10.2.5,9.5-4.7Z" fill="#407bff"/>
        <path id="Tracé_1287" data-name="Tracé 1287" d="M454,172.6c-2.7-2.4-3.4-4.1-5.5-1.8-2.2,2.3-2.6,5.5,0,5.9s6.3,4.2,7.1,1.4,1.5-2.8-1.6-5.5Z" fill="#407bff"/>
        <path id="Tracé_1288" data-name="Tracé 1288" d="M428.9,189.3c3.3-2.9,3-4.2,0-4s-7.9.1-5.8,2.4S425,192.7,428.9,189.3Z" fill="#407bff"/>
        <path id="Tracé_1289" data-name="Tracé 1289" d="M440.8,177.1c1.8-.1,3-2.2,0-2.7S435.4,177.3,440.8,177.1Z" fill="#407bff"/>
        <path id="Tracé_1290" data-name="Tracé 1290" d="M440.8,177.1c1.8-.1,3-2.2,0-2.7S435.4,177.3,440.8,177.1Z" fill="#fa969a"/>
        <path id="Tracé_1291" data-name="Tracé 1291" d="M452.3,184.2c-.5-2.9-1.4-3.8-4.5-4.7s-8,1.4-8.7,2.3-5.8,1.7-3.6,3.9,3.6,4.1,7.3,3.2c3.7-.7,10.2.5,9.5-4.7Z" fill="#fff" opacity="0.4" style="isolation: isolate"/>
        <path id="Tracé_1292" data-name="Tracé 1292" d="M428.9,189.3c3.3-2.9,3-4.2,0-4s-7.9.1-5.8,2.4S425,192.7,428.9,189.3Z" opacity="0.2" style="isolation: isolate"/>
        <path id="Tracé_1293" data-name="Tracé 1293" d="M454,172.6c-2.7-2.4-3.4-4.1-5.5-1.8-2.2,2.3-2.6,5.5,0,5.9s6.3,4.2,7.1,1.4,1.5-2.8-1.6-5.5Z" fill="#fff" opacity="0.6" style="isolation: isolate"/>
        <path id="Tracé_1294" data-name="Tracé 1294" d="M339.1,156a25.169,25.169,0,0,1,3.9,7.2c.3.9.6,1.8.9,2.8a15.708,15.708,0,0,0,14.4-4.4c-5.2-2.5-6.8-6.1-7.3-8.3a6.729,6.729,0,0,1-.1-2v-.1l-.3.1Z" fill="#e4897b"/>
        <path id="Tracé_1295" data-name="Tracé 1295" d="M339.1,156a25.169,25.169,0,0,1,3.9,7.2c5.8-2.3,6.3-7.9,6.8-10.7a1.706,1.706,0,0,1,1.3-1.4l-.4.1h-.2L339.1,156Z" opacity="0.2" style="isolation: isolate"/>
        <path id="Tracé_1296" data-name="Tracé 1296" d="M360.6,129.3s7.2-4.7,9.2,2.8-3.2,9.4-3.2,9.4,1.7-9.4-6-9.4Z" fill="#263238"/>
        <path id="Tracé_1297" data-name="Tracé 1297" d="M331.4,128.9s-4.5,8.7,0,15,11.4-14.5,11.4-14.5Z" fill="#263238"/>
        <path id="Tracé_1298" data-name="Tracé 1298" d="M331.4,128.9s-4.5,8.7,0,15,11.4-14.5,11.4-14.5Z" fill="#fff" opacity="0.2" style="isolation: isolate"/>
        <path id="Tracé_1299" data-name="Tracé 1299" d="M346.6,157.7a11.077,11.077,0,0,1-14,.9,12.25,12.25,0,0,1-4.7-7.4c-.1-.4-.1-.8-.2-1.2a24.367,24.367,0,0,1-.1-2.7c.2-7.6,3.5-17.6,11.3-19.4a11.6,11.6,0,0,1,14,8.5,12.3,12.3,0,0,1,0,5.4c-1.6,7.6-2.3,12.4-6.3,15.9Z" fill="#e4897b"/>
        <path id="Tracé_1300" data-name="Tracé 1300" d="M339.9,142.1c-.1.7-.6,1.2-1,1.1-.5-.1-.7-.7-.6-1.4s.6-1.2,1-1.1S340,141.4,339.9,142.1Z" fill="#263238"/>
        <path id="Tracé_1301" data-name="Tracé 1301" d="M332.2,140.9c-.1.7-.6,1.2-1,1.1s-.7-.7-.6-1.4.6-1.2,1-1.1S332.3,140.2,332.2,140.9Z" fill="#263238"/>
        <path id="Tracé_1302" data-name="Tracé 1302" d="M334.6,141.6a23.334,23.334,0,0,1-4.2,5.3,4.073,4.073,0,0,0,3.2,1.1l1-6.4Z" fill="#de5753"/>
        <path id="Tracé_1303" data-name="Tracé 1303" d="M342.7,140a.52.52,0,0,1-.4-.2,3.074,3.074,0,0,0-2.3-1.7.4.4,0,0,1,0-.8h0a4.009,4.009,0,0,1,3,2.2.44.44,0,0,1-.1.5h0c-.1-.1-.1,0-.2,0Z" fill="#263238"/>
        <path id="Tracé_1304" data-name="Tracé 1304" d="M329.3,137.7h-.2c-.2-.1-.2-.4-.1-.6h0a3.821,3.821,0,0,1,3.2-1.8.43.43,0,0,1,.4.4h0a.43.43,0,0,1-.4.4h0a3.181,3.181,0,0,0-2.5,1.5.756.756,0,0,1-.4.1Z" fill="#263238"/>
        <path id="Tracé_1305" data-name="Tracé 1305" d="M350.2,147.2c.7.4-.8,6.9-.8,6.9s3.5-1,6.3-6.2c5.4-10.2,4.1-12.9,1.7-15.1-4.4-4.1-12.2.3-12.2.3,2.4,0,4.1,2.5,2.8,4.5-1.8,2.8-1.1,8,.9,10.3-.1.1.3-1.2,1.3-.7Z" fill="#263238"/>
        <path id="Tracé_1306" data-name="Tracé 1306" d="M334.1,151.7h0a6.254,6.254,0,0,0,5.6-1,.212.212,0,1,0-.3-.3h0a6.065,6.065,0,0,1-5.2.9.367.367,0,0,0-.3.1h0c.1.1.1.3.2.3h0Z" fill="#263238"/>
        <path id="Tracé_1307" data-name="Tracé 1307" d="M345.1,133.1s-9,.3-12.9-1a3.667,3.667,0,0,1-1.5-2.6c-.3-3.7,5.6-9.8,15.2-9.4,14.4.6,20.7,15.6,11.6,23.9,0,.1-.9-11.2-12.4-10.9Z" fill="#263238"/>
        <path id="Tracé_1308" data-name="Tracé 1308" d="M350.2,147.2c.7.4-.8,6.9-.8,6.9s3.5-1,6.3-6.2c5.4-10.2,4.1-12.9,1.7-15.1-4.4-4.1-12.2.3-12.2.3,2.4,0,4.1,2.5,2.8,4.5-1.8,2.8-1.1,8,.9,10.3-.1.1.3-1.2,1.3-.7Z" fill="#fff" opacity="0.2" style="isolation: isolate"/>
        <path id="Tracé_1309" data-name="Tracé 1309" d="M355.5,149.2a8.3,8.3,0,0,1-5.2,3.3c-2.8.5-3.9-2.1-2.9-4.6.9-2.2,3.5-5.2,6.2-4.5S357,147,355.5,149.2Z" fill="#e4897b"/>
        <path id="Tracé_1310" data-name="Tracé 1310" d="M335.2,149s3.9-1.8,5.9-1.1,5,8,4.1,10.9-8.1,4.7-11.8,1.9-3.3-11-2-11.6a5.8,5.8,0,0,1,3.2,0v.9s-2.2-1.2-2.8.3-.5,6.8,1.8,6.9c2.2.1,1.6-3.1,1.6-3.1l1.7-.2s-.3,3.2,2.7,3.1c2.9-.1,3.4-4.8,1.2-6.9s-5.1-.1-5.1-.1l-.5-1Z" fill="#263238"/>
        <path id="Tracé_1311" data-name="Tracé 1311" d="M250.1,155.2a8.392,8.392,0,0,0,3.9,4.2,6.118,6.118,0,0,1-.5-1.2c-.2-.9,3.3-.4,1.4-1.3a1.22,1.22,0,0,1-.8-.9,4.721,4.721,0,0,1-4-.8Z" fill="#fff" opacity="0.3" style="isolation: isolate"/>
      </g>
    </g>
  </g>
</svg>
