<?xml version="1.0" encoding="utf-8"?>
<!-- Generator: Adobe Illustrator 27.2.0, SVG Export Plug-In . SVG Version: 6.00 Build 0)  -->
<svg version="1.1" id="Calque_1" xmlns="http://www.w3.org/2000/svg" xmlns:xlink="http://www.w3.org/1999/xlink" x="0px" y="0px"
	 viewBox="0 0 414 367.1" style="enable-background:new 0 0 414 367.1;" xml:space="preserve">
<style type="text/css">
	.st0{fill:#F0F0F8;}
	.st1{fill:#F5F5F5;}
	.st2{fill:#191558;}
	.st3{opacity:0.5;fill:#FFFFFF;enable-background:new    ;}
	.st4{fill:#FA595F;}
	.st5{fill:#FFFFFF;}
	.st6{fill:#263238;}
	.st7{fill:#407BFF;}
	.st8{opacity:0.5;}
	.st9{opacity:0.7;fill:#FFFFFF;enable-background:new    ;}
	.st10{fill:none;}
	.st11{fill:#FFC2BC;}
	.st12{opacity:0.1;enable-background:new    ;}
	.st13{opacity:0.3;enable-background:new    ;}
	.st14{fill:#E4897B;}
	.st15{opacity:0.2;enable-background:new    ;}
	.st16{opacity:0.4;fill:#FFFFFF;enable-background:new    ;}
	.st17{fill:#FA969A;}
	.st18{opacity:0.6;fill:#FFFFFF;enable-background:new    ;}
	.st19{opacity:0.2;fill:#FFFFFF;enable-background:new    ;}
	.st20{opacity:0.3;fill:#FFFFFF;enable-background:new    ;}
</style>
<g id="PEINT">
	<g id="freepik--background-simple--inject-246">
		<path id="Tracé_1230" class="st0" d="M16.5,229.1c-10.6-22.7-17.1-47.7-16.4-73c0.9-30,9.9-60,27.2-84s43-41.7,71.4-46.6
			s59,3.4,80.2,23.7c20.3,19.4,48,32,75.4,29.2c20.6-2.1,40-11.2,56.4-24.5c19.9-16,47.7-17,67.8-1.2c5.8,4.6,10.8,10,14.8,16.2
			c14.8,22.6,18.3,51.7,13.8,78.7c-4.5,26.9-16.4,51.9-30.4,75C316.4,328.8,88.4,383.7,16.5,229.1L16.5,229.1L16.5,229.1z"/>
	</g>
	<g id="freepik--Shadow--inject-246">
		<ellipse id="freepik--path--inject-246" class="st1" cx="201.9" cy="355.8" rx="193.9" ry="11.3"/>
	</g>
	<g id="freepik--standard-option--inject-246">
		<path id="Tracé_1232" class="st2" d="M173.6,13.7h58.5c10.2,0,18.6,8.3,18.6,18.5c0,0,0,0,0,0.1v158.8c0,10.2-8.3,18.6-18.5,18.6
			c0,0-0.1,0-0.1,0h-58.5c-10.2,0-18.6-8.3-18.6-18.5c0,0,0-0.1,0-0.1V32.4C155,22.1,163.3,13.8,173.6,13.7
			C173.6,13.7,173.6,13.7,173.6,13.7z"/>
		<path id="Tracé_1233" class="st3" d="M231.6,13.7h-57.3c-10.6,0-19.2,8.6-19.2,19.2v157.5c0,10.6,8.6,19.2,19.2,19.2h57.2
			c10.6,0,19.2-8.6,19.3-19.2l0,0V33c0.1-10.5-8.4-19.2-18.9-19.3C231.8,13.7,231.7,13.7,231.6,13.7
			C231.6,13.7,231.6,13.7,231.6,13.7z"/>
		<path id="Tracé_1234" class="st2" d="M250.9,23.4v38.9h-95.8V23.4c0-5.3,4.3-9.6,9.6-9.6h76.5C246.5,13.8,250.8,18.1,250.9,23.4
			C250.9,23.4,250.9,23.4,250.9,23.4C250.9,23.4,250.9,23.4,250.9,23.4z"/>
		<path id="Tracé_1235" class="st2" d="M183.8,178.9h40c5.4,0,9.8,4.4,9.8,9.8v0.8c0,5.4-4.4,9.8-9.8,9.8h-40
			c-5.4,0-9.8-4.4-9.8-9.8v-0.8C173.9,183.3,178.3,179,183.8,178.9L183.8,178.9z"/>
		<rect id="Rectangle_279" x="178.1" y="137.1" class="st2" width="49.4" height="2"/>
		<rect id="Rectangle_280" x="178.1" y="104.3" class="st2" width="49.4" height="2"/>
		<rect id="Rectangle_281" x="178.1" y="72.6" class="st2" width="49.4" height="2"/>
		<circle id="Ellipse_32" class="st4" cx="201.9" cy="121.1" r="8.6"/>
		<path id="Tracé_1236" class="st5" d="M208.1,119.3l-5,4.9l-2.3,2.3l-2.3-2.3l2.3-2.3l5-4.9L208.1,119.3z"/>
		<path id="Tracé_1237" class="st5" d="M203.1,124.2l-2.3,2.3l-4.9-4.9l2.3-2.3l2.6,2.6L203.1,124.2L203.1,124.2z"/>
		<circle id="Ellipse_33" class="st4" cx="202.7" cy="155.1" r="8.6"/>
		<path id="Tracé_1238" class="st5" d="M208.9,153.3l-4.9,4.9l-2.3,2.3l-2.3-2.3l2.3-2.3l4.9-4.9L208.9,153.3z"/>
		<path id="Tracé_1239" class="st5" d="M203.9,158.2l-2.3,2.3l-4.9-4.9l2.3-2.3l2.6,2.6L203.9,158.2L203.9,158.2z"/>
		<circle id="Ellipse_34" class="st6" cx="201.9" cy="89.5" r="8.5"/>
		<circle id="Ellipse_35" class="st3" cx="201.9" cy="89.5" r="8.5"/>
		
			<rect id="Rectangle_282" x="196.8" y="87.9" transform="matrix(0.7071 -0.7071 0.7071 0.7071 -4.1591 169.0391)" class="st5" width="10.4" height="3.2"/>
		
			<rect id="Rectangle_283" x="200.4" y="84.3" transform="matrix(0.7071 -0.7071 0.7071 0.7071 -4.1591 169.0391)" class="st5" width="3.2" height="10.4"/>
		<path id="Tracé_1240" class="st4" d="M241.2,24.5v22.8l4.8-4.8v-18H241.2z"/>
		<path id="Tracé_1241" class="st4" d="M250.9,24.5v22.8l-4.8-4.8v-18H250.9z"/>
		<path id="Tracé_1242" class="st7" d="M248.4,1.7L248.4,1.7c0.7,1.3,2.3,1.8,3.6,1.2l0,0c1.4-0.7,3-0.1,3.7,1.2c0,0,0,0.1,0,0.1
			c0.2,0.5,0.3,1.1,0.2,1.6l0,0c-0.2,1.5,0.8,2.8,2.2,3.1l0,0c1.5,0.2,2.5,1.6,2.2,3.1c-0.1,0.5-0.3,1-0.7,1.4l0,0
			c-1,1.1-1,2.7,0,3.8l0,0c1,1.1,1,2.8-0.1,3.9c-0.4,0.4-0.9,0.6-1.4,0.7l0,0c-1.4,0.3-2.4,1.6-2.2,3.1l0,0c0.2,1.5-0.8,2.9-2.3,3.1
			c0,0,0,0,0,0c-0.5,0.1-1.1,0-1.6-0.2l0,0c-1.3-0.6-2.9-0.1-3.6,1.2l0,0c-0.7,1.3-2.4,1.8-3.7,1.1c-0.5-0.2-0.9-0.6-1.1-1.1l0,0
			c-0.7-1.3-2.4-1.9-3.7-1.2l0,0c-1.4,0.7-3,0.1-3.7-1.2c0,0,0,0,0-0.1c-0.2-0.5-0.3-1.1-0.2-1.6l0,0c0.2-1.5-0.8-2.8-2.2-3.1l0,0
			c-1.5-0.3-2.5-1.7-2.2-3.2c0,0,0,0,0,0c0.1-0.5,0.3-1,0.7-1.4l0,0c1-1.1,1-2.7,0-3.8l0,0c-1-1.1-1-2.8,0.1-3.9
			c0.4-0.4,0.9-0.6,1.4-0.7l0,0c1.4-0.3,2.4-1.7,2.2-3.1l0,0c-0.2-1.5,0.8-2.9,2.3-3.1c0,0,0,0,0,0c0.5-0.1,1.1,0,1.6,0.2l0,0
			c1.3,0.6,2.9,0.1,3.6-1.2l0,0c0.7-1.3,2.4-1.9,3.7-1.2C247.7,0.8,248.1,1.2,248.4,1.7L248.4,1.7z"/>
		<path id="Tracé_1243" class="st4" d="M248.4,1.7L248.4,1.7c0.7,1.3,2.3,1.8,3.6,1.2l0,0c1.4-0.7,3-0.1,3.7,1.2c0,0,0,0.1,0,0.1
			c0.2,0.5,0.3,1.1,0.2,1.6l0,0c-0.2,1.5,0.8,2.8,2.2,3.1l0,0c1.5,0.2,2.5,1.6,2.2,3.1c-0.1,0.5-0.3,1-0.7,1.4l0,0
			c-1,1.1-1,2.7,0,3.8l0,0c1,1.1,1,2.8-0.1,3.9c-0.4,0.4-0.9,0.6-1.4,0.7l0,0c-1.4,0.3-2.4,1.6-2.2,3.1l0,0c0.2,1.5-0.8,2.9-2.3,3.1
			c0,0,0,0,0,0c-0.5,0.1-1.1,0-1.6-0.2l0,0c-1.3-0.6-2.9-0.1-3.6,1.2l0,0c-0.7,1.3-2.4,1.8-3.7,1.1c-0.5-0.2-0.9-0.6-1.1-1.1l0,0
			c-0.7-1.3-2.4-1.9-3.7-1.2l0,0c-1.4,0.7-3,0.1-3.7-1.2c0,0,0,0,0-0.1c-0.2-0.5-0.3-1.1-0.2-1.6l0,0c0.2-1.5-0.8-2.8-2.2-3.1l0,0
			c-1.5-0.3-2.5-1.7-2.2-3.2c0,0,0,0,0,0c0.1-0.5,0.3-1,0.7-1.4l0,0c1-1.1,1-2.7,0-3.8l0,0c-1-1.1-1-2.8,0.1-3.9
			c0.4-0.4,0.9-0.6,1.4-0.7l0,0c1.4-0.3,2.4-1.7,2.2-3.1l0,0c-0.2-1.5,0.8-2.9,2.3-3.1c0,0,0,0,0,0c0.5-0.1,1.1,0,1.6,0.2l0,0
			c1.3,0.6,2.9,0.1,3.6-1.2l0,0c0.7-1.3,2.4-1.9,3.7-1.2C247.7,0.8,248.1,1.2,248.4,1.7L248.4,1.7z"/>
		<g id="Groupe_44" class="st8">
			<path id="Tracé_1244" class="st5" d="M248.3,1.6L248.3,1.6c0.7,1.3,2.3,1.8,3.6,1.2l0,0c1.4-0.7,3-0.1,3.7,1.2c0,0,0,0.1,0,0.1
				c0.2,0.5,0.3,1.1,0.2,1.6l0,0c-0.2,1.5,0.8,2.8,2.2,3.1l0,0c1.5,0.2,2.5,1.6,2.2,3.1c-0.1,0.5-0.3,1-0.7,1.4l0,0
				c-1,1.1-1,2.7,0,3.8l0,0c1,1.1,1,2.8-0.1,3.9c-0.4,0.4-0.9,0.6-1.4,0.7l0,0c-1.4,0.3-2.4,1.6-2.2,3.1l0,0
				c0.2,1.5-0.8,2.9-2.3,3.1c0,0,0,0,0,0c-0.5,0.1-1.1,0-1.6-0.2l0,0c-1.3-0.6-2.9-0.1-3.6,1.2l0,0c-0.7,1.3-2.4,1.8-3.7,1.1
				c-0.5-0.2-0.9-0.6-1.1-1.1l0,0c-0.7-1.3-2.4-1.9-3.7-1.2l0,0c-1.4,0.7-3,0.1-3.7-1.2c0,0,0,0,0-0.1c-0.2-0.5-0.3-1.1-0.2-1.6l0,0
				c0.2-1.5-0.8-2.8-2.2-3.1l0,0c-1.5-0.3-2.5-1.7-2.2-3.2c0,0,0,0,0,0c0.1-0.5,0.3-1,0.7-1.4l0,0c1-1.1,1-2.7,0-3.8l0,0
				c-1-1.1-1-2.8,0.1-3.9c0.4-0.4,0.9-0.6,1.4-0.7l0,0c1.4-0.3,2.4-1.7,2.2-3.1l0,0c-0.2-1.5,0.8-2.9,2.3-3.1c0,0,0,0,0,0
				c0.5-0.1,1.1,0,1.6,0.2l0,0c1.3,0.6,2.9,0.1,3.6-1.2l0,0c0.7-1.3,2.4-1.9,3.7-1.2C247.6,0.6,248,1.1,248.3,1.6L248.3,1.6z"/>
		</g>
		<path id="Tracé_1245" class="st5" d="M241.6,12.4h-1.2c-0.6,0-1.1,0.4-1.1,1l-0.3,5.7c0,0.5,0.4,1,0.9,1.1h1.3
			c0.6,0,1.1-0.5,1.1-1.1l0.3-5.7c0-0.5-0.4-1-0.9-1C241.7,12.4,241.7,12.4,241.6,12.4L241.6,12.4z"/>
		<path id="Tracé_1246" class="st5" d="M251.6,12.4h-2.9l0.8-1.9c0.1-0.2,0.1-0.4,0.1-0.6l-0.2-1.5c-0.1-0.6-0.6-1.1-1.2-1.1h-1.5
			c-0.1,1.5-0.6,2.9-1.6,4.1l-0.9,1.1c-0.2,0.3-0.4,0.6-0.4,1l-0.3,5.3c0,0.7,0.5,1.3,1.2,1.3c0,0,0,0,0,0h5.2
			c0.4,0,0.9-0.2,1.2-0.5l0.5-0.5c0.2-0.2,0.3-0.4,0.3-0.7l1-4.3c0.1-0.4,0-0.8-0.2-1.2l0,0C252.4,12.6,252,12.4,251.6,12.4
			L251.6,12.4z"/>
	</g>
	<g id="freepik--basic-option--inject-246">
		<path id="Tracé_1247" class="st6" d="M59.2,24.9h58.5c10.2,0,18.6,8.3,18.6,18.5c0,0,0,0,0,0.1v158.8c0,10.2-8.3,18.6-18.5,18.6
			c0,0-0.1,0-0.1,0H59.3c-10.2,0-18.6-8.3-18.6-18.5c0,0,0-0.1,0-0.1V43.5C40.6,33.3,48.8,25,59.1,24.9
			C59.1,24.9,59.2,24.9,59.2,24.9L59.2,24.9z"/>
		<path id="Tracé_1248" class="st9" d="M59.5,24.9h57.9c10.4,0,18.9,8.5,18.9,18.9V202c0,10.4-8.5,18.9-18.9,18.9H59.4
			c-10.4,0-18.9-8.5-18.9-18.9V43.8C40.6,33.4,49,25,59.5,24.9z"/>
		<path id="Tracé_1249" class="st7" d="M136.4,34.5v38.9H40.5V34.5c0-5.3,4.3-9.6,9.6-9.6h76.5C132,24.9,136.3,29.2,136.4,34.5
			C136.4,34.5,136.4,34.5,136.4,34.5L136.4,34.5z"/>
		<path id="Tracé_1250" class="st2" d="M136.4,34.5v38.9H40.5V34.5c0-5.3,4.3-9.6,9.6-9.6h76.5C132,24.9,136.3,29.2,136.4,34.5
			C136.4,34.5,136.4,34.5,136.4,34.5L136.4,34.5z"/>
		<circle id="Ellipse_36" class="st6" cx="87.1" cy="134.1" r="8.5"/>
		<circle id="Ellipse_37" class="st3" cx="87.1" cy="134.1" r="8.5"/>
		
			<rect id="Rectangle_284" x="81.8" y="132.4" transform="matrix(0.7071 -0.7071 0.7071 0.7071 -69.3008 100.7776)" class="st5" width="10.4" height="3.2"/>
		
			<rect id="Rectangle_285" x="85.5" y="128.9" transform="matrix(0.7071 -0.7071 0.7071 0.7071 -69.336 100.841)" class="st5" width="3.2" height="10.4"/>
		<circle id="Ellipse_38" class="st4" cx="87.4" cy="165.5" r="8.6"/>
		<path id="Tracé_1251" class="st5" d="M93.6,163.6l-4.9,5l-2.3,2.3l-2.3-2.3l2.3-2.3l4.9-5L93.6,163.6z"/>
		<path id="Tracé_1252" class="st5" d="M88.7,168.6l-2.3,2.3l-4.9-4.9l2.3-2.3l2.6,2.6L88.7,168.6L88.7,168.6z"/>
		<path id="Tracé_1253" class="st2" d="M68.4,190.1h40c5.4,0,9.8,4.4,9.8,9.8v0.8c0,5.4-4.4,9.8-9.8,9.8h-40
			c-5.4,0-9.8-4.4-9.8-9.8v-0.8C58.6,194.5,63,190.2,68.4,190.1z"/>
		<rect id="Rectangle_286" x="62.8" y="148.3" class="st2" width="49.4" height="2"/>
		<rect id="Rectangle_287" x="62.8" y="115.5" class="st2" width="49.4" height="2"/>
		<rect id="Rectangle_288" x="62.8" y="83.8" class="st2" width="49.4" height="2"/>
		<circle id="Ellipse_39" class="st6" cx="87.1" cy="100.6" r="8.5"/>
		<circle id="Ellipse_40" class="st3" cx="87.1" cy="100.6" r="8.5"/>
		
			<rect id="Rectangle_289" x="81.8" y="99" transform="matrix(0.7071 -0.7071 0.7071 0.7071 -45.6616 91.0222)" class="st5" width="10.4" height="3.2"/>
		
			<rect id="Rectangle_290" x="85.4" y="95.4" transform="matrix(0.7071 -0.7071 0.7071 0.7071 -45.6616 91.0222)" class="st5" width="3.2" height="10.4"/>
	</g>
	<rect id="Rectangle_291" x="50.5" y="38" class="st10" width="73" height="33.1"/>
	<g id="Groupe_45">
		<g id="Version">
			<g>
				<path class="st5" d="M72.1,46c-0.1,0.2-0.2,0.2-0.3,0.2h-2.1c-0.2,0-0.3-0.1-0.4-0.2l-2.7-7.5c-0.1-0.3,0-0.4,0.3-0.4h1.6
					c0.3,0,0.4,0.1,0.5,0.3l1.8,5.8l1.8-5.7c0.1-0.2,0.2-0.3,0.5-0.3h1.5c0.3,0,0.4,0.1,0.3,0.4L72.1,46L72.1,46z"/>
			</g>
			<g>
				<path class="st5" d="M79.7,45.9c-0.6,0.3-1.4,0.4-2.3,0.4s-1.8-0.2-2.3-0.7c-0.5-0.5-0.8-1.1-0.8-2s0.3-1.5,0.8-2
					c0.5-0.5,1.2-0.7,2.1-0.7c0.8,0,1.4,0.2,1.9,0.7s0.7,1,0.7,1.8c0,0.2,0,0.4,0,0.5c0,0.1-0.1,0.1-0.3,0.1h-2.9
					c0.2,0.4,0.5,0.7,1.1,0.7c0.2,0,0.3,0,0.5,0c0.2,0,0.3-0.1,0.4-0.1c0.1,0,0.2-0.1,0.4-0.1c0.1,0,0.2-0.1,0.3-0.1
					c0.2,0,0.3,0,0.3,0.1l0.3,1C79.9,45.8,79.8,45.9,79.7,45.9L79.7,45.9z M77,42.6c-0.3,0-0.6,0.2-0.7,0.6h1.3
					C77.6,42.8,77.4,42.6,77,42.6z"/>
			</g>
			<g>
				<path class="st5" d="M80.6,46v-4.5c0-0.2,0.1-0.2,0.2-0.2h1.5c0.2,0,0.2,0.1,0.2,0.2v0.4c0.4-0.5,0.9-0.8,1.4-0.8
					c0.3,0,0.5,0,0.7,0.1c0.1,0.1,0.2,0.2,0.1,0.3l-0.3,1.4c0,0.1-0.1,0.2-0.3,0.1c-0.3-0.1-0.5-0.1-0.7-0.1c-0.3,0-0.6,0.1-0.8,0.2
					V46c0,0.2-0.1,0.2-0.2,0.2h-1.5C80.7,46.2,80.6,46.1,80.6,46L80.6,46z"/>
			</g>
			<g>
				<path class="st5" d="M87.4,44.9c0.2,0,0.3-0.1,0.3-0.2c0-0.1-0.1-0.1-0.2-0.2s-0.3-0.1-0.7-0.2c-1.2-0.2-1.8-0.8-1.8-1.6
					c0-0.5,0.2-0.9,0.7-1.2s1-0.5,1.8-0.5c0.4,0,0.8,0,1.2,0.1c0.4,0.1,0.8,0.2,1,0.4c0.1,0.1,0.2,0.2,0.1,0.3l-0.4,0.9
					c-0.1,0.2-0.2,0.3-0.4,0.1c-0.5-0.3-1-0.4-1.5-0.4c-0.2,0-0.3,0-0.3,0.2c0,0.1,0.1,0.1,0.2,0.2c0.1,0,0.4,0.1,0.8,0.2
					c0.6,0.1,1,0.3,1.3,0.5c0.3,0.2,0.4,0.6,0.4,1c0,1.2-0.8,1.8-2.6,1.8c-0.9,0-1.7-0.2-2.3-0.5c-0.2-0.1-0.2-0.2-0.1-0.4l0.3-0.9
					c0.1-0.2,0.2-0.2,0.4-0.1C86.2,44.7,86.8,44.9,87.4,44.9L87.4,44.9z"/>
				<path class="st5" d="M91.7,40.6c-0.3,0-0.6-0.1-0.8-0.3c-0.2-0.2-0.3-0.5-0.3-0.8s0.1-0.6,0.3-0.8c0.2-0.2,0.5-0.3,0.8-0.3
					s0.6,0.1,0.8,0.3c0.2,0.2,0.3,0.5,0.3,0.8s-0.1,0.6-0.3,0.8C92.3,40.5,92,40.6,91.7,40.6L91.7,40.6z M90.7,46v-4.5
					c0-0.2,0.1-0.2,0.2-0.2h1.5c0.2,0,0.2,0.1,0.2,0.2V46c0,0.2-0.1,0.2-0.2,0.2h-1.5C90.8,46.2,90.7,46.1,90.7,46z"/>
				<path class="st5" d="M98.7,45.7c-0.5,0.5-1.3,0.7-2.2,0.7s-1.6-0.2-2.2-0.7s-0.8-1.1-0.8-2s0.3-1.5,0.8-2s1.3-0.7,2.2-0.7
					s1.6,0.2,2.2,0.7s0.8,1.1,0.8,2S99.2,45.2,98.7,45.7z M95.9,44.4c0.2,0.2,0.3,0.3,0.6,0.3s0.4-0.1,0.6-0.3
					c0.2-0.2,0.2-0.4,0.2-0.7s-0.1-0.5-0.2-0.7s-0.3-0.3-0.6-0.3s-0.4,0.1-0.6,0.3s-0.2,0.4-0.2,0.7S95.8,44.2,95.9,44.4z"/>
				<path class="st5" d="M100.3,46v-4.5c0-0.2,0.1-0.2,0.2-0.2h1.5c0.2,0,0.2,0.1,0.2,0.2v0.2c0.4-0.4,0.9-0.5,1.5-0.5
					s1.1,0.2,1.4,0.5c0.4,0.3,0.5,0.8,0.5,1.5V46c0,0.2-0.1,0.2-0.2,0.2H104c-0.2,0-0.2-0.1-0.2-0.2v-2.4c0-0.5-0.2-0.8-0.7-0.8
					c-0.3,0-0.5,0.1-0.8,0.3v2.8c0,0.2-0.1,0.2-0.2,0.2h-1.5C100.3,46.2,100.3,46.1,100.3,46L100.3,46z"/>
			</g>
		</g>
		<g id="Simple">
			<g>
				<path class="st5" d="M73,58.9c0.5,0,0.8-0.2,0.8-0.5c0-0.2-0.1-0.3-0.3-0.4c-0.2-0.1-0.7-0.3-1.4-0.5c-0.9-0.3-1.6-0.6-2.1-1
					c-0.4-0.4-0.6-1-0.6-1.6c0-0.7,0.3-1.3,0.8-1.8c0.6-0.5,1.3-0.7,2.4-0.7c1.1,0,2.2,0.3,3.2,0.9c0.1,0.1,0.2,0.2,0.1,0.3
					l-0.6,1.3c-0.1,0.1-0.1,0.2-0.2,0.2c-0.1,0-0.2,0-0.3,0c-1-0.5-1.8-0.8-2.4-0.8c-0.6,0-0.9,0.2-0.9,0.5c0,0.2,0.1,0.3,0.3,0.4
					c0.2,0.1,0.7,0.3,1.5,0.5c0.8,0.2,1.5,0.5,1.9,0.9c0.4,0.4,0.6,0.9,0.6,1.6c0,0.8-0.3,1.5-0.9,1.9s-1.3,0.7-2.3,0.7
					c-1.2,0-2.4-0.3-3.5-0.8c-0.2-0.1-0.2-0.2-0.1-0.4l0.6-1.3c0.1-0.2,0.2-0.2,0.4-0.1c0.4,0.2,0.7,0.3,0.9,0.4
					c0.2,0.1,0.5,0.2,0.8,0.3C72.4,58.9,72.7,58.9,73,58.9L73,58.9z"/>
				<path class="st5" d="M78,55c-0.3,0-0.6-0.1-0.8-0.3c-0.2-0.2-0.3-0.5-0.3-0.8s0.1-0.6,0.3-0.8c0.2-0.2,0.5-0.3,0.8-0.3
					s0.6,0.1,0.8,0.3c0.2,0.2,0.3,0.5,0.3,0.8s-0.1,0.6-0.3,0.8C78.6,54.9,78.4,55,78,55L78,55z M77,60.4v-4.5
					c0-0.2,0.1-0.2,0.2-0.2h1.5c0.2,0,0.2,0.1,0.2,0.2v4.5c0,0.2-0.1,0.2-0.2,0.2h-1.5C77.1,60.6,77,60.5,77,60.4z"/>
				<path class="st5" d="M80.1,60.4v-4.5c0-0.2,0.1-0.2,0.2-0.2h1.5c0.2,0,0.2,0.1,0.2,0.2V56c0.4-0.4,0.9-0.5,1.4-0.5
					c0.7,0,1.2,0.2,1.5,0.7c0.5-0.5,1-0.7,1.7-0.7c0.6,0,1,0.2,1.4,0.5c0.3,0.3,0.5,0.8,0.5,1.5v2.9c0,0.2-0.1,0.2-0.2,0.2h-1.5
					c-0.2,0-0.2-0.1-0.2-0.2V58c0-0.5-0.2-0.8-0.6-0.8c-0.2,0-0.4,0.1-0.6,0.2v2.9c0,0.2-0.1,0.2-0.2,0.2h-1.5
					c-0.2,0-0.2-0.1-0.2-0.2V58c0-0.5-0.2-0.8-0.6-0.8c-0.2,0-0.4,0.1-0.6,0.2v2.9c0,0.2-0.1,0.2-0.2,0.2h-1.5
					C80.2,60.6,80.1,60.5,80.1,60.4L80.1,60.4z"/>
				<path class="st5" d="M89.7,63.4v-7.6c0-0.2,0.1-0.2,0.2-0.2h1.5c0.2,0,0.2,0.1,0.2,0.2V56c0.4-0.4,0.8-0.5,1.4-0.5
					c0.7,0,1.2,0.2,1.6,0.7s0.7,1.1,0.7,2c0,0.8-0.2,1.5-0.6,1.9c-0.4,0.5-1,0.7-1.7,0.7c-0.6,0-1-0.2-1.4-0.5v3.1
					c0,0.2-0.1,0.2-0.2,0.2h-1.5C89.7,63.6,89.7,63.5,89.7,63.4L89.7,63.4z M92.5,59.1c0.2,0,0.4-0.1,0.6-0.3
					c0.1-0.2,0.2-0.4,0.2-0.7s-0.1-0.5-0.2-0.7c-0.1-0.2-0.3-0.3-0.6-0.3c-0.3,0-0.6,0.1-0.8,0.4v1.1C92,58.9,92.2,59.1,92.5,59.1
					L92.5,59.1z"/>
				<path class="st5" d="M96.3,60.4v-7.7c0-0.2,0.1-0.2,0.2-0.2h1.5c0.2,0,0.2,0.1,0.2,0.2v7.7c0,0.2-0.1,0.2-0.2,0.2h-1.5
					C96.4,60.6,96.3,60.5,96.3,60.4z"/>
				<path class="st5" d="M104.6,60.3c-0.6,0.3-1.4,0.4-2.3,0.4s-1.8-0.2-2.3-0.7c-0.5-0.5-0.8-1.1-0.8-2s0.3-1.5,0.8-2
					c0.5-0.5,1.2-0.7,2.1-0.7c0.8,0,1.4,0.2,1.9,0.7s0.7,1,0.7,1.8c0,0.2,0,0.4,0,0.5c0,0.1-0.1,0.1-0.3,0.1h-2.9
					c0.2,0.4,0.5,0.7,1.1,0.7c0.2,0,0.3,0,0.5,0c0.2,0,0.3-0.1,0.4-0.1c0.1,0,0.2-0.1,0.4-0.1c0.1,0,0.2-0.1,0.3-0.1
					c0.2,0,0.3,0,0.3,0.1l0.3,1C104.8,60.2,104.7,60.3,104.6,60.3L104.6,60.3z M101.9,57c-0.3,0-0.6,0.2-0.7,0.6h1.3
					C102.5,57.2,102.3,57,101.9,57z"/>
			</g>
		</g>
	</g>
	<rect id="Rectangle_292" x="165.4" y="29.2" class="st10" width="73" height="33.1"/>
	<g id="Groupe_46">
		<g id="Version-2">
			<g>
				<path class="st5" d="M187,37.1c-0.1,0.2-0.2,0.2-0.4,0.2h-2.1c-0.2,0-0.3-0.1-0.4-0.2l-2.7-7.5c-0.1-0.3,0-0.4,0.3-0.4h1.6
					c0.3,0,0.4,0.1,0.5,0.3l1.8,5.8l1.8-5.7c0.1-0.2,0.2-0.3,0.5-0.3h1.5c0.3,0,0.4,0.1,0.3,0.4L187,37.1L187,37.1z"/>
			</g>
			<g>
				<path class="st5" d="M194.7,37c-0.6,0.3-1.4,0.4-2.3,0.4s-1.8-0.2-2.3-0.7c-0.5-0.5-0.8-1.1-0.8-2s0.3-1.5,0.8-2
					c0.5-0.5,1.2-0.7,2.1-0.7c0.8,0,1.4,0.2,1.9,0.7s0.7,1,0.7,1.8c0,0.2,0,0.4,0,0.5c0,0.1-0.1,0.1-0.3,0.1h-2.9
					c0.2,0.4,0.5,0.7,1.1,0.7c0.2,0,0.4,0,0.5,0c0.2,0,0.3-0.1,0.4-0.1c0.1,0,0.2-0.1,0.4-0.1c0.1,0,0.2-0.1,0.3-0.1
					c0.2,0,0.3,0,0.3,0.1l0.3,1C194.9,36.9,194.8,37,194.7,37L194.7,37z M192,33.7c-0.3,0-0.6,0.2-0.7,0.6h1.3
					C192.6,33.9,192.4,33.7,192,33.7z"/>
			</g>
			<g>
				<path class="st5" d="M195.6,37.1v-4.5c0-0.2,0.1-0.2,0.2-0.2h1.5c0.2,0,0.2,0.1,0.2,0.2V33c0.4-0.5,0.9-0.8,1.4-0.8
					c0.3,0,0.5,0,0.6,0.1c0.1,0.1,0.1,0.2,0.1,0.3l-0.3,1.4c0,0.1-0.1,0.2-0.3,0.1c-0.3-0.1-0.5-0.1-0.7-0.1c-0.3,0-0.6,0.1-0.8,0.2
					v2.8c0,0.2-0.1,0.2-0.2,0.2h-1.5C195.7,37.3,195.6,37.2,195.6,37.1L195.6,37.1z"/>
			</g>
			<g>
				<path class="st5" d="M202.4,36c0.2,0,0.3-0.1,0.3-0.2c0-0.1-0.1-0.1-0.2-0.2s-0.3-0.1-0.7-0.2c-1.2-0.2-1.8-0.8-1.8-1.6
					c0-0.5,0.2-0.9,0.6-1.2s1-0.5,1.8-0.5c0.4,0,0.8,0,1.2,0.1c0.4,0.1,0.8,0.2,1,0.4c0.1,0.1,0.2,0.2,0.1,0.3l-0.4,0.9
					c-0.1,0.2-0.2,0.3-0.4,0.1c-0.5-0.3-1-0.4-1.5-0.4c-0.2,0-0.3,0-0.3,0.2c0,0.1,0.1,0.1,0.2,0.2c0.1,0,0.4,0.1,0.8,0.2
					c0.6,0.1,1,0.3,1.3,0.5c0.3,0.2,0.4,0.6,0.4,1c0,1.2-0.9,1.8-2.6,1.8c-0.9,0-1.7-0.2-2.3-0.5c-0.2-0.1-0.2-0.2-0.1-0.4l0.4-0.9
					c0.1-0.2,0.2-0.2,0.4-0.1C201.2,35.9,201.8,36,202.4,36L202.4,36z"/>
				<path class="st5" d="M206.7,31.7c-0.3,0-0.6-0.1-0.8-0.3c-0.2-0.2-0.3-0.5-0.3-0.8s0.1-0.6,0.3-0.8c0.2-0.2,0.5-0.3,0.8-0.3
					s0.6,0.1,0.8,0.3c0.2,0.2,0.3,0.5,0.3,0.8s-0.1,0.6-0.3,0.8C207.3,31.6,207,31.7,206.7,31.7L206.7,31.7z M205.7,37.1v-4.5
					c0-0.2,0.1-0.2,0.2-0.2h1.5c0.2,0,0.2,0.1,0.2,0.2v4.5c0,0.2-0.1,0.2-0.2,0.2h-1.5C205.8,37.3,205.7,37.3,205.7,37.1z"/>
				<path class="st5" d="M213.6,36.8c-0.5,0.5-1.3,0.7-2.2,0.7s-1.6-0.2-2.2-0.7c-0.5-0.5-0.8-1.1-0.8-2s0.3-1.5,0.8-2
					c0.5-0.5,1.3-0.7,2.2-0.7s1.6,0.2,2.2,0.7c0.5,0.5,0.8,1.1,0.8,2S214.2,36.3,213.6,36.8z M210.9,35.5c0.1,0.2,0.3,0.3,0.6,0.3
					s0.4-0.1,0.6-0.3c0.1-0.2,0.2-0.4,0.2-0.7s-0.1-0.5-0.2-0.7s-0.3-0.3-0.6-0.3s-0.4,0.1-0.6,0.3c-0.1,0.2-0.2,0.4-0.2,0.7
					S210.8,35.3,210.9,35.5z"/>
				<path class="st5" d="M215.3,37.1v-4.5c0-0.2,0.1-0.2,0.2-0.2h1.5c0.2,0,0.2,0.1,0.2,0.2v0.2c0.4-0.4,0.9-0.5,1.5-0.5
					s1.1,0.2,1.4,0.5c0.4,0.3,0.5,0.8,0.5,1.5v2.9c0,0.2-0.1,0.2-0.2,0.2H219c-0.2,0-0.2-0.1-0.2-0.2v-2.4c0-0.5-0.2-0.8-0.7-0.8
					c-0.3,0-0.5,0.1-0.8,0.3v2.8c0,0.2-0.1,0.2-0.2,0.2h-1.5C215.3,37.3,215.3,37.2,215.3,37.1L215.3,37.1z"/>
			</g>
		</g>
		<g id="Partenaire">
			<g>
				<path class="st5" d="M174.6,51.5v-7.7c0-0.2,0.1-0.2,0.2-0.2h3c1,0,1.9,0.3,2.5,0.8c0.6,0.5,0.9,1.2,0.9,2.1s-0.3,1.5-1,2.1
					s-1.5,0.8-2.5,0.8h-1.1v2.2c0,0.2-0.1,0.2-0.2,0.2h-1.7C174.7,51.7,174.6,51.7,174.6,51.5L174.6,51.5z M177.9,45.4h-1.1v2.2h1.1
					c0.4,0,0.6-0.1,0.9-0.3c0.2-0.2,0.3-0.5,0.3-0.8c0-0.3-0.1-0.6-0.3-0.8S178.3,45.4,177.9,45.4L177.9,45.4z"/>
			</g>
			<g>
				<path class="st5" d="M187.2,50.9l-0.8,0.7c-0.2,0.2-0.5,0.2-0.8,0l-0.4-0.3c-0.6,0.3-1.1,0.5-1.6,0.5c-0.6,0-1-0.1-1.4-0.4
					s-0.5-0.7-0.5-1.2c0-0.4,0.2-0.7,0.5-1s0.9-0.4,1.5-0.4h0.9v0c0-0.3-0.2-0.5-0.6-0.5s-0.9,0.1-1.6,0.4c-0.1,0-0.2,0-0.2,0
					c0,0-0.1-0.1-0.1-0.2l-0.4-1c-0.1-0.2,0-0.3,0.2-0.4c0.8-0.4,1.6-0.6,2.5-0.6c0.7,0,1.3,0.2,1.7,0.5s0.6,0.9,0.6,1.7V50
					c0,0.2,0.1,0.3,0.1,0.3l0.4,0.2c0.1,0,0.1,0.1,0.1,0.2C187.3,50.8,187.3,50.9,187.2,50.9L187.2,50.9z M184.2,50.5
					c0.1,0,0.3,0,0.4-0.1v-0.7h-0.4c-0.3,0-0.5,0.1-0.5,0.4C183.7,50.4,183.9,50.5,184.2,50.5z"/>
				<path class="st5" d="M187.9,51.5V47c0-0.2,0.1-0.2,0.2-0.2h1.5c0.2,0,0.2,0.1,0.2,0.2v0.4c0.4-0.5,0.9-0.8,1.4-0.8
					c0.3,0,0.5,0,0.6,0.1c0.1,0.1,0.1,0.2,0.1,0.3l-0.3,1.4c0,0.1-0.1,0.2-0.3,0.1c-0.3-0.1-0.5-0.1-0.7-0.1c-0.3,0-0.6,0.1-0.8,0.2
					v2.8c0,0.2-0.1,0.2-0.2,0.2h-1.5C188,51.7,187.9,51.6,187.9,51.5L187.9,51.5z"/>
				<path class="st5" d="M192.7,48.3c-0.2,0-0.2-0.1-0.2-0.2V47c0-0.2,0.1-0.2,0.2-0.2h0.5v-1.3c0-0.2,0.1-0.2,0.2-0.2h1.5
					c0.2,0,0.2,0.1,0.2,0.2v1.3h1.1c0.2,0,0.2,0.1,0.2,0.2v1.1c0,0.2-0.1,0.2-0.2,0.2h-1.1v1.4c0,0.3,0.1,0.5,0.3,0.5
					c0.2,0,0.3,0,0.5-0.1c0.1-0.1,0.3,0,0.3,0.1l0.4,1.1c0.1,0.1,0,0.2-0.1,0.3c-0.4,0.2-0.9,0.3-1.4,0.3c-0.7,0-1.2-0.2-1.5-0.5
					s-0.5-0.8-0.5-1.5v-1.5L192.7,48.3L192.7,48.3z"/>
				<path class="st5" d="M202.8,51.5c-0.6,0.3-1.4,0.4-2.3,0.4s-1.8-0.2-2.3-0.7c-0.5-0.5-0.8-1.1-0.8-2s0.3-1.5,0.8-2
					c0.5-0.5,1.2-0.7,2.1-0.7c0.8,0,1.4,0.2,1.9,0.7s0.7,1,0.7,1.8c0,0.2,0,0.4,0,0.5c0,0.1-0.1,0.1-0.3,0.1h-2.9
					c0.2,0.4,0.5,0.7,1.1,0.7c0.2,0,0.4,0,0.5,0c0.2,0,0.3-0.1,0.4-0.1c0.1,0,0.2-0.1,0.4-0.1c0.1,0,0.2-0.1,0.3-0.1
					c0.2,0,0.3,0,0.3,0.1l0.3,1C203,51.3,202.9,51.4,202.8,51.5L202.8,51.5z M200.2,48.1c-0.3,0-0.6,0.2-0.7,0.6h1.3
					C200.7,48.3,200.5,48.1,200.2,48.1z"/>
				<path class="st5" d="M203.7,51.5V47c0-0.2,0.1-0.2,0.2-0.2h1.5c0.2,0,0.2,0.1,0.2,0.2v0.2c0.4-0.4,0.9-0.5,1.5-0.5
					s1.1,0.2,1.4,0.5c0.4,0.3,0.5,0.8,0.5,1.5v2.9c0,0.2-0.1,0.2-0.2,0.2h-1.5c-0.2,0-0.2-0.1-0.2-0.2v-2.4c0-0.5-0.2-0.8-0.7-0.8
					c-0.3,0-0.5,0.1-0.8,0.3v2.8c0,0.2-0.1,0.2-0.2,0.2H204C203.8,51.7,203.7,51.6,203.7,51.5L203.7,51.5z"/>
				<path class="st5" d="M215.5,50.9l-0.8,0.7c-0.2,0.2-0.5,0.2-0.8,0l-0.4-0.3c-0.6,0.3-1.1,0.5-1.6,0.5c-0.6,0-1-0.1-1.4-0.4
					s-0.5-0.7-0.5-1.2c0-0.4,0.2-0.7,0.5-1s0.9-0.4,1.5-0.4h0.9v0c0-0.3-0.2-0.5-0.6-0.5s-0.9,0.1-1.6,0.4c-0.1,0-0.2,0-0.2,0
					c0,0-0.1-0.1-0.1-0.2l-0.4-1c-0.1-0.2,0-0.3,0.2-0.4c0.8-0.4,1.6-0.6,2.5-0.6c0.7,0,1.3,0.2,1.7,0.5s0.6,0.9,0.6,1.7V50
					c0,0.2,0.1,0.3,0.1,0.3l0.4,0.2c0.1,0,0.1,0.1,0.1,0.2S215.6,50.9,215.5,50.9L215.5,50.9z M212.5,50.5c0.1,0,0.3,0,0.4-0.1v-0.7
					h-0.4c-0.3,0-0.5,0.1-0.5,0.4C212,50.4,212.2,50.5,212.5,50.5z"/>
				<path class="st5" d="M217.2,46.1c-0.3,0-0.6-0.1-0.8-0.3c-0.2-0.2-0.3-0.5-0.3-0.8s0.1-0.6,0.3-0.8c0.2-0.2,0.5-0.3,0.8-0.3
					s0.6,0.1,0.8,0.3c0.2,0.2,0.3,0.5,0.3,0.8s-0.1,0.6-0.3,0.8C217.9,46,217.6,46.1,217.2,46.1L217.2,46.1z M216.2,51.5V47
					c0-0.2,0.1-0.2,0.2-0.2h1.5c0.2,0,0.2,0.1,0.2,0.2v4.5c0,0.2-0.1,0.2-0.2,0.2h-1.5C216.3,51.7,216.2,51.7,216.2,51.5z"/>
			</g>
			<g>
				<path class="st5" d="M219.4,51.5V47c0-0.2,0.1-0.2,0.2-0.2h1.5c0.2,0,0.2,0.1,0.2,0.2v0.4c0.4-0.5,0.9-0.8,1.4-0.8
					c0.3,0,0.5,0,0.6,0.1c0.1,0.1,0.1,0.2,0.1,0.3l-0.3,1.4c0,0.1-0.1,0.2-0.3,0.1c-0.3-0.1-0.5-0.1-0.7-0.1c-0.3,0-0.6,0.1-0.8,0.2
					v2.8c0,0.2-0.1,0.2-0.2,0.2h-1.5C219.4,51.7,219.3,51.6,219.4,51.5L219.4,51.5z"/>
			</g>
			<g>
				<path class="st5" d="M229.2,51.5c-0.6,0.3-1.4,0.4-2.3,0.4s-1.8-0.2-2.3-0.7c-0.5-0.5-0.8-1.1-0.8-2s0.3-1.5,0.8-2
					s1.2-0.7,2.1-0.7c0.8,0,1.4,0.2,1.9,0.7s0.7,1,0.7,1.8c0,0.2,0,0.4,0,0.5c0,0.1-0.1,0.1-0.3,0.1h-2.9c0.2,0.4,0.5,0.7,1.1,0.7
					c0.2,0,0.4,0,0.5,0c0.2,0,0.3-0.1,0.4-0.1c0.1,0,0.2-0.1,0.4-0.1c0.1,0,0.2-0.1,0.3-0.1c0.2,0,0.3,0,0.3,0.1l0.3,1
					C229.4,51.3,229.3,51.4,229.2,51.5L229.2,51.5z M226.6,48.1c-0.3,0-0.6,0.2-0.7,0.6h1.3C227.1,48.3,226.9,48.1,226.6,48.1z"/>
			</g>
		</g>
	</g>
	<g id="Groupe_47">
		<path id="Tracé_1254" class="st11" d="M262.5,350.6l8.5,1.2l6-14.6l-9.4-3.2L262.5,350.6z"/>
		<path id="Tracé_1255" class="st12" d="M265.2,341.3l2.2-6.7l4.3,0.8l5.2,1.8l-2.6,6.3L265.2,341.3L265.2,341.3z"/>
		<path id="Tracé_1256" class="st7" d="M260.6,347.9c-0.2-0.2-0.5-0.4-0.8-0.6c-0.3-0.3-0.7-0.5-1.1-0.7c-0.8-0.5-1.7-0.9-2.7-0.9
			c-0.3,0-0.6,0.1-0.8,0.3c-0.3,0.2-0.4,0.5-0.3,0.8c0.7,0.6,1.6,1,2.6,1.1l0.8,0.1c0.7,0.1,1.5,0.2,2.2,0.2l0,0
			c0.1,0,0.1,0,0.2-0.1C260.9,348.1,260.8,348,260.6,347.9L260.6,347.9L260.6,347.9z M258.9,347.8c-1.6-0.2-3.3-0.6-3.5-1.1
			c0-0.1-0.1-0.2,0.2-0.4c0.1-0.1,0.3-0.2,0.5-0.2h0.5c1,0.3,2,0.8,2.9,1.4c0.2,0.1,0.3,0.2,0.5,0.3L258.9,347.8L258.9,347.8z"/>
		<path id="Tracé_1257" class="st7" d="M260.1,344.7c-0.3-0.3-0.7-0.5-1.1-0.6c-0.4-0.1-0.8,0-1,0.4c-0.2,0.5,0.2,1.3,0.7,2.1
			c0.2,0.3,0.5,0.6,0.7,0.9c0.3,0.3,0.6,0.5,0.9,0.7h0.2c0.1,0,0.1,0,0.1-0.1l0,0c0-0.3,0.1-0.6,0.1-0.9
			C260.9,346.4,260.7,345.4,260.1,344.7L260.1,344.7L260.1,344.7z M260.4,347.6c-0.1-0.1-0.2-0.2-0.4-0.3c-0.9-0.9-1.8-2.2-1.6-2.7
			c0,0,0.1-0.2,0.5-0.1h0.1c0.3,0.1,0.5,0.2,0.7,0.4c0.4,0.7,0.6,1.5,0.6,2.3C260.3,347.4,260.4,347.5,260.4,347.6L260.4,347.6
			L260.4,347.6z"/>
		<path id="Tracé_1258" class="st6" d="M261.8,347.3l10.3,2c0.4,0.1,0.6,0.3,0.7,0.7l-0.1,7.5c-0.1,0.7-0.7,1.2-1.4,1.2H271
			c-3.7-0.8-7-1.6-11.6-2.4c-5.5-1-4.2-0.2-10.7-1.4c-3.9-0.7-3.6-4.6-1.9-4.5c7.8,0.6,9-1.2,12.6-2.9
			C260.1,347.2,261,347.2,261.8,347.3L261.8,347.3L261.8,347.3z"/>
		<path id="Tracé_1259" class="st11" d="M323.5,350.3l8.1-0.3l2.1-12.4l-10-1.4L323.5,350.3L323.5,350.3z"/>
		<path id="Tracé_1260" class="st12" d="M323.6,336.2l10,1.4l-1.4,8.4l-8.6-0.1V336.2L323.6,336.2z"/>
		<path id="Tracé_1261" class="st7" d="M335.5,343.6l-14.6-0.4l-0.6-5.2l16.4,0.5L335.5,343.6L335.5,343.6z"/>
		<path id="Tracé_1262" class="st3" d="M335.5,343.6l-14.6-0.4l-0.6-5.2l16.4,0.5L335.5,343.6L335.5,343.6z"/>
		<path id="Tracé_1263" class="st7" d="M322.4,350.5c0,0-0.4-0.2-0.9-0.4c-0.4-0.2-0.8-0.3-1.2-0.4c-0.9-0.4-1.9-0.5-2.8-0.4
			c-0.3,0.1-0.5,0.2-0.7,0.5c-0.2,0.3-0.2,0.6,0,0.9c0.8,0.5,1.8,0.7,2.7,0.5h0.7c0.7-0.1,1.3-0.2,2-0.3l0,0c0.1,0,0.1-0.1,0.2-0.2
			C322.4,350.7,322.4,350.6,322.4,350.5L322.4,350.5L322.4,350.5L322.4,350.5z M320.6,350.7c-1.5,0.1-3.1,0.1-3.5-0.3
			c-0.1-0.1-0.1-0.2,0-0.4s0.2-0.3,0.4-0.3h0.4c1,0.1,2,0.4,3,0.8c0.2,0.1,0.4,0.1,0.5,0.2L320.6,350.7L320.6,350.7z"/>
		<path id="Tracé_1264" class="st7" d="M322.5,350.7c0-0.3-0.1-0.6-0.2-0.9c-0.2-0.9-0.7-1.7-1.3-2.3c-0.4-0.2-0.8-0.4-1.2-0.3
			c-0.6,0.1-0.8,0.3-0.8,0.6c-0.1,0.5,0.5,1.3,1.3,1.9c0.6,0.4,1.2,0.8,1.9,1.1h0.2L322.5,350.7L322.5,350.7L322.5,350.7z
			 M319.4,347.8c0-0.1,0-0.2,0.4-0.2h0.1c0.3,0,0.5,0.1,0.8,0.2c0.6,0.6,1,1.3,1.2,2.1c0,0.1,0.1,0.3,0.1,0.4l-0.4-0.2
			C320.5,349.4,319.4,348.3,319.4,347.8z"/>
		<path id="Tracé_1265" class="st6" d="M323.1,349.7l9.9-0.3c0.4,0,0.7,0.2,0.8,0.5l2,7.3c0.2,0.6-0.2,1.3-0.9,1.5h0h-0.3
			c-3.6,0.1-6.7,0-11.2,0.1c-5.2,0.1-3.9,0.7-10,1c-3.7,0.2-4.5-3.7-2.9-3.9c7.2-1.1,7.8-3.1,10.5-5.6
			C321.6,349.9,322.4,349.7,323.1,349.7L323.1,349.7z"/>
		<path id="Tracé_1266" class="st6" d="M300,167.9l-33.6,166l14.2,3.1c9.9-21.6,18.2-43.6,24.3-60.8c2.9-8.2,4-15.8,6.1-23
			c2.6-8.5,6.2-16.4,8-23.6c9.2-37.5,7.8-56.1,7.8-56.1l2.1-5L300,167.9z"/>
		<path id="Tracé_1267" class="st13" d="M324.5,202.6c-1.2,7.5-2.9,16.6-5.5,27c-0.8,3.4-6.6,19.9-8,23.6
			c-2.4-23.8,2.4-64.3,2.4-64.3L324.5,202.6z"/>
		<path id="Tracé_1268" class="st6" d="M311.8,168.4l5.5,90.5l4.8,79.3l13.3,0.5c3.2-19.5,5.4-37.2,6.9-53.2
			c1-10.4-1.4-17.9-1-26.8c0.1-1.5,0.2-3,0.3-4.6c1.6-25.5,1.1-51.1-1.7-76.5c-0.5-4.8-0.9-8.1-0.9-8.1l-27.2-2.4L311.8,168.4
			L311.8,168.4L311.8,168.4z"/>
		<path id="Tracé_1269" class="st7" d="M278.9,341.6l-14-3.5l0.8-5.3l15.7,4.2L278.9,341.6L278.9,341.6z"/>
		<path id="Tracé_1270" class="st3" d="M278.9,341.6l-14-3.5l0.8-5.3l15.7,4.2L278.9,341.6L278.9,341.6z"/>
		<g id="freepik--group--inject-2">
			<path id="Tracé_1271" class="st6" d="M229.8,107.4c-0.5-1.2-18.2-5.6-18.2-5.6s-1.4,0.4-1.4,0.8s1.1,1.1,1.1,1.1
				S231.3,110.5,229.8,107.4L229.8,107.4z"/>
			<path id="Tracé_1272" class="st4" d="M202.1,98.6c0.8,1.8,2.1,3.3,3.9,4.2c1.6,0.8,3.5,1.1,5.3,0.8c-0.4-0.6-0.3-1.4,0.3-1.9
				l0.1-0.1c0,0-2-3.6-4.7-2.5l-0.9,0.3C204.7,99.8,203.2,99.5,202.1,98.6L202.1,98.6L202.1,98.6z"/>
			<path id="Tracé_1273" class="st14" d="M222.8,104.5c0,0,2.9,12,5.4,13.2c1.4,0.7,3,0.9,4.5,0.6c0,0,0.5,0.7,1.5,1.9
				c4.3,5.3,16.9,20,24.3,20c9.1,0,28.3-5,28.3-5l-7.5-11.2c0,0-13.9,6.6-17.2,7.1s-25-16-25-16s-3.9-10.7-4.4-10.6H222.8
				L222.8,104.5L222.8,104.5z"/>
			<path id="Tracé_1274" class="st6" d="M264.5,127.8l11.4,12.3l2.6-0.3l16.2-1.8l-6.1-9.5l-6.2-13.6
				C273.2,121.4,264.5,127.8,264.5,127.8L264.5,127.8z"/>
			<path id="Tracé_1275" class="st15" d="M276.2,140.2l17.8-2l-6.8-10.5C283.9,132.2,280.3,136.4,276.2,140.2z"/>
			<path id="Tracé_1276" class="st6" d="M280.6,116.8c17.1,30.7,17.1,56.2,17.1,56.2l47.9,0.4c0,0-0.8-19.1-3.2-30.3
				c-1.9-9.5-5.1-18.8-9.4-27.5c-4.4-8.6-8.2-12.1-8.2-12.1c-2-0.8-10.5-0.1-16.6,1.6c-8.5,2.3-19,4.2-23.7,7.5
				C279.5,116,280.6,116.8,280.6,116.8L280.6,116.8L280.6,116.8z"/>
			<path id="Tracé_1277" class="st4" d="M292.6,121.3c4.2,1.6,0.6,6,1.5,8c1,2,8.9,6.6,6.7,8.6s-2.8,2.6-2,6.5
				c0.7,4-1.1-0.4-1.9-3.6c-0.7-3.2-3-0.6-4.3-2.9s-0.6-5.1-3-5.4s-1.2-5.2-1.6-7C287.8,123.8,290.7,120.5,292.6,121.3L292.6,121.3
				L292.6,121.3z"/>
			<path id="Tracé_1278" class="st4" d="M332,155.2c-2.7-2.2-6.1-2-7.2,0s-4.7,7.1-5.6,5.7s-2.2-0.2-1.5,1.6s2,3,0,4.1
				s-0.9,3.6,1.3,3.2s2.8,2.8,4.2,2.2c2.1-1.1,4.5-1.6,6.9-1.6c3.2,0.2,7.6,1.6,6.2-1s-3.1-5.3-0.7-6c2.5-0.7,0.9-3.1-1.8-2.1
				S333.5,156.4,332,155.2L332,155.2L332,155.2z"/>
			<path id="Tracé_1279" class="st15" d="M324.8,128.4c4.5,13.8,13,15,17.6,14.6c-1.9-9.5-5.1-18.8-9.4-27.5
				C326.8,117.2,322.4,120.9,324.8,128.4z"/>
			<path id="Tracé_1280" class="st14" d="M342.1,116.5c0,0,12.9,13.9,15.2,15.5s9.3-4.8,9.3-4.8l7.3,4.8c0,0-6.7,7.5-13.4,10.7
				c-6.7,3.1-25.3-16.7-25.3-16.7S342.1,116.5,342.1,116.5z"/>
			<path id="Tracé_1281" class="st6" d="M324.8,103.4c-5.9-1.5,0.5,24.8,0.5,24.8l14.6,10.5l11.9-14.4
				C351.8,124.2,338.9,107,324.8,103.4L324.8,103.4z"/>
			<path id="Tracé_1282" class="st6" d="M376.4,104.3c-6.8,0.9,4.2,6.2,0,9.2s-20,11-7.6,20.2c12.3,9.2,38.2,6.9,44-5.5
				S404.4,100.5,376.4,104.3z"/>
			<path id="Tracé_1283" class="st16" d="M376.4,104.3c-6.8,0.9,4.2,6.2,0,9.2s-20,11-7.6,20.2c12.3,9.2,38.2,6.9,44-5.5
				S404.4,100.5,376.4,104.3z"/>
			<path id="Tracé_1284" class="st5" d="M392.4,108.2c-4.7-1.2-6.1-1-6.9,1.6s-1.4,3.9,1.8,4.4s7.7,2.4,7.5,0s3.6-0.1,2.2-3
				S395.5,109,392.4,108.2z"/>
			<path id="Tracé_1285" class="st4" d="M382.2,124.1c3.1-2.1,5.5-4,2.5-5.1s-4.7-0.6-6.7-0.5s-3.8-0.1-5.1,3
				c-1.4,3.1-0.4,6.4,3.4,6.1S380.4,125.3,382.2,124.1L382.2,124.1L382.2,124.1z"/>
			<path id="Tracé_1286" class="st7" d="M404.2,127.6c-0.5-2.9-1.4-3.8-4.5-4.7s-8,1.4-8.7,2.3s-5.8,1.7-3.6,3.9s3.6,4.1,7.3,3.2
				C398.4,131.6,404.9,132.8,404.2,127.6L404.2,127.6L404.2,127.6z"/>
			<path id="Tracé_1287" class="st7" d="M406,116c-2.7-2.4-3.4-4.1-5.5-1.8c-2.2,2.3-2.6,5.5,0,5.9s6.3,4.2,7.1,1.4
				S409.1,118.7,406,116L406,116z"/>
			<path id="Tracé_1288" class="st7" d="M380.9,132.7c3.3-2.9,3-4.2,0-4s-7.9,0.1-5.8,2.4S377,136.1,380.9,132.7z"/>
			<path id="Tracé_1289" class="st7" d="M392.8,120.5c1.8-0.1,3-2.2,0-2.7S387.4,120.7,392.8,120.5z"/>
			<path id="Tracé_1290" class="st17" d="M392.8,120.5c1.8-0.1,3-2.2,0-2.7S387.4,120.7,392.8,120.5z"/>
			<path id="Tracé_1291" class="st16" d="M404.2,127.6c-0.5-2.9-1.4-3.8-4.5-4.7s-8,1.4-8.7,2.3s-5.8,1.7-3.6,3.9s3.6,4.1,7.3,3.2
				C398.4,131.6,404.9,132.8,404.2,127.6L404.2,127.6L404.2,127.6z"/>
			<path id="Tracé_1292" class="st15" d="M380.9,132.7c3.3-2.9,3-4.2,0-4s-7.9,0.1-5.8,2.4S377,136.1,380.9,132.7z"/>
			<path id="Tracé_1293" class="st18" d="M406,116c-2.7-2.4-3.4-4.1-5.5-1.8c-2.2,2.3-2.6,5.5,0,5.9s6.3,4.2,7.1,1.4
				S409.1,118.7,406,116L406,116z"/>
			<path id="Tracé_1294" class="st14" d="M291,99.4c1.7,2.2,3,4.6,3.9,7.2c0.3,0.9,0.6,1.8,0.9,2.8c5.2,1.1,10.7-0.6,14.4-4.4
				c-5.2-2.5-6.8-6.1-7.3-8.3c-0.1-0.7-0.2-1.3-0.1-2v-0.1l-0.3,0.1C302.5,94.7,291,99.4,291,99.4z"/>
			<path id="Tracé_1295" class="st15" d="M291,99.4c1.7,2.2,3,4.6,3.9,7.2c5.8-2.3,6.3-7.9,6.8-10.7c0.1-0.7,0.6-1.2,1.3-1.4
				l-0.4,0.1h-0.2L291,99.4L291,99.4z"/>
			<path id="Tracé_1296" class="st6" d="M312.5,72.7c0,0,7.2-4.7,9.2,2.8s-3.2,9.4-3.2,9.4s1.7-9.4-6-9.4V72.7z"/>
			<path id="Tracé_1297" class="st6" d="M283.4,72.3c0,0-4.5,8.7,0,15s11.4-14.5,11.4-14.5L283.4,72.3z"/>
			<path id="Tracé_1298" class="st19" d="M283.4,72.3c0,0-4.5,8.7,0,15s11.4-14.5,11.4-14.5L283.4,72.3z"/>
			<path id="Tracé_1299" class="st14" d="M298.5,101.1c-3.9,3.6-9.7,4-14,0.9c-2.4-1.8-4.1-4.4-4.7-7.4c-0.1-0.4-0.1-0.8-0.2-1.2
				c-0.1-0.9-0.1-1.8-0.1-2.7c0.2-7.6,3.5-17.6,11.3-19.4c6.2-1.5,12.5,2.3,14,8.5c0.4,1.8,0.4,3.6,0,5.4
				C303.2,92.8,302.5,97.6,298.5,101.1L298.5,101.1L298.5,101.1z"/>
			<path id="Tracé_1305" class="st6" d="M302.1,90.6c0.7,0.4-0.8,6.9-0.8,6.9s3.5-1,6.3-6.2c5.4-10.2,4.1-12.9,1.7-15.1
				c-4.4-4.1-12.2,0.3-12.2,0.3c2.4,0,4.1,2.5,2.8,4.5c-1.8,2.8-1.1,8,0.9,10.3C300.7,91.4,301.1,90.1,302.1,90.6L302.1,90.6
				L302.1,90.6z"/>
			<path id="Tracé_1307" class="st6" d="M297,76.5c0,0-9,0.3-12.9-1c-0.9-0.6-1.4-1.6-1.5-2.6c-0.3-3.7,5.6-9.8,15.2-9.4
				c14.4,0.6,20.7,15.6,11.6,23.9C309.5,87.5,308.6,76.2,297,76.5L297,76.5L297,76.5z"/>
			<path id="Tracé_1308" class="st19" d="M302.1,90.6c0.7,0.4-0.8,6.9-0.8,6.9s3.5-1,6.3-6.2c5.4-10.2,4.1-12.9,1.7-15.1
				c-4.4-4.1-12.2,0.3-12.2,0.3c2.4,0,4.1,2.5,2.8,4.5c-1.8,2.8-1.1,8,0.9,10.3C300.7,91.4,301.1,90.1,302.1,90.6L302.1,90.6
				L302.1,90.6z"/>
			<path id="Tracé_1309" class="st14" d="M307.5,92.6c-1.2,1.7-3.1,2.9-5.2,3.3c-2.8,0.5-3.9-2.1-2.9-4.6c0.9-2.2,3.5-5.2,6.2-4.5
				S309,90.4,307.5,92.6z"/>
			<path id="Tracé_1311" class="st20" d="M202.1,98.6c0.8,1.8,2.1,3.3,3.9,4.2c-0.2-0.4-0.4-0.8-0.5-1.2c-0.2-0.9,3.3-0.4,1.4-1.3
				c-0.4-0.1-0.7-0.5-0.8-0.9C204.7,99.8,203.2,99.5,202.1,98.6L202.1,98.6L202.1,98.6z"/>
		</g>
	</g>
</g>
</svg>
