<svg xmlns="http://www.w3.org/2000/svg" viewBox="0 0 750 500"><g id="freepik--background-complete--inject-100"><path d="M160.78,96.06a43.74,43.74,0,1,1,44.43,43.22A43.9,43.9,0,0,1,160.78,96.06Zm64.64-1a20.91,20.91,0,1,0-20.57,21.35A21,21,0,0,0,225.42,95Z" style="fill:#f5f5f5"></path><path d="M160.78,96.06a43.9,43.9,0,0,1,43-44.64l.36,22.93a21,21,0,0,0,.68,42l.36,22.92A43.88,43.88,0,0,1,160.78,96.06Z" style="fill:#e0e0e0"></path><path d="M199.88,47.89c28.21-.45,50.72,21.44,51.17,49.78l-26.7.43c-.22-13.55-10.53-22.08-24-21.86Z" style="fill:#ebebeb"></path><rect x="40.68" y="211.34" width="11.33" height="45.24" style="fill:#e0e0e0"></rect><rect x="57.34" y="221.21" width="11.33" height="35.37" style="fill:#e0e0e0"></rect><rect x="74.25" y="229.29" width="11.33" height="27.29" style="fill:#e0e0e0"></rect><rect x="89.91" y="240.37" width="11.33" height="16.21" style="fill:#e0e0e0"></rect><rect x="177.59" y="235.76" width="137.75" height="85.26" style="fill:#fafafa"></rect><path d="M282.08,297.41c-9.55-3.62-20.54,6.39-29.9,2.31-5.45-2.38-7.92-8.54-10.59-13.85s-7.27-10.92-13.18-10.3-10.79,7.53-16.55,5.86c-3.63-1.05-5.44-5.07-6.35-8.74S204,265,201.2,262.39s-8.54-1.88-9,1.87v45.2H300S285.39,298.66,282.08,297.41Z" style="fill:#ebebeb"></path><path d="M302.83,309.46c0,.1-26.11.18-58.31.18s-58.32-.08-58.32-.18,26.1-.17,58.32-.17S302.83,309.37,302.83,309.46Z" style="fill:#e0e0e0"></path><path d="M302.83,289.72c0,.1-26.11.18-58.31.18s-58.32-.08-58.32-.18,26.1-.17,58.32-.17S302.83,289.62,302.83,289.72Z" style="fill:#e0e0e0"></path><path d="M302.83,270c0,.1-26.11.17-58.31.17s-58.32-.07-58.32-.17,26.1-.18,58.32-.18S302.83,269.88,302.83,270Z" style="fill:#e0e0e0"></path><path d="M302.83,251.22c0,.09-26.11.17-58.31.17s-58.32-.08-58.32-.17,26.1-.18,58.32-.18S302.83,251.12,302.83,251.22Z" style="fill:#e0e0e0"></path><rect x="467.81" y="75.52" width="213.13" height="80.77" style="fill:#fafafa"></rect><path d="M663,94.62c0,.15-36.22.26-80.89.26s-80.9-.11-80.9-.26,36.22-.26,80.9-.26S663,94.48,663,94.62Z" style="fill:#ebebeb"></path><path d="M663,104.18c0,.14-36.22.26-80.89.26s-80.9-.12-80.9-.26,36.22-.26,80.9-.26S663,104,663,104.18Z" style="fill:#ebebeb"></path><path d="M663,113.74c0,.14-36.22.26-80.89.26s-80.9-.12-80.9-.26,36.22-.26,80.9-.26S663,113.59,663,113.74Z" style="fill:#ebebeb"></path><path d="M663,123.29c0,.15-36.22.26-80.89.26s-80.9-.11-80.9-.26,36.22-.26,80.9-.26S663,123.15,663,123.29Z" style="fill:#ebebeb"></path><path d="M663,132.85c0,.14-36.22.26-80.89.26s-80.9-.12-80.9-.26,36.22-.26,80.9-.26S663,132.71,663,132.85Z" style="fill:#ebebeb"></path><path d="M648.87,121.72s-.11.15-.35.42a4.14,4.14,0,0,1-1.36.86,6.4,6.4,0,0,1-5.9-1.08,10.71,10.71,0,0,1-2.78-3.51c-.78-1.45-1.39-3.12-2.12-4.87a15.29,15.29,0,0,0-3.17-5.08,7,7,0,0,0-2.75-1.68,7.24,7.24,0,0,0-3.38-.19,12.94,12.94,0,0,0-6.45,3.43c-1.93,1.73-3.62,3.88-5.7,5.82a13,13,0,0,1-7.81,3.84,7.19,7.19,0,0,1-4.48-1.19,10.75,10.75,0,0,1-3.11-3.59c-1.61-2.78-2.43-6-4.52-8.54a7.29,7.29,0,0,0-3.91-2.71,5.42,5.42,0,0,0-4.6,1.1,10.32,10.32,0,0,0-3,4,25.59,25.59,0,0,0-1.43,5A31.12,31.12,0,0,1,580.6,119a11.73,11.73,0,0,1-1.31,2.44,10.86,10.86,0,0,1-1.91,2,12,12,0,0,1-4.93,2.46,11.68,11.68,0,0,1-5.45.08,12.22,12.22,0,0,1-4.8-2.37c-1.42-1.06-2.71-2.23-4.06-3.29a12.08,12.08,0,0,0-4.37-2.38,6.3,6.3,0,0,0-4.68.61,11,11,0,0,0-3.49,3.25,30.26,30.26,0,0,0-2.36,4.14,32.42,32.42,0,0,1-2.34,4.1,10.73,10.73,0,0,1-3.36,3.18,6.8,6.8,0,0,1-4.38,1,6.33,6.33,0,0,1-3.8-2.12,10.81,10.81,0,0,1-2.1-3.65,28.55,28.55,0,0,1-1-3.91c-.46-2.56-.92-5.06-2.25-7a7.88,7.88,0,0,0-5.19-3.87,5.84,5.84,0,0,0-3,.37,8,8,0,0,0-2.41,1.59c-2.73,2.61-4,5.77-6.07,7.6s-4,2.78-5.43,2.73a4.61,4.61,0,0,1-1.58-.28c-.33-.14-.5-.23-.5-.23a5.58,5.58,0,0,0,2.08.41c1.41,0,3.42-.88,5.29-2.77s3.24-5,6-7.68a8.49,8.49,0,0,1,2.48-1.66,6.22,6.22,0,0,1,3.16-.41,8.27,8.27,0,0,1,5.47,4,12.58,12.58,0,0,1,1.51,3.4c.34,1.22.57,2.48.82,3.76a26.42,26.42,0,0,0,1,3.85,10.26,10.26,0,0,0,2,3.5,5.89,5.89,0,0,0,3.54,2,6.4,6.4,0,0,0,4.09-1,10.4,10.4,0,0,0,3.21-3.06,32.4,32.4,0,0,0,2.29-4,32.82,32.82,0,0,1,2.39-4.21,11.55,11.55,0,0,1,3.65-3.4,6.84,6.84,0,0,1,5-.66,12.57,12.57,0,0,1,4.56,2.47c1.37,1.07,2.66,2.24,4,3.27a11.8,11.8,0,0,0,4.62,2.29,11.33,11.33,0,0,0,5.21-.08,11.62,11.62,0,0,0,4.72-2.36,11.14,11.14,0,0,0,1.82-1.94,12.15,12.15,0,0,0,1.25-2.33,31.2,31.2,0,0,0,1.39-5.14,26.44,26.44,0,0,1,1.47-5.14,10.85,10.85,0,0,1,3.19-4.21,6,6,0,0,1,5-1.2,7.84,7.84,0,0,1,4.19,2.89c2.17,2.65,3,5.92,4.54,8.62a10.33,10.33,0,0,0,3,3.44,6.65,6.65,0,0,0,4.18,1.12,12.59,12.59,0,0,0,7.55-3.7c2-1.9,3.75-4,5.72-5.8a13.23,13.23,0,0,1,6.66-3.49,7.58,7.58,0,0,1,3.55.22,7.28,7.28,0,0,1,2.87,1.77,15.62,15.62,0,0,1,3.21,5.21c.72,1.77,1.31,3.43,2.07,4.87a10.65,10.65,0,0,0,2.68,3.46,6.34,6.34,0,0,0,5.74,1.14A4.24,4.24,0,0,0,648.87,121.72Z" style="fill:#e0e0e0"></path><path d="M659.11,119.49l-.56,0c-.19,0-.42-.06-.69-.1a5.92,5.92,0,0,1-.91-.32,15.36,15.36,0,0,1-4.81-4.06q-.67-.78-1.38-1.68a19.47,19.47,0,0,0-1.49-1.85,8,8,0,0,0-4.77-2.17,6.76,6.76,0,0,0-2.9.37,7.38,7.38,0,0,0-2.59,1.75,58.89,58.89,0,0,0-4.26,5.51,12.74,12.74,0,0,1-2.73,2.65,8.36,8.36,0,0,1-3.73,1.39,16.76,16.76,0,0,1-8.21-1.53c-2.69-1.12-5.25-2.66-8.14-3.64a15.13,15.13,0,0,0-4.49-.9,9.78,9.78,0,0,0-4.54,1c-2.89,1.38-5.15,3.91-7.87,6a16,16,0,0,1-4.55,2.5,17,17,0,0,1-5.22.9,19.25,19.25,0,0,1-10.37-2.87,25.21,25.21,0,0,1-7.86-7.83c-2.11-3.16-3.26-6.75-4.79-10a20.38,20.38,0,0,0-2.78-4.55,12.12,12.12,0,0,0-4.1-3.17,7.31,7.31,0,0,0-4.94-.52,8.28,8.28,0,0,0-4.11,2.7,13.75,13.75,0,0,0-2.45,4.26A32.8,32.8,0,0,0,542.6,108c-.34,1.58-.64,3.16-1.08,4.69a20.16,20.16,0,0,1-1.76,4.38,19.84,19.84,0,0,1-5.93,6.7,17.39,17.39,0,0,1-7.75,3.13,16.26,16.26,0,0,1-7.66-.88,15.12,15.12,0,0,1-9.24-9.06c-.64-1.86-1-3.65-1.42-5.25a12.1,12.1,0,0,0-1.84-4.1,6.57,6.57,0,0,0-5.34-2.73,4.13,4.13,0,0,0-2,.73,3.48,3.48,0,0,1,2-.84,6.67,6.67,0,0,1,5.51,2.72,12.16,12.16,0,0,1,1.92,4.15c.48,1.61.82,3.4,1.46,5.22a14.79,14.79,0,0,0,9.08,8.81,16,16,0,0,0,7.48.83,17,17,0,0,0,7.55-3.08,19.4,19.4,0,0,0,5.79-6.57c1.5-2.66,2.13-5.77,2.77-9a33.48,33.48,0,0,1,1.28-4.78A14.2,14.2,0,0,1,546,98.72a8.68,8.68,0,0,1,4.35-2.86,7.85,7.85,0,0,1,5.28.55,12.6,12.6,0,0,1,4.28,3.29,20.91,20.91,0,0,1,2.86,4.67c1.55,3.33,2.69,6.86,4.76,9.95a24.62,24.62,0,0,0,7.69,7.68,18.75,18.75,0,0,0,10.09,2.8,16.59,16.59,0,0,0,5.06-.87,15.45,15.45,0,0,0,4.42-2.42c2.68-2,5-4.56,8-6a10.24,10.24,0,0,1,4.75-1,15.57,15.57,0,0,1,4.63.94c2.94,1,5.52,2.57,8.15,3.67a16.35,16.35,0,0,0,8,1.53,8.07,8.07,0,0,0,3.57-1.31,12.39,12.39,0,0,0,2.65-2.56,59.74,59.74,0,0,1,4.32-5.52,7.57,7.57,0,0,1,2.71-1.8,7,7,0,0,1,3-.37,8.19,8.19,0,0,1,4.91,2.29,18.69,18.69,0,0,1,1.5,1.88c.46.6.91,1.17,1.35,1.69A15.54,15.54,0,0,0,657,119,4.12,4.12,0,0,0,659.11,119.49Z" style="fill:#e0e0e0"></path><path d="M490.07,95.1a8.94,8.94,0,0,1-4.28,0,8.94,8.94,0,0,1,4.28,0Z" style="fill:#e0e0e0"></path><path d="M490.07,104.18a8.94,8.94,0,0,1-4.28,0,8.94,8.94,0,0,1,4.28,0Z" style="fill:#e0e0e0"></path><path d="M490.07,113.26a8.94,8.94,0,0,1-4.28,0,8.94,8.94,0,0,1,4.28,0Z" style="fill:#e0e0e0"></path><path d="M490.07,122.34a8.94,8.94,0,0,1-4.28,0,8.94,8.94,0,0,1,4.28,0Z" style="fill:#e0e0e0"></path><path d="M490.07,131.43a8.94,8.94,0,0,1-4.28,0,8.62,8.62,0,0,1,4.28,0Z" style="fill:#e0e0e0"></path><path d="M509.73,143.1a35.36,35.36,0,0,1-8.56,0,35.36,35.36,0,0,1,8.56,0Z" style="fill:#e0e0e0"></path><path d="M547.45,143.1a35.28,35.28,0,0,1-8.55,0,35.28,35.28,0,0,1,8.55,0Z" style="fill:#e0e0e0"></path><path d="M585.18,143.1a35.36,35.36,0,0,1-8.56,0,35.36,35.36,0,0,1,8.56,0Z" style="fill:#e0e0e0"></path><path d="M622.9,143.1a35.36,35.36,0,0,1-8.56,0,35.36,35.36,0,0,1,8.56,0Z" style="fill:#e0e0e0"></path><path d="M660.62,143.1a35.28,35.28,0,0,1-8.55,0,35.28,35.28,0,0,1,8.55,0Z" style="fill:#e0e0e0"></path></g><g id="freepik--Floor--inject-100"><path d="M702.93,461.49c0,.14-145.93.26-325.91.26s-325.95-.12-325.95-.26,145.9-.26,326-.26S702.93,461.35,702.93,461.49Z" style="fill:#263238"></path></g><g id="freepik--Analysis--inject-100"><rect x="227.57" y="50.69" width="266.07" height="174.52" style="fill:#fafafa"></rect><path d="M493.65,225.21c0-1.68-.08-68.08-.21-174.52l.21.21L227.59,51h0l.26-.26c0,62.06,0,121.13,0,174.52l-.24-.24,266.08.24-266.08.24h-.23v-.24c0-53.39,0-112.46,0-174.52v-.26h.28l266.06,0h.2v.21C493.73,157.13,493.65,223.53,493.65,225.21Z" style="fill:#263238"></path><path d="M308.89,147.06l26.17.37c-.2,13.94-11.95,25.31-26.17,25.31h-.15Z" style="fill:#455a64"></path><path d="M352.16,182.5a2.2,2.2,0,0,1-.56,0l-1.6.05-5.85.06h-.07l-.05-.06c-2.33-2.95-5.34-6.74-8.63-10.88l-7-8.88.13.07-7.7-.07-2.15-.05a4.48,4.48,0,0,1-.76,0,3.75,3.75,0,0,1,.76-.06l2.15,0,7.7-.07h.09l0,.06,7,8.84,8.57,10.93-.13-.05,5.85.06,1.6,0A2.44,2.44,0,0,1,352.16,182.5Z" style="fill:#263238"></path><path d="M361.55,185.52c0,.11-3.79.2-8.47.2s-8.47-.09-8.47-.2,3.79-.2,8.47-.2S361.55,185.41,361.55,185.52Z" style="fill:#263238"></path><path d="M361.55,188.65c0,.11-3.79.2-8.47.2s-8.47-.09-8.47-.2,3.79-.2,8.47-.2S361.55,188.54,361.55,188.65Z" style="fill:#263238"></path><path d="M304.75,143.34,304.38,169c-14.22-.19-25.8-11.72-25.8-25.67s11.81-25.67,26.17-25.67,26.17,11.59,26.17,25.67Z" style="fill:#736CFD"></path><path d="M294.53,134.94a1.32,1.32,0,0,1-.45.11l-1.31.21-4.7.66H288l-.06-.06-6.27-6.1c-3-3-5.73-5.64-7.67-7.61l-2.3-2.33a7.13,7.13,0,0,1-.8-.9,6.79,6.79,0,0,1,.91.79l2.38,2.24c2,1.91,4.75,4.57,7.76,7.53l6.22,6.15-.14,0,4.72-.52,1.31-.12A2.38,2.38,0,0,1,294.53,134.94Z" style="fill:#263238"></path><path d="M264.27,117.8c0,.11-3.79.2-8.47.2s-8.46-.09-8.46-.2,3.79-.2,8.46-.2S264.27,117.69,264.27,117.8Z" style="fill:#263238"></path><path d="M264.27,120.94c0,.11-3.79.2-8.47.2s-8.46-.09-8.46-.2,3.79-.2,8.46-.2S264.27,120.83,264.27,120.94Z" style="fill:#263238"></path><path d="M396.31,92.62l-.11-16A20.33,20.33,0,0,0,383,81.8a18.89,18.89,0,0,0-6.34,16.52,21.87,21.87,0,0,0,.37,2.32.13.13,0,0,1,0,.06h0l19.22-4.32Z" style="fill:#736CFD"></path><g style="opacity:0.30000000000000004"><path d="M396.31,92.62l-.11-16A20.33,20.33,0,0,0,383,81.8a18.89,18.89,0,0,0-6.34,16.52,21.87,21.87,0,0,0,.37,2.32.13.13,0,0,1,0,.06h0l19.22-4.32Z" style="fill:#fff"></path></g><path d="M416.12,87.71a18.92,18.92,0,0,0-15.51-10.86l-.61-.06-.39,0c-.38,0-.77,0-1.16,0h-.1l.1,16,0,3.75,19.22,4.2h0a19.56,19.56,0,0,0,.43-4.13A20.69,20.69,0,0,0,416.12,87.71Z" style="fill:#736CFD"></path><g style="opacity:0.30000000000000004"><path d="M416.12,87.71a18.92,18.92,0,0,0-15.51-10.86l-.61-.06-.39,0c-.38,0-.77,0-1.16,0h-.1l.1,16,0,3.75,19.22,4.2h0a19.56,19.56,0,0,0,.43-4.13A20.69,20.69,0,0,0,416.12,87.71Z"></path></g><path d="M397.34,98.36l-19.22,4.33a19.7,19.7,0,0,0,38.47-.13l-19.23-4.2" style="fill:#736CFD"></path><path d="M472.17,95.49c0,.14-9.94.26-22.2.26s-22.2-.12-22.2-.26,9.94-.26,22.2-.26S472.17,95.35,472.17,95.49Z" style="fill:#263238"></path><path d="M472.17,90.43c0,.14-9.94.26-22.2.26s-22.2-.12-22.2-.26,9.94-.26,22.2-.26S472.17,90.29,472.17,90.43Z" style="fill:#263238"></path><path d="M472.17,85.37c0,.14-9.94.26-22.2.26s-22.2-.12-22.2-.26,9.94-.26,22.2-.26S472.17,85.23,472.17,85.37Z" style="fill:#263238"></path><path d="M472.17,100.2c0,.14-9.94.26-22.2.26s-22.2-.12-22.2-.26,9.94-.26,22.2-.26S472.17,100.05,472.17,100.2Z" style="fill:#263238"></path><path d="M458.42,105.32c0,.14-6.83.26-15.25.26s-15.24-.12-15.24-.26,6.82-.26,15.24-.26S458.42,105.18,458.42,105.32Z" style="fill:#263238"></path><rect x="381.21" y="141.95" width="4.57" height="51.07" style="fill:#736CFD"></rect><rect x="390.04" y="159.29" width="4.57" height="33.72" style="fill:#736CFD"></rect><rect x="398.87" y="148.3" width="4.57" height="44.98" style="fill:#736CFD"></rect><rect x="407.7" y="143.92" width="4.57" height="49.1" style="fill:#736CFD"></rect><rect x="416.53" y="160.33" width="4.57" height="32.68" style="fill:#736CFD"></rect><rect x="425.35" y="166.74" width="4.57" height="26.27" style="fill:#736CFD"></rect><rect x="434.18" y="147.19" width="4.57" height="45.83" style="fill:#736CFD"></rect><rect x="443.01" y="155.45" width="4.57" height="37.56" style="fill:#736CFD"></rect><rect x="451.84" y="148.85" width="4.57" height="44.17" style="fill:#736CFD"></rect><rect x="460.67" y="162.93" width="4.57" height="30.09" style="fill:#736CFD"></rect><rect x="469.49" y="157.2" width="4.57" height="35.82" style="fill:#736CFD"></rect><path d="M475.93,196.57c0,.11-21.69.19-48.44.19s-48.44-.08-48.44-.19,21.68-.18,48.44-.18S475.93,196.47,475.93,196.57Z" style="fill:#263238"></path><path d="M387.74,200.59a30.43,30.43,0,0,1-6.79,0,32.11,32.11,0,0,1,6.79,0Z" style="fill:#263238"></path><path d="M399,200.8a43.37,43.37,0,0,1-8.11,0,43.37,43.37,0,0,1,8.11,0Z" style="fill:#263238"></path><path d="M408.59,200.8a43.37,43.37,0,0,1-8.11,0,43.37,43.37,0,0,1,8.11,0Z" style="fill:#263238"></path><path d="M418.19,200.8a43.37,43.37,0,0,1-8.11,0,43.37,43.37,0,0,1,8.11,0Z" style="fill:#263238"></path><path d="M427.8,200.8a43.47,43.47,0,0,1-8.12,0,43.47,43.47,0,0,1,8.12,0Z" style="fill:#263238"></path><path d="M437.4,200.8a43.37,43.37,0,0,1-8.11,0,43.37,43.37,0,0,1,8.11,0Z" style="fill:#263238"></path><path d="M447,200.8a43.37,43.37,0,0,1-8.11,0,43.37,43.37,0,0,1,8.11,0Z" style="fill:#263238"></path><path d="M456.6,200.8a43.37,43.37,0,0,1-8.11,0,43.37,43.37,0,0,1,8.11,0Z" style="fill:#263238"></path><path d="M466.2,200.8a43.37,43.37,0,0,1-8.11,0,43.37,43.37,0,0,1,8.11,0Z" style="fill:#263238"></path><path d="M475.8,200.8a43.37,43.37,0,0,1-8.11,0,43.37,43.37,0,0,1,8.11,0Z" style="fill:#263238"></path><g style="opacity:0.30000000000000004"><rect x="390.04" y="159.29" width="4.57" height="33.72" style="fill:#fff"></rect></g><g style="opacity:0.30000000000000004"><rect x="407.7" y="143.92" width="4.57" height="49.1" style="fill:#fff"></rect></g><g style="opacity:0.30000000000000004"><rect x="425.35" y="166.74" width="4.57" height="26.27" style="fill:#fff"></rect></g><g style="opacity:0.30000000000000004"><rect x="443.01" y="155.45" width="4.57" height="37.56" style="fill:#fff"></rect></g><g style="opacity:0.30000000000000004"><rect x="460.67" y="162.93" width="4.57" height="30.09" style="fill:#fff"></rect></g><circle cx="255.5" cy="83.49" r="4.4" style="fill:#736CFD"></circle><path d="M335.57,80c0,.14-14.84.26-33.14.26s-33.15-.12-33.15-.26,14.84-.26,33.15-.26S335.57,79.88,335.57,80Z" style="fill:#736CFD"></path><path d="M295.89,85.34a3.65,3.65,0,0,1-1,.1l-2.8.09c-2.37,0-5.63.07-9.24.07s-6.87,0-9.24-.07l-2.8-.09a3.65,3.65,0,0,1-1-.1,4.2,4.2,0,0,1,1-.1c.66,0,1.62-.06,2.8-.08,2.37,0,5.63-.08,9.24-.08s6.87,0,9.24.08c1.18,0,2.14,0,2.8.08A4.2,4.2,0,0,1,295.89,85.34Z" style="fill:#736CFD"></path></g><g id="freepik--character-2--inject-100"><path d="M465.54,256.65a10.55,10.55,0,0,1,.22-5A10.36,10.36,0,0,1,467.9,247c.14.08-1,2-1.63,4.7S465.7,256.64,465.54,256.65Z" style="fill:#eb996e"></path><path d="M468,246.81,440.2,215.52c-1-.81-2.13-1.93-2.24-3.08a8.94,8.94,0,0,1,.21-3A14,14,0,0,1,439.4,206a1.12,1.12,0,0,0-1.19-1.78c-1,.39-3.33,2.92-3.88,6.56a1.5,1.5,0,0,1-2.08.91c-2.39-.84-10.5-4.15-11.95-4.52-1.29-.32-2.84-.27-2,.69a49.2,49.2,0,0,0,5.73,3.92c-2.15-1.3-6.8-4-7.31-3.09-.29.52.28,1.5,2.19,2.86a9.91,9.91,0,0,0-3.1-1.32c-2.48.25,5.16,5.14,5.16,5.14-5.39-3.38-5.13-3.59-5.73-3-.45.47.49,1.57,3.13,3.81,2.15,1.81,12.72,11.13,12.72,11.13l21.31,35a20,20,0,0,0,15,8.44l43.55-.93,4.87-24.44Z" style="fill:#ffbe9d"></path><path d="M424.17,217.44a16.5,16.5,0,0,1-3.78-2.16,16.7,16.7,0,0,1-3.47-2.64,16.91,16.91,0,0,1,3.79,2.16A16.73,16.73,0,0,1,424.17,217.44Z" style="fill:#eb996e"></path><path d="M425.69,215.51a18.66,18.66,0,0,1-4.16-2.07,19.13,19.13,0,0,1-3.88-2.58,18.89,18.89,0,0,1,4.16,2.07A19.13,19.13,0,0,1,425.69,215.51Z" style="fill:#eb996e"></path><path d="M427.25,213.5a16.7,16.7,0,0,1-4-1.9,16.88,16.88,0,0,1-3.69-2.4,17.09,17.09,0,0,1,4,1.89A16.7,16.7,0,0,1,427.25,213.5Z" style="fill:#eb996e"></path><path d="M400.16,430.09l-5.59,17.16s-19.32.08-20.66,3.15l32.88,12,9.81-26.38Z" style="fill:#736CFD"></path><path d="M405.26,449.55a1.43,1.43,0,0,1,.37,1.87,1.38,1.38,0,0,1-1.86.38,1.52,1.52,0,0,1-.38-2,1.44,1.44,0,0,1,2-.18" style="fill:#e0e0e0"></path><path d="M406.79,462.44l1-2.63-31.94-10.6s-1.7.1-1.91,1.19Z" style="fill:#e0e0e0"></path><path d="M394.1,446.89c-.06.16.72.53,1.32,1.33s.78,1.64.95,1.63.27-1-.48-2S394.12,446.73,394.1,446.89Z" style="fill:#263238"></path><path d="M390.13,447.05c-.1.14.5.67.8,1.55s.19,1.65.35,1.7.6-.81.21-1.9S390.19,446.9,390.13,447.05Z" style="fill:#263238"></path><path d="M386.66,450.46c.13.09.65-.63.56-1.66s-.72-1.66-.83-1.55.17.75.23,1.6S386.5,450.39,386.66,450.46Z" style="fill:#263238"></path><path d="M395.81,443.12c0,.17.83.22,1.71.61s1.49.94,1.62.83-.33-.93-1.38-1.38S395.77,443,395.81,443.12Z" style="fill:#263238"></path><path d="M397,439.68a3.38,3.38,0,0,0,1.65.59,7.65,7.65,0,0,0,1.91.1,7.46,7.46,0,0,0,1.13-.15,2.38,2.38,0,0,0,.64-.21.75.75,0,0,0,.39-.83.93.93,0,0,0-.57-.62,2.12,2.12,0,0,0-.65-.14,6.39,6.39,0,0,0-1.15,0,6.25,6.25,0,0,0-1.88.45c-1,.42-1.51.93-1.46,1s.61-.29,1.6-.59a7.18,7.18,0,0,1,1.77-.29,6.34,6.34,0,0,1,1.05.06c.38,0,.68.14.71.33s0,.09-.1.17a2.61,2.61,0,0,1-.47.15,10.5,10.5,0,0,1-1.05.18,10.18,10.18,0,0,1-1.82,0A11.34,11.34,0,0,0,397,439.68Z" style="fill:#263238"></path><path d="M397.12,440c.05,0,.58-.41,1-1.43a5.51,5.51,0,0,0,.38-3,1.45,1.45,0,0,0-.74-1.21.83.83,0,0,0-.86.2,2.55,2.55,0,0,0-.39.55,4,4,0,0,0-.33,3.06c.33,1.09.93,1.53,1,1.48a12.75,12.75,0,0,1-.56-1.58,4.09,4.09,0,0,1,.05-1.73,3.44,3.44,0,0,1,.38-.94c.18-.34.41-.57.53-.49s.34.43.38.75a6.35,6.35,0,0,1,.08,1,6,6,0,0,1-.29,1.76C397.44,439.39,397,439.93,397.12,440Z" style="fill:#263238"></path><path d="M490.36,314.89c-6.86-2.24-34-10.59-53.82-15.47a28.77,28.77,0,0,0-22.45,4.33h0a25.15,25.15,0,0,0-10.58,25.76l8.11,50.13,28-2.29-4.34-48.26L483,343.68l42.58-12.33-.12-2.06-35.13-14.4" style="fill:#263238"></path><path d="M500.8,323.71l-60.16,13a26.89,26.89,0,0,0-19.45,16.75L391.65,435l24.49,7.55,33.28-74.64,48.44-6a52.76,52.76,0,0,0,32.77-17.06l8.47-9.4Z" style="fill:#263238"></path><path d="M489.87,325.88l-.25.08-.75.18-2.89.67-10.65,2.37-15.8,3.45-9.33,2c-3.23.71-6.61,1.36-10,2.24a30.78,30.78,0,0,0-9.34,3.92,24.47,24.47,0,0,0-6.56,6.72c-3.37,5.05-5,10.34-6.49,14.69s-2.6,7.92-3.63,10.29c-.5,1.19-.94,2.09-1.24,2.69l-.37.69a.83.83,0,0,1-.14.22s0-.09.1-.25l.31-.7c.28-.62.68-1.53,1.15-2.73,1-2.38,2.11-5.92,3.47-10.32s3-9.7,6.45-14.84a24.62,24.62,0,0,1,6.67-6.89,31.14,31.14,0,0,1,9.48-4c3.42-.89,6.79-1.53,10-2.24l9.34-2,15.83-3.34,10.68-2.2,2.91-.58.76-.13A.86.86,0,0,1,489.87,325.88Z" style="fill:#455a64"></path><path d="M539.26,305.45a25.14,25.14,0,0,1-4.6,2,23.83,23.83,0,0,1-4.79,1.49,24.73,24.73,0,0,1,4.6-2A25.13,25.13,0,0,1,539.26,305.45Z" style="fill:#eb996e"></path><path d="M517.75,242,504,297l-14.95,17.45,51.81,21.43L559.49,295l14.88-45.39c-4.13-7.63-12.07-9.46-14.72-9.78l-21.37-1.51Z" style="fill:#736CFD"></path><polygon points="517.75 241.96 481.13 245.5 483.65 274.23 511.47 271.92 516.29 248.67 517.75 241.96" style="fill:#736CFD"></polygon><path d="M514.74,253.43a12.09,12.09,0,0,1-.32,1.74c-.28,1.19-.64,2.77-1.07,4.69-.93,3.95-2.25,9.41-3.73,15.43s-2.85,11.46-3.87,15.39l-1.23,4.65A11.7,11.7,0,0,1,504,297a10.53,10.53,0,0,1,.32-1.74c.28-1.19.64-2.77,1.07-4.69.93-3.95,2.24-9.41,3.73-15.43S512,263.7,513,259.77l1.23-4.65A10.28,10.28,0,0,1,514.74,253.43Z" style="fill:#263238"></path><path d="M521,300.56c-.06.07-.82-.59-2.23-1.33a18.93,18.93,0,0,0-5.9-1.84,37,37,0,0,0-6.24-.32A13.7,13.7,0,0,1,504,297a12.18,12.18,0,0,1,2.6-.32,27.82,27.82,0,0,1,6.32.18,16.54,16.54,0,0,1,6,2A6.41,6.41,0,0,1,521,300.56Z" style="fill:#263238"></path><path d="M527.41,244.53s.08.37.31,1a7,7,0,0,0,1.47,2.34,4.45,4.45,0,0,0,3.81.84,12.8,12.8,0,0,0,2.28-.88c.78-.36,1.6-.74,2.42-1.14l8.47-4.13,2.58-1.23a3.66,3.66,0,0,1,1-.39,4.62,4.62,0,0,1-.89.57c-.58.34-1.44.81-2.5,1.38-2.13,1.14-5.09,2.68-8.41,4.27-.83.4-1.65.78-2.45,1.13a11.9,11.9,0,0,1-2.39.89,4.73,4.73,0,0,1-4.15-1,6.21,6.21,0,0,1-1.41-2.54A2.18,2.18,0,0,1,527.41,244.53Z" style="fill:#263238"></path><g style="opacity:0.30000000000000004"><path d="M504,297a45.82,45.82,0,0,1,16.46-.8,6.42,6.42,0,0,1,3.5,1.27,2.45,2.45,0,0,1,.42,3.36,2.53,2.53,0,0,1-2.5.48c-.86-.25-1.91-1.57-2.67-2-4.23-2.67-9.55-2.81-14.87-2.27"></path></g><g style="opacity:0.30000000000000004"><path d="M548.62,253c-4.36,12.36,4.42,26.21,12.66,36.4l2.11-6.3S553,240.62,548.62,253Z"></path></g><path d="M560.22,290.05a10.39,10.39,0,0,0-1.46-1.86A10,10,0,0,0,553,285.6a20,20,0,0,0-9.3,1.69c-3.36,1.26-7,3.17-11.24,3.67a20.55,20.55,0,0,1-11.6-2.06,19.87,19.87,0,0,1-7.31-6.3,19.66,19.66,0,0,1-2.85-5.86,15.69,15.69,0,0,1-.42-1.72,2.82,2.82,0,0,1-.07-.62c.05,0,.2.83.68,2.28a20.93,20.93,0,0,0,3,5.7,19.8,19.8,0,0,0,7.22,6.09,20.28,20.28,0,0,0,11.33,2c4.13-.48,7.73-2.35,11.13-3.6s6.73-2,9.51-1.6a10,10,0,0,1,5.84,2.81,7.39,7.39,0,0,1,1.06,1.43A3,3,0,0,1,560.22,290.05Z" style="fill:#fafafa"></path><path d="M513.05,260.48a1.3,1.3,0,0,1,.11-.44,3.66,3.66,0,0,1,.66-1.12,5.5,5.5,0,0,1,4.35-1.74c2.07.06,4.3,1.21,6.46,2.68s4.49,3.24,7,4.9a25.53,25.53,0,0,0,7.59,3.66,15.2,15.2,0,0,0,6.82.23,10.32,10.32,0,0,0,4.2-1.87l.57-.46.39-.38a1.71,1.71,0,0,1,.34-.29s-.08.14-.26.37l-.36.41-.55.5a9.92,9.92,0,0,1-4.25,2.08,15.22,15.22,0,0,1-7-.12,25.54,25.54,0,0,1-7.76-3.69c-2.54-1.69-4.81-3.47-7-4.94s-4.26-2.61-6.22-2.71a5.36,5.36,0,0,0-4.18,1.51A5.82,5.82,0,0,0,513.05,260.48Z" style="fill:#fafafa"></path><path d="M496.2,272.76a3.5,3.5,0,0,1-.87-.86,8.89,8.89,0,0,1-1.52-3,9.09,9.09,0,0,1-.05-5c.49-1.85,1.71-3.55,2.6-5.44a11,11,0,0,0,.94-5.72,12.06,12.06,0,0,0-1.39-4.58,15.09,15.09,0,0,0-2.77-3.49s.11,0,.28.16a5.19,5.19,0,0,1,.71.56,10.36,10.36,0,0,1,2.11,2.59,12.27,12.27,0,0,1,1.54,4.71,11.27,11.27,0,0,1-.95,6c-.92,1.95-2.13,3.61-2.61,5.35a8.94,8.94,0,0,0-.05,4.73A11,11,0,0,0,496.2,272.76Z" style="fill:#fafafa"></path><path d="M515.59,242.57a15.07,15.07,0,0,1-1.56,3,43.06,43.06,0,0,0-3.82,7.13,12.17,12.17,0,0,0-.81,4.3,9.15,9.15,0,0,0,.7,3.48,9.73,9.73,0,0,0,1.9,2.71,2.19,2.19,0,0,1-.75-.53,6.68,6.68,0,0,1-1.48-2,8.9,8.9,0,0,1-.85-3.62,12.19,12.19,0,0,1,.8-4.49,35.36,35.36,0,0,1,4-7.14C514.88,243.65,515.52,242.53,515.59,242.57Z" style="fill:#fafafa"></path><path d="M520.07,315.4c-.09.06-.87-1.19-2.52-2.85a22.52,22.52,0,0,0-3.16-2.62,24.44,24.44,0,0,0-4.41-2.38,25,25,0,0,0-4.83-1.38,23.13,23.13,0,0,0-4.09-.32c-2.34,0-3.77.39-3.79.28a4.22,4.22,0,0,1,1-.28,8.69,8.69,0,0,1,1.19-.21,12.11,12.11,0,0,1,1.6-.15,20.73,20.73,0,0,1,4.18.21,23.91,23.91,0,0,1,4.95,1.36,24.46,24.46,0,0,1,4.49,2.47,20.76,20.76,0,0,1,3.14,2.77,13.08,13.08,0,0,1,1,1.22,9.66,9.66,0,0,1,.71,1A3.78,3.78,0,0,1,520.07,315.4Z" style="fill:#fafafa"></path><polygon points="502.42 372.56 501.42 449.71 469.65 461.84 542.51 461.49 510.36 449.25 510.06 372.56 502.42 372.56" style="fill:#455a64"></polygon><path d="M479.29,366.44c9.12,3.56,18.55,6.79,28.34,7.12s20.08-2.59,26.75-9.76c5.33-5.73,7.83-13.48,10.17-21l5.07-16.18c1.4-4.47,3.51-9.71,1-12.11-3.59-3.38-13.19-4.68-16.8-1.33-5.39,5-5.63,7.09-8.07,11.38-5.62,9.86-10.5,18.86-21.07,23-5.09,2-10.76,2.16-15.88,4.09s-10.33,9.34-9.47,14.75" style="fill:#455a64"></path><path d="M549.73,240.93l-15.87,7.82a4.39,4.39,0,0,1-6.18-4.37l1.1-12.87s-8.6-1.27-8.77-9.86,1.17-28.32,1.17-28.32h0a29.83,29.83,0,0,1,30,3.55l1.28,1Z" style="fill:#ffbe9d"></path><path d="M528.77,231.39a20,20,0,0,0,11.17-3.27s-2.6,6.2-11.18,5.49Z" style="fill:#eb996e"></path><path d="M551.49,206.75c.15-.06,5.89-1.79,5.75,4.09s-6,4.51-6,4.34S551.49,206.75,551.49,206.75Z" style="fill:#ffbe9d"></path><path d="M553.07,213s.1.08.27.16a1.05,1.05,0,0,0,.76,0,2.54,2.54,0,0,0,1.23-2.25,3.35,3.35,0,0,0-.25-1.47,1.18,1.18,0,0,0-.75-.8.52.52,0,0,0-.61.26c-.08.16-.05.28-.08.29s-.12-.1-.07-.34a.66.66,0,0,1,.24-.36.77.77,0,0,1,.57-.14,1.42,1.42,0,0,1,1,.94,3.37,3.37,0,0,1,.32,1.64,2.65,2.65,0,0,1-1.55,2.5,1.08,1.08,0,0,1-.94-.18C553.07,213.15,553.05,213,553.07,213Z" style="fill:#eb996e"></path><path d="M523.17,206.41a1.24,1.24,0,0,0,1.2,1.23,1.17,1.17,0,0,0,1.25-1.12,1.23,1.23,0,0,0-1.19-1.23A1.18,1.18,0,0,0,523.17,206.41Z" style="fill:#263238"></path><path d="M522.9,205.4c.15.16,1.07-.53,2.39-.54s2.3.65,2.44.48-.09-.36-.51-.66a3.47,3.47,0,0,0-2-.59,3.22,3.22,0,0,0-1.91.64C523,205,522.82,205.33,522.9,205.4Z" style="fill:#263238"></path><path d="M536.1,206.56a1.22,1.22,0,0,0,1.19,1.22,1.17,1.17,0,0,0,1.26-1.11,1.23,1.23,0,0,0-1.19-1.23A1.18,1.18,0,0,0,536.1,206.56Z" style="fill:#263238"></path><path d="M535.87,205.55c.16.16,1.08-.53,2.4-.54s2.29.65,2.43.48-.08-.36-.51-.66a3.39,3.39,0,0,0-2-.59,3.22,3.22,0,0,0-1.9.63C535.93,205.19,535.8,205.48,535.87,205.55Z" style="fill:#263238"></path><path d="M531.15,215.38A8,8,0,0,0,529,215c-.34,0-.66-.09-.72-.32a1.73,1.73,0,0,1,.22-1l1-2.58a45.86,45.86,0,0,0,2.19-6.73,44.57,44.57,0,0,0-2.73,6.54c-.33.91-.64,1.77-.93,2.59a1.94,1.94,0,0,0-.17,1.32.8.8,0,0,0,.56.49,2.1,2.1,0,0,0,.57.08A9.1,9.1,0,0,0,531.15,215.38Z" style="fill:#263238"></path><path d="M535.05,216.26c-.22,0-.21,1.42-1.43,2.45s-2.74.88-2.75,1.08.34.27,1,.29a3.63,3.63,0,0,0,2.3-.82,3.13,3.13,0,0,0,1.11-2.06C535.31,216.6,535.14,216.25,535.05,216.26Z" style="fill:#263238"></path><path d="M535.49,200.38c.13.36,1.45.18,3,.35s2.81.59,3,.27c.09-.16-.13-.49-.64-.84a5.26,5.26,0,0,0-4.57-.47C535.72,199.93,535.43,200.21,535.49,200.38Z" style="fill:#263238"></path><path d="M523.35,201.58c.24.3,1.14,0,2.24,0s2,.18,2.23-.13c.09-.16-.06-.46-.46-.74a3.27,3.27,0,0,0-3.6.14C523.37,201.12,523.25,201.43,523.35,201.58Z" style="fill:#263238"></path><path d="M517,187.94a3.17,3.17,0,0,1,1.15-2.84,2.26,2.26,0,0,1,2.92.2,2.62,2.62,0,0,1,2.23-3.2c1.4-.1,2.6,1,4,1.31a6.42,6.42,0,0,0,4-.5c1.26-.52,2.45-1.23,3.73-1.71a11,11,0,0,1,14.1,6.34,4.88,4.88,0,0,1,5.18,1.92,8,8,0,0,1,1.27,5.63,18.46,18.46,0,0,1-1,3.86c0,.11,0,.22,0,.33C554.5,204,554,209.55,552,209.6c-3.51.08-2.73-6.55-2.73-6.55-4.32-1.63-2.76-8.1-3.85-9.07s-3.35-3.23-12.34,1.45a17.53,17.53,0,0,1-10.7,1.24l-.22,0h-.06s0,0-.07,0a8,8,0,0,1-2.32-1,4.64,4.64,0,0,1-1.93-2.11,2.5,2.5,0,0,1,.48-2.69A5.47,5.47,0,0,1,517,187.94Z" style="fill:#263238"></path><path d="M553.68,264.35l14.39,30.5-22.86,9.83-4.53-1.39a11.09,11.09,0,0,0-10.61,2.29L523,311.86h66a40.66,40.66,0,0,0,.12-26.59l-11.33-28.65c-3.21-7.78-11.56-14.12-19.24-10.68h0C551.07,249.29,550.42,256.85,553.68,264.35Z" style="fill:#ffbe9d"></path><path d="M552.47,266c4.27,7.23,10.92,18.43,10.92,18.43L588,274.23S577.39,254.11,574,249c-1.39-2.08-4.45-6.34-13.49-7.43a19.09,19.09,0,0,0-2.8.72,12,12,0,0,0-8.31,9.13l-.21,1.08C548.66,256.91,550.21,262.14,552.47,266Z" style="fill:#736CFD"></path><path d="M563.39,284.42a11.7,11.7,0,0,1-1-1.46l-2.6-4.06c-1.1-1.75-2.39-3.81-3.82-6.07s-3-4.77-4.5-7.55a24.3,24.3,0,0,1-1.76-4.23,19.73,19.73,0,0,1-.74-4.21,21.8,21.8,0,0,1,.48-7.19,9.63,9.63,0,0,1,2.23-4.3l.55-.54.46-.32a1.79,1.79,0,0,1,.39-.25s-.1.13-.33.33l-.41.36-.51.55a9.93,9.93,0,0,0-2,4.26,21.76,21.76,0,0,0-.36,7.05,19.59,19.59,0,0,0,.75,4.11,24.42,24.42,0,0,0,1.73,4.14c1.44,2.74,3.07,5.23,4.45,7.54l3.72,6.12c1,1.7,1.84,3.11,2.47,4.16A11.76,11.76,0,0,1,563.39,284.42Z" style="fill:#263238"></path><path d="M579.33,258.14s-.36-.28-1.05-.69a7.77,7.77,0,0,0-3.21-1,12.36,12.36,0,0,0-5,.64,38.92,38.92,0,0,0-5.62,2.64,23.84,23.84,0,0,1-5.84,2.39,10.72,10.72,0,0,1-5.17-.1,6.65,6.65,0,0,1-3-1.74,4.5,4.5,0,0,1-.58-.75c-.11-.18-.17-.28-.15-.29s.29.36.88.9a6.86,6.86,0,0,0,3,1.53,10.77,10.77,0,0,0,5,0,24.49,24.49,0,0,0,5.7-2.38,36.6,36.6,0,0,1,5.72-2.64,12.38,12.38,0,0,1,5.14-.55,7.34,7.34,0,0,1,3.28,1.17,4.19,4.19,0,0,1,.72.61C579.27,258,579.34,258.13,579.33,258.14Z" style="fill:#fafafa"></path><path d="M574.9,279.56c-.08.06-.7-.7-1.93-1.63a13.92,13.92,0,0,0-2.3-1.42,14.4,14.4,0,0,0-6.41-1.44,13.76,13.76,0,0,0-2.69.29c-1.51.32-2.4.73-2.44.64s.2-.15.59-.35a9.14,9.14,0,0,1,1.77-.65,12.29,12.29,0,0,1,2.76-.41,14.17,14.17,0,0,1,3.41.32,14.85,14.85,0,0,1,3.22,1.17,12.44,12.44,0,0,1,2.32,1.56,9.44,9.44,0,0,1,1.32,1.34C574.79,279.33,574.93,279.53,574.9,279.56Z" style="fill:#fafafa"></path><path d="M583.78,301.91c-.08,0-.53-.94-1.61-2.28a13.47,13.47,0,0,0-11.77-5c-1.71.15-2.73.51-2.76.42a2,2,0,0,1,.7-.31,10,10,0,0,1,2-.47,12.94,12.94,0,0,1,6.76.9,13.08,13.08,0,0,1,5.34,4.25,11,11,0,0,1,1.06,1.78A2,2,0,0,1,583.78,301.91Z" style="fill:#eb996e"></path></g><g id="freepik--character-1--inject-100"><path d="M79.31,426.4l-5.89,23.36-10,17.14a2.46,2.46,0,0,0,1,3.45h0a2.44,2.44,0,0,0,2.26,0c4.49-2.42,20.93-11.4,21.27-13.13.39-2,7.84-24.23,7.84-24.23Z" style="fill:#736CFD"></path><path d="M64.47,470.35l24-14.73-.27,1a3.76,3.76,0,0,1-1.49,2.09c-2,1.32-7.43,4.87-19.87,11.65a2.47,2.47,0,0,1-2.33,0Z" style="fill:#fff;opacity:0.6000000000000001"></path><g style="opacity:0.6000000000000001"><path d="M85.74,446.81a1.49,1.49,0,0,0-.92,1.77,1.44,1.44,0,0,0,1.75.92,1.57,1.57,0,0,0,1-1.88,1.49,1.49,0,0,0-1.93-.75" style="fill:#fff"></path></g><path d="M72.59,461.68a7.43,7.43,0,0,0-1.54-2.37,7.53,7.53,0,0,0-2.53-1.25c0-.07.34-.17.9-.09a3.83,3.83,0,0,1,2,.94,3.91,3.91,0,0,1,1.17,1.86C72.71,461.32,72.65,461.67,72.59,461.68Z" style="fill:#263238"></path><path d="M70.07,464.33c-.14.07-.67-.89-1.78-1.57s-2.19-.76-2.18-.92a2.71,2.71,0,0,1,2.46.47C69.83,463.09,70.21,464.3,70.07,464.33Z" style="fill:#263238"></path><path d="M76.77,458.54a24.8,24.8,0,0,0-2.59-2.6A25.58,25.58,0,0,0,71,454.18a6.75,6.75,0,0,1,5.81,4.36Z" style="fill:#263238"></path><path d="M79.15,451.59c-.1.12-1.24-.77-2.89-1.29s-3.08-.49-3.09-.64a4.68,4.68,0,0,1,3.25.14A4.75,4.75,0,0,1,79.15,451.59Z" style="fill:#263238"></path><path d="M81.05,444.78a11.8,11.8,0,0,0-3-1.43,12.85,12.85,0,0,0-3.29-.08s.31-.28.93-.44a5.41,5.41,0,0,1,4.7,1.13C80.9,444.39,81.1,444.73,81.05,444.78Z" style="fill:#263238"></path><path d="M78.48,442.07a2,2,0,0,1,.21-.89A6.36,6.36,0,0,1,80,439.07a2.82,2.82,0,0,1,1.51-1,1,1,0,0,1,1,.51,1.64,1.64,0,0,1,.08,1.15,3.48,3.48,0,0,1-3.81,2.3,4.07,4.07,0,0,1-3.27-3.1,1.4,1.4,0,0,1,.25-1.14,1,1,0,0,1,1.12-.23,3.39,3.39,0,0,1,1.31,1.22,7.23,7.23,0,0,1,1.09,2.24,2.21,2.21,0,0,1,.13.9A11.35,11.35,0,0,0,77.94,439a3.14,3.14,0,0,0-1.17-1,.52.52,0,0,0-.61.12.94.94,0,0,0-.11.76,3.62,3.62,0,0,0,2.86,2.66,3,3,0,0,0,3.26-1.91,1.15,1.15,0,0,0,0-.8.53.53,0,0,0-.56-.29,2.48,2.48,0,0,0-1.3.8A9.33,9.33,0,0,0,78.48,442.07Z" style="fill:#263238"></path><path d="M152.7,432.68l-1.25,18s17.89,7.32,18,10.67l-35-1.17.8-28.13Z" style="fill:#736CFD"></path><path d="M140.68,448.81a1.42,1.42,0,0,0-1,1.59,1.38,1.38,0,0,0,1.58,1.05,1.51,1.51,0,0,0,1.09-1.7,1.43,1.43,0,0,0-1.76-.91" style="fill:#e0e0e0"></path><path d="M134.43,460.18l.19-2.83,33.49,2.17s1.53.73,1.32,1.83Z" style="fill:#e0e0e0"></path><path d="M152,450.52c0,.17-.87.22-1.73.74s-1.33,1.23-1.49,1.16.14-1.06,1.19-1.67S152.07,450.37,152,450.52Z" style="fill:#263238"></path><path d="M155.65,452.16c0,.17-.72.44-1.32,1.14s-.8,1.46-1,1.45-.25-1,.52-1.84S155.65,452,155.65,452.16Z" style="fill:#263238"></path><path d="M157.59,456.63c-.16,0-.37-.83.1-1.76s1.28-1.26,1.35-1.12-.44.63-.82,1.39S157.76,456.61,157.59,456.63Z" style="fill:#263238"></path><path d="M151.86,446.39c-.08.15-.86-.11-1.82-.08s-1.74.32-1.82.17.66-.74,1.8-.76S152,446.26,151.86,446.39Z" style="fill:#263238"></path><path d="M152,442.75a3.2,3.2,0,0,1-1.75-.07,7.84,7.84,0,0,1-1.82-.62,8.27,8.27,0,0,1-1-.57,2.15,2.15,0,0,1-.52-.43.74.74,0,0,1-.05-.91,1,1,0,0,1,.76-.37,2.1,2.1,0,0,1,.66.12,6,6,0,0,1,1.08.41,6.45,6.45,0,0,1,1.58,1.11c.78.78,1,1.43,1,1.46s-.46-.49-1.26-1.14a6.9,6.9,0,0,0-1.54-.94,7.19,7.19,0,0,0-1-.34c-.37-.11-.69-.12-.79,0s0,.09,0,.2a1.62,1.62,0,0,0,.38.31,8.83,8.83,0,0,0,.9.56,10.2,10.2,0,0,0,1.68.71A12.12,12.12,0,0,1,152,442.75Z" style="fill:#263238"></path><path d="M151.81,443a2.8,2.8,0,0,1-.4-1.71,5.35,5.35,0,0,1,.3-1.91,6.12,6.12,0,0,1,.48-1.05,1.46,1.46,0,0,1,1.15-.85.82.82,0,0,1,.71.52,2.14,2.14,0,0,1,.16.64,3.83,3.83,0,0,1,0,1.18,3.91,3.91,0,0,1-.81,1.79c-.71.88-1.43,1.07-1.44,1s.55-.4,1.1-1.26a4,4,0,0,0,.61-1.62,3.49,3.49,0,0,0,0-1c0-.37-.17-.68-.31-.64s-.48.26-.63.55a6.87,6.87,0,0,0-.47.94,6.14,6.14,0,0,0-.39,1.73C151.74,442.32,151.9,443,151.81,443Z" style="fill:#263238"></path><path d="M116.15,107.48a42.38,42.38,0,0,1-2.44-6.46c-.37-1.69-.94-4.24-.3-5.84a4.1,4.1,0,0,1,4.36-2.8,9.89,9.89,0,0,1,5.52-7.89,25.17,25.17,0,0,1,9.41-2.7,8,8,0,0,1,3.56.36,4.56,4.56,0,0,1,2.2,2.24,7.85,7.85,0,0,1,6.93-1.29c2.62.65,5.63,2,6.83,4.4a7.61,7.61,0,0,1,.36,5.77c-.47,1.6-2.09,4.14-3.67,3.6" style="fill:#263238"></path><path d="M118.73,151.9l23.5-1.08c.14-2.49-1.14-17.92-1.14-17.92s8.89-1.38,9-10.26-1.43-29.27-1.43-29.27h0a30.88,30.88,0,0,0-31,3.89l-1.31,1Z" style="fill:#b78876"></path><path d="M141.11,132.77a20.63,20.63,0,0,1-11.58-3.29s2.74,6.39,11.6,5.59Z" style="fill:#aa6550"></path><path d="M117.42,107.48c-.15-.07-6.1-1.81-5.91,4.26s6.25,4.63,6.26,4.45S117.42,107.48,117.42,107.48Z" style="fill:#b78876"></path><path d="M115.84,114s-.1.08-.28.17a1.08,1.08,0,0,1-.79,0,2.64,2.64,0,0,1-1.29-2.31,3.62,3.62,0,0,1,.25-1.53,1.19,1.19,0,0,1,.77-.83.53.53,0,0,1,.63.27c.09.16.06.29.09.3s.13-.11.07-.36a.7.7,0,0,0-.25-.37.79.79,0,0,0-.59-.14,1.49,1.49,0,0,0-1.08,1,3.61,3.61,0,0,0-.31,1.7,2.75,2.75,0,0,0,1.63,2.58,1.15,1.15,0,0,0,1-.2C115.83,114.1,115.86,114,115.84,114Z" style="fill:#aa6550"></path><path d="M146.7,107.28a1.27,1.27,0,0,1-1.22,1.28,1.21,1.21,0,0,1-1.31-1.14,1.26,1.26,0,0,1,1.22-1.28A1.21,1.21,0,0,1,146.7,107.28Z" style="fill:#263238"></path><path d="M147,105.86c-.16.16-1.12-.55-2.49-.54s-2.36.68-2.51.52.09-.38.52-.7a3.55,3.55,0,0,1,2-.62,3.39,3.39,0,0,1,2,.64C146.91,105.48,147.05,105.78,147,105.86Z" style="fill:#263238"></path><path d="M133.33,107.6a1.26,1.26,0,0,1-1.22,1.28,1.21,1.21,0,0,1-1.31-1.14,1.28,1.28,0,0,1,1.22-1.28A1.21,1.21,0,0,1,133.33,107.6Z" style="fill:#263238"></path><path d="M133.56,106.11c-.16.17-1.12-.54-2.48-.54s-2.37.69-2.52.52.09-.37.53-.69a3.47,3.47,0,0,1,2-.62,3.35,3.35,0,0,1,2,.64C133.49,105.74,133.64,106,133.56,106.11Z" style="fill:#263238"></path><path d="M138.51,116.23a10,10,0,0,1,2.22-.4c.35,0,.68-.1.74-.34a1.78,1.78,0,0,0-.24-1c-.32-.85-.67-1.73-1-2.66a45.3,45.3,0,0,1-2.31-6.94,46.09,46.09,0,0,1,2.87,6.74l1,2.67a2,2,0,0,1,.19,1.37.89.89,0,0,1-.58.51,2.24,2.24,0,0,1-.59.08A8.39,8.39,0,0,1,138.51,116.23Z" style="fill:#263238"></path><path d="M134.5,117.18c.22,0,.22,1.47,1.49,2.52s2.84.89,2.86,1.09-.36.29-1,.31a3.73,3.73,0,0,1-2.39-.83,3.24,3.24,0,0,1-1.15-2.11C134.23,117.54,134.4,117.17,134.5,117.18Z" style="fill:#263238"></path><path d="M133.91,100.76c-.13.38-1.49.2-3.1.39s-2.89.63-3.1.3c-.1-.16.13-.51.65-.87a5.48,5.48,0,0,1,4.73-.52C133.67,100.3,134,100.59,133.91,100.76Z" style="fill:#263238"></path><path d="M146.47,101.91c-.24.31-1.18,0-2.31,0s-2.08.21-2.31-.11c-.09-.16.06-.47.48-.77a3.37,3.37,0,0,1,3.72.12C146.45,101.44,146.58,101.76,146.47,101.91Z" style="fill:#263238"></path><path d="M115.85,97.87c.12,2.59-.46,5.47,0,8,.06.39,1.06,1.41,1.15,1.79.52,2.25,1.45,3.22,2.79.9a20.28,20.28,0,0,0,1-4.38c.53-2.74,1.07-5.47,1.61-8.21a14.2,14.2,0,0,0,6.75,1.61A6.91,6.91,0,0,0,135,94.18a7.17,7.17,0,0,0,11.12,1.46,3,3,0,0,0,3.95.84,3.54,3.54,0,0,0,1.44-3.92c-.61-2.16-2.93-3.34-5.09-4C138,86.1,128.61,88.05,121,92.5A13.1,13.1,0,0,0,118,94.81c-.87,1-2.07,2.07-2.11,3.35" style="fill:#263238"></path><path d="M122.24,98.12a4.15,4.15,0,0,0-1.37.25,4.62,4.62,0,0,0-1.25.85c-.42.39-.84.89-1.34,1.39a4.45,4.45,0,0,1-1.7,1.13,3.14,3.14,0,0,1-1.68.06c-1-.24-1.34-.75-1.29-.78a9.62,9.62,0,0,0,1.35.42,2.94,2.94,0,0,0,1.46-.16,4.49,4.49,0,0,0,1.49-1c.48-.47.91-1,1.39-1.38a4.3,4.3,0,0,1,1.44-.83C121.68,97.72,122.28,98.07,122.24,98.12Z" style="fill:#455a64"></path><path d="M121.27,100.8a2.56,2.56,0,0,0-1,.45,4.56,4.56,0,0,0-.75.9,4.24,4.24,0,0,1-1.13,1.1,4.14,4.14,0,0,1-2.75.65c-.73-.09-1.12-.35-1.1-.4s.45,0,1.12,0a4.6,4.6,0,0,0,2.44-.73c.86-.51,1.27-1.44,1.95-1.86S121.31,100.73,121.27,100.8Z" style="fill:#455a64"></path><path d="M144.25,83s.28-.08.78,0a3.42,3.42,0,0,1,1.74,1.24c1.13,1.5,1.44,4.2.67,6.84a9.6,9.6,0,0,1-4.22,5.45,8.41,8.41,0,0,1-1.92.88,2,2,0,0,1-.76.15A24.28,24.28,0,0,0,143,96.22a9.9,9.9,0,0,0,3.91-5.3c.74-2.49.48-5.07-.47-6.46A3.51,3.51,0,0,0,145,83.19C144.52,83,144.24,83,144.25,83Z" style="fill:#455a64"></path><path d="M151.69,86.45a3.79,3.79,0,0,1,0,1.71A10.34,10.34,0,0,1,150.18,92a10.48,10.48,0,0,1-2.85,3,3.67,3.67,0,0,1-1.53.77,17.08,17.08,0,0,0,3.94-4A17.33,17.33,0,0,0,151.69,86.45Z" style="fill:#455a64"></path><polygon points="161.81 234.91 156.18 444.43 128.58 443.6 130.7 263.78 95.52 448.6 70.58 442.09 102.78 235.31 161.81 234.91" style="fill:#263238"></polygon><path d="M246.83,145.14l1.32-.48s11.33,1.71,10.73-.33c-.79-2.7-11-3.6-11.92-3.49-1.57.19-10.69,2.58-11.9,3.49s-7.92,9.78-7.92,9.78l11.42,8.83s2.71-.12,5.79-3.67c1.57-1.8,3.82-4.91,3.82-4.91s-.24-.75,0-1.08c.58-1,0-1.45,0-1.45a1.82,1.82,0,0,0,1.12-1.61,1.34,1.34,0,0,0-.4-1c-.71-.48-1-.35-1-.35a2.68,2.68,0,0,0,1.48-2c.08-1.28-1.81-1.59-1.81-1.59" style="fill:#b78876"></path><path d="M258.74,144.85a5.81,5.81,0,0,1-2.35.61,14.14,14.14,0,0,1-2.66.07c-1-.13-2-.3-3.18-.48l-2.4-.39h.15a34.07,34.07,0,0,1-5.58,1.65,34.36,34.36,0,0,1,5.39-2.19l.07,0h.08l2.38.37,3.14.51a16.32,16.32,0,0,0,2.57.06C257.82,145,258.72,144.76,258.74,144.85Z" style="fill:#aa6550"></path><path d="M246.19,145.81l-3.06,3.32a3.85,3.85,0,0,0-.89,1.27,1.33,1.33,0,0,0,.27,1.44,1.27,1.27,0,0,0,1.18.21,3.33,3.33,0,0,0,1.09-.6,38.28,38.28,0,0,0,3.78-3.06" style="fill:#b78876"></path><path d="M248.78,148.19a10.08,10.08,0,0,1-1.62,1.71,15.3,15.3,0,0,1-2,1.63,7,7,0,0,1-1.39.71,2.16,2.16,0,0,1-.89.12,1.21,1.21,0,0,1-.88-.48,1.67,1.67,0,0,1,0-1.8,7.37,7.37,0,0,1,.95-1.23c.64-.72,1.24-1.35,1.75-1.87a8.21,8.21,0,0,1,1.79-1.54,17.18,17.18,0,0,1-1.52,1.8l-1.65,1.92a8,8,0,0,0-.87,1.16,1.18,1.18,0,0,0,0,1.25,1,1,0,0,0,1.19.19,6.46,6.46,0,0,0,1.29-.64,16.66,16.66,0,0,0,2-1.5A10.89,10.89,0,0,1,248.78,148.19Z" style="fill:#aa6550"></path><path d="M247.66,149.35s.91-1.22,1.38-1.22a1.43,1.43,0,0,1,1.55.79c.34.71.08,1-1,2.65" style="fill:#b78876"></path><path d="M247.66,149.35l-2.5,2.85a3.32,3.32,0,0,0-.73,1.09,1.2,1.2,0,0,0,.22,1.24,1,1,0,0,0,1,.18,2.85,2.85,0,0,0,.89-.51,33.64,33.64,0,0,0,3.08-2.63" style="fill:#b78876"></path><path d="M250.69,149.71a4.54,4.54,0,0,1-1.05,2,11.72,11.72,0,0,1-1.72,1.77,12.43,12.43,0,0,1-1.18.87,3.63,3.63,0,0,1-1.52.65,1.11,1.11,0,0,1-.92-.32,1.22,1.22,0,0,1-.33-.88,2.33,2.33,0,0,1,.65-1.43c.58-.72,1.13-1.33,1.61-1.84A7.28,7.28,0,0,1,247.9,149a14.77,14.77,0,0,1-1.39,1.76c-.44.54-1,1.18-1.51,1.89a2,2,0,0,0-.52,1.14.61.61,0,0,0,.7.68,3.38,3.38,0,0,0,1.29-.56c.41-.26.79-.54,1.15-.81a14.07,14.07,0,0,0,1.74-1.64C250.27,150.47,250.61,149.68,250.69,149.71Z" style="fill:#aa6550"></path><path d="M231.12,155.62a2.58,2.58,0,0,0,3,0c.93-.54,1.65-1.38,2.53-2,2.65-1.8,6.42-1.3,9-3.22.35-.27.71-.72.52-1.12s-.68-.43-1.09-.43l-10.61.08" style="fill:#b78876"></path><path d="M234.44,149a4.5,4.5,0,0,1,1.15-.12c.74,0,1.81-.08,3.13-.12l4.64-.1,1.34,0a2.07,2.07,0,0,1,1.55.35.89.89,0,0,1,.15,1,1.83,1.83,0,0,1-.54.68,6.94,6.94,0,0,1-1.34.79c-1.93.86-3.89,1-5.52,1.48a8.18,8.18,0,0,0-2.2,1c-.62.41-1.14.91-1.67,1.32a3.74,3.74,0,0,1-3,1c-.78-.16-1-.59-1-.59a3,3,0,0,0,1,.36,3.6,3.6,0,0,0,2.69-1.1c.5-.42,1-.94,1.67-1.41a8.37,8.37,0,0,1,2.32-1.07c1.69-.54,3.65-.7,5.42-1.5a6.3,6.3,0,0,0,1.22-.71c.35-.27.53-.64.34-.79s-.67-.19-1.12-.18h-1.34l-4.64,0c-1.32,0-2.39-.05-3.13-.08A3.83,3.83,0,0,1,234.44,149Z" style="fill:#aa6550"></path><path d="M248.91,152.47s.68-.9,1-.9a1.05,1.05,0,0,1,1.15.58c.25.52.06.75-.75,2" style="fill:#b78876"></path><path d="M248.91,152.47l-1.85,2.11a2.61,2.61,0,0,0-.54.81.9.9,0,0,0,.17.92.75.75,0,0,0,.71.13,2,2,0,0,0,.66-.38,23.46,23.46,0,0,0,2.28-1.95" style="fill:#b78876"></path><path d="M251.16,152.74a2.91,2.91,0,0,1-.74,1.52,8.13,8.13,0,0,1-1.27,1.33,8.72,8.72,0,0,1-.88.65,2.69,2.69,0,0,1-1.16.5.9.9,0,0,1-.73-.26,1,1,0,0,1-.26-.7,1.84,1.84,0,0,1,.49-1.1c.46-.51.89-1,1.25-1.33.72-.74,1.18-1.17,1.23-1.12a5.34,5.34,0,0,1-1,1.37L247,155a1.37,1.37,0,0,0-.36.8c0,.29.15.46.44.44a2.44,2.44,0,0,0,.93-.41c.3-.19.58-.39.84-.59a9.74,9.74,0,0,0,1.3-1.2C250.82,153.28,251.08,152.7,251.16,152.74Z" style="fill:#aa6550"></path><path d="M241.35,157.54a13.77,13.77,0,0,0-.67-2.33c-.58-1.2-1.56-1.79-1.48-1.92s1.27.31,2,1.68A2.74,2.74,0,0,1,241.35,157.54Z" style="fill:#aa6550"></path><path d="M162.6,242.8s-1.94-56.64-2.5-65c14,7.79,35.62,17.75,38,18.25,4.2.88,41.48-32.27,41.48-32.27l-13.36-10.47-30.83,17.37-40.41-24.12h0a21,21,0,0,0-9.86-3.92l-.28,0c-1.44-.17-2.14-.37-3-.48h0c-6.39,4.8-17.31,5.11-23.58.16h0s-4.76,1.07-7.6,1.62c-9,1.71-15.38,8.23-17.17,14.24L104.64,184l2.15,24.53-5.66,31.54,61.47,2.75" style="fill:#736CFD"></path><g style="opacity:0.30000000000000004"><path d="M104.61,219.38a10.48,10.48,0,0,0,9.12,2.61c2.29-.46,4.47-1.71,6.81-1.56,2.56.17,4.68,2,7,3,4.36,2,9.45,1.34,14.07.11,2.13-.57,4.35-1.34,5.73-3.06a10.3,10.3,0,0,0,1.76-4.75,49.57,49.57,0,0,0,.69-9.42c-.05-2-.27-4.09-1.52-5.62a6.51,6.51,0,0,0-4.22-2.13,16.62,16.62,0,0,0-4.82.27,79.64,79.64,0,0,0-34.9,15"></path></g><path d="M127.1,209s-29.35,13.13-32.33,13.78c-9.91,2.18-21.24-7.18-18.09-17.85,1.17-4,17-47.86,17-47.86l15,20.77-6.36,21.25L119,198Z" style="fill:#736CFD"></path><polygon points="118.63 141.8 118.63 141.8 118.63 141.8 118.63 141.8" style="fill:#736CFD"></polygon><path d="M117.6,198.12a5.46,5.46,0,0,1-1.16.16l-3.21.27c-2.73.22-6.55.48-10.9.76l-.37,0,.11-.35c.31-1.06.64-2.16,1-3.29,1.49-5,2.86-9.45,3.88-12.68l1.23-3.83a7.22,7.22,0,0,1,.52-1.38,8,8,0,0,1-.33,1.44l-1.07,3.87c-.93,3.27-2.24,7.77-3.73,12.73-.33,1.12-.67,2.22-1,3.28l-.27-.32c4.36-.26,8.18-.46,10.92-.58l3.22-.12A5.55,5.55,0,0,1,117.6,198.12Z" style="fill:#263238"></path><path d="M96.14,206a3.09,3.09,0,0,1,.32-1.44,9.33,9.33,0,0,1,1.9-3,9.18,9.18,0,0,1,2.87-2.09,3,3,0,0,1,1.41-.42,18.31,18.31,0,0,0-3.9,2.86A18.48,18.48,0,0,0,96.14,206Z" style="fill:#263238"></path><path d="M123.83,210.67c0,.14-6.39,2.92-14.39,6.22s-14.54,5.86-14.59,5.73,6.38-2.92,14.39-6.22S123.77,210.54,123.83,210.67Z" style="fill:#263238"></path><path d="M161.66,215a2.93,2.93,0,0,1-.06-.47c0-.36,0-.8-.07-1.33-.05-1.24-.11-2.9-.19-4.9-.16-4.14-.39-9.86-.76-16.17s-.82-12-1.27-16.12c-.22-2.06-.45-3.71-.61-4.86a13.93,13.93,0,0,1-.25-1.78s.07.15.14.44.19.79.31,1.3c.22,1.14.51,2.8.78,4.86.54,4.11,1,9.82,1.42,16.13s.54,12,.61,16.19c0,2.07,0,3.75,0,4.91,0,.52,0,1,0,1.33A1.34,1.34,0,0,1,161.66,215Z" style="fill:#263238"></path><path d="M110.57,158c0,.08-.82.46-1.94,1.42a10,10,0,0,0-3.09,4.75l-.14.49-.32-.42-.2-.26a7.52,7.52,0,0,0-5.07-2.77,17.52,17.52,0,0,0-2.49,0s.21-.13.64-.25a6.47,6.47,0,0,1,1.88-.16,7.48,7.48,0,0,1,5.45,2.82l.22.29L105,164a9.63,9.63,0,0,1,3.36-4.88A5.38,5.38,0,0,1,110.57,158Z" style="fill:#fafafa"></path><path d="M129.58,170.1c0,.08-.82.45-1.94,1.41a10.05,10.05,0,0,0-3.09,4.75l-.14.5-.32-.42-.21-.27a7.58,7.58,0,0,0-5.06-2.77,18.2,18.2,0,0,0-2.49,0s.21-.13.64-.25a6.47,6.47,0,0,1,1.88-.16,7.48,7.48,0,0,1,5.44,2.81l.22.29-.46.08a9.65,9.65,0,0,1,3.36-4.89A5.27,5.27,0,0,1,129.58,170.1Z" style="fill:#fafafa"></path><path d="M103.94,180.45c0,.09-.92.16-2.3.68a10.07,10.07,0,0,0-4.5,3.44l-.31.41-.16-.5-.1-.32a7.57,7.57,0,0,0-3.83-4.31,15,15,0,0,0-2.37-.79s.25-.06.69,0a6.27,6.27,0,0,1,1.83.48A7.5,7.5,0,0,1,97.07,184a2.72,2.72,0,0,0,.11.34l-.47-.08a9.63,9.63,0,0,1,4.81-3.47A5.44,5.44,0,0,1,103.94,180.45Z" style="fill:#fafafa"></path><path d="M97.63,195.56c0,.09-.92.15-2.3.68a10.06,10.06,0,0,0-4.51,3.43l-.3.42-.16-.5-.1-.32A7.52,7.52,0,0,0,86.42,195a16,16,0,0,0-2.36-.8,1.71,1.71,0,0,1,.69,0,6.35,6.35,0,0,1,1.83.48,7.49,7.49,0,0,1,4.17,4.48c0,.12.08.24.11.35l-.46-.08a9.59,9.59,0,0,1,4.81-3.47A5.26,5.26,0,0,1,97.63,195.56Z" style="fill:#fafafa"></path><path d="M96.46,211c0,.09-.92.15-2.3.68a10.06,10.06,0,0,0-4.51,3.43l-.3.42-.16-.51-.1-.31a7.57,7.57,0,0,0-3.84-4.32,17.07,17.07,0,0,0-2.36-.79,1.68,1.68,0,0,1,.69,0,6.3,6.3,0,0,1,1.82.48,7.48,7.48,0,0,1,4.18,4.48l.11.35-.46-.09A9.62,9.62,0,0,1,94,211.34,5.25,5.25,0,0,1,96.46,211Z" style="fill:#fafafa"></path><path d="M139,155c0,.08-.81.45-1.93,1.41a10,10,0,0,0-3.09,4.75l-.15.5-.32-.42-.2-.27a7.56,7.56,0,0,0-5.06-2.77,16.57,16.57,0,0,0-2.5.05s.22-.13.65-.25a6.41,6.41,0,0,1,1.88-.17,7.55,7.55,0,0,1,5.44,2.82l.22.29-.46.08a9.55,9.55,0,0,1,3.36-4.89A5.27,5.27,0,0,1,139,155Z" style="fill:#fafafa"></path><path d="M153.91,149.82c0,.09-.93.09-2.34.53a10.13,10.13,0,0,0-4.72,3.14l-.33.4-.12-.51a3,3,0,0,1-.08-.32,7.58,7.58,0,0,0-3.56-4.55,16.71,16.71,0,0,0-2.31-.94,1.6,1.6,0,0,1,.69,0,6.3,6.3,0,0,1,1.79.6,7.49,7.49,0,0,1,3.89,4.73l.09.36-.46-.12a9.58,9.58,0,0,1,5-3.15A5.25,5.25,0,0,1,153.91,149.82Z" style="fill:#fafafa"></path><path d="M123,146.58c0,.08-.81.45-1.93,1.41a10.05,10.05,0,0,0-3.09,4.75l-.15.5-.32-.42-.2-.27a7.6,7.6,0,0,0-5.06-2.77,16.57,16.57,0,0,0-2.5.05s.22-.13.65-.25a6.47,6.47,0,0,1,1.88-.16,7.5,7.5,0,0,1,5.44,2.81l.22.29-.46.08a9.59,9.59,0,0,1,3.36-4.89A5.27,5.27,0,0,1,123,146.58Z" style="fill:#fafafa"></path><path d="M154.36,173.15c0,.08-.82.45-1.94,1.41a10.08,10.08,0,0,0-3.09,4.75l-.14.49-.32-.42-.21-.26a7.54,7.54,0,0,0-5.06-2.77,14.91,14.91,0,0,0-2.49.05s.21-.14.64-.25a6.41,6.41,0,0,1,1.88-.17,7.55,7.55,0,0,1,5.45,2.82l.21.29-.46.07a9.63,9.63,0,0,1,3.36-4.88A5.27,5.27,0,0,1,154.36,173.15Z" style="fill:#fafafa"></path><path d="M126.37,213.94c0,.08-.82.45-1.94,1.41a10.08,10.08,0,0,0-3.09,4.75l-.14.49-.32-.42-.2-.26a7.56,7.56,0,0,0-5.07-2.77,15,15,0,0,0-2.49.05s.21-.14.64-.25a6.41,6.41,0,0,1,1.88-.17,7.55,7.55,0,0,1,5.45,2.82l.22.29-.47.07a9.63,9.63,0,0,1,3.36-4.88A5.27,5.27,0,0,1,126.37,213.94Z" style="fill:#fafafa"></path><path d="M115.43,204.19c0,.08-.81.45-1.93,1.41a10,10,0,0,0-3.09,4.75l-.15.5-.32-.42-.2-.27a7.56,7.56,0,0,0-5.06-2.77,16.39,16.39,0,0,0-2.49.05s.21-.13.64-.25a6.13,6.13,0,0,1,1.88-.16,7.48,7.48,0,0,1,5.44,2.81l.22.29-.46.08a9.61,9.61,0,0,1,3.36-4.89A5.33,5.33,0,0,1,115.43,204.19Z" style="fill:#fafafa"></path><path d="M160.06,208.49c0,.09-.93,0-2.36.41a10.09,10.09,0,0,0-4.88,2.88l-.35.38-.1-.51-.06-.33a7.58,7.58,0,0,0-3.31-4.73,16.8,16.8,0,0,0-2.26-1.07,1.65,1.65,0,0,1,.69.07,6.29,6.29,0,0,1,1.76.68,7.56,7.56,0,0,1,3.63,4.94l.06.36-.45-.14a9.64,9.64,0,0,1,5.19-2.88A5.39,5.39,0,0,1,160.06,208.49Z" style="fill:#fafafa"></path><path d="M139.25,228.39c0,.09-.9.26-2.21,1a10.07,10.07,0,0,0-4.07,3.94l-.25.45-.22-.48-.13-.31a7.58,7.58,0,0,0-4.32-3.82,16,16,0,0,0-2.44-.51s.24-.09.68-.1a6.05,6.05,0,0,1,1.87.26,7.51,7.51,0,0,1,4.68,4l.15.33-.47,0a9.57,9.57,0,0,1,4.37-4A5.36,5.36,0,0,1,139.25,228.39Z" style="fill:#fafafa"></path><path d="M152.59,220.58c0,.09-.93,0-2.36.41a10.09,10.09,0,0,0-4.88,2.88l-.35.38-.1-.51-.06-.33a7.54,7.54,0,0,0-3.31-4.73,17.83,17.83,0,0,0-2.25-1.07,1.66,1.66,0,0,1,.69.07,6.36,6.36,0,0,1,1.75.68,7.49,7.49,0,0,1,3.63,4.94c0,.13.05.25.07.36l-.45-.14a9.58,9.58,0,0,1,5.18-2.88A5.38,5.38,0,0,1,152.59,220.58Z" style="fill:#fafafa"></path><path d="M118.92,233c0,.09-.93,0-2.36.41a10.09,10.09,0,0,0-4.88,2.88l-.35.38-.1-.52-.06-.32a7.58,7.58,0,0,0-3.31-4.73,17.83,17.83,0,0,0-2.25-1.07,1.68,1.68,0,0,1,.68.06,6.71,6.71,0,0,1,1.76.69,7.53,7.53,0,0,1,3.63,4.94c0,.12,0,.25.07.36l-.45-.14a9.58,9.58,0,0,1,5.18-2.88A5.21,5.21,0,0,1,118.92,233Z" style="fill:#fafafa"></path><path d="M159.33,231.3c0,.08-.84.41-2,1.31a10,10,0,0,0-3.33,4.58l-.17.49-.3-.43-.19-.28a7.57,7.57,0,0,0-4.91-3,18.1,18.1,0,0,0-2.5-.08,1.74,1.74,0,0,1,.66-.21,6.42,6.42,0,0,1,1.89-.07,7.49,7.49,0,0,1,5.29,3.09l.2.3-.46.05a9.58,9.58,0,0,1,3.6-4.7A5.31,5.31,0,0,1,159.33,231.3Z" style="fill:#fafafa"></path><path d="M155,189.87c.05.08-.81.46-1.93,1.42A10,10,0,0,0,150,196l-.14.5-.32-.42-.21-.27a7.54,7.54,0,0,0-5.06-2.76,17.43,17.43,0,0,0-2.49,0s.21-.13.64-.25a6.47,6.47,0,0,1,1.88-.16,7.46,7.46,0,0,1,5.44,2.82l.22.28-.46.08a9.58,9.58,0,0,1,3.36-4.88A5.29,5.29,0,0,1,155,189.87Z" style="fill:#fafafa"></path><path d="M167.4,157.07c0,.08-.82.45-1.94,1.41a10.08,10.08,0,0,0-3.09,4.75l-.14.5-.32-.42-.21-.27a7.52,7.52,0,0,0-5.06-2.77,16.39,16.39,0,0,0-2.49,0s.21-.13.64-.25a6.41,6.41,0,0,1,1.88-.17,7.55,7.55,0,0,1,5.45,2.82l.21.29-.46.08a9.67,9.67,0,0,1,3.36-4.89A5.27,5.27,0,0,1,167.4,157.07Z" style="fill:#fafafa"></path><path d="M197.2,173.54c0,.08-.82.45-1.94,1.41a10.13,10.13,0,0,0-3.09,4.75l-.14.5-.32-.42-.2-.27a7.56,7.56,0,0,0-5.07-2.77,16.48,16.48,0,0,0-2.49,0s.21-.13.64-.25a6.13,6.13,0,0,1,1.88-.16,7.5,7.5,0,0,1,5.45,2.81l.22.29-.47.08a9.67,9.67,0,0,1,3.36-4.89A5.27,5.27,0,0,1,197.2,173.54Z" style="fill:#fafafa"></path><path d="M219.77,170.59c0,.08-.82.45-1.94,1.41a10.15,10.15,0,0,0-3.09,4.75l-.14.5-.32-.42-.2-.27a7.56,7.56,0,0,0-5.06-2.77,16.57,16.57,0,0,0-2.5.05s.22-.14.65-.25a6.37,6.37,0,0,1,1.88-.17,7.55,7.55,0,0,1,5.44,2.82l.22.29-.47.08a9.62,9.62,0,0,1,3.37-4.89A5.27,5.27,0,0,1,219.77,170.59Z" style="fill:#fafafa"></path><path d="M230.11,158c0,.08-.81.46-1.93,1.42a10,10,0,0,0-3.09,4.75l-.15.49-.32-.42-.2-.26a7.52,7.52,0,0,0-5.06-2.77,17.63,17.63,0,0,0-2.5,0s.22-.13.65-.25a6.47,6.47,0,0,1,1.88-.16,7.48,7.48,0,0,1,5.44,2.82l.22.29-.46.07a9.52,9.52,0,0,1,3.36-4.88A5.39,5.39,0,0,1,230.11,158Z" style="fill:#fafafa"></path><path d="M177.79,173.43c0,.08-.87.33-2.12,1.13a10,10,0,0,0-3.72,4.26l-.22.47-.25-.46-.17-.29a7.53,7.53,0,0,0-4.62-3.45,16,16,0,0,0-2.47-.31s.23-.1.67-.15a6.08,6.08,0,0,1,1.88.1,7.49,7.49,0,0,1,5,3.55l.17.32h-.47a9.59,9.59,0,0,1,4-4.36A5.15,5.15,0,0,1,177.79,173.43Z" style="fill:#fafafa"></path><path d="M204.93,186.26c0,.09-.87.33-2.11,1.13a10,10,0,0,0-3.73,4.26l-.21.47-.26-.46-.16-.29a7.58,7.58,0,0,0-4.63-3.45,17.58,17.58,0,0,0-2.47-.31s.23-.1.67-.15a6.49,6.49,0,0,1,1.89.1,7.5,7.5,0,0,1,5,3.55l.17.32h-.47a9.64,9.64,0,0,1,4-4.36A5.31,5.31,0,0,1,204.93,186.26Z" style="fill:#fafafa"></path><path d="M195.91,180.59a13.32,13.32,0,0,1-.73-10.09c.16,0-.33,2.28-.11,5.08S196.06,180.54,195.91,180.59Z" style="fill:#263238"></path><g style="opacity:0.30000000000000004"><path d="M106.43,199.09a16.26,16.26,0,0,0,1.66-18.92c.06.37-2.91,10.19-2.91,10.19l.76,8.4"></path></g><path d="M120.28,197.15,118,185.88a1.45,1.45,0,0,1,1.43-1.74l29.17.13a1.45,1.45,0,0,1,1.43,1.62l-3,25.82a2,2,0,0,1-2,1.78l-19-.15a2,2,0,0,1-1.93-1.52Z" style="fill:#455a64"></path><path d="M117.71,191.21h0a3.06,3.06,0,0,1,2.86,2c.48,1.24,1.18,2.7,2,3.12,1.43.78,3.9,1.41,5.2.77s6.52-5.33,7.43-4.81,1.69,1.7.78,2.74-5.73,4.17-4.82,5.21,11.07-3.55,12.63-3.14,2.48,1.36,1.56,2-7.81,3.23-8.2,4.14c0,0,10.42-2.73,10.81-2.08s1,1.69,0,2.08-10,2.74-10.81,3.13a18.83,18.83,0,0,1-4,1.17,42.58,42.58,0,0,0-4.19,1.33,9.21,9.21,0,0,1-6.48-.17l-1-.43a4.12,4.12,0,0,1-2.57-4.08l.21-3.55-1.14-2.93Z" style="fill:#b78876"></path><path d="M135.21,188.48a1.06,1.06,0,1,1-1.06-1.06A1.06,1.06,0,0,1,135.21,188.48Z" style="fill:#fafafa"></path></g><g id="freepik--Plant--inject-100"><path d="M306.85,385.54c8.37,2.92,19.29.31,26.45-4.92s12.32-12.72,16.89-20.33c1.95-3.24,3.85-6.62,4.47-10.36s-.29-7.93-3.19-10.37c-4.5-3.78-11.4-1.86-16.51,1.05a56.93,56.93,0,0,0-28.11,44.93" style="fill:#736CFD"></path><path d="M315.84,405.58c5,6.63,13.66,9.59,22,10s16.53-1.91,24.3-4.9c2.82-1.08,5.91-2.56,6.87-5.42a6.87,6.87,0,0,0-1.47-6.4,14.38,14.38,0,0,0-5.61-3.83c-7.65-3.25-16.41-3.41-24.46-1.32s-15.08,6.75-21.61,11.9" style="fill:#736CFD"></path><path d="M306.72,349.67c6.93.14,12.18-5.93,15.32-12.11a45,45,0,0,0,4.13-28c-.64-3.54-2-7.36-5.15-9.07s-7.41-.59-10.11,1.88-4.18,6-5.26,9.48c-3.72,12-2.92,25.87,1.07,37.82" style="fill:#736CFD"></path><path d="M284,388c11.81-20.12,13.78-44.72,6.8-67-1.13-3.61-3.26-7.75-7-8-4.18-.27-6.8,4.39-8,8.42-4.05,14.14-3.19,29.15-2.29,43.82.55,9,3.65,16.77,10.49,22.72" style="fill:#736CFD"></path><path d="M271.67,396.28A48.32,48.32,0,0,0,243,365.87c-3.14-1.18-7.12-1.86-9.47.54s-1.58,6.3-.11,9.24c2.38,4.75,6.24,8.56,10.09,12.23,3.5,3.33,7.14,6.67,11.56,8.61s12.56,2.43,16.61-.21" style="fill:#736CFD"></path><path d="M344.93,344.61s-.06.07-.2.18l-.64.49-2.48,1.86-1.79,1.32c-.65.5-1.32,1.08-2.06,1.68-1.47,1.22-3.19,2.54-4.93,4.19L330,356.87c-1,.88-1.89,1.88-2.89,2.87-2,2-4,4.24-6.13,6.6a130.53,130.53,0,0,0-21.6,34.94c-1.16,3-2.32,5.73-3.16,8.43-.44,1.34-.92,2.61-1.28,3.87s-.69,2.47-1,3.62c-.7,2.3-1.1,4.44-1.54,6.29-.21.93-.42,1.79-.58,2.59s-.27,1.54-.38,2.2c-.24,1.29-.42,2.31-.55,3.05-.07.32-.12.58-.16.79a1.23,1.23,0,0,1-.07.26.79.79,0,0,1,0-.27c0-.21.07-.48.11-.8.1-.74.25-1.77.44-3.06.1-.67.22-1.41.34-2.22s.34-1.67.53-2.6c.42-1.87.79-4,1.47-6.33.32-1.16.65-2.38,1-3.64s.82-2.55,1.25-3.9c.83-2.71,2-5.51,3.13-8.48A126.77,126.77,0,0,1,320.64,366c2.13-2.36,4.12-4.64,6.18-6.59,1-1,1.95-2,2.93-2.86l2.81-2.51c1.77-1.64,3.52-2.94,5-4.14.75-.59,1.44-1.16,2.1-1.65l1.83-1.29,2.54-1.77.67-.45Z" style="fill:#263238"></path><path d="M360.58,400.36a4.5,4.5,0,0,1-.81-.14c-.53-.09-1.29-.3-2.3-.46a64.36,64.36,0,0,0-8.55-1.05,62.43,62.43,0,0,0-50.7,21.09,66.31,66.31,0,0,0-5.28,6.81c-.59.83-1,1.52-1.29,2a4.29,4.29,0,0,1-.48.67,4.78,4.78,0,0,1,.38-.73c.28-.46.64-1.17,1.21-2a57.06,57.06,0,0,1,5.17-6.95,61.43,61.43,0,0,1,51-21.22,58.1,58.1,0,0,1,8.57,1.22c1,.2,1.77.44,2.29.57A4.44,4.44,0,0,1,360.58,400.36Z" style="fill:#263238"></path><path d="M316.94,308.52a1.47,1.47,0,0,1-.05.32c0,.23-.11.53-.18.9-.19.83-.45,2-.78,3.46-.68,3-1.72,7.34-3,12.69-2.61,10.71-6.39,25.45-10.33,41.79-2,8.17-3.73,16-5.26,23.1s-2.78,13.56-3.73,19c-.51,2.71-.89,5.17-1.26,7.33s-.66,4-.88,5.54l-.54,3.5c-.07.38-.12.68-.16.91a1.49,1.49,0,0,1-.07.31,1.11,1.11,0,0,1,0-.32c0-.23.06-.54.1-.91.11-.85.26-2,.45-3.52s.44-3.4.78-5.56.7-4.63,1.18-7.35c.9-5.43,2.14-11.88,3.62-19s3.26-14.95,5.22-23.13c3.94-16.34,7.78-31.07,10.48-41.75,1.35-5.31,2.43-9.62,3.2-12.65.37-1.46.67-2.61.88-3.44.1-.36.18-.66.24-.89A1.61,1.61,0,0,1,316.94,308.52Z" style="fill:#263238"></path><path d="M289.8,425.73a2.46,2.46,0,0,1-.07-.24l-.17-.73c-.14-.68-.33-1.62-.58-2.8-.5-2.43-1.16-6-1.92-10.34-1.51-8.75-3.31-20.9-4.42-34.41-.53-6.76-.83-13.22-1-19.09s-.05-11.17.14-15.61c.05-2.22.2-4.22.29-6s.22-3.27.33-4.51.2-2.15.27-2.85c0-.29.06-.54.08-.74a.79.79,0,0,1,0-.25,1.11,1.11,0,0,1,0,.26c0,.2,0,.44,0,.74,0,.7-.09,1.65-.16,2.86s-.17,2.75-.23,4.51-.19,3.77-.22,6c-.13,4.44-.14,9.72,0,15.59s.48,12.3,1,19.05c1.1,13.49,2.84,25.64,4.25,34.4.71,4.38,1.31,7.92,1.75,10.36.2,1.19.36,2.13.47,2.82.05.3.09.54.12.74A.69.69,0,0,1,289.8,425.73Z" style="fill:#263238"></path><path d="M290.68,428.29a3.79,3.79,0,0,1-.31-.7l-.78-2-.55-1.46-.76-1.7c-.27-.62-.56-1.27-.87-2s-.7-1.39-1.07-2.14L285.13,416l-1.44-2.48c-.95-1.73-2.17-3.45-3.36-5.33a125.47,125.47,0,0,0-8.9-11.38,142.59,142.59,0,0,0-10.21-10.22c-1.7-1.43-3.26-2.86-4.83-4.07l-2.23-1.78L252,379.15c-1.34-1-2.6-1.87-3.71-2.61s-2.06-1.4-2.86-1.88l-1.84-1.16a6.39,6.39,0,0,1-.62-.44,3.31,3.31,0,0,1,.68.34l1.89,1.07c.82.46,1.8,1.07,2.92,1.81s2.41,1.55,3.77,2.55l2.15,1.54,2.27,1.76c1.59,1.19,3.16,2.62,4.88,4.05a133.53,133.53,0,0,1,10.29,10.23,123.14,123.14,0,0,1,8.91,11.46c1.18,1.9,2.39,3.64,3.33,5.39l1.42,2.5c.41.83.8,1.62,1.18,2.37s.75,1.47,1,2.17.57,1.36.84,2,.49,1.19.71,1.73l.52,1.48c.28.86.5,1.54.68,2.07A3.46,3.46,0,0,1,290.68,428.29Z" style="fill:#263238"></path><path d="M340.55,367.93c0,.09-1.43.09-3.73.22a70.55,70.55,0,0,0-8.92,1.08,69.21,69.21,0,0,0-8.7,2.27c-2.19.72-3.52,1.24-3.55,1.16a3.76,3.76,0,0,1,.89-.48c.58-.28,1.45-.64,2.53-1.05a53.34,53.34,0,0,1,8.72-2.45,52.45,52.45,0,0,1,9-.92c1.16,0,2.1,0,2.75.05A3.87,3.87,0,0,1,340.55,367.93Z" style="fill:#263238"></path><path d="M349.47,411.48c-.17.08-1.51-3.77-4.87-7.34a33.05,33.05,0,0,0-7-5.39,8.06,8.06,0,0,1,2.41,1.06,21.3,21.3,0,0,1,8.54,9.19A8.35,8.35,0,0,1,349.47,411.48Z" style="fill:#263238"></path><path d="M319.07,324.85c.11.12-2.07,2.28-4.44,5.2s-4.06,5.48-4.2,5.39a33.36,33.36,0,0,1,8.64-10.59Z" style="fill:#263238"></path><path d="M311.93,312.52a41.7,41.7,0,0,1,1.6,9.42,21.07,21.07,0,0,1-1.08-4.66A20.11,20.11,0,0,1,311.93,312.52Z" style="fill:#263238"></path><path d="M289.82,351.21a57.54,57.54,0,0,1-3.46,7.28,59.2,59.2,0,0,1-3.95,7,119,119,0,0,1,7.41-14.3Z" style="fill:#263238"></path><path d="M276.66,338.08a32.58,32.58,0,0,1,2.93,5.26,33.1,33.1,0,0,1,2.44,5.52,64.49,64.49,0,0,1-5.37-10.78Z" style="fill:#263238"></path><path d="M257.32,383c0,.16-2.38-.29-5.3-.5s-5.32-.09-5.33-.25a15,15,0,0,1,5.36-.3A15.14,15.14,0,0,1,257.32,383Z" style="fill:#263238"></path><path d="M270.53,422.72l6.58,34.6a4.84,4.84,0,0,0,4.76,3.94h19.44a4.84,4.84,0,0,0,4.78-4.05l5.72-34.49Z" style="fill:#263238"></path><polygon points="272.67 433.96 309.84 433.96 311.81 422.72 270.53 422.72 272.67 433.96" style="fill:#455a64"></polygon><polygon points="272.67 433.96 273.45 438.06 309.27 438.06 309.84 433.96 272.67 433.96" style="fill:#fafafa"></polygon></g><g id="freepik--Desk--inject-100"><rect x="606.1" y="233.96" width="84.25" height="64.64" rx="10.64" style="fill:#ebebeb"></rect><rect x="611.17" y="233.96" width="84.25" height="64.64" rx="10.64" style="fill:#e0e0e0"></rect><polygon points="642.02 286.26 641.12 311.57 662.01 311.57 662.01 286.54 642.02 286.26" style="fill:#e0e0e0"></polygon><path d="M657,264.92a3.7,3.7,0,1,1-3.7-3.69A3.7,3.7,0,0,1,657,264.92Z" style="fill:#fafafa"></path><rect x="620.09" y="311.87" width="75.59" height="149.62" style="fill:#263238"></rect><rect x="522.15" y="311.87" width="173.53" height="12.73" style="fill:#455a64"></rect><rect x="520.85" y="311.87" width="75.59" height="149.62" style="fill:#263238"></rect></g></svg>