<svg xmlns="http://www.w3.org/2000/svg" viewBox="0 0 500 500"><g id="freepik--background-complete--inject-7"><rect x="88.77" y="48.01" width="125.64" height="85.64" style="fill:none;stroke:#ebebeb;stroke-miterlimit:10"></rect><path d="M98.17,53.1a2.52,2.52,0,1,1-2.52-2.53A2.52,2.52,0,0,1,98.17,53.1Z" style="fill:#a6a6a6"></path><path d="M108.46,53.1a2.52,2.52,0,1,1-2.52-2.53A2.52,2.52,0,0,1,108.46,53.1Z" style="fill:#ebebeb"></path><path d="M118.75,53.1a2.52,2.52,0,1,1-2.52-2.53A2.52,2.52,0,0,1,118.75,53.1Z" style="fill:#FA595F"></path><line x1="88.77" y1="58.03" x2="214.41" y2="58.03" style="fill:none;stroke:#ebebeb;stroke-miterlimit:10"></line><rect x="52.45" y="243.07" width="72.71" height="46.11" transform="translate(-35.14 14.44) rotate(-7.77)" style="fill:#ebebeb"></rect><path d="M121.72,238.37c-2.53,3.18-5.13,6.25-7.69,9.39s-5.19,6.16-7.8,9.22-5.47,6.35-8.22,9.5l-.24.31-7.32,8.33-.37.39-.44-.28q-4.65-3-9.27-6.09l-.33-.21c-3.5-2.3-7-4.61-10.47-7-3.33-2.23-6.66-4.51-10-6.78s-6.64-4.6-9.93-7c3.42,2,6.8,4.05,10.2,6.08s6.78,4.15,10.15,6.26q5.64,3.51,11.28,7.14s0,0,0,0q4.23,2.69,8.44,5.4c2.22-2.49,4.45-5,6.68-7.46l0,0q4.46-5,9-9.89,4-4.4,8.1-8.73C116.25,244.09,119,241.18,121.72,238.37Z" style="fill:#fff"></path><path d="M81.55,268.69l-.08.09c-.33.38-.66.75-1,1.12-1.6,1.77-3.25,3.48-4.94,5.16-2,2.06-4.17,4.06-6.3,6.05s-4.31,3.9-6.53,5.79-4.47,3.75-6.82,5.49c1.92-2.21,3.95-4.3,6-6.36s4.19-4.06,6.31-6,4.31-3.92,6.54-5.81c1.76-1.5,3.57-3,5.42-4.42l1.3-1Z" style="fill:#fff"></path><path d="M127.57,282.62c-2.73-1.05-5.4-2.24-8-3.47s-5.25-2.52-7.85-3.83-5.16-2.7-7.69-4.14c-2.07-1.17-4.12-2.36-6.12-3.64l-1.28-.82-.1-.07a.28.28,0,0,0,.12,0l1.51.61c2.17.87,4.3,1.83,6.41,2.81,2.65,1.23,5.25,2.52,7.85,3.84s5.16,2.71,7.69,4.15S125.13,281,127.57,282.62Z" style="fill:#fff"></path><rect x="393.25" y="65.9" width="41.97" height="66.18" transform="translate(248.42 491.28) rotate(-80.53)" style="fill:#ebebeb"></rect><path d="M450.33,83.73c-3.06,2.08-6.15,4-9.22,6.09s-6.17,4-9.27,5.91-6.47,4-9.7,6l-.3.19-8.6,5.27-.43.25-.31-.37c-2.15-2.59-4.28-5.19-6.42-7.79l-.22-.27c-2.42-2.94-4.83-5.89-7.23-8.88s-4.56-5.72-6.84-8.59-4.52-5.79-6.74-8.75c2.45,2.63,4.82,5.36,7.23,8s4.77,5.44,7.14,8.19c2.63,3,5.26,6.13,7.87,9.24h0l5.88,7c2.6-1.57,5.21-3.15,7.81-4.69,0,0,0,0,0,0q5.22-3.12,10.45-6.19,4.69-2.73,9.4-5.41C444,87.23,447.16,85.43,450.33,83.73Z" style="fill:#fff"></path><path d="M407.23,99.26s-.05,0-.09,0c-.39.24-.78.48-1.17.7q-2.81,1.67-5.69,3.16c-2.34,1.24-4.72,2.4-7.11,3.55s-4.79,2.24-7.23,3.28-4.9,2-7.42,2.93c2.27-1.4,4.6-2.67,6.94-3.91s4.74-2.4,7.12-3.55,4.8-2.24,7.24-3.29c1.95-.83,3.92-1.64,5.91-2.38l1.4-.5Z" style="fill:#fff"></path><path d="M443.49,123.77c-2.1-1.64-4.1-3.4-6.06-5.18s-3.88-3.61-5.79-5.45-3.76-3.74-5.57-5.67c-1.49-1.57-2.94-3.16-4.34-4.82l-.89-1.05s0-.06-.07-.08a.47.47,0,0,0,.09.06l1.15.94c1.65,1.34,3.24,2.75,4.82,4.17,2,1.78,3.88,3.61,5.78,5.46s3.76,3.74,5.57,5.67S441.79,121.71,443.49,123.77Z" style="fill:#fff"></path></g><g id="freepik--Shadow--inject-7"><ellipse cx="250" cy="434.76" rx="189.74" ry="25.35" style="fill:#ebebeb"></ellipse></g><g id="freepik--Floor--inject-7"><polygon points="39.97 391.73 92.48 391.48 144.99 391.39 250 391.23 355.01 391.39 407.52 391.48 460.03 391.73 407.52 391.97 355.01 392.06 250 392.23 144.99 392.06 92.48 391.97 39.97 391.73" style="fill:#263238"></polygon></g><g id="freepik--Plant--inject-7"><path d="M395.85,326.58s-17.74-4-27.46-13-15.15-25-15.15-25a152.52,152.52,0,0,1,19.89,5.22c1.58,1.7,4.61,5.2,6,8.51a41.55,41.55,0,0,0,0-6.08,27,27,0,0,1,6.32,3.83C393.57,307.13,395.85,326.58,395.85,326.58Z" style="fill:#FA595F"></path><path d="M364.31,296.4c-2.42-1.68-4.88-3.29-7.28-5a.14.14,0,0,1,.14-.24c4.57,2.73,9.08,5.65,13.44,8.71,1.52,1.06,3,2.17,4.48,3.3-.1-.17-.2-.35-.31-.52-.53-.9-1.09-1.77-1.65-2.64a38.5,38.5,0,0,0-3.76-5,.06.06,0,1,1,.08-.08c1.38,1.59,2.76,3.17,4,4.86.6.8,1.16,1.63,1.69,2.48.27.44.54.89.8,1.34l.26.46c2.29,1.8,4.53,3.68,6.66,5.66q2,1.84,3.81,3.81c-.69-2.15-1.29-4.32-2.08-6.43,0-.07.09-.1.12,0,.77,2.22,1.61,4.44,2.21,6.72,1.36,1.47,2.66,3,3.88,4.57l-.06-.29c-.2-.83-.41-1.67-.64-2.5-.43-1.6-.9-3.19-1.44-4.77a27.6,27.6,0,0,0-4.77-9c-.05-.06,0-.15.09-.09a34.42,34.42,0,0,1,6.79,14.19c.19.75.37,1.51.55,2.27.09.4.19.81.26,1.22.54.73,1.06,1.46,1.57,2.21a76.41,76.41,0,0,1,7.5,14.72,168.35,168.35,0,0,1,5.68,17.72c0,.11-.14.15-.18,0-3.47-10.38-7-20.9-12.95-30.18-1.25-2-2.61-3.84-4-5.67a33.37,33.37,0,0,1-8.63-1.71,37.88,37.88,0,0,1-8.64-4.18,53.47,53.47,0,0,1-4.43-3.34.06.06,0,1,1,.07-.1,35.26,35.26,0,0,0,8.13,4.92,44,44,0,0,0,8.95,3c1.31.29,2.64.5,4,.68a73.44,73.44,0,0,0-5.23-5.79c-.59-.6-1.21-1.17-1.83-1.75a42.18,42.18,0,0,0-6.56-3.76c-2.9-1.4-5.76-2.89-8.64-4.35-1.62-.83-3.23-1.67-4.87-2.47-.07,0,0-.14.07-.1,2.91,1.4,5.87,2.72,8.81,4.07,2.77,1.27,5.57,2.54,8.23,4,.12.07.22.14.34.2-2.41-2.09-4.89-4.08-7.44-6C369.12,299.81,366.74,298.07,364.31,296.4Z" style="fill:#263238"></path><path d="M365.32,305.54c1.44.63,2.91,1.19,4.34,1.86s2.86,1.49,4.25,2.31c.06,0,0,.13-.05.1-1.42-.68-2.85-1.31-4.25-2s-2.85-1.49-4.32-2.14C365.22,305.62,365.25,305.51,365.32,305.54Z" style="fill:#263238"></path><path d="M453.46,237.2a25.32,25.32,0,0,0-5.3,14.73c-.06,1.59.19,3.81.37,6.41A42.08,42.08,0,0,0,437,268.23a21.11,21.11,0,0,1,11.7-2.8,35.61,35.61,0,0,1-.68,5.3,20,20,0,0,0-7.52,1.49,16.75,16.75,0,0,1,6.78,1.35c-3.16,10.06-12.56,20.39-38.51,24.78a54.49,54.49,0,0,1,4.6-36.52C421.1,246.54,453.46,237.2,453.46,237.2Z" style="fill:#FA595F"></path><path d="M399.75,341.38c.45-4.29,1-8.58,1.68-12.85a258.78,258.78,0,0,1,5.23-25.4,102.06,102.06,0,0,1,3.75-11.57,18.1,18.1,0,0,1-.1-2.08c0-.83,0-1.66,0-2.49q0-2.49.24-5a60.37,60.37,0,0,1,1.59-9.73c.48-1.85,1-3.67,1.57-5.5,0-.07.14,0,.12,0a71,71,0,0,0-1.92,9.71,93.21,93.21,0,0,0-.87,9.74c0,.89,0,1.78,0,2.67,0,.38,0,.76,0,1.15a84.58,84.58,0,0,1,4.37-9,110.59,110.59,0,0,1,8.88-13.29,5.48,5.48,0,0,1,.22-1.45c.12-.58.25-1.16.37-1.74.27-1.18.57-2.36.89-3.53.64-2.35,1.5-4.63,2.23-6.95a.06.06,0,0,1,.12,0c-.69,2.3-1.14,4.68-1.67,7-.26,1.15-.51,2.31-.77,3.47-.12.58-.25,1.16-.37,1.74,0,0,0,.09,0,.13,1.05-1.32,2.12-2.63,3.21-3.91,5-5.81,10.39-11.18,15.86-16.5.67-.65,1.36-1.29,2-1.93a.06.06,0,1,1,.08.08c-5.22,5.45-10.37,11-15.24,16.74q-1.74,2.06-3.42,4.17l1.77-1.18c1.51-1,3-1.95,4.62-2.83s3.16-1.74,4.77-2.54,3.45-1.5,5.05-2.43c.07,0,.13.07.06.1a38.94,38.94,0,0,0-4.73,2.62c-1.58.94-3.16,1.88-4.71,2.87s-3.06,1.92-4.57,2.9c-1.27.82-2.51,1.72-3.82,2.48a122.22,122.22,0,0,0-8.31,12.1,89.3,89.3,0,0,0-4.3,8.15l.93-.41,2.38-1c1.52-.68,3.06-1.34,4.59-2,2.91-1.26,5.86-2.42,8.72-3.81a40,40,0,0,0,4.66-2.59c.06,0,.12.06.06.11-5.32,3.66-11.29,6.25-17.18,8.85l-2.55,1.13c-.7.31-1.41.66-2.13.93a91.38,91.38,0,0,0-4.39,12,244.63,244.63,0,0,0-5.64,25.1c-1.49,8.48-2.5,17-3.28,25.58-.09,1.07-.19,2.13-.31,3.2a.34.34,0,0,1-.68,0C398.85,350.06,399.3,345.71,399.75,341.38Z" style="fill:#263238"></path><path d="M415.54,269.72c.47-2.64,1.18-5.21,1.89-7.8,0-.07.13,0,.11,0-.65,2.53-1.12,5.12-1.6,7.69s-.92,5.26-1.28,7.9c0,0-.08,0-.08,0A68.6,68.6,0,0,1,415.54,269.72Z" style="fill:#263238"></path><path d="M426.72,276.88a46.61,46.61,0,0,1,5.64-3.18c.95-.49,1.91-.95,2.87-1.42s2-.87,3-1.37c.07,0,.13.08.06.11-.95.48-1.85,1.05-2.78,1.56l-2.88,1.58c-1.9,1-3.77,2.15-5.76,3A.14.14,0,0,1,426.72,276.88Z" style="fill:#263238"></path><path d="M395.52,295.85s-16.41-3.92-23.94-14.92c-7.2-10.52-9.53-28.44-9.71-30,.3,1.45,3.68,17.11,14.85,24.41C385.28,280.91,393.54,285.5,395.52,295.85Z" style="fill:#263238;opacity:0.1"></path><path d="M380.38,267.5a21,21,0,0,1,6.05,10,0,0,0,0,1-.06,0,24.49,24.49,0,0,0-6.07-9.89C380.24,267.54,380.32,267.45,380.38,267.5Z" style="fill:#263238"></path><path d="M395.52,295.85s-16.41-3.92-23.94-14.92c-7.2-10.52-9.53-28.44-9.71-30a.45.45,0,0,1,0-.11s7.87,11.19,16.14,14S397.89,277.57,395.52,295.85Z" style="fill:#FA595F"></path><path d="M364.76,257a67.13,67.13,0,0,0,5.07,8.68,35,35,0,0,0,6.75,7c2.23,1.77,4.59,3.37,6.85,5.11a.41.41,0,0,1-.05-.09c-.43-.62-.88-1.24-1.35-1.83-.94-1.2-2-2.34-3-3.46-2-2.21-4.12-4.38-5.95-6.78a24.91,24.91,0,0,1-2.63-4.23c0-.07.08-.11.12,0,2.66,5.54,8,9.09,11.77,13.78a21.9,21.9,0,0,1,1.51,2.07,8.81,8.81,0,0,1,.95,1.67,34.47,34.47,0,0,1,5.6,5.66,22.85,22.85,0,0,0-.66-3.19,16,16,0,0,0-1.74-4.15c0-.07.06-.14.1-.07a19.11,19.11,0,0,1,1.91,4.13,13.89,13.89,0,0,1,.6,3.54h0a32.12,32.12,0,0,1,2.22,3.45l-.21-1.05c-.32-1.63-.68-3.27-1.11-4.88a29,29,0,0,0-3.95-9.24.07.07,0,0,1,.11-.07,35.79,35.79,0,0,1,4.37,9c.52,1.61.94,3.25,1.31,4.9.18.81.34,1.62.5,2.44.08.42.17.84.24,1.28a59.26,59.26,0,0,1,3.78,11.12,163.71,163.71,0,0,1,3.5,20.75,172.64,172.64,0,0,1,1.13,22c0,.92-.07,1.84-.12,2.76,0,.24-.37.27-.38,0-.16-3.64-.25-7.28-.47-10.92s-.53-7.28-.92-10.9a194.89,194.89,0,0,0-3.42-21.22c-1.33-6-3.06-12-6.34-17.3a32.7,32.7,0,0,0-5.92-7c-2.3-2.06-4.81-3.87-7.24-5.79a40.16,40.16,0,0,1-6.65-6.38,52.62,52.62,0,0,1-5.22-8.48c-.38-.74-.78-1.48-1.17-2.22C364.62,257,364.72,256.91,364.76,257Z" style="fill:#263238"></path><path d="M367.59,259.38a54.64,54.64,0,0,0,3.66,6.39,0,0,0,0,1-.08.05,43.73,43.73,0,0,1-3.69-6.4C367.44,259.35,367.56,259.31,367.59,259.38Z" style="fill:#263238"></path><path d="M455.75,288.6s.26,23.32-13.69,30-21.42,1.12-30.9,3.38h0c.37-.56,7.13-10.28,17.89-12.95C440.13,306.31,452.39,298.31,455.75,288.6Z" style="fill:#FA595F"></path><path d="M455.75,288.6s.26,23.32-13.69,30-21.42,1.12-30.9,3.38h0A52.87,52.87,0,0,1,427,317.34C435.83,316.28,452.63,310.55,455.75,288.6Z" style="opacity:0.1"></path><path d="M410.25,322.45a23.44,23.44,0,0,1,5.54-3.76c.3-.14.61-.26.91-.39s.31-.36.47-.53c.42-.44.86-.86,1.31-1.25a19.22,19.22,0,0,1,2.81-2c2.31-1.36,4.84-2.31,7.2-3.57.07,0,.13.07.06.1-1.17.61-2.3,1.28-3.43,1.94s-2.24,1.26-3.31,1.95a24.52,24.52,0,0,0-2.76,2.07c-.25.22-.48.45-.72.69a36.72,36.72,0,0,1,4.71-1.25c2.56-.52,5.14-.89,7.69-1.43a36.75,36.75,0,0,0,3.7-1c1.15-.93,2.31-1.86,3.4-2.87a27.87,27.87,0,0,0,3.61-4c.05-.06.15,0,.1.06a42.19,42.19,0,0,1-5.72,6.31c.61-.23,1.2-.47,1.79-.74a28.72,28.72,0,0,0,11.88-9.89c0-.06.15,0,.1.07a32.65,32.65,0,0,1-9.61,9.23,29.06,29.06,0,0,1-6.07,2.87,55.93,55.93,0,0,1-7.55,1.78,54.78,54.78,0,0,0-7.39,1.76,22.29,22.29,0,0,0-6.2,3.26,29.15,29.15,0,0,0-8.36,10.36,52.3,52.3,0,0,0-4.6,17.06c0,.25-.41.25-.4,0C400.07,339.45,402.69,329.25,410.25,322.45Z" style="fill:#263238"></path><path d="M426.43,314.84a8.06,8.06,0,0,1,2.87-2.6,10.67,10.67,0,0,0,3.41-2.82c0-.06.15,0,.1.06a11.41,11.41,0,0,1-3,2.7,10.28,10.28,0,0,0-3.28,2.72C426.48,315,426.39,314.9,426.43,314.84Z" style="fill:#263238"></path><polygon points="419.03 339.66 418.4 352.48 416.45 391.67 387.2 391.67 385.25 352.48 384.62 339.66 419.03 339.66" style="fill:#37474f"></polygon><polygon points="419.03 339.66 418.4 352.48 385.25 352.48 384.62 339.66 419.03 339.66" style="fill:#263238"></polygon><rect x="382.57" y="334.31" width="38.51" height="12.23" style="fill:#37474f"></rect></g><g id="freepik--Device--inject-7"><path d="M335.81,55.17H163.75A17.57,17.57,0,0,0,146.34,72.9V427.1a17.58,17.58,0,0,0,17.41,17.73H335.81a17.6,17.6,0,0,0,17.43-17.73V72.9A17.59,17.59,0,0,0,335.81,55.17Zm6.54,361c0,9.32-7,16.86-15.59,16.86H172.83c-8.63,0-15.62-7.54-15.62-16.86V86.33c0-19,7-19.92,15.62-19.92h30.83c1.8,0,3.26,2,3.26,4.56v1.09c0,5.91,3.24,5.93,7.21,5.93h71.3c4,0,7.23,0,7.23-5.93V71c0-2.53,1.45-4.56,3.27-4.56h30.83c8.61,0,15.59,2.52,15.59,19.92Z" style="fill:#263238"></path><path d="M342.36,86.62V416.44c0,9.32-7,16.86-15.59,16.86H172.84c-8.63,0-15.62-7.54-15.62-16.86V86.62c0-19,7-19.92,15.62-19.92h30.84c1.79,0,3.25,2,3.25,4.56v1.09c0,5.91,3.24,5.93,7.21,5.93h71.3c4,0,7.23,0,7.23-5.93V71.26c0-2.53,1.45-4.56,3.27-4.56h30.83C335.38,66.7,342.36,69.22,342.36,86.62Z" style="fill:#fff"></path><path d="M342.36,86.62v29.92H157.22V86.62c0-19,7-19.92,15.62-19.92h30.84c1.79,0,3.25,2,3.25,4.56v1.09c0,5.91,3.24,5.93,7.21,5.93h71.3c4,0,7.23,0,7.23-5.93V71.26c0-2.52,1.45-4.56,3.27-4.56h30.83C335.38,66.7,342.36,69.23,342.36,86.62Z" style="fill:#FA595F"></path><path d="M259.51,70.6H240.06a1.2,1.2,0,0,1-1.2-1.2h0a1.2,1.2,0,0,1,1.2-1.2h19.45a1.2,1.2,0,0,1,1.2,1.2h0A1.19,1.19,0,0,1,259.51,70.6Z" style="fill:#fff"></path><g id="freepik--u5Zjqx--inject-7"><path d="M198.34,73.81l-.3.3c0,.06-.11.11-.17.17a4.06,4.06,0,0,0-5.74,0l-.16-.16-.29-.3h0l0,0,.37-.33a4.24,4.24,0,0,1,.88-.56,4.59,4.59,0,0,1,1.15-.39l.58-.07h.5c.13,0,.27,0,.4,0a4.23,4.23,0,0,1,1.05.25,3.94,3.94,0,0,1,.72.34,4.43,4.43,0,0,1,.69.47l.31.29Z" style="fill:#fff"></path><path d="M193.07,75.22l-.47-.47a3.3,3.3,0,0,1,1.92-1,3.38,3.38,0,0,1,2.88.95c-.16.16-.31.32-.47.47a2.73,2.73,0,0,0-1.93-.79A2.7,2.7,0,0,0,193.07,75.22Z" style="fill:#fff"></path><path d="M196.46,75.69l-.47.46a1.38,1.38,0,0,0-1-.4,1.34,1.34,0,0,0-1,.41l-.47-.47A2,2,0,0,1,196.46,75.69Z" style="fill:#fff"></path><path d="M195.43,76.58a.43.43,0,1,1-.43-.42A.42.42,0,0,1,195.43,76.58Z" style="fill:#fff"></path></g><path d="M169.29,74.72a1.23,1.23,0,1,1,1.23,1.22A1.23,1.23,0,0,1,169.29,74.72Z" style="fill:#fff"></path><path d="M173.15,74.72a1.23,1.23,0,1,1,1.23,1.22A1.23,1.23,0,0,1,173.15,74.72Z" style="fill:#fff"></path><path d="M177,74.72a1.23,1.23,0,1,1,1.23,1.22A1.23,1.23,0,0,1,177,74.72Z" style="fill:#fff"></path><path d="M180.88,74.72a1.23,1.23,0,1,1,1.23,1.22A1.23,1.23,0,0,1,180.88,74.72Z" style="fill:#fff"></path><path d="M184.75,74.72A1.23,1.23,0,1,1,186,75.94,1.23,1.23,0,0,1,184.75,74.72Z" style="fill:#fff"></path><path d="M328.46,77.39h-10V72.77h10ZM319,76.88h9v-3.6h-9Z" style="fill:#fff"></path><rect x="319.3" y="73.55" width="6.44" height="3.06" style="fill:#fff"></rect><rect x="328.47" y="73.84" width="0.89" height="2.48" style="fill:#fff"></rect><polygon points="174.76 105.09 169.29 99.97 174.76 94.84 175.61 95.75 171.1 99.97 175.61 104.19 174.76 105.09" style="fill:#fff"></polygon><path d="M325.54,105.44H321.9v-1.26a.33.33,0,0,0-.18-.28l-.41-.23a.33.33,0,0,0-.33,0l-1.09.64-1.82-3.16,1.09-.63a.31.31,0,0,0,.15-.3v-.46a.31.31,0,0,0-.15-.3l-1.09-.63,1.82-3.16,1.09.63a.3.3,0,0,0,.33,0,3.38,3.38,0,0,1,.41-.24.3.3,0,0,0,.18-.27V94.49h3.64v1.27a.3.3,0,0,0,.18.27,3.38,3.38,0,0,1,.41.24.3.3,0,0,0,.33,0l1.09-.63,1.82,3.16-1.09.63a.31.31,0,0,0-.15.3v.46a.3.3,0,0,0,.15.29l1.09.64-1.82,3.16-1.09-.64a.33.33,0,0,0-.33,0l-.41.23a.33.33,0,0,0-.18.28Zm-2.89-.75h2.14v-.51a1.05,1.05,0,0,1,.59-.94,3.79,3.79,0,0,0,.34-.2,1.06,1.06,0,0,1,1.11,0l.45.26,1.07-1.86-.45-.26a1.06,1.06,0,0,1-.52-1v-.38a1.08,1.08,0,0,1,.52-1l.45-.25-1.07-1.86-.45.25a1.06,1.06,0,0,1-1.11,0,3.79,3.79,0,0,0-.34-.2,1.05,1.05,0,0,1-.59-.94v-.52h-2.14v.52a1.05,1.05,0,0,1-.59.94l-.34.2a1.06,1.06,0,0,1-1.11,0l-.44-.25-1.08,1.86.45.25a1.07,1.07,0,0,1,.52,1v.39a1.08,1.08,0,0,1-.52,1l-.45.25,1.08,1.86.44-.26a1.08,1.08,0,0,1,1.11,0l.34.2a1.05,1.05,0,0,1,.59.94Zm1.07-2a2.75,2.75,0,1,1,2.75-2.74A2.75,2.75,0,0,1,323.72,102.71Zm0-4.74a2,2,0,1,0,2,2A2,2,0,0,0,323.72,98Z" style="fill:#fff"></path><rect x="175.46" y="134.43" width="113.48" height="7.11" style="fill:#fff"></rect><path d="M289,141.62H175.39v-7.26H289Z" style="fill:#ebebeb"></path><rect x="281.76" y="134.36" width="7.26" height="7.26" style="fill:#FA595F"></rect><path d="M287.64,140l-.66.5-1.21-1.61-.45-.58a1.35,1.35,0,0,0,.26-.15,1.12,1.12,0,0,0,.34-.44l.47.63Z" style="fill:#fff"></path><path d="M286.35,136.2a1.79,1.79,0,1,0-.58,2.67,1.17,1.17,0,0,0,.25-.16,1.9,1.9,0,0,0,.37-.38A1.8,1.8,0,0,0,286.35,136.2Zm-.77,1.94a1.35,1.35,0,0,1-.26.15,1.08,1.08,0,0,1-1.05-1.85,1.08,1.08,0,0,1,1.65,1.26A1.12,1.12,0,0,1,285.58,138.14Z" style="fill:#fff"></path><rect x="176.95" y="135.83" width="0.38" height="4.32" style="fill:#c7c7c7"></rect><path d="M333.92,130.81a4.7,4.7,0,0,1-1.4.58,4.83,4.83,0,1,1,3.55-5.84A4.84,4.84,0,0,1,333.92,130.81Z" style="fill:#FA595F"></path><path d="M332.85,126.15a1.47,1.47,0,1,1-1.47-1.47A1.47,1.47,0,0,1,332.85,126.15Z" style="fill:#fff"></path><path d="M333.92,130.2v.61a4.7,4.7,0,0,1-1.4.58,4.78,4.78,0,0,1-3.68-.59v-.6a2.54,2.54,0,0,1,5.08,0Z" style="fill:#fff"></path><rect x="157.22" y="153.01" width="185.13" height="14.68" style="fill:#ebebeb"></rect><rect x="168.71" y="158.14" width="4.41" height="4.41" style="fill:#fff"></rect><polygon points="191.85 162.55 187.44 162.55 189.24 160.34 187.44 158.14 191.85 158.14 193.65 160.34 191.85 162.55" style="fill:#fff"></polygon><polygon points="180.52 158.14 181.24 159.59 182.84 159.82 181.68 160.95 181.96 162.55 180.52 161.8 179.09 162.55 179.36 160.95 178.2 159.82 179.81 159.59 180.52 158.14" style="fill:#FA595F"></polygon><rect x="196.81" y="159.45" width="35.12" height="1.79" style="fill:#263238"></rect><rect x="291.58" y="159.45" width="31.89" height="1.79" style="fill:#263238"></rect><rect x="242.66" y="159.45" width="35.52" height="1.79" style="fill:#455a64"></rect><rect x="168.71" y="172.82" width="4.41" height="4.41" style="fill:#fff"></rect><path d="M173.37,177.48h-4.91v-4.91h4.91ZM169,177h3.91v-3.91H169Z" style="fill:#ebebeb"></path><polygon points="191.85 177.23 187.44 177.23 189.24 175.02 187.44 172.82 191.85 172.82 193.65 175.02 191.85 177.23" style="fill:#fff"></polygon><path d="M192,177.48h-5.05l2-2.46-2-2.45H192l2,2.45Zm-4-.5h3.76l1.6-2-1.6-2H188l1.59,2Z" style="fill:#ebebeb"></path><polygon points="180.52 172.82 181.24 174.27 182.84 174.5 181.68 175.63 181.96 177.23 180.52 176.47 179.09 177.23 179.36 175.63 178.2 174.5 179.81 174.27 180.52 172.82" style="fill:#FA595F"></polygon><rect x="196.81" y="174.13" width="35.12" height="1.79" style="fill:#263238"></rect><rect x="291.58" y="174.13" width="31.89" height="1.79" style="fill:#263238"></rect><rect x="242.66" y="174.13" width="35.52" height="1.79" style="fill:#455a64"></rect><rect x="157.22" y="182.36" width="185.13" height="14.68" style="fill:#ebebeb"></rect><rect x="168.71" y="187.5" width="4.41" height="4.41" style="fill:#fff"></rect><polygon points="191.85 191.91 187.44 191.91 189.24 189.7 187.44 187.5 191.85 187.5 193.65 189.7 191.85 191.91" style="fill:#fff"></polygon><polygon points="180.52 187.5 181.24 188.95 182.84 189.18 181.68 190.31 181.96 191.91 180.52 191.15 179.09 191.91 179.36 190.31 178.2 189.18 179.81 188.95 180.52 187.5" style="fill:#fff"></polygon><rect x="196.81" y="188.8" width="35.12" height="1.79" style="fill:#dbdbdb"></rect><rect x="291.58" y="188.8" width="31.89" height="1.79" style="fill:#dbdbdb"></rect><rect x="242.66" y="188.8" width="35.52" height="1.79" style="fill:#c7c7c7"></rect><rect x="168.71" y="202.17" width="4.41" height="4.41" style="fill:#fff"></rect><path d="M173.37,206.83h-4.91v-4.91h4.91Zm-4.41-.5h3.91v-3.91H169Z" style="fill:#ebebeb"></path><polygon points="191.85 206.58 187.44 206.58 189.24 204.38 187.44 202.17 191.85 202.17 193.65 204.38 191.85 206.58" style="fill:#fff"></polygon><path d="M192,206.83h-5.05l2-2.45-2-2.46H192l2,2.46Zm-4-.5h3.76l1.6-2-1.6-2H188l1.59,2Z" style="fill:#ebebeb"></path><polygon points="180.52 202.17 181.24 203.63 182.84 203.86 181.68 204.99 181.96 206.58 180.52 205.83 179.09 206.58 179.36 204.99 178.2 203.86 179.81 203.63 180.52 202.17" style="fill:#FA595F"></polygon><rect x="196.81" y="203.48" width="35.12" height="1.79" style="fill:#dbdbdb"></rect><rect x="291.58" y="203.48" width="31.89" height="1.79" style="fill:#dbdbdb"></rect><rect x="242.66" y="203.48" width="35.52" height="1.79" style="fill:#c7c7c7"></rect><rect x="157.22" y="211.72" width="185.13" height="14.68" style="fill:#ebebeb"></rect><rect x="168.71" y="216.85" width="4.41" height="4.41" style="fill:#fff"></rect><polygon points="191.85 221.26 187.44 221.26 189.24 219.06 187.44 216.85 191.85 216.85 193.65 219.06 191.85 221.26" style="fill:#fff"></polygon><polygon points="180.52 216.85 181.24 218.3 182.84 218.54 181.68 219.66 181.96 221.26 180.52 220.51 179.09 221.26 179.36 219.66 178.2 218.54 179.81 218.3 180.52 216.85" style="fill:#FA595F"></polygon><rect x="196.81" y="218.16" width="35.12" height="1.79" style="fill:#dbdbdb"></rect><rect x="291.58" y="218.16" width="31.89" height="1.79" style="fill:#dbdbdb"></rect><rect x="242.66" y="218.16" width="35.52" height="1.79" style="fill:#c7c7c7"></rect><rect x="168.71" y="231.53" width="4.41" height="4.41" style="fill:#fff"></rect><path d="M173.37,236.19h-4.91v-4.91h4.91Zm-4.41-.5h3.91v-3.91H169Z" style="fill:#ebebeb"></path><polygon points="191.85 235.94 187.44 235.94 189.24 233.73 187.44 231.53 191.85 231.53 193.65 233.73 191.85 235.94" style="fill:#fff"></polygon><path d="M192,236.19h-5.05l2-2.46-2-2.45H192l2,2.45Zm-4-.5h3.76l1.6-2-1.6-1.95H188l1.59,1.95Z" style="fill:#ebebeb"></path><polygon points="180.52 231.53 181.24 232.98 182.84 233.21 181.68 234.34 181.96 235.94 180.52 235.19 179.09 235.94 179.36 234.34 178.2 233.21 179.81 232.98 180.52 231.53" style="fill:#fff"></polygon><path d="M178.76,236.4l.33-2L177.67,233l2-.29.88-1.79.88,1.79,2,.29L182,234.43l.34,2-1.77-.93Zm1.76-1.5,1.1.58-.21-1.22.89-.87-1.23-.18-.55-1.12-.55,1.12-1.23.18.89.87-.21,1.22Z" style="fill:#ebebeb"></path><rect x="196.81" y="232.84" width="35.12" height="1.79" style="fill:#dbdbdb"></rect><rect x="291.58" y="232.84" width="31.89" height="1.79" style="fill:#dbdbdb"></rect><rect x="242.66" y="232.84" width="35.52" height="1.79" style="fill:#c7c7c7"></rect><rect x="157.22" y="241.07" width="185.13" height="14.68" style="fill:#ebebeb"></rect><rect x="168.71" y="246.21" width="4.41" height="4.41" style="fill:#fff"></rect><polygon points="191.85 250.62 187.44 250.62 189.24 248.41 187.44 246.21 191.85 246.21 193.65 248.41 191.85 250.62" style="fill:#fff"></polygon><polygon points="180.52 246.21 181.24 247.66 182.84 247.89 181.68 249.02 181.96 250.62 180.52 249.86 179.09 250.62 179.36 249.02 178.2 247.89 179.81 247.66 180.52 246.21" style="fill:#FA595F"></polygon><rect x="196.81" y="247.52" width="35.12" height="1.79" style="fill:#dbdbdb"></rect><rect x="291.58" y="247.52" width="31.89" height="1.79" style="fill:#dbdbdb"></rect><rect x="242.66" y="247.52" width="35.52" height="1.79" style="fill:#c7c7c7"></rect><rect x="168.71" y="260.89" width="4.41" height="4.41" style="fill:#fff"></rect><path d="M173.37,265.54h-4.91v-4.9h4.91ZM169,265h3.91v-3.9H169Z" style="fill:#ebebeb"></path><polygon points="191.85 265.3 187.44 265.3 189.24 263.09 187.44 260.89 191.85 260.89 193.65 263.09 191.85 265.3" style="fill:#fff"></polygon><path d="M192,265.54h-5.05l2-2.45-2-2.45H192l2,2.45Zm-4-.5h3.76l1.6-2-1.6-1.95H188l1.59,1.95Z" style="fill:#ebebeb"></path><polygon points="180.52 260.89 181.24 262.34 182.84 262.57 181.68 263.7 181.96 265.3 180.52 264.54 179.09 265.3 179.36 263.7 178.2 262.57 179.81 262.34 180.52 260.89" style="fill:#fff"></polygon><path d="M178.76,265.75l.33-2-1.42-1.4,2-.28.88-1.79.88,1.79,2,.28-1.43,1.4.34,2-1.77-.93Zm1.76-1.49,1.1.58-.21-1.23.89-.87-1.23-.17-.55-1.12-.55,1.12-1.23.17.89.87-.21,1.23Z" style="fill:#ebebeb"></path><rect x="196.81" y="262.19" width="35.12" height="1.79" style="fill:#dbdbdb"></rect><rect x="291.58" y="262.19" width="31.89" height="1.79" style="fill:#dbdbdb"></rect><rect x="242.66" y="262.19" width="35.52" height="1.79" style="fill:#c7c7c7"></rect><rect x="157.22" y="270.43" width="185.13" height="14.68" style="fill:#ebebeb"></rect><rect x="168.71" y="275.56" width="4.41" height="4.41" style="fill:#fff"></rect><polygon points="191.85 279.97 187.44 279.97 189.24 277.77 187.44 275.56 191.85 275.56 193.65 277.77 191.85 279.97" style="fill:#fff"></polygon><polygon points="180.52 275.56 181.24 277.01 182.84 277.25 181.68 278.38 181.96 279.97 180.52 279.22 179.09 279.97 179.36 278.38 178.2 277.25 179.81 277.01 180.52 275.56" style="fill:#fff"></polygon><rect x="196.81" y="276.87" width="35.12" height="1.79" style="fill:#dbdbdb"></rect><rect x="291.58" y="276.87" width="31.89" height="1.79" style="fill:#dbdbdb"></rect><rect x="242.66" y="276.87" width="35.52" height="1.79" style="fill:#c7c7c7"></rect><rect x="168.71" y="290.24" width="4.41" height="4.41" style="fill:#fff"></rect><path d="M173.37,294.9h-4.91V290h4.91Zm-4.41-.5h3.91v-3.91H169Z" style="fill:#ebebeb"></path><polygon points="191.85 294.65 187.44 294.65 189.24 292.45 187.44 290.24 191.85 290.24 193.65 292.45 191.85 294.65" style="fill:#fff"></polygon><path d="M192,294.9h-5.05l2-2.45-2-2.46H192l2,2.46Zm-4-.5h3.76l1.6-1.95-1.6-2H188l1.59,2Z" style="fill:#ebebeb"></path><polygon points="180.52 290.24 181.24 291.69 182.84 291.93 181.68 293.06 181.96 294.65 180.52 293.9 179.09 294.65 179.36 293.06 178.2 291.93 179.81 291.69 180.52 290.24" style="fill:#fff"></polygon><path d="M178.76,295.11l.33-2-1.42-1.39,2-.29.88-1.78.88,1.78,2,.29L182,293.14l.34,2-1.77-.93Zm1.76-1.49,1.1.57-.21-1.22.89-.87-1.23-.18-.55-1.11-.55,1.11-1.23.18.89.87-.21,1.22Z" style="fill:#ebebeb"></path><rect x="196.81" y="291.55" width="35.12" height="1.79" style="fill:#dbdbdb"></rect><rect x="291.58" y="291.55" width="31.89" height="1.79" style="fill:#dbdbdb"></rect><rect x="242.66" y="291.55" width="35.52" height="1.79" style="fill:#c7c7c7"></rect><rect x="157.22" y="299.78" width="185.13" height="14.68" style="fill:#ebebeb"></rect><rect x="168.71" y="304.92" width="4.41" height="4.41" style="fill:#fff"></rect><polygon points="191.85 309.33 187.44 309.33 189.24 307.12 187.44 304.92 191.85 304.92 193.65 307.12 191.85 309.33" style="fill:#fff"></polygon><polygon points="180.52 304.92 181.24 306.37 182.84 306.6 181.68 307.73 181.96 309.33 180.52 308.57 179.09 309.33 179.36 307.73 178.2 306.6 179.81 306.37 180.52 304.92" style="fill:#fff"></polygon><path d="M178.76,309.79l.33-2-1.42-1.39,2-.29.88-1.79.88,1.79,2,.29L182,307.82l.34,2-1.77-.93Zm1.76-1.5,1.1.58-.21-1.22.89-.87-1.23-.18-.55-1.12L180,306.6l-1.23.18.89.87-.21,1.22Z" style="fill:#ebebeb"></path><rect x="196.81" y="306.23" width="35.12" height="1.79" style="fill:#dbdbdb"></rect><rect x="291.58" y="306.23" width="31.89" height="1.79" style="fill:#dbdbdb"></rect><rect x="242.66" y="306.23" width="35.52" height="1.79" style="fill:#c7c7c7"></rect><rect x="168.71" y="319.6" width="4.41" height="4.41" style="fill:#fff"></rect><path d="M173.37,324.26h-4.91v-4.91h4.91Zm-4.41-.5h3.91v-3.91H169Z" style="fill:#ebebeb"></path><polygon points="191.85 324.01 187.44 324.01 189.24 321.8 187.44 319.6 191.85 319.6 193.65 321.8 191.85 324.01" style="fill:#fff"></polygon><path d="M192,324.26h-5.05l2-2.46-2-2.45H192l2,2.45Zm-4-.5h3.76l1.6-2-1.6-1.95H188l1.59,1.95Z" style="fill:#ebebeb"></path><polygon points="180.52 319.6 181.24 321.05 182.84 321.28 181.68 322.41 181.96 324.01 180.52 323.25 179.09 324.01 179.36 322.41 178.2 321.28 179.81 321.05 180.52 319.6" style="fill:#fff"></polygon><path d="M178.76,324.46l.33-2-1.42-1.39,2-.29.88-1.79.88,1.79,2,.29L182,322.5l.34,2-1.77-.92Zm1.76-1.49,1.1.58-.21-1.23.89-.86-1.23-.18-.55-1.12-.55,1.12-1.23.18.89.86-.21,1.23Z" style="fill:#ebebeb"></path><rect x="196.81" y="320.91" width="35.12" height="1.79" style="fill:#dbdbdb"></rect><rect x="291.58" y="320.91" width="31.89" height="1.79" style="fill:#dbdbdb"></rect><rect x="242.66" y="320.91" width="35.52" height="1.79" style="fill:#c7c7c7"></rect><rect x="157.22" y="329.14" width="185.13" height="14.68" style="fill:#ebebeb"></rect><rect x="168.71" y="334.28" width="4.41" height="4.41" style="fill:#fff"></rect><polygon points="191.85 338.68 187.44 338.68 189.24 336.48 187.44 334.27 191.85 334.27 193.65 336.48 191.85 338.68" style="fill:#fff"></polygon><polygon points="180.52 334.27 181.24 335.73 182.84 335.96 181.68 337.09 181.96 338.68 180.52 337.93 179.09 338.68 179.36 337.09 178.2 335.96 179.81 335.73 180.52 334.27" style="fill:#fff"></polygon><path d="M178.76,339.14l.33-2-1.42-1.39,2-.29.88-1.79.88,1.79,2,.29L182,337.18l.34,2-1.77-.93Zm1.76-1.49,1.1.58-.21-1.23.89-.87-1.23-.17-.55-1.12L180,336l-1.23.17.89.87-.21,1.23Z" style="fill:#ebebeb"></path><rect x="196.81" y="335.58" width="35.12" height="1.79" style="fill:#dbdbdb"></rect><rect x="291.58" y="335.58" width="31.89" height="1.79" style="fill:#dbdbdb"></rect><rect x="242.66" y="335.58" width="35.52" height="1.79" style="fill:#c7c7c7"></rect><rect x="168.71" y="348.95" width="4.41" height="4.41" style="fill:#fff"></rect><path d="M173.37,353.61h-4.91V348.7h4.91Zm-4.41-.5h3.91V349.2H169Z" style="fill:#ebebeb"></path><polygon points="191.85 353.36 187.44 353.36 189.24 351.16 187.44 348.95 191.85 348.95 193.65 351.16 191.85 353.36" style="fill:#fff"></polygon><path d="M192,353.61h-5.05l2-2.45-2-2.46H192l2,2.46Zm-4-.5h3.76l1.6-1.95-1.6-2H188l1.59,2Z" style="fill:#ebebeb"></path><polygon points="180.52 348.95 181.24 350.4 182.84 350.64 181.68 351.77 181.96 353.36 180.52 352.61 179.09 353.36 179.36 351.77 178.2 350.64 179.81 350.4 180.52 348.95" style="fill:#fff"></polygon><path d="M178.76,353.82l.33-2-1.42-1.39,2-.28.88-1.79.88,1.79,2,.28L182,351.85l.34,2-1.77-.93Zm1.76-1.49,1.1.58-.21-1.23.89-.87-1.23-.18-.55-1.11-.55,1.11-1.23.18.89.87-.21,1.23Z" style="fill:#ebebeb"></path><rect x="196.81" y="350.26" width="35.12" height="1.79" style="fill:#dbdbdb"></rect><rect x="291.58" y="350.26" width="31.89" height="1.79" style="fill:#dbdbdb"></rect><rect x="242.66" y="350.26" width="35.52" height="1.79" style="fill:#c7c7c7"></rect><rect x="157.22" y="358.5" width="185.13" height="14.68" style="fill:#ebebeb"></rect><rect x="168.71" y="363.63" width="4.41" height="4.41" style="fill:#fff"></rect><polygon points="191.85 368.04 187.44 368.04 189.24 365.84 187.44 363.63 191.85 363.63 193.65 365.84 191.85 368.04" style="fill:#fff"></polygon><polygon points="180.52 363.63 181.24 365.08 182.84 365.32 181.68 366.44 181.96 368.04 180.52 367.29 179.09 368.04 179.36 366.44 178.2 365.32 179.81 365.08 180.52 363.63" style="fill:#FA595F"></polygon><rect x="196.81" y="364.94" width="35.12" height="1.79" style="fill:#dbdbdb"></rect><rect x="291.58" y="364.94" width="31.89" height="1.79" style="fill:#dbdbdb"></rect><rect x="242.66" y="364.94" width="35.52" height="1.79" style="fill:#c7c7c7"></rect><rect x="168.71" y="378.31" width="4.41" height="4.41" style="fill:#fff"></rect><path d="M173.37,383h-4.91v-4.91h4.91Zm-4.41-.5h3.91v-3.91H169Z" style="fill:#ebebeb"></path><polygon points="191.85 382.72 187.44 382.72 189.24 380.51 187.44 378.31 191.85 378.31 193.65 380.51 191.85 382.72" style="fill:#fff"></polygon><path d="M192,383h-5.05l2-2.46-2-2.45H192l2,2.45Zm-4-.5h3.76l1.6-2-1.6-1.95H188l1.59,1.95Z" style="fill:#ebebeb"></path><polygon points="180.52 378.31 181.24 379.76 182.84 379.99 181.68 381.12 181.96 382.72 180.52 381.96 179.09 382.72 179.36 381.12 178.2 379.99 179.81 379.76 180.52 378.31" style="fill:#fff"></polygon><path d="M178.76,383.18l.33-2-1.42-1.39,2-.29.88-1.78.88,1.78,2,.29L182,381.21l.34,2-1.77-.93Zm1.76-1.5,1.1.58-.21-1.22.89-.87-1.23-.18-.55-1.12L180,380l-1.23.18.89.87-.21,1.22Z" style="fill:#ebebeb"></path><rect x="196.81" y="379.62" width="35.12" height="1.79" style="fill:#dbdbdb"></rect><rect x="291.58" y="379.62" width="31.89" height="1.79" style="fill:#dbdbdb"></rect><rect x="242.66" y="379.62" width="35.52" height="1.79" style="fill:#c7c7c7"></rect><rect x="157.22" y="387.85" width="185.13" height="14.68" style="fill:#ebebeb"></rect><rect x="168.71" y="392.99" width="4.41" height="4.41" style="fill:#fff"></rect><polygon points="191.85 397.4 187.44 397.4 189.24 395.19 187.44 392.99 191.85 392.99 193.65 395.19 191.85 397.4" style="fill:#fff"></polygon><polygon points="180.52 392.99 181.24 394.44 182.84 394.67 181.68 395.8 181.96 397.4 180.52 396.64 179.09 397.4 179.36 395.8 178.2 394.67 179.81 394.44 180.52 392.99" style="fill:#FA595F"></polygon><rect x="196.81" y="394.3" width="35.12" height="1.79" style="fill:#dbdbdb"></rect><rect x="291.58" y="394.3" width="31.89" height="1.79" style="fill:#dbdbdb"></rect><rect x="242.66" y="394.3" width="35.52" height="1.79" style="fill:#c7c7c7"></rect><rect x="168.71" y="407.67" width="4.41" height="4.41" style="fill:#fff"></rect><path d="M173.37,412.32h-4.91v-4.9h4.91Zm-4.41-.5h3.91v-3.9H169Z" style="fill:#ebebeb"></path><polygon points="191.85 412.07 187.44 412.07 189.24 409.87 187.44 407.67 191.85 407.67 193.65 409.87 191.85 412.07" style="fill:#fff"></polygon><path d="M192,412.32h-5.05l2-2.45-2-2.45H192l2,2.45Zm-4-.5h3.76l1.6-1.95-1.6-1.95H188l1.59,1.95Z" style="fill:#ebebeb"></path><polygon points="180.52 407.67 181.24 409.12 182.84 409.35 181.68 410.48 181.96 412.07 180.52 411.32 179.09 412.07 179.36 410.48 178.2 409.35 179.81 409.12 180.52 407.67" style="fill:#fff"></polygon><path d="M178.76,412.53l.33-2-1.42-1.4,2-.28.88-1.79.88,1.79,2,.28-1.43,1.4.34,2-1.77-.93Zm1.76-1.49,1.1.58-.21-1.23.89-.87-1.23-.18-.55-1.11-.55,1.11-1.23.18.89.87-.21,1.23Z" style="fill:#ebebeb"></path><rect x="196.81" y="408.97" width="35.12" height="1.79" style="fill:#dbdbdb"></rect><rect x="291.58" y="408.97" width="31.89" height="1.79" style="fill:#dbdbdb"></rect><rect x="242.66" y="408.97" width="35.52" height="1.79" style="fill:#c7c7c7"></rect><path d="M342.33,417.21A16.82,16.82,0,0,1,333,431.89H166.59a16.81,16.81,0,0,1-9.34-14.68Z" style="fill:#ebebeb"></path><rect x="168.71" y="422.34" width="4.41" height="4.41" style="fill:#fff"></rect><polygon points="191.85 426.75 187.44 426.75 189.24 424.55 187.44 422.34 191.85 422.34 193.65 424.55 191.85 426.75" style="fill:#fff"></polygon><polygon points="180.52 422.34 181.24 423.8 182.84 424.03 181.68 425.16 181.96 426.75 180.52 426 179.09 426.75 179.36 425.16 178.2 424.03 179.81 423.8 180.52 422.34" style="fill:#FA595F"></polygon><rect x="196.81" y="423.65" width="35.12" height="1.79" style="fill:#dbdbdb"></rect><rect x="291.58" y="423.65" width="31.89" height="1.79" style="fill:#dbdbdb"></rect><rect x="242.66" y="423.65" width="35.52" height="1.79" style="fill:#c7c7c7"></rect></g><g id="freepik--paper-plane--inject-7"><path d="M189.87,281.57v-.75l4-.05v.75Zm-5,0c-1.36,0-2.69,0-4-.06l0-.75q2,0,4,.06Zm14-.16,0-.75,4-.14,0,.75Zm-23,0c-1.35-.06-2.69-.12-4-.2l0-.74,4,.19Zm32-.32,0-.75c1.31-.07,2.64-.14,4-.23l0,.75Zm-41-.21c-1.35-.1-2.68-.22-4-.35l.08-.74c1.3.12,2.62.24,4,.34Zm50-.34-.05-.75,4-.3.06.75Zm-59-.55c-1.35-.16-2.68-.34-4-.53l.11-.74c1.29.19,2.61.36,4,.53Zm67.95-.16-.07-.75,4-.36.07.75Zm9-.84-.07-.75,4-.42.08.75ZM149,278.6c-1.34-.24-2.65-.5-3.94-.76l.15-.74c1.28.27,2.59.52,3.92.76Zm94.78-.64-.08-.75,1-.11,2.94-.37.1.74c-1,.14-2,.26-3,.37Zm8.94-1.21-.12-.74c1.32-.21,2.63-.43,3.95-.67l.13.74C255.34,276.31,254,276.54,252.7,276.75Zm-112.54,0c-1.31-.33-2.61-.68-3.88-1l.21-.72c1.26.36,2.55.71,3.85,1Zm121.42-1.59-.15-.74c1.31-.27,2.61-.55,3.91-.84l.16.73C264.2,274.58,262.89,274.86,261.58,275.13Zm-130.08-.95c-1.29-.44-2.56-.91-3.77-1.38l.27-.7c1.21.47,2.47.93,3.74,1.37Zm138.88-1.05-.18-.72c1.29-.32,2.58-.65,3.86-1l.2.72C273,272.48,271.67,272.81,270.38,273.13Zm-147.27-2.31c-1.23-.57-2.44-1.18-3.59-1.79l.36-.67c1.14.61,2.33,1.21,3.55,1.78Zm156,0-.21-.72,3.82-1.13.22.72Zm8.61-2.63-.23-.72,3.79-1.25.24.71C290.23,267.34,289,267.77,287.69,268.18Zm-172.51-1.69c-1.13-.72-2.25-1.49-3.32-2.27l.45-.61c1,.78,2.16,1.53,3.28,2.25Zm181-1.22-.25-.71c1.26-.45,2.51-.91,3.75-1.37l.27.7C298.74,264.36,297.49,264.81,296.22,265.27Zm8.45-3.17-.28-.7c1.25-.48,2.49-1,3.72-1.48l.28.7C307.16,261.12,305.92,261.61,304.67,262.1Zm-196.72-1c-1-.89-2-1.82-2.93-2.77l.54-.52c.92.94,1.89,1.85,2.88,2.73ZM313,258.71l-.29-.7c1.23-.52,2.46-1,3.67-1.57l.3.68C315.48,257.66,314.25,258.18,313,258.71Zm8.26-3.62-.31-.68,3.63-1.67.32.68Zm-219.59-.51,0,0a23.84,23.84,0,0,1-2.29-3.33l.65-.37a23.76,23.76,0,0,0,2.23,3.24Zm227.76-3.31-.33-.67c1.21-.59,2.41-1.17,3.59-1.76l.34.68Zm8.07-4-.34-.67c1.21-.61,2.39-1.23,3.56-1.84l.34.67C339.92,246,338.73,246.65,337.52,247.27Zm-240-.79a16.36,16.36,0,0,1-.44-3.75v-.31l.75,0v.29a15.43,15.43,0,0,0,.42,3.58Zm248-3.4-.36-.66c1.2-.64,2.37-1.28,3.52-1.91l.36.65C347.88,241.8,346.71,242.44,345.51,243.08Zm7.89-4.36-.37-.65,3.47-2,.38.64C355.76,237.38,354.6,238,353.4,238.72ZM98.61,237.64l-.71-.23a22.32,22.32,0,0,1,1.57-3.73l.66.34A23.1,23.1,0,0,0,98.61,237.64Zm262.59-3.46-.38-.64q1.79-1.06,3.42-2.07l.39.64C363.54,232.78,362.4,233.47,361.2,234.18Zm-258.4-4.31-.6-.45c.77-1,1.65-2.06,2.6-3.09l.55.51C104.42,227.85,103.56,228.87,102.8,229.87Zm266.1-.4-.4-.63c1.22-.77,2.35-1.49,3.38-2.16l.4.63C371.25,228,370.12,228.7,368.9,229.47Zm7.58-4.91-.42-.63c2.16-1.44,3.31-2.26,3.31-2.26l.44.61S378.65,223.1,376.48,224.56Zm-267.59-1.2-.5-.56c1-.87,2-1.74,3.07-2.6l.47.59C110.86,221.64,109.84,222.5,108.89,223.36Zm7-5.55-.44-.62c1.07-.75,2.19-1.5,3.34-2.24l.41.63C118.09,216.32,117,217.06,115.92,217.81Zm7.56-4.82-.37-.65c1.14-.67,2.32-1.32,3.51-2l.35.66C125.79,211.67,124.62,212.33,123.48,213Zm7.94-4.22-.33-.67c1.21-.59,2.43-1.16,3.64-1.7l.3.69C133.83,207.62,132.62,208.19,131.42,208.77Zm8.21-3.62-.27-.69c1.27-.51,2.51-1,3.68-1.37l.25.71C142.13,204.2,140.9,204.65,139.63,205.15Z" style="fill:#263238"></path><polygon points="385.79 203.44 379.59 221.97 393.32 210.65 446.43 189.78 385.79 203.44" style="fill:#FA595F"></polygon><polygon points="385.79 203.44 379.59 221.97 393.32 210.65 446.43 189.78 385.79 203.44" style="opacity:0.1"></polygon><polygon points="395.24 214.87 379.59 221.97 393.32 210.65 395.24 214.87" style="fill:#263238"></polygon><polygon points="393.32 210.65 446.43 189.78 403.59 233.86 393.32 210.65" style="fill:#FA595F"></polygon><polygon points="385.79 203.44 363.12 189.65 446.43 189.78 385.79 203.44" style="fill:#FA595F"></polygon></g><g id="freepik--Window--inject-7"><rect x="142.18" y="156.93" width="215.64" height="178.3" style="fill:#fff"></rect><path d="M357.82,335.23l-215.64.15H142v-.15l-.1-178.3v-.25h.25l215.64.17h.08v.07Zm0,0-.08-178.3.08.08-215.64.17.25-.25-.1,178.3-.15-.15Z" style="fill:#263238"></path><path d="M151.58,162a2.52,2.52,0,1,1-2.52-2.52A2.52,2.52,0,0,1,151.58,162Z" style="fill:#fff"></path><path d="M151.58,162a2.65,2.65,0,0,1-2.52,2.64,2.68,2.68,0,0,1-1.93-.71,2.65,2.65,0,0,1,0-3.87,2.64,2.64,0,0,1,4.45,1.94Zm0,0a2.5,2.5,0,0,0-.76-1.76,2.4,2.4,0,1,0,0,3.51A2.49,2.49,0,0,0,151.58,162Z" style="fill:#263238"></path><path d="M161.87,162a2.52,2.52,0,1,1-2.52-2.52A2.52,2.52,0,0,1,161.87,162Z" style="fill:#fff"></path><path d="M161.87,162a2.65,2.65,0,0,1-2.52,2.64,2.68,2.68,0,0,1-1.93-.71,2.65,2.65,0,0,1,0-3.87,2.64,2.64,0,0,1,4.45,1.94Zm0,0a2.5,2.5,0,0,0-.76-1.76,2.4,2.4,0,1,0,0,3.51A2.49,2.49,0,0,0,161.87,162Z" style="fill:#263238"></path><path d="M172.17,162a2.52,2.52,0,1,1-2.52-2.52A2.52,2.52,0,0,1,172.17,162Z" style="fill:#fff"></path><path d="M172.17,162a2.65,2.65,0,0,1-2.52,2.64,2.7,2.7,0,0,1-1.94-.71,2.8,2.8,0,0,1-.83-1.93,2.76,2.76,0,0,1,.83-1.94,2.7,2.7,0,0,1,1.94-.71A2.65,2.65,0,0,1,172.17,162Zm0,0a2.51,2.51,0,0,0-.77-1.76,2.4,2.4,0,1,0,0,3.51A2.5,2.5,0,0,0,172.17,162Z" style="fill:#263238"></path><polygon points="142.18 166.95 169.13 166.83 196.09 166.79 250 166.7 303.91 166.79 330.87 166.83 357.82 166.95 330.87 167.08 303.91 167.12 250 167.2 196.09 167.12 169.13 167.07 142.18 166.95" style="fill:#263238"></polygon><polygon points="290.6 282.28 208.98 282.28 208.98 213.24 249.78 187.32 290.6 213.24 290.6 282.28" style="fill:#FA595F"></polygon><polygon points="290.6 282.28 208.98 282.28 208.98 213.24 249.78 187.32 290.6 213.24 290.6 282.28" style="opacity:0.2"></polygon><polygon points="286 277 213.58 277 213.58 184.04 267.35 184.04 286 201.75 286 277" style="fill:#fff"></polygon><path d="M286,277l-72.42.24h-.23V277l-.13-93v-.37h.37l53.77.09h.12l.08.08,18.62,17.74.07.07v.1l-.08,37.69Zm0,0-.24-75.25.07.18-18.67-17.68.19.07-53.77.09L214,184l-.13,93-.24-.24Z" style="fill:#263238"></path><polygon points="267.35 184.04 286 201.75 267.35 201.75 267.35 184.04" style="fill:#dbdbdb"></polygon><rect x="220.65" y="199.64" width="40.26" height="2.39" transform="translate(481.56 401.66) rotate(180)" style="fill:#dbdbdb"></rect><rect x="220.65" y="205.66" width="40.26" height="2.39" transform="translate(481.56 413.71) rotate(180)" style="fill:#dbdbdb"></rect><rect x="220.65" y="211.69" width="40.26" height="2.39" transform="translate(481.56 425.76) rotate(180)" style="fill:#dbdbdb"></rect><rect x="220.65" y="217.71" width="58.99" height="2.39" transform="translate(500.29 437.81) rotate(180)" style="fill:#dbdbdb"></rect><rect x="220.65" y="223.74" width="58.99" height="2.39" transform="translate(500.29 449.86) rotate(180)" style="fill:#dbdbdb"></rect><rect x="220.65" y="229.76" width="58.99" height="2.39" transform="translate(500.29 461.91) rotate(180)" style="fill:#dbdbdb"></rect><rect x="220.65" y="235.79" width="58.99" height="2.39" transform="translate(500.29 473.96) rotate(180)" style="fill:#dbdbdb"></rect><rect x="220.65" y="241.81" width="58.99" height="2.39" transform="translate(500.29 486.01) rotate(180)" style="fill:#dbdbdb"></rect><rect x="220.65" y="247.84" width="58.99" height="2.39" transform="translate(500.29 498.06) rotate(180)" style="fill:#dbdbdb"></rect><rect x="220.65" y="253.86" width="58.99" height="2.39" transform="translate(500.29 510.11) rotate(180)" style="fill:#dbdbdb"></rect><rect x="220.65" y="259.89" width="58.99" height="2.39" transform="translate(500.29 522.17) rotate(180)" style="fill:#dbdbdb"></rect><rect x="220.65" y="265.91" width="58.99" height="2.39" transform="translate(500.29 534.22) rotate(180)" style="fill:#dbdbdb"></rect><path d="M290.6,230.52v51.76H209V230.52c3.51,2,7,4.07,10.42,6.1s6.91,4.15,10.34,6.26q5.74,3.5,11.46,7.08l.13-.07s-.06.06-.1.08l8.57,5.36c2.84-1.79,5.7-3.59,8.55-5.36a.87.87,0,0,0-.1-.08l.13.06q5.72-3.57,11.46-7.09c3.43-2.09,6.87-4.18,10.33-6.24S287.1,232.51,290.6,230.52Z" style="fill:#FA595F"></path><g style="opacity:0.2"><path d="M290.6,230.52c-3.29,2.32-6.65,4.54-10,6.82s-6.7,4.46-10.07,6.66q-5.28,3.47-10.58,6.86l-.32.22-9.4,6-.47.28-.45-.28-9.39-6-.33-.2c-3.54-2.27-7.07-4.55-10.59-6.87-3.36-2.19-6.72-4.42-10.06-6.65s-6.68-4.5-10-6.82c3.51,2,7,4.07,10.42,6.1s6.91,4.15,10.34,6.26q5.74,3.5,11.46,7.08h0l8.57,5.36c2.84-1.79,5.7-3.59,8.55-5.36l0,0q5.72-3.57,11.46-7.09c3.43-2.09,6.87-4.18,10.33-6.24S287.1,232.51,290.6,230.52Z"></path><path d="M241.33,249.89s-.06.06-.1.08c-.43.37-.86.74-1.29,1.09-2,1.73-4.14,3.39-6.27,5-2.6,2-5.26,3.89-7.93,5.78s-5.39,3.69-8.14,5.45-5.54,3.49-8.42,5.08c2.47-2.17,5-4.2,7.64-6.17s5.28-3.89,7.94-5.77,5.39-3.7,8.15-5.47c2.19-1.41,4.42-2.79,6.7-4.09.53-.31,1.06-.6,1.59-.9Z"></path><path d="M290.41,272.36c-2.88-1.59-5.68-3.31-8.42-5.08s-5.46-3.6-8.16-5.45-5.33-3.79-7.93-5.78c-2.12-1.6-4.21-3.25-6.25-5l-1.3-1.11a.87.87,0,0,0-.1-.08l.13.06,1.59.91c2.28,1.3,4.5,2.68,6.71,4.09,2.75,1.77,5.45,3.6,8.13,5.47s5.34,3.78,7.94,5.77S287.93,270.19,290.41,272.36Z"></path></g><rect x="215.37" y="304.49" width="69.26" height="14.68" style="fill:#FA595F"></rect><path d="M231.86,310.31a1.23,1.23,0,0,0-.23-.18,2.29,2.29,0,0,0-.35-.19,3,3,0,0,0-.45-.15,2.73,2.73,0,0,0-.5-.05,1.37,1.37,0,0,0-.84.21.67.67,0,0,0-.27.57.6.6,0,0,0,.35.57,1.82,1.82,0,0,0,.44.18c.17.05.38.11.61.16a6,6,0,0,1,.78.24,2,2,0,0,1,.59.31,1.15,1.15,0,0,1,.37.45,1.45,1.45,0,0,1,.14.65,1.6,1.6,0,0,1-.17.75,1.44,1.44,0,0,1-.45.5,1.89,1.89,0,0,1-.66.29,3.44,3.44,0,0,1-.8.09,4.09,4.09,0,0,1-1.26-.19,3.66,3.66,0,0,1-1.09-.57l.41-.77a1.65,1.65,0,0,0,.3.23,2.8,2.8,0,0,0,.46.24,4.09,4.09,0,0,0,.56.18,2.59,2.59,0,0,0,.63.08,1.55,1.55,0,0,0,.82-.19.6.6,0,0,0,.29-.54.57.57,0,0,0-.11-.36.88.88,0,0,0-.31-.25,2.26,2.26,0,0,0-.49-.2l-.65-.18c-.29-.08-.53-.16-.74-.24a1.67,1.67,0,0,1-.53-.3,1.12,1.12,0,0,1-.31-.41,1.26,1.26,0,0,1-.11-.57,1.58,1.58,0,0,1,.16-.74,1.55,1.55,0,0,1,.43-.55,2,2,0,0,1,.66-.33,3,3,0,0,1,.81-.11,3.08,3.08,0,0,1,1.07.18,3.81,3.81,0,0,1,.85.46Z" style="fill:#fff"></path><path d="M235.76,313.89a1.37,1.37,0,0,0,.74-.18,1.32,1.32,0,0,0,.48-.46,1.83,1.83,0,0,0,.26-.64,3.81,3.81,0,0,0,.07-.75V309h.91v2.88a4.36,4.36,0,0,1-.14,1.1,2.5,2.5,0,0,1-.43.9,1.94,1.94,0,0,1-.77.61,2.54,2.54,0,0,1-1.12.23,2.51,2.51,0,0,1-1.15-.24,2.11,2.11,0,0,1-.75-.63,2.53,2.53,0,0,1-.42-.91,4.11,4.11,0,0,1-.13-1.06V309h.9v2.88a3.67,3.67,0,0,0,.07.75,1.89,1.89,0,0,0,.26.65,1.41,1.41,0,0,0,.48.46A1.53,1.53,0,0,0,235.76,313.89Z" style="fill:#fff"></path><path d="M243.87,313.19a1.38,1.38,0,0,1-.14.62,1.5,1.5,0,0,1-.37.46,1.75,1.75,0,0,1-.56.29,2.48,2.48,0,0,1-.68.1h-2.71V309h2.93a1.07,1.07,0,0,1,.53.13,1.2,1.2,0,0,1,.41.33,1.48,1.48,0,0,1,.26.46,1.64,1.64,0,0,1,.09.53,1.58,1.58,0,0,1-.21.78,1.31,1.31,0,0,1-.6.54,1.44,1.44,0,0,1,.77.52A1.48,1.48,0,0,1,243.87,313.19Zm-3.57-3.44v1.68H242a.64.64,0,0,0,.31-.07.85.85,0,0,0,.25-.17.78.78,0,0,0,.17-.26.9.9,0,0,0,.06-.34.88.88,0,0,0-.21-.6.68.68,0,0,0-.53-.24ZM243,313a1,1,0,0,0-.06-.34.85.85,0,0,0-.16-.28.75.75,0,0,0-.24-.19.67.67,0,0,0-.31-.07H240.3v1.73h1.82a.72.72,0,0,0,.33-.07.68.68,0,0,0,.26-.18.8.8,0,0,0,.18-.27A1,1,0,0,0,243,313Z" style="fill:#fff"></path><path d="M248.17,310.31a1.68,1.68,0,0,0-.23-.18,2.42,2.42,0,0,0-.36-.19,3,3,0,0,0-.45-.15,2.73,2.73,0,0,0-.5-.05,1.31,1.31,0,0,0-.83.21.67.67,0,0,0-.27.57.68.68,0,0,0,.08.34.66.66,0,0,0,.26.23,2,2,0,0,0,.44.18c.18.05.38.11.62.16a6,6,0,0,1,.78.24,2.19,2.19,0,0,1,.59.31,1.24,1.24,0,0,1,.37.45,1.45,1.45,0,0,1,.13.65,1.73,1.73,0,0,1-.16.75,1.44,1.44,0,0,1-.45.5,2,2,0,0,1-.66.29,3.47,3.47,0,0,1-.81.09,4,4,0,0,1-1.25-.19,3.43,3.43,0,0,1-1.09-.57l.4-.77a1.65,1.65,0,0,0,.3.23,3.28,3.28,0,0,0,.46.24,4.09,4.09,0,0,0,.56.18,2.74,2.74,0,0,0,.64.08,1.51,1.51,0,0,0,.81-.19.6.6,0,0,0,.29-.54.57.57,0,0,0-.11-.36.79.79,0,0,0-.31-.25,2.17,2.17,0,0,0-.48-.2l-.66-.18c-.28-.08-.53-.16-.74-.24a1.62,1.62,0,0,1-.52-.3,1.14,1.14,0,0,1-.32-.41,1.41,1.41,0,0,1-.11-.57,1.72,1.72,0,0,1,.16-.74,1.58,1.58,0,0,1,.44-.55,1.9,1.9,0,0,1,.65-.33,3,3,0,0,1,.82-.11,3.06,3.06,0,0,1,1.06.18,3.89,3.89,0,0,1,.86.46Z" style="fill:#fff"></path><path d="M249.34,311.78a3,3,0,0,1,.18-1,2.71,2.71,0,0,1,.54-.91,2.86,2.86,0,0,1,.87-.66,2.7,2.7,0,0,1,1.16-.24,2.48,2.48,0,0,1,1.33.34,2.31,2.31,0,0,1,.83.9l-.71.47a1.52,1.52,0,0,0-.28-.43,1.57,1.57,0,0,0-.37-.28,1.62,1.62,0,0,0-.42-.15,2,2,0,0,0-.41-.05,1.67,1.67,0,0,0-.79.18,1.73,1.73,0,0,0-.56.48,2.32,2.32,0,0,0-.35.66,2.76,2.76,0,0,0-.11.74,2.3,2.3,0,0,0,.13.79,2.33,2.33,0,0,0,.38.67,2.14,2.14,0,0,0,.58.46,1.68,1.68,0,0,0,.74.17,2.18,2.18,0,0,0,.43,0,1.68,1.68,0,0,0,.42-.17,2.12,2.12,0,0,0,.38-.29,1.45,1.45,0,0,0,.28-.43l.75.43a1.67,1.67,0,0,1-.39.56,2.31,2.31,0,0,1-.56.41,3.12,3.12,0,0,1-.66.26,2.71,2.71,0,0,1-.68.09,2.38,2.38,0,0,1-1.1-.26,2.77,2.77,0,0,1-.85-.67,2.92,2.92,0,0,1-.56-.93A2.86,2.86,0,0,1,249.34,311.78Z" style="fill:#fff"></path><path d="M255.17,314.66V309h2.47a1.54,1.54,0,0,1,.71.16,1.75,1.75,0,0,1,.55.42,1.9,1.9,0,0,1,.37.59,1.79,1.79,0,0,1,.13.68,2,2,0,0,1-.08.55,2.16,2.16,0,0,1-.22.49,1.63,1.63,0,0,1-.36.38,1.43,1.43,0,0,1-.45.25l1.33,2.16h-1l-1.23-2h-1.32v2Zm.89-2.77h1.57a.78.78,0,0,0,.35-.08,1,1,0,0,0,.27-.24,1.08,1.08,0,0,0,.17-.34,1.05,1.05,0,0,0,.07-.4,1.11,1.11,0,0,0-.08-.41,1.27,1.27,0,0,0-.2-.34,1.09,1.09,0,0,0-.29-.23.81.81,0,0,0-.34-.08h-1.52Z" style="fill:#fff"></path><path d="M260.46,314.66V309h.89v5.68Z" style="fill:#fff"></path><path d="M267.1,313.19a1.38,1.38,0,0,1-.14.62,1.53,1.53,0,0,1-.38.46,1.65,1.65,0,0,1-.56.29,2.48,2.48,0,0,1-.68.1h-2.71V309h2.93a1.08,1.08,0,0,1,.54.13,1.16,1.16,0,0,1,.4.33,1.31,1.31,0,0,1,.26.46,1.66,1.66,0,0,1,.1.53,1.59,1.59,0,0,1-.22.78,1.31,1.31,0,0,1-.6.54,1.44,1.44,0,0,1,.77.52A1.49,1.49,0,0,1,267.1,313.19Zm-3.57-3.44v1.68h1.65a.6.6,0,0,0,.3-.07.74.74,0,0,0,.25-.17.78.78,0,0,0,.17-.26.9.9,0,0,0,.06-.34.88.88,0,0,0-.21-.6.66.66,0,0,0-.53-.24Zm2.65,3.28a1,1,0,0,0-.06-.34,1.08,1.08,0,0,0-.16-.28.79.79,0,0,0-.25-.19.64.64,0,0,0-.31-.07h-1.87v1.73h1.81a.72.72,0,0,0,.33-.07.8.8,0,0,0,.27-.18,1,1,0,0,0,.17-.27A1,1,0,0,0,266.18,313Z" style="fill:#fff"></path><path d="M271.93,313.87v.79H268V309h3.83v.79h-2.93v1.62h2.53v.74h-2.53v1.74Z" style="fill:#fff"></path><polygon points="193.07 290.73 207.3 290.61 221.53 290.57 250 290.48 278.47 290.57 292.7 290.61 306.93 290.73 292.7 290.86 278.47 290.9 250 290.98 221.53 290.9 207.3 290.85 193.07 290.73" style="fill:#263238"></polygon><path d="M212.86,295.12q9.28-.14,18.57-.19l18.57-.06,18.57.06q9.29,0,18.57.19-9.28.13-18.57.19l-18.57.06-18.57-.06Q222.15,295.27,212.86,295.12Z" style="fill:#263238"></path></g></svg>