<svg xmlns="http://www.w3.org/2000/svg" viewBox="0 0 707.8 900"><defs><style>      .cls-1 {        fill: #acc70c;      }      .cls-2 {        fill: #1d1d1b;      }      .cls-3 {        fill: #fff;      }      .cls-4 {        fill: #0198a3;      }      .cls-5 {        fill: #006aa2;      }      .cls-6 {        display: none;      }      .cls-7 {        fill: #7f539a;      }    </style></defs><g><g id="Calque_1"><g class="cls-6"><g><path class="cls-4" d="M261.5,523h-41c-5.8,0-11.1,3.6-13.1,9.1l-8.5,22.5h-27.9l53-135.4h12c8.4,0,14.1,3.9,17,11.6l48.2,123.8h-27.9l-11.8-31.5ZM218,500.5h36.4l-18-48.7h-.2l-18.2,48.7Z"></path><path class="cls-4" d="M314,419.1h71.4c7.9,0,14.8,1.5,20.9,4.5,6.1,3,10.8,7.4,14.1,13,3.4,5.6,5,12,5,19.2v18c0,7.5-1.7,14.1-5.2,19.8-3.5,5.7-8.4,10.2-14.6,13.3-6.3,3.2-13.5,4.7-21.8,4.7h-29.1c-7.8,0-14,6.3-14,14v28.7h-26.7v-135.4ZM383.4,488.5c4.5,0,8.2-1.4,11-4.4,2.8-2.9,4.3-6.7,4.3-11.5v-15.7c0-4.5-1.3-8.1-3.8-10.7-2.5-2.6-5.8-4-10-4h-44.3v46.2h42.7Z"></path><path class="cls-4" d="M445.3,549.5c-3.5-3.4-5.2-7.7-5.2-13.2v-117.2h103.3v23.2h-76.6v31.3h70.8v23.2h-70.8v34.4h76.6v23.2h-84.5c-5.5,0-10.1-1.7-13.5-5Z"></path><path class="cls-4" d="M568.9,544.2c-8-7.9-12-19-12-33.2h26.3c0,6.7,1.7,12,5.1,15.8,3.4,3.8,8.2,5.7,14.2,5.7h21.5c5.7,0,10.3-1.2,13.8-3.6,3.5-2.4,5.3-5.6,5.3-9.6v-6.6c0-6.3-4.6-10.3-13.9-11.8l-35.6-6c-11.6-1.9-20.4-5.6-26.4-11.1-6-5.5-9-12.5-9-21v-10.8c0-6.8,1.8-12.9,5.5-18.1,3.7-5.2,8.9-9.3,15.7-12.1,6.8-2.8,14.6-4.3,23.5-4.3h21.9c8.4,0,15.8,1.7,22.2,5.2,6.4,3.5,11.4,8.4,15,14.6,3.5,6.3,5.3,13.5,5.3,21.8h-26.3c0-5.4-1.5-9.8-4.4-13.1-3-3.3-6.9-4.9-11.8-4.9h-21.9c-5.4,0-9.8,1.2-13.1,3.5-3.3,2.3-4.9,5.4-4.9,9.3v5.2c0,6.4,4.4,10.4,13.3,12l35.4,6.2c11.7,2.1,20.7,5.7,26.9,10.9,6.2,5.2,9.3,12,9.3,20.2v12.8c0,6.8-1.9,12.9-5.7,18.2-3.8,5.3-9.1,9.4-16,12.3-6.8,2.9-14.8,4.4-23.8,4.4h-22.2c-14.2,0-25.3-4-33.3-11.9Z"></path><path class="cls-4" d="M764.3,523h-41c-5.8,0-11.1,3.6-13.1,9.1l-8.5,22.5h-27.9l53-135.4h12c8.4,0,14.1,3.9,17,11.6l48.2,123.8h-27.9l-11.8-31.5ZM720.7,500.5h36.4l-18-48.7h-.2l-18.2,48.7Z"></path></g><g><path class="cls-3" d="M-61.3,450.1c0-42.7,34.7-77.4,77.4-77.4s77.4,34.7,77.4,77.4-34.6,77.4-77.4,77.4-77.4-34.7-77.4-77.4"></path><path class="cls-1" d="M93.7,449.9c0,42.9-34.7,77.6-77.6,77.6v26.3h97.7l.2-103.8h-20.3Z"></path><path class="cls-4" d="M114.1,449.8h0s-20.4,0-20.4,0c0-1.1,0-2.1,0-3.2-.7-18-7.6-34.5-18.6-47.3-14.2-16.6-35.3-27.1-58.9-27.1-42.9,0-77.6,34.8-77.6,77.6s0,3.6.2,5.4c.8,8,2.4,14.5,3.6,18.7.5,1.5,1.1,3.1,1.6,4.6,1.4-3.3,24.8-56.2,45-73.8,20.9-18.2,23.5-19.5,23.5-19.5l6.7-2v12.1c0,3.1,7.4,12.8,9,15.7l5.1-10.3s9.4,12.1,9.4,15.5,1.3,2.7,2.7,6.1c1.3,3.4,6.1,4.7,9.4,11.4,3.4,6.7,6.1,11.4,6.7,17.5.7,6.1-.7,6.1,6.7,12.8,7.4,6.7,11.4,7.4,14.8,9.4.2.1,1,1.3,1.5,1.4v.3h20.4v68.3H2s-44.4-.4-71.7-42.6c-27.3-42.2-13.1-92,8.2-114.3,21.3-22.4,67.1-55.4,134.6-16.7,0,0,18.5,13.1,25.6,24.9,0,0-19.5-35.5-60.7-46.5-41.2-11-72.4,2.8-96.2,21.3-23.8,18.5-44,62.1-35.9,99.4,8.2,37.3,34.1,65,58.6,76,24.5,11,42.6,9.9,42.6,9.9h107.2v-104.7h0Z"></path><path class="cls-7" d="M-20.5,504.1s17.9-18.6,45.5-16.2c27.6,2.4,46.2,15,62.6,13.8,16.4-1.2,33.6-11.4,33.6-11.4,0,0-13.4,18.6-43.2,18-29.8-.6-55.2-24.6-98.4-4.2"></path><path class="cls-5" d="M39.8,480.3s14-18.6,35.7-16.2c21.6,2.4,36.3,15,49.2,13.8s26.3-11.4,26.3-11.4c0,0-10.5,18.6-33.9,18-23.4-.6-43.3-24.6-77.2-4.2"></path></g></g><g class="cls-6"><g><path class="cls-2" d="M78,508.3c-3.3,0-6.6-.4-9.8-1-13.8,12.5-32,20.1-52.1,20.1v15.7H2s-44.4-.4-71.7-42.6c-27.3-42.3-13.1-92,8.2-114.3,21.3-22.4,67.1-55.4,134.6-16.7,0,0,18.5,13.1,25.6,24.9,0,0-19.5-35.5-60.7-46.5-41.2-11-72.4,2.8-96.2,21.3-23.8,18.5-44,62.1-35.9,99.4,8.2,37.3,34.1,65,58.6,76,24.5,11,42.6,9.9,42.6,9.9h107.2v-57.4c-6.8,5.2-18.7,11.5-36.2,11.2"></path><path class="cls-2" d="M75.5,464.1c16,1.8,28.2,9.1,38.7,12.3v-26.7h0s-20.4,0-20.4,0c0-1.1,0-2.1,0-3.2-.7-18-7.6-34.5-18.6-47.3-14.2-16.6-35.3-27.1-58.9-27.1-42.9,0-77.6,34.8-77.6,77.6s0,3.6.2,5.4c.8,8,2.4,14.5,3.6,18.6.5,1.5,1.1,3.1,1.6,4.6,1.4-3.3,24.8-56.2,45-73.8,20.9-18.2,23.5-19.5,23.5-19.5l6.7-2v12.1c0,3.2,7.4,12.8,9,15.7l5.1-10.3s9.4,12.1,9.4,15.5,1.3,2.7,2.7,6.1c1.3,3.4,6.1,4.7,9.4,11.4,3.4,6.7,6.1,11.4,6.7,17.5.7,6.1-.7,6.1,6.7,12.8.1.1.2.2.4.3,2.2-.2,4.5-.2,6.8,0"></path><path class="cls-2" d="M88.9,476.7c-3.2,8.8-8,16.8-14,23.7,4.5,1,8.7,1.6,12.7,1.3,9.9-.7,20-4.7,26.5-7.7v-9.6c-8.5-.9-16.7-4.6-25.3-7.6"></path><path class="cls-2" d="M121.2,490.3s-2.7,1.6-7,3.6v3.2c4.8-3.7,7-6.8,7-6.8"></path><path class="cls-2" d="M74.9,500.4c-13.5-3.1-29.2-10.7-49.9-12.5-27.6-2.4-45.5,16.2-45.5,16.2,38.4-18.1,62.8-1.2,88.6,3.2,2.4-2.2,4.6-4.5,6.7-6.9"></path><path class="cls-2" d="M117,484.5c23.4.6,33.9-18,33.9-18,0,0-13.5,10.2-26.3,11.4-3.3.3-6.8-.3-10.5-1.4v7.8c1,0,1.9.2,2.9.2"></path><path class="cls-2" d="M84.6,474.9v-.3c-.5-.1-1.3-1.3-1.5-1.4-3.3-2-7.3-2.7-14.4-9.1-17.7,1.5-28.9,16.3-28.9,16.3,20.1-12,35.2-8.6,49.1-3.6.2-.6.5-1.2.7-1.8h-4.9Z"></path></g><g><path d="M261.5,523h-41c-5.8,0-11.1,3.6-13.1,9.1l-8.5,22.5h-27.9l53-135.4h12c8.4,0,14.1,3.9,17,11.6l48.2,123.8h-27.9l-11.8-31.5ZM218,500.5h36.4l-18-48.7h-.2l-18.2,48.7Z"></path><path d="M314,419.1h71.4c7.9,0,14.8,1.5,20.9,4.5,6.1,3,10.8,7.4,14.1,13,3.4,5.6,5,12,5,19.2v18c0,7.5-1.7,14.1-5.2,19.8-3.5,5.7-8.4,10.2-14.6,13.3-6.3,3.2-13.5,4.7-21.8,4.7h-29.1c-7.8,0-14,6.3-14,14v28.7h-26.7v-135.4ZM383.4,488.5c4.5,0,8.2-1.4,11-4.4,2.8-2.9,4.3-6.7,4.3-11.5v-15.7c0-4.5-1.3-8.1-3.8-10.7-2.5-2.6-5.8-4-10-4h-44.3v46.2h42.7Z"></path><path d="M445.3,549.5c-3.5-3.4-5.2-7.7-5.2-13.2v-117.2h103.3v23.2h-76.6v31.3h70.8v23.2h-70.8v34.4h76.6v23.2h-84.5c-5.5,0-10.1-1.7-13.5-5Z"></path><path d="M568.9,544.2c-8-7.9-12-19-12-33.2h26.3c0,6.7,1.7,12,5.1,15.8,3.4,3.8,8.2,5.7,14.2,5.7h21.5c5.7,0,10.3-1.2,13.8-3.6,3.5-2.4,5.3-5.6,5.3-9.6v-6.6c0-6.3-4.6-10.3-13.9-11.8l-35.6-6c-11.6-1.9-20.4-5.6-26.4-11.1-6-5.5-9-12.5-9-21v-10.8c0-6.8,1.8-12.9,5.5-18.1,3.7-5.2,8.9-9.3,15.7-12.1,6.8-2.8,14.6-4.3,23.5-4.3h21.9c8.4,0,15.8,1.7,22.2,5.2,6.4,3.5,11.4,8.4,15,14.6,3.5,6.3,5.3,13.5,5.3,21.8h-26.3c0-5.4-1.5-9.8-4.4-13.1-3-3.3-6.9-4.9-11.8-4.9h-21.9c-5.4,0-9.8,1.2-13.1,3.5-3.3,2.3-4.9,5.4-4.9,9.3v5.2c0,6.4,4.4,10.4,13.3,12l35.4,6.2c11.7,2.1,20.7,5.7,26.9,10.9,6.2,5.2,9.3,12,9.3,20.2v12.8c0,6.8-1.9,12.9-5.7,18.2-3.8,5.3-9.1,9.4-16,12.3-6.8,2.9-14.8,4.4-23.8,4.4h-22.2c-14.2,0-25.3-4-33.3-11.9Z"></path><path d="M764.3,523h-41c-5.8,0-11.1,3.6-13.1,9.1l-8.5,22.5h-27.9l53-135.4h12c8.4,0,14.1,3.9,17,11.6l48.2,123.8h-27.9l-11.8-31.5ZM720.7,500.5h36.4l-18-48.7h-.2l-18.2,48.7Z"></path></g></g><g class="cls-6"><g><path class="cls-3" d="M-46.1,451.1c0-61.5,49.8-111.3,111.3-111.3s111.3,49.8,111.3,111.3-49.8,111.3-111.3,111.3-111.3-49.8-111.3-111.3"></path><path class="cls-1" d="M176.7,450.7c0,61.6-49.9,111.6-111.6,111.6v37.8h140.5l.2-149.2h-29.1Z"></path><path class="cls-4" d="M206.2,450.7h0s-29.3,0-29.3,0c0-1.6,0-3.1-.1-4.6-1.1-25.9-11-49.6-26.8-68-20.5-23.8-50.8-39-84.7-39-61.6,0-111.6,50-111.6,111.6s.1,5.2.3,7.7c1.1,11.5,3.4,20.9,5.2,26.8.7,2.2,1.5,4.4,2.4,6.6,2-4.7,35.6-80.9,64.7-106.2,30-26.1,33.8-28,33.8-28l9.7-2.9v17.4c0,4.5,10.6,18.4,12.9,22.5l7.4-14.8s13.5,17.4,13.5,22.2,1.9,3.9,3.9,8.7c1.9,4.8,8.7,6.8,13.5,16.4,4.8,9.7,8.7,16.4,9.7,25.2,1,8.7-1,8.7,9.7,18.4,10.6,9.7,16.4,10.6,21.3,13.5.3.2,1.4,1.9,2.1,2v.4h29.3v98.2H44.9s-63.8-.5-103.1-61.3c-39.3-60.7-18.9-132.2,11.7-164.4,30.6-32.2,96.5-79.6,193.5-24,0,0,26.5,18.9,36.8,35.7,0,0-28.1-51-87.3-66.9-59.2-15.8-104.1,4.1-138.3,30.6-34.2,26.5-63.3,89.3-51.6,142.9,11.7,53.6,49,93.4,84.2,109.2,35.2,15.8,61.3,14.3,61.3,14.3h154.2v-150.5h0Z"></path><path class="cls-7" d="M12.6,528.7s25.7-26.7,65.4-23.3c39.7,3.5,66.5,21.5,90.1,19.8,23.6-1.7,48.2-16.4,48.2-16.4,0,0-19.3,26.7-62.2,25.8-42.9-.9-79.3-35.3-141.5-6"></path><path class="cls-5" d="M99.3,494.5s20.2-26.7,51.3-23.3c31.1,3.4,52.2,21.5,70.7,19.8,18.5-1.7,37.9-16.4,37.9-16.4,0,0-15.1,26.7-48.8,25.9-33.7-.9-62.3-35.3-111.1-6"></path></g><g><path class="cls-4" d="M352.8,447.3h-34.1c-4.9,0-9.2,3-10.9,7.5l-7.1,18.7h-23.2l44.1-112.6h10c7,0,11.7,3.2,14.2,9.7l40.1,103h-23.2l-9.8-26.2ZM316.6,428.7h30.2l-15-40.5h-.2l-15.1,40.5Z"></path><path class="cls-4" d="M396.4,360.9h59.4c6.5,0,12.3,1.3,17.4,3.8,5,2.5,9,6.1,11.7,10.8,2.8,4.7,4.2,10,4.2,16v15c0,6.2-1.4,11.7-4.3,16.5-2.9,4.8-6.9,8.5-12.1,11.1-5.2,2.6-11.2,3.9-18.1,3.9h-24.2c-6.5,0-11.7,5.2-11.7,11.7v23.9h-22.2v-112.6ZM454.1,418.7c3.8,0,6.8-1.2,9.2-3.6,2.4-2.4,3.5-5.6,3.5-9.6v-13c0-3.8-1-6.7-3.1-8.9-2.1-2.2-4.9-3.3-8.3-3.3h-36.8v38.5h35.6Z"></path><path class="cls-4" d="M505.6,469.4c-2.9-2.8-4.3-6.4-4.3-10.9v-97.5h85.9v19.3h-63.7v26.1h58.9v19.3h-58.9v28.6h63.7v19.3h-70.3c-4.6,0-8.4-1.4-11.3-4.2Z"></path><path class="cls-4" d="M608.4,465c-6.7-6.6-10-15.8-10-27.6h21.9c0,5.6,1.4,10,4.3,13.1,2.8,3.2,6.8,4.7,11.8,4.7h17.9c4.7,0,8.6-1,11.5-3,2.9-2,4.4-4.6,4.4-8v-5.5c0-5.3-3.9-8.5-11.6-9.8l-29.6-5c-9.7-1.6-17-4.7-22-9.3-5-4.6-7.5-10.4-7.5-17.5v-9c0-5.7,1.5-10.7,4.6-15,3.1-4.3,7.4-7.7,13-10.1,5.6-2.4,12.1-3.5,19.5-3.5h18.2c7,0,13.1,1.4,18.5,4.3,5.4,2.9,9.5,6.9,12.5,12.1,2.9,5.2,4.4,11.2,4.4,18.1h-21.9c0-4.5-1.2-8.1-3.7-10.9-2.5-2.7-5.7-4.1-9.8-4.1h-18.2c-4.5,0-8.1,1-10.9,2.9-2.7,1.9-4.1,4.5-4.1,7.7v4.3c0,5.4,3.7,8.7,11.1,10l29.4,5.1c9.8,1.7,17.2,4.7,22.4,9.1,5.1,4.3,7.7,9.9,7.7,16.8v10.6c0,5.7-1.6,10.7-4.7,15.1-3.2,4.4-7.6,7.8-13.3,10.2-5.7,2.4-12.3,3.6-19.8,3.6h-18.5c-11.8,0-21-3.3-27.7-9.9Z"></path><path class="cls-4" d="M770.9,447.3h-34.1c-4.9,0-9.2,3-10.9,7.5l-7.1,18.7h-23.2l44.1-112.6h10c7,0,11.7,3.2,14.2,9.7l40.1,103h-23.2l-9.8-26.2ZM734.7,428.7h30.2l-15-40.5h-.2l-15.1,40.5Z"></path></g><g><path class="cls-4" d="M278.6,510.5h17.2c2.7,0,4.9.7,6.6,2.2,1.7,1.5,2.5,3.5,2.5,5.9v3.4c0,1.7-.5,3.1-1.5,4.4-1,1.3-2.4,2.2-4.2,2.8h0c1,.7,1.8,1.5,2.5,2.4.6.9,1.2,2.2,1.6,3.7l2.7,8.6h-5.8l-2.6-8.3c-.4-1.4-1.1-2.5-1.9-3.3-.9-.8-1.9-1.1-3-1.1h-8.6v12.7h-5.6v-33.4ZM294.6,526.4c1.5,0,2.6-.4,3.5-1.2.9-.8,1.3-1.8,1.3-3.1v-3.3c0-1-.3-1.8-1-2.5-.7-.6-1.6-1-2.7-1h-11.6v11h10.4Z"></path><path class="cls-4" d="M311.7,542.8c-.7-.7-1.1-1.7-1.1-2.9v-29.4h24.5v4.8h-18.9v9.1h17.5v4.9h-17.5v9.8h18.9v4.8h-20.4c-1.2,0-2.2-.4-3-1.1ZM324.8,498.8h6.1l-5.3,8.2h-5.2l4.4-8.2Z"></path><path class="cls-4" d="M348.8,541.1l-11.5-30.7h5.8l9.4,26.4h0l9.4-26.4h5.7l-12.7,33.4h-2.7c-1.6,0-2.8-.9-3.5-2.8Z"></path><path class="cls-4" d="M372.5,542.8c-.7-.7-1.1-1.7-1.1-2.9v-29.4h24.5v4.8h-18.9v9.1h17.5v4.9h-17.5v9.8h18.9v4.8h-20.4c-1.2,0-2.2-.4-3-1.1ZM385.6,498.8h6.1l-5.3,8.2h-5.2l4.4-8.2Z"></path><path class="cls-4" d="M402,542.8c-.7-.7-1.1-1.7-1.1-2.9v-29.4h5.6v28.6h18.1v4.9h-19.6c-1.3,0-2.3-.4-3-1.1Z"></path><path class="cls-4" d="M447.9,535.6h-13.3l-3.1,8.3h-5.8l13-33.4h2.5c1.7,0,2.9.8,3.6,2.5l11.9,30.9h-5.8l-3.1-8.3ZM436.3,531h10.1l-5-13.6h0l-5.1,13.6Z"></path><path class="cls-4" d="M464,515.3h-10.6v-4.8h26.8v4.8h-10.6v28.6h-5.6v-28.6Z"></path><path class="cls-4" d="M485.4,542.8c-.7-.7-1.1-1.7-1.1-2.9v-29.4h24.5v4.8h-18.9v9.1h17.5v4.9h-17.5v9.8h18.9v4.8h-20.4c-1.2,0-2.2-.4-3-1.1Z"></path><path class="cls-4" d="M519,542.8c-1.7-1-3-2.3-4-4.1-.9-1.8-1.4-3.8-1.4-6.1v-22.1h5.6v22c0,2.1.5,3.7,1.6,5,1,1.3,2.4,1.9,4.2,1.9h5.1c1.7,0,3.2-.6,4.2-1.9,1.1-1.3,1.6-2.9,1.6-5v-22h5.6v22.1c0,2.3-.5,4.4-1.4,6.1-1,1.8-2.3,3.1-4,4.1-1.7,1-3.7,1.5-6,1.5h-5.1c-2.2,0-4.2-.5-5.9-1.5Z"></path><path class="cls-4" d="M547.8,510.5h17.2c2.7,0,4.9.7,6.6,2.2,1.7,1.5,2.5,3.5,2.5,5.9v3.4c0,1.7-.5,3.1-1.5,4.4-1,1.3-2.4,2.2-4.2,2.8h0c1,.7,1.8,1.5,2.5,2.4.6.9,1.2,2.2,1.6,3.7l2.7,8.6h-5.8l-2.6-8.3c-.4-1.4-1.1-2.5-1.9-3.3-.9-.8-1.9-1.1-3-1.1h-8.6v12.7h-5.6v-33.4ZM563.8,526.4c1.5,0,2.6-.4,3.5-1.2.9-.8,1.3-1.8,1.3-3.1v-3.3c0-1-.3-1.8-1-2.5-.7-.6-1.6-1-2.7-1h-11.6v11h10.4Z"></path><path class="cls-4" d="M594.2,542.8c-.7-.7-1.1-1.7-1.1-2.9v-29.4h15.2c2.5,0,4.7.5,6.6,1.4,1.9.9,3.4,2.3,4.4,4,1,1.7,1.6,3.7,1.6,6v9.7c0,4-1,7.1-3.1,9.2-2.1,2.1-5.1,3.1-9.2,3.1h-11.3c-1.2,0-2.2-.4-3-1.1ZM608.3,539c2.3,0,4-.6,5.1-1.9,1.2-1.3,1.7-3.2,1.7-5.7v-9.4c0-2-.7-3.6-2-4.8-1.3-1.2-3-1.8-5.1-1.8h-9.5v23.6h9.7Z"></path><path class="cls-4" d="M627.2,542.8c-.7-.7-1.1-1.7-1.1-2.9v-29.4h24.5v4.8h-18.9v9.1h17.5v4.9h-17.5v9.8h18.9v4.8h-20.4c-1.2,0-2.2-.4-3-1.1Z"></path><path class="cls-4" d="M280.3,598.7c-1.9-1.9-2.9-4.5-2.9-7.8h5.5c0,1.8.5,3.2,1.4,4.2.9,1,2.2,1.6,3.9,1.6h5.3c1.6,0,2.8-.3,3.8-1,1-.7,1.4-1.6,1.4-2.7v-2.1c0-.9-.3-1.6-1-2.1-.7-.6-1.6-1-2.9-1.2l-8.7-1.5c-2.7-.4-4.8-1.3-6.2-2.7-1.4-1.3-2.2-3-2.2-5.1v-2.6c0-1.6.4-3.1,1.3-4.3.9-1.2,2.1-2.2,3.7-2.9,1.6-.7,3.4-1,5.5-1h5.4c2,0,3.7.4,5.2,1.2,1.5.8,2.7,2,3.5,3.5s1.2,3.2,1.2,5.2h-5.4c0-1.5-.4-2.6-1.3-3.6-.8-.9-1.9-1.4-3.3-1.4h-5.4c-1.5,0-2.7.3-3.6,1-.9.7-1.4,1.5-1.4,2.7v1.7c0,.9.3,1.6,1,2.2.6.6,1.6,1,2.8,1.2l8.7,1.5c2.7.5,4.8,1.4,6.3,2.6,1.5,1.3,2.2,2.9,2.2,4.9v3.1c0,1.6-.4,3.1-1.3,4.3-.9,1.3-2.1,2.2-3.8,2.9-1.6.7-3.5,1-5.6,1h-5.5c-3.3,0-5.9-1-7.8-2.9Z"></path><path class="cls-4" d="M314.3,600c-1.8-1-3.3-2.5-4.3-4.4-1-1.9-1.5-4.1-1.5-6.6v-9.2c0-2.5.5-4.7,1.5-6.6,1-1.9,2.5-3.4,4.3-4.4,1.8-1,4-1.6,6.4-1.6h5.1c2.4,0,4.6.5,6.4,1.6,1.9,1,3.3,2.5,4.3,4.4,1,1.9,1.5,4.1,1.5,6.6v9.2c0,2.5-.5,4.7-1.5,6.6-1,1.9-2.5,3.4-4.3,4.4-1.9,1-4,1.6-6.4,1.6h-5.1c-2.4,0-4.6-.5-6.4-1.6ZM325.8,596.7c2,0,3.6-.7,4.8-2.1,1.2-1.4,1.9-3.3,1.9-5.6v-8.8c0-2.3-.6-4.2-1.8-5.6-1.2-1.4-2.8-2.1-4.8-2.1h-5c-2,0-3.6.7-4.8,2.1-1.2,1.4-1.8,3.3-1.8,5.6v8.8c0,2.3.6,4.2,1.8,5.6,1.2,1.4,2.8,2.1,4.8,2.1h5Z"></path><path class="cls-4" d="M344.7,600.1c-.7-.7-1.1-1.7-1.1-2.9v-29.4h5.6v28.6h18.1v4.9h-19.6c-1.3,0-2.3-.4-3-1.1Z"></path><path class="cls-4" d="M375.4,600.1c-1.7-1-3-2.3-4-4.1-.9-1.8-1.4-3.8-1.4-6.1v-22.1h5.6v22c0,2.1.5,3.7,1.6,5,1,1.3,2.4,1.9,4.2,1.9h5.1c1.7,0,3.2-.6,4.2-1.9,1.1-1.3,1.6-2.9,1.6-5v-22h5.6v22.1c0,2.3-.5,4.4-1.4,6.1-1,1.8-2.3,3.1-4,4.1-1.7,1-3.7,1.5-6,1.5h-5.1c-2.2,0-4.2-.5-5.9-1.5Z"></path><path class="cls-4" d="M412.3,572.6h-10.6v-4.8h26.8v4.8h-10.6v28.6h-5.6v-28.6Z"></path><path class="cls-4" d="M433.1,567.8h5.6v33.4h-5.6v-33.4Z"></path><path class="cls-4" d="M450.5,600c-1.8-1-3.3-2.5-4.3-4.4-1-1.9-1.5-4.1-1.5-6.6v-9.2c0-2.5.5-4.7,1.5-6.6,1-1.9,2.5-3.4,4.3-4.4,1.8-1,4-1.6,6.4-1.6h5.1c2.4,0,4.6.5,6.4,1.6,1.9,1,3.3,2.5,4.3,4.4,1,1.9,1.5,4.1,1.5,6.6v9.2c0,2.5-.5,4.7-1.5,6.6-1,1.9-2.5,3.4-4.3,4.4-1.9,1-4,1.6-6.4,1.6h-5.1c-2.4,0-4.6-.5-6.4-1.6ZM462,596.7c2,0,3.6-.7,4.8-2.1,1.2-1.4,1.9-3.3,1.9-5.6v-8.8c0-2.3-.6-4.2-1.8-5.6-1.2-1.4-2.8-2.1-4.8-2.1h-5c-2,0-3.6.7-4.8,2.1-1.2,1.4-1.8,3.3-1.8,5.6v8.8c0,2.3.6,4.2,1.8,5.6,1.2,1.4,2.8,2.1,4.8,2.1h5Z"></path><path class="cls-4" d="M479.8,567.8h5l16.9,24.4v-24.4h5.4v33.4h-5.1l-16.9-24.3v24.3h-5.4v-33.4Z"></path><path class="cls-4" d="M515.4,598.7c-1.9-1.9-2.9-4.5-2.9-7.8h5.5c0,1.8.5,3.2,1.4,4.2.9,1,2.2,1.6,3.9,1.6h5.3c1.6,0,2.8-.3,3.8-1,1-.7,1.4-1.6,1.4-2.7v-2.1c0-.9-.3-1.6-1-2.1-.7-.6-1.6-1-2.9-1.2l-8.7-1.5c-2.7-.4-4.8-1.3-6.2-2.7-1.4-1.3-2.2-3-2.2-5.1v-2.6c0-1.6.4-3.1,1.3-4.3.9-1.2,2.1-2.2,3.7-2.9,1.6-.7,3.4-1,5.5-1h5.4c2,0,3.7.4,5.2,1.2,1.5.8,2.7,2,3.5,3.5.8,1.5,1.2,3.2,1.2,5.2h-5.4c0-1.5-.4-2.6-1.3-3.6-.8-.9-1.9-1.4-3.3-1.4h-5.4c-1.5,0-2.7.3-3.6,1-.9.7-1.4,1.5-1.4,2.7v1.7c0,.9.3,1.6,1,2.2.6.6,1.6,1,2.8,1.2l8.7,1.5c2.7.5,4.8,1.4,6.3,2.6,1.5,1.3,2.2,2.9,2.2,4.9v3.1c0,1.6-.4,3.1-1.3,4.3-.9,1.3-2.1,2.2-3.8,2.9-1.6.7-3.5,1-5.6,1h-5.5c-3.3,0-5.9-1-7.8-2.9Z"></path><path class="cls-4" d="M558.9,600.1c-.7-.7-1.1-1.7-1.1-2.9v-29.4h15.2c2.5,0,4.7.5,6.6,1.4,1.9.9,3.4,2.3,4.4,4,1,1.7,1.6,3.7,1.6,6v9.7c0,4-1,7.1-3.1,9.2-2.1,2.1-5.1,3.1-9.2,3.1h-11.3c-1.2,0-2.2-.4-3-1.1ZM573.1,596.3c2.3,0,4-.6,5.1-1.9,1.2-1.3,1.7-3.2,1.7-5.7v-9.4c0-2-.7-3.6-2-4.8-1.3-1.2-3-1.8-5.1-1.8h-9.5v23.6h9.7Z"></path><path class="cls-4" d="M596.1,600.1c-1.7-1-3-2.3-4-4.1-.9-1.8-1.4-3.8-1.4-6.1v-22.1h5.6v22c0,2.1.5,3.7,1.6,5,1,1.3,2.4,1.9,4.2,1.9h5.1c1.7,0,3.2-.6,4.2-1.9,1.1-1.3,1.6-2.9,1.6-5v-22h5.6v22.1c0,2.3-.5,4.4-1.4,6.1-1,1.8-2.3,3.1-4,4.1-1.7,1-3.7,1.5-6,1.5h-5.1c-2.2,0-4.2-.5-5.9-1.5Z"></path><path class="cls-4" d="M624.8,567.8h17.2c2.7,0,4.9.7,6.6,2.2,1.7,1.5,2.5,3.5,2.5,5.9v3.4c0,1.7-.5,3.1-1.5,4.4-1,1.3-2.4,2.2-4.2,2.8h0c1,.7,1.8,1.5,2.5,2.4.6.9,1.2,2.2,1.6,3.7l2.7,8.6h-5.8l-2.6-8.3c-.4-1.4-1.1-2.5-1.9-3.3-.9-.8-1.9-1.1-3-1.1h-8.6v12.7h-5.6v-33.4ZM640.8,583.7c1.5,0,2.6-.4,3.5-1.2.9-.8,1.3-1.8,1.3-3.1v-3.3c0-1-.3-1.8-1-2.5-.7-.6-1.6-1-2.7-1h-11.6v11h10.4Z"></path><path class="cls-4" d="M676.2,592.9h-13.3l-3.1,8.3h-5.8l13-33.4h2.5c1.7,0,2.9.8,3.6,2.5l11.9,30.9h-5.8l-3.1-8.3ZM664.5,588.3h10.1l-5-13.6h0l-5.1,13.6Z"></path><path class="cls-4" d="M689.6,600.1c-.8-.7-1.1-1.7-1.1-2.9v-29.4h15.8c3,0,5.3.7,7.1,2.1,1.8,1.4,2.7,3.3,2.7,5.6v2.4c0,1.1-.3,2.2-.8,3.2-.5,1-1.3,1.8-2.2,2.4h0c1.6.6,2.8,1.4,3.7,2.6.9,1.2,1.4,2.6,1.4,4.1v2.4c0,2.6-.9,4.7-2.7,6.3-1.8,1.5-4.3,2.3-7.4,2.3h-13.6c-1.2,0-2.2-.4-3-1.1ZM704.6,582c1.2,0,2.1-.4,2.9-1.1.7-.8,1.1-1.7,1.1-3v-2c0-1-.4-1.8-1.2-2.4-.8-.6-1.9-.9-3.2-.9h-10v9.4h10.5ZM705.7,596.3c1.6,0,2.8-.4,3.7-1.1.9-.7,1.3-1.7,1.3-2.9v-2.1c0-1.1-.4-1.9-1.1-2.6-.8-.7-1.8-1-3.1-1h-12.4v9.7h11.6Z"></path><path class="cls-4" d="M722.1,600.1c-.7-.7-1.1-1.7-1.1-2.9v-29.4h5.6v28.6h18.1v4.9h-19.6c-1.3,0-2.3-.4-3-1.1Z"></path><path class="cls-4" d="M749.8,600.1c-.7-.7-1.1-1.7-1.1-2.9v-29.4h24.5v4.8h-18.9v9.1h17.5v4.9h-17.5v9.8h18.9v4.8h-20.4c-1.2,0-2.2-.4-3-1.1Z"></path><path class="cls-4" d="M779.9,598.7c-1.9-1.9-2.9-4.5-2.9-7.8h5.5c0,1.8.5,3.2,1.4,4.2.9,1,2.2,1.6,3.9,1.6h5.3c1.6,0,2.8-.3,3.8-1,1-.7,1.4-1.6,1.4-2.7v-2.1c0-.9-.3-1.6-1-2.1-.7-.6-1.6-1-2.9-1.2l-8.7-1.5c-2.7-.4-4.8-1.3-6.2-2.7-1.4-1.3-2.2-3-2.2-5.1v-2.6c0-1.6.4-3.1,1.3-4.3.9-1.2,2.1-2.2,3.7-2.9,1.6-.7,3.4-1,5.5-1h5.4c2,0,3.7.4,5.2,1.2,1.5.8,2.7,2,3.5,3.5.8,1.5,1.2,3.2,1.2,5.2h-5.4c0-1.5-.4-2.6-1.3-3.6s-1.9-1.4-3.3-1.4h-5.4c-1.5,0-2.7.3-3.6,1-.9.7-1.4,1.5-1.4,2.7v1.7c0,.9.3,1.6,1,2.2.6.6,1.6,1,2.8,1.2l8.7,1.5c2.7.5,4.8,1.4,6.3,2.6,1.5,1.3,2.2,2.9,2.2,4.9v3.1c0,1.6-.4,3.1-1.3,4.3-.9,1.3-2.1,2.2-3.8,2.9-1.6.7-3.5,1-5.6,1h-5.5c-3.3,0-5.9-1-7.8-2.9Z"></path></g></g><g class="cls-6"><g><path class="cls-2" d="M352.8,447.3h-34.1c-4.9,0-9.2,3-10.9,7.5l-7.1,18.7h-23.2l44.1-112.6h10c7,0,11.7,3.2,14.2,9.7l40.1,103h-23.2l-9.8-26.2ZM316.6,428.7h30.2l-15-40.5h-.2l-15.1,40.5Z"></path><path class="cls-2" d="M396.4,360.9h59.4c6.5,0,12.3,1.3,17.4,3.8,5,2.5,9,6.1,11.7,10.8,2.8,4.7,4.2,10,4.2,16v15c0,6.2-1.4,11.7-4.3,16.5-2.9,4.8-6.9,8.5-12.1,11.1-5.2,2.6-11.2,3.9-18.1,3.9h-24.2c-6.5,0-11.7,5.2-11.7,11.7v23.9h-22.2v-112.6ZM454.1,418.7c3.8,0,6.8-1.2,9.2-3.6,2.4-2.4,3.5-5.6,3.5-9.6v-13c0-3.8-1-6.7-3.1-8.9-2.1-2.2-4.9-3.3-8.3-3.3h-36.8v38.5h35.6Z"></path><path class="cls-2" d="M505.6,469.4c-2.9-2.8-4.3-6.4-4.3-10.9v-97.5h85.9v19.3h-63.7v26.1h58.9v19.3h-58.9v28.6h63.7v19.3h-70.3c-4.6,0-8.4-1.4-11.3-4.2Z"></path><path class="cls-2" d="M608.4,465c-6.7-6.6-10-15.8-10-27.6h21.9c0,5.6,1.4,10,4.3,13.1,2.8,3.2,6.8,4.7,11.8,4.7h17.9c4.7,0,8.6-1,11.5-3,2.9-2,4.4-4.6,4.4-8v-5.5c0-5.3-3.9-8.5-11.6-9.8l-29.6-5c-9.7-1.6-17-4.7-22-9.3-5-4.6-7.5-10.4-7.5-17.5v-9c0-5.7,1.5-10.7,4.6-15,3.1-4.3,7.4-7.7,13-10.1,5.6-2.4,12.1-3.5,19.5-3.5h18.2c7,0,13.1,1.4,18.5,4.3,5.4,2.9,9.5,6.9,12.5,12.1,2.9,5.2,4.4,11.2,4.4,18.1h-21.9c0-4.5-1.2-8.1-3.7-10.9-2.5-2.7-5.7-4.1-9.8-4.1h-18.2c-4.5,0-8.1,1-10.9,2.9-2.7,1.9-4.1,4.5-4.1,7.7v4.3c0,5.4,3.7,8.7,11.1,10l29.4,5.1c9.8,1.7,17.2,4.7,22.4,9.1,5.1,4.3,7.7,9.9,7.7,16.8v10.6c0,5.7-1.6,10.7-4.7,15.1-3.2,4.4-7.6,7.8-13.3,10.2-5.7,2.4-12.3,3.6-19.8,3.6h-18.5c-11.8,0-21-3.3-27.7-9.9Z"></path><path class="cls-2" d="M770.9,447.3h-34.1c-4.9,0-9.2,3-10.9,7.5l-7.1,18.7h-23.2l44.1-112.6h10c7,0,11.7,3.2,14.2,9.7l40.1,103h-23.2l-9.8-26.2ZM734.7,428.7h30.2l-15-40.5h-.2l-15.1,40.5Z"></path></g><g><path class="cls-2" d="M278.6,510.5h17.2c2.7,0,4.9.7,6.6,2.2,1.7,1.5,2.5,3.5,2.5,5.9v3.4c0,1.7-.5,3.1-1.5,4.4-1,1.3-2.4,2.2-4.2,2.8h0c1,.7,1.8,1.5,2.5,2.4.6.9,1.2,2.2,1.6,3.7l2.7,8.6h-5.8l-2.6-8.3c-.4-1.4-1.1-2.5-1.9-3.3-.9-.8-1.9-1.1-3-1.1h-8.6v12.7h-5.6v-33.4ZM294.6,526.4c1.5,0,2.6-.4,3.5-1.2.9-.8,1.3-1.8,1.3-3.1v-3.3c0-1-.3-1.8-1-2.5-.7-.6-1.6-1-2.7-1h-11.6v11h10.4Z"></path><path class="cls-2" d="M311.7,542.8c-.7-.7-1.1-1.7-1.1-2.9v-29.4h24.5v4.8h-18.9v9.1h17.5v4.9h-17.5v9.8h18.9v4.8h-20.4c-1.2,0-2.2-.4-3-1.1ZM324.8,498.8h6.1l-5.3,8.2h-5.2l4.4-8.2Z"></path><path class="cls-2" d="M348.8,541.1l-11.5-30.7h5.8l9.4,26.4h0l9.4-26.4h5.7l-12.7,33.4h-2.7c-1.6,0-2.8-.9-3.5-2.8Z"></path><path class="cls-2" d="M372.5,542.8c-.7-.7-1.1-1.7-1.1-2.9v-29.4h24.5v4.8h-18.9v9.1h17.5v4.9h-17.5v9.8h18.9v4.8h-20.4c-1.2,0-2.2-.4-3-1.1ZM385.6,498.8h6.1l-5.3,8.2h-5.2l4.4-8.2Z"></path><path class="cls-2" d="M402,542.8c-.7-.7-1.1-1.7-1.1-2.9v-29.4h5.6v28.6h18.1v4.9h-19.6c-1.3,0-2.3-.4-3-1.1Z"></path><path class="cls-2" d="M447.9,535.6h-13.3l-3.1,8.3h-5.8l13-33.4h2.5c1.7,0,2.9.8,3.6,2.5l11.9,30.9h-5.8l-3.1-8.3ZM436.3,531h10.1l-5-13.6h0l-5.1,13.6Z"></path><path class="cls-2" d="M464,515.3h-10.6v-4.8h26.8v4.8h-10.6v28.6h-5.6v-28.6Z"></path><path class="cls-2" d="M485.4,542.8c-.7-.7-1.1-1.7-1.1-2.9v-29.4h24.5v4.8h-18.9v9.1h17.5v4.9h-17.5v9.8h18.9v4.8h-20.4c-1.2,0-2.2-.4-3-1.1Z"></path><path class="cls-2" d="M519,542.8c-1.7-1-3-2.3-4-4.1-.9-1.8-1.4-3.8-1.4-6.1v-22.1h5.6v22c0,2.1.5,3.7,1.6,5,1,1.3,2.4,1.9,4.2,1.9h5.1c1.7,0,3.2-.6,4.2-1.9,1.1-1.3,1.6-2.9,1.6-5v-22h5.6v22.1c0,2.3-.5,4.4-1.4,6.1-1,1.8-2.3,3.1-4,4.1-1.7,1-3.7,1.5-6,1.5h-5.1c-2.2,0-4.2-.5-5.9-1.5Z"></path><path class="cls-2" d="M547.8,510.5h17.2c2.7,0,4.9.7,6.6,2.2,1.7,1.5,2.5,3.5,2.5,5.9v3.4c0,1.7-.5,3.1-1.5,4.4-1,1.3-2.4,2.2-4.2,2.8h0c1,.7,1.8,1.5,2.5,2.4.6.9,1.2,2.2,1.6,3.7l2.7,8.6h-5.8l-2.6-8.3c-.4-1.4-1.1-2.5-1.9-3.3-.9-.8-1.9-1.1-3-1.1h-8.6v12.7h-5.6v-33.4ZM563.8,526.4c1.5,0,2.6-.4,3.5-1.2.9-.8,1.3-1.8,1.3-3.1v-3.3c0-1-.3-1.8-1-2.5-.7-.6-1.6-1-2.7-1h-11.6v11h10.4Z"></path><path class="cls-2" d="M594.2,542.8c-.7-.7-1.1-1.7-1.1-2.9v-29.4h15.2c2.5,0,4.7.5,6.6,1.4,1.9.9,3.4,2.3,4.4,4,1,1.7,1.6,3.7,1.6,6v9.7c0,4-1,7.1-3.1,9.2-2.1,2.1-5.1,3.1-9.2,3.1h-11.3c-1.2,0-2.2-.4-3-1.1ZM608.3,539c2.3,0,4-.6,5.1-1.9,1.2-1.3,1.7-3.2,1.7-5.7v-9.4c0-2-.7-3.6-2-4.8-1.3-1.2-3-1.8-5.1-1.8h-9.5v23.6h9.7Z"></path><path class="cls-2" d="M627.2,542.8c-.7-.7-1.1-1.7-1.1-2.9v-29.4h24.5v4.8h-18.9v9.1h17.5v4.9h-17.5v9.8h18.9v4.8h-20.4c-1.2,0-2.2-.4-3-1.1Z"></path><path class="cls-2" d="M280.3,598.7c-1.9-1.9-2.9-4.5-2.9-7.8h5.5c0,1.8.5,3.2,1.4,4.2.9,1,2.2,1.6,3.9,1.6h5.3c1.6,0,2.8-.3,3.8-1,1-.7,1.4-1.6,1.4-2.7v-2.1c0-.9-.3-1.6-1-2.1-.7-.6-1.6-1-2.9-1.2l-8.7-1.5c-2.7-.4-4.8-1.3-6.2-2.7-1.4-1.3-2.2-3-2.2-5.1v-2.6c0-1.6.4-3.1,1.3-4.3.9-1.2,2.1-2.2,3.7-2.9,1.6-.7,3.4-1,5.5-1h5.4c2,0,3.7.4,5.2,1.2,1.5.8,2.7,2,3.5,3.5s1.2,3.2,1.2,5.2h-5.4c0-1.5-.4-2.6-1.3-3.6-.8-.9-1.9-1.4-3.3-1.4h-5.4c-1.5,0-2.7.3-3.6,1-.9.7-1.4,1.5-1.4,2.7v1.7c0,.9.3,1.6,1,2.2.6.6,1.6,1,2.8,1.2l8.7,1.5c2.7.5,4.8,1.4,6.3,2.6,1.5,1.3,2.2,2.9,2.2,4.9v3.1c0,1.6-.4,3.1-1.3,4.3-.9,1.3-2.1,2.2-3.8,2.9-1.6.7-3.5,1-5.6,1h-5.5c-3.3,0-5.9-1-7.8-2.9Z"></path><path class="cls-2" d="M314.3,600c-1.8-1-3.3-2.5-4.3-4.4-1-1.9-1.5-4.1-1.5-6.6v-9.2c0-2.5.5-4.7,1.5-6.6,1-1.9,2.5-3.4,4.3-4.4,1.8-1,4-1.6,6.4-1.6h5.1c2.4,0,4.6.5,6.4,1.6,1.9,1,3.3,2.5,4.3,4.4,1,1.9,1.5,4.1,1.5,6.6v9.2c0,2.5-.5,4.7-1.5,6.6-1,1.9-2.5,3.4-4.3,4.4-1.9,1-4,1.6-6.4,1.6h-5.1c-2.4,0-4.6-.5-6.4-1.6ZM325.8,596.7c2,0,3.6-.7,4.8-2.1,1.2-1.4,1.9-3.3,1.9-5.6v-8.8c0-2.3-.6-4.2-1.8-5.6-1.2-1.4-2.8-2.1-4.8-2.1h-5c-2,0-3.6.7-4.8,2.1-1.2,1.4-1.8,3.3-1.8,5.6v8.8c0,2.3.6,4.2,1.8,5.6,1.2,1.4,2.8,2.1,4.8,2.1h5Z"></path><path class="cls-2" d="M344.7,600.1c-.7-.7-1.1-1.7-1.1-2.9v-29.4h5.6v28.6h18.1v4.9h-19.6c-1.3,0-2.3-.4-3-1.1Z"></path><path class="cls-2" d="M375.4,600.1c-1.7-1-3-2.3-4-4.1-.9-1.8-1.4-3.8-1.4-6.1v-22.1h5.6v22c0,2.1.5,3.7,1.6,5,1,1.3,2.4,1.9,4.2,1.9h5.1c1.7,0,3.2-.6,4.2-1.9,1.1-1.3,1.6-2.9,1.6-5v-22h5.6v22.1c0,2.3-.5,4.4-1.4,6.1-1,1.8-2.3,3.1-4,4.1-1.7,1-3.7,1.5-6,1.5h-5.1c-2.2,0-4.2-.5-5.9-1.5Z"></path><path class="cls-2" d="M412.3,572.6h-10.6v-4.8h26.8v4.8h-10.6v28.6h-5.6v-28.6Z"></path><path class="cls-2" d="M433.1,567.8h5.6v33.4h-5.6v-33.4Z"></path><path class="cls-2" d="M450.5,600c-1.8-1-3.3-2.5-4.3-4.4-1-1.9-1.5-4.1-1.5-6.6v-9.2c0-2.5.5-4.7,1.5-6.6,1-1.9,2.5-3.4,4.3-4.4,1.8-1,4-1.6,6.4-1.6h5.1c2.4,0,4.6.5,6.4,1.6,1.9,1,3.3,2.5,4.3,4.4,1,1.9,1.5,4.1,1.5,6.6v9.2c0,2.5-.5,4.7-1.5,6.6-1,1.9-2.5,3.4-4.3,4.4-1.9,1-4,1.6-6.4,1.6h-5.1c-2.4,0-4.6-.5-6.4-1.6ZM462,596.7c2,0,3.6-.7,4.8-2.1,1.2-1.4,1.9-3.3,1.9-5.6v-8.8c0-2.3-.6-4.2-1.8-5.6-1.2-1.4-2.8-2.1-4.8-2.1h-5c-2,0-3.6.7-4.8,2.1-1.2,1.4-1.8,3.3-1.8,5.6v8.8c0,2.3.6,4.2,1.8,5.6,1.2,1.4,2.8,2.1,4.8,2.1h5Z"></path><path class="cls-2" d="M479.8,567.8h5l16.9,24.4v-24.4h5.4v33.4h-5.1l-16.9-24.3v24.3h-5.4v-33.4Z"></path><path class="cls-2" d="M515.4,598.7c-1.9-1.9-2.9-4.5-2.9-7.8h5.5c0,1.8.5,3.2,1.4,4.2.9,1,2.2,1.6,3.9,1.6h5.3c1.6,0,2.8-.3,3.8-1,1-.7,1.4-1.6,1.4-2.7v-2.1c0-.9-.3-1.6-1-2.1-.7-.6-1.6-1-2.9-1.2l-8.7-1.5c-2.7-.4-4.8-1.3-6.2-2.7-1.4-1.3-2.2-3-2.2-5.1v-2.6c0-1.6.4-3.1,1.3-4.3.9-1.2,2.1-2.2,3.7-2.9,1.6-.7,3.4-1,5.5-1h5.4c2,0,3.7.4,5.2,1.2,1.5.8,2.7,2,3.5,3.5.8,1.5,1.2,3.2,1.2,5.2h-5.4c0-1.5-.4-2.6-1.3-3.6-.8-.9-1.9-1.4-3.3-1.4h-5.4c-1.5,0-2.7.3-3.6,1-.9.7-1.4,1.5-1.4,2.7v1.7c0,.9.3,1.6,1,2.2.6.6,1.6,1,2.8,1.2l8.7,1.5c2.7.5,4.8,1.4,6.3,2.6,1.5,1.3,2.2,2.9,2.2,4.9v3.1c0,1.6-.4,3.1-1.3,4.3-.9,1.3-2.1,2.2-3.8,2.9-1.6.7-3.5,1-5.6,1h-5.5c-3.3,0-5.9-1-7.8-2.9Z"></path><path class="cls-2" d="M558.9,600.1c-.7-.7-1.1-1.7-1.1-2.9v-29.4h15.2c2.5,0,4.7.5,6.6,1.4,1.9.9,3.4,2.3,4.4,4,1,1.7,1.6,3.7,1.6,6v9.7c0,4-1,7.1-3.1,9.2-2.1,2.1-5.1,3.1-9.2,3.1h-11.3c-1.2,0-2.2-.4-3-1.1ZM573.1,596.3c2.3,0,4-.6,5.1-1.9,1.2-1.3,1.7-3.2,1.7-5.7v-9.4c0-2-.7-3.6-2-4.8-1.3-1.2-3-1.8-5.1-1.8h-9.5v23.6h9.7Z"></path><path class="cls-2" d="M596.1,600.1c-1.7-1-3-2.3-4-4.1-.9-1.8-1.4-3.8-1.4-6.1v-22.1h5.6v22c0,2.1.5,3.7,1.6,5,1,1.3,2.4,1.9,4.2,1.9h5.1c1.7,0,3.2-.6,4.2-1.9,1.1-1.3,1.6-2.9,1.6-5v-22h5.6v22.1c0,2.3-.5,4.4-1.4,6.1-1,1.8-2.3,3.1-4,4.1-1.7,1-3.7,1.5-6,1.5h-5.1c-2.2,0-4.2-.5-5.9-1.5Z"></path><path class="cls-2" d="M624.8,567.8h17.2c2.7,0,4.9.7,6.6,2.2,1.7,1.5,2.5,3.5,2.5,5.9v3.4c0,1.7-.5,3.1-1.5,4.4-1,1.3-2.4,2.2-4.2,2.8h0c1,.7,1.8,1.5,2.5,2.4.6.9,1.2,2.2,1.6,3.7l2.7,8.6h-5.8l-2.6-8.3c-.4-1.4-1.1-2.5-1.9-3.3-.9-.8-1.9-1.1-3-1.1h-8.6v12.7h-5.6v-33.4ZM640.8,583.7c1.5,0,2.6-.4,3.5-1.2.9-.8,1.3-1.8,1.3-3.1v-3.3c0-1-.3-1.8-1-2.5-.7-.6-1.6-1-2.7-1h-11.6v11h10.4Z"></path><path class="cls-2" d="M676.2,592.9h-13.3l-3.1,8.3h-5.8l13-33.4h2.5c1.7,0,2.9.8,3.6,2.5l11.9,30.9h-5.8l-3.1-8.3ZM664.5,588.3h10.1l-5-13.6h0l-5.1,13.6Z"></path><path class="cls-2" d="M689.6,600.1c-.8-.7-1.1-1.7-1.1-2.9v-29.4h15.8c3,0,5.3.7,7.1,2.1,1.8,1.4,2.7,3.3,2.7,5.6v2.4c0,1.1-.3,2.2-.8,3.2-.5,1-1.3,1.8-2.2,2.4h0c1.6.6,2.8,1.4,3.7,2.6.9,1.2,1.4,2.6,1.4,4.1v2.4c0,2.6-.9,4.7-2.7,6.3-1.8,1.5-4.3,2.3-7.4,2.3h-13.6c-1.2,0-2.2-.4-3-1.1ZM704.6,582c1.2,0,2.1-.4,2.9-1.1.7-.8,1.1-1.7,1.1-3v-2c0-1-.4-1.8-1.2-2.4-.8-.6-1.9-.9-3.2-.9h-10v9.4h10.5ZM705.7,596.3c1.6,0,2.8-.4,3.7-1.1.9-.7,1.3-1.7,1.3-2.9v-2.1c0-1.1-.4-1.9-1.1-2.6-.8-.7-1.8-1-3.1-1h-12.4v9.7h11.6Z"></path><path class="cls-2" d="M722.1,600.1c-.7-.7-1.1-1.7-1.1-2.9v-29.4h5.6v28.6h18.1v4.9h-19.6c-1.3,0-2.3-.4-3-1.1Z"></path><path class="cls-2" d="M749.8,600.1c-.7-.7-1.1-1.7-1.1-2.9v-29.4h24.5v4.8h-18.9v9.1h17.5v4.9h-17.5v9.8h18.9v4.8h-20.4c-1.2,0-2.2-.4-3-1.1Z"></path><path class="cls-2" d="M779.9,598.7c-1.9-1.9-2.9-4.5-2.9-7.8h5.5c0,1.8.5,3.2,1.4,4.2.9,1,2.2,1.6,3.9,1.6h5.3c1.6,0,2.8-.3,3.8-1,1-.7,1.4-1.6,1.4-2.7v-2.1c0-.9-.3-1.6-1-2.1-.7-.6-1.6-1-2.9-1.2l-8.7-1.5c-2.7-.4-4.8-1.3-6.2-2.7-1.4-1.3-2.2-3-2.2-5.1v-2.6c0-1.6.4-3.1,1.3-4.3.9-1.2,2.1-2.2,3.7-2.9,1.6-.7,3.4-1,5.5-1h5.4c2,0,3.7.4,5.2,1.2,1.5.8,2.7,2,3.5,3.5.8,1.5,1.2,3.2,1.2,5.2h-5.4c0-1.5-.4-2.6-1.3-3.6s-1.9-1.4-3.3-1.4h-5.4c-1.5,0-2.7.3-3.6,1-.9.7-1.4,1.5-1.4,2.7v1.7c0,.9.3,1.6,1,2.2.6.6,1.6,1,2.8,1.2l8.7,1.5c2.7.5,4.8,1.4,6.3,2.6,1.5,1.3,2.2,2.9,2.2,4.9v3.1c0,1.6-.4,3.1-1.3,4.3-.9,1.3-2.1,2.2-3.8,2.9-1.6.7-3.5,1-5.6,1h-5.5c-3.3,0-5.9-1-7.8-2.9Z"></path></g><g><path class="cls-2" d="M154.2,534.7c-4.8,0-9.4-.6-14.1-1.4-19.8,18-46,28.9-74.9,28.9v22.6h-20.3s-63.8-.5-103.1-61.3c-39.3-60.7-18.9-132.2,11.7-164.4,30.6-32.2,96.5-79.6,193.5-24,0,0,26.5,18.9,36.8,35.7,0,0-28.1-51-87.3-66.9-59.2-15.8-104.1,4.1-138.3,30.6-34.2,26.5-63.3,89.3-51.6,142.9,11.7,53.6,49,93.4,84.2,109.2,35.2,15.8,61.3,14.3,61.3,14.3h154.2v-82.5c-9.8,7.5-26.8,16.6-52.1,16.1"></path><path class="cls-2" d="M150.6,471.2c23,2.6,40.6,13.1,55.6,17.8v-38.3h0s-29.3,0-29.3,0c0-1.5,0-3.1-.1-4.6-1.1-25.9-11-49.6-26.8-68-20.5-23.8-50.8-39-84.7-39-61.6,0-111.6,50-111.6,111.6s.1,5.2.3,7.7c1.1,11.5,3.4,20.9,5.2,26.8.7,2.2,1.5,4.4,2.4,6.6,2-4.7,35.6-80.9,64.7-106.2,30-26.1,33.9-28,33.9-28l9.7-2.9v17.4c0,4.5,10.6,18.4,12.9,22.5l7.4-14.8s13.5,17.4,13.5,22.2,1.9,3.9,3.9,8.7c1.9,4.8,8.7,6.8,13.5,16.4,4.8,9.7,8.7,16.5,9.7,25.2,1,8.7-1,8.7,9.7,18.4.2.2.3.3.5.5,3.1-.3,6.4-.3,9.8.1"></path><path class="cls-2" d="M169.8,489.3c-4.6,12.6-11.5,24.1-20.1,34.1,6.4,1.5,12.5,2.3,18.3,1.9,14.2-1,28.8-6.7,38.1-11.1v-13.9c-12.2-1.3-24-6.6-36.4-11"></path><path class="cls-2" d="M216.3,508.9s-3.9,2.3-10.1,5.2v4.6c6.8-5.3,10.1-9.8,10.1-9.8"></path><path class="cls-2" d="M149.8,523.4c-19.4-4.5-41.9-15.4-71.7-18-39.7-3.4-65.4,23.3-65.4,23.3,55.3-26,90.2-1.7,127.4,4.6,3.4-3.1,6.7-6.4,9.7-9.9"></path><path class="cls-2" d="M210.3,500.5c33.7.9,48.8-25.8,48.8-25.8,0,0-19.3,14.6-37.9,16.4-4.8.4-9.8-.4-15.1-2.1v11.3c1.4.1,2.7.2,4.1.3"></path><path class="cls-2" d="M163.7,486.7v-.4c-.7-.2-1.8-1.9-2.1-2-4.8-2.8-10.5-3.9-20.8-13.1-25.5,2.2-41.5,23.4-41.5,23.4,28.8-17.3,50.6-12.4,70.6-5.2.3-.9.6-1.7,1-2.6h-7.1Z"></path></g></g><g><g><path class="cls-4" d="M101.2,692.6h-45.8c-6.5,0-12.4,4-14.7,10.1l-9.6,25.1H0l59.3-151.4h13.4c9.4,0,15.7,4.3,19,13l53.9,138.5h-31.2l-13.2-35.3ZM52.6,667.5h40.7l-20.1-54.5h-.2l-20.3,54.5Z"></path><path class="cls-4" d="M159.9,576.5h79.8c8.8,0,16.6,1.7,23.4,5.1,6.8,3.4,12,8.2,15.8,14.5,3.7,6.3,5.6,13.4,5.6,21.5v20.1c0,8.4-1.9,15.8-5.8,22.2-3.9,6.4-9.3,11.4-16.3,14.9-7,3.5-15.1,5.3-24.3,5.3h-32.5c-8.7,0-15.7,7-15.7,15.7v32.1h-29.9v-151.4ZM237.5,654.1c5,0,9.2-1.6,12.3-4.9,3.2-3.2,4.8-7.5,4.8-12.9v-17.5c0-5-1.4-9-4.2-12-2.8-3-6.5-4.4-11.1-4.4h-49.5v51.7h47.8Z"></path><path class="cls-4" d="M306.8,722.3c-3.9-3.7-5.8-8.7-5.8-14.7v-131.1h115.5v26h-85.7v35h79.2v26h-79.2v38.5h85.7v26h-94.5c-6.2,0-11.2-1.9-15.1-5.6Z"></path><path class="cls-4" d="M445,716.3c-8.9-8.9-13.4-21.2-13.4-37.1h29.4c0,7.5,1.9,13.4,5.7,17.6,3.8,4.3,9.1,6.4,15.9,6.4h24c6.3,0,11.5-1.3,15.5-4,4-2.7,5.9-6.2,5.9-10.7v-7.4c0-7.1-5.2-11.5-15.6-13.2l-39.8-6.7c-13-2.2-22.8-6.3-29.5-12.4-6.7-6.1-10.1-14-10.1-23.5v-12.1c0-7.6,2.1-14.4,6.2-20.2,4.1-5.8,10-10.3,17.5-13.5,7.6-3.2,16.3-4.8,26.3-4.8h24.4c9.4,0,17.7,1.9,24.9,5.8,7.2,3.9,12.8,9.3,16.8,16.3,4,7,6,15.1,6,24.3h-29.4c0-6.1-1.7-10.9-5-14.6-3.3-3.7-7.7-5.5-13.2-5.5h-24.4c-6.1,0-10.9,1.3-14.6,3.9-3.7,2.6-5.5,6.1-5.5,10.4v5.8c0,7.2,5,11.7,14.9,13.4l39.6,6.9c13.1,2.3,23.1,6.4,30.1,12.2,6.9,5.8,10.4,13.4,10.4,22.6v14.3c0,7.6-2.1,14.4-6.4,20.3-4.3,5.9-10.2,10.5-17.8,13.7-7.6,3.2-16.5,4.9-26.6,4.9h-24.9c-15.9,0-28.3-4.4-37.2-13.3Z"></path><path class="cls-4" d="M663.5,692.6h-45.8c-6.5,0-12.4,4-14.7,10.1l-9.6,25.1h-31.2l59.3-151.4h13.4c9.4,0,15.7,4.3,19,13l53.9,138.5h-31.2l-13.2-35.3ZM614.8,667.5h40.7l-20.1-54.5h-.2l-20.3,54.5Z"></path></g><g><g><path class="cls-3" d="M137.7,258.8c0-104.2,84.4-188.6,188.6-188.6s188.6,84.5,188.6,188.6-84.4,188.6-188.6,188.6-188.6-84.5-188.6-188.6"></path><path class="cls-1" d="M515.3,258.1c0,104.4-84.6,189.1-189.1,189.1v64h238.1l.4-252.9-49.4-.2Z"></path><path class="cls-4" d="M565.2,258h0s-49.7,0-49.7,0c0-2.6,0-5.2-.2-7.8-1.8-44-18.6-84-45.4-115.3-34.7-40.4-86.1-66.1-143.6-66.1-104.5,0-189.2,84.7-189.2,189.2s.2,8.7.5,13.1c1.9,19.4,5.8,35.4,8.8,45.5,1.2,3.8,2.6,7.5,4,11.1,3.5-7.9,60.4-137,109.7-179.9,50.8-44.3,57.4-47.5,57.4-47.5l16.4-4.9v29.5c0,7.7,17.9,31.3,21.9,38.1l12.5-25s22.9,29.5,22.9,37.7,3.3,6.6,6.6,14.8c3.3,8.2,14.7,11.5,22.9,27.9,8.2,16.4,14.8,27.9,16.4,42.6,1.6,14.8-1.6,14.8,16.4,31.1,18,16.4,27.9,18,36.1,22.9.5.3,2.4,3.2,3.6,3.5v.7h49.6v166.4h-250.9s-108.2-.9-174.8-103.8c-66.6-103-32-224.1,19.9-278.6,51.9-54.5,163.5-135,327.9-40.7,0,0,45,32,62.3,60.6,0,0-47.6-86.5-148-113.3-100.4-26.8-176.5,6.9-234.5,51.9-58,45-107.3,151.4-87.4,242.3,19.9,90.8,83.1,158.3,142.8,185.2,59.7,26.8,103.8,24.2,103.8,24.2h261.3v-255.1h-.1Z"></path><path class="cls-7" d="M237.2,390.3s43.6-45.3,110.8-39.4c67.2,5.8,112.7,36.5,152.6,33.6,40-2.9,81.8-27.7,81.8-27.7,0,0-32.7,45.3-105.4,43.8-72.7-1.5-134.5-59.9-239.9-10.2"></path><path class="cls-5" d="M384,332.3s34.2-45.3,87-39.4c52.8,5.8,88.4,36.5,119.8,33.6,31.4-2.9,64.2-27.7,64.2-27.7,0,0-25.7,45.3-82.7,43.8-57-1.5-105.5-59.9-188.2-10.2"></path></g><g><path class="cls-4" d="M1.5,777.5h23.2c3.7,0,6.7,1,8.9,3,2.3,2,3.4,4.7,3.4,8v4.6c0,2.2-.7,4.2-2,5.9-1.3,1.7-3.2,2.9-5.6,3.8h0c1.4.9,2.5,2,3.3,3.2.8,1.3,1.5,2.9,2.1,4.9l3.6,11.6h-7.8l-3.5-11.1c-.6-1.9-1.4-3.4-2.6-4.4-1.2-1-2.5-1.5-4-1.5h-11.6v17.1H1.5v-44.9ZM23,798.9c2,0,3.5-.5,4.7-1.6,1.2-1.1,1.8-2.5,1.8-4.2v-4.4c0-1.4-.4-2.5-1.3-3.3-.9-.9-2.1-1.3-3.6-1.3h-15.5v14.8h14Z"></path><path class="cls-4" d="M46,820.9c-1-1-1.5-2.3-1.5-3.9v-39.5h32.9v6.5h-25.4v12.2h23.5v6.6h-23.5v13.2h25.4v6.5h-27.4c-1.7,0-3-.5-4-1.5ZM63.6,761.9h8.2l-7.1,11h-7l6-11Z"></path><path class="cls-4" d="M95.9,818.7l-15.4-41.2h7.8l12.6,35.6h0l12.6-35.6h7.7l-17.1,44.9h-3.6c-2.1,0-3.7-1.2-4.7-3.7Z"></path><path class="cls-4" d="M127.8,820.9c-1-1-1.5-2.3-1.5-3.9v-39.5h32.9v6.5h-25.4v12.2h23.5v6.6h-23.5v13.2h25.4v6.5h-27.4c-1.7,0-3-.5-4-1.5ZM145.4,761.9h8.2l-7.1,11h-7l6-11Z"></path><path class="cls-4" d="M167.5,821c-1-1-1.5-2.3-1.5-3.9v-39.5h7.5v38.4h24.4v6.6h-26.4c-1.7,0-3.1-.5-4-1.5Z"></path><path class="cls-4" d="M229.2,811.3h-17.8l-4.2,11.1h-7.8l17.5-44.9h3.4c2.3,0,3.9,1.1,4.8,3.4l16,41.5h-7.8l-4.1-11.1ZM213.5,805.1h13.6l-6.7-18.2h0l-6.8,18.2Z"></path><path class="cls-4" d="M250.8,784h-14.3v-6.5h36v6.5h-14.3v38.5h-7.5v-38.5Z"></path><path class="cls-4" d="M279.6,820.9c-1-1-1.5-2.3-1.5-3.9v-39.5h32.9v6.5h-25.4v12.2h23.5v6.6h-23.5v13.2h25.4v6.5h-27.4c-1.7,0-3-.5-4-1.5Z"></path><path class="cls-4" d="M324.8,821c-2.3-1.3-4.1-3.1-5.4-5.5-1.3-2.4-1.9-5.1-1.9-8.3v-29.7h7.5v29.6c0,2.8.7,5,2.1,6.7,1.4,1.7,3.3,2.5,5.6,2.5h6.9c2.3,0,4.2-.8,5.7-2.5,1.4-1.7,2.2-3.9,2.2-6.7v-29.6h7.5v29.7c0,3.1-.6,5.9-1.9,8.3-1.3,2.4-3.1,4.2-5.4,5.5-2.3,1.3-5,2-8,2h-6.9c-3,0-5.6-.7-8-2Z"></path><path class="cls-4" d="M363.5,777.5h23.2c3.7,0,6.7,1,8.9,3,2.3,2,3.4,4.7,3.4,8v4.6c0,2.2-.7,4.2-2,5.9-1.3,1.7-3.2,2.9-5.6,3.8h0c1.4.9,2.5,2,3.3,3.2.8,1.3,1.5,2.9,2.1,4.9l3.6,11.6h-7.8l-3.5-11.1c-.6-1.9-1.4-3.4-2.6-4.4-1.2-1-2.5-1.5-4-1.5h-11.6v17.1h-7.5v-44.9ZM385,798.9c2,0,3.5-.5,4.7-1.6,1.2-1.1,1.8-2.5,1.8-4.2v-4.4c0-1.4-.4-2.5-1.3-3.3-.9-.9-2.1-1.3-3.6-1.3h-15.5v14.8h14Z"></path><path class="cls-4" d="M425.8,821c-1-1-1.5-2.3-1.5-3.9v-39.5h20.5c3.3,0,6.3.6,8.8,1.9,2.5,1.3,4.5,3.1,5.9,5.4,1.4,2.3,2.1,5,2.1,8v13.1c0,5.4-1.4,9.6-4.2,12.4-2.8,2.8-6.9,4.2-12.4,4.2h-15.2c-1.7,0-3-.5-4-1.5ZM444.8,815.8c3,0,5.3-.9,6.9-2.6,1.6-1.7,2.3-4.3,2.3-7.6v-12.6c0-2.7-.9-4.8-2.6-6.4-1.8-1.6-4-2.5-6.9-2.5h-12.8v31.7h13Z"></path><path class="cls-4" d="M470.3,820.9c-1-1-1.5-2.3-1.5-3.9v-39.5h32.9v6.5h-25.4v12.2h23.5v6.6h-23.5v13.2h25.4v6.5h-27.4c-1.7,0-3-.5-4-1.5Z"></path><path class="cls-4" d="M3.9,896.1C1.3,893.6,0,890.1,0,885.6h7.4c0,2.4.6,4.3,1.9,5.7,1.3,1.4,3,2.1,5.2,2.1h7.1c2.1,0,3.8-.5,5.1-1.4,1.3-.9,1.9-2.1,1.9-3.6v-2.8c0-1.2-.4-2.1-1.3-2.9-.9-.8-2.2-1.3-3.9-1.6l-11.7-2c-3.6-.6-6.4-1.8-8.4-3.6-1.9-1.8-2.9-4.1-2.9-6.9v-3.5c0-2.2.6-4.1,1.8-5.8,1.2-1.7,2.8-3,5-3.9,2.1-.9,4.6-1.4,7.4-1.4h7.3c2.7,0,5,.6,7,1.6,2,1.1,3.6,2.6,4.7,4.7,1.1,2,1.7,4.3,1.7,6.9h-7.3c0-2-.6-3.6-1.7-4.8-1.1-1.2-2.6-1.8-4.4-1.8h-7.3c-2,0-3.6.4-4.8,1.3-1.2.9-1.8,2.1-1.8,3.6v2.3c0,1.2.4,2.2,1.3,3,.9.8,2.1,1.3,3.7,1.6l11.7,2.1c3.7.6,6.5,1.8,8.5,3.6,2,1.7,3,4,3,6.6v4.2c0,2.2-.6,4.1-1.8,5.8-1.2,1.7-2.9,3-5.1,4-2.2.9-4.7,1.4-7.5,1.4h-7.4c-4.5,0-8-1.3-10.5-3.9Z"></path><path class="cls-4" d="M49.6,897.9c-2.5-1.4-4.4-3.4-5.8-5.9-1.4-2.5-2.1-5.5-2.1-8.8v-12.3c0-3.3.7-6.3,2.1-8.8,1.4-2.5,3.3-4.5,5.8-5.9,2.5-1.4,5.4-2.1,8.6-2.1h6.8c3.3,0,6.1.7,8.6,2.1,2.5,1.4,4.4,3.4,5.8,5.9,1.4,2.5,2.1,5.5,2.1,8.8v12.3c0,3.3-.7,6.3-2.1,8.8-1.4,2.5-3.3,4.5-5.8,5.9-2.5,1.4-5.4,2.1-8.6,2.1h-6.8c-3.3,0-6.1-.7-8.6-2.1ZM65,893.4c2.7,0,4.8-1,6.5-2.9,1.7-1.9,2.5-4.4,2.5-7.6v-11.8c0-3.1-.8-5.7-2.5-7.6-1.6-1.9-3.8-2.9-6.5-2.9h-6.7c-2.7,0-4.9,1-6.5,2.9-1.7,1.9-2.5,4.4-2.5,7.6v11.8c0,3.1.8,5.7,2.5,7.6,1.6,1.9,3.8,2.9,6.5,2.9h6.7Z"></path><path class="cls-4" d="M90.4,898c-1-1-1.5-2.3-1.5-3.9v-39.5h7.5v38.4h24.4v6.6h-26.4c-1.7,0-3.1-.5-4-1.5Z"></path><path class="cls-4" d="M131.7,898c-2.3-1.3-4.1-3.1-5.4-5.5-1.3-2.4-1.9-5.1-1.9-8.3v-29.7h7.5v29.6c0,2.8.7,5,2.1,6.7,1.4,1.7,3.3,2.5,5.6,2.5h6.9c2.3,0,4.2-.8,5.7-2.5,1.4-1.7,2.2-3.9,2.2-6.7v-29.6h7.5v29.7c0,3.1-.6,5.9-1.9,8.3-1.3,2.4-3.1,4.2-5.4,5.5-2.3,1.3-5,2-8,2h-6.9c-3,0-5.6-.7-8-2Z"></path><path class="cls-4" d="M181.3,861h-14.3v-6.5h36v6.5h-14.3v38.5h-7.5v-38.5Z"></path><path class="cls-4" d="M209.3,854.5h7.5v44.9h-7.5v-44.9Z"></path><path class="cls-4" d="M232.7,897.9c-2.5-1.4-4.4-3.4-5.8-5.9-1.4-2.5-2.1-5.5-2.1-8.8v-12.3c0-3.3.7-6.3,2.1-8.8,1.4-2.5,3.3-4.5,5.8-5.9,2.5-1.4,5.4-2.1,8.6-2.1h6.8c3.3,0,6.1.7,8.6,2.1,2.5,1.4,4.4,3.4,5.8,5.9,1.4,2.5,2.1,5.5,2.1,8.8v12.3c0,3.3-.7,6.3-2.1,8.8-1.4,2.5-3.3,4.5-5.8,5.9-2.5,1.4-5.4,2.1-8.6,2.1h-6.8c-3.3,0-6.1-.7-8.6-2.1ZM248.1,893.4c2.7,0,4.8-1,6.5-2.9,1.7-1.9,2.5-4.4,2.5-7.6v-11.8c0-3.1-.8-5.7-2.5-7.6-1.6-1.9-3.8-2.9-6.5-2.9h-6.7c-2.7,0-4.9,1-6.5,2.9-1.7,1.9-2.5,4.4-2.5,7.6v11.8c0,3.1.8,5.7,2.5,7.6,1.6,1.9,3.8,2.9,6.5,2.9h6.7Z"></path><path class="cls-4" d="M272,854.5h6.7l22.7,32.9v-32.9h7.3v44.9h-6.8l-22.7-32.7v32.7h-7.3v-44.9Z"></path><path class="cls-4" d="M319.9,896.1c-2.6-2.6-3.9-6.1-3.9-10.5h7.4c0,2.4.6,4.3,1.9,5.7,1.3,1.4,3,2.1,5.2,2.1h7.1c2.1,0,3.8-.5,5.1-1.4,1.3-.9,1.9-2.1,1.9-3.6v-2.8c0-1.2-.4-2.1-1.3-2.9-.9-.8-2.2-1.3-3.9-1.6l-11.7-2c-3.6-.6-6.4-1.8-8.4-3.6-1.9-1.8-2.9-4.1-2.9-6.9v-3.5c0-2.2.6-4.1,1.8-5.8,1.2-1.7,2.8-3,5-3.9,2.1-.9,4.6-1.4,7.4-1.4h7.3c2.7,0,5,.6,7,1.6,2,1.1,3.6,2.6,4.7,4.7,1.1,2,1.7,4.3,1.7,6.9h-7.3c0-2-.6-3.6-1.7-4.8-1.1-1.2-2.6-1.8-4.4-1.8h-7.3c-2,0-3.6.4-4.8,1.3-1.2.9-1.8,2.1-1.8,3.6v2.3c0,1.2.4,2.2,1.3,3s2.1,1.3,3.7,1.6l11.7,2.1c3.7.6,6.5,1.8,8.5,3.6,2,1.7,3,4,3,6.6v4.2c0,2.2-.6,4.1-1.8,5.8-1.2,1.7-2.9,3-5.1,4-2.2.9-4.7,1.4-7.5,1.4h-7.4c-4.5,0-8-1.3-10.5-3.9Z"></path><path class="cls-4" d="M378.4,898c-1-1-1.5-2.3-1.5-3.9v-39.5h20.5c3.3,0,6.3.6,8.8,1.9,2.5,1.3,4.5,3.1,5.9,5.4,1.4,2.3,2.1,5,2.1,8v13.1c0,5.4-1.4,9.6-4.2,12.4-2.8,2.8-6.9,4.2-12.4,4.2h-15.2c-1.7,0-3-.5-4-1.5ZM397.5,892.9c3,0,5.3-.9,6.9-2.6,1.6-1.7,2.3-4.3,2.3-7.6v-12.6c0-2.7-.9-4.8-2.6-6.4-1.8-1.6-4-2.5-6.9-2.5h-12.8v31.7h13Z"></path><path class="cls-4" d="M428.4,898c-2.3-1.3-4.1-3.1-5.4-5.5-1.3-2.4-1.9-5.1-1.9-8.3v-29.7h7.5v29.6c0,2.8.7,5,2.1,6.7,1.4,1.7,3.3,2.5,5.6,2.5h6.9c2.3,0,4.2-.8,5.7-2.5,1.4-1.7,2.2-3.9,2.2-6.7v-29.6h7.5v29.7c0,3.1-.6,5.9-1.9,8.3-1.3,2.4-3.1,4.2-5.4,5.5-2.3,1.3-5,2-8,2h-6.9c-3,0-5.6-.7-8-2Z"></path><path class="cls-4" d="M467.1,854.5h23.2c3.7,0,6.7,1,8.9,3,2.3,2,3.4,4.7,3.4,8v4.6c0,2.2-.7,4.2-2,5.9-1.3,1.7-3.2,2.9-5.6,3.8h0c1.4.9,2.5,2,3.3,3.2.8,1.3,1.5,2.9,2.1,4.9l3.6,11.6h-7.8l-3.5-11.1c-.6-1.9-1.4-3.4-2.6-4.4-1.2-1-2.5-1.5-4-1.5h-11.6v17.1h-7.5v-44.9ZM488.6,875.9c2,0,3.5-.5,4.7-1.6,1.2-1.1,1.8-2.5,1.8-4.2v-4.4c0-1.4-.4-2.5-1.3-3.3-.9-.9-2.1-1.3-3.6-1.3h-15.5v14.8h14Z"></path><path class="cls-4" d="M536.1,888.4h-17.8l-4.2,11.1h-7.8l17.5-44.9h3.4c2.3,0,3.9,1.1,4.8,3.4l16,41.5h-7.8l-4.1-11.1ZM520.3,882.1h13.6l-6.7-18.2h0l-6.8,18.2Z"></path><path class="cls-4" d="M554.2,898c-1-1-1.5-2.3-1.5-3.9v-39.5h21.2c4,0,7.2,1,9.6,2.9,2.4,1.9,3.6,4.4,3.6,7.5v3.3c0,1.5-.4,2.9-1.1,4.2-.7,1.3-1.7,2.4-3,3.2h0c2.1.8,3.8,1.9,5,3.5,1.3,1.6,1.9,3.5,1.9,5.5v3.2c0,3.6-1.2,6.4-3.7,8.4-2.4,2.1-5.7,3.1-9.9,3.1h-18.2c-1.6,0-2.9-.5-4-1.5ZM574.3,873.7c1.6,0,2.9-.5,3.9-1.5,1-1,1.5-2.4,1.5-4v-2.6c0-1.4-.5-2.5-1.6-3.3-1.1-.8-2.5-1.2-4.3-1.2h-13.5v12.6h14.1ZM575.7,892.9c2.1,0,3.7-.5,4.9-1.4,1.2-.9,1.8-2.2,1.8-3.9v-2.9c0-1.5-.5-2.6-1.5-3.5-1-.9-2.4-1.3-4.1-1.3h-16.6v13h15.6Z"></path><path class="cls-4" d="M597.8,898c-1-1-1.5-2.3-1.5-3.9v-39.5h7.5v38.4h24.4v6.6h-26.4c-1.7,0-3.1-.5-4-1.5Z"></path><path class="cls-4" d="M635,898c-1-1-1.5-2.3-1.5-3.9v-39.5h32.9v6.5h-25.4v12.2h23.5v6.6h-23.5v13.2h25.4v6.5h-27.4c-1.7,0-3-.5-4-1.5Z"></path><path class="cls-4" d="M675.5,896.1c-2.6-2.6-3.9-6.1-3.9-10.5h7.4c0,2.4.6,4.3,1.9,5.7,1.3,1.4,3,2.1,5.2,2.1h7.1c2.1,0,3.8-.5,5.1-1.4,1.3-.9,1.9-2.1,1.9-3.6v-2.8c0-1.2-.4-2.1-1.3-2.9-.9-.8-2.2-1.3-3.9-1.6l-11.7-2c-3.6-.6-6.4-1.8-8.4-3.6-1.9-1.8-2.9-4.1-2.9-6.9v-3.5c0-2.2.6-4.1,1.8-5.8,1.2-1.7,2.8-3,5-3.9,2.1-.9,4.6-1.4,7.4-1.4h7.3c2.7,0,5,.6,7,1.6,2,1.1,3.6,2.6,4.7,4.7,1.1,2,1.7,4.3,1.7,6.9h-7.3c0-2-.6-3.6-1.7-4.8-1.1-1.2-2.6-1.8-4.4-1.8h-7.3c-2,0-3.6.4-4.8,1.3-1.2.9-1.8,2.1-1.8,3.6v2.3c0,1.2.4,2.2,1.3,3,.9.8,2.1,1.3,3.7,1.6l11.7,2.1c3.7.6,6.5,1.8,8.5,3.6,2,1.7,3,4,3,6.6v4.2c0,2.2-.6,4.1-1.8,5.8-1.2,1.7-2.9,3-5.1,4-2.2.9-4.7,1.4-7.5,1.4h-7.4c-4.5,0-8-1.3-10.5-3.9Z"></path></g></g></g><g class="cls-6"><g><path class="cls-2" d="M101.2,692.6h-45.8c-6.5,0-12.4,4-14.7,10.1l-9.6,25.1H0l59.3-151.4h13.4c9.4,0,15.7,4.3,19,13l53.9,138.5h-31.2l-13.2-35.3ZM52.6,667.5h40.7l-20.1-54.5h-.2l-20.3,54.5Z"></path><path class="cls-2" d="M159.9,576.5h79.8c8.8,0,16.6,1.7,23.4,5.1,6.8,3.4,12,8.2,15.8,14.5,3.7,6.3,5.6,13.4,5.6,21.5v20.1c0,8.4-1.9,15.8-5.8,22.2-3.9,6.4-9.3,11.4-16.3,14.9-7,3.5-15.1,5.3-24.3,5.3h-32.5c-8.7,0-15.7,7-15.7,15.7v32.1h-29.9v-151.4ZM237.5,654.1c5,0,9.2-1.6,12.3-4.9,3.2-3.2,4.8-7.5,4.8-12.9v-17.5c0-5-1.4-9-4.2-12-2.8-3-6.5-4.4-11.1-4.4h-49.5v51.7h47.8Z"></path><path class="cls-2" d="M306.8,722.3c-3.9-3.7-5.8-8.7-5.8-14.7v-131.1h115.5v26h-85.7v35h79.2v26h-79.2v38.5h85.7v26h-94.5c-6.2,0-11.2-1.9-15.1-5.6Z"></path><path class="cls-2" d="M445,716.3c-8.9-8.9-13.4-21.2-13.4-37.1h29.4c0,7.5,1.9,13.4,5.7,17.6,3.8,4.3,9.1,6.4,15.9,6.4h24c6.3,0,11.5-1.3,15.5-4,4-2.7,5.9-6.2,5.9-10.7v-7.4c0-7.1-5.2-11.5-15.6-13.2l-39.8-6.7c-13-2.2-22.8-6.3-29.5-12.4-6.7-6.1-10.1-14-10.1-23.5v-12.1c0-7.6,2.1-14.4,6.2-20.2,4.1-5.8,10-10.3,17.5-13.5,7.6-3.2,16.3-4.8,26.3-4.8h24.4c9.4,0,17.7,1.9,24.9,5.8,7.2,3.9,12.8,9.3,16.8,16.3,4,7,6,15.1,6,24.3h-29.4c0-6.1-1.7-10.9-5-14.6-3.3-3.7-7.7-5.5-13.2-5.5h-24.4c-6.1,0-10.9,1.3-14.6,3.9-3.7,2.6-5.5,6.1-5.5,10.4v5.8c0,7.2,5,11.7,14.9,13.4l39.6,6.9c13.1,2.3,23.1,6.4,30.1,12.2,6.9,5.8,10.4,13.4,10.4,22.6v14.3c0,7.6-2.1,14.4-6.4,20.3-4.3,5.9-10.2,10.5-17.8,13.7-7.6,3.2-16.5,4.9-26.6,4.9h-24.9c-15.9,0-28.3-4.4-37.2-13.3Z"></path><path class="cls-2" d="M663.5,692.6h-45.8c-6.5,0-12.4,4-14.7,10.1l-9.6,25.1h-31.2l59.3-151.4h13.4c9.4,0,15.7,4.3,19,13l53.9,138.5h-31.2l-13.2-35.3ZM614.8,667.5h40.7l-20.1-54.5h-.2l-20.3,54.5Z"></path></g><g><path class="cls-2" d="M1.5,777.5h23.2c3.7,0,6.7,1,8.9,3,2.3,2,3.4,4.7,3.4,8v4.6c0,2.2-.7,4.2-2,5.9-1.3,1.7-3.2,2.9-5.6,3.8h0c1.4.9,2.5,2,3.3,3.2.8,1.3,1.5,2.9,2.1,4.9l3.6,11.6h-7.8l-3.5-11.1c-.6-1.9-1.4-3.4-2.6-4.4-1.2-1-2.5-1.5-4-1.5h-11.6v17.1H1.5v-44.9ZM23,798.9c2,0,3.5-.5,4.7-1.6,1.2-1.1,1.8-2.5,1.8-4.2v-4.4c0-1.4-.4-2.5-1.3-3.3-.9-.9-2.1-1.3-3.6-1.3h-15.5v14.8h14Z"></path><path class="cls-2" d="M46,820.9c-1-1-1.5-2.3-1.5-3.9v-39.5h32.9v6.5h-25.4v12.2h23.5v6.6h-23.5v13.2h25.4v6.5h-27.4c-1.7,0-3-.5-4-1.5ZM63.6,761.9h8.2l-7.1,11h-7l6-11Z"></path><path class="cls-2" d="M95.9,818.7l-15.4-41.2h7.8l12.6,35.6h0l12.6-35.6h7.7l-17.1,44.9h-3.6c-2.1,0-3.7-1.2-4.7-3.7Z"></path><path class="cls-2" d="M127.8,820.9c-1-1-1.5-2.3-1.5-3.9v-39.5h32.9v6.5h-25.4v12.2h23.5v6.6h-23.5v13.2h25.4v6.5h-27.4c-1.7,0-3-.5-4-1.5ZM145.4,761.9h8.2l-7.1,11h-7l6-11Z"></path><path class="cls-2" d="M167.5,821c-1-1-1.5-2.3-1.5-3.9v-39.5h7.5v38.4h24.4v6.6h-26.4c-1.7,0-3.1-.5-4-1.5Z"></path><path class="cls-2" d="M229.2,811.3h-17.8l-4.2,11.1h-7.8l17.5-44.9h3.4c2.3,0,3.9,1.1,4.8,3.4l16,41.5h-7.8l-4.1-11.1ZM213.5,805.1h13.6l-6.7-18.2h0l-6.8,18.2Z"></path><path class="cls-2" d="M250.8,784h-14.3v-6.5h36v6.5h-14.3v38.5h-7.5v-38.5Z"></path><path class="cls-2" d="M279.6,820.9c-1-1-1.5-2.3-1.5-3.9v-39.5h32.9v6.5h-25.4v12.2h23.5v6.6h-23.5v13.2h25.4v6.5h-27.4c-1.7,0-3-.5-4-1.5Z"></path><path class="cls-2" d="M324.8,821c-2.3-1.3-4.1-3.1-5.4-5.5-1.3-2.4-1.9-5.1-1.9-8.3v-29.7h7.5v29.6c0,2.8.7,5,2.1,6.7,1.4,1.7,3.3,2.5,5.6,2.5h6.9c2.3,0,4.2-.8,5.7-2.5,1.4-1.7,2.2-3.9,2.2-6.7v-29.6h7.5v29.7c0,3.1-.6,5.9-1.9,8.3-1.3,2.4-3.1,4.2-5.4,5.5-2.3,1.3-5,2-8,2h-6.9c-3,0-5.6-.7-8-2Z"></path><path class="cls-2" d="M363.5,777.5h23.2c3.7,0,6.7,1,8.9,3,2.3,2,3.4,4.7,3.4,8v4.6c0,2.2-.7,4.2-2,5.9-1.3,1.7-3.2,2.9-5.6,3.8h0c1.4.9,2.5,2,3.3,3.2.8,1.3,1.5,2.9,2.1,4.9l3.6,11.6h-7.8l-3.5-11.1c-.6-1.9-1.4-3.4-2.6-4.4-1.2-1-2.5-1.5-4-1.5h-11.6v17.1h-7.5v-44.9ZM385,798.9c2,0,3.5-.5,4.7-1.6,1.2-1.1,1.8-2.5,1.8-4.2v-4.4c0-1.4-.4-2.5-1.3-3.3-.9-.9-2.1-1.3-3.6-1.3h-15.5v14.8h14Z"></path><path class="cls-2" d="M425.8,821c-1-1-1.5-2.3-1.5-3.9v-39.5h20.5c3.3,0,6.3.6,8.8,1.9,2.5,1.3,4.5,3.1,5.9,5.4,1.4,2.3,2.1,5,2.1,8v13.1c0,5.4-1.4,9.6-4.2,12.4-2.8,2.8-6.9,4.2-12.4,4.2h-15.2c-1.7,0-3-.5-4-1.5ZM444.8,815.8c3,0,5.3-.9,6.9-2.6,1.6-1.7,2.3-4.3,2.3-7.6v-12.6c0-2.7-.9-4.8-2.6-6.4-1.8-1.6-4-2.5-6.9-2.5h-12.8v31.7h13Z"></path><path class="cls-2" d="M470.3,820.9c-1-1-1.5-2.3-1.5-3.9v-39.5h32.9v6.5h-25.4v12.2h23.5v6.6h-23.5v13.2h25.4v6.5h-27.4c-1.7,0-3-.5-4-1.5Z"></path><path class="cls-2" d="M3.9,896.1C1.3,893.6,0,890.1,0,885.6h7.4c0,2.4.6,4.3,1.9,5.7,1.3,1.4,3,2.1,5.2,2.1h7.1c2.1,0,3.8-.5,5.1-1.4,1.3-.9,1.9-2.1,1.9-3.6v-2.8c0-1.2-.4-2.1-1.3-2.9-.9-.8-2.2-1.3-3.9-1.6l-11.7-2c-3.6-.6-6.4-1.8-8.4-3.6-1.9-1.8-2.9-4.1-2.9-6.9v-3.5c0-2.2.6-4.1,1.8-5.8,1.2-1.7,2.8-3,5-3.9,2.1-.9,4.6-1.4,7.4-1.4h7.3c2.7,0,5,.6,7,1.6,2,1.1,3.6,2.6,4.7,4.7,1.1,2,1.7,4.3,1.7,6.9h-7.3c0-2-.6-3.6-1.7-4.8-1.1-1.2-2.6-1.8-4.4-1.8h-7.3c-2,0-3.6.4-4.8,1.3-1.2.9-1.8,2.1-1.8,3.6v2.3c0,1.2.4,2.2,1.3,3,.9.8,2.1,1.3,3.7,1.6l11.7,2.1c3.7.6,6.5,1.8,8.5,3.6,2,1.7,3,4,3,6.6v4.2c0,2.2-.6,4.1-1.8,5.8-1.2,1.7-2.9,3-5.1,4-2.2.9-4.7,1.4-7.5,1.4h-7.4c-4.5,0-8-1.3-10.5-3.9Z"></path><path class="cls-2" d="M49.6,897.9c-2.5-1.4-4.4-3.4-5.8-5.9-1.4-2.5-2.1-5.5-2.1-8.8v-12.3c0-3.3.7-6.3,2.1-8.8,1.4-2.5,3.3-4.5,5.8-5.9,2.5-1.4,5.4-2.1,8.6-2.1h6.8c3.3,0,6.1.7,8.6,2.1,2.5,1.4,4.4,3.4,5.8,5.9,1.4,2.5,2.1,5.5,2.1,8.8v12.3c0,3.3-.7,6.3-2.1,8.8-1.4,2.5-3.3,4.5-5.8,5.9-2.5,1.4-5.4,2.1-8.6,2.1h-6.8c-3.3,0-6.1-.7-8.6-2.1ZM65,893.4c2.7,0,4.8-1,6.5-2.9,1.7-1.9,2.5-4.4,2.5-7.6v-11.8c0-3.1-.8-5.7-2.5-7.6-1.6-1.9-3.8-2.9-6.5-2.9h-6.7c-2.7,0-4.9,1-6.5,2.9-1.7,1.9-2.5,4.4-2.5,7.6v11.8c0,3.1.8,5.7,2.5,7.6,1.6,1.9,3.8,2.9,6.5,2.9h6.7Z"></path><path class="cls-2" d="M90.4,898c-1-1-1.5-2.3-1.5-3.9v-39.5h7.5v38.4h24.4v6.6h-26.4c-1.7,0-3.1-.5-4-1.5Z"></path><path class="cls-2" d="M131.7,898c-2.3-1.3-4.1-3.1-5.4-5.5-1.3-2.4-1.9-5.1-1.9-8.3v-29.7h7.5v29.6c0,2.8.7,5,2.1,6.7,1.4,1.7,3.3,2.5,5.6,2.5h6.9c2.3,0,4.2-.8,5.7-2.5,1.4-1.7,2.2-3.9,2.2-6.7v-29.6h7.5v29.7c0,3.1-.6,5.9-1.9,8.3-1.3,2.4-3.1,4.2-5.4,5.5-2.3,1.3-5,2-8,2h-6.9c-3,0-5.6-.7-8-2Z"></path><path class="cls-2" d="M181.3,861h-14.3v-6.5h36v6.5h-14.3v38.5h-7.5v-38.5Z"></path><path class="cls-2" d="M209.3,854.5h7.5v44.9h-7.5v-44.9Z"></path><path class="cls-2" d="M232.7,897.9c-2.5-1.4-4.4-3.4-5.8-5.9-1.4-2.5-2.1-5.5-2.1-8.8v-12.3c0-3.3.7-6.3,2.1-8.8,1.4-2.5,3.3-4.5,5.8-5.9,2.5-1.4,5.4-2.1,8.6-2.1h6.8c3.3,0,6.1.7,8.6,2.1,2.5,1.4,4.4,3.4,5.8,5.9,1.4,2.5,2.1,5.5,2.1,8.8v12.3c0,3.3-.7,6.3-2.1,8.8-1.4,2.5-3.3,4.5-5.8,5.9-2.5,1.4-5.4,2.1-8.6,2.1h-6.8c-3.3,0-6.1-.7-8.6-2.1ZM248.1,893.4c2.7,0,4.8-1,6.5-2.9,1.7-1.9,2.5-4.4,2.5-7.6v-11.8c0-3.1-.8-5.7-2.5-7.6-1.6-1.9-3.8-2.9-6.5-2.9h-6.7c-2.7,0-4.9,1-6.5,2.9-1.7,1.9-2.5,4.4-2.5,7.6v11.8c0,3.1.8,5.7,2.5,7.6,1.6,1.9,3.8,2.9,6.5,2.9h6.7Z"></path><path class="cls-2" d="M272,854.5h6.7l22.7,32.9v-32.9h7.3v44.9h-6.8l-22.7-32.7v32.7h-7.3v-44.9Z"></path><path class="cls-2" d="M319.9,896.1c-2.6-2.6-3.9-6.1-3.9-10.5h7.4c0,2.4.6,4.3,1.9,5.7,1.3,1.4,3,2.1,5.2,2.1h7.1c2.1,0,3.8-.5,5.1-1.4,1.3-.9,1.9-2.1,1.9-3.6v-2.8c0-1.2-.4-2.1-1.3-2.9-.9-.8-2.2-1.3-3.9-1.6l-11.7-2c-3.6-.6-6.4-1.8-8.4-3.6-1.9-1.8-2.9-4.1-2.9-6.9v-3.5c0-2.2.6-4.1,1.8-5.8,1.2-1.7,2.8-3,5-3.9,2.1-.9,4.6-1.4,7.4-1.4h7.3c2.7,0,5,.6,7,1.6,2,1.1,3.6,2.6,4.7,4.7,1.1,2,1.7,4.3,1.7,6.9h-7.3c0-2-.6-3.6-1.7-4.8-1.1-1.2-2.6-1.8-4.4-1.8h-7.3c-2,0-3.6.4-4.8,1.3-1.2.9-1.8,2.1-1.8,3.6v2.3c0,1.2.4,2.2,1.3,3s2.1,1.3,3.7,1.6l11.7,2.1c3.7.6,6.5,1.8,8.5,3.6,2,1.7,3,4,3,6.6v4.2c0,2.2-.6,4.1-1.8,5.8-1.2,1.7-2.9,3-5.1,4-2.2.9-4.7,1.4-7.5,1.4h-7.4c-4.5,0-8-1.3-10.5-3.9Z"></path><path class="cls-2" d="M378.4,898c-1-1-1.5-2.3-1.5-3.9v-39.5h20.5c3.3,0,6.3.6,8.8,1.9,2.5,1.3,4.5,3.1,5.9,5.4,1.4,2.3,2.1,5,2.1,8v13.1c0,5.4-1.4,9.6-4.2,12.4-2.8,2.8-6.9,4.2-12.4,4.2h-15.2c-1.7,0-3-.5-4-1.5ZM397.5,892.9c3,0,5.3-.9,6.9-2.6,1.6-1.7,2.3-4.3,2.3-7.6v-12.6c0-2.7-.9-4.8-2.6-6.4-1.8-1.6-4-2.5-6.9-2.5h-12.8v31.7h13Z"></path><path class="cls-2" d="M428.4,898c-2.3-1.3-4.1-3.1-5.4-5.5-1.3-2.4-1.9-5.1-1.9-8.3v-29.7h7.5v29.6c0,2.8.7,5,2.1,6.7,1.4,1.7,3.3,2.5,5.6,2.5h6.9c2.3,0,4.2-.8,5.7-2.5,1.4-1.7,2.2-3.9,2.2-6.7v-29.6h7.5v29.7c0,3.1-.6,5.9-1.9,8.3-1.3,2.4-3.1,4.2-5.4,5.5-2.3,1.3-5,2-8,2h-6.9c-3,0-5.6-.7-8-2Z"></path><path class="cls-2" d="M467.1,854.5h23.2c3.7,0,6.7,1,8.9,3,2.3,2,3.4,4.7,3.4,8v4.6c0,2.2-.7,4.2-2,5.9-1.3,1.7-3.2,2.9-5.6,3.8h0c1.4.9,2.5,2,3.3,3.2.8,1.3,1.5,2.9,2.1,4.9l3.6,11.6h-7.8l-3.5-11.1c-.6-1.9-1.4-3.4-2.6-4.4-1.2-1-2.5-1.5-4-1.5h-11.6v17.1h-7.5v-44.9ZM488.6,875.9c2,0,3.5-.5,4.7-1.6,1.2-1.1,1.8-2.5,1.8-4.2v-4.4c0-1.4-.4-2.5-1.3-3.3-.9-.9-2.1-1.3-3.6-1.3h-15.5v14.8h14Z"></path><path class="cls-2" d="M536.1,888.4h-17.8l-4.2,11.1h-7.8l17.5-44.9h3.4c2.3,0,3.9,1.1,4.8,3.4l16,41.5h-7.8l-4.1-11.1ZM520.3,882.1h13.6l-6.7-18.2h0l-6.8,18.2Z"></path><path class="cls-2" d="M554.2,898c-1-1-1.5-2.3-1.5-3.9v-39.5h21.2c4,0,7.2,1,9.6,2.9,2.4,1.9,3.6,4.4,3.6,7.5v3.3c0,1.5-.4,2.9-1.1,4.2-.7,1.3-1.7,2.4-3,3.2h0c2.1.8,3.8,1.9,5,3.5,1.3,1.6,1.9,3.5,1.9,5.5v3.2c0,3.6-1.2,6.4-3.7,8.4-2.4,2.1-5.7,3.1-9.9,3.1h-18.2c-1.6,0-2.9-.5-4-1.5ZM574.3,873.7c1.6,0,2.9-.5,3.9-1.5,1-1,1.5-2.4,1.5-4v-2.6c0-1.4-.5-2.5-1.6-3.3-1.1-.8-2.5-1.2-4.3-1.2h-13.5v12.6h14.1ZM575.7,892.9c2.1,0,3.7-.5,4.9-1.4,1.2-.9,1.8-2.2,1.8-3.9v-2.9c0-1.5-.5-2.6-1.5-3.5-1-.9-2.4-1.3-4.1-1.3h-16.6v13h15.6Z"></path><path class="cls-2" d="M597.8,898c-1-1-1.5-2.3-1.5-3.9v-39.5h7.5v38.4h24.4v6.6h-26.4c-1.7,0-3.1-.5-4-1.5Z"></path><path class="cls-2" d="M635,898c-1-1-1.5-2.3-1.5-3.9v-39.5h32.9v6.5h-25.4v12.2h23.5v6.6h-23.5v13.2h25.4v6.5h-27.4c-1.7,0-3-.5-4-1.5Z"></path><path class="cls-2" d="M675.5,896.1c-2.6-2.6-3.9-6.1-3.9-10.5h7.4c0,2.4.6,4.3,1.9,5.7,1.3,1.4,3,2.1,5.2,2.1h7.1c2.1,0,3.8-.5,5.1-1.4,1.3-.9,1.9-2.1,1.9-3.6v-2.8c0-1.2-.4-2.1-1.3-2.9-.9-.8-2.2-1.3-3.9-1.6l-11.7-2c-3.6-.6-6.4-1.8-8.4-3.6-1.9-1.8-2.9-4.1-2.9-6.9v-3.5c0-2.2.6-4.1,1.8-5.8,1.2-1.7,2.8-3,5-3.9,2.1-.9,4.6-1.4,7.4-1.4h7.3c2.7,0,5,.6,7,1.6,2,1.1,3.6,2.6,4.7,4.7,1.1,2,1.7,4.3,1.7,6.9h-7.3c0-2-.6-3.6-1.7-4.8-1.1-1.2-2.6-1.8-4.4-1.8h-7.3c-2,0-3.6.4-4.8,1.3-1.2.9-1.8,2.1-1.8,3.6v2.3c0,1.2.4,2.2,1.3,3,.9.8,2.1,1.3,3.7,1.6l11.7,2.1c3.7.6,6.5,1.8,8.5,3.6,2,1.7,3,4,3,6.6v4.2c0,2.2-.6,4.1-1.8,5.8-1.2,1.7-2.9,3-5.1,4-2.2.9-4.7,1.4-7.5,1.4h-7.4c-4.5,0-8-1.3-10.5-3.9Z"></path></g><g><path class="cls-2" d="M477,400.5c-8.1-.2-16-1-23.9-2.4-33.5,30.4-78,49-126.9,49v38.3h-34.4s-108.1-.9-174.8-103.8c-66.6-103-32-224.1,19.9-278.6,51.9-54.5,163.5-135,327.9-40.7,0,0,45,32,62.3,60.6,0,0-47.6-86.5-147.9-113.3-100.4-26.8-176.5,6.9-234.5,51.9-58,45-107.3,151.4-87.4,242.3,19.9,90.8,83.1,158.3,142.8,185.2,59.7,26.8,103.8,24.2,103.8,24.2h261.3v-139.8c-16.6,12.8-45.5,28.1-88.2,27.2"></path><path class="cls-2" d="M471,292.9c39.1,4.3,68.7,22.3,94.3,30.1v-65h-.1s-49.7,0-49.7,0c0-2.6,0-5.2-.2-7.8-1.8-44-18.6-84-45.4-115.2-34.7-40.4-86.1-66.1-143.6-66.1-104.5,0-189.2,84.7-189.2,189.2s.2,8.7.5,13.1c1.9,19.4,5.8,35.4,8.8,45.4,1.2,3.8,2.6,7.5,4,11.1,3.5-7.9,60.4-137,109.7-179.9,50.8-44.3,57.4-47.5,57.4-47.5l16.4-4.9v29.5c0,7.7,17.9,31.3,21.9,38.1l12.5-25s23,29.5,23,37.7,3.3,6.6,6.6,14.8c3.3,8.2,14.8,11.5,22.9,27.9,8.2,16.4,14.8,27.9,16.4,42.6,1.6,14.8-1.6,14.8,16.4,31.1.3.3.6.5.9.8,5.3-.5,10.9-.5,16.6.2"></path><path class="cls-2" d="M503.6,323.5c-7.9,21.4-19.5,40.9-34,57.8,10.9,2.5,21.1,3.9,31.1,3.2,24.1-1.8,48.8-11.4,64.6-18.9v-23.5c-20.8-2.2-40.6-11.1-61.7-18.6"></path><path class="cls-2" d="M582.4,356.7s-6.6,3.9-17.1,8.9v7.7c11.6-8.9,17.1-16.6,17.1-16.6"></path><path class="cls-2" d="M469.6,381.3c-32.8-7.6-71-26-121.6-30.4-67.2-5.8-110.8,39.4-110.8,39.4,93.7-44.2,152.9-2.9,216,7.8,5.8-5.3,11.3-10.9,16.4-16.8"></path><path class="cls-2" d="M572.2,342.6c57,1.5,82.7-43.8,82.7-43.8,0,0-32.8,24.8-64.2,27.7-8.1.8-16.6-.8-25.5-3.5v19.1c2.3.2,4.6.4,7,.5"></path><path class="cls-2" d="M493.2,319v-.7c-1.2-.3-3.1-3.2-3.6-3.5-8.1-4.8-17.7-6.5-35.2-22.2-43.2,3.7-70.3,39.6-70.3,39.6,48.9-29.3,85.8-21,119.6-8.9.6-1.5,1.1-3,1.6-4.4h-12.1Z"></path></g></g><g class="cls-6"><g><path class="cls-4" d="M101.2,777.8h-45.8c-6.5,0-12.4,4-14.7,10.1l-9.6,25.1H0l59.3-151.4h13.4c9.4,0,15.7,4.3,19,13l53.9,138.5h-31.2l-13.2-35.3ZM52.6,752.7h40.7l-20.1-54.5h-.2l-20.3,54.5Z"></path><path class="cls-4" d="M159.9,661.6h79.8c8.8,0,16.6,1.7,23.4,5.1,6.8,3.4,12,8.2,15.8,14.5,3.7,6.3,5.6,13.4,5.6,21.5v20.1c0,8.4-1.9,15.8-5.8,22.2-3.9,6.4-9.3,11.4-16.3,14.9-7,3.5-15.1,5.3-24.3,5.3h-32.5c-8.7,0-15.7,7-15.7,15.7v32.1h-29.9v-151.4ZM237.5,739.3c5,0,9.2-1.6,12.3-4.9,3.2-3.2,4.8-7.5,4.8-12.9v-17.5c0-5-1.4-9-4.2-12-2.8-3-6.5-4.4-11.1-4.4h-49.5v51.7h47.8Z"></path><path class="cls-4" d="M306.8,807.5c-3.9-3.7-5.8-8.7-5.8-14.7v-131.1h115.5v26h-85.7v35h79.2v26h-79.2v38.5h85.7v26h-94.5c-6.2,0-11.2-1.9-15.1-5.6Z"></path><path class="cls-4" d="M445,801.5c-8.9-8.9-13.4-21.2-13.4-37.1h29.4c0,7.5,1.9,13.4,5.7,17.6,3.8,4.3,9.1,6.4,15.9,6.4h24c6.3,0,11.5-1.3,15.5-4,4-2.7,5.9-6.2,5.9-10.7v-7.4c0-7.1-5.2-11.5-15.6-13.2l-39.8-6.7c-13-2.2-22.8-6.3-29.5-12.4-6.7-6.1-10.1-14-10.1-23.5v-12.1c0-7.6,2.1-14.4,6.2-20.2,4.1-5.8,10-10.3,17.5-13.5,7.6-3.2,16.3-4.8,26.3-4.8h24.4c9.4,0,17.7,1.9,24.9,5.8,7.2,3.9,12.8,9.3,16.8,16.3,4,7,6,15.1,6,24.3h-29.4c0-6.1-1.7-10.9-5-14.6-3.3-3.7-7.7-5.5-13.2-5.5h-24.4c-6.1,0-10.9,1.3-14.6,3.9-3.7,2.6-5.5,6.1-5.5,10.4v5.8c0,7.2,5,11.7,14.9,13.4l39.6,6.9c13.1,2.3,23.1,6.4,30.1,12.2,6.9,5.8,10.4,13.4,10.4,22.6v14.3c0,7.6-2.1,14.4-6.4,20.3-4.3,5.9-10.2,10.5-17.8,13.7-7.6,3.2-16.5,4.9-26.6,4.9h-24.9c-15.9,0-28.3-4.4-37.2-13.3Z"></path><path class="cls-4" d="M663.5,777.8h-45.8c-6.5,0-12.4,4-14.7,10.1l-9.6,25.1h-31.2l59.3-151.4h13.4c9.4,0,15.7,4.3,19,13l53.9,138.5h-31.2l-13.2-35.3ZM614.8,752.7h40.7l-20.1-54.5h-.2l-20.3,54.5Z"></path></g><g><path class="cls-3" d="M137.7,344c0-104.2,84.4-188.6,188.6-188.6s188.6,84.5,188.6,188.6-84.4,188.6-188.6,188.6-188.6-84.5-188.6-188.6"></path><path class="cls-1" d="M515.3,343.3c0,104.4-84.6,189.1-189.1,189.1v64h238.1l.4-252.9-49.4-.2Z"></path><path class="cls-4" d="M565.2,343.2h0s-49.7,0-49.7,0c0-2.6,0-5.2-.2-7.8-1.8-44-18.6-84-45.4-115.3-34.7-40.4-86.1-66.1-143.6-66.1-104.5,0-189.2,84.7-189.2,189.2s.2,8.7.5,13.1c1.9,19.4,5.8,35.4,8.8,45.5,1.2,3.8,2.6,7.5,4,11.1,3.5-7.9,60.4-137,109.7-179.9,50.8-44.3,57.4-47.5,57.4-47.5l16.4-4.9v29.5c0,7.7,17.9,31.3,21.9,38.1l12.5-25s22.9,29.5,22.9,37.7,3.3,6.6,6.6,14.8c3.3,8.2,14.7,11.5,22.9,27.9,8.2,16.4,14.8,27.9,16.4,42.6,1.6,14.8-1.6,14.8,16.4,31.1,18,16.4,27.9,18,36.1,22.9.5.3,2.4,3.2,3.6,3.5v.7h49.6v166.4h-250.9s-108.2-.9-174.8-103.8c-66.6-103-32-224.1,19.9-278.6,51.9-54.5,163.5-135,327.9-40.7,0,0,45,32,62.3,60.6,0,0-47.6-86.5-148-113.3-100.4-26.8-176.5,6.9-234.5,51.9-58,45-107.3,151.4-87.4,242.3,19.9,90.8,83.1,158.3,142.8,185.2,59.7,26.8,103.8,24.2,103.8,24.2h261.3v-255.1h-.1Z"></path><path class="cls-7" d="M237.2,475.5s43.6-45.3,110.8-39.4c67.2,5.8,112.7,36.5,152.6,33.6,40-2.9,81.8-27.7,81.8-27.7,0,0-32.7,45.3-105.4,43.8-72.7-1.5-134.5-59.9-239.9-10.2"></path><path class="cls-5" d="M384,417.5s34.2-45.3,87-39.4c52.8,5.8,88.4,36.5,119.8,33.6,31.4-2.9,64.2-27.7,64.2-27.7,0,0-25.7,45.3-82.7,43.8-57-1.5-105.5-59.9-188.2-10.2"></path></g></g><g class="cls-6"><g><path class="cls-2" d="M101.2,777.8h-45.8c-6.5,0-12.4,4-14.7,10.1l-9.6,25.1H0l59.3-151.4h13.4c9.4,0,15.7,4.3,19,13l53.9,138.5h-31.2l-13.2-35.3ZM52.6,752.7h40.7l-20.1-54.5h-.2l-20.3,54.5Z"></path><path class="cls-2" d="M159.9,661.6h79.8c8.8,0,16.6,1.7,23.4,5.1,6.8,3.4,12,8.2,15.8,14.5,3.7,6.3,5.6,13.4,5.6,21.5v20.1c0,8.4-1.9,15.8-5.8,22.2-3.9,6.4-9.3,11.4-16.3,14.9-7,3.5-15.1,5.3-24.3,5.3h-32.5c-8.7,0-15.7,7-15.7,15.7v32.1h-29.9v-151.4ZM237.5,739.3c5,0,9.2-1.6,12.3-4.9,3.2-3.2,4.8-7.5,4.8-12.9v-17.5c0-5-1.4-9-4.2-12-2.8-3-6.5-4.4-11.1-4.4h-49.5v51.7h47.8Z"></path><path class="cls-2" d="M306.8,807.5c-3.9-3.7-5.8-8.7-5.8-14.7v-131.1h115.5v26h-85.7v35h79.2v26h-79.2v38.5h85.7v26h-94.5c-6.2,0-11.2-1.9-15.1-5.6Z"></path><path class="cls-2" d="M445,801.5c-8.9-8.9-13.4-21.2-13.4-37.1h29.4c0,7.5,1.9,13.4,5.7,17.6,3.8,4.3,9.1,6.4,15.9,6.4h24c6.3,0,11.5-1.3,15.5-4,4-2.7,5.9-6.2,5.9-10.7v-7.4c0-7.1-5.2-11.5-15.6-13.2l-39.8-6.7c-13-2.2-22.8-6.3-29.5-12.4-6.7-6.1-10.1-14-10.1-23.5v-12.1c0-7.6,2.1-14.4,6.2-20.2,4.1-5.8,10-10.3,17.5-13.5,7.6-3.2,16.3-4.8,26.3-4.8h24.4c9.4,0,17.7,1.9,24.9,5.8,7.2,3.9,12.8,9.3,16.8,16.3,4,7,6,15.1,6,24.3h-29.4c0-6.1-1.7-10.9-5-14.6-3.3-3.7-7.7-5.5-13.2-5.5h-24.4c-6.1,0-10.9,1.3-14.6,3.9-3.7,2.6-5.5,6.1-5.5,10.4v5.8c0,7.2,5,11.7,14.9,13.4l39.6,6.9c13.1,2.3,23.1,6.4,30.1,12.2,6.9,5.8,10.4,13.4,10.4,22.6v14.3c0,7.6-2.1,14.4-6.4,20.3-4.3,5.9-10.2,10.5-17.8,13.7-7.6,3.2-16.5,4.9-26.6,4.9h-24.9c-15.9,0-28.3-4.4-37.2-13.3Z"></path><path class="cls-2" d="M663.5,777.8h-45.8c-6.5,0-12.4,4-14.7,10.1l-9.6,25.1h-31.2l59.3-151.4h13.4c9.4,0,15.7,4.3,19,13l53.9,138.5h-31.2l-13.2-35.3ZM614.8,752.7h40.7l-20.1-54.5h-.2l-20.3,54.5Z"></path></g><g><path class="cls-2" d="M477,485.7c-8.1-.2-16-1-23.9-2.4-33.5,30.4-78,49-126.9,49v38.3h-34.4s-108.1-.9-174.8-103.8c-66.6-103-32-224.1,19.9-278.6,51.9-54.5,163.5-135,327.9-40.7,0,0,45,32,62.3,60.6,0,0-47.6-86.5-147.9-113.3-100.4-26.8-176.5,6.9-234.5,51.9-58,45-107.3,151.4-87.4,242.3,19.9,90.8,83.1,158.3,142.8,185.2,59.7,26.8,103.8,24.2,103.8,24.2h261.3v-139.8c-16.6,12.8-45.5,28.1-88.2,27.2"></path><path class="cls-2" d="M471,378.1c39.1,4.3,68.7,22.3,94.3,30.1v-65h-.1s-49.7,0-49.7,0c0-2.6,0-5.2-.2-7.8-1.8-44-18.6-84-45.4-115.2-34.7-40.4-86.1-66.1-143.6-66.1-104.5,0-189.2,84.7-189.2,189.2s.2,8.7.5,13.1c1.9,19.4,5.8,35.4,8.8,45.4,1.2,3.8,2.6,7.5,4,11.1,3.5-7.9,60.4-137,109.7-179.9,50.8-44.3,57.4-47.5,57.4-47.5l16.4-4.9v29.5c0,7.7,17.9,31.3,21.9,38.1l12.5-25s23,29.5,23,37.7,3.3,6.6,6.6,14.8c3.3,8.2,14.8,11.5,22.9,27.9,8.2,16.4,14.8,27.9,16.4,42.6,1.6,14.8-1.6,14.8,16.4,31.1.3.3.6.5.9.8,5.3-.5,10.9-.5,16.6.2"></path><path class="cls-2" d="M503.6,408.7c-7.9,21.4-19.5,40.9-34,57.8,10.9,2.5,21.1,3.9,31.1,3.2,24.1-1.8,48.8-11.4,64.6-18.9v-23.5c-20.8-2.2-40.6-11.1-61.7-18.6"></path><path class="cls-2" d="M582.4,441.9s-6.6,3.9-17.1,8.9v7.7c11.6-8.9,17.1-16.6,17.1-16.6"></path><path class="cls-2" d="M469.6,466.5c-32.8-7.6-71-26-121.6-30.4-67.2-5.8-110.8,39.4-110.8,39.4,93.7-44.2,152.9-2.9,216,7.8,5.8-5.3,11.3-10.9,16.4-16.8"></path><path class="cls-2" d="M572.2,427.8c57,1.5,82.7-43.8,82.7-43.8,0,0-32.8,24.8-64.2,27.7-8.1.8-16.6-.8-25.5-3.5v19.1c2.3.2,4.6.4,7,.5"></path><path class="cls-2" d="M493.2,404.2v-.7c-1.2-.3-3.1-3.2-3.6-3.5-8.1-4.8-17.7-6.5-35.2-22.2-43.2,3.7-70.3,39.6-70.3,39.6,48.9-29.3,85.8-21,119.6-8.9.6-1.5,1.1-3,1.6-4.4h-12.1Z"></path></g></g></g></g></svg>