<svg width="158" height="50" viewBox="0 0 158 50" fill="none" xmlns="http://www.w3.org/2000/svg">
<path d="M14.8538 30.947H2.68831C2.49665 30.947 2.32012 30.8357 2.23942 30.6587C-0.746472 24.0891 -0.746472 17.5498 2.23942 10.9802C2.32012 10.8032 2.49665 10.6919 2.68831 10.6919H14.8437C15.2623 10.6919 15.4843 11.1875 15.2018 11.5011C12.8212 14.1714 11.3484 17.2059 11.3333 20.7613C11.3181 24.3521 12.7758 27.4068 15.2119 30.1277C15.4943 30.4413 15.2724 30.9419 14.8538 30.9419" fill="#0B478B"/>
<path d="M26.8064 26.4248H39.9302C40.2631 26.4248 40.5001 26.7485 40.3942 27.062C36.6064 38.239 22.8067 44.662 11.186 39.7866C10.7472 39.6045 10.8178 38.9572 11.2869 38.8611C18.3077 37.3843 23.296 33.3434 26.3676 26.708C26.4483 26.5361 26.6198 26.4248 26.8064 26.4248Z" fill="#006238"/>
<path d="M39.8853 15.2386H26.812C26.6102 15.2386 26.4236 15.1172 26.3379 14.9301C23.2965 8.36046 18.3385 4.29933 11.4034 2.83772C10.899 2.73152 10.8234 2.0437 11.2975 1.83129C21.1378 -2.52823 35.6335 1.89704 40.3847 14.5255C40.5158 14.8694 40.2535 15.2386 39.8853 15.2386Z" fill="#006238"/>
<path d="M118.937 12.5773C117.792 12.5773 116.743 12.7392 115.815 13.0021C115.613 13.0628 115.523 13.2196 115.523 13.427V19.1267C115.523 19.4302 115.76 19.6426 116.057 19.5768C116.486 19.4807 116.925 19.4352 117.379 19.4352C120.375 19.4352 123.033 21.4329 123.033 25.5952C123.033 29.7575 120.38 31.8058 117.379 31.8058C116.925 31.8058 116.486 31.7602 116.062 31.6591C115.765 31.5883 115.523 31.8209 115.523 32.1244V37.9253C115.523 38.0719 115.583 38.2388 115.729 38.2692C116.602 38.4917 117.57 38.608 118.635 38.608C125.585 38.608 130.467 33.146 130.467 25.5497C130.467 17.9534 126.13 12.5723 118.942 12.5723" fill="#0B478B"/>
<path d="M87.6386 27.4921H99.7991C100.041 27.4921 100.243 27.31 100.268 27.0673C100.314 26.6121 100.359 25.8636 100.359 25.1657C100.359 17.2609 95.6632 12.5625 88.0774 12.5625C81.7123 12.5625 75.8363 17.5997 75.8363 25.5248C75.8363 33.4498 81.8585 38.6286 88.6171 38.6286C94.599 38.6286 98.4373 35.3261 99.7638 31.27C99.8445 31.0171 99.6932 30.7491 99.441 30.6732L94.0543 29.1509C93.8323 29.0903 93.5902 29.1914 93.4995 29.4038C92.758 31.1234 91.2499 32.2461 88.718 32.2461C85.833 32.2461 83.3464 30.7188 83.2909 27.5933H83.2808V22.6521V22.6369C83.4523 20.796 85.031 18.4898 88.1783 18.4898C91.3256 18.4898 92.7378 20.356 93.0405 22.111C93.0909 22.3992 92.8639 22.6572 92.5714 22.6572H87.6386C87.3764 22.6572 87.1645 22.8696 87.1645 23.1326V27.0218C87.1645 27.2847 87.3764 27.4972 87.6386 27.4972" fill="#0B478B"/>
<path d="M110.877 49.5931C109.006 48.2225 106.842 47.3627 104.648 47.0188C104.421 46.9834 104.25 46.7912 104.25 46.5586V13.7054C104.25 13.4424 104.461 13.23 104.724 13.23H111.17C111.432 13.23 111.644 13.4323 111.644 13.6953V49.2239C111.644 49.6184 111.2 49.8207 110.882 49.588" fill="#0B478B"/>
<path d="M44.7783 13.23C44.516 13.23 44.3042 13.4475 44.3042 13.7104V38.1885C44.3042 38.3807 44.4505 38.5274 44.622 38.5274H51.5672C51.7387 38.5274 51.8849 38.3807 51.8849 38.1885V13.7104C51.8849 13.4475 51.6731 13.23 51.4108 13.23H44.7733H44.7783Z" fill="#0B478B"/>
<path d="M51.89 5.68992C51.89 7.78877 50.1902 9.49313 48.0971 9.49313C46.0039 9.49313 44.3042 7.78877 44.3042 5.68992C44.3042 3.59108 46.0039 1.88672 48.0971 1.88672C50.1902 1.88672 51.89 3.59108 51.89 5.68992Z" fill="#0B478B"/>
<path d="M72.5079 19.4196V13.6086C72.5079 13.4013 72.3414 13.2344 72.1347 13.2344H56.1511C55.9443 13.2344 55.7778 13.4013 55.7778 13.6086V19.5157C55.7778 19.7231 55.9443 19.89 56.1511 19.89H59.7977C60.0045 19.89 60.1709 20.0569 60.1709 20.2642V30.5562C60.1709 35.5125 63.3031 38.6987 68.4477 38.6987C70.3694 38.6987 71.6 38.203 72.1498 37.9856C72.3314 37.9147 72.5079 37.6669 72.5079 37.4747V32.1745C72.5079 31.8812 72.2406 31.6587 71.948 31.7093C71.5344 31.7801 70.9342 31.8104 70.4097 31.8104C68.7604 31.8104 67.6609 31.2591 67.6609 29.2058V20.2642C67.6609 20.0569 67.8273 19.89 68.0341 19.89H72.0287C72.291 19.89 72.5028 19.6776 72.5028 19.4146" fill="#0B478B"/>
<path d="M60.5661 2.82284C60.3391 2.85825 60.1676 3.05043 60.1676 3.28307V8.52765C60.1676 9.13455 60.3794 9.3419 60.6417 9.3419H67.1885C67.3953 9.3419 67.6525 9.15478 67.6525 8.52765C67.6525 6.96996 67.6626 2.31204 67.6626 0.359863C67.6626 0.0463011 67.3095 -0.105422 67.0624 0.0817033C65.1256 1.54836 62.861 2.46882 60.561 2.8279" fill="#0B478B"/>
<path d="M143.52 19.1985V13.1144C143.52 12.7957 143.227 12.5479 142.92 12.6137C137.568 13.7162 134.93 17.5295 134.446 20.7106C134.406 20.9838 134.577 21.2417 134.845 21.2973C136.105 21.5552 139.626 22.2785 140.968 22.5516C141.24 22.6072 141.507 22.4302 141.563 22.1571C141.775 21.1102 142.385 20.124 143.363 19.4817C143.459 19.4159 143.52 19.3148 143.52 19.1985Z" fill="#0B478B"/>
<path d="M149.602 28.6508C149.602 32.5754 147.261 33.6982 144.977 33.6982C142.843 33.6982 141.976 32.4237 141.976 31.0986C141.976 29.3133 143.196 28.5497 144.82 28.2917L149.042 27.614C149.334 27.5685 149.602 27.7961 149.602 28.0894V28.6458V28.6508ZM157.122 34.6641V22.2734C157.122 17.5194 154.61 13.2762 147.922 12.5833C147.64 12.5529 147.398 12.7805 147.398 13.0637V18.3994C147.398 18.5966 147.514 18.7787 147.695 18.8495C148.946 19.3097 149.597 20.2504 149.597 21.3074C149.597 22.1722 149.138 22.8347 147.766 23.0421L141.819 23.9575C137.648 24.5695 134.344 27.1184 134.344 31.6044C134.344 35.6301 137.583 39.0995 143.126 39.0995C145.895 39.0995 148.008 38.3308 149.415 36.7832C149.703 36.4646 150.222 36.6416 150.252 37.0715C150.288 37.5621 150.338 37.9312 150.384 38.1892C150.424 38.4218 150.626 38.5129 150.858 38.5129H156.87C157.162 38.5129 157.384 38.26 157.349 37.9717C157.258 37.2738 157.127 36.0802 157.127 34.6591" fill="#0B478B"/>
</svg>
