<svg width="209" height="85" viewBox="0 0 209 85" fill="none" xmlns="http://www.w3.org/2000/svg">
<g clip-path="url(#clip0)">
<path d="M19.6002 0.75708C12.0643 0.75708 5.32352 4.00421 0.691366 9.16544H9.8174V24.9226L23.7484 11.1479L30.6621 17.984L16.7311 31.7928H32.6671V41.4659H9.8174H0C4.63215 47.1056 11.6841 50.6945 19.6002 50.6945C33.5313 50.6945 44.8351 39.5176 44.8351 25.7429C44.8351 11.934 33.5313 0.75708 19.6002 0.75708Z" fill="#2D2D2D"/>
<path d="M9.78283 31.7927H0V41.4658H9.78283V31.7927Z" fill="#FFAA00"/>
<path d="M1.07162 63.2387C1.10619 67.0327 3.94079 69.8013 7.53589 69.8013C10.9927 69.8013 12.5483 67.9214 13.2742 66.0073H14.3804C13.3434 69.1519 10.9927 70.8609 7.53589 70.8609C3.31856 70.8951 0 67.5454 0 63.307C0 59.0687 3.28399 55.6165 7.32848 55.6165C11.7187 55.6165 14.7261 59.5814 14.657 63.2387H1.07162ZM13.5508 62.2133C13.0323 59.0687 10.4396 56.7102 7.36305 56.7102C4.2519 56.7102 1.69385 59.0687 1.20989 62.2133H13.5508Z" fill="#2D2D2D"/>
<path d="M29.0024 70.5532H27.9308V68.1606C26.9283 69.8696 25.0962 70.8951 22.7801 70.8951C19.2196 70.8951 16.627 68.3315 16.627 64.811V56.0266H17.6986V64.811C17.6986 67.7505 19.8764 69.8696 22.8147 69.8696C25.8221 69.8696 27.9654 67.7505 27.9654 64.811V56.0266H29.037L29.0024 70.5532Z" fill="#2D2D2D"/>
<path d="M39.3039 56.6418C37.3681 56.4709 35.8816 57.0178 34.9483 57.8723C33.8767 58.7952 33.3236 60.2307 33.3236 61.7347V70.519H32.252V55.9924H33.3236V58.4192C33.5655 57.9407 33.9112 57.4963 34.2915 57.1203C35.5705 55.9924 37.2989 55.4455 39.3039 55.6848V56.6418Z" fill="#2D2D2D"/>
<path d="M50.8163 70.5533C50.5743 70.0064 50.4015 69.3228 50.4015 68.4341V68.1606C49.2262 69.8013 46.9792 70.8267 44.0755 70.8267C41.5174 70.8267 38.752 69.562 38.752 66.7592C38.752 63.4438 41.8631 62.6918 45.0088 62.4183C48.2582 62.1107 50.436 61.7689 50.436 59.9915C50.436 57.3255 47.878 56.676 45.7002 56.676C43.0039 56.676 41.2409 57.7698 40.6186 59.7523H39.547C40.2038 57.1546 42.4162 55.6506 45.7002 55.6506C49.399 55.6506 51.5077 57.2229 51.5077 59.9574V68.1606C51.5077 68.8784 51.7151 69.9722 51.9225 70.5191L50.8163 70.5533ZM50.4015 61.9398C49.2607 62.9994 47.1175 63.1703 45.078 63.3412C41.31 63.7172 39.8581 64.7084 39.8581 66.6909C39.8581 69.0835 42.589 69.7329 44.0409 69.7329C47.2212 69.7329 50.3669 68.3315 50.3669 65.2553V61.9398H50.4015Z" fill="#2D2D2D"/>
<path d="M60.1493 70.5533C56.727 70.9635 54.3418 68.9468 54.3418 65.2553V52.9163H56.727V56.0267H60.0801V58.3167H56.727V65.2553C56.727 67.8189 58.2826 68.4683 60.1147 68.3658L60.1493 70.5533Z" fill="#2D2D2D"/>
<path d="M74.9783 66.0073C73.9412 69.1177 71.4523 70.8609 68.03 70.8609C63.8127 70.8609 60.4941 67.5454 60.4941 63.2728C60.4941 59.0687 63.8127 55.6165 67.8918 55.6165C71.6943 55.6165 75.3585 58.7269 75.3239 63.8881H62.9485C63.2596 66.896 65.6102 68.6733 68.03 68.6733C70.1041 68.6733 71.5906 67.6821 72.3856 66.0073H74.9783ZM72.6276 61.7689C72.04 59.4105 70.035 57.804 67.8918 57.804C65.8522 57.804 63.709 59.2737 63.0868 61.7689H72.6276Z" fill="#2D2D2D"/>
<path d="M99.8323 70.5533H97.4471V61.7006C97.4471 59.4447 96.2026 57.8382 93.852 57.8382C91.6396 57.8382 89.9803 59.4789 89.9803 61.6664V70.5533H87.5605V52.9163H89.9803V57.4964C90.9828 56.3685 92.4347 55.6507 94.1631 55.6507C97.7582 55.6507 99.8323 58.18 99.8323 61.8032V70.5533Z" fill="#2D2D2D"/>
<path d="M114.629 70.5533H112.244V61.7006C112.244 59.4788 110.999 57.8382 108.649 57.8382C106.436 57.8382 104.777 59.4788 104.777 61.6664V70.5533H102.357V56.0266H104.708V57.5989C105.711 56.3684 107.232 55.6506 108.995 55.6506C112.59 55.6506 114.664 58.18 114.664 61.8031L114.629 70.5533Z" fill="#2D2D2D"/>
<path d="M131.948 63.307C131.948 67.477 128.733 70.8609 124.55 70.8609C120.367 70.8609 117.152 67.477 117.152 63.307C117.152 59.0687 120.367 55.6165 124.55 55.6165C128.767 55.6165 131.948 59.0687 131.948 63.307ZM129.528 63.307C129.528 60.2992 127.315 57.8382 124.55 57.8382C121.854 57.8382 119.607 60.2992 119.607 63.307C119.607 66.2807 121.819 68.6733 124.55 68.6733C127.315 68.6733 129.528 66.2807 129.528 63.307Z" fill="#2D2D2D"/>
<path d="M136.926 70.5533H134.506V52.9163H136.926V70.5533Z" fill="#2D2D2D"/>
<path d="M154.244 63.307C154.244 67.477 151.03 70.8609 146.847 70.8609C142.664 70.8609 139.449 67.477 139.449 63.307C139.449 59.0687 142.664 55.6165 146.847 55.6165C151.064 55.6165 154.244 59.0687 154.244 63.307ZM151.825 63.307C151.825 60.2992 149.612 57.8382 146.847 57.8382C144.116 57.8382 141.904 60.2992 141.904 63.307C141.904 66.2807 144.116 68.6733 146.847 68.6733C149.578 68.6733 151.825 66.2807 151.825 63.307Z" fill="#2D2D2D"/>
<path d="M171.563 69.8697C171.563 74.5182 168.521 77.697 163.992 77.697C160.501 77.697 157.805 75.8512 157.044 72.9117H159.602C160.57 75.0993 162.921 75.4069 163.992 75.4069C167.76 75.4069 169.143 72.5357 169.143 69.9038V68.3657C168.071 69.7671 166.274 70.9292 164.131 70.9292C159.913 70.9292 156.768 67.5112 156.768 63.307C156.768 59.1028 159.913 55.6506 164.131 55.6506C166.308 55.6506 168.175 56.8811 169.212 58.3509V56.0266H171.563V69.8697ZM164.131 57.8724C161.365 57.8724 159.187 60.2992 159.187 63.307C159.187 66.2807 161.365 68.7075 164.131 68.7075C166.827 68.7075 169.143 66.2807 169.143 63.307C169.143 60.2992 166.862 57.8724 164.131 57.8724Z" fill="#2D2D2D"/>
<path d="M176.713 53.805H174.293V51.4124H176.713V53.805ZM176.713 70.5533H174.293V56.0267H176.713V70.5533Z" fill="#2D2D2D"/>
<path d="M193.72 66.0073C192.683 69.1177 190.194 70.8609 186.772 70.8609C182.555 70.8609 179.236 67.5454 179.236 63.2728C179.236 59.0687 182.555 55.6165 186.634 55.6165C190.436 55.6165 194.101 58.7269 194.066 63.8881H181.691C182.002 66.896 184.352 68.6733 186.772 68.6733C188.846 68.6733 190.333 67.6821 191.128 65.9731L193.72 66.0073ZM191.37 61.7689C190.782 59.4105 188.777 57.804 186.634 57.804C184.594 57.804 182.451 59.2737 181.829 61.7689H191.37Z" fill="#2D2D2D"/>
<path d="M202.986 70.8951C199.425 70.8951 196.833 69.0151 196.418 65.9389H198.872C199.183 67.6479 200.877 68.6733 202.986 68.6733C205.267 68.6733 206.685 67.5796 206.685 66.3149C206.685 65.2895 206.27 64.5375 202.675 64.059C199.114 63.5463 196.936 62.6918 196.936 59.9574C196.936 57.8724 198.769 55.6506 202.709 55.6506C206.097 55.6506 208.379 57.3596 208.69 60.1966H206.235C205.89 58.6585 204.507 57.8382 202.709 57.8382C200.774 57.8382 199.356 58.7269 199.356 59.8548C199.356 60.9144 200.186 61.2562 203.055 61.7347C206.305 62.2474 209.001 62.8627 209.001 66.1782C209.001 69.0835 206.477 70.8951 202.986 70.8951Z" fill="#2D2D2D"/>
<path d="M85.1409 68.6392C84.9335 68.6733 84.6915 68.6733 84.4841 68.6733C81.7878 68.6733 79.5409 66.2807 79.5409 63.2728C79.5409 60.265 81.7532 57.8382 84.4841 57.8382C84.7261 57.8382 84.9335 57.8724 85.1409 57.8724V55.6506C84.9335 55.6165 84.6915 55.6165 84.4841 55.6165C80.4396 55.6165 77.1211 59.0687 77.1211 63.2728C77.1211 67.477 80.4396 70.8609 84.4841 70.8609C84.6915 70.8609 84.9335 70.8609 85.1409 70.8267V68.6392Z" fill="#2D2D2D"/>
<path d="M5.42766 79.2691V80.3971H0.830078V73.8345H5.35853V74.9624H2.10911V76.5347H4.90914V77.5601H2.10911V79.2691H5.42766Z" fill="#2D2D2D"/>
<path d="M8.15812 73.8345L9.8174 76.2613L11.4767 73.8345H12.8594L10.5088 77.15L12.7903 80.3971H11.4075L9.85197 78.0386L8.26183 80.3971H6.84453L9.12603 77.15L6.77539 73.8345H8.15812Z" fill="#2D2D2D"/>
<path d="M13.8633 77.0826C13.8633 76.6724 13.9324 76.2964 14.0707 75.8863C14.209 75.5103 14.4164 75.1343 14.6929 74.8267C14.9695 74.5191 15.3152 74.2798 15.73 74.0747C16.1448 73.8696 16.5942 73.8013 17.1127 73.8013C17.7349 73.8013 18.2535 73.938 18.7028 74.2114C19.1522 74.4849 19.4634 74.8267 19.7053 75.2368L18.7028 75.9205C18.5991 75.7496 18.4954 75.5787 18.3917 75.4419C18.2535 75.3052 18.1498 75.2027 17.9769 75.1343C17.8041 75.0659 17.7004 74.9976 17.5275 74.9634C17.3547 74.9292 17.2164 74.9292 17.0781 74.9292C16.767 74.9292 16.4559 74.9976 16.2485 75.1343C16.0411 75.271 15.7991 75.4419 15.6608 75.647C15.5226 75.8521 15.3843 76.0914 15.3152 76.3648C15.246 76.6382 15.1769 76.8775 15.1769 77.1509C15.1769 77.4244 15.2114 77.732 15.3152 77.9713C15.4189 78.2447 15.5571 78.484 15.6954 78.6891C15.8682 78.8941 16.0757 79.065 16.3176 79.1676C16.5596 79.3043 16.8362 79.3385 17.1127 79.3385C17.251 79.3385 17.4238 79.3043 17.5967 79.2701C17.7695 79.2359 17.9078 79.1676 18.046 79.0992C18.1843 79.0309 18.3226 78.9283 18.4609 78.7916C18.5991 78.6549 18.6683 78.5182 18.772 78.3473L19.8436 78.9625C19.7399 79.2018 19.6016 79.441 19.3942 79.6119C19.1868 79.7828 18.9794 79.9537 18.7374 80.0905C18.4954 80.2272 18.2189 80.3297 17.9423 80.3981C17.6658 80.4664 17.3893 80.5006 17.1127 80.5006C16.6287 80.5006 16.2139 80.3981 15.7991 80.193C15.4189 79.9879 15.0732 79.7487 14.7966 79.4069C14.5201 79.0992 14.2781 78.7232 14.1398 78.3131C14.0016 77.9029 13.8633 77.4928 13.8633 77.0826Z" fill="#2D2D2D"/>
<path d="M26.3411 79.2691V80.3971H21.709V73.8345H26.2374V74.9624H23.0226V76.5347H25.8226V77.5601H23.0226V79.2691H26.3411Z" fill="#2D2D2D"/>
<path d="M28.3809 80.3971V73.8345H29.6599V79.2691H33.0476V80.3971H28.3809Z" fill="#2D2D2D"/>
<path d="M34.8789 80.3971V73.8345H36.1579V79.2691H39.5456V80.3971H34.8789Z" fill="#2D2D2D"/>
<path d="M46.0116 79.2691V80.3971H41.4141V73.8345H45.9425V74.9624H42.7277V76.5347H45.5277V77.5601H42.7277V79.2691H46.0116Z" fill="#2D2D2D"/>
<path d="M49.3644 76.1929V80.3971H48.0508V73.8345H49.0533L52.5101 78.1412V73.8345H53.7891V80.3971H52.7521L49.3644 76.1929Z" fill="#2D2D2D"/>
<path d="M55.8281 77.0826C55.8281 76.6724 55.8973 76.2964 56.0355 75.8863C56.1738 75.5103 56.3812 75.1343 56.6578 74.8267C56.9343 74.5191 57.28 74.2798 57.6948 74.0747C58.1096 73.8696 58.559 73.8013 59.0776 73.8013C59.6998 73.8013 60.2183 73.938 60.6677 74.2114C61.1171 74.4849 61.4282 74.8267 61.6702 75.2368L60.6677 75.9205C60.564 75.7496 60.4603 75.5787 60.3566 75.4419C60.2529 75.3052 60.1146 75.2027 59.9418 75.1343C59.7689 75.0659 59.6652 74.9976 59.4924 74.9634C59.3195 74.9292 59.1813 74.9292 59.043 74.9292C58.7319 74.9292 58.4208 74.9976 58.2133 75.1343C58.0059 75.271 57.764 75.4419 57.6257 75.647C57.4874 75.8521 57.3491 76.0914 57.28 76.3648C57.2109 76.6382 57.1417 76.8775 57.1417 77.1509C57.1417 77.4244 57.1763 77.732 57.28 77.9713C57.3837 78.2447 57.522 78.484 57.6603 78.6891C57.8331 78.8941 58.0405 79.065 58.2825 79.1676C58.5245 79.3043 58.801 79.3385 59.0776 79.3385C59.2158 79.3385 59.3887 79.3043 59.5615 79.2701C59.7344 79.2359 59.8726 79.1676 60.0109 79.0992C60.1492 79.0309 60.2874 78.9283 60.4257 78.7916C60.564 78.6549 60.6331 78.5182 60.7368 78.3473L61.8085 78.9625C61.7048 79.2018 61.5665 79.441 61.3591 79.6119C61.1517 79.7828 60.9442 79.9537 60.7023 80.0905C60.4603 80.2272 60.1837 80.3297 59.9072 80.3981C59.6306 80.4664 59.3541 80.5006 59.0776 80.5006C58.5936 80.5006 58.1788 80.3981 57.764 80.193C57.3837 79.9879 57.038 79.7487 56.7615 79.4069C56.4849 79.0992 56.2429 78.7232 56.1047 78.3131C55.9664 77.9029 55.8281 77.4928 55.8281 77.0826Z" fill="#2D2D2D"/>
<path d="M68.3066 79.2691V80.3971H63.709V73.8345H68.2374V74.9624H64.988V76.5347H67.7881V77.5601H64.988V79.2691H68.3066Z" fill="#2D2D2D"/>
<path d="M77.9525 80.3971L77.4339 79.8502C77.1574 80.0553 76.8808 80.2262 76.5352 80.3287C76.224 80.4313 75.8784 80.4996 75.5672 80.4996C75.2216 80.4996 74.9104 80.4313 74.6339 80.3287C74.3574 80.2262 74.1154 80.0895 73.9425 79.9186C73.7351 79.7477 73.5969 79.5426 73.4932 79.3033C73.3894 79.0641 73.3203 78.8248 73.3203 78.5514C73.3203 78.3463 73.3549 78.1754 73.424 78.0045C73.4931 77.8336 73.5623 77.6627 73.666 77.5259C73.7697 77.3892 73.908 77.2525 74.0462 77.1158C74.1845 76.9791 74.3228 76.8765 74.4956 76.774C74.2191 76.4664 74.0462 76.2271 73.9425 76.022C73.8388 75.8169 73.7697 75.5777 73.7697 75.3384C73.7697 75.0991 73.8043 74.8941 73.908 74.689C74.0117 74.4839 74.1154 74.313 74.2882 74.1763C74.4611 74.0396 74.6339 73.937 74.8759 73.8687C75.1179 73.8003 75.3253 73.7661 75.6018 73.7661C75.8438 73.7661 76.0512 73.8003 76.2586 73.8687C76.466 73.937 76.6734 74.0054 76.8117 74.1421C76.9845 74.2788 77.0883 74.4155 77.192 74.5864C77.2957 74.7573 77.3302 74.9624 77.3302 75.2017C77.3302 75.5435 77.2265 75.8853 77.0191 76.1246C76.8117 76.3638 76.5352 76.6373 76.224 76.8765L77.5031 78.1754C77.6068 77.9703 77.6759 77.7652 77.7105 77.5259C77.7796 77.2867 77.7796 77.0474 77.7796 76.774H78.7821C78.7821 77.2183 78.713 77.5943 78.6093 77.9703C78.5055 78.3463 78.3673 78.6539 78.1944 78.9615L79.5772 80.3971H77.9525ZM75.7055 79.5084C76.0858 79.5084 76.466 79.3717 76.7771 79.1324L75.2561 77.5259C75.0487 77.6968 74.8759 77.8336 74.7376 78.0045C74.5993 78.1754 74.5648 78.3463 74.5648 78.5514C74.5648 78.6881 74.5993 78.7906 74.6339 78.9273C74.703 79.0641 74.7722 79.1666 74.8759 79.235C74.9796 79.3375 75.1179 79.4059 75.2561 79.44C75.3598 79.5084 75.5327 79.5084 75.7055 79.5084ZM74.9104 75.3042C74.9104 75.3726 74.9105 75.4068 74.945 75.4751C74.9796 75.5435 74.9796 75.5777 75.0487 75.646C75.1179 75.7144 75.1524 75.7827 75.2216 75.8511C75.2907 75.9195 75.3944 76.022 75.4981 76.1587C75.7401 75.9878 75.9129 75.8511 76.0512 75.7144C76.1895 75.5777 76.224 75.4068 76.224 75.27C76.224 75.1333 76.1549 74.9624 76.0512 74.8599C75.9475 74.7573 75.7747 74.7232 75.6018 74.7232C75.3944 74.7232 75.2561 74.7915 75.1179 74.8941C74.9796 74.9624 74.9104 75.1333 74.9104 75.3042Z" fill="#2D2D2D"/>
<path d="M84.6582 80.3971V73.8345H85.9372V80.3971H84.6582Z" fill="#2D2D2D"/>
<path d="M89.6697 76.1929V80.3971H88.3906V73.8345H89.3931L92.8499 78.1412V73.8345H94.129V80.3971H93.0919L89.6697 76.1929Z" fill="#2D2D2D"/>
<path d="M97.8279 76.1929V80.3971H96.5488V73.8345H97.5513L101.008 78.1412V73.8345H102.287V80.3971H101.25L97.8279 76.1929Z" fill="#2D2D2D"/>
<path d="M107.543 80.4323C107.059 80.4323 106.61 80.3297 106.229 80.1588C105.849 79.9879 105.503 79.7145 105.227 79.4068C104.95 79.0992 104.708 78.7574 104.57 78.3473C104.397 77.9371 104.328 77.5269 104.328 77.1168C104.328 76.6724 104.397 76.2623 104.57 75.8521C104.743 75.4419 104.95 75.1001 105.261 74.7925C105.538 74.4849 105.884 74.2456 106.299 74.0747C106.713 73.9038 107.128 73.8013 107.612 73.8013C108.096 73.8013 108.545 73.9038 108.926 74.1089C109.306 74.314 109.652 74.5532 109.928 74.8609C110.205 75.1685 110.412 75.5445 110.585 75.9204C110.723 76.3306 110.827 76.7408 110.827 77.1509C110.827 77.5953 110.758 78.0055 110.585 78.4156C110.412 78.8258 110.205 79.1676 109.928 79.4752C109.652 79.7828 109.306 80.0221 108.891 80.193C108.442 80.3639 108.027 80.4323 107.543 80.4323ZM105.642 77.1168C105.642 77.3902 105.676 77.6637 105.78 77.9371C105.884 78.2105 105.987 78.4498 106.16 78.6549C106.333 78.86 106.54 79.0309 106.782 79.1334C107.024 79.2701 107.301 79.3043 107.612 79.3043C107.923 79.3043 108.2 79.2359 108.442 79.0992C108.684 78.9625 108.891 78.7916 109.064 78.5865C109.237 78.3814 109.341 78.1422 109.444 77.8687C109.513 77.5953 109.583 77.356 109.583 77.0826C109.583 76.8091 109.548 76.5357 109.444 76.2623C109.341 75.9888 109.237 75.7496 109.064 75.5445C108.891 75.3394 108.684 75.1685 108.442 75.0659C108.2 74.9292 107.923 74.895 107.647 74.895C107.336 74.895 107.059 74.9634 106.817 75.1001C106.575 75.2368 106.368 75.4077 106.195 75.6128C106.022 75.8179 105.918 76.0572 105.815 76.3306C105.676 76.5699 105.642 76.8433 105.642 77.1168Z" fill="#2D2D2D"/>
<path d="M113.282 73.8345L115.079 78.7906L116.842 73.8345H118.19L115.598 80.3971H114.526L111.934 73.8345H113.282Z" fill="#2D2D2D"/>
<path d="M121.266 73.8345H122.406L124.93 80.3971H123.616L122.994 78.7564H120.678L120.056 80.3971H118.742L121.266 73.8345ZM122.752 77.8677L121.853 75.3042L120.885 77.8677H122.752Z" fill="#2D2D2D"/>
<path d="M131.014 74.9624H128.905V80.3971H127.626V74.9624H125.518V73.8345H131.048V74.9624H131.014Z" fill="#2D2D2D"/>
<path d="M132.881 80.3971V73.8345H134.16V80.3971H132.881Z" fill="#2D2D2D"/>
<path d="M139.449 80.4323C138.965 80.4323 138.516 80.3297 138.136 80.1588C137.755 79.9879 137.41 79.7145 137.133 79.4068C136.857 79.0992 136.615 78.7574 136.476 78.3473C136.304 77.9371 136.234 77.5269 136.234 77.1168C136.234 76.6724 136.304 76.2623 136.476 75.8521C136.649 75.4419 136.857 75.1001 137.168 74.7925C137.444 74.4849 137.79 74.2456 138.205 74.0747C138.62 73.9038 139.034 73.8013 139.518 73.8013C140.002 73.8013 140.452 73.9038 140.832 74.1089C141.212 74.314 141.558 74.5532 141.834 74.8609C142.111 75.1685 142.318 75.5445 142.491 75.9204C142.63 76.3306 142.733 76.7408 142.733 77.1509C142.733 77.5953 142.664 78.0055 142.491 78.4156C142.318 78.8258 142.111 79.1676 141.834 79.4752C141.558 79.7828 141.212 80.0221 140.797 80.193C140.348 80.3639 139.899 80.4323 139.449 80.4323ZM137.513 77.1168C137.513 77.3902 137.548 77.6637 137.652 77.9371C137.755 78.2105 137.859 78.4498 138.032 78.6549C138.205 78.86 138.412 79.0309 138.654 79.1334C138.896 79.2701 139.173 79.3043 139.484 79.3043C139.795 79.3043 140.071 79.2359 140.313 79.0992C140.555 78.9625 140.763 78.7916 140.936 78.5865C141.108 78.3814 141.212 78.1422 141.316 77.8687C141.385 77.5953 141.454 77.356 141.454 77.0826C141.454 76.8091 141.42 76.5357 141.316 76.2623C141.212 75.9888 141.108 75.7496 140.936 75.5445C140.763 75.3394 140.555 75.1685 140.313 75.0659C140.071 74.9292 139.795 74.895 139.518 74.895C139.207 74.895 138.931 74.9634 138.689 75.1001C138.447 75.2368 138.239 75.4077 138.066 75.6128C137.894 75.8179 137.79 76.0572 137.686 76.3306C137.548 76.5699 137.513 76.8433 137.513 77.1168Z" fill="#2D2D2D"/>
<path d="M146.017 76.1929V80.3971H144.738V73.8345H145.741L149.198 78.1412V73.8345H150.477V80.3971H149.44L146.017 76.1929Z" fill="#2D2D2D"/>
</g>
<defs>
<clipPath id="clip0">
<rect width="209" height="83.4" fill="white" transform="translate(0 0.75708)"/>
</clipPath>
</defs>
</svg>
