<?xml version="1.0" encoding="UTF-8"?>
<svg id="a" xmlns="http://www.w3.org/2000/svg" viewBox="0 0 349.71 298.66">
  <defs>
    <style>
      .cls-1 {
        fill: #fff;
      }
    </style>
  </defs>
  <path id="path55" class="cls-1" d="m177.83,227.99c.8,3.7,1.7,7.3,2.3,10.8h.4l1.9-2.5c.4,1,1.5,2.1.6,3.7-.2.2,0,.6,0,1,.2.6.2,1.2.6,2.3l.8-2.1.6.2,1.5,3.7.2-1c.2,0,.4,0,.4.2.4.4.8,1,1.2,1.7,1.7,2.1,3.9,3.1,6.2,3.7,2.1.6,4.4.8,6.6,1.2.2,0,.4,0,.6.2.4.6,1,1,1.9,1,.6,0,1.2,1,2.1,0,0,0,.4-.2.6,0,1.5,1,1.9,0,2.3-1l2.1.6.6-3.9c.8,1,1.2,1,1.7-.2.2-1,.8-1.9,1-2.9l1,2.1c1.5-1.2,1.9-2.7,1.9-4.6q0-1.5,1.7-1.2c-.6-1-.8-1.9.2-2.9.4-.4,0-1.5.2-2.1.4-1.7.4-3.5,1.7-5.2.6-.6,0-2.3,0-3.3,0-2.5-.2-5-.4-7.5,0-1.5-.4-2.9-.4-4.4v-2.9l.6-.2c.6,1.5,1.2,3.1,1.9,4.6,2.1,5,4.4,10,6,15.2,3.3,10,7.9,19.3,12,28.9,1.5,3.5,2.5,7.5,3.9,11.2.2.8,0,1.5-.8,2.1s-1.7,1.5-1.9,2.5c-.6,2.5-3.3,3.3-4.6,5.2-.2.2-.8,0-1,.2-.6.4-1.2.8-1.5,1.5,0,.4.4,1.5,1,1.7.8.2,1.9.4,2.7.2,1.5-.4,2.7-1,3.9-1.9,2.5-1.2,5-2.5,7.5-3.5.6-.2,1.9-.2,2.5.2,1.9,1,2.3.8,3.5-.8.2-.2,1.2-.4,1.7-.2,1.7,1,3.1,1.5,5,.6.8-.4,2.1,0,3.1,0,.6,0,1-.4,1.7-.4-.4-.4-.6-1-1-1.2-2.5-1.5-4.8-2.7-6.6-5-.6-.8-1.5-1.5-2.5-2.1-1.5-.8-2.3-2.1-2.5-3.7-1-6-2.1-11.8-3.1-17.6-.8-5.2-2.1-10.4-4.4-15.2-1.9-3.7-3.1-7.9-4.6-11.8-.8-2.1-1.9-4.2-2.5-6.2-.2-.6-.4-1.5-.2-2.1.8-2.1,0-3.9-.8-6-1.5-2.7-2.7-5.4-4.2-8.3-.4-.8-.4-1.9-.4-2.7,0-3.3-1-6.4-2.9-9.3-.4-.6-.8-1.5-.8-2.3-.6-4.8-2.3-9.3-4.2-13.7-.8-2.1-1.5-4.2-1.5-6.4-.2-4.6-.2-9.3-2.1-13.7-.6-1.2-1.2-2.7-1.7-3.9-.6-2.5-1.5-4.8-1.7-7.3-.2-10-2.1-19.7-6.4-28.9-.4-.8-.4-1.7.4-2.3,2.1-1.5,4.4-3.1,6.6-4.4,1.9-1,3.3-2.1,4.4-3.9.4-.8,1-1.5,1.5-2.3.4-.4.6-1,1.2-1,2.7-1,5.4-2.1,8.1-3.1,1.7-.6,2.5-2.1,2.1-3.7,0-.4.4-1,.8-1.2,2.3-1.5,4.8-2.9,7.1-4.4,1.5-1,2.9-2.1,2.7-4.4,0-.4.6-.8,1-1,1-.6,2.1-1.2,3.3-1.9,2.3-1.2,2.9-3.1,2.5-5.6-.4-1.7-.8-3.1-1.2-4.6,0-.4,0-1.2.2-1.5,9.3-8.3,18.1-17.4,25.1-27.8,1.9-2.7,4.6-3.9,6.9-6,.8-.6,2.3-.4,3.3-.6,2.5-.2,5.2-.6,7.7-.4,3.1.2,6.2,1,9.6,1.7,2.3.4,4.4.4,6.4-.6,0,0,.2,0,.2-.2,3.9-1.7,4.6-2.9,4.2-7.1-.8-5.8-6.2-10.8-12-11-5.4-.2-10.6-1.2-15.8-2.9-6.2-2.1-5.8-1.5-9.8,3.5-1,1.2-1.9,2.7-2.7,4.2-.8,1.7-1.5,3.3-2.1,5-.8,1.9-1.7,3.9-3.3,5.2-4.6,3.1-8.9,6.2-13.7,9.1-6.2,3.9-11.4,8.7-16,14.3-.4.6-1.5.8-2.1,1-1.2.6-2.5,1-3.5,1.9-1.7,1.5-3.3,2.5-5.2,3.5-2.3,1.2-4.6,2.9-6.6,4.8-3.9,3.7-8.3,6.4-13.3,8.5-2.9,1.2-6,2.9-8.3,5-2.9,2.5-6.4,4.2-9.6,6.2-4.6,2.9-9.1,6-13.5,9.1-1.7,1.2-3.5,1.7-5.6,1.7-4.2-.2-8.3-.4-12.5-.4-7.5-.2-14.7.6-21.8,2.5-3.9,1-7.7,1.7-11.8,1.5-1.7,0-3.5.4-5.2.4-2.1,0-4.2-.4-6-.8-3.3-.6-6.9-.8-10.4-.8-2.7,0-5.4.6-8.1.8-1,0-2.1,0-3.1-.4-7.1-2.7-14.5-3.9-22.2-3.9-7.3-.2-14.3,0-21.6-.2-1,0-2.1-.6-3.1-1-.4-.2-1-.4-1.5-.6-.2-.2-.6-.2-.8-.4-1-1-2.1-2.1-3.1-3.3-.6-.6-1-1.5-1.9-2.1-1.5-1.2-2.9-2.9-4.6-3.7-1-.4-2.7.2-3.9.6-3.1,1.2-6,3.1-9.1,4.2-2.1.6-4.2.6-6.4,1-3.9.6-7.9,1.7-11.2,3.9-2.5,1.7-4.2,3.7-5.2,6.4-1.7,5.4.8,8.3,6.4,10.2,5.4,1.9,10.2-.2,14.9-2.1,1.7-.6,3.3-.8,4.8-1.5,2.1-.8,4.4-.8,6.6-1,2.9-.4,5.6-.2,8.3.4,2.7.6,5.6.2,8.1,1,4.8,1.2,9.3,3.1,14.3,4.4,6.6,1.7,13.3,3.1,19.9,4.4,3.3.6,6.6.6,10,.8q2.3.2,2.5,2.5c0,1.7.2,3.1.4,4.8,0,1.7,1,2.5,2.5,2.7,2.9.4,5.6,1.2,8.5.4h1.2c3.3,1.7,6.9,1.5,10.2,1.2,1,0,1.7.2,1.9,1.2.2.8.8,1,1.7,1,1.9-.2,3.7-.2,5.6-.6,2.1-.4,3.9-.2,5.8.4,6.9,2.3,13.9,3.5,21,2.9.4,0,1,.4,1.5.8,1,1.5,1.9,3.1,2.9,4.6.8,1.2,1.9,2.5,2.9,3.9,2.3,2.9,1.9,6.2,1.2,9.8-.6,2.7-1.2,5.4-1.7,8.1-.2,2.3-.4,4.6,0,6.6.4,2.3.2,4.6-.2,6.6-1.2,6.2-2.5,12.5-3.3,18.9-.2,1.9.2,3.9.2,5.8v4.8c0,2.5-.4,5.4.2,7.7,1.2,3.9.6,7.7-.2,11.4-.4,2.5-1.2,5-.2,7.5.4,1-.2,2.3-.4,3.5-.2,3.1-.8,6.4-.8,9.6s-.4,6.4-1.2,9.6c-1.7,5.6-1,11.4-.8,17,.2,4.4.6,8.9.8,13.3,0,1.7,0,3.3-.2,5,0,.4-.4,1-.8,1.2-1,1-2.3,2.1-3.5,3.1-1,1-2.5,1.7-3.9,1.5-.8,0-1.9-.4-1.9.8s1,1.5,1.9,1.5c3.9,0,7.7-.2,11.4-.4,1.2,0,2.3.2,3.5.4,1.7.2,3.3.4,5,.2,3.5-.4,7.3-1,10.8-1.7.8-.2,2.1-.6,2.5-1.2,1-1.2.2-2.7-1.5-2.5-3.7.2-7.3-1.5-10.8-2.1-.8-.2-1.2-.6-1-1.7,1.2-8.9,1.7-17.9,3.9-26.8,1.7-6.2,2.3-12.5,2.7-18.7.2-2.9.6-5.6,1.2-8.5.8-.7,1.7-2,2.5-3.6h0Zm35.1-24.9h0c-1.2-.6-2.5-1.5-3.7-2.3-.2-.2-.4-.4-.6-.8.4,0,1-.2,1,0,1.2,1,2.3,2,3.3,3.1h0Zm-31.1,31.5l-.4.2-.4-2.9h.6l.2,2.7Z"/>
</svg>