<?xml version="1.0" encoding="UTF-8" standalone="no"?>
<svg
   id="Calque_1"
   data-name="Calque 1"
   viewBox="0 0 1754.1 670.62"
   version="1.1"
   sodipodi:docname="logo-La-Societe-Nouvelle.svg"
   inkscape:version="1.2.2 (732a01da63, 2022-12-09)"
   xmlns:inkscape="http://www.inkscape.org/namespaces/inkscape"
   xmlns:sodipodi="http://sodipodi.sourceforge.net/DTD/sodipodi-0.dtd"
   xmlns="http://www.w3.org/2000/svg"
   xmlns:svg="http://www.w3.org/2000/svg">
  <sodipodi:namedview
     id="namedview131"
     pagecolor="#ffffff"
     bordercolor="#000000"
     borderopacity="0.25"
     inkscape:showpageshadow="2"
     inkscape:pageopacity="0.0"
     inkscape:pagecheckerboard="0"
     inkscape:deskcolor="#d1d1d1"
     showgrid="false"
     inkscape:zoom="0.50966308"
     inkscape:cx="1675.6168"
     inkscape:cy="180.51141"
     inkscape:window-width="2560"
     inkscape:window-height="1334"
     inkscape:window-x="-11"
     inkscape:window-y="-11"
     inkscape:window-maximized="1"
     inkscape:current-layer="g92" />
  <defs
     id="defs4">
    <style
       id="style2">
      .cls-1 {
        fill: #fff;
      }

      .cls-2 {
        fill: #191558;
      }
    </style>
  </defs>
  <g
     id="g10">
    <path
       id="path55"
       class="cls-2"
       d="m777.31,607.38c.72,3.31,1.52,6.53,2.06,9.66h.36l1.7-2.24c.36.89,1.34,1.88.54,3.31-.18.18,0,.54,0,.89.18.54.18,1.07.54,2.06l.72-1.88.54.18,1.34,3.31.18-.89c.18,0,.36,0,.36.18.36.36.72.89,1.07,1.52,1.52,1.88,3.49,2.77,5.55,3.31,1.88.54,3.94.72,5.91,1.07.18,0,.36,0,.54.18.36.54.89.89,1.7.89.54,0,1.07.89,1.88,0,0,0,.36-.18.54,0,1.34.89,1.7,0,2.06-.89l1.88.54.54-3.49c.72.89,1.07.89,1.52-.18.18-.89.72-1.7.89-2.59l.89,1.88c1.34-1.07,1.7-2.42,1.7-4.12q0-1.34,1.52-1.07c-.54-.89-.72-1.7.18-2.59.36-.36,0-1.34.18-1.88.36-1.52.36-3.13,1.52-4.65.54-.54,0-2.06,0-2.95,0-2.24-.18-4.47-.36-6.71,0-1.34-.36-2.59-.36-3.94v-2.59l.54-.18c.54,1.34,1.07,2.77,1.7,4.12,1.88,4.47,3.94,8.95,5.37,13.6,2.95,8.95,7.07,17.27,10.74,25.86,1.34,3.13,2.24,6.71,3.49,10.02.18.72,0,1.34-.72,1.88s-1.52,1.34-1.7,2.24c-.54,2.24-2.95,2.95-4.12,4.65-.18.18-.72,0-.89.18-.54.36-1.07.72-1.34,1.34,0,.36.36,1.34.89,1.52.72.18,1.7.36,2.42.18,1.34-.36,2.42-.89,3.49-1.7,2.24-1.07,4.47-2.24,6.71-3.13.54-.18,1.7-.18,2.24.18,1.7.89,2.06.72,3.13-.72.18-.18,1.07-.36,1.52-.18,1.52.89,2.77,1.34,4.47.54.72-.36,1.88,0,2.77,0,.54,0,.89-.36,1.52-.36-.36-.36-.54-.89-.89-1.07-2.24-1.34-4.29-2.42-5.91-4.47-.54-.72-1.34-1.34-2.24-1.88-1.34-.72-2.06-1.88-2.24-3.31-.89-5.37-1.88-10.56-2.77-15.75-.72-4.65-1.88-9.31-3.94-13.6-1.7-3.31-2.77-7.07-4.12-10.56-.72-1.88-1.7-3.76-2.24-5.55-.18-.54-.36-1.34-.18-1.88.72-1.88,0-3.49-.72-5.37-1.34-2.42-2.42-4.83-3.76-7.43-.36-.72-.36-1.7-.36-2.42,0-2.95-.89-5.73-2.59-8.32-.36-.54-.72-1.34-.72-2.06-.54-4.29-2.06-8.32-3.76-12.26-.72-1.88-1.34-3.76-1.34-5.73-.18-4.12-.18-8.32-1.88-12.26-.54-1.07-1.07-2.42-1.52-3.49-.54-2.24-1.34-4.29-1.52-6.53-.18-8.95-1.88-17.63-5.73-25.86-.36-.72-.36-1.52.36-2.06,1.88-1.34,3.94-2.77,5.91-3.94,1.7-.89,2.95-1.88,3.94-3.49.36-.72.89-1.34,1.34-2.06.36-.36.54-.89,1.07-.89,2.42-.89,4.83-1.88,7.25-2.77,1.52-.54,2.24-1.88,1.88-3.31,0-.36.36-.89.72-1.07,2.06-1.34,4.29-2.59,6.35-3.94,1.34-.89,2.59-1.88,2.42-3.94,0-.36.54-.72.89-.89.89-.54,1.88-1.07,2.95-1.7,2.06-1.07,2.59-2.77,2.24-5.01-.36-1.52-.72-2.77-1.07-4.12,0-.36,0-1.07.18-1.34,8.32-7.43,16.2-15.57,22.46-24.88,1.7-2.42,4.12-3.49,6.17-5.37.72-.54,2.06-.36,2.95-.54,2.24-.18,4.65-.54,6.89-.36,2.77.18,5.55.89,8.59,1.52,2.06.36,3.94.36,5.73-.54,0,0,.18,0,.18-.18,3.49-1.52,4.12-2.59,3.76-6.35-.72-5.19-5.55-9.66-10.74-9.84-4.83-.18-9.48-1.07-14.14-2.59-5.55-1.88-5.19-1.34-8.77,3.13-.89,1.07-1.7,2.42-2.42,3.76-.72,1.52-1.34,2.95-1.88,4.47-.72,1.7-1.52,3.49-2.95,4.65-4.12,2.77-7.96,5.55-12.26,8.14-5.55,3.49-10.2,7.78-14.32,12.8-.36.54-1.34.72-1.88.89-1.07.54-2.24.89-3.13,1.7-1.52,1.34-2.95,2.24-4.65,3.13-2.06,1.07-4.12,2.59-5.91,4.3-3.49,3.31-7.43,5.73-11.9,7.61-2.59,1.07-5.37,2.59-7.43,4.47-2.59,2.24-5.73,3.76-8.59,5.55-4.12,2.59-8.14,5.37-12.08,8.14-1.52,1.07-3.13,1.52-5.01,1.52-3.76-.18-7.43-.36-11.18-.36-6.71-.18-13.15.54-19.51,2.24-3.49.89-6.89,1.52-10.56,1.34-1.52,0-3.13.36-4.65.36-1.88,0-3.76-.36-5.37-.72-2.95-.54-6.17-.72-9.31-.72-2.42,0-4.83.54-7.25.72-.89,0-1.88,0-2.77-.36-6.35-2.42-12.97-3.49-19.86-3.49-6.53-.18-12.8,0-19.33-.18-.89,0-1.88-.54-2.77-.89-.36-.18-.89-.36-1.34-.54-.18-.18-.54-.18-.72-.36-.89-.89-1.88-1.88-2.77-2.95-.54-.54-.89-1.34-1.7-1.88-1.34-1.07-2.59-2.59-4.12-3.31-.89-.36-2.42.18-3.49.54-2.77,1.07-5.37,2.77-8.14,3.76-1.88.54-3.76.54-5.73.89-3.49.54-7.07,1.52-10.02,3.49-2.24,1.52-3.76,3.31-4.65,5.73-1.52,4.83.72,7.43,5.73,9.13,4.83,1.7,9.13-.18,13.33-1.88,1.52-.54,2.95-.72,4.29-1.34,1.88-.72,3.94-.72,5.91-.89,2.59-.36,5.01-.18,7.43.36,2.42.54,5.01.18,7.25.89,4.29,1.07,8.32,2.77,12.8,3.94,5.91,1.52,11.9,2.77,17.81,3.94,2.95.54,5.91.54,8.95.72q2.06.18,2.24,2.24c0,1.52.18,2.77.36,4.29,0,1.52.89,2.24,2.24,2.42,2.59.36,5.01,1.07,7.61.36h1.07c2.95,1.52,6.17,1.34,9.13,1.07.89,0,1.52.18,1.7,1.07.18.72.72.89,1.52.89,1.7-.18,3.31-.18,5.01-.54,1.88-.36,3.49-.18,5.19.36,6.17,2.06,12.44,3.13,18.79,2.59.36,0,.89.36,1.34.72.89,1.34,1.7,2.77,2.59,4.12.72,1.07,1.7,2.24,2.59,3.49,2.06,2.59,1.7,5.55,1.07,8.77-.54,2.42-1.07,4.83-1.52,7.25-.18,2.06-.36,4.12,0,5.91.36,2.06.18,4.12-.18,5.91-1.07,5.55-2.24,11.18-2.95,16.91-.18,1.7.18,3.49.18,5.19v4.29c0,2.24-.36,4.83.18,6.89,1.07,3.49.54,6.89-.18,10.2-.36,2.24-1.07,4.47-.18,6.71.36.89-.18,2.06-.36,3.13-.18,2.77-.72,5.73-.72,8.59s-.36,5.73-1.07,8.59c-1.52,5.01-.89,10.2-.72,15.21.18,3.94.54,7.96.72,11.9,0,1.52,0,2.95-.18,4.47,0,.36-.36.89-.72,1.07-.89.89-2.06,1.88-3.13,2.77-.89.89-2.24,1.52-3.49,1.34-.72,0-1.7-.36-1.7.72s.89,1.34,1.7,1.34c3.49,0,6.89-.18,10.2-.36,1.07,0,2.06.18,3.13.36,1.52.18,2.95.36,4.47.18,3.13-.36,6.53-.89,9.66-1.52.72-.18,1.88-.54,2.24-1.07.89-1.07.18-2.42-1.34-2.24-3.31.18-6.53-1.34-9.66-1.88-.72-.18-1.07-.54-.89-1.52,1.07-7.96,1.52-16.02,3.49-23.98,1.52-5.55,2.06-11.18,2.42-16.73.18-2.59.54-5.01,1.07-7.61.72-.63,1.52-1.79,2.24-3.22h0Zm31.41-22.28h0c-1.07-.54-2.24-1.34-3.31-2.06-.18-.18-.36-.36-.54-.72.36,0,.89-.18.89,0,1.07.89,2.06,1.79,2.95,2.77h0Zm-27.83,28.19l-.36.18-.36-2.59h.54l.18,2.42Z" />
    <path
       id="path57"
       class="cls-2"
       d="m347.1,349.5c-20.58.89-26.4-16.55-26.4-16.55,25.23-4.3,26.4,16.55,26.4,16.55Zm-20.04.72s-.89,18.43,18.79,24.88c-.09,0,6.26-19.86-18.79-24.88Zm-19.33,19.33s-.89,18.43,18.79,24.88c-.09,0,6.26-19.69-18.79-24.88Zm-6.53,10.02s-9.13,16.02,5.55,30.69c0-.09,14.5-14.94-5.55-30.69Zm11.9-40.89s-8.59,16.37,6.53,30.51c.18,0,14.05-15.48-6.53-30.51Zm244.1,41.07s5.73,17.45,26.4,16.55c0-.18-1.16-20.85-26.4-16.55Zm6.35,17.09s-.89,18.43,18.79,24.88c-.09,0,6.26-19.69-18.79-24.88Zm125.54-115.52s5.73,17.45,26.4,16.55c0-.27-1.34-20.85-26.4-16.55Zm6.35,17.27s-.89,18.43,18.79,24.88c-.09-.18,6.26-19.86-18.79-24.88Zm-118.92,61.65s5.73,17.45,26.4,16.55c.18,0-1.16-20.85-26.4-16.55Zm6.53,17.27s-.89,18.43,18.79,24.88c-.27,0,6.08-19.69-18.79-24.88Zm-33.47,7.78s-8.59,16.37,6.53,30.51c.18,0,14.05-15.3-6.53-30.51Zm117.04-86.53s5.73,17.45,26.4,16.55c0,0-1.16-20.85-26.4-16.55Zm6.26,17.27s-.89,18.43,18.79,24.88c0,0,6.35-19.86-18.79-24.88Zm-13.87-11.54s-8.59,16.37,6.53,30.51c.18,0,14.05-15.48-6.53-30.51Zm-12.62,12.62s-10.74,20.58,8.32,38.48c0,0,17.63-19.33-8.32-38.48Zm-58.34-138.6s5.73,17.45,26.4,16.55c-.09-.18-1.34-20.76-26.4-16.55Zm6.26,17.09s-.89,18.43,18.79,24.88c0,.09,6.35-19.6-18.79-24.88Zm-13.87-11.27s-8.59,16.37,6.53,30.51c-.09-.27,14.05-15.48-6.53-30.51Zm-34.99-86.44s8.59,16.37,28.81,12.08c-.18,0-4.65-20.22-28.81-12.08Zm8.95,16.02s2.06,18.16,22.46,21.56c0,.18,3.13-20.49-22.46-21.56Zm-15.66-9.13s-5.73,17.45,11.36,28.99c0,0,11.54-17.27-11.36-28.99Zm-166.07,69.88s12.8,5.55,22.82-6.71c.27,0-12.17-9.84-22.82,6.71Zm13.06,5.19s10.02,9.84,23.8,2.06c-.09,0-8.05-13.78-23.8-2.06Zm-13.6,2.06s4.83,13.15,20.58,11.9c.09-.18-1.43-16.02-20.58-11.9Zm13.6-70.96s-2.59-13.78-18.43-15.21c0-.09-1.25,15.75,18.43,15.21Zm-3.22-13.78s2.59-13.78-11.72-20.85c.27,0-6.62,14.32,11.72,20.85Zm9.48,10.2s8.14-11.54-1.88-23.8c0,0-12.26,10.29,1.88,23.8Zm17.27-9.84s12.8,5.55,22.82-6.71c.09.27-12.35-9.84-22.82,6.71Zm13.06,5.19s10.02,9.84,23.8,2.06c-.09.18-8.05-13.51-23.8-2.06Zm-13.78,2.06s4.83,13.15,20.58,11.9c.27,0-1.43-15.75-20.58-11.9Zm17.81,35.88s13.96-1.88,16.2-17.45c0,0-15.84-2.24-16.2,17.45Zm13.78-4.65s13.78,3.31,21.39-10.56c.18.18-13.78-7.43-21.39,10.56Zm-10.56,11.18s10.92,8.77,23.8-.54c-.09-.09-9.57-12.88-23.8.54Zm42.32,52.17s-4.12-11.72-18.16-10.74c0,0,1.07,14.05,18.16,10.74Zm-5.01-12.97s.36-14.14-14.67-18.79c-.18,0-4.65,15.21,14.67,18.79Zm10.74,8.5s6.35-12.62-5.55-23.26c0,.09-10.38,11.9,5.55,23.26Zm-204.55-84.92s-7.61,11.9,2.95,23.8c.09,0,11.72-10.74-2.95-23.8Zm-25.77-7.78s-11.36,8.14-5.91,23c.09.27,15.03-5.55,5.91-23Zm.18.36s-13.15-4.83-22.46,7.96c0,.09,12.97,9.13,22.46-7.96Zm-67.83,43.13s12.8-5.73,10.56-21.39c0-.18-15.75,2.42-10.56,21.39Zm11.9-9.84s14.14,0,18.43-15.21c0,0-15.3-4.12-18.43,15.21Zm-19.69-1.7s-.54-14.14-16.02-17.63c0-.18-3.31,15.39,16.02,17.63Zm7.78,11.18s11.9,7.43,23.62-3.13c0-.09-10.83-11.72-23.62,3.13Zm-1.25,30.42s-13.78-2.95-21.21,10.92c0,.09,14.14,7.34,21.21-10.92Zm-15.48.54s-11.36-8.32-23.8,1.34c0,.18,9.93,12.62,23.8-1.34h0Zm15.21-.36s-5.19-12.97-21.03-11.54c.09.09,1.97,15.84,21.03,11.54Zm7.52-24.16s2.77,13.78,18.61,14.85c-.09.27,1.07-15.75-18.61-14.85Zm37.67-21.47s2.77,13.78,18.61,14.85c0,0,.89-15.84-18.61-14.85Zm42.77-21.92s-13.78,2.77-15.03,18.61c-.09-.09,15.93.89,15.03-18.61Zm9.4,287.76s-.54,18.43,19.15,24.52c0,0,6-19.86-19.15-24.52Zm-7.96,15.39s-12.97,12.97-2.77,31.05c0,0,17.81-10.65,2.77-31.05h0Zm-7.25-2.59s-18.43-1.07-25.23,18.43c0-.09,19.69,6.44,25.23-18.43Zm4.29-7.25s-11.54-14.32-30.51-5.91c0,0,8.41,18.88,30.51,5.91Zm4.83-20.4s-11.54-14.32-30.51-5.91c0-.09,8.41,18.7,30.51,5.91Zm16.91-13.06s-8.77-10.56-22.82-4.47c-.09-.18,6.26,14.14,22.82,4.47Zm7.07-6.89s-2.59-18.97-23.98-21.92c.18,0-2.59,21.39,23.98,21.92Zm-.54-14.23s6.17-17.99-11.54-30.24c-.18-.09-12.08,17.72,11.54,30.24Zm-26.04-15.3s4.83-13.96-8.95-23.26c0,.09-9.13,13.78,8.95,23.26Zm-1.7,19.33s4.83-13.96-8.95-23.26c0,.09-9.04,13.78,8.95,23.26Zm-20.94-11.72s13.15-12.08,4.12-30.06c-.09,0-17.9,9.31-4.12,30.06Zm-25.68-19.33s17.63,2.95,26.22-15.21c0,0-18.25-8.32-26.22,15.21Zm-21.21-5.55s-9.48,15.03,3.94,30.06c0,.09,14.85-13.69-3.94-30.06Zm-22.28,18.43s-1.07,17.81,17.81,24.52c.09,0,6.35-19.15-17.81-24.52Zm-14.14,22.1s9.48,15.21,28.81,9.48c0,0-5.91-19.33-28.81-9.48Zm8.59,23.8s13.15,12.08,30.24,1.52c0-.09-10.74-17.18-30.24-1.52Zm-.36,8.5s2.95,17.63,22.82,19.86c0,0,2.06-20.04-22.82-19.86Zm-5.01,7.25s-7.78,13.78,4.65,26.58c0,0,12.62-12.8-4.65-26.58Zm-17.09,14.5s-7.78,13.78,4.65,26.58c.18,0,12.8-12.8-4.65-26.58Zm-6.53,11.54s-10.56,4.83-8.59,17.99c.09,0,13.06-2.24,8.59-17.99Zm3.76-16.55s-15.75.18-20.4,17.45c-.09,0,17.36,4.29,20.4-17.45h0Zm9.22-17.63s-4.29-15.21-22.1-15.21c0-.09.18,17.81,22.1,15.21Zm-18.88,11.9s8.77-13.15-2.95-26.75c.09,0-13.42,11.81,2.95,26.75Zm-32.39,16.64s8.77-13.15-2.95-26.75c.18,0-13.33,11.9,2.95,26.75Zm-22.64-1.07s14.32-6.71,11.36-24.34c0,0-17.72,3.13-11.36,24.34Zm-18.43-15.39s15.57,2.42,23-13.96c.09.18-16.29-7.07-23,13.96Zm8.95-27.11s7.96,13.78,25.23,9.31c0,.09-4.56-17.36-25.23-9.31Zm21.03-19.95s-7.25,14.14,5.73,26.4c0,0,12.08-13.33-5.73-26.4Zm32.3-14.85s-12.62,9.48-6.17,26.22c0,0,16.73-6.71,6.17-26.22Zm31.05-35.79s-12.62,9.48-6.17,26.22c0,.09,16.55-6.71,6.17-26.22Zm-7.25-2.68s-15.75,1.7-18.61,19.33c0,0,17.63,2.86,18.61-19.33Zm-45.37,9.13s-15.75,1.7-18.61,19.33c.09,0,17.72,2.77,18.61-19.33Zm-.72.36s-14.67-5.91-25.68,8.14c0,.09,14.5,10.83,25.68-8.14Zm-16.91-11.27s-14.67-5.91-25.68,8.14c0,.18,14.32,11.01,25.68-8.14Zm-12.08-23.44s-13.6,1.7-15.75,16.91c-.27,0,15.21,2.06,15.75-16.91Zm-1.88-2.95s-13.6-11.54-30.06-.36c0,0,11.27,16.55,30.06.36Zm-23-20.04s-17.63-1.7-24.88,16.91c0,0,18.7,7.07,24.88-16.91h0Zm21.12-36.78s-16.37,6.89-13.78,26.75c.27,0,19.95-3.04,13.78-26.75Zm-37.13,0s-.54,17.63,18.43,23.8c0-.09,5.73-19.24-18.43-23.8Zm-19.33,30.96s12.8,12.26,29.89,2.06c.09,0-10.2-17.09-29.89-2.06Zm-4.47-14.85s9.84,9.66,23.44,1.88c0,.18-7.96-13.42-23.44-1.88Zm58.97,14.5s13.78.18,18.16-14.67c-.18,0-15.03-4.29-18.16,14.67Zm15.57,15.84s13.78.18,18.16-14.67c0-.18-15.03-4.3-18.16,14.67Zm6.17,8.5s14.32,8.77,28.1-4.29c-.09,0-13.24-13.51-28.1,4.29Zm43.58,8.95s14.85-7.61,11.18-26.04c0,0-18.43,3.94-11.18,26.04Zm53.51,16.11s-4.65-16.02-23.44-16.02c-.09.09.27,19.06,23.44,16.02h0Zm-53.51-16.29s16.55,2.42,24.16-14.85c0,0-17.45-7.43-24.16,14.85Zm88.14-.98s-11.9-11.72-28.28-2.24c0,0,9.66,16.37,28.28,2.24Zm0,0s-2.95-16.37-21.92-17.99c0,0-1.52,18.79,21.92,17.99Zm-28.63,12.88s2.06-13.78-12.44-20.04c0-.27-6.17,14.23,12.44,20.04Zm42.5-8.59s2.06-13.78-12.44-20.04c0,0-6.08,14.5,12.44,20.04Zm68.72,14.5s3.13-16.37-13.78-24.88c.09,0-8.14,17.09,13.78,24.88Zm38.65.36s-5.37-15.75-24.16-14.85c0,0,1.34,18.97,24.16,14.85Zm0,0s4.65-16.02-11.36-26.04c.09.09-9.75,16.2,11.36,26.04Zm-31.14-1.61s7.96-11.36-1.88-23.62c0,0-12.08,10.2,1.88,23.62Zm41.61,11.63s7.25-10.2-1.7-21.21c0,.09-11.01,9.13,1.7,21.21Zm13.69,7.25s9.66-13.78-2.24-28.45c0,.09-14.67,12.35,2.24,28.45Zm-64.07-36.95s7.96-11.36-1.88-23.62c0,0-12.08,10.29,1.88,23.62Zm-41.79-186.12s5.37-15.75-10.38-26.4c.18,0-10.29,15.75,10.38,26.4Zm38.21,5.37s-3.13-16.37-22.1-17.81c.27,0-1.07,18.88,22.1,17.81Zm0,0s6.71-15.21-7.78-27.29c0,0-11.9,14.67,7.78,27.29Zm-30.6-5.73s9.48-10.2,1.07-23.62c0,0-13.33,8.5-1.07,23.62Zm39.73,17.09s9.48-10.2,1.07-23.62c.09,0-13.15,8.5-1.07,23.62Zm-73.01,127.06s2.06-13.78-12.44-20.04c0,0-6.08,14.41,12.44,20.04Zm-3.31-19.33s1.7-10.92-9.84-16.2c-.18,0-5.01,11.54,9.84,16.2Zm17.45,19.86s13.6-3.31,13.96-19.15c0,0-15.66-.18-13.96,19.15Zm22.1,16.73s.72,13.96,16.2,17.27c0,0,3.31-15.39-16.2-17.27Zm5.82-4.3s9.48,10.2,23.44,2.95c-.09,0-7.34-13.87-23.44-2.95Zm1.25-6.08s13.96,0,18.16-15.03c.09-.27-15.21-4.29-18.16,15.03Zm19.51-1.52s5.73,6.35,14.5,1.88c-.18,0-4.65-8.77-14.5-1.88Zm.72-3.94s8.59,0,11.18-9.31c0,.09-9.48-2.33-11.18,9.31Zm25.32,39.82s6.89-5.01,3.49-14.14c0,0-9.13,3.49-3.49,14.14Zm-3.76-1.34s.89-8.59-7.96-12.26c.18.18-3.58,9.13,7.96,12.26Zm10.2-93.77s10.38-2.95,10.2-15.21c.09-.27-12.17.09-10.2,15.21Zm11.18,22.46s7.61-7.78,1.34-18.43c.18,0-10.47,6.35-1.34,18.43Zm0-.18s10.56-2.06,11.72-14.32c0,.18-12.26-.72-11.72,14.32Zm-8.32-18.43s8.95,1.34,12.97-8.14c.18,0-9.31-3.94-12.97,8.14Zm10.2-21.92s8.95,1.34,12.97-8.14c0,.18-9.48-3.94-12.97,8.14Zm85.63,92.52s6.17-4.47,3.13-12.44c0,.18-7.96,3.13-3.13,12.44Zm-3.13-.89s.89-7.43-6.89-10.74c-.18-.09-3.4,7.96,6.89,10.74Zm-32.21-40.89s5.37,5.37,12.62,1.07c.27.09-4.03-7.16-12.62-1.07Zm.63-3.31s7.43-.18,9.48-8.59c.18,0-8.23-1.88-9.48,8.59Zm2.42-56.91s-4.29,6.17,1.34,12.62c-.09.27,6.26-5.37-1.34-12.62Zm3.31,0s1.7,7.25,10.2,7.78c0,.09.36-8.5-10.2-7.78Zm11.9-21.47s7.25-1.7,7.61-10.2c0,.09-8.32-.27-7.61,10.2Zm-2.59.18s3.76-6.53-2.24-12.62c0-.09-6,6.08,2.24,12.62Zm14.5,87.69s3.49-17.81-14.85-26.93c0,0-8.95,18.34,14.85,26.93Zm41.97.54s-5.73-17.09-26.22-16.2c0,0,1.34,20.49,26.22,16.2Zm-34-1.88s8.77-12.26-2.06-25.68c0,.09-13.15,11.01,2.06,25.68Zm-9.48-19.51s8.77-12.26-2.06-25.68c0,.09-12.97,11.01,2.06,25.68Zm23.26-1.34s7.43-5.37,3.94-15.21c-.09-.18-9.93,3.76-3.94,15.21Zm-4.12-1.25s1.07-9.31-8.59-13.15c0-.27-3.85,9.66,8.59,13.15Zm59.06-126.7s-11.18-8.95-24.16.54c.18,0,9.66,12.8,24.16-.54Zm15.66-28.99s-13.96-2.24-20.58,12.44c-.27,0,14.41,6.53,20.58-12.44Zm-13.6,22.82s-5.37-10.56-18.61-7.78c0,0,3.04,13.24,18.61,7.78Zm-17.09-.36s-5.37-10.56-18.61-7.78c.18,0,3.04,12.97,18.61,7.78Zm7.61-16.73s-1.07-7.25-9.31-8.14c0,0-.89,8.14,9.31,8.14Zm-2.42,2.42s-5.91-4.12-12.26,1.07c0,.09,5.37,6.35,12.26-1.07Zm-14.14,112.65s-9.48-9.66-22.82-2.24c0,0,7.61,13.33,22.82,2.24Zm18.07-25.5s-12.97-3.76-21.03,9.31c0,0,13.24,7.78,21.03-9.31Zm-15.48,20.04s-3.94-10.56-16.55-9.48c-.09.09,1.16,12.71,16.55,9.48Zm-6.98-17.27s-.18-6.89-7.78-8.77c-.09.09-1.88,7.7,7.78,8.77Zm-2.68,1.88s-5.19-4.65-11.72-.36c.09.18,4.56,6.71,11.72.36Zm-112.92,142.27s6.89-5.01,3.49-14.14c.09.09-8.86,3.4-3.49,14.14Zm-3.49-1.25s.89-8.59-7.96-12.26c-.09,0-3.58,9.13,7.96,12.26Zm-80.08-36.24s8.77-14.5-4.47-28.28c0,0-13.6,13.42,4.47,28.28Zm-111.67-39.37s-2.95-13.6-18.79-14.5c0,0-.72,15.75,18.79,14.5Zm-5.01,5.19s-10.92-8.59-23.62.72c0,0,9.48,12.71,23.62-.72Zm-36.06,69.88s-10.92-8.59-23.62.72c0,0,9.48,12.62,23.62-.72Zm42.95-68.54s-13.78,2.24-15.57,17.81c-.09-.18,15.57,1.52,15.57-17.81Zm155.69,14.23s8.77-14.5-4.47-28.28c0-.09-13.78,13.24,4.47,28.28Zm-20.13-10.92s14.67-8.14,10.38-26.75c.09,0-18.52,4.65-10.38,26.75Zm-18.52,10.02s14.67-8.14,10.38-26.75c0,0-18.61,4.65-10.38,26.75Zm-16.02-14.32s13.6.54,18.43-14.14c0-.18-14.85-4.56-18.43,14.14Zm-7.43-9.66s14.5-7.43,10.74-25.41c.27,0-17.81,3.85-10.74,25.41Zm-8.5-5.01s16.2-1.88,18.97-20.04c.18-.18-18.25-2.77-18.97,20.04Zm-11.18-11.27s16.2-1.88,18.97-20.04c0-.09-18.25-2.68-18.97,20.04Zm-10.74-2.06s11.54-11.54,2.42-27.47c0-.27-16.02,9.22-2.42,27.47Zm-17.27-25.68s8.77,4.65,16.37-3.49c-.09-.18-8.23-7.61-16.37,3.49Zm-14.85,56.28s15.57,2.24,22.64-14.14c0,0-16.37-6.8-22.64,14.14Zm-7.25,8.77s10.56,11.54,26.4,3.49c.09,0-8.05-15.75-26.4-3.49Zm-4.29-7.25s9.84-1.07,11.72-12.26c0,0-11.18-1.7-11.72,12.26Zm-25.32-63.35s-12.44-9.66-26.75.89c0-.18,10.83,14.14,26.75-.89Zm10.65-4.12s-3.31-15.39-21.21-16.37c0,.09-.72,17.9,21.21,16.37Zm0,8.41s-9.13-3.94-16.2,4.83c0,0,8.77,7.07,16.2-4.83Zm36.42,40.8s11.9-10.92,3.49-26.93c0,0-15.93,8.59-3.49,26.93Zm-26.93-72.57s11.9-10.74,3.49-26.93c0-.27-15.93,8.32-3.49,26.93Zm67.74,108.27s8.95-16.55-6.53-31.23c.09,0-14.41,15.48,6.53,31.23ZM12.44,207.5s.72,13.78,16.02,17.09c0,0,3.13-15.21-16.02-17.09h0Zm90.73,100.93s-3.31,8.59,4.83,14.67c.18,0,6.08-8.41-4.83-14.67Zm2.59-1.7s6.71,10.2,19.86,6.17c0,0-4.29-13.24-19.86-6.17Zm-36.78,50.56s3.31,10.38,15.57,10.02c0-.18-.54-12.44-15.57-10.02Zm108.99-119.28s-11.18,8.32-5.37,23c0,0,14.5-5.91,5.37-23Zm-11.27,16.11s-8.95,6.71-4.47,18.43c.18-.18,11.9-4.83,4.47-18.43Zm-29.98-6.44s-13.15-4.29-21.92,8.77c0,.09,13.24,8.68,21.92-8.77h0Zm-19.69,0s-10.56-3.49-17.45,7.07c0,0,10.65,6.8,17.45-7.07Zm51.72-21.03s-13.15-4.47-22.1,8.59c0,0,13.15,8.68,22.1-8.59Zm.89,5.19s-17.99,5.37-17.45,26.58c0,.18,21.21-.54,17.45-26.58Zm129.12-73.91s-12.26-6.71-23.26,4.83c0,0,11.54,10.74,23.26-4.83Zm-31.41-15.57s-9.84-5.19-18.61,3.94c0-.09,9.31,8.5,18.61-3.94Zm37.76,2.42s-1.52-13.96-17.09-16.37c0,0-2.42,15.57,17.09,16.37h0Zm-4.47,2.95s-12.62-13.96-31.59-4.65c.18,0,9.66,18.97,31.59,4.65Zm153.64,89.12s-10.02-9.66-23.62-1.52c0,.09,8.41,13.42,23.62,1.52Zm-17.63-8.32s-8.14-7.61-18.79-1.34c-.18,0,6.26,10.83,18.79,1.34Zm-22.19,26.75s-2.77-10.74-15.21-11.18c0,0-.18,12.62,15.21,11.18Zm-30.06-54.22s-2.06-8.14-11.54-8.32c0-.09-.18,9.4,11.54,8.32Zm74.54,26.75s-6.35-12.44-21.74-9.48c0,0,3.13,15.39,21.74,9.48Zm-27.11-187.82s-7.07,12.08,3.94,23.62c-.09-.09,11.27-11.36-3.94-23.62Zm40.62,10.74s.36-14.14-14.67-18.79c0,0-4.65,15.3,14.67,18.79Zm-60.58,28.01s3.49-17.81-14.85-26.93c0,0-8.86,18.43,14.85,26.93Zm-13.51-.54s-5.73-17.09-26.22-16.2c0,.09,1.52,20.49,26.22,16.2Zm23.18,4.12s8.77-12.44-2.06-25.68c.09,0-13.15,11.01,2.06,25.68Zm30.69-16.73s8.77-12.44-2.06-25.68c-.18.27-13.15,11.18,2.06,25.68Zm-11.72,11.54s7.43-5.37,3.94-15.21c-.18-.27-9.84,3.67-3.94,15.21Zm-4.12-1.34s1.07-9.31-8.59-13.15c.09-.18-3.85,9.66,8.59,13.15Zm-21.47,9.84s-8.14-7.61-18.79-1.34c-.18.27,6.53,10.83,18.79,1.34Zm32.3,3.22s-6.35-12.44-21.74-9.48c.18,0,3.31,15.39,21.74,9.48Zm2.59,27.83s19.69-2.42,22.82-24.52c0,.18-22.1-2.95-22.82,24.52Zm9.31-35.88s11.36,12.08,27.65,3.31c0,.09-8.68-16.29-27.65-3.31Zm-.98-2.59s10.02-7.07,5.37-19.86c.09,0-12.97,4.65-5.37,19.86Zm-11.1,21.92s8.77-2.24,8.77-12.44c.09,0-10.11,0-8.77,12.44Zm63.71,8.77s-15.75-2.95-23.98,13.15c0,0,16.37,7.78,23.98-13.15Zm-22.64,2.77s-12.62-2.42-19.15,10.56c0,0,13.15,6.35,19.15-10.56Zm24.88-19.69s-6.53-14.67-24.52-12.26c.18,0,2.77,17.99,24.52,12.26Zm-3.76,5.01s-18.61-11.18-36.42,5.73c0-.18,17.09,17.45,36.42-5.73Zm-148.98,54.05s0-16.2-17.45-21.03c0,.09-4.65,17.72,17.45,21.03Zm-10.74-23.18s0-12.8-13.96-16.73c-.18,0-3.94,14.14,13.96,16.73Zm26.22,15.39s13.15-9.13,7.43-26.4c0,.18-17.36,6.35-7.43,26.4Zm-7.07,1.07s7.43-20.4-12.44-34.72c0,.18-14.14,20.22,12.44,34.72Zm152.65,44.47s7.61,13.6,24.7,9.48c0-.09-4.21-17.18-24.7-9.48Zm16.2,14.85s6.17,10.92,19.69,7.61c0,0-3.31-13.78-19.69-7.61Zm-28.99-.63s-6.89,13.96,6.17,25.68c.18,0,11.63-13.15-6.17-25.68Zm5.01-5.91s3.31,20.85,26.93,23.44c-.18,0,2.24-23.62-26.93-23.44Zm37.49,110.15s-21.03-2.95-30.51,18.97c.09,0,22.19,9.31,30.51-18.97Zm-1.97-49.03s-19.69,7.78-17.09,31.59c0,0,23.53-2.77,17.09-31.59Zm0,.18s-20.58-4.83-32.12,16.02c-.09,0,20.94,11.27,32.12-16.02Zm0,39.55s-14.85-9.48-29.71,4.12c-.09-.18,13.51,14.5,29.71-4.12Zm12.08-53.51s-13.33-8.32-26.75,3.49c0,.09,12.26,13.24,26.75-3.49Zm8.14-17.81s-17.99-11.36-35.7,4.83c-.18,0,16.37,17.63,35.7-4.83Zm-42.59,83.57s-14.85-9.48-29.71,4.12c.18-.18,13.78,14.5,29.71-4.12Zm-49.21,70.06s-5.19-16.91-25.05-16.37c0,0,.72,19.95,25.05,16.37Zm19.69-29.17s17.45-1.88,20.85-21.56c0,0-19.86-2.95-20.85,21.56Zm-5.91-6.89s12.26-12.62,2.24-29.89c0,0-17.09,10.38-2.24,29.89h0Zm-7.78-1.07s-.89-17.63-20.4-21.92c-.09,0-4.12,19.51,20.4,21.92Zm-3.22-24.52s7.61-7.78,1.34-18.43c0,0-10.38,6.35-1.34,18.43Zm-4.83-.72s-.54-10.74-12.44-13.6c-.18.18-2.59,12.08,12.44,13.6Zm48.32-34.63s-6.89-8.32-17.99-3.49c0,0,5.01,11.18,17.99,3.49Zm-1.25,4.65s-10.74-.72-14.85,10.74c0,.09,11.63,4.12,14.85-10.74Zm7.78-46.62s-6.89-8.32-17.99-3.49c0,0,5.01,11.27,17.99,3.49Zm-1.34,4.83s-10.74-.72-14.85,10.74c0,.09,11.72,3.94,14.85-10.74Zm-40.27,103.53s-18.97-10.02-35.52,7.43c0,0,17.9,16.46,35.52-7.43Zm-26.75-56.73s-18.97-10.02-35.52,7.43c0,0,17.9,16.55,35.52-7.43Zm-12.44,26.04s-11.36-18.16-34.36-11.36c0,0,7.07,23.26,34.36,11.36Zm14.14,22.82s-11.36-18.16-34.36-11.36c-.27.09,6.8,23.26,34.36,11.36Zm-17.36,21.03s-.36-17.27-19.15-22.1c.09,0-4.56,18.97,19.15,22.1Zm28.28-102.36s-13.96,10.74-6.53,29.17c0,0,18.43-7.61,6.53-29.17Zm8.59,2.77s-3.94,17.27,13.6,26.75c.09,0,9.4-17.63-13.6-26.75Zm4.38-2.95s8.32,12.26,24.34,6.89c.18.18-5.37-15.84-24.34-6.89Zm-4.83-2.95s21.39-1.34,26.4-24.88c0,.18-23.8-4.65-26.4,24.88Zm79.73,35.43s14.67-9.48,8.77-28.28c0,.09-18.79,6.17-8.77,28.28Zm0-.18s17.45.54,23.26-18.16c0,.18-18.79-5.64-23.26,18.16Zm-6.53-31.77s13.6,5.19,23.26-7.96c0-.18-13.15-9.66-23.26,7.96Zm-.89,45.01s12.26,4.65,21.03-7.25c-.18,0-12.08-8.59-21.03,7.25Zm-3.67,15.75s16.37,6.17,28.1-9.66c-.09,0-16.29-11.54-28.1,9.66Zm27.29-52.97s6.89,5.73,15.03-.18c.18,0-5.73-8.14-15.03.18Zm.36-4.03s8.95-1.07,10.2-11.18c0,0-10.02-1.25-10.2,11.18Zm122.05,8.5s6.89,5.73,15.03-.18c0,.18-5.73-8.14-15.03.18Zm.18-4.03s8.95-1.07,10.2-11.18c0,0-9.84-1.34-10.2,11.18Zm-80.8,79.46s8.32,6.89,18.16-.18c0,.18-7.07-9.66-18.16.18Zm.36-4.83s10.56-1.52,12.26-13.33c0,0-12.08-1.52-12.26,13.33Zm30.24,37.31s-1.7,10.56,9.31,15.57c0,.09,4.83-10.92-9.31-15.57Zm4.3-2.15s6.53,8.59,17.81,3.94c.09-.09-4.74-11.18-17.81-3.94Zm-75.07-75.43s6.89,5.73,15.03-.18c.09,0-5.73-8.23-15.03.18Zm.27-4.12s8.95-1.07,10.2-11.18c0,0-9.84-1.25-10.2,11.18Zm-13.24-84.2s9.48-10.92.54-24.52c0-.18-13.51,8.95-.54,24.52Zm47.42,62.81s.36-14.5-15.21-19.33c-.09,0-4.74,15.84,15.21,19.33Zm-3.22,3.13s-8.77-8.59-20.85-1.7c.09.09,7.34,12.17,20.85,1.7Zm4.65,1.7s-16.91,4.47-17.27,24.34c0-.18,19.69,0,17.27-24.34Zm-19.86-125.54s2.06-13.78-12.44-20.04c0-.27-6.17,14.23,12.44,20.04Zm-3.31-19.51s1.7-10.92-9.84-16.2c-.18.18-5.01,11.72,9.84,16.2Zm20.22,20.76s12.44-6.17,9.48-21.56c0,0-15.48,3.04-9.48,21.56Zm-6.71-2.95s8.95-16.55-6.53-31.23c.09,0-14.41,15.39,6.53,31.23Zm-355.95-28.81s-10.02,6.35-6.35,19.33c.27,0,13.06-3.94,6.35-19.33Zm92.16,109.43s-7.96-11.54-22.82-6.35c0,0,5.37,14.94,22.82,6.35Zm-2.59,6.71s-13.33-3.94-21.56,9.66c-.18,0,13.42,7.96,21.56-9.66Zm2.06,3.67s-10.02,6.17-6.53,18.97c0,0,12.8-3.67,6.53-18.97Zm2.59-3.85s0,16.91,18.43,21.92c-.09,0,4.74-18.43-18.43-21.92Zm40.27-4.12s-.72,13.96,14.14,18.97c-.18,0,4.83-14.85-14.14-18.97Zm6.17-3.76s8.32,11.36,23,5.55c-.18.27-5.91-14.41-23-5.55Zm.36-4.03s11.72,1.34,16.73-10.92c.18-.27-12.26-5.1-16.73,10.92Zm193.99-143.97s2.59,7.07,11.18,6.35c-.09-.09-.98-8.41-11.18-6.35Zm1.79-2.77s6.89,2.95,12.08-3.76c.18,0-6.62-5.19-12.08,3.76Zm22.91,20.94s10.38-14.67-2.42-30.69c0,.09-15.66,13.06,2.42,30.69Zm38.03,17.63s1.88-17.99-17.27-25.41c0,0-7.25,19.15,17.27,25.41Zm-30.06-15.57s12.97-7.61,8.77-24.16c-.27,0-16.55,4.65-8.77,24.16Zm21.03-13.33s9.13-1.88,9.84-12.26c0,0-10.47-.81-9.84,12.26Zm-3.04-2.86s4.83-7.96-2.42-15.57c0,0-7.61,7.25,2.42,15.57Zm-17.45,29.35s-4.12-10.38-16.73-8.95c0,.27,1.52,12.71,16.73,8.95Zm20.67,8.77s-.54-13.96-15.75-17.63c-.09,0-3.58,15.39,15.75,17.63Zm-62.46-25.23s10.2,6.17,19.86-3.13c-.18.09-9.48-9.48-19.86,3.13Zm-24.88,57.36s5.37-5.19,1.07-12.62c0,0-7.25,4.29-1.07,12.62Zm-3.4-.54s-.18-7.43-8.59-9.48c.09,0-1.79,8.14,8.59,9.48Zm22.37,1.52s1.34-11.72-10.92-16.73c-.09,0-5.1,12.44,10.92,16.73Zm-183.79,69.97s10.2-13.33-1.07-28.63c0,.09-15.21,11.72,1.07,28.63ZM533.75,8.41s10.02,9.84,23.8,2.06c0-.09-8.14-13.78-23.8-2.06Zm-13.69,1.97s4.83,13.15,20.58,11.9c0,0-1.43-15.75-20.58-11.9Zm20.22,29.98s5.37,5.37,12.62,1.07c.18,0-4.03-7.25-12.62-1.07Zm.54-3.4s7.43-.18,9.48-8.59c.18.09-8.14-1.79-9.48,8.59Zm29.53,9.48s3.49-17.81-14.85-26.93c0,0-8.86,18.61,14.85,26.93Zm42.06.54s-5.73-17.09-26.22-16.2c0,.09,1.25,20.49,26.22,16.2Zm-34-1.79s8.77-12.44-2.06-25.68c0,.18-13.24,11.18,2.06,25.68Zm-9.48-19.51s8.77-12.44-2.06-25.68c0,0-12.97,11.01,2.06,25.68Zm23.18-1.34s7.43-5.55,3.94-15.21c0-.18-9.84,3.67-3.94,15.21Zm-3.85-1.25s1.07-9.31-8.59-13.15c-.18-.27-4.03,9.57,8.59,13.15Zm43.67,42.5s-10.02-9.66-23.62-1.52c0-.18,8.14,13.42,23.62,1.52Zm-47.42-8.5s-8.14-7.61-18.79-1.34c-.18,0,6.53,10.74,18.79,1.34Zm-52.17-27.56s-2.06-8.14-11.54-8.32c0,0-.18,9.48,11.54,8.32Zm6.71,33.82s8.32,11.36,23,5.55c0,.27-5.73-14.5-23-5.55Zm.54-4.12s11.72,1.34,16.73-10.92c0,0-12.53-5.01-16.73,10.92Zm-4.47,1.52s10.2-13.33-1.07-28.63c-.09,0-15.12,11.54,1.07,28.63Zm5.19,349.86s-5.73-9.31-17.45-5.73c0-.09,3.49,11.63,17.45,5.73Zm-1.88,4.38s-10.56-2.06-16.2,8.95c.09,0,11.01,5.37,16.2-8.95Zm-58.16,1.88s-15.21,8.95-10.2,28.1c0,.18,19.33-5.01,10.2-28.1Zm6.71,8.59s-6.17,16.55,10.02,28.28c0-.09,11.54-16.37-10.02-28.28Zm8.59-1.7s6.71,13.33,23.26,10.02c.09,0-3.4-16.55-23.26-10.02Zm-4.47-3.49s21.39,1.52,29.35-21.21c0,0-22.82-7.78-29.35,21.21Zm130.82-159.45s5.73-17.45-11.54-28.99c0,0-11.36,17.45,11.54,28.99Zm0,143.61s5.73-17.45-11.54-28.99c0,0-11.36,17.45,11.54,28.99Zm-47.42-167.77s7.25,8.14,18.16,2.77c.09,0-5.55-10.92-18.16-2.77Zm1.16-4.83s10.74.36,14.5-11.36c-.09.09-11.9-3.49-14.5,11.36Zm103.8,17.9s13.6-11.36,5.37-29.35c.18,0-17.99,8.32-5.37,29.35Zm-8.5-2.42s3.31-17.27-14.67-26.22c0,0-8.59,17.99,14.67,26.22h0Zm-4.47,3.13s-8.95-12.08-24.7-5.91c.18-.27,6.26,15.57,24.7,5.91Zm5.19,2.77s-21.39,2.06-25.41,25.86c-.27,0,23.71,3.85,25.41-25.86Zm-428.43,379.57c-15.57-.54-26.58,1.7-36.42,12.08s-20.85,12.08-20.85,12.08c0,0,6.89,3.49,31.77-9.31,24.88-12.8,43.13,17.45,81.16,2.95,38.12-14.5,27.65-28.99,33.47-40.71,5.73-11.54,11.54-9.84,18.61-21.39,6.89-11.54,8.14-20.22,19.15-34.18,11.01-13.96,1.07-55.57-9.84-74.09-10.92-18.61,11.54-79.9,13.96-98.43,2.42-18.61,3.49-34.18-10.38-53.87-13.96-19.69-36.42-16.73-52.79-18.61-16.2-1.7-27.11-8.77-34.72-12.8-7.61-4.12-9.84-37.67-16.2-45.19-6.35-7.52-13.33-7.61-37.67-8.14-24.34-.54-35.88-4.12-44.56-19.15-8.68-15.03,14.67-23,15.57-41.07.54-9.31-12.26-20.22-17.45-26.04-5.19-5.73-.54-27.29-1.7-23.26-1.07,4.12-2.95,12.8-5.19,19.69s9.31,16.2,12.8,25.41c3.49,9.31-8.14,16.2-12.26,22.1-4.12,5.73-7.61,20.85,8.14,42.95,15.57,22.1,62.64,6.89,73.01,16.2s10.38,32.48,10.38,32.48c0,0-15.57-2.24-33.64-5.73-18.07-3.49-44.02,19.15-49.21,20.22s-25.41-16.73-36.95-20.22c-11.54-3.49-24.34,6.89-34.18,8.14-9.84,1.07-19.69-7.61-22.64-14.5s-10.38-18.61-13.33-22.1c-2.95-3.49-8.32-7.61-18.16-9.48-9.93-1.7-21.3-8.95-21.3-8.95,0,0,13.6,12.97,26.93,19.33,10.74,5.01,16.73,22.82,24.88,37.94,8.14,15.12,22.28,5.91,36.78,4.29,14.5-1.61,15.03-6.35,30.06,2.24,15.03,8.77,19.69,10.38,19.69,10.38,0,0-1.7,5.19-4.12,8.14-2.24,2.95-16.73,21.39-20.85,23.26-4.12,1.7-13.33,11.54-13.33,16.73s-9.31,9.31-16.73,8.77c-7.61-.54-10.92,5.73-12.26,11.54-1.07,5.73-13.96,9.31-13.96,9.31,0,0-4.65.54,2.24,1.07s16.73-5.19,17.45-12.26c.54-6.89,14.5-1.7,23.26-5.73,8.77-4.12,6.89-9.31,12.8-9.31s13.33,15.39,14.5,22.82c.54,4.12-5.01,8.32-11.36,12.44-6.35,4.12-2.42,12.8-2.42,12.8-.18-9.31,10.38-10.92,15.57-14.5,5.19-3.49,7.61-16.73-1.7-27.11s5.19-23.26,9.31-31.77c4.12-8.77,35.88-31.23,45.19-35.88,9.31-4.65,34.72-1.07,40.53,1.07,5.73,2.24,29.53,15.03,36.42,16.2,6.89,1.07,29.53,1.07,29.53,1.07,0,0-19.69,8.14-22.1,12.8-2.42,4.65-3.49,12.8-2.24,22.64,1.34,9.84-2.24,22.1-4.65,24.88-2.24,2.95-16.2,2.95-22.64,11.54-6.35,8.77-1.07,20.22-1.07,20.22v-9.84c0-9.84,7.61-12.8,18.61-16.2,10.92-3.49,12.8-5.73,13.96-19.69,1.07-13.96,3.49-30.69,13.96-36.42s28.45-8.77,41.79,17.99c13.33,26.58-8.14,59.06-13.96,77.13-5.73,17.99,4.12,38.83,6.35,53.33s4.12,17.45-2.24,35.25c-6.35,17.99-9.31,25.41-6.35,45.19,2.95,19.69-7.43,20.85-20.22,33.11-12.8,12.08-13.33,31.23-13.33,31.23-3.76,14.85-47.16,7.43-62.81,6.89h0Zm120.98-162.4c.89,8.95,7.07,13.96,14.5,32.48,7.43,18.61,6.17,37.67,6.17,37.67l6.17-12.08c6.17-12.08-2.24-40.53-7.07-60.58-4.65-20.04-4.47-30.51,3.31-50.38,10.74-27.65-7.43-60.58-7.43-60.58,0,0,.72,18.97.36,32.84-.36,13.96-7.78,28.1-7.78,28.1-11.01,26.93-9.22,43.58-8.23,52.52h0Zm198.91,197.84c11.72,6.53,57.18-2.24,37.13-3.76-.89,0-1.88-.18-2.77-.18-17.99-.89-26.93,1.7-44.2-14.32-18.16-16.73-47.6-18.16-82.86-22.28-35.25-4.29-47.6-24.16-43.84-41.43s-13.96-40.53-11.18-55.92-3.76-26.93-7.96-36.24c-4.29-9.31-6.17-28.81-5.55-51.27.54-22.46,13.6-47.96,14.5-63.71s-4.65-22.28-12.97-53.51,19.15-39.19,30.24-41.07c11.18-1.88,31.23-20.04,38.65-24.7s21.03-35.88,23.8-41.07c2.77-5.19,5.19-30.24,1.52-42.95-3.67-12.71,19.15,5.55,20.4,5.19,1.52-.36,20.4,5.55,33.11,8.95,12.62,3.31,25.68-3.76,40.53-12.62,14.85-8.95,19.51-6.17,19.51-6.17,0,0,2.24,2.24-.89-1.88-3.31-4.29-14.5-3.31-26.04,2.77-11.72,6.17-25.05,10.74-33.11,7.07-7.96-3.76-27.47-10.74-29.35-10.74s-18.16-7.96-6.53-19.15c11.72-11.18,15.39-40.53,15.39-40.53,0,0,3.31-10.74,11.18-15.39,7.96-4.65,20.04,1.88,30.69,1.52,10.65-.36,7.96-10.2,9.31-14.85s2.77-6.53,10.74-8.95,10.2-10.74,10.2-10.74c-1.52,4.65-14.85,6.53-21.39,8.32-6.53,1.88-3.31,11.18-10.2,15.39-7.07,4.12-19.15-1.52-27.83-.89s-19.15,7.43-19.15,7.43c0,0-5.19-10.2-11.18-16.37-6.17-6.17,7.07-8.32,8.95-13.6,1.88-5.19-2.77-11.18-2.77-11.18,5.19,5.19-4.12,12.97-12.62,18.16-8.32,5.19-1.88,12.62,7.96,20.4s2.24,30.24,2.24,41.43-19.15,15.39-25.68,22.28c-6.53,7.07-13.96,13.96-9.84,30.24,4.29,16.37-7.43,39.55-21.03,57.8-13.6,18.25-22.28,19.51-42.95,23.26-20.58,3.76-19.15,5.55-27.83,4.65-8.95-.89-13.96-43.31-21.39-74.09s24.7-39.91,30.24-42.95c5.55-2.77,11.72-5.55,15.39,2.24,3.76,7.96,9.84,13.96,16.73,16.37,7.07,2.24,12.62,9.31,12.08,7.07s.36-10.74-10.2-12.62c-10.74-1.88-9.84-13.96-15.39-21.39-5.55-7.43-16.37,1.88-20.04.89-3.76-.89-.36-6.17,3.76-21.92s-2.24-21.39-2.24-21.39c0,0,.36,22.82-6.17,37.13s-17.27,11.72-33.11,23.8c-15.75,12.08-9.84,21.39-5.55,34.9,4.29,13.6,2.77,22.82-8.32,20.04-11.18-2.77-19.15-32.48-22.82-43.84-3.76-11.18-8.95-34-8.95-34,0,0-2.24-9.31-.89-16.73,1.52-7.43,9.31-8.95,11.18-18.61,1.88-9.84-2.77-12.97-2.77-12.97,3.31,5.55,2.77,12.97-7.07,20.04s-7.96,19.51-7.96,19.51c0,0,0-7.07-14.5-18.61-14.5-11.72-35.88-10.2-43.84-12.08s-3.76-13.6-3.76-13.6c-7.96,14.85-5.55,21.92,23.26,24.7s33.11,23.26,37.67,36.42c4.65,12.97,2.77,24.7,2.77,24.7-16.73,1.88-21.03,17.63-24.7,18.16-3.76.54-10.2-13.6-12.62-22.28-2.42-8.77-24.16-10.74-36.78-13.6-12.62-2.77-12.97-12.62-12.97-12.62-7.07,3.76-2.77,13.6,9.31,17.27s17.27,5.19,31.23,11.72c13.96,6.53,6.17,15.39,16.73,24.16,10.74,8.95,22.82-11.18,30.24-13.96s8.95,15.39,14.5,35.52c5.55,20.13,25.05,16.37,35.25,24.7s18.16,50.38,21.03,75.07c2.77,24.7,18.16,62.46,19.15,76.95.98,14.5-12.08,48.5-13.6,58.7-1.52,10.2,14.5,53.15,15.39,63.35.89,10.2-5.55,22.82-6.17,34.36-.54,11.54,8.95,20.04,12.62,34,3.76,13.96-3.31,21.39.36,37.13,3.76,15.75,21.92,34.36,53.15,24.7s66.12,12.08,66.12,12.08c13.96,8.86,25.68,5.73,37.31,12.17h0Zm-155.43-207.14c-1.88,17.63,6.17,32.48,15.39,50.73,9.31,18.16-1.52,26.04,1.88,33.11,3.31,7.07,7.96,21.03,7.96,40.53s2.77,26.58,24.16,34.36c21.39,7.78,49.39-2.77,81.52-1.52,32.12,1.52,45.72,16.37,55.92,22.28,10.2,5.91,48.86,0,61.83-2.77,12.97-2.77,41.43-3.76,41.43-3.76,0,0,12.08,1.88,1.88-1.52-10.2-3.4-50.38,4.29-75.97,4.29s-31.59-4.29-49.75-17.63c-18.16-13.6-44.2-6.53-67.11-7.96-22.82-1.52-23.8-4.65-39.01-8.32s-25.68-46.98-26.04-62.46c-.36-15.39-6.53-27.83-10.2-45.72-3.76-17.81,16.73-43.84,21.03-60.58,4.12-16.73,10.2-6.53,30.24-24.16,20.04-17.63,25.68-8.32,48.86-15.39,23.18-7.07,22.82-13.96,32.12-31.59s36.24-13.6,36.24-13.6c0,0,1.52,6.53.89,9.31-.54,2.77,2.77,6.17,5.19,14.5,2.24,8.32,19.15,3.31,29.71,0,10.74-3.31,14.5,7.07,14.5,7.07,0,0-.36-7.07-6.17-13.6-5.55-6.53-10.74-.89-24.16,0-13.33.89-3.76-6.17-6.17-10.74-2.24-4.65-3.76-16.73-1.88-22.28,1.88-5.55,16.37-12.97,24.16-18.61,7.78-5.55,26.58-13.96,34.36-17.63,7.78-3.76,15.39-12.97,20.04-23.8s12.62-14.85,9.31-14.5c-3.31.36-14.5,3.31-17.27,12.97-2.77,9.84-13.96,18.61-25.68,21.92s-13.96,5.55-13.96,5.55c0,0-3.31-6.17-10.74-12.08-7.43-6.17-8.95-3.31-5.19-7.43,3.76-4.29-.36-14.85-.36-14.85,0,0-3.76,12.62-7.07,16.73-3.31,4.29,14.5,14.85,15.75,19.51,1.34,4.65,5.19,6.17-16.73,12.62-21.92,6.53-18.16,17.63-28.81,20.4-10.74,2.77-16.73,1.88-30.69,7.96-13.96,6.17-23.8,31.23-39.55,38.65-15.75,7.43-48.5,10.74-65.23,13.6-16.73,2.86-32.57,39.28-32.57,39.28,0,0-.89-4.29,2.24-18.16,3.31-13.96,2.24-38.3,2.24-38.3,0,0-2.24,15.75-12.08,32.48-9.31,16.02-6.44,51.09-6.44,51.09m-57.09,174.84c7.78-2.42,14.85.36,18.16,4.29,3.31,4.12,3.31,10.56,3.31,10.56,5.55-10.56-5.91-25.41-9.31-32.12-3.31-6.89,5.01-25.68,7.07-30.69,2.24-5.01.54-8.32.54-12.62s11.54-26.93,11.54-26.93c0,0-1.88,4.12-6.89,9.66s-10.56,11.72-10.56,20.04-12.08,21.03-18.16,25.68c-6.17,4.65-11.72,10.74-11.54,17.99.36,7.07-5.55,20.04-5.55,20.04,6.17-2.15,13.6-3.49,21.39-5.91h0Zm34.18-82.86s-7.43,13.33-7.96,19.15c-.54,5.91,1.34,16.37-3.31,25.68-4.65,9.31-5.91,14.5-1.88,21.74,4.12,7.07,6.17,18.16,6.17,18.16,0,0,15.39-2.42,25.41.54,9.84,3.13,13.6,3.13,13.6,3.13,0,0-13.96-5.19-15.39-12.62-1.52-7.43.89-25.41.54-32.84s-5.55-26.58-7.78-28.45c-2.15-1.88-5.28-9.66-9.4-14.5Z" />
  </g>
  <rect
     class="cls-2"
     x="961.69"
     y="93.41"
     width="761.38"
     height="104.06"
     id="rect12" />
  <g
     id="g92">
    <path
       class="cls-2"
       d="m1007.75,329.92v-34.4l-15.28,26.61h-2.42l-15.28-26.61v34.4h-4.13v-41.89h4.25l16.34,28.67,16.46-28.67h4.19v41.89h-4.13Z"
       id="path14" />
    <path
       class="cls-2"
       d="m1034.42,330.51c-2.24,0-4.3-.42-6.17-1.27-1.87-.85-3.49-2.01-4.87-3.48-1.38-1.47-2.45-3.18-3.22-5.1-.77-1.93-1.15-3.99-1.15-6.19s.38-4.2,1.15-6.11c.77-1.91,1.83-3.58,3.19-5.02,1.36-1.44,2.98-2.58,4.87-3.42,1.89-.85,3.93-1.27,6.14-1.27s4.3.42,6.17,1.27c1.87.85,3.47,2,4.81,3.45,1.34,1.46,2.38,3.13,3.13,5.01.75,1.89,1.12,3.89,1.12,6.02v.94c0,.32-.02.53-.06.65h-26.31c.12,1.65.5,3.18,1.15,4.57.65,1.4,1.48,2.61,2.51,3.63,1.02,1.02,2.19,1.82,3.51,2.39,1.32.57,2.72.86,4.22.86.98,0,1.97-.14,2.95-.41.98-.27,1.89-.65,2.71-1.12.83-.47,1.57-1.05,2.24-1.74.67-.69,1.18-1.45,1.53-2.27l3.48.94c-.47,1.14-1.14,2.17-2.01,3.1-.87.92-1.87,1.73-3.01,2.42-1.14.69-2.4,1.22-3.78,1.59-1.38.37-2.81.56-4.31.56Zm11.33-17.58c-.12-1.65-.5-3.16-1.15-4.51-.65-1.36-1.48-2.53-2.48-3.51-1-.98-2.16-1.75-3.48-2.3-1.32-.55-2.72-.83-4.22-.83s-2.91.28-4.25.83c-1.34.55-2.51,1.32-3.51,2.3-1,.98-1.81,2.16-2.42,3.54-.61,1.38-.97,2.87-1.09,4.48h22.6Z"
       id="path16" />
    <path
       class="cls-2"
       d="m1065.98,330.51c-2.4,0-4.74-.39-7.02-1.18-2.28-.79-4.25-1.93-5.9-3.42l1.83-2.71c1.73,1.42,3.49,2.48,5.28,3.19,1.79.71,3.71,1.06,5.75,1.06,2.48,0,4.45-.5,5.93-1.5,1.47-1,2.21-2.43,2.21-4.28,0-.86-.2-1.58-.59-2.15-.39-.57-.97-1.07-1.74-1.5-.77-.43-1.73-.82-2.89-1.15-1.16-.33-2.51-.68-4.04-1.03-1.77-.43-3.3-.86-4.6-1.3-1.3-.43-2.37-.92-3.21-1.48-.85-.55-1.48-1.23-1.89-2.04-.41-.81-.62-1.82-.62-3.04,0-1.53.3-2.89.91-4.07s1.44-2.15,2.48-2.92c1.04-.77,2.26-1.35,3.66-1.74,1.4-.39,2.88-.59,4.45-.59,2.36,0,4.5.38,6.43,1.15,1.93.77,3.48,1.78,4.66,3.04l-1.95,2.36c-1.14-1.18-2.53-2.06-4.16-2.65-1.63-.59-3.33-.89-5.1-.89-1.06,0-2.04.11-2.95.32-.91.22-1.7.56-2.39,1.03-.69.47-1.23,1.07-1.62,1.8-.39.73-.59,1.58-.59,2.57,0,.83.14,1.5.41,2.01.27.51.73.95,1.36,1.33.63.37,1.42.71,2.39,1s2.13.6,3.51.91c1.97.47,3.7.94,5.19,1.42,1.49.47,2.74,1.02,3.75,1.65,1,.63,1.76,1.4,2.27,2.3.51.91.77,2.01.77,3.3,0,2.83-1.08,5.07-3.25,6.73-2.16,1.65-5.07,2.48-8.73,2.48Z"
       id="path18" />
    <path
       class="cls-2"
       d="m1094.12,330.51c-3.34,0-5.83-1.11-7.46-3.33-1.63-2.22-2.45-5.54-2.45-9.94v-18.05h4.01v17.35c0,6.96,2.38,10.44,7.14,10.44,1.18,0,2.34-.2,3.48-.59,1.14-.39,2.19-.96,3.16-1.71.96-.75,1.83-1.63,2.6-2.65.77-1.02,1.39-2.18,1.86-3.48v-19.35h4.01v25.55c0,1.1.47,1.65,1.42,1.65v3.54c-.47.08-.86.12-1.15.12h-.62c-.94-.04-1.71-.37-2.3-1-.59-.63-.89-1.48-.89-2.54v-3.54c-1.34,2.4-3.16,4.26-5.46,5.58-2.3,1.32-4.75,1.98-7.35,1.98Z"
       id="path20" />
    <path
       class="cls-2"
       d="m1134.89,302.72c-2.71.08-5.07.83-7.08,2.24-2.01,1.42-3.42,3.36-4.25,5.84v19.12h-4.01v-30.74h3.78v7.38c1.14-2.36,2.67-4.21,4.6-5.55,1.93-1.34,3.99-2.01,6.2-2.01.31,0,.57.02.77.06v3.66Z"
       id="path22" />
    <path
       class="cls-2"
       d="m1152,330.51c-2.24,0-4.3-.42-6.17-1.27-1.87-.85-3.49-2.01-4.87-3.48-1.38-1.47-2.45-3.18-3.22-5.1-.77-1.93-1.15-3.99-1.15-6.19s.38-4.2,1.15-6.11c.77-1.91,1.83-3.58,3.19-5.02,1.36-1.44,2.98-2.58,4.87-3.42,1.89-.85,3.93-1.27,6.14-1.27s4.3.42,6.17,1.27c1.87.85,3.47,2,4.81,3.45,1.34,1.46,2.38,3.13,3.13,5.01.75,1.89,1.12,3.89,1.12,6.02v.94c0,.32-.02.53-.06.65h-26.31c.12,1.65.5,3.18,1.15,4.57.65,1.4,1.48,2.61,2.51,3.63,1.02,1.02,2.19,1.82,3.51,2.39,1.32.57,2.72.86,4.22.86.98,0,1.97-.14,2.95-.41.98-.27,1.89-.65,2.71-1.12.83-.47,1.57-1.05,2.24-1.74.67-.69,1.18-1.45,1.53-2.27l3.48.94c-.47,1.14-1.14,2.17-2.01,3.1-.87.92-1.87,1.73-3.01,2.42-1.14.69-2.4,1.22-3.78,1.59-1.38.37-2.81.56-4.31.56Zm11.33-17.58c-.12-1.65-.5-3.16-1.15-4.51-.65-1.36-1.48-2.53-2.48-3.51-1-.98-2.16-1.75-3.48-2.3-1.32-.55-2.72-.83-4.22-.83s-2.91.28-4.25.83c-1.34.55-2.51,1.32-3.51,2.3-1,.98-1.81,2.16-2.42,3.54-.61,1.38-.97,2.87-1.09,4.48h22.6Z"
       id="path24" />
    <path
       class="cls-2"
       d="m1188.7,302.72c-2.71.08-5.07.83-7.08,2.24-2.01,1.42-3.42,3.36-4.25,5.84v19.12h-4.01v-30.74h3.78v7.38c1.14-2.36,2.67-4.21,4.6-5.55,1.93-1.34,3.99-2.01,6.2-2.01.31,0,.57.02.77.06v3.66Z"
       id="path26" />
    <path
       class="cls-2"
       d="m1192.01,334.7l1-4.96h-1.36v-5.61h3.89v5.61l-1.48,4.96h-2.06Z"
       id="path28" />
    <path
       class="cls-2"
       d="m1220.5,329.92v-41.89h4.13v41.89h-4.13Z"
       id="path30" />
    <path
       class="cls-2"
       d="m1260.15,329.92h-4.01v-17.17c0-3.66-.54-6.31-1.62-7.96-1.08-1.65-2.74-2.48-4.99-2.48-1.18,0-2.36.22-3.54.65-1.18.43-2.27,1.04-3.28,1.83-1,.79-1.9,1.72-2.68,2.8-.79,1.08-1.36,2.25-1.71,3.51v18.82h-4.01v-30.74h3.66v6.96c1.26-2.24,3.06-4.05,5.4-5.43,2.34-1.38,4.89-2.06,7.64-2.06,1.69,0,3.13.32,4.31.94,1.18.63,2.12,1.51,2.83,2.66.71,1.14,1.22,2.54,1.53,4.19.31,1.65.47,3.48.47,5.49v18Z"
       id="path32" />
    <path
       class="cls-2"
       d="m1269.88,329.92v-27.55h-4.25v-3.19h4.25v-.83c0-3.78.81-6.74,2.42-8.88,1.61-2.14,3.81-3.22,6.61-3.22,1.22,0,2.4.18,3.54.53s2.12.83,2.95,1.42l-1.24,2.89c-.55-.43-1.23-.77-2.04-1-.81-.24-1.62-.35-2.45-.35-1.89,0-3.32.73-4.31,2.18-.98,1.46-1.47,3.56-1.47,6.31v.94h8.5v3.19h-8.5v27.55h-4.01Z"
       id="path34" />
    <path
       class="cls-2"
       d="m1299.44,330.51c-2.24,0-4.29-.42-6.14-1.27-1.85-.85-3.45-2-4.81-3.45-1.36-1.46-2.41-3.15-3.16-5.07-.75-1.93-1.12-3.95-1.12-6.08s.38-4.21,1.15-6.14c.77-1.93,1.83-3.62,3.19-5.07,1.36-1.45,2.96-2.62,4.81-3.48,1.85-.86,3.87-1.3,6.08-1.3s4.24.43,6.11,1.3c1.87.87,3.48,2.03,4.84,3.48,1.36,1.46,2.42,3.15,3.19,5.07.77,1.93,1.15,3.97,1.15,6.14s-.37,4.15-1.12,6.08c-.75,1.93-1.8,3.62-3.16,5.07-1.36,1.46-2.97,2.61-4.84,3.45-1.87.85-3.92,1.27-6.17,1.27Zm-11.15-15.81c0,1.73.29,3.33.88,4.81s1.39,2.77,2.39,3.89,2.18,2,3.54,2.63c1.36.63,2.8.94,4.34.94s2.98-.32,4.34-.97c1.36-.65,2.55-1.53,3.57-2.66,1.02-1.12,1.83-2.43,2.42-3.92.59-1.49.89-3.11.89-4.84s-.29-3.29-.89-4.81c-.59-1.51-1.4-2.83-2.42-3.95-1.02-1.12-2.21-2.01-3.57-2.65-1.36-.65-2.8-.97-4.34-.97s-2.97.32-4.31.97c-1.34.65-2.52,1.54-3.54,2.68-1.02,1.14-1.83,2.47-2.42,3.98-.59,1.51-.88,3.14-.88,4.87Z"
       id="path36" />
    <path
       class="cls-2"
       d="m1336.79,302.72c-2.71.08-5.07.83-7.08,2.24-2.01,1.42-3.42,3.36-4.25,5.84v19.12h-4.01v-30.74h3.78v7.38c1.14-2.36,2.67-4.21,4.6-5.55,1.93-1.34,3.99-2.01,6.2-2.01.31,0,.57.02.77.06v3.66Z"
       id="path38" />
    <path
       class="cls-2"
       d="m1387.88,329.92h-4.01v-17.17c0-3.58-.57-6.21-1.71-7.91-1.14-1.69-2.83-2.54-5.07-2.54-1.18,0-2.29.22-3.33.65-1.04.43-2.01,1.04-2.89,1.83-.89.79-1.66,1.72-2.33,2.8-.67,1.08-1.18,2.27-1.53,3.57v18.76h-4.01v-17.17c0-3.66-.55-6.31-1.65-7.96-1.1-1.65-2.79-2.48-5.07-2.48s-4.39.81-6.2,2.42c-1.81,1.61-3.11,3.74-3.89,6.37v18.82h-4.01v-30.74h3.66v6.96c1.26-2.36,2.91-4.2,4.96-5.52,2.04-1.32,4.31-1.98,6.79-1.98s4.67.73,6.22,2.18c1.55,1.46,2.51,3.36,2.86,5.72,2.87-5.27,6.82-7.91,11.86-7.91,1.73,0,3.2.32,4.4.94,1.2.63,2.16,1.52,2.89,2.68.73,1.16,1.26,2.56,1.59,4.19.33,1.63.5,3.45.5,5.46v18Z"
       id="path40" />
    <path
       class="cls-2"
       d="m1409.65,330.51c-2.24,0-4.3-.42-6.17-1.27-1.87-.85-3.49-2.01-4.87-3.48-1.38-1.47-2.45-3.18-3.22-5.1-.77-1.93-1.15-3.99-1.15-6.19s.38-4.2,1.15-6.11c.77-1.91,1.83-3.58,3.19-5.02,1.36-1.44,2.98-2.58,4.87-3.42,1.89-.85,3.93-1.27,6.14-1.27s4.3.42,6.17,1.27c1.87.85,3.47,2,4.81,3.45,1.34,1.46,2.38,3.13,3.13,5.01.75,1.89,1.12,3.89,1.12,6.02v.94c0,.32-.02.53-.06.65h-26.31c.12,1.65.5,3.18,1.15,4.57.65,1.4,1.48,2.61,2.51,3.63,1.02,1.02,2.19,1.82,3.51,2.39,1.32.57,2.72.86,4.22.86.98,0,1.97-.14,2.95-.41.98-.27,1.89-.65,2.71-1.12.83-.47,1.57-1.05,2.24-1.74.67-.69,1.18-1.45,1.53-2.27l3.48.94c-.47,1.14-1.14,2.17-2.01,3.1-.87.92-1.87,1.73-3.01,2.42-1.14.69-2.4,1.22-3.78,1.59-1.38.37-2.81.56-4.31.56Zm11.33-17.58c-.12-1.65-.5-3.16-1.15-4.51-.65-1.36-1.48-2.53-2.48-3.51-1-.98-2.16-1.75-3.48-2.3-1.32-.55-2.72-.83-4.22-.83s-2.91.28-4.25.83c-1.34.55-2.51,1.32-3.51,2.3-1,.98-1.81,2.16-2.42,3.54-.61,1.38-.97,2.87-1.09,4.48h22.6Z"
       id="path42" />
    <path
       class="cls-2"
       d="m1446.35,302.72c-2.71.08-5.07.83-7.08,2.24-2.01,1.42-3.42,3.36-4.25,5.84v19.12h-4.01v-30.74h3.78v7.38c1.14-2.36,2.67-4.21,4.6-5.55,1.93-1.34,3.99-2.01,6.2-2.01.31,0,.57.02.77.06v3.66Z"
       id="path44" />
    <path
       class="cls-2"
       d="m985.5,399.51c-2.6,0-4.89-.66-6.87-1.98-1.99-1.32-3.59-2.98-4.81-4.99v18.94h-4.01v-43.31h3.6v5.96c1.26-1.93,2.89-3.49,4.9-4.69,2.01-1.2,4.19-1.8,6.55-1.8,2.12,0,4.07.44,5.84,1.33,1.77.88,3.3,2.06,4.6,3.54,1.3,1.47,2.31,3.18,3.04,5.1.73,1.93,1.09,3.91,1.09,5.96,0,2.16-.33,4.21-1,6.14-.67,1.93-1.62,3.62-2.86,5.07s-2.71,2.61-4.42,3.45c-1.71.85-3.59,1.27-5.63,1.27Zm-1.12-3.54c1.65,0,3.16-.35,4.51-1.06,1.36-.71,2.52-1.64,3.48-2.8s1.7-2.48,2.21-3.95c.51-1.47.77-3,.77-4.57,0-1.65-.29-3.22-.88-4.72s-1.4-2.81-2.42-3.95c-1.02-1.14-2.23-2.04-3.63-2.71s-2.9-1-4.51-1c-1.02,0-2.09.21-3.22.62s-2.16.96-3.13,1.65c-.96.69-1.79,1.5-2.48,2.42s-1.11,1.9-1.27,2.92v9.44c.47,1.1,1.07,2.12,1.8,3.07.73.94,1.55,1.76,2.48,2.45.92.69,1.92,1.23,2.98,1.62,1.06.39,2.16.59,3.3.59Z"
       id="path46" />
    <path
       class="cls-2"
       d="m1019.31,399.51c-2.24,0-4.29-.42-6.14-1.27-1.85-.84-3.45-2-4.81-3.45-1.36-1.46-2.41-3.15-3.16-5.07-.75-1.93-1.12-3.95-1.12-6.08s.38-4.21,1.15-6.14c.77-1.93,1.83-3.62,3.19-5.07,1.36-1.45,2.96-2.62,4.81-3.48,1.85-.87,3.87-1.3,6.08-1.3s4.24.43,6.11,1.3c1.87.87,3.48,2.03,4.84,3.48,1.36,1.46,2.42,3.15,3.19,5.07.77,1.93,1.15,3.97,1.15,6.14s-.37,4.15-1.12,6.08c-.75,1.93-1.8,3.62-3.16,5.07-1.36,1.46-2.97,2.61-4.84,3.45-1.87.85-3.92,1.27-6.17,1.27Zm-11.15-15.81c0,1.73.29,3.33.88,4.81.59,1.47,1.39,2.77,2.39,3.89s2.18,2,3.54,2.63,2.8.94,4.34.94,2.98-.32,4.34-.97c1.36-.65,2.55-1.53,3.57-2.65,1.02-1.12,1.83-2.43,2.42-3.92.59-1.49.89-3.11.89-4.84s-.29-3.29-.89-4.81c-.59-1.51-1.4-2.83-2.42-3.95-1.02-1.12-2.21-2.01-3.57-2.66-1.36-.65-2.8-.97-4.34-.97s-2.97.33-4.31.97c-1.34.65-2.52,1.54-3.54,2.68-1.02,1.14-1.83,2.47-2.42,3.98-.59,1.51-.88,3.14-.88,4.87Z"
       id="path48" />
    <path
       class="cls-2"
       d="m1050.93,399.51c-3.34,0-5.83-1.11-7.46-3.33-1.63-2.22-2.45-5.54-2.45-9.94v-18.05h4.01v17.35c0,6.96,2.38,10.44,7.14,10.44,1.18,0,2.34-.2,3.48-.59,1.14-.39,2.19-.96,3.16-1.71.96-.75,1.83-1.63,2.6-2.66.77-1.02,1.39-2.18,1.86-3.48v-19.35h4.01v25.55c0,1.1.47,1.65,1.42,1.65v3.54c-.47.08-.86.12-1.15.12h-.62c-.94-.04-1.71-.37-2.3-1-.59-.63-.89-1.48-.89-2.54v-3.54c-1.34,2.4-3.16,4.26-5.46,5.58-2.3,1.32-4.75,1.98-7.35,1.98Z"
       id="path50" />
    <path
       class="cls-2"
       d="m1091.7,371.72c-2.71.08-5.07.83-7.08,2.24-2.01,1.42-3.42,3.36-4.25,5.84v19.12h-4.01v-30.74h3.78v7.38c1.14-2.36,2.67-4.21,4.6-5.55,1.93-1.34,3.99-2.01,6.2-2.01.31,0,.57.02.77.06v3.66Z"
       id="path52" />
    <path
       class="cls-2"
       d="m1120.32,399.51c-3.34,0-5.83-1.11-7.46-3.33-1.63-2.22-2.45-5.54-2.45-9.94v-18.05h4.01v17.35c0,6.96,2.38,10.44,7.14,10.44,1.18,0,2.34-.2,3.48-.59,1.14-.39,2.19-.96,3.16-1.71.96-.75,1.83-1.63,2.6-2.66.77-1.02,1.39-2.18,1.86-3.48v-19.35h4.01v25.55c0,1.1.47,1.65,1.42,1.65v3.54c-.47.08-.86.12-1.15.12h-.62c-.94-.04-1.71-.37-2.3-1-.59-.63-.89-1.48-.89-2.54v-3.54c-1.34,2.4-3.16,4.26-5.46,5.58-2.3,1.32-4.75,1.98-7.35,1.98Z"
       id="path54" />
    <path
       class="cls-2"
       d="m1171.59,398.92h-4.01v-17.17c0-3.66-.54-6.31-1.62-7.96-1.08-1.65-2.74-2.48-4.99-2.48-1.18,0-2.36.22-3.54.65-1.18.43-2.27,1.04-3.28,1.83-1,.79-1.9,1.72-2.68,2.8-.79,1.08-1.36,2.25-1.71,3.51v18.82h-4.01v-30.74h3.66v6.96c1.26-2.24,3.06-4.05,5.4-5.43,2.34-1.38,4.89-2.06,7.64-2.06,1.69,0,3.13.31,4.31.94,1.18.63,2.12,1.51,2.83,2.66.71,1.14,1.22,2.54,1.53,4.19.31,1.65.47,3.48.47,5.49v18Z"
       id="path56" />
    <path
       class="cls-2"
       d="m1193.42,399.51c-2.24,0-4.3-.42-6.17-1.27-1.87-.84-3.49-2.01-4.87-3.48-1.38-1.48-2.45-3.18-3.22-5.1-.77-1.93-1.15-3.99-1.15-6.2s.38-4.2,1.15-6.11c.77-1.91,1.83-3.58,3.19-5.01,1.36-1.44,2.98-2.58,4.87-3.42,1.89-.84,3.93-1.27,6.14-1.27s4.3.42,6.17,1.27c1.87.85,3.47,2,4.81,3.45,1.34,1.46,2.38,3.13,3.13,5.01.75,1.89,1.12,3.89,1.12,6.02v.94c0,.32-.02.53-.06.65h-26.31c.12,1.65.5,3.18,1.15,4.57.65,1.4,1.48,2.61,2.51,3.63,1.02,1.02,2.19,1.82,3.51,2.39,1.32.57,2.72.86,4.22.86.98,0,1.97-.14,2.95-.41.98-.28,1.89-.65,2.71-1.12.83-.47,1.57-1.05,2.24-1.74.67-.69,1.18-1.45,1.53-2.27l3.48.94c-.47,1.14-1.14,2.17-2.01,3.1-.87.92-1.87,1.73-3.01,2.42-1.14.69-2.4,1.22-3.78,1.59-1.38.37-2.81.56-4.31.56Zm11.33-17.58c-.12-1.65-.5-3.16-1.15-4.51-.65-1.36-1.48-2.53-2.48-3.51s-2.16-1.75-3.48-2.3c-1.32-.55-2.72-.83-4.22-.83s-2.91.28-4.25.83c-1.34.55-2.51,1.32-3.51,2.3s-1.81,2.16-2.42,3.54c-.61,1.38-.97,2.87-1.09,4.48h22.6Z"
       id="path58" />
    <path
       class="cls-2"
       d="m1243.09,399.51c-2.24,0-4.3-.42-6.17-1.27-1.87-.84-3.49-2.01-4.87-3.48-1.38-1.48-2.45-3.18-3.22-5.1-.77-1.93-1.15-3.99-1.15-6.2s.38-4.2,1.15-6.11c.77-1.91,1.83-3.58,3.19-5.01,1.36-1.44,2.98-2.58,4.87-3.42,1.89-.84,3.93-1.27,6.14-1.27s4.3.42,6.17,1.27c1.87.85,3.47,2,4.81,3.45,1.34,1.46,2.38,3.13,3.13,5.01.75,1.89,1.12,3.89,1.12,6.02v.94c0,.32-.02.53-.06.65h-26.31c.12,1.65.5,3.18,1.15,4.57.65,1.4,1.48,2.61,2.51,3.63,1.02,1.02,2.19,1.82,3.51,2.39,1.32.57,2.72.86,4.22.86.98,0,1.97-.14,2.95-.41.98-.28,1.89-.65,2.71-1.12.83-.47,1.57-1.05,2.24-1.74.67-.69,1.18-1.45,1.53-2.27l3.48.94c-.47,1.14-1.14,2.17-2.01,3.1-.87.92-1.87,1.73-3.01,2.42-1.14.69-2.4,1.22-3.78,1.59-1.38.37-2.81.56-4.31.56Zm11.33-17.58c-.12-1.65-.5-3.16-1.15-4.51-.65-1.36-1.48-2.53-2.48-3.51s-2.16-1.75-3.48-2.3c-1.32-.55-2.72-.83-4.22-.83s-2.91.28-4.25.83c-1.34.55-2.51,1.32-3.51,2.3s-1.81,2.16-2.42,3.54c-.61,1.38-.97,2.87-1.09,4.48h22.6Zm-11.15-19.59l-2.66-1,3.48-5.49h4.25l-5.07,6.49Z"
       id="path60" />
    <path
       class="cls-2"
       d="m1262.33,383.46c0-2.16.37-4.21,1.12-6.14.75-1.93,1.8-3.61,3.16-5.04,1.36-1.44,2.98-2.57,4.87-3.39,1.89-.83,3.97-1.24,6.25-1.24,2.91,0,5.45.66,7.61,1.98,2.16,1.32,3.8,3.1,4.9,5.34l-3.89,1.24c-.87-1.57-2.08-2.8-3.63-3.69-1.55-.88-3.27-1.33-5.16-1.33-1.57,0-3.04.32-4.4.94-1.36.63-2.54,1.49-3.54,2.57-1,1.08-1.79,2.37-2.36,3.86-.57,1.5-.86,3.13-.86,4.9s.29,3.36.88,4.9c.59,1.53,1.4,2.86,2.42,3.98,1.02,1.12,2.21,2.01,3.57,2.65,1.36.65,2.8.97,4.34.97.98,0,1.96-.14,2.92-.41.96-.27,1.86-.66,2.68-1.15.83-.49,1.53-1.05,2.12-1.68.59-.63,1-1.3,1.24-2.01l3.95,1.18c-.43,1.1-1.06,2.12-1.89,3.04-.83.92-1.8,1.73-2.92,2.42-1.12.69-2.36,1.22-3.72,1.59-1.36.37-2.76.56-4.22.56-2.24,0-4.31-.42-6.19-1.27-1.89-.84-3.52-2.01-4.9-3.48-1.38-1.48-2.45-3.18-3.22-5.1-.77-1.93-1.15-3.99-1.15-6.2Z"
       id="path62" />
    <path
       class="cls-2"
       d="m1309.65,399.51c-2.24,0-4.29-.42-6.14-1.27-1.85-.84-3.45-2-4.81-3.45-1.36-1.46-2.41-3.15-3.16-5.07-.75-1.93-1.12-3.95-1.12-6.08s.38-4.21,1.15-6.14c.77-1.93,1.83-3.62,3.19-5.07,1.36-1.45,2.96-2.62,4.81-3.48,1.85-.87,3.87-1.3,6.08-1.3s4.24.43,6.11,1.3c1.87.87,3.48,2.03,4.84,3.48,1.36,1.46,2.42,3.15,3.19,5.07.77,1.93,1.15,3.97,1.15,6.14s-.37,4.15-1.12,6.08c-.75,1.93-1.8,3.62-3.16,5.07-1.36,1.46-2.97,2.61-4.84,3.45-1.87.85-3.92,1.27-6.17,1.27Zm-11.15-15.81c0,1.73.29,3.33.88,4.81.59,1.47,1.39,2.77,2.39,3.89s2.18,2,3.54,2.63,2.8.94,4.34.94,2.98-.32,4.34-.97c1.36-.65,2.55-1.53,3.57-2.65,1.02-1.12,1.83-2.43,2.42-3.92.59-1.49.89-3.11.89-4.84s-.29-3.29-.89-4.81c-.59-1.51-1.4-2.83-2.42-3.95-1.02-1.12-2.21-2.01-3.57-2.66-1.36-.65-2.8-.97-4.34-.97s-2.97.33-4.31.97c-1.34.65-2.52,1.54-3.54,2.68-1.02,1.14-1.83,2.47-2.42,3.98-.59,1.51-.88,3.14-.88,4.87Z"
       id="path64" />
    <path
       class="cls-2"
       d="m1357.49,398.92h-4.01v-17.17c0-3.66-.54-6.31-1.62-7.96-1.08-1.65-2.74-2.48-4.99-2.48-1.18,0-2.36.22-3.54.65-1.18.43-2.27,1.04-3.28,1.83-1,.79-1.9,1.72-2.68,2.8-.79,1.08-1.36,2.25-1.71,3.51v18.82h-4.01v-30.74h3.66v6.96c1.26-2.24,3.06-4.05,5.4-5.43,2.34-1.38,4.89-2.06,7.64-2.06,1.69,0,3.13.31,4.31.94,1.18.63,2.12,1.51,2.83,2.66.71,1.14,1.22,2.54,1.53,4.19.31,1.65.47,3.48.47,5.49v18Z"
       id="path66" />
    <path
       class="cls-2"
       d="m1379.15,399.51c-2.24,0-4.29-.42-6.14-1.27-1.85-.84-3.45-2-4.81-3.45-1.36-1.46-2.41-3.15-3.16-5.07-.75-1.93-1.12-3.95-1.12-6.08s.38-4.21,1.15-6.14c.77-1.93,1.83-3.62,3.19-5.07,1.36-1.45,2.96-2.62,4.81-3.48,1.85-.87,3.87-1.3,6.08-1.3s4.24.43,6.11,1.3c1.87.87,3.48,2.03,4.84,3.48,1.36,1.46,2.42,3.15,3.19,5.07.77,1.93,1.15,3.97,1.15,6.14s-.37,4.15-1.12,6.08c-.75,1.93-1.8,3.62-3.16,5.07-1.36,1.46-2.97,2.61-4.84,3.45-1.87.85-3.92,1.27-6.17,1.27Zm-11.15-15.81c0,1.73.29,3.33.88,4.81.59,1.47,1.39,2.77,2.39,3.89s2.18,2,3.54,2.63,2.8.94,4.34.94,2.98-.32,4.34-.97c1.36-.65,2.55-1.53,3.57-2.65,1.02-1.12,1.83-2.43,2.42-3.92.59-1.49.89-3.11.89-4.84s-.29-3.29-.89-4.81c-.59-1.51-1.4-2.83-2.42-3.95-1.02-1.12-2.21-2.01-3.57-2.66-1.36-.65-2.8-.97-4.34-.97s-2.97.33-4.31.97c-1.34.65-2.52,1.54-3.54,2.68-1.02,1.14-1.83,2.47-2.42,3.98-.59,1.51-.88,3.14-.88,4.87Z"
       id="path68" />
    <path
       class="cls-2"
       d="m1446.88,398.92h-4.01v-17.17c0-3.58-.57-6.21-1.71-7.91-1.14-1.69-2.83-2.54-5.07-2.54-1.18,0-2.29.22-3.33.65-1.04.43-2.01,1.04-2.89,1.83-.89.79-1.66,1.72-2.33,2.8s-1.18,2.27-1.53,3.57v18.76h-4.01v-17.17c0-3.66-.55-6.31-1.65-7.96-1.1-1.65-2.79-2.48-5.07-2.48s-4.39.81-6.2,2.42c-1.81,1.61-3.11,3.74-3.89,6.37v18.82h-4.01v-30.74h3.66v6.96c1.26-2.36,2.91-4.2,4.96-5.52,2.04-1.32,4.31-1.98,6.79-1.98s4.67.73,6.22,2.18c1.55,1.46,2.51,3.36,2.86,5.72,2.87-5.27,6.82-7.91,11.86-7.91,1.73,0,3.2.31,4.4.94,1.2.63,2.16,1.53,2.89,2.68.73,1.16,1.26,2.56,1.59,4.19.33,1.63.5,3.45.5,5.46v18Z"
       id="path70" />
    <path
       class="cls-2"
       d="m1455.37,361.75v-5.9h4.01v5.9h-4.01Zm0,37.17v-30.74h4.01v30.74h-4.01Z"
       id="path72" />
    <path
       class="cls-2"
       d="m1481.51,399.51c-2.24,0-4.3-.42-6.17-1.27-1.87-.84-3.49-2.01-4.87-3.48-1.38-1.48-2.45-3.18-3.22-5.1-.77-1.93-1.15-3.99-1.15-6.2s.38-4.2,1.15-6.11c.77-1.91,1.83-3.58,3.19-5.01,1.36-1.44,2.98-2.58,4.87-3.42,1.89-.84,3.93-1.27,6.14-1.27s4.3.42,6.17,1.27c1.87.85,3.47,2,4.81,3.45,1.34,1.46,2.38,3.13,3.13,5.01.75,1.89,1.12,3.89,1.12,6.02v.94c0,.32-.02.53-.06.65h-26.31c.12,1.65.5,3.18,1.15,4.57.65,1.4,1.48,2.61,2.51,3.63,1.02,1.02,2.19,1.82,3.51,2.39,1.32.57,2.72.86,4.22.86.98,0,1.97-.14,2.95-.41.98-.28,1.89-.65,2.71-1.12.83-.47,1.57-1.05,2.24-1.74.67-.69,1.18-1.45,1.53-2.27l3.48.94c-.47,1.14-1.14,2.17-2.01,3.1-.87.92-1.87,1.73-3.01,2.42-1.14.69-2.4,1.22-3.78,1.59-1.38.37-2.81.56-4.31.56Zm11.33-17.58c-.12-1.65-.5-3.16-1.15-4.51-.65-1.36-1.48-2.53-2.48-3.51s-2.16-1.75-3.48-2.3c-1.32-.55-2.72-.83-4.22-.83s-2.91.28-4.25.83c-1.34.55-2.51,1.32-3.51,2.3s-1.81,2.16-2.42,3.54c-.61,1.38-.97,2.87-1.09,4.48h22.6Z"
       id="path74" />
    <path
       class="cls-2"
       d="m1530.54,399.51c-2.12,0-4.09-.44-5.9-1.33-1.81-.88-3.36-2.05-4.66-3.51-1.3-1.46-2.31-3.14-3.04-5.04-.73-1.91-1.09-3.9-1.09-5.99s.35-4.22,1.06-6.17,1.68-3.65,2.92-5.1c1.24-1.46,2.71-2.61,4.42-3.45,1.71-.84,3.59-1.27,5.63-1.27,2.6,0,4.9.68,6.9,2.04,2.01,1.36,3.58,3,4.72,4.93v-18.76h4.01v37.88c0,1.1.47,1.65,1.42,1.65v3.54c-.59.12-1.06.18-1.42.18-.94,0-1.77-.3-2.48-.91-.71-.61-1.06-1.35-1.06-2.21v-3.01c-1.22,2.01-2.87,3.6-4.96,4.78-2.08,1.18-4.25,1.77-6.49,1.77Zm.88-3.54c.98,0,2.04-.2,3.16-.59,1.12-.39,2.17-.93,3.16-1.62.98-.69,1.82-1.5,2.51-2.42.69-.92,1.11-1.92,1.27-2.98v-9.5c-.39-1.06-.96-2.06-1.71-2.98-.75-.92-1.6-1.74-2.57-2.45s-2-1.26-3.1-1.65c-1.1-.39-2.18-.59-3.25-.59-1.65,0-3.15.35-4.48,1.06-1.34.71-2.49,1.64-3.45,2.8-.96,1.16-1.7,2.49-2.21,3.98-.51,1.5-.77,3.03-.77,4.6,0,1.65.29,3.23.88,4.72s1.4,2.8,2.42,3.92c1.02,1.12,2.23,2.02,3.63,2.68,1.4.67,2.9,1,4.51,1Z"
       id="path76" />
    <path
       class="cls-2"
       d="m1564.23,399.51c-3.34,0-5.83-1.11-7.46-3.33-1.63-2.22-2.45-5.54-2.45-9.94v-18.05h4.01v17.35c0,6.96,2.38,10.44,7.14,10.44,1.18,0,2.34-.2,3.48-.59,1.14-.39,2.19-.96,3.16-1.71.96-.75,1.83-1.63,2.6-2.66.77-1.02,1.39-2.18,1.86-3.48v-19.35h4.01v25.55c0,1.1.47,1.65,1.42,1.65v3.54c-.47.08-.86.12-1.15.12h-.62c-.94-.04-1.71-.37-2.3-1-.59-.63-.89-1.48-.89-2.54v-3.54c-1.34,2.4-3.16,4.26-5.46,5.58-2.3,1.32-4.75,1.98-7.35,1.98Z"
       id="path78" />
    <path
       class="cls-2"
       d="m1604.99,371.72c-2.71.08-5.07.83-7.08,2.24-2.01,1.42-3.42,3.36-4.25,5.84v19.12h-4.01v-30.74h3.78v7.38c1.14-2.36,2.67-4.21,4.6-5.55,1.93-1.34,3.99-2.01,6.2-2.01.31,0,.57.02.77.06v3.66Z"
       id="path80" />
    <path
       class="cls-2"
       d="m 1618.39,399.51 c -1.46,0 -2.8,-0.25 -4.04,-0.74 -1.24,-0.49 -2.32,-1.17 -3.25,-2.04 -0.92,-0.87 -1.64,-1.88 -2.15,-3.04 -0.51,-1.16 -0.77,-2.41 -0.77,-3.75 0,-1.34 0.31,-2.58 0.94,-3.72 0.63,-1.14 1.51,-2.12 2.66,-2.95 1.14,-0.83 2.5,-1.46 4.07,-1.92 1.57,-0.45 3.3,-0.68 5.19,-0.68 1.57,0 3.17,0.14 4.78,0.41 1.61,0.28 3.05,0.67 4.31,1.18 v -2.77 c 0,-2.71 -0.77,-4.87 -2.3,-6.46 -1.53,-1.59 -3.66,-2.39 -6.37,-2.39 -1.57,0 -3.19,0.32 -4.84,0.94 -1.65,0.63 -3.32,1.53 -5.01,2.71 l -1.42,-2.66 c 3.97,-2.67 7.83,-4.01 11.56,-4.01 3.73,0 6.88,1.08 9.09,3.24 2.2,2.16 3.3,5.15 3.3,8.97 v 13.86 c 0,1.1 0.49,1.65 1.47,1.65 v 3.54 c -0.67,0.12 -1.18,0.18 -1.53,0.18 -1.02,0 -1.82,-0.25 -2.39,-0.77 -0.57,-0.51 -0.88,-1.22 -0.92,-2.12 l -0.12,-2.42 c -1.42,1.85 -3.2,3.26 -5.34,4.25 -2.14,0.98 -4.46,1.47 -6.93,1.47 z m 0.94,-3.07 c 2.08,0 4,-0.39 5.75,-1.18 1.75,-0.79 3.08,-1.83 3.98,-3.13 0.35,-0.35 0.62,-0.74 0.8,-1.15 0.18,-0.41 0.26,-0.8 0.26,-1.15 v -5.01 c -1.34,-0.51 -2.72,-0.9 -4.16,-1.18 -1.44,-0.27 -2.9,-0.41 -4.4,-0.41 -2.83,0 -5.13,0.59 -6.9,1.77 -1.77,1.18 -2.65,2.73 -2.65,4.66 0,0.94 0.19,1.83 0.56,2.65 0.37,0.83 0.88,1.54 1.53,2.15 0.65,0.61 1.42,1.09 2.33,1.45 0.9,0.35 1.87,0.53 2.89,0.53 z"
       id="path84" />
    <path
       class="cls-2"
       d="m 1657.86,399.51 c -2.44,0 -4.67,-0.61 -6.7,-1.83 -2.03,-1.22 -3.61,-2.79 -4.75,-4.72 v 5.96 h -3.6 v -43.07 h 4.01 v 18.76 c 1.38,-2.08 3.03,-3.77 4.96,-5.04 1.93,-1.28 4.17,-1.92 6.73,-1.92 2.16,0 4.1,0.45 5.81,1.36 1.71,0.91 3.17,2.12 4.37,3.63 1.2,1.51 2.12,3.23 2.77,5.13 0.65,1.91 0.97,3.86 0.97,5.87 0,2.16 -0.37,4.21 -1.12,6.14 -0.75,1.93 -1.77,3.61 -3.07,5.04 -1.3,1.44 -2.84,2.58 -4.63,3.42 -1.79,0.85 -3.71,1.27 -5.75,1.27 z m -0.94,-3.54 c 1.69,0 3.23,-0.34 4.63,-1.03 1.4,-0.69 2.6,-1.61 3.6,-2.77 1,-1.16 1.79,-2.48 2.36,-3.95 0.57,-1.47 0.86,-3 0.86,-4.57 0,-1.57 -0.27,-3.17 -0.8,-4.66 -0.53,-1.49 -1.28,-2.82 -2.24,-3.98 -0.96,-1.16 -2.12,-2.08 -3.48,-2.77 -1.36,-0.69 -2.84,-1.03 -4.45,-1.03 -1.22,0 -2.36,0.21 -3.42,0.62 -1.06,0.41 -2.05,0.97 -2.95,1.68 -0.91,0.71 -1.71,1.52 -2.42,2.45 -0.71,0.92 -1.3,1.9 -1.77,2.92 v 9.56 c 0.16,1.06 0.58,2.06 1.27,2.98 0.69,0.92 1.51,1.72 2.48,2.39 0.96,0.67 2.01,1.2 3.13,1.59 1.12,0.39 2.19,0.59 3.22,0.59 z"
       id="path86" />
    <path
       class="cls-2"
       d="m 1679.39,355.85 h 4.01 v 36.11 c 0,1.14 0.31,2.04 0.94,2.68 0.63,0.65 1.51,0.97 2.66,0.97 0.43,0 0.94,-0.06 1.53,-0.18 0.59,-0.12 1.14,-0.27 1.65,-0.47 l 0.71,3.25 c -0.75,0.32 -1.66,0.57 -2.74,0.77 -1.08,0.2 -2.02,0.29 -2.8,0.29 -1.85,0 -3.3,-0.52 -4.37,-1.56 -1.06,-1.04 -1.59,-2.51 -1.59,-4.4 z"
       id="path88" />
    <path
       class="cls-2"
       d="m 1708.54,399.51 c -2.24,0 -4.3,-0.42 -6.17,-1.27 -1.87,-0.84 -3.49,-2.01 -4.87,-3.48 -1.38,-1.48 -2.45,-3.18 -3.22,-5.1 -0.77,-1.93 -1.15,-3.99 -1.15,-6.2 0,-2.21 0.38,-4.2 1.15,-6.11 0.77,-1.91 1.83,-3.58 3.19,-5.01 1.36,-1.44 2.98,-2.58 4.87,-3.42 1.89,-0.84 3.93,-1.27 6.14,-1.27 2.21,0 4.3,0.42 6.17,1.27 1.87,0.85 3.47,2 4.81,3.45 1.34,1.46 2.38,3.13 3.13,5.01 0.75,1.89 1.12,3.89 1.12,6.02 v 0.94 c 0,0.32 -0.02,0.53 -0.06,0.65 h -26.31 c 0.12,1.65 0.5,3.18 1.15,4.57 0.65,1.4 1.48,2.61 2.51,3.63 1.02,1.02 2.19,1.82 3.51,2.39 1.32,0.57 2.72,0.86 4.22,0.86 0.98,0 1.97,-0.14 2.95,-0.41 0.98,-0.28 1.89,-0.65 2.71,-1.12 0.83,-0.47 1.57,-1.05 2.24,-1.74 0.67,-0.69 1.18,-1.45 1.53,-2.27 l 3.48,0.94 c -0.47,1.14 -1.14,2.17 -2.01,3.1 -0.87,0.92 -1.87,1.73 -3.01,2.42 -1.14,0.69 -2.4,1.22 -3.78,1.59 -1.38,0.37 -2.81,0.56 -4.31,0.56 z m 11.33,-17.58 c -0.12,-1.65 -0.5,-3.16 -1.15,-4.51 -0.65,-1.36 -1.48,-2.53 -2.48,-3.51 -1,-0.98 -2.16,-1.75 -3.48,-2.3 -1.32,-0.55 -2.72,-0.83 -4.22,-0.83 -1.5,0 -2.91,0.28 -4.25,0.83 -1.34,0.55 -2.51,1.32 -3.51,2.3 -1,0.98 -1.81,2.16 -2.42,3.54 -0.61,1.38 -0.97,2.87 -1.09,4.48 z"
       id="path90" />
  </g>
  <g
     id="g128">
    <path
       class="cls-1"
       d="m988.53,171.64v-53.25h10.35v44.17h27.15v9.08h-37.5Z"
       id="path94" />
    <path
       class="cls-1"
       d="m1042.08,172.39c-1.9,0-3.67-.31-5.33-.94-1.65-.62-3.07-1.5-4.27-2.62s-2.14-2.44-2.81-3.94-1.01-3.15-1.01-4.95.41-3.56,1.24-5.14c.83-1.58,1.97-2.91,3.45-4.01,1.47-1.1,3.24-1.96,5.29-2.59,2.05-.62,4.3-.94,6.75-.94,1.75,0,3.46.15,5.14.45,1.67.3,3.16.73,4.46,1.27v-2.25c0-2.6-.74-4.6-2.21-6-1.48-1.4-3.66-2.1-6.56-2.1-2.1,0-4.15.38-6.15,1.12-2,.75-4.05,1.85-6.15,3.3l-3.08-6.38c5.05-3.35,10.5-5.02,16.35-5.02s10.04,1.39,13.16,4.16c3.12,2.77,4.69,6.79,4.69,12.04v12.23c0,1.05.19,1.8.56,2.25.38.45.99.7,1.84.75v8.55c-1.7.35-3.18.52-4.43.52-1.9,0-3.36-.43-4.39-1.27-1.03-.85-1.66-1.97-1.91-3.38l-.22-2.17c-1.75,2.3-3.88,4.05-6.38,5.25-2.5,1.2-5.17,1.8-8.03,1.8Zm2.85-7.35c1.7,0,3.31-.3,4.84-.9,1.52-.6,2.71-1.4,3.56-2.4,1.1-.85,1.65-1.8,1.65-2.85v-4.5c-1.2-.45-2.5-.81-3.9-1.09-1.4-.27-2.75-.41-4.05-.41-2.6,0-4.72.59-6.38,1.76-1.65,1.18-2.47,2.66-2.47,4.46,0,1.7.65,3.11,1.95,4.24,1.3,1.12,2.9,1.69,4.8,1.69Z"
       id="path96" />
    <path
       class="cls-1"
       d="m1125.11,132.34c-.35-.35-.99-.83-1.91-1.43-.93-.6-2.05-1.19-3.38-1.76-1.33-.57-2.76-1.06-4.31-1.46-1.55-.4-3.12-.6-4.72-.6-2.85,0-4.98.52-6.38,1.57-1.4,1.05-2.1,2.53-2.1,4.43,0,1.1.26,2.01.79,2.74.52.73,1.29,1.36,2.29,1.91,1,.55,2.26,1.05,3.79,1.5,1.52.45,3.29.93,5.29,1.42,2.6.7,4.96,1.45,7.09,2.25,2.12.8,3.92,1.8,5.4,3,1.47,1.2,2.61,2.64,3.41,4.31.8,1.68,1.2,3.74,1.2,6.19,0,2.85-.54,5.29-1.61,7.31s-2.53,3.66-4.35,4.91c-1.83,1.25-3.93,2.16-6.3,2.74-2.38.57-4.86.86-7.46.86-4,0-7.95-.6-11.85-1.8-3.9-1.2-7.4-2.9-10.5-5.1l4.57-8.93c.45.45,1.26,1.04,2.44,1.76,1.17.73,2.56,1.45,4.16,2.17,1.6.73,3.38,1.34,5.33,1.84,1.95.5,3.95.75,6,.75,5.7,0,8.55-1.82,8.55-5.47,0-1.15-.33-2.12-.98-2.93-.65-.8-1.57-1.5-2.77-2.1-1.2-.6-2.65-1.15-4.35-1.65-1.7-.5-3.6-1.05-5.7-1.65-2.55-.7-4.76-1.46-6.64-2.29-1.88-.82-3.44-1.8-4.69-2.92-1.25-1.12-2.19-2.42-2.81-3.9-.63-1.47-.94-3.24-.94-5.29,0-2.7.5-5.1,1.5-7.2,1-2.1,2.39-3.85,4.16-5.25,1.77-1.4,3.84-2.46,6.19-3.19,2.35-.72,4.88-1.09,7.58-1.09,3.75,0,7.2.59,10.35,1.76,3.15,1.18,5.9,2.56,8.25,4.16l-4.57,8.4Z"
       id="path98" />
    <path
       class="cls-1"
       d="m1156.53,172.39c-3.2,0-6.07-.55-8.62-1.65-2.55-1.1-4.71-2.59-6.49-4.46-1.78-1.88-3.14-4.04-4.09-6.49-.95-2.45-1.43-5.02-1.43-7.73s.47-5.35,1.43-7.8c.95-2.45,2.31-4.61,4.09-6.49,1.77-1.88,3.94-3.36,6.49-4.46,2.55-1.1,5.42-1.65,8.62-1.65s6.06.55,8.59,1.65c2.52,1.1,4.67,2.59,6.45,4.46,1.77,1.88,3.14,4.04,4.09,6.49.95,2.45,1.43,5.05,1.43,7.8s-.48,5.28-1.43,7.73c-.95,2.45-2.3,4.61-4.05,6.49-1.75,1.88-3.9,3.36-6.45,4.46-2.55,1.1-5.43,1.65-8.62,1.65Zm-10.27-20.33c0,1.75.26,3.34.79,4.76.53,1.42,1.25,2.66,2.17,3.71.92,1.05,2.01,1.86,3.26,2.44,1.25.58,2.6.86,4.05.86s2.8-.29,4.05-.86c1.25-.57,2.34-1.39,3.26-2.44.92-1.05,1.65-2.3,2.18-3.75.52-1.45.79-3.05.79-4.8s-.26-3.27-.79-4.73c-.53-1.45-1.25-2.7-2.18-3.75-.93-1.05-2.01-1.86-3.26-2.44-1.25-.57-2.6-.86-4.05-.86s-2.8.3-4.05.9c-1.25.6-2.34,1.42-3.26,2.48-.93,1.05-1.65,2.3-2.17,3.75-.52,1.45-.79,3.03-.79,4.72Z"
       id="path100" />
    <path
       class="cls-1"
       d="m1181.35,151.99c0-2.75.47-5.35,1.43-7.8.95-2.45,2.32-4.6,4.12-6.45,1.8-1.85,3.97-3.32,6.52-4.43,2.55-1.1,5.42-1.65,8.62-1.65,4.3,0,7.96.93,10.99,2.77,3.03,1.85,5.29,4.28,6.79,7.28l-9.83,3c-.85-1.45-1.98-2.56-3.38-3.34-1.4-.77-2.95-1.16-4.65-1.16-1.45,0-2.8.29-4.05.86-1.25.58-2.34,1.38-3.26,2.4-.93,1.03-1.65,2.26-2.17,3.71-.52,1.45-.79,3.05-.79,4.8s.27,3.35.83,4.8c.55,1.45,1.29,2.7,2.21,3.75.92,1.05,2.01,1.86,3.26,2.44,1.25.58,2.57.86,3.97.86,1.8,0,3.46-.45,4.99-1.35,1.52-.9,2.59-2,3.19-3.3l9.82,3c-1.35,3-3.58,5.45-6.67,7.35-3.1,1.9-6.83,2.85-11.17,2.85-3.2,0-6.08-.55-8.62-1.65s-4.72-2.59-6.53-4.46c-1.8-1.88-3.19-4.05-4.16-6.53-.97-2.47-1.46-5.06-1.46-7.76Z"
       id="path102" />
    <path
       class="cls-1"
       d="m1226.13,126.86v-9.98h10.05v9.98h-10.05Zm0,44.77v-39.3h10.05v39.3h-10.05Z"
       id="path104" />
    <path
       class="cls-1"
       d="m1263.48,172.39c-3.15,0-6-.54-8.55-1.61-2.55-1.07-4.72-2.54-6.53-4.39-1.8-1.85-3.19-4-4.16-6.45-.97-2.45-1.46-5.02-1.46-7.72s.47-5.44,1.43-7.91c.95-2.48,2.32-4.65,4.12-6.52,1.8-1.88,3.99-3.36,6.56-4.46,2.57-1.1,5.46-1.65,8.66-1.65s6.06.55,8.59,1.65c2.52,1.1,4.67,2.58,6.45,4.43,1.77,1.85,3.12,4,4.05,6.45.92,2.45,1.39,5,1.39,7.65,0,.65-.01,1.27-.04,1.88-.03.6-.09,1.1-.19,1.5h-30.38c.15,1.55.53,2.92,1.12,4.12.6,1.2,1.38,2.23,2.33,3.07.95.85,2.02,1.5,3.22,1.95,1.2.45,2.45.67,3.75.67,2,0,3.89-.49,5.66-1.46,1.77-.98,2.99-2.26,3.64-3.86l8.62,2.4c-1.45,3-3.76,5.46-6.94,7.39-3.18,1.93-6.96,2.89-11.36,2.89Zm10.2-23.7c-.25-2.95-1.34-5.31-3.26-7.09-1.92-1.77-4.26-2.66-7.01-2.66-1.35,0-2.61.24-3.79.71-1.18.48-2.21,1.14-3.11,1.99-.9.85-1.64,1.88-2.21,3.08-.58,1.2-.91,2.53-1.01,3.97h20.4Zm-7.72-20.92l-6.45-1.95,4.05-8.92h9.38l-6.97,10.88Z"
       id="path106" />
    <path
       class="cls-1"
       d="m1313.43,169.61c-1.35.6-3,1.2-4.95,1.8s-4,.9-6.15.9c-1.4,0-2.71-.18-3.94-.52-1.23-.35-2.3-.91-3.23-1.69-.93-.77-1.66-1.77-2.21-3-.55-1.22-.83-2.71-.83-4.46v-22.58h-5.17v-7.72h5.17v-12.75h10.05v12.75h8.25v7.72h-8.25v19.2c0,1.4.36,2.39,1.09,2.96.72.58,1.61.86,2.66.86s2.07-.17,3.08-.53c1-.35,1.8-.65,2.4-.9l2.03,7.95Z"
       id="path108" />
    <path
       class="cls-1"
       d="m1335.93,172.39c-3.15,0-6-.54-8.55-1.61-2.55-1.07-4.72-2.54-6.53-4.39-1.8-1.85-3.19-4-4.16-6.45-.97-2.45-1.46-5.02-1.46-7.72s.47-5.44,1.43-7.91c.95-2.48,2.32-4.65,4.12-6.52,1.8-1.88,3.99-3.36,6.56-4.46,2.57-1.1,5.46-1.65,8.66-1.65s6.06.55,8.59,1.65c2.52,1.1,4.67,2.58,6.45,4.43,1.77,1.85,3.12,4,4.05,6.45.92,2.45,1.39,5,1.39,7.65,0,.65-.01,1.27-.04,1.88-.03.6-.09,1.1-.19,1.5h-30.38c.15,1.55.53,2.92,1.12,4.12.6,1.2,1.38,2.23,2.33,3.07.95.85,2.02,1.5,3.22,1.95,1.2.45,2.45.67,3.75.67,2,0,3.89-.49,5.66-1.46,1.77-.98,2.99-2.26,3.64-3.86l8.62,2.4c-1.45,3-3.76,5.46-6.94,7.39-3.18,1.93-6.96,2.89-11.36,2.89Zm10.2-23.7c-.25-2.95-1.34-5.31-3.26-7.09-1.92-1.77-4.26-2.66-7.01-2.66-1.35,0-2.61.24-3.79.71-1.18.48-2.21,1.14-3.11,1.99-.9.85-1.64,1.88-2.21,3.08-.58,1.2-.91,2.53-1.01,3.97h20.4Zm-7.72-20.92l-6.45-1.95,4.05-8.92h9.38l-6.97,10.88Z"
       id="path110" />
    <path
       class="cls-1"
       d="m1391.95,137.51v34.12h-10.35v-53.25h8.03l27.75,34.95v-34.88h10.35v53.17h-8.4l-27.38-34.12Z"
       id="path112" />
    <path
       class="cls-1"
       d="m1455.48,172.39c-3.2,0-6.07-.55-8.62-1.65-2.55-1.1-4.71-2.59-6.49-4.46-1.78-1.88-3.14-4.04-4.09-6.49-.95-2.45-1.43-5.02-1.43-7.73s.47-5.35,1.43-7.8c.95-2.45,2.31-4.61,4.09-6.49,1.77-1.88,3.94-3.36,6.49-4.46,2.55-1.1,5.42-1.65,8.62-1.65s6.06.55,8.59,1.65c2.52,1.1,4.67,2.59,6.45,4.46,1.77,1.88,3.14,4.04,4.09,6.49.95,2.45,1.43,5.05,1.43,7.8s-.48,5.28-1.43,7.73c-.95,2.45-2.3,4.61-4.05,6.49-1.75,1.88-3.9,3.36-6.45,4.46-2.55,1.1-5.43,1.65-8.62,1.65Zm-10.27-20.33c0,1.75.26,3.34.79,4.76.53,1.42,1.25,2.66,2.17,3.71.92,1.05,2.01,1.86,3.26,2.44,1.25.58,2.6.86,4.05.86s2.8-.29,4.05-.86c1.25-.57,2.34-1.39,3.26-2.44.92-1.05,1.65-2.3,2.18-3.75.52-1.45.79-3.05.79-4.8s-.26-3.27-.79-4.73c-.53-1.45-1.25-2.7-2.18-3.75-.93-1.05-2.01-1.86-3.26-2.44-1.25-.57-2.6-.86-4.05-.86s-2.8.3-4.05.9c-1.25.6-2.34,1.42-3.26,2.48-.93,1.05-1.65,2.3-2.17,3.75-.52,1.45-.79,3.03-.79,4.72Z"
       id="path114" />
    <path
       class="cls-1"
       d="m1494.78,172.39c-4.05,0-7.12-1.3-9.23-3.9-2.1-2.6-3.15-6.45-3.15-11.55v-24.6h10.05v22.42c0,6.05,2.17,9.08,6.53,9.08,1.95,0,3.84-.59,5.66-1.76,1.82-1.17,3.31-2.96,4.46-5.36v-24.38h10.05v27.75c0,1.05.19,1.8.56,2.25.38.45.99.7,1.84.75v8.55c-1,.2-1.84.32-2.51.38-.68.05-1.29.08-1.84.08-1.8,0-3.26-.41-4.39-1.24-1.12-.82-1.79-1.96-1.99-3.41l-.22-3.15c-1.75,2.7-4,4.73-6.75,6.08-2.75,1.35-5.78,2.02-9.08,2.02Z"
       id="path116" />
    <path
       class="cls-1"
       d="m1539.7,171.64l-14.48-39.3h10.35l9.97,31.12,10.05-31.12h9.45l-14.47,39.3h-10.88Z"
       id="path118" />
    <path
       class="cls-1"
       d="m1587.18,172.39c-3.15,0-6-.54-8.55-1.61-2.55-1.07-4.72-2.54-6.53-4.39-1.8-1.85-3.19-4-4.16-6.45-.97-2.45-1.46-5.02-1.46-7.72s.47-5.44,1.43-7.91c.95-2.48,2.32-4.65,4.12-6.52,1.8-1.88,3.99-3.36,6.56-4.46,2.57-1.1,5.46-1.65,8.66-1.65s6.06.55,8.59,1.65c2.52,1.1,4.67,2.58,6.45,4.43,1.77,1.85,3.12,4,4.05,6.45.92,2.45,1.39,5,1.39,7.65,0,.65-.01,1.27-.04,1.88-.03.6-.09,1.1-.19,1.5h-30.38c.15,1.55.53,2.92,1.12,4.12.6,1.2,1.38,2.23,2.33,3.07.95.85,2.02,1.5,3.22,1.95,1.2.45,2.45.67,3.75.67,2,0,3.89-.49,5.66-1.46,1.77-.98,2.99-2.26,3.64-3.86l8.62,2.4c-1.45,3-3.76,5.46-6.94,7.39-3.18,1.93-6.96,2.89-11.36,2.89Zm10.2-23.7c-.25-2.95-1.34-5.31-3.26-7.09-1.92-1.77-4.26-2.66-7.01-2.66-1.35,0-2.61.24-3.79.71-1.18.48-2.21,1.14-3.11,1.99-.9.85-1.64,1.88-2.21,3.08-.58,1.2-.91,2.53-1.01,3.97h20.4Z"
       id="path120" />
    <path
       class="cls-1"
       d="m1613.8,116.89h10.05v42.15c0,1.45.35,2.58,1.05,3.38.7.8,1.7,1.2,3,1.2.6,0,1.26-.1,1.99-.3.72-.2,1.41-.45,2.06-.75l1.35,7.65c-1.35.65-2.92,1.15-4.72,1.5-1.8.35-3.43.52-4.88.52-3.15,0-5.59-.84-7.31-2.51-1.73-1.67-2.59-4.06-2.59-7.16v-45.67Z"
       id="path122" />
    <path
       class="cls-1"
       d="m1637.58,116.89h10.05v42.15c0,1.45.35,2.58,1.05,3.38.7.8,1.7,1.2,3,1.2.6,0,1.26-.1,1.99-.3.72-.2,1.41-.45,2.06-.75l1.35,7.65c-1.35.65-2.92,1.15-4.72,1.5-1.8.35-3.43.52-4.88.52-3.15,0-5.59-.84-7.31-2.51-1.73-1.67-2.59-4.06-2.59-7.16v-45.67Z"
       id="path124" />
    <path
       class="cls-1"
       d="m1679.65,172.39c-3.15,0-6-.54-8.55-1.61-2.55-1.07-4.72-2.54-6.53-4.39-1.8-1.85-3.19-4-4.16-6.45-.97-2.45-1.46-5.02-1.46-7.72s.47-5.44,1.43-7.91c.95-2.48,2.32-4.65,4.12-6.52,1.8-1.88,3.99-3.36,6.56-4.46,2.57-1.1,5.46-1.65,8.66-1.65s6.06.55,8.59,1.65c2.52,1.1,4.67,2.58,6.45,4.43,1.77,1.85,3.12,4,4.05,6.45.92,2.45,1.39,5,1.39,7.65,0,.65-.01,1.27-.04,1.88-.03.6-.09,1.1-.19,1.5h-30.38c.15,1.55.53,2.92,1.12,4.12.6,1.2,1.38,2.23,2.33,3.07.95.85,2.02,1.5,3.22,1.95,1.2.45,2.45.67,3.75.67,2,0,3.89-.49,5.66-1.46,1.77-.98,2.99-2.26,3.64-3.86l8.62,2.4c-1.45,3-3.76,5.46-6.94,7.39-3.18,1.93-6.96,2.89-11.36,2.89Zm10.2-23.7c-.25-2.95-1.34-5.31-3.26-7.09-1.92-1.77-4.26-2.66-7.01-2.66-1.35,0-2.61.24-3.79.71-1.18.48-2.21,1.14-3.11,1.99-.9.85-1.64,1.88-2.21,3.08-.58,1.2-.91,2.53-1.01,3.97h20.4Z"
       id="path126" />
  </g>
</svg>
