<?xml version="1.0" encoding="UTF-8" standalone="no"?>
<svg
   id="Calque_1"
   data-name="Calque 1"
   viewBox="0 0 647.29354 250"
   version="1.1"
   width="647.29352"
   height="250"
   xmlns="http://www.w3.org/2000/svg"
   xmlns:svg="http://www.w3.org/2000/svg">
  <defs
     id="defs4">
    <style
       id="style2">
      .cls-1 {
        fill: #fff;
      }

      .cls-2 {
        fill: #191558;
      }
    </style>
  </defs>
  <g
     id="g2947"
     transform="scale(0.37279621)">
    <g
       id="g10"
       transform="translate(-7.39)">
      <path
         id="path55"
         class="cls-2"
         d="m 777.31,607.38 c 0.72,3.31 1.52,6.53 2.06,9.66 h 0.36 l 1.7,-2.24 c 0.36,0.89 1.34,1.88 0.54,3.31 -0.18,0.18 0,0.54 0,0.89 0.18,0.54 0.18,1.07 0.54,2.06 l 0.72,-1.88 0.54,0.18 1.34,3.31 0.18,-0.89 c 0.18,0 0.36,0 0.36,0.18 0.36,0.36 0.72,0.89 1.07,1.52 1.52,1.88 3.49,2.77 5.55,3.31 1.88,0.54 3.94,0.72 5.91,1.07 0.18,0 0.36,0 0.54,0.18 0.36,0.54 0.89,0.89 1.7,0.89 0.54,0 1.07,0.89 1.88,0 0,0 0.36,-0.18 0.54,0 1.34,0.89 1.7,0 2.06,-0.89 l 1.88,0.54 0.54,-3.49 c 0.72,0.89 1.07,0.89 1.52,-0.18 0.18,-0.89 0.72,-1.7 0.89,-2.59 l 0.89,1.88 c 1.34,-1.07 1.7,-2.42 1.7,-4.12 q 0,-1.34 1.52,-1.07 c -0.54,-0.89 -0.72,-1.7 0.18,-2.59 0.36,-0.36 0,-1.34 0.18,-1.88 0.36,-1.52 0.36,-3.13 1.52,-4.65 0.54,-0.54 0,-2.06 0,-2.95 0,-2.24 -0.18,-4.47 -0.36,-6.71 0,-1.34 -0.36,-2.59 -0.36,-3.94 v -2.59 l 0.54,-0.18 c 0.54,1.34 1.07,2.77 1.7,4.12 1.88,4.47 3.94,8.95 5.37,13.6 2.95,8.95 7.07,17.27 10.74,25.86 1.34,3.13 2.24,6.71 3.49,10.02 0.18,0.72 0,1.34 -0.72,1.88 -0.72,0.54 -1.52,1.34 -1.7,2.24 -0.54,2.24 -2.95,2.95 -4.12,4.65 -0.18,0.18 -0.72,0 -0.89,0.18 -0.54,0.36 -1.07,0.72 -1.34,1.34 0,0.36 0.36,1.34 0.89,1.52 0.72,0.18 1.7,0.36 2.42,0.18 1.34,-0.36 2.42,-0.89 3.49,-1.7 2.24,-1.07 4.47,-2.24 6.71,-3.13 0.54,-0.18 1.7,-0.18 2.24,0.18 1.7,0.89 2.06,0.72 3.13,-0.72 0.18,-0.18 1.07,-0.36 1.52,-0.18 1.52,0.89 2.77,1.34 4.47,0.54 0.72,-0.36 1.88,0 2.77,0 0.54,0 0.89,-0.36 1.52,-0.36 -0.36,-0.36 -0.54,-0.89 -0.89,-1.07 -2.24,-1.34 -4.29,-2.42 -5.91,-4.47 -0.54,-0.72 -1.34,-1.34 -2.24,-1.88 -1.34,-0.72 -2.06,-1.88 -2.24,-3.31 -0.89,-5.37 -1.88,-10.56 -2.77,-15.75 -0.72,-4.65 -1.88,-9.31 -3.94,-13.6 -1.7,-3.31 -2.77,-7.07 -4.12,-10.56 -0.72,-1.88 -1.7,-3.76 -2.24,-5.55 -0.18,-0.54 -0.36,-1.34 -0.18,-1.88 0.72,-1.88 0,-3.49 -0.72,-5.37 -1.34,-2.42 -2.42,-4.83 -3.76,-7.43 -0.36,-0.72 -0.36,-1.7 -0.36,-2.42 0,-2.95 -0.89,-5.73 -2.59,-8.32 -0.36,-0.54 -0.72,-1.34 -0.72,-2.06 -0.54,-4.29 -2.06,-8.32 -3.76,-12.26 -0.72,-1.88 -1.34,-3.76 -1.34,-5.73 -0.18,-4.12 -0.18,-8.32 -1.88,-12.26 -0.54,-1.07 -1.07,-2.42 -1.52,-3.49 -0.54,-2.24 -1.34,-4.29 -1.52,-6.53 -0.18,-8.95 -1.88,-17.63 -5.73,-25.86 -0.36,-0.72 -0.36,-1.52 0.36,-2.06 1.88,-1.34 3.94,-2.77 5.91,-3.94 1.7,-0.89 2.95,-1.88 3.94,-3.49 0.36,-0.72 0.89,-1.34 1.34,-2.06 0.36,-0.36 0.54,-0.89 1.07,-0.89 2.42,-0.89 4.83,-1.88 7.25,-2.77 1.52,-0.54 2.24,-1.88 1.88,-3.31 0,-0.36 0.36,-0.89 0.72,-1.07 2.06,-1.34 4.29,-2.59 6.35,-3.94 1.34,-0.89 2.59,-1.88 2.42,-3.94 0,-0.36 0.54,-0.72 0.89,-0.89 0.89,-0.54 1.88,-1.07 2.95,-1.7 2.06,-1.07 2.59,-2.77 2.24,-5.01 -0.36,-1.52 -0.72,-2.77 -1.07,-4.12 0,-0.36 0,-1.07 0.18,-1.34 8.32,-7.43 16.2,-15.57 22.46,-24.88 1.7,-2.42 4.12,-3.49 6.17,-5.37 0.72,-0.54 2.06,-0.36 2.95,-0.54 2.24,-0.18 4.65,-0.54 6.89,-0.36 2.77,0.18 5.55,0.89 8.59,1.52 2.06,0.36 3.94,0.36 5.73,-0.54 0,0 0.18,0 0.18,-0.18 3.49,-1.52 4.12,-2.59 3.76,-6.35 -0.72,-5.19 -5.55,-9.66 -10.74,-9.84 -4.83,-0.18 -9.48,-1.07 -14.14,-2.59 -5.55,-1.88 -5.19,-1.34 -8.77,3.13 -0.89,1.07 -1.7,2.42 -2.42,3.76 -0.72,1.52 -1.34,2.95 -1.88,4.47 -0.72,1.7 -1.52,3.49 -2.95,4.65 -4.12,2.77 -7.96,5.55 -12.26,8.14 -5.55,3.49 -10.2,7.78 -14.32,12.8 -0.36,0.54 -1.34,0.72 -1.88,0.89 -1.07,0.54 -2.24,0.89 -3.13,1.7 -1.52,1.34 -2.95,2.24 -4.65,3.13 -2.06,1.07 -4.12,2.59 -5.91,4.3 -3.49,3.31 -7.43,5.73 -11.9,7.61 -2.59,1.07 -5.37,2.59 -7.43,4.47 -2.59,2.24 -5.73,3.76 -8.59,5.55 -4.12,2.59 -8.14,5.37 -12.08,8.14 -1.52,1.07 -3.13,1.52 -5.01,1.52 -3.76,-0.18 -7.43,-0.36 -11.18,-0.36 -6.71,-0.18 -13.15,0.54 -19.51,2.24 -3.49,0.89 -6.89,1.52 -10.56,1.34 -1.52,0 -3.13,0.36 -4.65,0.36 -1.88,0 -3.76,-0.36 -5.37,-0.72 -2.95,-0.54 -6.17,-0.72 -9.31,-0.72 -2.42,0 -4.83,0.54 -7.25,0.72 -0.89,0 -1.88,0 -2.77,-0.36 -6.35,-2.42 -12.97,-3.49 -19.86,-3.49 -6.53,-0.18 -12.8,0 -19.33,-0.18 -0.89,0 -1.88,-0.54 -2.77,-0.89 -0.36,-0.18 -0.89,-0.36 -1.34,-0.54 -0.18,-0.18 -0.54,-0.18 -0.72,-0.36 -0.89,-0.89 -1.88,-1.88 -2.77,-2.95 -0.54,-0.54 -0.89,-1.34 -1.7,-1.88 -1.34,-1.07 -2.59,-2.59 -4.12,-3.31 -0.89,-0.36 -2.42,0.18 -3.49,0.54 -2.77,1.07 -5.37,2.77 -8.14,3.76 -1.88,0.54 -3.76,0.54 -5.73,0.89 -3.49,0.54 -7.07,1.52 -10.02,3.49 -2.24,1.52 -3.76,3.31 -4.65,5.73 -1.52,4.83 0.72,7.43 5.73,9.13 4.83,1.7 9.13,-0.18 13.33,-1.88 1.52,-0.54 2.95,-0.72 4.29,-1.34 1.88,-0.72 3.94,-0.72 5.91,-0.89 2.59,-0.36 5.01,-0.18 7.43,0.36 2.42,0.54 5.01,0.18 7.25,0.89 4.29,1.07 8.32,2.77 12.8,3.94 5.91,1.52 11.9,2.77 17.81,3.94 2.95,0.54 5.91,0.54 8.95,0.72 q 2.06,0.18 2.24,2.24 c 0,1.52 0.18,2.77 0.36,4.29 0,1.52 0.89,2.24 2.24,2.42 2.59,0.36 5.01,1.07 7.61,0.36 h 1.07 c 2.95,1.52 6.17,1.34 9.13,1.07 0.89,0 1.52,0.18 1.7,1.07 0.18,0.72 0.72,0.89 1.52,0.89 1.7,-0.18 3.31,-0.18 5.01,-0.54 1.88,-0.36 3.49,-0.18 5.19,0.36 6.17,2.06 12.44,3.13 18.79,2.59 0.36,0 0.89,0.36 1.34,0.72 0.89,1.34 1.7,2.77 2.59,4.12 0.72,1.07 1.7,2.24 2.59,3.49 2.06,2.59 1.7,5.55 1.07,8.77 -0.54,2.42 -1.07,4.83 -1.52,7.25 -0.18,2.06 -0.36,4.12 0,5.91 0.36,2.06 0.18,4.12 -0.18,5.91 -1.07,5.55 -2.24,11.18 -2.95,16.91 -0.18,1.7 0.18,3.49 0.18,5.19 v 4.29 c 0,2.24 -0.36,4.83 0.18,6.89 1.07,3.49 0.54,6.89 -0.18,10.2 -0.36,2.24 -1.07,4.47 -0.18,6.71 0.36,0.89 -0.18,2.06 -0.36,3.13 -0.18,2.77 -0.72,5.73 -0.72,8.59 0,2.86 -0.36,5.73 -1.07,8.59 -1.52,5.01 -0.89,10.2 -0.72,15.21 0.18,3.94 0.54,7.96 0.72,11.9 0,1.52 0,2.95 -0.18,4.47 0,0.36 -0.36,0.89 -0.72,1.07 -0.89,0.89 -2.06,1.88 -3.13,2.77 -0.89,0.89 -2.24,1.52 -3.49,1.34 -0.72,0 -1.7,-0.36 -1.7,0.72 0,1.08 0.89,1.34 1.7,1.34 3.49,0 6.89,-0.18 10.2,-0.36 1.07,0 2.06,0.18 3.13,0.36 1.52,0.18 2.95,0.36 4.47,0.18 3.13,-0.36 6.53,-0.89 9.66,-1.52 0.72,-0.18 1.88,-0.54 2.24,-1.07 0.89,-1.07 0.18,-2.42 -1.34,-2.24 -3.31,0.18 -6.53,-1.34 -9.66,-1.88 -0.72,-0.18 -1.07,-0.54 -0.89,-1.52 1.07,-7.96 1.52,-16.02 3.49,-23.98 1.52,-5.55 2.06,-11.18 2.42,-16.73 0.18,-2.59 0.54,-5.01 1.07,-7.61 0.72,-0.63 1.52,-1.79 2.24,-3.22 v 0 z m 31.41,-22.28 v 0 c -1.07,-0.54 -2.24,-1.34 -3.31,-2.06 -0.18,-0.18 -0.36,-0.36 -0.54,-0.72 0.36,0 0.89,-0.18 0.89,0 1.07,0.89 2.06,1.79 2.95,2.77 v 0 z m -27.83,28.19 -0.36,0.18 -0.36,-2.59 h 0.54 l 0.18,2.42 z" />
      <path
         id="path57"
         class="cls-2"
         d="m 347.1,349.5 c -20.58,0.89 -26.4,-16.55 -26.4,-16.55 25.23,-4.3 26.4,16.55 26.4,16.55 z m -20.04,0.72 c 0,0 -0.89,18.43 18.79,24.88 -0.09,0 6.26,-19.86 -18.79,-24.88 z m -19.33,19.33 c 0,0 -0.89,18.43 18.79,24.88 -0.09,0 6.26,-19.69 -18.79,-24.88 z m -6.53,10.02 c 0,0 -9.13,16.02 5.55,30.69 0,-0.09 14.5,-14.94 -5.55,-30.69 z m 11.9,-40.89 c 0,0 -8.59,16.37 6.53,30.51 0.18,0 14.05,-15.48 -6.53,-30.51 z m 244.1,41.07 c 0,0 5.73,17.45 26.4,16.55 0,-0.18 -1.16,-20.85 -26.4,-16.55 z m 6.35,17.09 c 0,0 -0.89,18.43 18.79,24.88 -0.09,0 6.26,-19.69 -18.79,-24.88 z M 689.09,281.32 c 0,0 5.73,17.45 26.4,16.55 0,-0.27 -1.34,-20.85 -26.4,-16.55 z m 6.35,17.27 c 0,0 -0.89,18.43 18.79,24.88 -0.09,-0.18 6.26,-19.86 -18.79,-24.88 z m -118.92,61.65 c 0,0 5.73,17.45 26.4,16.55 0.18,0 -1.16,-20.85 -26.4,-16.55 z m 6.53,17.27 c 0,0 -0.89,18.43 18.79,24.88 -0.27,0 6.08,-19.69 -18.79,-24.88 z m -33.47,7.78 c 0,0 -8.59,16.37 6.53,30.51 0.18,0 14.05,-15.3 -6.53,-30.51 z m 117.04,-86.53 c 0,0 5.73,17.45 26.4,16.55 0,0 -1.16,-20.85 -26.4,-16.55 z m 6.26,17.27 c 0,0 -0.89,18.43 18.79,24.88 0,0 6.35,-19.86 -18.79,-24.88 z m -13.87,-11.54 c 0,0 -8.59,16.37 6.53,30.51 0.18,0 14.05,-15.48 -6.53,-30.51 z m -12.62,12.62 c 0,0 -10.74,20.58 8.32,38.48 0,0 17.63,-19.33 -8.32,-38.48 z m -58.34,-138.6 c 0,0 5.73,17.45 26.4,16.55 -0.09,-0.18 -1.34,-20.76 -26.4,-16.55 z m 6.26,17.09 c 0,0 -0.89,18.43 18.79,24.88 0,0.09 6.35,-19.6 -18.79,-24.88 z m -13.87,-11.27 c 0,0 -8.59,16.37 6.53,30.51 -0.09,-0.27 14.05,-15.48 -6.53,-30.51 z M 545.45,97.89 c 0,0 8.59,16.37 28.81,12.08 -0.18,0 -4.65,-20.22 -28.81,-12.08 z m 8.95,16.02 c 0,0 2.06,18.16 22.46,21.56 0,0.18 3.13,-20.49 -22.46,-21.56 z m -15.66,-9.13 c 0,0 -5.73,17.45 11.36,28.99 0,0 11.54,-17.27 -11.36,-28.99 z m -166.07,69.88 c 0,0 12.8,5.55 22.82,-6.71 0.27,0 -12.17,-9.84 -22.82,6.71 z m 13.06,5.19 c 0,0 10.02,9.84 23.8,2.06 -0.09,0 -8.05,-13.78 -23.8,-2.06 z m -13.6,2.06 c 0,0 4.83,13.15 20.58,11.9 0.09,-0.18 -1.43,-16.02 -20.58,-11.9 z m 13.6,-70.96 c 0,0 -2.59,-13.78 -18.43,-15.21 0,-0.09 -1.25,15.75 18.43,15.21 z m -3.22,-13.78 c 0,0 2.59,-13.78 -11.72,-20.85 0.27,0 -6.62,14.32 11.72,20.85 z m 9.48,10.2 c 0,0 8.14,-11.54 -1.88,-23.8 0,0 -12.26,10.29 1.88,23.8 z m 17.27,-9.84 c 0,0 12.8,5.55 22.82,-6.71 0.09,0.27 -12.35,-9.84 -22.82,6.71 z m 13.06,5.19 c 0,0 10.02,9.84 23.8,2.06 -0.09,0.18 -8.05,-13.51 -23.8,-2.06 z m -13.78,2.06 c 0,0 4.83,13.15 20.58,11.9 0.27,0 -1.43,-15.75 -20.58,-11.9 z m 17.81,35.88 c 0,0 13.96,-1.88 16.2,-17.45 0,0 -15.84,-2.24 -16.2,17.45 z m 13.78,-4.65 c 0,0 13.78,3.31 21.39,-10.56 0.18,0.18 -13.78,-7.43 -21.39,10.56 z m -10.56,11.18 c 0,0 10.92,8.77 23.8,-0.54 -0.09,-0.09 -9.57,-12.88 -23.8,0.54 z m 42.32,52.17 c 0,0 -4.12,-11.72 -18.16,-10.74 0,0 1.07,14.05 18.16,10.74 z m -5.01,-12.97 c 0,0 0.36,-14.14 -14.67,-18.79 -0.18,0 -4.65,15.21 14.67,18.79 z m 10.74,8.5 c 0,0 6.35,-12.62 -5.55,-23.26 0,0.09 -10.38,11.9 5.55,23.26 z M 273.07,109.97 c 0,0 -7.61,11.9 2.95,23.8 0.09,0 11.72,-10.74 -2.95,-23.8 z m -25.77,-7.78 c 0,0 -11.36,8.14 -5.91,23 0.09,0.27 15.03,-5.55 5.91,-23 z m 0.18,0.36 c 0,0 -13.15,-4.83 -22.46,7.96 0,0.09 12.97,9.13 22.46,-7.96 z m -67.83,43.13 c 0,0 12.8,-5.73 10.56,-21.39 0,-0.18 -15.75,2.42 -10.56,21.39 z m 11.9,-9.84 c 0,0 14.14,0 18.43,-15.21 0,0 -15.3,-4.12 -18.43,15.21 z m -19.69,-1.7 c 0,0 -0.54,-14.14 -16.02,-17.63 0,-0.18 -3.31,15.39 16.02,17.63 z m 7.78,11.18 c 0,0 11.9,7.43 23.62,-3.13 0,-0.09 -10.83,-11.72 -23.62,3.13 z m -1.25,30.42 c 0,0 -13.78,-2.95 -21.21,10.92 0,0.09 14.14,7.34 21.21,-10.92 z m -15.48,0.54 c 0,0 -11.36,-8.32 -23.8,1.34 0,0.18 9.93,12.62 23.8,-1.34 z m 15.21,-0.36 c 0,0 -5.19,-12.97 -21.03,-11.54 0.09,0.09 1.97,15.84 21.03,11.54 z m 7.52,-24.16 c 0,0 2.77,13.78 18.61,14.85 -0.09,0.27 1.07,-15.75 -18.61,-14.85 z m 37.67,-21.47 c 0,0 2.77,13.78 18.61,14.85 0,0 0.89,-15.84 -18.61,-14.85 z m 42.77,-21.92 c 0,0 -13.78,2.77 -15.03,18.61 -0.09,-0.09 15.93,0.89 15.03,-18.61 z m 9.4,287.76 c 0,0 -0.54,18.43 19.15,24.52 0,0 6,-19.86 -19.15,-24.52 z m -7.96,15.39 c 0,0 -12.97,12.97 -2.77,31.05 0,0 17.81,-10.65 2.77,-31.05 z m -7.25,-2.59 c 0,0 -18.43,-1.07 -25.23,18.43 0,-0.09 19.69,6.44 25.23,-18.43 z m 4.29,-7.25 c 0,0 -11.54,-14.32 -30.51,-5.91 0,0 8.41,18.88 30.51,5.91 z m 4.83,-20.4 c 0,0 -11.54,-14.32 -30.51,-5.91 0,-0.09 8.41,18.7 30.51,5.91 z m 16.91,-13.06 c 0,0 -8.77,-10.56 -22.82,-4.47 -0.09,-0.18 6.26,14.14 22.82,4.47 z m 7.07,-6.89 c 0,0 -2.59,-18.97 -23.98,-21.92 0.18,0 -2.59,21.39 23.98,21.92 z m -0.54,-14.23 c 0,0 6.17,-17.99 -11.54,-30.24 -0.18,-0.09 -12.08,17.72 11.54,30.24 z m -26.04,-15.3 c 0,0 4.83,-13.96 -8.95,-23.26 0,0.09 -9.13,13.78 8.95,23.26 z m -1.7,19.33 c 0,0 4.83,-13.96 -8.95,-23.26 0,0.09 -9.04,13.78 8.95,23.26 z m -20.94,-11.72 c 0,0 13.15,-12.08 4.12,-30.06 -0.09,0 -17.9,9.31 -4.12,30.06 z m -25.68,-19.33 c 0,0 17.63,2.95 26.22,-15.21 0,0 -18.25,-8.32 -26.22,15.21 z m -21.21,-5.55 c 0,0 -9.48,15.03 3.94,30.06 0,0.09 14.85,-13.69 -3.94,-30.06 z m -22.28,18.43 c 0,0 -1.07,17.81 17.81,24.52 0.09,0 6.35,-19.15 -17.81,-24.52 z m -14.14,22.1 c 0,0 9.48,15.21 28.81,9.48 0,0 -5.91,-19.33 -28.81,-9.48 z m 8.59,23.8 c 0,0 13.15,12.08 30.24,1.52 0,-0.09 -10.74,-17.18 -30.24,-1.52 z m -0.36,8.5 c 0,0 2.95,17.63 22.82,19.86 0,0 2.06,-20.04 -22.82,-19.86 z m -5.01,7.25 c 0,0 -7.78,13.78 4.65,26.58 0,0 12.62,-12.8 -4.65,-26.58 z m -17.09,14.5 c 0,0 -7.78,13.78 4.65,26.58 0.18,0 12.8,-12.8 -4.65,-26.58 z m -6.53,11.54 c 0,0 -10.56,4.83 -8.59,17.99 0.09,0 13.06,-2.24 8.59,-17.99 z m 3.76,-16.55 c 0,0 -15.75,0.18 -20.4,17.45 -0.09,0 17.36,4.29 20.4,-17.45 z m 9.22,-17.63 c 0,0 -4.29,-15.21 -22.1,-15.21 0,-0.09 0.18,17.81 22.1,15.21 z m -18.88,11.9 c 0,0 8.77,-13.15 -2.95,-26.75 0.09,0 -13.42,11.81 2.95,26.75 z m -32.39,16.64 c 0,0 8.77,-13.15 -2.95,-26.75 0.18,0 -13.33,11.9 2.95,26.75 z m -22.64,-1.07 c 0,0 14.32,-6.71 11.36,-24.34 0,0 -17.72,3.13 -11.36,24.34 z M 61.08,398.55 c 0,0 15.57,2.42 23,-13.96 0.09,0.18 -16.29,-7.07 -23,13.96 z m 8.95,-27.11 c 0,0 7.96,13.78 25.23,9.31 0,0.09 -4.56,-17.36 -25.23,-9.31 z m 21.03,-19.95 c 0,0 -7.25,14.14 5.73,26.4 0,0 12.08,-13.33 -5.73,-26.4 z m 32.3,-14.85 c 0,0 -12.62,9.48 -6.17,26.22 0,0 16.73,-6.71 6.17,-26.22 z m 31.05,-35.79 c 0,0 -12.62,9.48 -6.17,26.22 0,0.09 16.55,-6.71 6.17,-26.22 z m -7.25,-2.68 c 0,0 -15.75,1.7 -18.61,19.33 0,0 17.63,2.86 18.61,-19.33 z m -45.37,9.13 c 0,0 -15.75,1.7 -18.61,19.33 0.09,0 17.72,2.77 18.61,-19.33 z m -0.72,0.36 c 0,0 -14.67,-5.91 -25.68,8.14 0,0.09 14.5,10.83 25.68,-8.14 z M 84.16,296.39 c 0,0 -14.67,-5.91 -25.68,8.14 0,0.18 14.32,11.01 25.68,-8.14 z M 72.08,272.95 c 0,0 -13.6,1.7 -15.75,16.91 -0.27,0 15.21,2.06 15.75,-16.91 z M 70.2,270 c 0,0 -13.6,-11.54 -30.06,-0.36 0,0 11.27,16.55 30.06,0.36 z m -23,-20.04 c 0,0 -17.63,-1.7 -24.88,16.91 0,0 18.7,7.07 24.88,-16.91 z m 21.12,-36.78 c 0,0 -16.37,6.89 -13.78,26.75 0.27,0 19.95,-3.04 13.78,-26.75 z m -37.13,0 c 0,0 -0.54,17.63 18.43,23.8 0,-0.09 5.73,-19.24 -18.43,-23.8 z m -19.33,30.96 c 0,0 12.8,12.26 29.89,2.06 0.09,0 -10.2,-17.09 -29.89,-2.06 z M 7.39,229.29 c 0,0 9.84,9.66 23.44,1.88 0,0.18 -7.96,-13.42 -23.44,-1.88 z m 58.97,14.5 c 0,0 13.78,0.18 18.16,-14.67 -0.18,0 -15.03,-4.29 -18.16,14.67 z m 15.57,15.84 c 0,0 13.78,0.18 18.16,-14.67 0,-0.18 -15.03,-4.3 -18.16,14.67 z m 6.17,8.5 c 0,0 14.32,8.77 28.1,-4.29 -0.09,0 -13.24,-13.51 -28.1,4.29 z m 43.58,8.95 c 0,0 14.85,-7.61 11.18,-26.04 0,0 -18.43,3.94 -11.18,26.04 z m 53.51,16.11 c 0,0 -4.65,-16.02 -23.44,-16.02 -0.09,0.09 0.27,19.06 23.44,16.02 z M 131.68,276.9 c 0,0 16.55,2.42 24.16,-14.85 0,0 -17.45,-7.43 -24.16,14.85 z m 88.14,-0.98 c 0,0 -11.9,-11.72 -28.28,-2.24 0,0 9.66,16.37 28.28,2.24 z m 0,0 c 0,0 -2.95,-16.37 -21.92,-17.99 0,0 -1.52,18.79 21.92,17.99 z m -28.63,12.88 c 0,0 2.06,-13.78 -12.44,-20.04 0,-0.27 -6.17,14.23 12.44,20.04 z m 42.5,-8.59 c 0,0 2.06,-13.78 -12.44,-20.04 0,0 -6.08,14.5 12.44,20.04 z m 68.72,14.5 c 0,0 3.13,-16.37 -13.78,-24.88 0.09,0 -8.14,17.09 13.78,24.88 z m 38.65,0.36 c 0,0 -5.37,-15.75 -24.16,-14.85 0,0 1.34,18.97 24.16,14.85 z m 0,0 c 0,0 4.65,-16.02 -11.36,-26.04 0.09,0.09 -9.75,16.2 11.36,26.04 z m -31.14,-1.61 c 0,0 7.96,-11.36 -1.88,-23.62 0,0 -12.08,10.2 1.88,23.62 z m 41.61,11.63 c 0,0 7.25,-10.2 -1.7,-21.21 0,0.09 -11.01,9.13 1.7,21.21 z m 13.69,7.25 c 0,0 9.66,-13.78 -2.24,-28.45 0,0.09 -14.67,12.35 2.24,28.45 z m -64.07,-36.95 c 0,0 7.96,-11.36 -1.88,-23.62 0,0 -12.08,10.29 1.88,23.62 z M 259.36,89.27 c 0,0 5.37,-15.75 -10.38,-26.4 0.18,0 -10.29,15.75 10.38,26.4 z m 38.21,5.37 c 0,0 -3.13,-16.37 -22.1,-17.81 0.27,0 -1.07,18.88 22.1,17.81 z m 0,0 c 0,0 6.71,-15.21 -7.78,-27.29 0,0 -11.9,14.67 7.78,27.29 z m -30.6,-5.73 c 0,0 9.48,-10.2 1.07,-23.62 0,0 -13.33,8.5 -1.07,23.62 z M 306.7,106 c 0,0 9.48,-10.2 1.07,-23.62 0.09,0 -13.15,8.5 -1.07,23.62 z m -73.01,127.06 c 0,0 2.06,-13.78 -12.44,-20.04 0,0 -6.08,14.41 12.44,20.04 z m -3.31,-19.33 c 0,0 1.7,-10.92 -9.84,-16.2 -0.18,0 -5.01,11.54 9.84,16.2 z m 17.45,19.86 c 0,0 13.6,-3.31 13.96,-19.15 0,0 -15.66,-0.18 -13.96,19.15 z m 22.1,16.73 c 0,0 0.72,13.96 16.2,17.27 0,0 3.31,-15.39 -16.2,-17.27 z m 5.82,-4.3 c 0,0 9.48,10.2 23.44,2.95 -0.09,0 -7.34,-13.87 -23.44,-2.95 z m 1.25,-6.08 c 0,0 13.96,0 18.16,-15.03 0.09,-0.27 -15.21,-4.29 -18.16,15.03 z m 19.51,-1.52 c 0,0 5.73,6.35 14.5,1.88 -0.18,0 -4.65,-8.77 -14.5,-1.88 z m 0.72,-3.94 c 0,0 8.59,0 11.18,-9.31 0,0.09 -9.48,-2.33 -11.18,9.31 z m 25.32,39.82 c 0,0 6.89,-5.01 3.49,-14.14 0,0 -9.13,3.49 -3.49,14.14 z m -3.76,-1.34 c 0,0 0.89,-8.59 -7.96,-12.26 0.18,0.18 -3.58,9.13 7.96,12.26 z m 10.2,-93.77 c 0,0 10.38,-2.95 10.2,-15.21 0.09,-0.27 -12.17,0.09 -10.2,15.21 z m 11.18,22.46 c 0,0 7.61,-7.78 1.34,-18.43 0.18,0 -10.47,6.35 -1.34,18.43 z m 0,-0.18 c 0,0 10.56,-2.06 11.72,-14.32 0,0.18 -12.26,-0.72 -11.72,14.32 z m -8.32,-18.43 c 0,0 8.95,1.34 12.97,-8.14 0.18,0 -9.31,-3.94 -12.97,8.14 z m 10.2,-21.92 c 0,0 8.95,1.34 12.97,-8.14 0,0.18 -9.48,-3.94 -12.97,8.14 z m 85.63,92.52 c 0,0 6.17,-4.47 3.13,-12.44 0,0.18 -7.96,3.13 -3.13,12.44 z m -3.13,-0.89 c 0,0 0.89,-7.43 -6.89,-10.74 -0.18,-0.09 -3.4,7.96 6.89,10.74 z m -32.21,-40.89 c 0,0 5.37,5.37 12.62,1.07 0.27,0.09 -4.03,-7.16 -12.62,-1.07 z m 0.63,-3.31 c 0,0 7.43,-0.18 9.48,-8.59 0.18,0 -8.23,-1.88 -9.48,8.59 z m 2.42,-56.91 c 0,0 -4.29,6.17 1.34,12.62 -0.09,0.27 6.26,-5.37 -1.34,-12.62 z m 3.31,0 c 0,0 1.7,7.25 10.2,7.78 0,0.09 0.36,-8.5 -10.2,-7.78 z m 11.9,-21.47 c 0,0 7.25,-1.7 7.61,-10.2 0,0.09 -8.32,-0.27 -7.61,10.2 z m -2.59,0.18 c 0,0 3.76,-6.53 -2.24,-12.62 0,-0.09 -6,6.08 2.24,12.62 z m 14.5,87.69 c 0,0 3.49,-17.81 -14.85,-26.93 0,0 -8.95,18.34 14.85,26.93 z m 41.97,0.54 c 0,0 -5.73,-17.09 -26.22,-16.2 0,0 1.34,20.49 26.22,16.2 z m -34,-1.88 c 0,0 8.77,-12.26 -2.06,-25.68 0,0.09 -13.15,11.01 2.06,25.68 z M 421,197.19 c 0,0 8.77,-12.26 -2.06,-25.68 0,0.09 -12.97,11.01 2.06,25.68 z m 23.26,-1.34 c 0,0 7.43,-5.37 3.94,-15.21 -0.09,-0.18 -9.93,3.76 -3.94,15.21 z m -4.12,-1.25 c 0,0 1.07,-9.31 -8.59,-13.15 0,-0.27 -3.85,9.66 8.59,13.15 z M 499.2,67.9 c 0,0 -11.18,-8.95 -24.16,0.54 0.18,0 9.66,12.8 24.16,-0.54 z m 15.66,-28.99 c 0,0 -13.96,-2.24 -20.58,12.44 -0.27,0 14.41,6.53 20.58,-12.44 z m -13.6,22.82 c 0,0 -5.37,-10.56 -18.61,-7.78 0,0 3.04,13.24 18.61,7.78 z m -17.09,-0.36 c 0,0 -5.37,-10.56 -18.61,-7.78 0.18,0 3.04,12.97 18.61,7.78 z m 7.61,-16.73 c 0,0 -1.07,-7.25 -9.31,-8.14 0,0 -0.89,8.14 9.31,8.14 z m -2.42,2.42 c 0,0 -5.91,-4.12 -12.26,1.07 0,0.09 5.37,6.35 12.26,-1.07 z m -14.14,112.65 c 0,0 -9.48,-9.66 -22.82,-2.24 0,0 7.61,13.33 22.82,2.24 z m 18.07,-25.5 c 0,0 -12.97,-3.76 -21.03,9.31 0,0 13.24,7.78 21.03,-9.31 z m -15.48,20.04 c 0,0 -3.94,-10.56 -16.55,-9.48 -0.09,0.09 1.16,12.71 16.55,9.48 z m -6.98,-17.27 c 0,0 -0.18,-6.89 -7.78,-8.77 -0.09,0.09 -1.88,7.7 7.78,8.77 z m -2.68,1.88 c 0,0 -5.19,-4.65 -11.72,-0.36 0.09,0.18 4.56,6.71 11.72,0.36 z M 355.23,281.13 c 0,0 6.89,-5.01 3.49,-14.14 0.09,0.09 -8.86,3.4 -3.49,14.14 z m -3.49,-1.25 c 0,0 0.89,-8.59 -7.96,-12.26 -0.09,0 -3.58,9.13 7.96,12.26 z m -80.08,-36.24 c 0,0 8.77,-14.5 -4.47,-28.28 0,0 -13.6,13.42 4.47,28.28 z M 159.99,204.27 c 0,0 -2.95,-13.6 -18.79,-14.5 0,0 -0.72,15.75 18.79,14.5 z m -5.01,5.19 c 0,0 -10.92,-8.59 -23.62,0.72 0,0 9.48,12.71 23.62,-0.72 z m -36.06,69.88 c 0,0 -10.92,-8.59 -23.62,0.72 0,0 9.48,12.62 23.62,-0.72 z m 42.95,-68.54 c 0,0 -13.78,2.24 -15.57,17.81 -0.09,-0.18 15.57,1.52 15.57,-17.81 z m 155.69,14.23 c 0,0 8.77,-14.5 -4.47,-28.28 0,-0.09 -13.78,13.24 4.47,28.28 z m -20.13,-10.92 c 0,0 14.67,-8.14 10.38,-26.75 0.09,0 -18.52,4.65 -10.38,26.75 z m -18.52,10.02 c 0,0 14.67,-8.14 10.38,-26.75 0,0 -18.61,4.65 -10.38,26.75 z m -16.02,-14.32 c 0,0 13.6,0.54 18.43,-14.14 0,-0.18 -14.85,-4.56 -18.43,14.14 z m -7.43,-9.66 c 0,0 14.5,-7.43 10.74,-25.41 0.27,0 -17.81,3.85 -10.74,25.41 z m -8.5,-5.01 c 0,0 16.2,-1.88 18.97,-20.04 0.18,-0.18 -18.25,-2.77 -18.97,20.04 z m -11.18,-11.27 c 0,0 16.2,-1.88 18.97,-20.04 0,-0.09 -18.25,-2.68 -18.97,20.04 z m -10.74,-2.06 c 0,0 11.54,-11.54 2.42,-27.47 0,-0.27 -16.02,9.22 -2.42,27.47 z m -17.27,-25.68 c 0,0 8.77,4.65 16.37,-3.49 -0.09,-0.18 -8.23,-7.61 -16.37,3.49 z m -14.85,56.28 c 0,0 15.57,2.24 22.64,-14.14 0,0 -16.37,-6.8 -22.64,14.14 z m -7.25,8.77 c 0,0 10.56,11.54 26.4,3.49 0.09,0 -8.05,-15.75 -26.4,-3.49 z m -4.29,-7.25 c 0,0 9.84,-1.07 11.72,-12.26 0,0 -11.18,-1.7 -11.72,12.26 z m -25.32,-63.35 c 0,0 -12.44,-9.66 -26.75,0.89 0,-0.18 10.83,14.14 26.75,-0.89 z m 10.65,-4.12 c 0,0 -3.31,-15.39 -21.21,-16.37 0,0.09 -0.72,17.9 21.21,16.37 z m 0,8.41 c 0,0 -9.13,-3.94 -16.2,4.83 0,0 8.77,7.07 16.2,-4.83 z m 36.42,40.8 c 0,0 11.9,-10.92 3.49,-26.93 0,0 -15.93,8.59 -3.49,26.93 z M 176.2,123.1 c 0,0 11.9,-10.74 3.49,-26.93 0,-0.27 -15.93,8.32 -3.49,26.93 z m 67.74,108.27 c 0,0 8.95,-16.55 -6.53,-31.23 0.09,0 -14.41,15.48 6.53,31.23 z M 12.44,207.5 c 0,0 0.72,13.78 16.02,17.09 0,0 3.13,-15.21 -16.02,-17.09 z m 90.73,100.93 c 0,0 -3.31,8.59 4.83,14.67 0.18,0 6.08,-8.41 -4.83,-14.67 z m 2.59,-1.7 c 0,0 6.71,10.2 19.86,6.17 0,0 -4.29,-13.24 -19.86,-6.17 z m -36.78,50.56 c 0,0 3.31,10.38 15.57,10.02 0,-0.18 -0.54,-12.44 -15.57,-10.02 z M 177.97,238.01 c 0,0 -11.18,8.32 -5.37,23 0,0 14.5,-5.91 5.37,-23 z m -11.27,16.11 c 0,0 -8.95,6.71 -4.47,18.43 0.18,-0.18 11.9,-4.83 4.47,-18.43 z m -29.98,-6.44 c 0,0 -13.15,-4.29 -21.92,8.77 0,0.09 13.24,8.68 21.92,-8.77 z m -19.69,0 c 0,0 -10.56,-3.49 -17.45,7.07 0,0 10.65,6.8 17.45,-7.07 z m 51.72,-21.03 c 0,0 -13.15,-4.47 -22.1,8.59 0,0 13.15,8.68 22.1,-8.59 z m 0.89,5.19 c 0,0 -17.99,5.37 -17.45,26.58 0,0.18 21.21,-0.54 17.45,-26.58 z m 129.12,-73.91 c 0,0 -12.26,-6.71 -23.26,4.83 0,0 11.54,10.74 23.26,-4.83 z m -31.41,-15.57 c 0,0 -9.84,-5.19 -18.61,3.94 0,-0.09 9.31,8.5 18.61,-3.94 z m 37.76,2.42 c 0,0 -1.52,-13.96 -17.09,-16.37 0,0 -2.42,15.57 17.09,16.37 z m -4.47,2.95 c 0,0 -12.62,-13.96 -31.59,-4.65 0.18,0 9.66,18.97 31.59,4.65 z m 153.64,89.12 c 0,0 -10.02,-9.66 -23.62,-1.52 0,0.09 8.41,13.42 23.62,1.52 z m -17.63,-8.32 c 0,0 -8.14,-7.61 -18.79,-1.34 -0.18,0 6.26,10.83 18.79,1.34 z m -22.19,26.75 c 0,0 -2.77,-10.74 -15.21,-11.18 0,0 -0.18,12.62 15.21,11.18 z M 384.4,201.06 c 0,0 -2.06,-8.14 -11.54,-8.32 0,-0.09 -0.18,9.4 11.54,8.32 z m 74.54,26.75 c 0,0 -6.35,-12.44 -21.74,-9.48 0,0 3.13,15.39 21.74,9.48 z M 431.83,39.99 c 0,0 -7.07,12.08 3.94,23.62 -0.09,-0.09 11.27,-11.36 -3.94,-23.62 z m 40.62,10.74 c 0,0 0.36,-14.14 -14.67,-18.79 0,0 -4.65,15.3 14.67,18.79 z m -60.58,28.01 c 0,0 3.49,-17.81 -14.85,-26.93 0,0 -8.86,18.43 14.85,26.93 z M 398.36,78.2 c 0,0 -5.73,-17.09 -26.22,-16.2 0,0.09 1.52,20.49 26.22,16.2 z m 23.18,4.12 c 0,0 8.77,-12.44 -2.06,-25.68 0.09,0 -13.15,11.01 2.06,25.68 z m 30.69,-16.73 c 0,0 8.77,-12.44 -2.06,-25.68 -0.18,0.27 -13.15,11.18 2.06,25.68 z m -11.72,11.54 c 0,0 7.43,-5.37 3.94,-15.21 -0.18,-0.27 -9.84,3.67 -3.94,15.21 z m -4.12,-1.34 c 0,0 1.07,-9.31 -8.59,-13.15 0.09,-0.18 -3.85,9.66 8.59,13.15 z m -21.47,9.84 c 0,0 -8.14,-7.61 -18.79,-1.34 -0.18,0.27 6.53,10.83 18.79,1.34 z m 32.3,3.22 c 0,0 -6.35,-12.44 -21.74,-9.48 0.18,0 3.31,15.39 21.74,9.48 z m 2.59,27.83 c 0,0 19.69,-2.42 22.82,-24.52 0,0.18 -22.1,-2.95 -22.82,24.52 z m 9.31,-35.88 c 0,0 11.36,12.08 27.65,3.31 0,0.09 -8.68,-16.29 -27.65,-3.31 z m -0.98,-2.59 c 0,0 10.02,-7.07 5.37,-19.86 0.09,0 -12.97,4.65 -5.37,19.86 z m -11.1,21.92 c 0,0 8.77,-2.24 8.77,-12.44 0.09,0 -10.11,0 -8.77,12.44 z m 63.71,8.77 c 0,0 -15.75,-2.95 -23.98,13.15 0,0 16.37,7.78 23.98,-13.15 z m -22.64,2.77 c 0,0 -12.62,-2.42 -19.15,10.56 0,0 13.15,6.35 19.15,-10.56 z m 24.88,-19.69 c 0,0 -6.53,-14.67 -24.52,-12.26 0.18,0 2.77,17.99 24.52,12.26 z m -3.76,5.01 c 0,0 -18.61,-11.18 -36.42,5.73 0,-0.18 17.09,17.45 36.42,-5.73 z m -148.98,54.05 c 0,0 0,-16.2 -17.45,-21.03 0,0.09 -4.65,17.72 17.45,21.03 z m -10.74,-23.18 c 0,0 0,-12.8 -13.96,-16.73 -0.18,0 -3.94,14.14 13.96,16.73 z m 26.22,15.39 c 0,0 13.15,-9.13 7.43,-26.4 0,0.18 -17.36,6.35 -7.43,26.4 z m -7.07,1.07 c 0,0 7.43,-20.4 -12.44,-34.72 0,0.18 -14.14,20.22 12.44,34.72 z m 152.65,44.47 c 0,0 7.61,13.6 24.7,9.48 0,-0.09 -4.21,-17.18 -24.7,-9.48 z m 16.2,14.85 c 0,0 6.17,10.92 19.69,7.61 0,0 -3.31,-13.78 -19.69,-7.61 z m -28.99,-0.63 c 0,0 -6.89,13.96 6.17,25.68 0.18,0 11.63,-13.15 -6.17,-25.68 z m 5.01,-5.91 c 0,0 3.31,20.85 26.93,23.44 -0.18,0 2.24,-23.62 -26.93,-23.44 z m 37.49,110.15 c 0,0 -21.03,-2.95 -30.51,18.97 0.09,0 22.19,9.31 30.51,-18.97 z m -1.97,-49.03 c 0,0 -19.69,7.78 -17.09,31.59 0,0 23.53,-2.77 17.09,-31.59 z m 0,0.18 c 0,0 -20.58,-4.83 -32.12,16.02 -0.09,0 20.94,11.27 32.12,-16.02 z m 0,39.55 c 0,0 -14.85,-9.48 -29.71,4.12 -0.09,-0.18 13.51,14.5 29.71,-4.12 z m 12.08,-53.51 c 0,0 -13.33,-8.32 -26.75,3.49 0,0.09 12.26,13.24 26.75,-3.49 z m 8.14,-17.81 c 0,0 -17.99,-11.36 -35.7,4.83 -0.18,0 16.37,17.63 35.7,-4.83 z m -42.59,83.57 c 0,0 -14.85,-9.48 -29.71,4.12 0.18,-0.18 13.78,14.5 29.71,-4.12 z m -49.21,70.06 c 0,0 -5.19,-16.91 -25.05,-16.37 0,0 0.72,19.95 25.05,16.37 z m 19.69,-29.17 c 0,0 17.45,-1.88 20.85,-21.56 0,0 -19.86,-2.95 -20.85,21.56 z m -5.91,-6.89 c 0,0 12.26,-12.62 2.24,-29.89 0,0 -17.09,10.38 -2.24,29.89 z m -7.78,-1.07 c 0,0 -0.89,-17.63 -20.4,-21.92 -0.09,0 -4.12,19.51 20.4,21.92 z m -3.22,-24.52 c 0,0 7.61,-7.78 1.34,-18.43 0,0 -10.38,6.35 -1.34,18.43 z m -4.83,-0.72 c 0,0 -0.54,-10.74 -12.44,-13.6 -0.18,0.18 -2.59,12.08 12.44,13.6 z m 48.32,-34.63 c 0,0 -6.89,-8.32 -17.99,-3.49 0,0 5.01,11.18 17.99,3.49 z m -1.25,4.65 c 0,0 -10.74,-0.72 -14.85,10.74 0,0.09 11.63,4.12 14.85,-10.74 z m 7.78,-46.62 c 0,0 -6.89,-8.32 -17.99,-3.49 0,0 5.01,11.27 17.99,3.49 z m -1.34,4.83 c 0,0 -10.74,-0.72 -14.85,10.74 0,0.09 11.72,3.94 14.85,-10.74 z m -40.27,103.53 c 0,0 -18.97,-10.02 -35.52,7.43 0,0 17.9,16.46 35.52,-7.43 z m -26.75,-56.73 c 0,0 -18.97,-10.02 -35.52,7.43 0,0 17.9,16.55 35.52,-7.43 z m -12.44,26.04 c 0,0 -11.36,-18.16 -34.36,-11.36 0,0 7.07,23.26 34.36,11.36 z m 14.14,22.82 c 0,0 -11.36,-18.16 -34.36,-11.36 -0.27,0.09 6.8,23.26 34.36,11.36 z m -17.36,21.03 c 0,0 -0.36,-17.27 -19.15,-22.1 0.09,0 -4.56,18.97 19.15,22.1 z m 28.28,-102.36 c 0,0 -13.96,10.74 -6.53,29.17 0,0 18.43,-7.61 6.53,-29.17 z m 8.59,2.77 c 0,0 -3.94,17.27 13.6,26.75 0.09,0 9.4,-17.63 -13.6,-26.75 z m 4.38,-2.95 c 0,0 8.32,12.26 24.34,6.89 0.18,0.18 -5.37,-15.84 -24.34,-6.89 z m -4.83,-2.95 c 0,0 21.39,-1.34 26.4,-24.88 0,0.18 -23.8,-4.65 -26.4,24.88 z m 79.73,35.43 c 0,0 14.67,-9.48 8.77,-28.28 0,0.09 -18.79,6.17 -8.77,28.28 z m 0,-0.18 c 0,0 17.45,0.54 23.26,-18.16 0,0.18 -18.79,-5.64 -23.26,18.16 z m -6.53,-31.77 c 0,0 13.6,5.19 23.26,-7.96 0,-0.18 -13.15,-9.66 -23.26,7.96 z m -0.89,45.01 c 0,0 12.26,4.65 21.03,-7.25 -0.18,0 -12.08,-8.59 -21.03,7.25 z m -3.67,15.75 c 0,0 16.37,6.17 28.1,-9.66 -0.09,0 -16.29,-11.54 -28.1,9.66 z m 27.29,-52.97 c 0,0 6.89,5.73 15.03,-0.18 0.18,0 -5.73,-8.14 -15.03,0.18 z m 0.36,-4.03 c 0,0 8.95,-1.07 10.2,-11.18 0,0 -10.02,-1.25 -10.2,11.18 z m 122.05,8.5 c 0,0 6.89,5.73 15.03,-0.18 0,0.18 -5.73,-8.14 -15.03,0.18 z m 0.18,-4.03 c 0,0 8.95,-1.07 10.2,-11.18 0,0 -9.84,-1.34 -10.2,11.18 z m -80.8,79.46 c 0,0 8.32,6.89 18.16,-0.18 0,0.18 -7.07,-9.66 -18.16,0.18 z m 0.36,-4.83 c 0,0 10.56,-1.52 12.26,-13.33 0,0 -12.08,-1.52 -12.26,13.33 z m 30.24,37.31 c 0,0 -1.7,10.56 9.31,15.57 0,0.09 4.83,-10.92 -9.31,-15.57 z m 4.3,-2.15 c 0,0 6.53,8.59 17.81,3.94 0.09,-0.09 -4.74,-11.18 -17.81,-3.94 z m -75.07,-75.43 c 0,0 6.89,5.73 15.03,-0.18 0.09,0 -5.73,-8.23 -15.03,0.18 z m 0.27,-4.12 c 0,0 8.95,-1.07 10.2,-11.18 0,0 -9.84,-1.25 -10.2,11.18 z m -13.24,-84.2 c 0,0 9.48,-10.92 0.54,-24.52 0,-0.18 -13.51,8.95 -0.54,24.52 z m 47.42,62.81 c 0,0 0.36,-14.5 -15.21,-19.33 -0.09,0 -4.74,15.84 15.21,19.33 z m -3.22,3.13 c 0,0 -8.77,-8.59 -20.85,-1.7 0.09,0.09 7.34,12.17 20.85,1.7 z m 4.65,1.7 c 0,0 -16.91,4.47 -17.27,24.34 0,-0.18 19.69,0 17.27,-24.34 z M 596.24,157.17 c 0,0 2.06,-13.78 -12.44,-20.04 0,-0.27 -6.17,14.23 12.44,20.04 z m -3.31,-19.51 c 0,0 1.7,-10.92 -9.84,-16.2 -0.18,0.18 -5.01,11.72 9.84,16.2 z m 20.22,20.76 c 0,0 12.44,-6.17 9.48,-21.56 0,0 -15.48,3.04 -9.48,21.56 z m -6.71,-2.95 c 0,0 8.95,-16.55 -6.53,-31.23 0.09,0 -14.41,15.39 6.53,31.23 z M 250.49,126.66 c 0,0 -10.02,6.35 -6.35,19.33 0.27,0 13.06,-3.94 6.35,-19.33 z m 92.16,109.43 c 0,0 -7.96,-11.54 -22.82,-6.35 0,0 5.37,14.94 22.82,6.35 z m -2.59,6.71 c 0,0 -13.33,-3.94 -21.56,9.66 -0.18,0 13.42,7.96 21.56,-9.66 z m 2.06,3.67 c 0,0 -10.02,6.17 -6.53,18.97 0,0 12.8,-3.67 6.53,-18.97 z m 2.59,-3.85 c 0,0 0,16.91 18.43,21.92 -0.09,0 4.74,-18.43 -18.43,-21.92 z m 40.27,-4.12 c 0,0 -0.72,13.96 14.14,18.97 -0.18,0 4.83,-14.85 -14.14,-18.97 z m 6.17,-3.76 c 0,0 8.32,11.36 23,5.55 -0.18,0.27 -5.91,-14.41 -23,-5.55 z m 0.36,-4.03 c 0,0 11.72,1.34 16.73,-10.92 0.18,-0.27 -12.26,-5.1 -16.73,10.92 z M 585.5,86.74 c 0,0 2.59,7.07 11.18,6.35 C 596.59,93 595.7,84.68 585.5,86.74 Z m 1.79,-2.77 c 0,0 6.89,2.95 12.08,-3.76 0.18,0 -6.62,-5.19 -12.08,3.76 z m 22.91,20.94 c 0,0 10.38,-14.67 -2.42,-30.69 0,0.09 -15.66,13.06 2.42,30.69 z m 38.03,17.63 c 0,0 1.88,-17.99 -17.27,-25.41 0,0 -7.25,19.15 17.27,25.41 z m -30.06,-15.57 c 0,0 12.97,-7.61 8.77,-24.16 -0.27,0 -16.55,4.65 -8.77,24.16 z M 639.2,93.64 c 0,0 9.13,-1.88 9.84,-12.26 0,0 -10.47,-0.81 -9.84,12.26 z m -3.04,-2.86 c 0,0 4.83,-7.96 -2.42,-15.57 0,0 -7.61,7.25 2.42,15.57 z m -17.45,29.35 c 0,0 -4.12,-10.38 -16.73,-8.95 0,0.27 1.52,12.71 16.73,8.95 z m 20.67,8.77 c 0,0 -0.54,-13.96 -15.75,-17.63 -0.09,0 -3.58,15.39 15.75,17.63 z m -62.46,-25.23 c 0,0 10.2,6.17 19.86,-3.13 -0.18,0.09 -9.48,-9.48 -19.86,3.13 z m -24.88,57.36 c 0,0 5.37,-5.19 1.07,-12.62 0,0 -7.25,4.29 -1.07,12.62 z m -3.4,-0.54 c 0,0 -0.18,-7.43 -8.59,-9.48 0.09,0 -1.79,8.14 8.59,9.48 z m 22.37,1.52 c 0,0 1.34,-11.72 -10.92,-16.73 -0.09,0 -5.1,12.44 10.92,16.73 z m -183.79,69.97 c 0,0 10.2,-13.33 -1.07,-28.63 0,0.09 -15.21,11.72 1.07,28.63 z M 533.75,8.41 c 0,0 10.02,9.84 23.8,2.06 0,-0.09 -8.14,-13.78 -23.8,-2.06 z m -13.69,1.97 c 0,0 4.83,13.15 20.58,11.9 0,0 -1.43,-15.75 -20.58,-11.9 z m 20.22,29.98 c 0,0 5.37,5.37 12.62,1.07 0.18,0 -4.03,-7.25 -12.62,-1.07 z m 0.54,-3.4 c 0,0 7.43,-0.18 9.48,-8.59 0.18,0.09 -8.14,-1.79 -9.48,8.59 z m 29.53,9.48 c 0,0 3.49,-17.81 -14.85,-26.93 0,0 -8.86,18.61 14.85,26.93 z m 42.06,0.54 c 0,0 -5.73,-17.09 -26.22,-16.2 0,0.09 1.25,20.49 26.22,16.2 z m -34,-1.79 c 0,0 8.77,-12.44 -2.06,-25.68 0,0.18 -13.24,11.18 2.06,25.68 z m -9.48,-19.51 c 0,0 8.77,-12.44 -2.06,-25.68 0,0 -12.97,11.01 2.06,25.68 z m 23.18,-1.34 c 0,0 7.43,-5.55 3.94,-15.21 0,-0.18 -9.84,3.67 -3.94,15.21 z m -3.85,-1.25 c 0,0 1.07,-9.31 -8.59,-13.15 -0.18,-0.27 -4.03,9.57 8.59,13.15 z m 43.67,42.5 c 0,0 -10.02,-9.66 -23.62,-1.52 0,-0.18 8.14,13.42 23.62,1.52 z m -47.42,-8.5 c 0,0 -8.14,-7.61 -18.79,-1.34 -0.18,0 6.53,10.74 18.79,1.34 z M 532.34,29.53 c 0,0 -2.06,-8.14 -11.54,-8.32 0,0 -0.18,9.48 11.54,8.32 z m 6.71,33.82 c 0,0 8.32,11.36 23,5.55 0,0.27 -5.73,-14.5 -23,-5.55 z m 0.54,-4.12 c 0,0 11.72,1.34 16.73,-10.92 0,0 -12.53,-5.01 -16.73,10.92 z m -4.47,1.52 c 0,0 10.2,-13.33 -1.07,-28.63 -0.09,0 -15.12,11.54 1.07,28.63 z m 5.19,349.86 c 0,0 -5.73,-9.31 -17.45,-5.73 0,-0.09 3.49,11.63 17.45,5.73 z m -1.88,4.38 c 0,0 -10.56,-2.06 -16.2,8.95 0.09,0 11.01,5.37 16.2,-8.95 z m -58.16,1.88 c 0,0 -15.21,8.95 -10.2,28.1 0,0.18 19.33,-5.01 10.2,-28.1 z m 6.71,8.59 c 0,0 -6.17,16.55 10.02,28.28 0,-0.09 11.54,-16.37 -10.02,-28.28 z m 8.59,-1.7 c 0,0 6.71,13.33 23.26,10.02 0.09,0 -3.4,-16.55 -23.26,-10.02 z m -4.47,-3.49 c 0,0 21.39,1.52 29.35,-21.21 0,0 -22.82,-7.78 -29.35,21.21 z M 621.92,260.82 c 0,0 5.73,-17.45 -11.54,-28.99 0,0 -11.36,17.45 11.54,28.99 z m 0,143.61 c 0,0 5.73,-17.45 -11.54,-28.99 0,0 -11.36,17.45 11.54,28.99 z M 574.5,236.66 c 0,0 7.25,8.14 18.16,2.77 0.09,0 -5.55,-10.92 -18.16,-2.77 z m 1.16,-4.83 c 0,0 10.74,0.36 14.5,-11.36 -0.09,0.09 -11.9,-3.49 -14.5,11.36 z m 103.8,17.9 c 0,0 13.6,-11.36 5.37,-29.35 0.18,0 -17.99,8.32 -5.37,29.35 z m -8.5,-2.42 c 0,0 3.31,-17.27 -14.67,-26.22 0,0 -8.59,17.99 14.67,26.22 z m -4.47,3.13 c 0,0 -8.95,-12.08 -24.7,-5.91 0.18,-0.27 6.26,15.57 24.7,5.91 z m 5.19,2.77 c 0,0 -21.39,2.06 -25.41,25.86 -0.27,0 23.71,3.85 25.41,-25.86 z M 243.25,632.78 c -15.57,-0.54 -26.58,1.7 -36.42,12.08 -9.84,10.38 -20.85,12.08 -20.85,12.08 0,0 6.89,3.49 31.77,-9.31 24.88,-12.8 43.13,17.45 81.16,2.95 38.12,-14.5 27.65,-28.99 33.47,-40.71 5.73,-11.54 11.54,-9.84 18.61,-21.39 6.89,-11.54 8.14,-20.22 19.15,-34.18 11.01,-13.96 1.07,-55.57 -9.84,-74.09 -10.92,-18.61 11.54,-79.9 13.96,-98.43 2.42,-18.61 3.49,-34.18 -10.38,-53.87 -13.96,-19.69 -36.42,-16.73 -52.79,-18.61 -16.2,-1.7 -27.11,-8.77 -34.72,-12.8 -7.61,-4.12 -9.84,-37.67 -16.2,-45.19 -6.35,-7.52 -13.33,-7.61 -37.67,-8.14 -24.34,-0.54 -35.88,-4.12 -44.56,-19.15 -8.68,-15.03 14.67,-23 15.57,-41.07 0.54,-9.31 -12.26,-20.22 -17.45,-26.04 -5.19,-5.73 -0.54,-27.29 -1.7,-23.26 -1.07,4.12 -2.95,12.8 -5.19,19.69 -2.24,6.89 9.31,16.2 12.8,25.41 3.49,9.31 -8.14,16.2 -12.26,22.1 -4.12,5.73 -7.61,20.85 8.14,42.95 15.57,22.1 62.64,6.89 73.01,16.2 10.37,9.31 10.38,32.48 10.38,32.48 0,0 -15.57,-2.24 -33.64,-5.73 -18.07,-3.49 -44.02,19.15 -49.21,20.22 -5.19,1.07 -25.41,-16.73 -36.95,-20.22 -11.54,-3.49 -24.34,6.89 -34.18,8.14 -9.84,1.07 -19.69,-7.61 -22.64,-14.5 -2.95,-6.89 -10.38,-18.61 -13.33,-22.1 -2.95,-3.49 -8.32,-7.61 -18.16,-9.48 -9.93,-1.7 -21.3,-8.95 -21.3,-8.95 0,0 13.6,12.97 26.93,19.33 10.74,5.01 16.73,22.82 24.88,37.94 8.14,15.12 22.28,5.91 36.78,4.29 14.5,-1.61 15.03,-6.35 30.06,2.24 15.03,8.77 19.69,10.38 19.69,10.38 0,0 -1.7,5.19 -4.12,8.14 -2.24,2.95 -16.73,21.39 -20.85,23.26 -4.12,1.7 -13.33,11.54 -13.33,16.73 0,5.19 -9.31,9.31 -16.73,8.77 -7.61,-0.54 -10.92,5.73 -12.26,11.54 -1.07,5.73 -13.96,9.31 -13.96,9.31 0,0 -4.65,0.54 2.24,1.07 6.89,0.53 16.73,-5.19 17.45,-12.26 0.54,-6.89 14.5,-1.7 23.26,-5.73 8.77,-4.12 6.89,-9.31 12.8,-9.31 5.91,0 13.33,15.39 14.5,22.82 0.54,4.12 -5.01,8.32 -11.36,12.44 -6.35,4.12 -2.42,12.8 -2.42,12.8 -0.18,-9.31 10.38,-10.92 15.57,-14.5 5.19,-3.49 7.61,-16.73 -1.7,-27.11 -9.31,-10.38 5.19,-23.26 9.31,-31.77 4.12,-8.77 35.88,-31.23 45.19,-35.88 9.31,-4.65 34.72,-1.07 40.53,1.07 5.73,2.24 29.53,15.03 36.42,16.2 6.89,1.07 29.53,1.07 29.53,1.07 0,0 -19.69,8.14 -22.1,12.8 -2.42,4.65 -3.49,12.8 -2.24,22.64 1.34,9.84 -2.24,22.1 -4.65,24.88 -2.24,2.95 -16.2,2.95 -22.64,11.54 -6.35,8.77 -1.07,20.22 -1.07,20.22 v -9.84 c 0,-9.84 7.61,-12.8 18.61,-16.2 10.92,-3.49 12.8,-5.73 13.96,-19.69 1.07,-13.96 3.49,-30.69 13.96,-36.42 10.47,-5.73 28.45,-8.77 41.79,17.99 13.33,26.58 -8.14,59.06 -13.96,77.13 -5.73,17.99 4.12,38.83 6.35,53.33 2.23,14.5 4.12,17.45 -2.24,35.25 -6.35,17.99 -9.31,25.41 -6.35,45.19 2.95,19.69 -7.43,20.85 -20.22,33.11 -12.8,12.08 -13.33,31.23 -13.33,31.23 -3.76,14.85 -47.16,7.43 -62.81,6.89 v 0 z m 120.98,-162.4 c 0.89,8.95 7.07,13.96 14.5,32.48 7.43,18.61 6.17,37.67 6.17,37.67 l 6.17,-12.08 c 6.17,-12.08 -2.24,-40.53 -7.07,-60.58 -4.65,-20.04 -4.47,-30.51 3.31,-50.38 10.74,-27.65 -7.43,-60.58 -7.43,-60.58 0,0 0.72,18.97 0.36,32.84 -0.36,13.96 -7.78,28.1 -7.78,28.1 -11.01,26.93 -9.22,43.58 -8.23,52.52 v 0 z m 198.91,197.84 c 11.72,6.53 57.18,-2.24 37.13,-3.76 -0.89,0 -1.88,-0.18 -2.77,-0.18 -17.99,-0.89 -26.93,1.7 -44.2,-14.32 -18.16,-16.73 -47.6,-18.16 -82.86,-22.28 -35.25,-4.29 -47.6,-24.16 -43.84,-41.43 3.76,-17.27 -13.96,-40.53 -11.18,-55.92 2.78,-15.39 -3.76,-26.93 -7.96,-36.24 -4.29,-9.31 -6.17,-28.81 -5.55,-51.27 0.54,-22.46 13.6,-47.96 14.5,-63.71 0.9,-15.75 -4.65,-22.28 -12.97,-53.51 -8.32,-31.23 19.15,-39.19 30.24,-41.07 11.18,-1.88 31.23,-20.04 38.65,-24.7 7.42,-4.66 21.03,-35.88 23.8,-41.07 2.77,-5.19 5.19,-30.24 1.52,-42.95 -3.67,-12.71 19.15,5.55 20.4,5.19 1.52,-0.36 20.4,5.55 33.11,8.95 12.62,3.31 25.68,-3.76 40.53,-12.62 14.85,-8.95 19.51,-6.17 19.51,-6.17 0,0 2.24,2.24 -0.89,-1.88 -3.31,-4.29 -14.5,-3.31 -26.04,2.77 -11.72,6.17 -25.05,10.74 -33.11,7.07 -7.96,-3.76 -27.47,-10.74 -29.35,-10.74 -1.88,0 -18.16,-7.96 -6.53,-19.15 11.72,-11.18 15.39,-40.53 15.39,-40.53 0,0 3.31,-10.74 11.18,-15.39 7.96,-4.65 20.04,1.88 30.69,1.52 10.65,-0.36 7.96,-10.2 9.31,-14.85 1.35,-4.65 2.77,-6.53 10.74,-8.95 7.97,-2.42 10.2,-10.74 10.2,-10.74 -1.52,4.65 -14.85,6.53 -21.39,8.32 -6.53,1.88 -3.31,11.18 -10.2,15.39 -7.07,4.12 -19.15,-1.52 -27.83,-0.89 -8.68,0.63 -19.15,7.43 -19.15,7.43 0,0 -5.19,-10.2 -11.18,-16.37 -6.17,-6.17 7.07,-8.32 8.95,-13.6 1.88,-5.19 -2.77,-11.18 -2.77,-11.18 5.19,5.19 -4.12,12.97 -12.62,18.16 -8.32,5.19 -1.88,12.62 7.96,20.4 9.84,7.78 2.24,30.24 2.24,41.43 0,11.19 -19.15,15.39 -25.68,22.28 -6.53,7.07 -13.96,13.96 -9.84,30.24 4.29,16.37 -7.43,39.55 -21.03,57.8 -13.6,18.25 -22.28,19.51 -42.95,23.26 -20.58,3.76 -19.15,5.55 -27.83,4.65 -8.95,-0.89 -13.96,-43.31 -21.39,-74.09 -7.43,-30.78 24.7,-39.91 30.24,-42.95 5.55,-2.77 11.72,-5.55 15.39,2.24 3.76,7.96 9.84,13.96 16.73,16.37 7.07,2.24 12.62,9.31 12.08,7.07 -0.54,-2.24 0.36,-10.74 -10.2,-12.62 -10.74,-1.88 -9.84,-13.96 -15.39,-21.39 -5.55,-7.43 -16.37,1.88 -20.04,0.89 -3.76,-0.89 -0.36,-6.17 3.76,-21.92 4.12,-15.75 -2.24,-21.39 -2.24,-21.39 0,0 0.36,22.82 -6.17,37.13 -6.53,14.31 -17.27,11.72 -33.11,23.8 -15.75,12.08 -9.84,21.39 -5.55,34.9 4.29,13.6 2.77,22.82 -8.32,20.04 -11.18,-2.77 -19.15,-32.48 -22.82,-43.84 -3.76,-11.18 -8.95,-34 -8.95,-34 0,0 -2.24,-9.31 -0.89,-16.73 1.52,-7.43 9.31,-8.95 11.18,-18.61 1.88,-9.84 -2.77,-12.97 -2.77,-12.97 3.31,5.55 2.77,12.97 -7.07,20.04 -9.84,7.07 -7.96,19.51 -7.96,19.51 0,0 0,-7.07 -14.5,-18.61 -14.5,-11.72 -35.88,-10.2 -43.84,-12.08 -7.96,-1.88 -3.76,-13.6 -3.76,-13.6 -7.96,14.85 -5.55,21.92 23.26,24.7 28.81,2.78 33.11,23.26 37.67,36.42 4.65,12.97 2.77,24.7 2.77,24.7 -16.73,1.88 -21.03,17.63 -24.7,18.16 -3.76,0.54 -10.2,-13.6 -12.62,-22.28 -2.42,-8.77 -24.16,-10.74 -36.78,-13.6 -12.62,-2.77 -12.97,-12.62 -12.97,-12.62 -7.07,3.76 -2.77,13.6 9.31,17.27 12.08,3.67 17.27,5.19 31.23,11.72 13.96,6.53 6.17,15.39 16.73,24.16 10.74,8.95 22.82,-11.18 30.24,-13.96 7.42,-2.78 8.95,15.39 14.5,35.52 5.55,20.13 25.05,16.37 35.25,24.7 10.2,8.33 18.16,50.38 21.03,75.07 2.77,24.7 18.16,62.46 19.15,76.95 0.98,14.5 -12.08,48.5 -13.6,58.7 -1.52,10.2 14.5,53.15 15.39,63.35 0.89,10.2 -5.55,22.82 -6.17,34.36 -0.54,11.54 8.95,20.04 12.62,34 3.76,13.96 -3.31,21.39 0.36,37.13 3.76,15.75 21.92,34.36 53.15,24.7 31.23,-9.66 66.12,12.08 66.12,12.08 13.96,8.86 25.68,5.73 37.31,12.17 v 0 z M 407.71,461.08 c -1.88,17.63 6.17,32.48 15.39,50.73 9.31,18.16 -1.52,26.04 1.88,33.11 3.31,7.07 7.96,21.03 7.96,40.53 0,19.5 2.77,26.58 24.16,34.36 21.39,7.78 49.39,-2.77 81.52,-1.52 32.12,1.52 45.72,16.37 55.92,22.28 10.2,5.91 48.86,0 61.83,-2.77 12.97,-2.77 41.43,-3.76 41.43,-3.76 0,0 12.08,1.88 1.88,-1.52 -10.2,-3.4 -50.38,4.29 -75.97,4.29 -25.59,0 -31.59,-4.29 -49.75,-17.63 -18.16,-13.6 -44.2,-6.53 -67.11,-7.96 -22.82,-1.52 -23.8,-4.65 -39.01,-8.32 -15.21,-3.67 -25.68,-46.98 -26.04,-62.46 -0.36,-15.39 -6.53,-27.83 -10.2,-45.72 -3.76,-17.81 16.73,-43.84 21.03,-60.58 4.12,-16.73 10.2,-6.53 30.24,-24.16 20.04,-17.63 25.68,-8.32 48.86,-15.39 23.18,-7.07 22.82,-13.96 32.12,-31.59 9.3,-17.63 36.24,-13.6 36.24,-13.6 0,0 1.52,6.53 0.89,9.31 -0.54,2.77 2.77,6.17 5.19,14.5 2.24,8.32 19.15,3.31 29.71,0 10.74,-3.31 14.5,7.07 14.5,7.07 0,0 -0.36,-7.07 -6.17,-13.6 -5.55,-6.53 -10.74,-0.89 -24.16,0 -13.33,0.89 -3.76,-6.17 -6.17,-10.74 -2.24,-4.65 -3.76,-16.73 -1.88,-22.28 1.88,-5.55 16.37,-12.97 24.16,-18.61 7.78,-5.55 26.58,-13.96 34.36,-17.63 7.78,-3.76 15.39,-12.97 20.04,-23.8 4.65,-10.83 12.62,-14.85 9.31,-14.5 -3.31,0.36 -14.5,3.31 -17.27,12.97 -2.77,9.84 -13.96,18.61 -25.68,21.92 -11.72,3.31 -13.96,5.55 -13.96,5.55 0,0 -3.31,-6.17 -10.74,-12.08 -7.43,-6.17 -8.95,-3.31 -5.19,-7.43 3.76,-4.29 -0.36,-14.85 -0.36,-14.85 0,0 -3.76,12.62 -7.07,16.73 -3.31,4.29 14.5,14.85 15.75,19.51 1.34,4.65 5.19,6.17 -16.73,12.62 -21.92,6.53 -18.16,17.63 -28.81,20.4 -10.74,2.77 -16.73,1.88 -30.69,7.96 -13.96,6.17 -23.8,31.23 -39.55,38.65 -15.75,7.43 -48.5,10.74 -65.23,13.6 -16.73,2.86 -32.57,39.28 -32.57,39.28 0,0 -0.89,-4.29 2.24,-18.16 3.31,-13.96 2.24,-38.3 2.24,-38.3 0,0 -2.24,15.75 -12.08,32.48 -9.31,16.02 -6.44,51.09 -6.44,51.09 M 350.64,635.9 c 7.78,-2.42 14.85,0.36 18.16,4.29 3.31,4.12 3.31,10.56 3.31,10.56 5.55,-10.56 -5.91,-25.41 -9.31,-32.12 -3.31,-6.89 5.01,-25.68 7.07,-30.69 2.24,-5.01 0.54,-8.32 0.54,-12.62 0,-4.3 11.54,-26.93 11.54,-26.93 0,0 -1.88,4.12 -6.89,9.66 -5.01,5.54 -10.56,11.72 -10.56,20.04 0,8.32 -12.08,21.03 -18.16,25.68 -6.17,4.65 -11.72,10.74 -11.54,17.99 0.36,7.07 -5.55,20.04 -5.55,20.04 6.17,-2.15 13.6,-3.49 21.39,-5.91 v 0 z m 34.18,-82.86 c 0,0 -7.43,13.33 -7.96,19.15 -0.54,5.91 1.34,16.37 -3.31,25.68 -4.65,9.31 -5.91,14.5 -1.88,21.74 4.12,7.07 6.17,18.16 6.17,18.16 0,0 15.39,-2.42 25.41,0.54 9.84,3.13 13.6,3.13 13.6,3.13 0,0 -13.96,-5.19 -15.39,-12.62 -1.52,-7.43 0.89,-25.41 0.54,-32.84 -0.35,-7.43 -5.55,-26.58 -7.78,-28.45 -2.15,-1.88 -5.28,-9.66 -9.4,-14.5 z" />
    </g>
    <rect
       class="cls-2"
       x="954.29999"
       y="93.410004"
       width="761.38"
       height="104.06"
       id="rect12" />
    <g
       id="g92"
       transform="translate(-7.39)">
      <path
         class="cls-2"
         d="m 1007.75,329.92 v -34.4 l -15.28,26.61 h -2.42 l -15.28,-26.61 v 34.4 h -4.13 v -41.89 h 4.25 l 16.34,28.67 16.46,-28.67 h 4.19 v 41.89 z"
         id="path14" />
      <path
         class="cls-2"
         d="m 1034.42,330.51 c -2.24,0 -4.3,-0.42 -6.17,-1.27 -1.87,-0.85 -3.49,-2.01 -4.87,-3.48 -1.38,-1.47 -2.45,-3.18 -3.22,-5.1 -0.77,-1.93 -1.15,-3.99 -1.15,-6.19 0,-2.2 0.38,-4.2 1.15,-6.11 0.77,-1.91 1.83,-3.58 3.19,-5.02 1.36,-1.44 2.98,-2.58 4.87,-3.42 1.89,-0.85 3.93,-1.27 6.14,-1.27 2.21,0 4.3,0.42 6.17,1.27 1.87,0.85 3.47,2 4.81,3.45 1.34,1.46 2.38,3.13 3.13,5.01 0.75,1.89 1.12,3.89 1.12,6.02 v 0.94 c 0,0.32 -0.02,0.53 -0.06,0.65 h -26.31 c 0.12,1.65 0.5,3.18 1.15,4.57 0.65,1.4 1.48,2.61 2.51,3.63 1.02,1.02 2.19,1.82 3.51,2.39 1.32,0.57 2.72,0.86 4.22,0.86 0.98,0 1.97,-0.14 2.95,-0.41 0.98,-0.27 1.89,-0.65 2.71,-1.12 0.83,-0.47 1.57,-1.05 2.24,-1.74 0.67,-0.69 1.18,-1.45 1.53,-2.27 l 3.48,0.94 c -0.47,1.14 -1.14,2.17 -2.01,3.1 -0.87,0.92 -1.87,1.73 -3.01,2.42 -1.14,0.69 -2.4,1.22 -3.78,1.59 -1.38,0.37 -2.81,0.56 -4.31,0.56 z m 11.33,-17.58 c -0.12,-1.65 -0.5,-3.16 -1.15,-4.51 -0.65,-1.36 -1.48,-2.53 -2.48,-3.51 -1,-0.98 -2.16,-1.75 -3.48,-2.3 -1.32,-0.55 -2.72,-0.83 -4.22,-0.83 -1.5,0 -2.91,0.28 -4.25,0.83 -1.34,0.55 -2.51,1.32 -3.51,2.3 -1,0.98 -1.81,2.16 -2.42,3.54 -0.61,1.38 -0.97,2.87 -1.09,4.48 z"
         id="path16" />
      <path
         class="cls-2"
         d="m 1065.98,330.51 c -2.4,0 -4.74,-0.39 -7.02,-1.18 -2.28,-0.79 -4.25,-1.93 -5.9,-3.42 l 1.83,-2.71 c 1.73,1.42 3.49,2.48 5.28,3.19 1.79,0.71 3.71,1.06 5.75,1.06 2.48,0 4.45,-0.5 5.93,-1.5 1.47,-1 2.21,-2.43 2.21,-4.28 0,-0.86 -0.2,-1.58 -0.59,-2.15 -0.39,-0.57 -0.97,-1.07 -1.74,-1.5 -0.77,-0.43 -1.73,-0.82 -2.89,-1.15 -1.16,-0.33 -2.51,-0.68 -4.04,-1.03 -1.77,-0.43 -3.3,-0.86 -4.6,-1.3 -1.3,-0.43 -2.37,-0.92 -3.21,-1.48 -0.85,-0.55 -1.48,-1.23 -1.89,-2.04 -0.41,-0.81 -0.62,-1.82 -0.62,-3.04 0,-1.53 0.3,-2.89 0.91,-4.07 0.61,-1.18 1.44,-2.15 2.48,-2.92 1.04,-0.77 2.26,-1.35 3.66,-1.74 1.4,-0.39 2.88,-0.59 4.45,-0.59 2.36,0 4.5,0.38 6.43,1.15 1.93,0.77 3.48,1.78 4.66,3.04 l -1.95,2.36 c -1.14,-1.18 -2.53,-2.06 -4.16,-2.65 -1.63,-0.59 -3.33,-0.89 -5.1,-0.89 -1.06,0 -2.04,0.11 -2.95,0.32 -0.91,0.22 -1.7,0.56 -2.39,1.03 -0.69,0.47 -1.23,1.07 -1.62,1.8 -0.39,0.73 -0.59,1.58 -0.59,2.57 0,0.83 0.14,1.5 0.41,2.01 0.27,0.51 0.73,0.95 1.36,1.33 0.63,0.37 1.42,0.71 2.39,1 0.97,0.29 2.13,0.6 3.51,0.91 1.97,0.47 3.7,0.94 5.19,1.42 1.49,0.47 2.74,1.02 3.75,1.65 1,0.63 1.76,1.4 2.27,2.3 0.51,0.91 0.77,2.01 0.77,3.3 0,2.83 -1.08,5.07 -3.25,6.73 -2.16,1.65 -5.07,2.48 -8.73,2.48 z"
         id="path18" />
      <path
         class="cls-2"
         d="m 1094.12,330.51 c -3.34,0 -5.83,-1.11 -7.46,-3.33 -1.63,-2.22 -2.45,-5.54 -2.45,-9.94 v -18.05 h 4.01 v 17.35 c 0,6.96 2.38,10.44 7.14,10.44 1.18,0 2.34,-0.2 3.48,-0.59 1.14,-0.39 2.19,-0.96 3.16,-1.71 0.96,-0.75 1.83,-1.63 2.6,-2.65 0.77,-1.02 1.39,-2.18 1.86,-3.48 V 299.2 h 4.01 v 25.55 c 0,1.1 0.47,1.65 1.42,1.65 v 3.54 c -0.47,0.08 -0.86,0.12 -1.15,0.12 h -0.62 c -0.94,-0.04 -1.71,-0.37 -2.3,-1 -0.59,-0.63 -0.89,-1.48 -0.89,-2.54 v -3.54 c -1.34,2.4 -3.16,4.26 -5.46,5.58 -2.3,1.32 -4.75,1.98 -7.35,1.98 z"
         id="path20" />
      <path
         class="cls-2"
         d="m 1134.89,302.72 c -2.71,0.08 -5.07,0.83 -7.08,2.24 -2.01,1.42 -3.42,3.36 -4.25,5.84 v 19.12 h -4.01 v -30.74 h 3.78 v 7.38 c 1.14,-2.36 2.67,-4.21 4.6,-5.55 1.93,-1.34 3.99,-2.01 6.2,-2.01 0.31,0 0.57,0.02 0.77,0.06 v 3.66 z"
         id="path22" />
      <path
         class="cls-2"
         d="m 1152,330.51 c -2.24,0 -4.3,-0.42 -6.17,-1.27 -1.87,-0.85 -3.49,-2.01 -4.87,-3.48 -1.38,-1.47 -2.45,-3.18 -3.22,-5.1 -0.77,-1.93 -1.15,-3.99 -1.15,-6.19 0,-2.2 0.38,-4.2 1.15,-6.11 0.77,-1.91 1.83,-3.58 3.19,-5.02 1.36,-1.44 2.98,-2.58 4.87,-3.42 1.89,-0.85 3.93,-1.27 6.14,-1.27 2.21,0 4.3,0.42 6.17,1.27 1.87,0.85 3.47,2 4.81,3.45 1.34,1.46 2.38,3.13 3.13,5.01 0.75,1.89 1.12,3.89 1.12,6.02 v 0.94 c 0,0.32 -0.02,0.53 -0.06,0.65 h -26.31 c 0.12,1.65 0.5,3.18 1.15,4.57 0.65,1.4 1.48,2.61 2.51,3.63 1.02,1.02 2.19,1.82 3.51,2.39 1.32,0.57 2.72,0.86 4.22,0.86 0.98,0 1.97,-0.14 2.95,-0.41 0.98,-0.27 1.89,-0.65 2.71,-1.12 0.83,-0.47 1.57,-1.05 2.24,-1.74 0.67,-0.69 1.18,-1.45 1.53,-2.27 l 3.48,0.94 c -0.47,1.14 -1.14,2.17 -2.01,3.1 -0.87,0.92 -1.87,1.73 -3.01,2.42 -1.14,0.69 -2.4,1.22 -3.78,1.59 -1.38,0.37 -2.81,0.56 -4.31,0.56 z m 11.33,-17.58 c -0.12,-1.65 -0.5,-3.16 -1.15,-4.51 -0.65,-1.36 -1.48,-2.53 -2.48,-3.51 -1,-0.98 -2.16,-1.75 -3.48,-2.3 -1.32,-0.55 -2.72,-0.83 -4.22,-0.83 -1.5,0 -2.91,0.28 -4.25,0.83 -1.34,0.55 -2.51,1.32 -3.51,2.3 -1,0.98 -1.81,2.16 -2.42,3.54 -0.61,1.38 -0.97,2.87 -1.09,4.48 z"
         id="path24" />
      <path
         class="cls-2"
         d="m 1188.7,302.72 c -2.71,0.08 -5.07,0.83 -7.08,2.24 -2.01,1.42 -3.42,3.36 -4.25,5.84 v 19.12 h -4.01 v -30.74 h 3.78 v 7.38 c 1.14,-2.36 2.67,-4.21 4.6,-5.55 1.93,-1.34 3.99,-2.01 6.2,-2.01 0.31,0 0.57,0.02 0.77,0.06 v 3.66 z"
         id="path26" />
      <path
         class="cls-2"
         d="m 1192.01,334.7 1,-4.96 h -1.36 v -5.61 h 3.89 v 5.61 l -1.48,4.96 H 1192 Z"
         id="path28" />
      <path
         class="cls-2"
         d="m 1220.5,329.92 v -41.89 h 4.13 v 41.89 z"
         id="path30" />
      <path
         class="cls-2"
         d="m 1260.15,329.92 h -4.01 v -17.17 c 0,-3.66 -0.54,-6.31 -1.62,-7.96 -1.08,-1.65 -2.74,-2.48 -4.99,-2.48 -1.18,0 -2.36,0.22 -3.54,0.65 -1.18,0.43 -2.27,1.04 -3.28,1.83 -1,0.79 -1.9,1.72 -2.68,2.8 -0.79,1.08 -1.36,2.25 -1.71,3.51 v 18.82 h -4.01 v -30.74 h 3.66 v 6.96 c 1.26,-2.24 3.06,-4.05 5.4,-5.43 2.34,-1.38 4.89,-2.06 7.64,-2.06 1.69,0 3.13,0.32 4.31,0.94 1.18,0.63 2.12,1.51 2.83,2.66 0.71,1.14 1.22,2.54 1.53,4.19 0.31,1.65 0.47,3.48 0.47,5.49 v 18 z"
         id="path32" />
      <path
         class="cls-2"
         d="m 1269.88,329.92 v -27.55 h -4.25 v -3.19 h 4.25 v -0.83 c 0,-3.78 0.81,-6.74 2.42,-8.88 1.61,-2.14 3.81,-3.22 6.61,-3.22 1.22,0 2.4,0.18 3.54,0.53 1.14,0.35 2.12,0.83 2.95,1.42 l -1.24,2.89 c -0.55,-0.43 -1.23,-0.77 -2.04,-1 -0.81,-0.24 -1.62,-0.35 -2.45,-0.35 -1.89,0 -3.32,0.73 -4.31,2.18 -0.98,1.46 -1.47,3.56 -1.47,6.31 v 0.94 h 8.5 v 3.19 h -8.5 v 27.55 h -4.01 z"
         id="path34" />
      <path
         class="cls-2"
         d="m 1299.44,330.51 c -2.24,0 -4.29,-0.42 -6.14,-1.27 -1.85,-0.85 -3.45,-2 -4.81,-3.45 -1.36,-1.46 -2.41,-3.15 -3.16,-5.07 -0.75,-1.93 -1.12,-3.95 -1.12,-6.08 0,-2.13 0.38,-4.21 1.15,-6.14 0.77,-1.93 1.83,-3.62 3.19,-5.07 1.36,-1.45 2.96,-2.62 4.81,-3.48 1.85,-0.86 3.87,-1.3 6.08,-1.3 2.21,0 4.24,0.43 6.11,1.3 1.87,0.87 3.48,2.03 4.84,3.48 1.36,1.46 2.42,3.15 3.19,5.07 0.77,1.93 1.15,3.97 1.15,6.14 0,2.17 -0.37,4.15 -1.12,6.08 -0.75,1.93 -1.8,3.62 -3.16,5.07 -1.36,1.46 -2.97,2.61 -4.84,3.45 -1.87,0.85 -3.92,1.27 -6.17,1.27 z m -11.15,-15.81 c 0,1.73 0.29,3.33 0.88,4.81 0.59,1.48 1.39,2.77 2.39,3.89 1,1.12 2.18,2 3.54,2.63 1.36,0.63 2.8,0.94 4.34,0.94 1.54,0 2.98,-0.32 4.34,-0.97 1.36,-0.65 2.55,-1.53 3.57,-2.66 1.02,-1.12 1.83,-2.43 2.42,-3.92 0.59,-1.49 0.89,-3.11 0.89,-4.84 0,-1.73 -0.29,-3.29 -0.89,-4.81 -0.59,-1.51 -1.4,-2.83 -2.42,-3.95 -1.02,-1.12 -2.21,-2.01 -3.57,-2.65 -1.36,-0.65 -2.8,-0.97 -4.34,-0.97 -1.54,0 -2.97,0.32 -4.31,0.97 -1.34,0.65 -2.52,1.54 -3.54,2.68 -1.02,1.14 -1.83,2.47 -2.42,3.98 -0.59,1.51 -0.88,3.14 -0.88,4.87 z"
         id="path36" />
      <path
         class="cls-2"
         d="m 1336.79,302.72 c -2.71,0.08 -5.07,0.83 -7.08,2.24 -2.01,1.42 -3.42,3.36 -4.25,5.84 v 19.12 h -4.01 v -30.74 h 3.78 v 7.38 c 1.14,-2.36 2.67,-4.21 4.6,-5.55 1.93,-1.34 3.99,-2.01 6.2,-2.01 0.31,0 0.57,0.02 0.77,0.06 v 3.66 z"
         id="path38" />
      <path
         class="cls-2"
         d="m 1387.88,329.92 h -4.01 v -17.17 c 0,-3.58 -0.57,-6.21 -1.71,-7.91 -1.14,-1.69 -2.83,-2.54 -5.07,-2.54 -1.18,0 -2.29,0.22 -3.33,0.65 -1.04,0.43 -2.01,1.04 -2.89,1.83 -0.89,0.79 -1.66,1.72 -2.33,2.8 -0.67,1.08 -1.18,2.27 -1.53,3.57 v 18.76 H 1363 v -17.17 c 0,-3.66 -0.55,-6.31 -1.65,-7.96 -1.1,-1.65 -2.79,-2.48 -5.07,-2.48 -2.28,0 -4.39,0.81 -6.2,2.42 -1.81,1.61 -3.11,3.74 -3.89,6.37 v 18.82 h -4.01 v -30.74 h 3.66 v 6.96 c 1.26,-2.36 2.91,-4.2 4.96,-5.52 2.04,-1.32 4.31,-1.98 6.79,-1.98 2.48,0 4.67,0.73 6.22,2.18 1.55,1.46 2.51,3.36 2.86,5.72 2.87,-5.27 6.82,-7.91 11.86,-7.91 1.73,0 3.2,0.32 4.4,0.94 1.2,0.63 2.16,1.52 2.89,2.68 0.73,1.16 1.26,2.56 1.59,4.19 0.33,1.63 0.5,3.45 0.5,5.46 v 18 z"
         id="path40" />
      <path
         class="cls-2"
         d="m 1409.65,330.51 c -2.24,0 -4.3,-0.42 -6.17,-1.27 -1.87,-0.85 -3.49,-2.01 -4.87,-3.48 -1.38,-1.47 -2.45,-3.18 -3.22,-5.1 -0.77,-1.93 -1.15,-3.99 -1.15,-6.19 0,-2.2 0.38,-4.2 1.15,-6.11 0.77,-1.91 1.83,-3.58 3.19,-5.02 1.36,-1.44 2.98,-2.58 4.87,-3.42 1.89,-0.85 3.93,-1.27 6.14,-1.27 2.21,0 4.3,0.42 6.17,1.27 1.87,0.85 3.47,2 4.81,3.45 1.34,1.46 2.38,3.13 3.13,5.01 0.75,1.89 1.12,3.89 1.12,6.02 v 0.94 c 0,0.32 -0.02,0.53 -0.06,0.65 h -26.31 c 0.12,1.65 0.5,3.18 1.15,4.57 0.65,1.4 1.48,2.61 2.51,3.63 1.02,1.02 2.19,1.82 3.51,2.39 1.32,0.57 2.72,0.86 4.22,0.86 0.98,0 1.97,-0.14 2.95,-0.41 0.98,-0.27 1.89,-0.65 2.71,-1.12 0.83,-0.47 1.57,-1.05 2.24,-1.74 0.67,-0.69 1.18,-1.45 1.53,-2.27 l 3.48,0.94 c -0.47,1.14 -1.14,2.17 -2.01,3.1 -0.87,0.92 -1.87,1.73 -3.01,2.42 -1.14,0.69 -2.4,1.22 -3.78,1.59 -1.38,0.37 -2.81,0.56 -4.31,0.56 z m 11.33,-17.58 c -0.12,-1.65 -0.5,-3.16 -1.15,-4.51 -0.65,-1.36 -1.48,-2.53 -2.48,-3.51 -1,-0.98 -2.16,-1.75 -3.48,-2.3 -1.32,-0.55 -2.72,-0.83 -4.22,-0.83 -1.5,0 -2.91,0.28 -4.25,0.83 -1.34,0.55 -2.51,1.32 -3.51,2.3 -1,0.98 -1.81,2.16 -2.42,3.54 -0.61,1.38 -0.97,2.87 -1.09,4.48 z"
         id="path42" />
      <path
         class="cls-2"
         d="m 1446.35,302.72 c -2.71,0.08 -5.07,0.83 -7.08,2.24 -2.01,1.42 -3.42,3.36 -4.25,5.84 v 19.12 h -4.01 v -30.74 h 3.78 v 7.38 c 1.14,-2.36 2.67,-4.21 4.6,-5.55 1.93,-1.34 3.99,-2.01 6.2,-2.01 0.31,0 0.57,0.02 0.77,0.06 v 3.66 z"
         id="path44" />
      <path
         class="cls-2"
         d="m 985.5,399.51 c -2.6,0 -4.89,-0.66 -6.87,-1.98 -1.99,-1.32 -3.59,-2.98 -4.81,-4.99 v 18.94 h -4.01 v -43.31 h 3.6 v 5.96 c 1.26,-1.93 2.89,-3.49 4.9,-4.69 2.01,-1.2 4.19,-1.8 6.55,-1.8 2.12,0 4.07,0.44 5.84,1.33 1.77,0.88 3.3,2.06 4.6,3.54 1.3,1.47 2.31,3.18 3.04,5.1 0.73,1.93 1.09,3.91 1.09,5.96 0,2.16 -0.33,4.21 -1,6.14 -0.67,1.93 -1.62,3.62 -2.86,5.07 -1.24,1.45 -2.71,2.61 -4.42,3.45 -1.71,0.85 -3.59,1.27 -5.63,1.27 z m -1.12,-3.54 c 1.65,0 3.16,-0.35 4.51,-1.06 1.36,-0.71 2.52,-1.64 3.48,-2.8 0.96,-1.16 1.7,-2.48 2.21,-3.95 0.51,-1.47 0.77,-3 0.77,-4.57 0,-1.65 -0.29,-3.22 -0.88,-4.72 -0.59,-1.5 -1.4,-2.81 -2.42,-3.95 -1.02,-1.14 -2.23,-2.04 -3.63,-2.71 -1.4,-0.67 -2.9,-1 -4.51,-1 -1.02,0 -2.09,0.21 -3.22,0.62 -1.13,0.41 -2.16,0.96 -3.13,1.65 -0.96,0.69 -1.79,1.5 -2.48,2.42 -0.69,0.92 -1.11,1.9 -1.27,2.92 v 9.44 c 0.47,1.1 1.07,2.12 1.8,3.07 0.73,0.94 1.55,1.76 2.48,2.45 0.92,0.69 1.92,1.23 2.98,1.62 1.06,0.39 2.16,0.59 3.3,0.59 z"
         id="path46" />
      <path
         class="cls-2"
         d="m 1019.31,399.51 c -2.24,0 -4.29,-0.42 -6.14,-1.27 -1.85,-0.84 -3.45,-2 -4.81,-3.45 -1.36,-1.46 -2.41,-3.15 -3.16,-5.07 -0.75,-1.93 -1.12,-3.95 -1.12,-6.08 0,-2.13 0.38,-4.21 1.15,-6.14 0.77,-1.93 1.83,-3.62 3.19,-5.07 1.36,-1.45 2.96,-2.62 4.81,-3.48 1.85,-0.87 3.87,-1.3 6.08,-1.3 2.21,0 4.24,0.43 6.11,1.3 1.87,0.87 3.48,2.03 4.84,3.48 1.36,1.46 2.42,3.15 3.19,5.07 0.77,1.93 1.15,3.97 1.15,6.14 0,2.17 -0.37,4.15 -1.12,6.08 -0.75,1.93 -1.8,3.62 -3.16,5.07 -1.36,1.46 -2.97,2.61 -4.84,3.45 -1.87,0.85 -3.92,1.27 -6.17,1.27 z m -11.15,-15.81 c 0,1.73 0.29,3.33 0.88,4.81 0.59,1.47 1.39,2.77 2.39,3.89 1,1.12 2.18,2 3.54,2.63 1.36,0.63 2.8,0.94 4.34,0.94 1.54,0 2.98,-0.32 4.34,-0.97 1.36,-0.65 2.55,-1.53 3.57,-2.65 1.02,-1.12 1.83,-2.43 2.42,-3.92 0.59,-1.49 0.89,-3.11 0.89,-4.84 0,-1.73 -0.29,-3.29 -0.89,-4.81 -0.59,-1.51 -1.4,-2.83 -2.42,-3.95 -1.02,-1.12 -2.21,-2.01 -3.57,-2.66 -1.36,-0.65 -2.8,-0.97 -4.34,-0.97 -1.54,0 -2.97,0.33 -4.31,0.97 -1.34,0.65 -2.52,1.54 -3.54,2.68 -1.02,1.14 -1.83,2.47 -2.42,3.98 -0.59,1.51 -0.88,3.14 -0.88,4.87 z"
         id="path48" />
      <path
         class="cls-2"
         d="m 1050.93,399.51 c -3.34,0 -5.83,-1.11 -7.46,-3.33 -1.63,-2.22 -2.45,-5.54 -2.45,-9.94 v -18.05 h 4.01 v 17.35 c 0,6.96 2.38,10.44 7.14,10.44 1.18,0 2.34,-0.2 3.48,-0.59 1.14,-0.39 2.19,-0.96 3.16,-1.71 0.96,-0.75 1.83,-1.63 2.6,-2.66 0.77,-1.02 1.39,-2.18 1.86,-3.48 v -19.35 h 4.01 v 25.55 c 0,1.1 0.47,1.65 1.42,1.65 v 3.54 c -0.47,0.08 -0.86,0.12 -1.15,0.12 h -0.62 c -0.94,-0.04 -1.71,-0.37 -2.3,-1 -0.59,-0.63 -0.89,-1.48 -0.89,-2.54 v -3.54 c -1.34,2.4 -3.16,4.26 -5.46,5.58 -2.3,1.32 -4.75,1.98 -7.35,1.98 z"
         id="path50" />
      <path
         class="cls-2"
         d="m 1091.7,371.72 c -2.71,0.08 -5.07,0.83 -7.08,2.24 -2.01,1.42 -3.42,3.36 -4.25,5.84 v 19.12 h -4.01 v -30.74 h 3.78 v 7.38 c 1.14,-2.36 2.67,-4.21 4.6,-5.55 1.93,-1.34 3.99,-2.01 6.2,-2.01 0.31,0 0.57,0.02 0.77,0.06 v 3.66 z"
         id="path52" />
      <path
         class="cls-2"
         d="m 1120.32,399.51 c -3.34,0 -5.83,-1.11 -7.46,-3.33 -1.63,-2.22 -2.45,-5.54 -2.45,-9.94 v -18.05 h 4.01 v 17.35 c 0,6.96 2.38,10.44 7.14,10.44 1.18,0 2.34,-0.2 3.48,-0.59 1.14,-0.39 2.19,-0.96 3.16,-1.71 0.96,-0.75 1.83,-1.63 2.6,-2.66 0.77,-1.02 1.39,-2.18 1.86,-3.48 v -19.35 h 4.01 v 25.55 c 0,1.1 0.47,1.65 1.42,1.65 v 3.54 c -0.47,0.08 -0.86,0.12 -1.15,0.12 h -0.62 c -0.94,-0.04 -1.71,-0.37 -2.3,-1 -0.59,-0.63 -0.89,-1.48 -0.89,-2.54 v -3.54 c -1.34,2.4 -3.16,4.26 -5.46,5.58 -2.3,1.32 -4.75,1.98 -7.35,1.98 z"
         id="path54" />
      <path
         class="cls-2"
         d="m 1171.59,398.92 h -4.01 v -17.17 c 0,-3.66 -0.54,-6.31 -1.62,-7.96 -1.08,-1.65 -2.74,-2.48 -4.99,-2.48 -1.18,0 -2.36,0.22 -3.54,0.65 -1.18,0.43 -2.27,1.04 -3.28,1.83 -1,0.79 -1.9,1.72 -2.68,2.8 -0.79,1.08 -1.36,2.25 -1.71,3.51 v 18.82 h -4.01 v -30.74 h 3.66 v 6.96 c 1.26,-2.24 3.06,-4.05 5.4,-5.43 2.34,-1.38 4.89,-2.06 7.64,-2.06 1.69,0 3.13,0.31 4.31,0.94 1.18,0.63 2.12,1.51 2.83,2.66 0.71,1.14 1.22,2.54 1.53,4.19 0.31,1.65 0.47,3.48 0.47,5.49 v 18 z"
         id="path56" />
      <path
         class="cls-2"
         d="m 1193.42,399.51 c -2.24,0 -4.3,-0.42 -6.17,-1.27 -1.87,-0.84 -3.49,-2.01 -4.87,-3.48 -1.38,-1.48 -2.45,-3.18 -3.22,-5.1 -0.77,-1.93 -1.15,-3.99 -1.15,-6.2 0,-2.21 0.38,-4.2 1.15,-6.11 0.77,-1.91 1.83,-3.58 3.19,-5.01 1.36,-1.44 2.98,-2.58 4.87,-3.42 1.89,-0.84 3.93,-1.27 6.14,-1.27 2.21,0 4.3,0.42 6.17,1.27 1.87,0.85 3.47,2 4.81,3.45 1.34,1.46 2.38,3.13 3.13,5.01 0.75,1.89 1.12,3.89 1.12,6.02 v 0.94 c 0,0.32 -0.02,0.53 -0.06,0.65 h -26.31 c 0.12,1.65 0.5,3.18 1.15,4.57 0.65,1.4 1.48,2.61 2.51,3.63 1.02,1.02 2.19,1.82 3.51,2.39 1.32,0.57 2.72,0.86 4.22,0.86 0.98,0 1.97,-0.14 2.95,-0.41 0.98,-0.28 1.89,-0.65 2.71,-1.12 0.83,-0.47 1.57,-1.05 2.24,-1.74 0.67,-0.69 1.18,-1.45 1.53,-2.27 l 3.48,0.94 c -0.47,1.14 -1.14,2.17 -2.01,3.1 -0.87,0.92 -1.87,1.73 -3.01,2.42 -1.14,0.69 -2.4,1.22 -3.78,1.59 -1.38,0.37 -2.81,0.56 -4.31,0.56 z m 11.33,-17.58 c -0.12,-1.65 -0.5,-3.16 -1.15,-4.51 -0.65,-1.36 -1.48,-2.53 -2.48,-3.51 -1,-0.98 -2.16,-1.75 -3.48,-2.3 -1.32,-0.55 -2.72,-0.83 -4.22,-0.83 -1.5,0 -2.91,0.28 -4.25,0.83 -1.34,0.55 -2.51,1.32 -3.51,2.3 -1,0.98 -1.81,2.16 -2.42,3.54 -0.61,1.38 -0.97,2.87 -1.09,4.48 z"
         id="path58" />
      <path
         class="cls-2"
         d="m 1243.09,399.51 c -2.24,0 -4.3,-0.42 -6.17,-1.27 -1.87,-0.84 -3.49,-2.01 -4.87,-3.48 -1.38,-1.48 -2.45,-3.18 -3.22,-5.1 -0.77,-1.93 -1.15,-3.99 -1.15,-6.2 0,-2.21 0.38,-4.2 1.15,-6.11 0.77,-1.91 1.83,-3.58 3.19,-5.01 1.36,-1.44 2.98,-2.58 4.87,-3.42 1.89,-0.84 3.93,-1.27 6.14,-1.27 2.21,0 4.3,0.42 6.17,1.27 1.87,0.85 3.47,2 4.81,3.45 1.34,1.46 2.38,3.13 3.13,5.01 0.75,1.89 1.12,3.89 1.12,6.02 v 0.94 c 0,0.32 -0.02,0.53 -0.06,0.65 h -26.31 c 0.12,1.65 0.5,3.18 1.15,4.57 0.65,1.4 1.48,2.61 2.51,3.63 1.02,1.02 2.19,1.82 3.51,2.39 1.32,0.57 2.72,0.86 4.22,0.86 0.98,0 1.97,-0.14 2.95,-0.41 0.98,-0.28 1.89,-0.65 2.71,-1.12 0.83,-0.47 1.57,-1.05 2.24,-1.74 0.67,-0.69 1.18,-1.45 1.53,-2.27 l 3.48,0.94 c -0.47,1.14 -1.14,2.17 -2.01,3.1 -0.87,0.92 -1.87,1.73 -3.01,2.42 -1.14,0.69 -2.4,1.22 -3.78,1.59 -1.38,0.37 -2.81,0.56 -4.31,0.56 z m 11.33,-17.58 c -0.12,-1.65 -0.5,-3.16 -1.15,-4.51 -0.65,-1.36 -1.48,-2.53 -2.48,-3.51 -1,-0.98 -2.16,-1.75 -3.48,-2.3 -1.32,-0.55 -2.72,-0.83 -4.22,-0.83 -1.5,0 -2.91,0.28 -4.25,0.83 -1.34,0.55 -2.51,1.32 -3.51,2.3 -1,0.98 -1.81,2.16 -2.42,3.54 -0.61,1.38 -0.97,2.87 -1.09,4.48 z m -11.15,-19.59 -2.66,-1 3.48,-5.49 h 4.25 z"
         id="path60" />
      <path
         class="cls-2"
         d="m 1262.33,383.46 c 0,-2.16 0.37,-4.21 1.12,-6.14 0.75,-1.93 1.8,-3.61 3.16,-5.04 1.36,-1.44 2.98,-2.57 4.87,-3.39 1.89,-0.83 3.97,-1.24 6.25,-1.24 2.91,0 5.45,0.66 7.61,1.98 2.16,1.32 3.8,3.1 4.9,5.34 l -3.89,1.24 c -0.87,-1.57 -2.08,-2.8 -3.63,-3.69 -1.55,-0.88 -3.27,-1.33 -5.16,-1.33 -1.57,0 -3.04,0.32 -4.4,0.94 -1.36,0.63 -2.54,1.49 -3.54,2.57 -1,1.08 -1.79,2.37 -2.36,3.86 -0.57,1.5 -0.86,3.13 -0.86,4.9 0,1.77 0.29,3.36 0.88,4.9 0.59,1.53 1.4,2.86 2.42,3.98 1.02,1.12 2.21,2.01 3.57,2.65 1.36,0.65 2.8,0.97 4.34,0.97 0.98,0 1.96,-0.14 2.92,-0.41 0.96,-0.27 1.86,-0.66 2.68,-1.15 0.83,-0.49 1.53,-1.05 2.12,-1.68 0.59,-0.63 1,-1.3 1.24,-2.01 l 3.95,1.18 c -0.43,1.1 -1.06,2.12 -1.89,3.04 -0.83,0.92 -1.8,1.73 -2.92,2.42 -1.12,0.69 -2.36,1.22 -3.72,1.59 -1.36,0.37 -2.76,0.56 -4.22,0.56 -2.24,0 -4.31,-0.42 -6.19,-1.27 -1.89,-0.84 -3.52,-2.01 -4.9,-3.48 -1.38,-1.48 -2.45,-3.18 -3.22,-5.1 -0.77,-1.93 -1.15,-3.99 -1.15,-6.2 z"
         id="path62" />
      <path
         class="cls-2"
         d="m 1309.65,399.51 c -2.24,0 -4.29,-0.42 -6.14,-1.27 -1.85,-0.84 -3.45,-2 -4.81,-3.45 -1.36,-1.46 -2.41,-3.15 -3.16,-5.07 -0.75,-1.93 -1.12,-3.95 -1.12,-6.08 0,-2.13 0.38,-4.21 1.15,-6.14 0.77,-1.93 1.83,-3.62 3.19,-5.07 1.36,-1.45 2.96,-2.62 4.81,-3.48 1.85,-0.87 3.87,-1.3 6.08,-1.3 2.21,0 4.24,0.43 6.11,1.3 1.87,0.87 3.48,2.03 4.84,3.48 1.36,1.46 2.42,3.15 3.19,5.07 0.77,1.93 1.15,3.97 1.15,6.14 0,2.17 -0.37,4.15 -1.12,6.08 -0.75,1.93 -1.8,3.62 -3.16,5.07 -1.36,1.46 -2.97,2.61 -4.84,3.45 -1.87,0.85 -3.92,1.27 -6.17,1.27 z M 1298.5,383.7 c 0,1.73 0.29,3.33 0.88,4.81 0.59,1.47 1.39,2.77 2.39,3.89 1,1.12 2.18,2 3.54,2.63 1.36,0.63 2.8,0.94 4.34,0.94 1.54,0 2.98,-0.32 4.34,-0.97 1.36,-0.65 2.55,-1.53 3.57,-2.65 1.02,-1.12 1.83,-2.43 2.42,-3.92 0.59,-1.49 0.89,-3.11 0.89,-4.84 0,-1.73 -0.29,-3.29 -0.89,-4.81 -0.59,-1.51 -1.4,-2.83 -2.42,-3.95 -1.02,-1.12 -2.21,-2.01 -3.57,-2.66 -1.36,-0.65 -2.8,-0.97 -4.34,-0.97 -1.54,0 -2.97,0.33 -4.31,0.97 -1.34,0.65 -2.52,1.54 -3.54,2.68 -1.02,1.14 -1.83,2.47 -2.42,3.98 -0.59,1.51 -0.88,3.14 -0.88,4.87 z"
         id="path64" />
      <path
         class="cls-2"
         d="m 1357.49,398.92 h -4.01 v -17.17 c 0,-3.66 -0.54,-6.31 -1.62,-7.96 -1.08,-1.65 -2.74,-2.48 -4.99,-2.48 -1.18,0 -2.36,0.22 -3.54,0.65 -1.18,0.43 -2.27,1.04 -3.28,1.83 -1,0.79 -1.9,1.72 -2.68,2.8 -0.79,1.08 -1.36,2.25 -1.71,3.51 v 18.82 h -4.01 v -30.74 h 3.66 v 6.96 c 1.26,-2.24 3.06,-4.05 5.4,-5.43 2.34,-1.38 4.89,-2.06 7.64,-2.06 1.69,0 3.13,0.31 4.31,0.94 1.18,0.63 2.12,1.51 2.83,2.66 0.71,1.14 1.22,2.54 1.53,4.19 0.31,1.65 0.47,3.48 0.47,5.49 v 18 z"
         id="path66" />
      <path
         class="cls-2"
         d="m 1379.15,399.51 c -2.24,0 -4.29,-0.42 -6.14,-1.27 -1.85,-0.84 -3.45,-2 -4.81,-3.45 -1.36,-1.46 -2.41,-3.15 -3.16,-5.07 -0.75,-1.93 -1.12,-3.95 -1.12,-6.08 0,-2.13 0.38,-4.21 1.15,-6.14 0.77,-1.93 1.83,-3.62 3.19,-5.07 1.36,-1.45 2.96,-2.62 4.81,-3.48 1.85,-0.87 3.87,-1.3 6.08,-1.3 2.21,0 4.24,0.43 6.11,1.3 1.87,0.87 3.48,2.03 4.84,3.48 1.36,1.46 2.42,3.15 3.19,5.07 0.77,1.93 1.15,3.97 1.15,6.14 0,2.17 -0.37,4.15 -1.12,6.08 -0.75,1.93 -1.8,3.62 -3.16,5.07 -1.36,1.46 -2.97,2.61 -4.84,3.45 -1.87,0.85 -3.92,1.27 -6.17,1.27 z M 1368,383.7 c 0,1.73 0.29,3.33 0.88,4.81 0.59,1.47 1.39,2.77 2.39,3.89 1,1.12 2.18,2 3.54,2.63 1.36,0.63 2.8,0.94 4.34,0.94 1.54,0 2.98,-0.32 4.34,-0.97 1.36,-0.65 2.55,-1.53 3.57,-2.65 1.02,-1.12 1.83,-2.43 2.42,-3.92 0.59,-1.49 0.89,-3.11 0.89,-4.84 0,-1.73 -0.29,-3.29 -0.89,-4.81 -0.59,-1.51 -1.4,-2.83 -2.42,-3.95 -1.02,-1.12 -2.21,-2.01 -3.57,-2.66 -1.36,-0.65 -2.8,-0.97 -4.34,-0.97 -1.54,0 -2.97,0.33 -4.31,0.97 -1.34,0.65 -2.52,1.54 -3.54,2.68 -1.02,1.14 -1.83,2.47 -2.42,3.98 -0.59,1.51 -0.88,3.14 -0.88,4.87 z"
         id="path68" />
      <path
         class="cls-2"
         d="m 1446.88,398.92 h -4.01 v -17.17 c 0,-3.58 -0.57,-6.21 -1.71,-7.91 -1.14,-1.69 -2.83,-2.54 -5.07,-2.54 -1.18,0 -2.29,0.22 -3.33,0.65 -1.04,0.43 -2.01,1.04 -2.89,1.83 -0.89,0.79 -1.66,1.72 -2.33,2.8 -0.67,1.08 -1.18,2.27 -1.53,3.57 v 18.76 H 1422 v -17.17 c 0,-3.66 -0.55,-6.31 -1.65,-7.96 -1.1,-1.65 -2.79,-2.48 -5.07,-2.48 -2.28,0 -4.39,0.81 -6.2,2.42 -1.81,1.61 -3.11,3.74 -3.89,6.37 v 18.82 h -4.01 v -30.74 h 3.66 v 6.96 c 1.26,-2.36 2.91,-4.2 4.96,-5.52 2.04,-1.32 4.31,-1.98 6.79,-1.98 2.48,0 4.67,0.73 6.22,2.18 1.55,1.46 2.51,3.36 2.86,5.72 2.87,-5.27 6.82,-7.91 11.86,-7.91 1.73,0 3.2,0.31 4.4,0.94 1.2,0.63 2.16,1.53 2.89,2.68 0.73,1.16 1.26,2.56 1.59,4.19 0.33,1.63 0.5,3.45 0.5,5.46 v 18 z"
         id="path70" />
      <path
         class="cls-2"
         d="m 1455.37,361.75 v -5.9 h 4.01 v 5.9 z m 0,37.17 v -30.74 h 4.01 v 30.74 z"
         id="path72" />
      <path
         class="cls-2"
         d="m 1481.51,399.51 c -2.24,0 -4.3,-0.42 -6.17,-1.27 -1.87,-0.84 -3.49,-2.01 -4.87,-3.48 -1.38,-1.48 -2.45,-3.18 -3.22,-5.1 -0.77,-1.93 -1.15,-3.99 -1.15,-6.2 0,-2.21 0.38,-4.2 1.15,-6.11 0.77,-1.91 1.83,-3.58 3.19,-5.01 1.36,-1.44 2.98,-2.58 4.87,-3.42 1.89,-0.84 3.93,-1.27 6.14,-1.27 2.21,0 4.3,0.42 6.17,1.27 1.87,0.85 3.47,2 4.81,3.45 1.34,1.46 2.38,3.13 3.13,5.01 0.75,1.89 1.12,3.89 1.12,6.02 v 0.94 c 0,0.32 -0.02,0.53 -0.06,0.65 h -26.31 c 0.12,1.65 0.5,3.18 1.15,4.57 0.65,1.4 1.48,2.61 2.51,3.63 1.02,1.02 2.19,1.82 3.51,2.39 1.32,0.57 2.72,0.86 4.22,0.86 0.98,0 1.97,-0.14 2.95,-0.41 0.98,-0.28 1.89,-0.65 2.71,-1.12 0.83,-0.47 1.57,-1.05 2.24,-1.74 0.67,-0.69 1.18,-1.45 1.53,-2.27 l 3.48,0.94 c -0.47,1.14 -1.14,2.17 -2.01,3.1 -0.87,0.92 -1.87,1.73 -3.01,2.42 -1.14,0.69 -2.4,1.22 -3.78,1.59 -1.38,0.37 -2.81,0.56 -4.31,0.56 z m 11.33,-17.58 c -0.12,-1.65 -0.5,-3.16 -1.15,-4.51 -0.65,-1.36 -1.48,-2.53 -2.48,-3.51 -1,-0.98 -2.16,-1.75 -3.48,-2.3 -1.32,-0.55 -2.72,-0.83 -4.22,-0.83 -1.5,0 -2.91,0.28 -4.25,0.83 -1.34,0.55 -2.51,1.32 -3.51,2.3 -1,0.98 -1.81,2.16 -2.42,3.54 -0.61,1.38 -0.97,2.87 -1.09,4.48 z"
         id="path74" />
      <path
         class="cls-2"
         d="m 1530.54,399.51 c -2.12,0 -4.09,-0.44 -5.9,-1.33 -1.81,-0.88 -3.36,-2.05 -4.66,-3.51 -1.3,-1.46 -2.31,-3.14 -3.04,-5.04 -0.73,-1.91 -1.09,-3.9 -1.09,-5.99 0,-2.09 0.35,-4.22 1.06,-6.17 0.71,-1.95 1.68,-3.65 2.92,-5.1 1.24,-1.46 2.71,-2.61 4.42,-3.45 1.71,-0.84 3.59,-1.27 5.63,-1.27 2.6,0 4.9,0.68 6.9,2.04 2.01,1.36 3.58,3 4.72,4.93 v -18.76 h 4.01 v 37.88 c 0,1.1 0.47,1.65 1.42,1.65 v 3.54 c -0.59,0.12 -1.06,0.18 -1.42,0.18 -0.94,0 -1.77,-0.3 -2.48,-0.91 -0.71,-0.61 -1.06,-1.35 -1.06,-2.21 v -3.01 c -1.22,2.01 -2.87,3.6 -4.96,4.78 -2.08,1.18 -4.25,1.77 -6.49,1.77 z m 0.88,-3.54 c 0.98,0 2.04,-0.2 3.16,-0.59 1.12,-0.39 2.17,-0.93 3.16,-1.62 0.98,-0.69 1.82,-1.5 2.51,-2.42 0.69,-0.92 1.11,-1.92 1.27,-2.98 v -9.5 c -0.39,-1.06 -0.96,-2.06 -1.71,-2.98 -0.75,-0.92 -1.6,-1.74 -2.57,-2.45 -0.97,-0.71 -2,-1.26 -3.1,-1.65 -1.1,-0.39 -2.18,-0.59 -3.25,-0.59 -1.65,0 -3.15,0.35 -4.48,1.06 -1.34,0.71 -2.49,1.64 -3.45,2.8 -0.96,1.16 -1.7,2.49 -2.21,3.98 -0.51,1.5 -0.77,3.03 -0.77,4.6 0,1.65 0.29,3.23 0.88,4.72 0.59,1.49 1.4,2.8 2.42,3.92 1.02,1.12 2.23,2.02 3.63,2.68 1.4,0.67 2.9,1 4.51,1 z"
         id="path76" />
      <path
         class="cls-2"
         d="m 1564.23,399.51 c -3.34,0 -5.83,-1.11 -7.46,-3.33 -1.63,-2.22 -2.45,-5.54 -2.45,-9.94 v -18.05 h 4.01 v 17.35 c 0,6.96 2.38,10.44 7.14,10.44 1.18,0 2.34,-0.2 3.48,-0.59 1.14,-0.39 2.19,-0.96 3.16,-1.71 0.96,-0.75 1.83,-1.63 2.6,-2.66 0.77,-1.02 1.39,-2.18 1.86,-3.48 v -19.35 h 4.01 v 25.55 c 0,1.1 0.47,1.65 1.42,1.65 v 3.54 c -0.47,0.08 -0.86,0.12 -1.15,0.12 h -0.62 c -0.94,-0.04 -1.71,-0.37 -2.3,-1 -0.59,-0.63 -0.89,-1.48 -0.89,-2.54 v -3.54 c -1.34,2.4 -3.16,4.26 -5.46,5.58 -2.3,1.32 -4.75,1.98 -7.35,1.98 z"
         id="path78" />
      <path
         class="cls-2"
         d="m 1604.99,371.72 c -2.71,0.08 -5.07,0.83 -7.08,2.24 -2.01,1.42 -3.42,3.36 -4.25,5.84 v 19.12 h -4.01 v -30.74 h 3.78 v 7.38 c 1.14,-2.36 2.67,-4.21 4.6,-5.55 1.93,-1.34 3.99,-2.01 6.2,-2.01 0.31,0 0.57,0.02 0.77,0.06 v 3.66 z"
         id="path80" />
      <path
         class="cls-2"
         d="m 1625.7,371.72 c -2.71,0.08 -5.07,0.83 -7.08,2.24 -2.01,1.42 -3.42,3.36 -4.25,5.84 v 19.12 h -4.01 v -30.74 h 3.78 v 7.38 c 1.14,-2.36 2.67,-4.21 4.6,-5.55 1.93,-1.34 3.99,-2.01 6.2,-2.01 0.31,0 0.57,0.02 0.77,0.06 v 3.66 z"
         id="path82" />
      <path
         class="cls-2"
         d="m 1638.39,399.51 c -1.46,0 -2.8,-0.25 -4.04,-0.74 -1.24,-0.49 -2.32,-1.17 -3.25,-2.04 -0.92,-0.87 -1.64,-1.88 -2.15,-3.04 -0.51,-1.16 -0.77,-2.41 -0.77,-3.75 0,-1.34 0.31,-2.58 0.94,-3.72 0.63,-1.14 1.51,-2.12 2.66,-2.95 1.14,-0.83 2.5,-1.46 4.07,-1.92 1.57,-0.45 3.3,-0.68 5.19,-0.68 1.57,0 3.17,0.14 4.78,0.41 1.61,0.28 3.05,0.67 4.31,1.18 v -2.77 c 0,-2.71 -0.77,-4.87 -2.3,-6.46 -1.53,-1.59 -3.66,-2.39 -6.37,-2.39 -1.57,0 -3.19,0.32 -4.84,0.94 -1.65,0.63 -3.32,1.53 -5.01,2.71 l -1.42,-2.66 c 3.97,-2.67 7.83,-4.01 11.56,-4.01 3.73,0 6.88,1.08 9.09,3.24 2.2,2.16 3.3,5.15 3.3,8.97 v 13.86 c 0,1.1 0.49,1.65 1.47,1.65 v 3.54 c -0.67,0.12 -1.18,0.18 -1.53,0.18 -1.02,0 -1.82,-0.25 -2.39,-0.77 -0.57,-0.51 -0.88,-1.22 -0.92,-2.12 l -0.12,-2.42 c -1.42,1.85 -3.2,3.26 -5.34,4.25 -2.14,0.98 -4.46,1.47 -6.93,1.47 z m 0.94,-3.07 c 2.08,0 4,-0.39 5.75,-1.18 1.75,-0.79 3.08,-1.83 3.98,-3.13 0.35,-0.35 0.62,-0.74 0.8,-1.15 0.18,-0.41 0.26,-0.8 0.26,-1.15 v -5.01 c -1.34,-0.51 -2.72,-0.9 -4.16,-1.18 -1.44,-0.27 -2.9,-0.41 -4.4,-0.41 -2.83,0 -5.13,0.59 -6.9,1.77 -1.77,1.18 -2.65,2.73 -2.65,4.66 0,0.94 0.19,1.83 0.56,2.65 0.37,0.83 0.88,1.54 1.53,2.15 0.65,0.61 1.42,1.09 2.33,1.45 0.9,0.35 1.87,0.53 2.89,0.53 z"
         id="path84" />
      <path
         class="cls-2"
         d="m 1677.86,399.51 c -2.44,0 -4.67,-0.61 -6.7,-1.83 -2.03,-1.22 -3.61,-2.79 -4.75,-4.72 v 5.96 h -3.6 v -43.07 h 4.01 v 18.76 c 1.38,-2.08 3.03,-3.77 4.96,-5.04 1.93,-1.28 4.17,-1.92 6.73,-1.92 2.16,0 4.1,0.45 5.81,1.36 1.71,0.91 3.17,2.12 4.37,3.63 1.2,1.51 2.12,3.23 2.77,5.13 0.65,1.91 0.97,3.86 0.97,5.87 0,2.16 -0.37,4.21 -1.12,6.14 -0.75,1.93 -1.77,3.61 -3.07,5.04 -1.3,1.44 -2.84,2.58 -4.63,3.42 -1.79,0.85 -3.71,1.27 -5.75,1.27 z m -0.94,-3.54 c 1.69,0 3.23,-0.34 4.63,-1.03 1.4,-0.69 2.6,-1.61 3.6,-2.77 1,-1.16 1.79,-2.48 2.36,-3.95 0.57,-1.47 0.86,-3 0.86,-4.57 0,-1.57 -0.27,-3.17 -0.8,-4.66 -0.53,-1.49 -1.28,-2.82 -2.24,-3.98 -0.96,-1.16 -2.12,-2.08 -3.48,-2.77 -1.36,-0.69 -2.84,-1.03 -4.45,-1.03 -1.22,0 -2.36,0.21 -3.42,0.62 -1.06,0.41 -2.05,0.97 -2.95,1.68 -0.91,0.71 -1.71,1.52 -2.42,2.45 -0.71,0.92 -1.3,1.9 -1.77,2.92 v 9.56 c 0.16,1.06 0.58,2.06 1.27,2.98 0.69,0.92 1.51,1.72 2.48,2.39 0.96,0.67 2.01,1.2 3.13,1.59 1.12,0.39 2.19,0.59 3.22,0.59 z"
         id="path86" />
      <path
         class="cls-2"
         d="m 1699.39,355.85 h 4.01 v 36.11 c 0,1.14 0.31,2.04 0.94,2.68 0.63,0.65 1.51,0.97 2.66,0.97 0.43,0 0.94,-0.06 1.53,-0.18 0.59,-0.12 1.14,-0.27 1.65,-0.47 l 0.71,3.25 c -0.75,0.32 -1.66,0.57 -2.74,0.77 -1.08,0.2 -2.02,0.29 -2.8,0.29 -1.85,0 -3.3,-0.52 -4.37,-1.56 -1.06,-1.04 -1.59,-2.51 -1.59,-4.4 z"
         id="path88" />
      <path
         class="cls-2"
         d="m 1728.54,399.51 c -2.24,0 -4.3,-0.42 -6.17,-1.27 -1.87,-0.84 -3.49,-2.01 -4.87,-3.48 -1.38,-1.48 -2.45,-3.18 -3.22,-5.1 -0.77,-1.93 -1.15,-3.99 -1.15,-6.2 0,-2.21 0.38,-4.2 1.15,-6.11 0.77,-1.91 1.83,-3.58 3.19,-5.01 1.36,-1.44 2.98,-2.58 4.87,-3.42 1.89,-0.84 3.93,-1.27 6.14,-1.27 2.21,0 4.3,0.42 6.17,1.27 1.87,0.85 3.47,2 4.81,3.45 1.34,1.46 2.38,3.13 3.13,5.01 0.75,1.89 1.12,3.89 1.12,6.02 v 0.94 c 0,0.32 -0.02,0.53 -0.06,0.65 h -26.31 c 0.12,1.65 0.5,3.18 1.15,4.57 0.65,1.4 1.48,2.61 2.51,3.63 1.02,1.02 2.19,1.82 3.51,2.39 1.32,0.57 2.72,0.86 4.22,0.86 0.98,0 1.97,-0.14 2.95,-0.41 0.98,-0.28 1.89,-0.65 2.71,-1.12 0.83,-0.47 1.57,-1.05 2.24,-1.74 0.67,-0.69 1.18,-1.45 1.53,-2.27 l 3.48,0.94 c -0.47,1.14 -1.14,2.17 -2.01,3.1 -0.87,0.92 -1.87,1.73 -3.01,2.42 -1.14,0.69 -2.4,1.22 -3.78,1.59 -1.38,0.37 -2.81,0.56 -4.31,0.56 z m 11.33,-17.58 c -0.12,-1.65 -0.5,-3.16 -1.15,-4.51 -0.65,-1.36 -1.48,-2.53 -2.48,-3.51 -1,-0.98 -2.16,-1.75 -3.48,-2.3 -1.32,-0.55 -2.72,-0.83 -4.22,-0.83 -1.5,0 -2.91,0.28 -4.25,0.83 -1.34,0.55 -2.51,1.32 -3.51,2.3 -1,0.98 -1.81,2.16 -2.42,3.54 -0.61,1.38 -0.97,2.87 -1.09,4.48 z"
         id="path90" />
    </g>
    <g
       id="g128"
       transform="translate(-7.39)">
      <path
         class="cls-1"
         d="m 988.53,171.64 v -53.25 h 10.35 v 44.17 h 27.15 v 9.08 z"
         id="path94" />
      <path
         class="cls-1"
         d="m 1042.08,172.39 c -1.9,0 -3.67,-0.31 -5.33,-0.94 -1.65,-0.62 -3.07,-1.5 -4.27,-2.62 -1.2,-1.12 -2.14,-2.44 -2.81,-3.94 -0.67,-1.5 -1.01,-3.15 -1.01,-4.95 0,-1.8 0.41,-3.56 1.24,-5.14 0.83,-1.58 1.97,-2.91 3.45,-4.01 1.47,-1.1 3.24,-1.96 5.29,-2.59 2.05,-0.62 4.3,-0.94 6.75,-0.94 1.75,0 3.46,0.15 5.14,0.45 1.67,0.3 3.16,0.73 4.46,1.27 v -2.25 c 0,-2.6 -0.74,-4.6 -2.21,-6 -1.48,-1.4 -3.66,-2.1 -6.56,-2.1 -2.1,0 -4.15,0.38 -6.15,1.12 -2,0.75 -4.05,1.85 -6.15,3.3 l -3.08,-6.38 c 5.05,-3.35 10.5,-5.02 16.35,-5.02 5.85,0 10.04,1.39 13.16,4.16 3.12,2.77 4.69,6.79 4.69,12.04 v 12.23 c 0,1.05 0.19,1.8 0.56,2.25 0.38,0.45 0.99,0.7 1.84,0.75 v 8.55 c -1.7,0.35 -3.18,0.52 -4.43,0.52 -1.9,0 -3.36,-0.43 -4.39,-1.27 -1.03,-0.85 -1.66,-1.97 -1.91,-3.38 l -0.22,-2.17 c -1.75,2.3 -3.88,4.05 -6.38,5.25 -2.5,1.2 -5.17,1.8 -8.03,1.8 z m 2.85,-7.35 c 1.7,0 3.31,-0.3 4.84,-0.9 1.52,-0.6 2.71,-1.4 3.56,-2.4 1.1,-0.85 1.65,-1.8 1.65,-2.85 v -4.5 c -1.2,-0.45 -2.5,-0.81 -3.9,-1.09 -1.4,-0.27 -2.75,-0.41 -4.05,-0.41 -2.6,0 -4.72,0.59 -6.38,1.76 -1.65,1.18 -2.47,2.66 -2.47,4.46 0,1.7 0.65,3.11 1.95,4.24 1.3,1.12 2.9,1.69 4.8,1.69 z"
         id="path96" />
      <path
         class="cls-1"
         d="m 1125.11,132.34 c -0.35,-0.35 -0.99,-0.83 -1.91,-1.43 -0.93,-0.6 -2.05,-1.19 -3.38,-1.76 -1.33,-0.57 -2.76,-1.06 -4.31,-1.46 -1.55,-0.4 -3.12,-0.6 -4.72,-0.6 -2.85,0 -4.98,0.52 -6.38,1.57 -1.4,1.05 -2.1,2.53 -2.1,4.43 0,1.1 0.26,2.01 0.79,2.74 0.52,0.73 1.29,1.36 2.29,1.91 1,0.55 2.26,1.05 3.79,1.5 1.52,0.45 3.29,0.93 5.29,1.42 2.6,0.7 4.96,1.45 7.09,2.25 2.12,0.8 3.92,1.8 5.4,3 1.47,1.2 2.61,2.64 3.41,4.31 0.8,1.68 1.2,3.74 1.2,6.19 0,2.85 -0.54,5.29 -1.61,7.31 -1.07,2.02 -2.53,3.66 -4.35,4.91 -1.83,1.25 -3.93,2.16 -6.3,2.74 -2.38,0.57 -4.86,0.86 -7.46,0.86 -4,0 -7.95,-0.6 -11.85,-1.8 -3.9,-1.2 -7.4,-2.9 -10.5,-5.1 l 4.57,-8.93 c 0.45,0.45 1.26,1.04 2.44,1.76 1.17,0.73 2.56,1.45 4.16,2.17 1.6,0.73 3.38,1.34 5.33,1.84 1.95,0.5 3.95,0.75 6,0.75 5.7,0 8.55,-1.82 8.55,-5.47 0,-1.15 -0.33,-2.12 -0.98,-2.93 -0.65,-0.8 -1.57,-1.5 -2.77,-2.1 -1.2,-0.6 -2.65,-1.15 -4.35,-1.65 -1.7,-0.5 -3.6,-1.05 -5.7,-1.65 -2.55,-0.7 -4.76,-1.46 -6.64,-2.29 -1.88,-0.82 -3.44,-1.8 -4.69,-2.92 -1.25,-1.12 -2.19,-2.42 -2.81,-3.9 -0.63,-1.47 -0.94,-3.24 -0.94,-5.29 0,-2.7 0.5,-5.1 1.5,-7.2 1,-2.1 2.39,-3.85 4.16,-5.25 1.77,-1.4 3.84,-2.46 6.19,-3.19 2.35,-0.72 4.88,-1.09 7.58,-1.09 3.75,0 7.2,0.59 10.35,1.76 3.15,1.18 5.9,2.56 8.25,4.16 l -4.57,8.4 z"
         id="path98" />
      <path
         class="cls-1"
         d="m 1156.53,172.39 c -3.2,0 -6.07,-0.55 -8.62,-1.65 -2.55,-1.1 -4.71,-2.59 -6.49,-4.46 -1.78,-1.88 -3.14,-4.04 -4.09,-6.49 -0.95,-2.45 -1.43,-5.02 -1.43,-7.73 0,-2.71 0.47,-5.35 1.43,-7.8 0.95,-2.45 2.31,-4.61 4.09,-6.49 1.77,-1.88 3.94,-3.36 6.49,-4.46 2.55,-1.1 5.42,-1.65 8.62,-1.65 3.2,0 6.06,0.55 8.59,1.65 2.52,1.1 4.67,2.59 6.45,4.46 1.77,1.88 3.14,4.04 4.09,6.49 0.95,2.45 1.43,5.05 1.43,7.8 0,2.75 -0.48,5.28 -1.43,7.73 -0.95,2.45 -2.3,4.61 -4.05,6.49 -1.75,1.88 -3.9,3.36 -6.45,4.46 -2.55,1.1 -5.43,1.65 -8.62,1.65 z m -10.27,-20.33 c 0,1.75 0.26,3.34 0.79,4.76 0.53,1.42 1.25,2.66 2.17,3.71 0.92,1.05 2.01,1.86 3.26,2.44 1.25,0.58 2.6,0.86 4.05,0.86 1.45,0 2.8,-0.29 4.05,-0.86 1.25,-0.57 2.34,-1.39 3.26,-2.44 0.92,-1.05 1.65,-2.3 2.18,-3.75 0.52,-1.45 0.79,-3.05 0.79,-4.8 0,-1.75 -0.26,-3.27 -0.79,-4.73 -0.53,-1.45 -1.25,-2.7 -2.18,-3.75 -0.93,-1.05 -2.01,-1.86 -3.26,-2.44 -1.25,-0.57 -2.6,-0.86 -4.05,-0.86 -1.45,0 -2.8,0.3 -4.05,0.9 -1.25,0.6 -2.34,1.42 -3.26,2.48 -0.93,1.05 -1.65,2.3 -2.17,3.75 -0.52,1.45 -0.79,3.03 -0.79,4.72 z"
         id="path100" />
      <path
         class="cls-1"
         d="m 1181.35,151.99 c 0,-2.75 0.47,-5.35 1.43,-7.8 0.95,-2.45 2.32,-4.6 4.12,-6.45 1.8,-1.85 3.97,-3.32 6.52,-4.43 2.55,-1.1 5.42,-1.65 8.62,-1.65 4.3,0 7.96,0.93 10.99,2.77 3.03,1.85 5.29,4.28 6.79,7.28 l -9.83,3 c -0.85,-1.45 -1.98,-2.56 -3.38,-3.34 -1.4,-0.77 -2.95,-1.16 -4.65,-1.16 -1.45,0 -2.8,0.29 -4.05,0.86 -1.25,0.58 -2.34,1.38 -3.26,2.4 -0.93,1.03 -1.65,2.26 -2.17,3.71 -0.52,1.45 -0.79,3.05 -0.79,4.8 0,1.75 0.27,3.35 0.83,4.8 0.55,1.45 1.29,2.7 2.21,3.75 0.92,1.05 2.01,1.86 3.26,2.44 1.25,0.58 2.57,0.86 3.97,0.86 1.8,0 3.46,-0.45 4.99,-1.35 1.52,-0.9 2.59,-2 3.19,-3.3 l 9.82,3 c -1.35,3 -3.58,5.45 -6.67,7.35 -3.1,1.9 -6.83,2.85 -11.17,2.85 -3.2,0 -6.08,-0.55 -8.62,-1.65 -2.54,-1.1 -4.72,-2.59 -6.53,-4.46 -1.8,-1.88 -3.19,-4.05 -4.16,-6.53 -0.97,-2.47 -1.46,-5.06 -1.46,-7.76 z"
         id="path102" />
      <path
         class="cls-1"
         d="m 1226.13,126.86 v -9.98 h 10.05 v 9.98 z m 0,44.77 v -39.3 h 10.05 v 39.3 z"
         id="path104" />
      <path
         class="cls-1"
         d="m 1263.48,172.39 c -3.15,0 -6,-0.54 -8.55,-1.61 -2.55,-1.07 -4.72,-2.54 -6.53,-4.39 -1.8,-1.85 -3.19,-4 -4.16,-6.45 -0.97,-2.45 -1.46,-5.02 -1.46,-7.72 0,-2.7 0.47,-5.44 1.43,-7.91 0.95,-2.48 2.32,-4.65 4.12,-6.52 1.8,-1.88 3.99,-3.36 6.56,-4.46 2.57,-1.1 5.46,-1.65 8.66,-1.65 3.2,0 6.06,0.55 8.59,1.65 2.52,1.1 4.67,2.58 6.45,4.43 1.77,1.85 3.12,4 4.05,6.45 0.92,2.45 1.39,5 1.39,7.65 0,0.65 -0.01,1.27 -0.04,1.88 -0.03,0.6 -0.09,1.1 -0.19,1.5 h -30.38 c 0.15,1.55 0.53,2.92 1.12,4.12 0.6,1.2 1.38,2.23 2.33,3.07 0.95,0.85 2.02,1.5 3.22,1.95 1.2,0.45 2.45,0.67 3.75,0.67 2,0 3.89,-0.49 5.66,-1.46 1.77,-0.98 2.99,-2.26 3.64,-3.86 l 8.62,2.4 c -1.45,3 -3.76,5.46 -6.94,7.39 -3.18,1.93 -6.96,2.89 -11.36,2.89 z m 10.2,-23.7 c -0.25,-2.95 -1.34,-5.31 -3.26,-7.09 -1.92,-1.77 -4.26,-2.66 -7.01,-2.66 -1.35,0 -2.61,0.24 -3.79,0.71 -1.18,0.48 -2.21,1.14 -3.11,1.99 -0.9,0.85 -1.64,1.88 -2.21,3.08 -0.58,1.2 -0.91,2.53 -1.01,3.97 h 20.4 z m -7.72,-20.92 -6.45,-1.95 4.05,-8.92 h 9.38 l -6.97,10.88 z"
         id="path106" />
      <path
         class="cls-1"
         d="m 1313.43,169.61 c -1.35,0.6 -3,1.2 -4.95,1.8 -1.95,0.6 -4,0.9 -6.15,0.9 -1.4,0 -2.71,-0.18 -3.94,-0.52 -1.23,-0.35 -2.3,-0.91 -3.23,-1.69 -0.93,-0.77 -1.66,-1.77 -2.21,-3 -0.55,-1.22 -0.83,-2.71 -0.83,-4.46 v -22.58 h -5.17 v -7.72 h 5.17 v -12.75 h 10.05 v 12.75 h 8.25 v 7.72 h -8.25 v 19.2 c 0,1.4 0.36,2.39 1.09,2.96 0.72,0.58 1.61,0.86 2.66,0.86 1.05,0 2.07,-0.17 3.08,-0.53 1,-0.35 1.8,-0.65 2.4,-0.9 l 2.03,7.95 z"
         id="path108" />
      <path
         class="cls-1"
         d="m 1335.93,172.39 c -3.15,0 -6,-0.54 -8.55,-1.61 -2.55,-1.07 -4.72,-2.54 -6.53,-4.39 -1.8,-1.85 -3.19,-4 -4.16,-6.45 -0.97,-2.45 -1.46,-5.02 -1.46,-7.72 0,-2.7 0.47,-5.44 1.43,-7.91 0.95,-2.48 2.32,-4.65 4.12,-6.52 1.8,-1.88 3.99,-3.36 6.56,-4.46 2.57,-1.1 5.46,-1.65 8.66,-1.65 3.2,0 6.06,0.55 8.59,1.65 2.52,1.1 4.67,2.58 6.45,4.43 1.77,1.85 3.12,4 4.05,6.45 0.92,2.45 1.39,5 1.39,7.65 0,0.65 -0.01,1.27 -0.04,1.88 -0.03,0.6 -0.09,1.1 -0.19,1.5 h -30.38 c 0.15,1.55 0.53,2.92 1.12,4.12 0.6,1.2 1.38,2.23 2.33,3.07 0.95,0.85 2.02,1.5 3.22,1.95 1.2,0.45 2.45,0.67 3.75,0.67 2,0 3.89,-0.49 5.66,-1.46 1.77,-0.98 2.99,-2.26 3.64,-3.86 l 8.62,2.4 c -1.45,3 -3.76,5.46 -6.94,7.39 -3.18,1.93 -6.96,2.89 -11.36,2.89 z m 10.2,-23.7 c -0.25,-2.95 -1.34,-5.31 -3.26,-7.09 -1.92,-1.77 -4.26,-2.66 -7.01,-2.66 -1.35,0 -2.61,0.24 -3.79,0.71 -1.18,0.48 -2.21,1.14 -3.11,1.99 -0.9,0.85 -1.64,1.88 -2.21,3.08 -0.58,1.2 -0.91,2.53 -1.01,3.97 h 20.4 z m -7.72,-20.92 -6.45,-1.95 4.05,-8.92 h 9.38 l -6.97,10.88 z"
         id="path110" />
      <path
         class="cls-1"
         d="m 1391.95,137.51 v 34.12 h -10.35 v -53.25 h 8.03 l 27.75,34.95 v -34.88 h 10.35 v 53.17 h -8.4 l -27.38,-34.12 z"
         id="path112" />
      <path
         class="cls-1"
         d="m 1455.48,172.39 c -3.2,0 -6.07,-0.55 -8.62,-1.65 -2.55,-1.1 -4.71,-2.59 -6.49,-4.46 -1.78,-1.88 -3.14,-4.04 -4.09,-6.49 -0.95,-2.45 -1.43,-5.02 -1.43,-7.73 0,-2.71 0.47,-5.35 1.43,-7.8 0.95,-2.45 2.31,-4.61 4.09,-6.49 1.77,-1.88 3.94,-3.36 6.49,-4.46 2.55,-1.1 5.42,-1.65 8.62,-1.65 3.2,0 6.06,0.55 8.59,1.65 2.52,1.1 4.67,2.59 6.45,4.46 1.77,1.88 3.14,4.04 4.09,6.49 0.95,2.45 1.43,5.05 1.43,7.8 0,2.75 -0.48,5.28 -1.43,7.73 -0.95,2.45 -2.3,4.61 -4.05,6.49 -1.75,1.88 -3.9,3.36 -6.45,4.46 -2.55,1.1 -5.43,1.65 -8.62,1.65 z m -10.27,-20.33 c 0,1.75 0.26,3.34 0.79,4.76 0.53,1.42 1.25,2.66 2.17,3.71 0.92,1.05 2.01,1.86 3.26,2.44 1.25,0.58 2.6,0.86 4.05,0.86 1.45,0 2.8,-0.29 4.05,-0.86 1.25,-0.57 2.34,-1.39 3.26,-2.44 0.92,-1.05 1.65,-2.3 2.18,-3.75 0.52,-1.45 0.79,-3.05 0.79,-4.8 0,-1.75 -0.26,-3.27 -0.79,-4.73 -0.53,-1.45 -1.25,-2.7 -2.18,-3.75 -0.93,-1.05 -2.01,-1.86 -3.26,-2.44 -1.25,-0.57 -2.6,-0.86 -4.05,-0.86 -1.45,0 -2.8,0.3 -4.05,0.9 -1.25,0.6 -2.34,1.42 -3.26,2.48 -0.93,1.05 -1.65,2.3 -2.17,3.75 -0.52,1.45 -0.79,3.03 -0.79,4.72 z"
         id="path114" />
      <path
         class="cls-1"
         d="m 1494.78,172.39 c -4.05,0 -7.12,-1.3 -9.23,-3.9 -2.1,-2.6 -3.15,-6.45 -3.15,-11.55 v -24.6 h 10.05 v 22.42 c 0,6.05 2.17,9.08 6.53,9.08 1.95,0 3.84,-0.59 5.66,-1.76 1.82,-1.17 3.31,-2.96 4.46,-5.36 v -24.38 h 10.05 v 27.75 c 0,1.05 0.19,1.8 0.56,2.25 0.38,0.45 0.99,0.7 1.84,0.75 v 8.55 c -1,0.2 -1.84,0.32 -2.51,0.38 -0.68,0.05 -1.29,0.08 -1.84,0.08 -1.8,0 -3.26,-0.41 -4.39,-1.24 -1.12,-0.82 -1.79,-1.96 -1.99,-3.41 l -0.22,-3.15 c -1.75,2.7 -4,4.73 -6.75,6.08 -2.75,1.35 -5.78,2.02 -9.08,2.02 z"
         id="path116" />
      <path
         class="cls-1"
         d="m 1539.7,171.64 -14.48,-39.3 h 10.35 l 9.97,31.12 10.05,-31.12 h 9.45 l -14.47,39.3 h -10.88 z"
         id="path118" />
      <path
         class="cls-1"
         d="m 1587.18,172.39 c -3.15,0 -6,-0.54 -8.55,-1.61 -2.55,-1.07 -4.72,-2.54 -6.53,-4.39 -1.8,-1.85 -3.19,-4 -4.16,-6.45 -0.97,-2.45 -1.46,-5.02 -1.46,-7.72 0,-2.7 0.47,-5.44 1.43,-7.91 0.95,-2.48 2.32,-4.65 4.12,-6.52 1.8,-1.88 3.99,-3.36 6.56,-4.46 2.57,-1.1 5.46,-1.65 8.66,-1.65 3.2,0 6.06,0.55 8.59,1.65 2.52,1.1 4.67,2.58 6.45,4.43 1.77,1.85 3.12,4 4.05,6.45 0.92,2.45 1.39,5 1.39,7.65 0,0.65 -0.01,1.27 -0.04,1.88 -0.03,0.6 -0.09,1.1 -0.19,1.5 h -30.38 c 0.15,1.55 0.53,2.92 1.12,4.12 0.6,1.2 1.38,2.23 2.33,3.07 0.95,0.85 2.02,1.5 3.22,1.95 1.2,0.45 2.45,0.67 3.75,0.67 2,0 3.89,-0.49 5.66,-1.46 1.77,-0.98 2.99,-2.26 3.64,-3.86 l 8.62,2.4 c -1.45,3 -3.76,5.46 -6.94,7.39 -3.18,1.93 -6.96,2.89 -11.36,2.89 z m 10.2,-23.7 c -0.25,-2.95 -1.34,-5.31 -3.26,-7.09 -1.92,-1.77 -4.26,-2.66 -7.01,-2.66 -1.35,0 -2.61,0.24 -3.79,0.71 -1.18,0.48 -2.21,1.14 -3.11,1.99 -0.9,0.85 -1.64,1.88 -2.21,3.08 -0.58,1.2 -0.91,2.53 -1.01,3.97 h 20.4 z"
         id="path120" />
      <path
         class="cls-1"
         d="m 1613.8,116.89 h 10.05 v 42.15 c 0,1.45 0.35,2.58 1.05,3.38 0.7,0.8 1.7,1.2 3,1.2 0.6,0 1.26,-0.1 1.99,-0.3 0.72,-0.2 1.41,-0.45 2.06,-0.75 l 1.35,7.65 c -1.35,0.65 -2.92,1.15 -4.72,1.5 -1.8,0.35 -3.43,0.52 -4.88,0.52 -3.15,0 -5.59,-0.84 -7.31,-2.51 -1.73,-1.67 -2.59,-4.06 -2.59,-7.16 V 116.9 Z"
         id="path122" />
      <path
         class="cls-1"
         d="m 1637.58,116.89 h 10.05 v 42.15 c 0,1.45 0.35,2.58 1.05,3.38 0.7,0.8 1.7,1.2 3,1.2 0.6,0 1.26,-0.1 1.99,-0.3 0.72,-0.2 1.41,-0.45 2.06,-0.75 l 1.35,7.65 c -1.35,0.65 -2.92,1.15 -4.72,1.5 -1.8,0.35 -3.43,0.52 -4.88,0.52 -3.15,0 -5.59,-0.84 -7.31,-2.51 -1.73,-1.67 -2.59,-4.06 -2.59,-7.16 V 116.9 Z"
         id="path124" />
      <path
         class="cls-1"
         d="m 1679.65,172.39 c -3.15,0 -6,-0.54 -8.55,-1.61 -2.55,-1.07 -4.72,-2.54 -6.53,-4.39 -1.8,-1.85 -3.19,-4 -4.16,-6.45 -0.97,-2.45 -1.46,-5.02 -1.46,-7.72 0,-2.7 0.47,-5.44 1.43,-7.91 0.95,-2.48 2.32,-4.65 4.12,-6.52 1.8,-1.88 3.99,-3.36 6.56,-4.46 2.57,-1.1 5.46,-1.65 8.66,-1.65 3.2,0 6.06,0.55 8.59,1.65 2.52,1.1 4.67,2.58 6.45,4.43 1.77,1.85 3.12,4 4.05,6.45 0.92,2.45 1.39,5 1.39,7.65 0,0.65 -0.01,1.27 -0.04,1.88 -0.03,0.6 -0.09,1.1 -0.19,1.5 h -30.38 c 0.15,1.55 0.53,2.92 1.12,4.12 0.6,1.2 1.38,2.23 2.33,3.07 0.95,0.85 2.02,1.5 3.22,1.95 1.2,0.45 2.45,0.67 3.75,0.67 2,0 3.89,-0.49 5.66,-1.46 1.77,-0.98 2.99,-2.26 3.64,-3.86 l 8.62,2.4 c -1.45,3 -3.76,5.46 -6.94,7.39 -3.18,1.93 -6.96,2.89 -11.36,2.89 z m 10.2,-23.7 c -0.25,-2.95 -1.34,-5.31 -3.26,-7.09 -1.92,-1.77 -4.26,-2.66 -7.01,-2.66 -1.35,0 -2.61,0.24 -3.79,0.71 -1.18,0.48 -2.21,1.14 -3.11,1.99 -0.9,0.85 -1.64,1.88 -2.21,3.08 -0.58,1.2 -0.91,2.53 -1.01,3.97 h 20.4 z"
         id="path126" />
    </g>
  </g>
</svg>
