<svg width="421" height="142" viewBox="0 0 421 142" fill="none" xmlns="http://www.w3.org/2000/svg">
<g clip-path="url(#clip0_2100_2131)">
<path d="M194.8 29.1H177.4C175.7 27.2 174.9 24.8 174.9 22C174.9 18.8 176 16.2 178.1 14C180.3 11.8 182.9 10.8 186.1 10.8C189.3 10.8 191.9 11.9 194.1 14C196.3 16.2 197.3 18.8 197.3 22C197.3 24.8 196.5 27.2 194.8 29.1ZM176.6 100.2V37.9H195.4V100.2H176.6V100.2Z" fill="#21145F"/>
<path d="M206.5 100.2L247.5 31.5H211.8V11.8H281.5L240.5 80.5H278.9V100.2H206.5Z" fill="#21145F"/>
<path d="M288.1 100.2L317 54.1H291.8V37.9H348.3L319.5 83.8H346.4V100.1H288.1V100.2Z" fill="#21145F"/>
<path d="M368.8 123.1L377.3 100.2L354.4 37.9H374.3L387.3 77.4L400.2 37.9H420.1L388.7 123.1H368.8Z" fill="#21145F"/>
<path d="M176.5 109H178.5V122.6H176.5V109Z" fill="#21145F"/>
<path d="M184.9 113.3C186.2 113.3 187.3 114 187.8 114.7V113.5H189.8V122.6H187.8V121.4C187.3 122.1 186.2 122.8 184.9 122.8C182.4 122.8 180.5 120.7 180.5 118.1C180.5 115.5 182.4 113.3 184.9 113.3ZM185.2 115.1C183.6 115.1 182.5 116.4 182.5 118C182.5 119.6 183.6 120.9 185.2 120.9C186.8 120.9 187.9 119.6 187.9 118C187.9 116.4 186.9 115.1 185.2 115.1Z" fill="#21145F"/>
<path d="M199.7 122.8C198.1 122.8 196.7 122.2 196 120.9L197.5 119.8C197.9 120.6 198.8 121.1 199.7 121.1C200.4 121.1 201 120.8 201 120.1C201 119.6 200.7 119.3 199.6 118.9L198.8 118.7C197.2 118.3 196.4 117.3 196.4 115.9C196.4 114.3 197.8 113.3 199.7 113.3C201.1 113.3 202.1 113.8 202.8 114.8L201.4 115.9C201 115.3 200.4 115 199.7 115C199.1 115 198.5 115.3 198.5 115.9C198.5 116.3 198.7 116.7 199.6 117L200.5 117.3C202.1 117.8 203 118.6 203 120.1C203 121.7 201.6 122.8 199.7 122.8Z" fill="#21145F"/>
<path d="M209.2 122.8C206.5 122.8 204.4 120.7 204.4 118.1C204.4 115.5 206.5 113.4 209.2 113.4C211.9 113.4 214 115.5 214 118.1C214 120.7 211.9 122.8 209.2 122.8ZM209.2 120.9C210.8 120.9 211.9 119.6 211.9 118C211.9 116.4 210.8 115.1 209.2 115.1C207.6 115.1 206.5 116.4 206.5 118C206.5 119.6 207.5 120.9 209.2 120.9Z" fill="#21145F"/>
<path d="M216 109H218V122.6H216V109Z" fill="#21145F"/>
<path d="M220.5 113.5H222.5V118.6C222.5 120.1 223.2 120.9 224.3 120.9C225.6 120.9 226.5 119.9 226.5 117.9V113.4H228.5V122.5H226.5V121.3C226 122.2 225 122.7 223.8 122.7C221.7 122.7 220.4 121.2 220.4 118.9V113.5H220.5Z" fill="#21145F"/>
<path d="M235.2 122.7C233.5 122.7 232.1 121.7 232.1 119.7V115.3H230.2V113.5H232.1V111H234.1V113.5H236.7V115.3H234.1V119.4C234.1 120.5 234.6 120.9 235.6 120.9C236 120.9 236.4 120.8 236.7 120.7V122.5C236.3 122.6 235.8 122.7 235.2 122.7Z" fill="#21145F"/>
<path d="M240.5 111.8H238.6C238.4 111.6 238.3 111.3 238.3 110.9C238.3 110.5 238.4 110.2 238.7 110C239 109.8 239.3 109.6 239.6 109.6C240 109.6 240.3 109.7 240.5 110C240.7 110.3 240.9 110.6 240.9 110.9C240.9 111.2 240.7 111.5 240.5 111.8ZM238.5 122.6V113.5H240.5V122.6H238.5Z" fill="#21145F"/>
<path d="M247.3 122.8C244.6 122.8 242.5 120.7 242.5 118.1C242.5 115.5 244.6 113.4 247.3 113.4C250 113.4 252.1 115.5 252.1 118.1C252.1 120.7 249.9 122.8 247.3 122.8ZM247.3 120.9C248.9 120.9 250 119.6 250 118C250 116.4 248.9 115.1 247.3 115.1C245.7 115.1 244.6 116.4 244.6 118C244.6 119.6 245.6 120.9 247.3 120.9Z" fill="#21145F"/>
<path d="M254 113.5H256V114.7C256.5 113.8 257.6 113.3 258.8 113.3C260.9 113.3 262.3 114.8 262.3 117.1V122.6H260.3V117.5C260.3 116.1 259.6 115.2 258.4 115.2C257.1 115.2 256.1 116.2 256.1 118.2V122.7H254.1V113.5H254Z" fill="#21145F"/>
<path d="M272.9 113.3C274.2 113.3 275.3 114 275.8 114.7V109H277.8V122.6H275.8V121.4C275.3 122.1 274.2 122.8 272.9 122.8C270.4 122.8 268.5 120.7 268.5 118.1C268.5 115.5 270.4 113.3 272.9 113.3ZM273.2 115.1C271.6 115.1 270.5 116.4 270.5 118C270.5 119.6 271.6 120.9 273.2 120.9C274.8 120.9 275.9 119.6 275.9 118C275.9 116.4 274.8 115.1 273.2 115.1Z" fill="#21145F"/>
<path d="M282.4 111.8H280.5C280.3 111.6 280.2 111.3 280.2 110.9C280.2 110.5 280.3 110.2 280.6 110C280.9 109.8 281.2 109.6 281.5 109.6C281.9 109.6 282.2 109.7 282.4 110C282.6 110.3 282.8 110.6 282.8 110.9C282.8 111.2 282.6 111.5 282.4 111.8ZM280.4 122.6V113.5H282.4V122.6H280.4Z" fill="#21145F"/>
<path d="M289 126.6C287.2 126.6 285.6 125.9 284.7 124.9L285.9 123.5C286.7 124.3 287.7 124.8 288.9 124.8C290.4 124.8 291.6 123.8 291.6 122V121.2C291.1 122 289.9 122.6 288.7 122.6C286.2 122.6 284.3 120.6 284.3 118C284.3 115.4 286.2 113.4 288.7 113.4C290 113.4 291.1 114 291.6 114.8V113.6H293.6V122.1C293.7 125.2 291.6 126.6 289 126.6ZM289.1 120.7C290.6 120.7 291.8 119.5 291.8 117.9C291.8 116.3 290.6 115.1 289.1 115.1C287.6 115.1 286.4 116.3 286.4 117.9C286.4 119.6 287.6 120.7 289.1 120.7Z" fill="#21145F"/>
<path d="M298.3 111.8H296.4C296.2 111.6 296.1 111.3 296.1 110.9C296.1 110.5 296.2 110.2 296.5 110C296.8 109.8 297.1 109.6 297.4 109.6C297.8 109.6 298.1 109.7 298.3 110C298.5 110.3 298.7 110.6 298.7 110.9C298.7 111.2 298.5 111.5 298.3 111.8ZM296.3 122.6V113.5H298.3V122.6H296.3Z" fill="#21145F"/>
<path d="M304.9 122.7C303.2 122.7 301.8 121.7 301.8 119.7V115.3H299.9V113.5H301.8V111H303.8V113.5H306.4V115.3H303.8V119.4C303.8 120.5 304.3 120.9 305.3 120.9C305.7 120.9 306.1 120.8 306.4 120.7V122.5C306 122.6 305.5 122.7 304.9 122.7Z" fill="#21145F"/>
<path d="M311.9 113.3C313.2 113.3 314.3 114 314.8 114.7V113.5H316.8V122.6H314.8V121.4C314.3 122.1 313.2 122.8 311.9 122.8C309.4 122.8 307.5 120.7 307.5 118.1C307.5 115.5 309.4 113.3 311.9 113.3ZM312.2 115.1C310.6 115.1 309.5 116.4 309.5 118C309.5 119.6 310.6 120.9 312.2 120.9C313.8 120.9 314.9 119.6 314.9 118C314.9 116.4 313.9 115.1 312.2 115.1Z" fill="#21145F"/>
<path d="M319.5 109H321.5V122.6H319.5V109Z" fill="#21145F"/>
<path d="M328.3 113.3C330.7 113.3 332.7 114.9 332.7 117.8C332.7 118 332.7 118.2 332.7 118.5H325.5C325.6 120 326.8 121 328.3 121C329.6 121 330.4 120.4 330.9 119.6L332.4 120.7C331.6 122 330.2 122.8 328.3 122.8C325.5 122.8 323.6 120.8 323.6 118.1C323.6 115.4 325.5 113.3 328.3 113.3ZM325.6 117H330.7C330.5 115.7 329.4 115 328.3 115C327.1 115 325.9 115.7 325.6 117Z" fill="#21145F"/>
<path d="M340.3 116C340.3 112.2 343.4 109.1 347.2 109.1C349.5 109.1 351.6 110.3 352.8 112L350.5 113.9C349.8 112.8 348.6 112 347.2 112C345 112 343.4 113.8 343.4 116C343.4 118.2 345 120 347.2 120C348.6 120 349.9 119.2 350.5 118.1L352.8 120C351.6 121.8 349.5 122.9 347.2 122.9C343.4 122.9 340.3 119.8 340.3 116Z" fill="#21145F"/>
<path d="M355 109.3H363V112.3H358.1V114.6H361.9V117.5H358.1V122.8H355.1V109.3H355Z" fill="#21145F"/>
<path d="M105.8 50.6C107.9 54.4 108.3 55.1 109.6 59.3C110.5 62.6 111.1 65.2 111.1 67.2C111.2 69.4 111.2 71.5 111.1 73.6C111.1 74.3 110.6 78.4 111.1 75.1C110.7 77.8 110.1 80.5 109.2 83.2C109 83.8 106.9 89 108.3 85.9C107.7 87.1 107.1 88.3 106.5 89.5C105.2 91.9 103.8 94.1 102.2 96.3C104.2 93.6 100.7 97.9 100.3 98.3C99.4 99.3 98.4 100.2 97.4 101.1C97.2 101.3 93.8 104.1 96.4 102.1C95.2 103 93.9 103.9 92.5 104.7C91.2 105.5 89.8 106.3 88.4 107C87.8 107.3 84.1 108.9 87.1 107.7C84.3 108.8 81.5 109.7 78.6 110.3C77.9 110.5 73.1 111 76.5 110.7C75.1 110.8 73.7 110.9 72.2 111C70.7 111 69.1 111 67.6 110.9C66.6 110.8 65.5 110.8 64.5 110.6C65.7 110.8 65.8 110.8 64.7 110.6C61.4 110 58.3 109.1 55.1 107.9C57.6 108.8 53.8 107.3 53.3 107C51.7 106.2 50.2 105.3 48.8 104.4C48.3 104.1 44.4 101.2 46.5 102.9C45.3 102 44.2 101 43.2 99.9C42.1 98.9 41.1 97.8 40.1 96.7C39.4 96 38.8 95.2 38.2 94.4C39.1 95.5 39 95.4 38 93.9C33.3 87.1 24.6 84 17 88.4C10.3 92.3 6.7 102.5 11.5 109.4C28.6 134 58 146.4 87.6 139.6C113.2 133.7 134.6 112.2 140.2 86.5C144.1 68.8 141.3 50.6 132.4 34.8C128.4 27.6 118.5 25.2 111.4 29.3C104 33.9 101.7 43.3 105.8 50.6Z" fill="url(#paint0_linear_2100_2131)"/>
<path d="M35.9 91.1C33.8 87.3 33.4 86.6 32.1 82.4C31.2 79.1 30.6 76.5 30.6 74.5C30.5 72.3 30.5 70.2 30.6 68.1C30.6 67.4 31.1 63.3 30.6 66.6C31 63.9 31.6 61.2 32.5 58.5C32.7 57.9 34.8 52.7 33.4 55.8C34 54.6 34.6 53.4 35.2 52.2C36.5 49.8 37.9 47.6 39.5 45.4C37.5 48.1 41 43.8 41.4 43.4C42.3 42.4 43.3 41.5 44.3 40.6C44.5 40.4 47.9 37.6 45.3 39.6C46.5 38.7 47.8 37.8 49.2 37C50.5 36.2 51.9 35.4 53.3 34.7C53.9 34.4 57.6 32.8 54.6 34C57.4 32.9 60.2 32 63.1 31.4C63.8 31.2 68.6 30.7 65.2 31C66.6 30.9 68 30.8 69.5 30.7C71 30.7 72.6 30.7 74.1 30.8C75.1 30.9 76.2 30.9 77.2 31.1C76 30.9 75.9 30.9 77 31.1C80.3 31.7 83.4 32.6 86.6 33.8C84.1 32.9 87.9 34.4 88.4 34.7C90 35.5 91.5 36.4 92.9 37.3C93.4 37.6 97.3 40.5 95.2 38.8C96.4 39.7 97.5 40.7 98.5 41.8C99.6 42.8 100.6 43.9 101.6 45C102.3 45.7 102.9 46.5 103.5 47.3C102.6 46.2 102.7 46.3 103.7 47.8C108.4 54.6 117.1 57.7 124.7 53.3C131.4 49.4 135 39.2 130.2 32.3C113.2 7.4 83.8 -5 54.3 1.9C28.7 7.8 7.3 29.3 1.7 55C-2.2 72.7 0.600001 90.9 9.5 106.7C13.5 113.9 23.4 116.3 30.5 112.2C37.7 107.9 40 98.4 35.9 91.1Z" fill="url(#paint1_linear_2100_2131)"/>
</g>
<defs>
<linearGradient id="paint0_linear_2100_2131" x1="135.7" y1="37.7875" x2="36.723" y2="136.764" gradientUnits="userSpaceOnUse">
<stop offset="0.1969" stop-color="#F2F2F2" stop-opacity="0"/>
<stop offset="0.2056" stop-color="#EDECEE" stop-opacity="0.0108386"/>
<stop offset="0.2872" stop-color="#BDBACD" stop-opacity="0.1125"/>
<stop offset="0.3728" stop-color="#938EAF" stop-opacity="0.2191"/>
<stop offset="0.4609" stop-color="#706897" stop-opacity="0.3288"/>
<stop offset="0.5521" stop-color="#534982" stop-opacity="0.4424"/>
<stop offset="0.6475" stop-color="#3D3273" stop-opacity="0.5611"/>
<stop offset="0.7487" stop-color="#2D2168" stop-opacity="0.6871"/>
<stop offset="0.8598" stop-color="#241761" stop-opacity="0.8255"/>
<stop offset="1" stop-color="#21145F"/>
</linearGradient>
<linearGradient id="paint1_linear_2100_2131" x1="6.0571" y1="103.945" x2="105.034" y2="4.9677" gradientUnits="userSpaceOnUse">
<stop offset="0.1969" stop-color="#F2F2F2" stop-opacity="0"/>
<stop offset="0.2056" stop-color="#EDECEE" stop-opacity="0.0108386"/>
<stop offset="0.2872" stop-color="#BDBACD" stop-opacity="0.1125"/>
<stop offset="0.3728" stop-color="#938EAF" stop-opacity="0.2191"/>
<stop offset="0.4609" stop-color="#706897" stop-opacity="0.3288"/>
<stop offset="0.5521" stop-color="#534982" stop-opacity="0.4424"/>
<stop offset="0.6475" stop-color="#3D3273" stop-opacity="0.5611"/>
<stop offset="0.7487" stop-color="#2D2168" stop-opacity="0.6871"/>
<stop offset="0.8598" stop-color="#241761" stop-opacity="0.8255"/>
<stop offset="1" stop-color="#21145F"/>
</linearGradient>
<clipPath id="clip0_2100_2131">
<rect width="420.1" height="141.7" fill="white"/>
</clipPath>
</defs>
</svg>
