<?xml version="1.0" encoding="UTF-8"?>
<svg xmlns="http://www.w3.org/2000/svg" id="Calque_1" data-name="Calque 1" viewBox="0 0 295.01 182.98">
  <defs>
    <style>
      .cls-1 {
        fill: #ee741b;
      }

      .cls-2 {
        fill: #1292b8;
      }
    </style>
  </defs>
  <g>
    <g>
      <path class="cls-2" d="M6.47,142.08c-2-1.19-3.58-2.81-4.73-4.85-1.16-2.04-1.74-4.29-1.74-6.73s.58-4.73,1.74-6.78c1.16-2.05,2.73-3.66,4.73-4.85,2-1.19,4.23-1.78,6.71-1.78s4.64,.59,6.59,1.78c1.95,1.19,3.47,2.8,4.57,4.83,1.09,2.03,1.64,4.3,1.64,6.8s-.55,4.72-1.64,6.75c-1.09,2.03-2.62,3.64-4.57,4.83-1.95,1.19-4.15,1.78-6.59,1.78s-4.71-.59-6.71-1.78Zm11.94-2.93c1.49-.89,2.66-2.08,3.52-3.59,.86-1.5,1.28-3.19,1.28-5.06s-.43-3.61-1.28-5.11c-.86-1.51-2.03-2.7-3.52-3.59-1.49-.89-3.14-1.33-4.95-1.33s-3.51,.45-5.02,1.33c-1.51,.89-2.69,2.08-3.54,3.59-.86,1.51-1.28,3.21-1.28,5.11s.43,3.56,1.28,5.06c.86,1.51,2.04,2.7,3.54,3.59,1.51,.89,3.18,1.33,5.02,1.33s3.46-.44,4.95-1.33Zm4.76-30.91h3.57l.05,35.1h-3.52l-.09-35.1Z"></path>
      <path class="cls-2" d="M37.74,142.48c-1.67-.92-2.96-2.22-3.88-3.9-.92-1.68-1.38-3.6-1.38-5.75v-15.22h3.57v15.22c0,1.46,.32,2.77,.95,3.92,.63,1.16,1.51,2.05,2.64,2.69,1.12,.63,2.42,.95,3.88,.95s2.69-.32,3.81-.95c1.11-.63,1.97-1.53,2.59-2.69,.62-1.16,.93-2.46,.93-3.92v-15.22h3.57v15.22c0,2.16-.46,4.07-1.38,5.75-.92,1.68-2.2,2.98-3.85,3.9-1.65,.92-3.54,1.38-5.66,1.38s-4.11-.46-5.78-1.38Z"></path>
      <path class="cls-2" d="M77.59,141.58c-2.62-1.52-4.67-3.59-6.16-6.21-1.49-2.62-2.24-5.51-2.24-8.68s.75-6.02,2.26-8.66c1.51-2.63,3.57-4.71,6.21-6.23,2.63-1.52,5.52-2.28,8.66-2.28,1.93,0,3.77,.33,5.52,1v3.95c-1.78-.82-3.61-1.24-5.52-1.24-2.54,0-4.82,.59-6.85,1.76-2.03,1.17-3.62,2.79-4.78,4.85-1.16,2.06-1.74,4.34-1.74,6.85s.59,4.79,1.78,6.85,2.8,3.68,4.83,4.85c2.03,1.17,4.28,1.76,6.75,1.76,.95,0,1.89-.1,2.81-.31,.92-.21,1.82-.52,2.71-.93v3.95c-1.74,.67-3.58,1-5.52,1-3.2,0-6.11-.76-8.73-2.28Z"></path>
      <path class="cls-2" d="M100.3,142.08c-2.06-1.19-3.69-2.81-4.88-4.85s-1.78-4.3-1.78-6.78,.59-4.68,1.78-6.73c1.19-2.05,2.81-3.65,4.88-4.83,2.06-1.17,4.31-1.76,6.75-1.76s4.73,.59,6.78,1.76c2.04,1.17,3.66,2.78,4.85,4.83,1.19,2.04,1.78,4.29,1.78,6.73s-.59,4.73-1.78,6.78-2.81,3.66-4.85,4.85c-2.05,1.19-4.3,1.78-6.78,1.78s-4.69-.59-6.75-1.78Zm11.75-2.93c1.49-.89,2.66-2.09,3.52-3.61,.86-1.52,1.28-3.22,1.28-5.09s-.44-3.52-1.31-5.04c-.87-1.52-2.05-2.72-3.54-3.59-1.49-.87-3.14-1.31-4.95-1.31s-3.46,.44-4.97,1.31c-1.51,.87-2.69,2.07-3.54,3.59-.86,1.52-1.28,3.2-1.28,5.04s.44,3.57,1.31,5.09c.87,1.52,2.05,2.73,3.54,3.61,1.49,.89,3.15,1.33,4.99,1.33s3.46-.44,4.95-1.33Z"></path>
      <path class="cls-2" d="M124.7,108.24h3.57v35.1h-3.57v-35.1Z"></path>
      <path class="cls-2" d="M134.55,108.9h3.61v5.09h-3.61v-5.09Zm0,8.7h3.57v25.73h-3.57v-25.73Z"></path>
      <path class="cls-2" d="M147.96,143.34h-3.52l.05-35.1h3.57l-.1,35.1Zm10.08,.52c-2.44,0-4.64-.59-6.59-1.78-1.95-1.19-3.47-2.8-4.57-4.83-1.09-2.03-1.64-4.28-1.64-6.75s.55-4.77,1.64-6.8c1.09-2.03,2.62-3.64,4.57-4.83,1.95-1.19,4.15-1.78,6.59-1.78s4.71,.59,6.71,1.78c2,1.19,3.57,2.81,4.73,4.85,1.16,2.04,1.74,4.3,1.74,6.78s-.58,4.68-1.74,6.73c-1.16,2.04-2.73,3.66-4.73,4.85-2,1.19-4.23,1.78-6.71,1.78Zm-.29-3.38c1.84,0,3.51-.44,5.02-1.33,1.51-.89,2.69-2.08,3.54-3.59,.86-1.5,1.28-3.19,1.28-5.06s-.43-3.61-1.28-5.11c-.86-1.51-2.04-2.7-3.54-3.59-1.51-.89-3.18-1.33-5.02-1.33s-3.46,.45-4.95,1.33c-1.49,.89-2.66,2.08-3.52,3.59-.86,1.51-1.28,3.21-1.28,5.11s.43,3.56,1.28,5.06c.86,1.51,2.03,2.7,3.52,3.59,1.49,.89,3.14,1.33,4.95,1.33Z"></path>
      <path class="cls-2" d="M175.45,117.61h3.52v8.18l-1.57,1.14c.16-1.87,.7-3.56,1.62-5.07,.92-1.51,2.12-2.69,3.61-3.54,1.49-.86,3.11-1.28,4.85-1.28,.67,0,1.32,.08,1.95,.24v3.28h-2c-1.59,0-3.01,.33-4.28,1-1.27,.67-2.28,1.65-3.02,2.95-.75,1.3-1.12,2.87-1.12,4.71v14.12h-3.57v-25.73Z"></path>
      <path class="cls-2" d="M192.72,108.9h3.61v5.09h-3.61v-5.09Zm0,8.7h3.57v25.73h-3.57v-25.73Z"></path>
    </g>
    <g>
      <path class="cls-2" d="M31.03,93.35c-2.62-1.52-4.68-3.6-6.21-6.23-1.52-2.63-2.28-5.52-2.28-8.66s.76-6.02,2.28-8.66c1.52-2.63,3.59-4.71,6.21-6.23s5.51-2.28,8.68-2.28,6.02,.76,8.63,2.28c2.62,1.52,4.69,3.6,6.23,6.23,1.54,2.63,2.31,5.52,2.31,8.66s-.77,6.02-2.31,8.66c-1.54,2.63-3.61,4.71-6.23,6.23-2.62,1.52-5.51,2.28-8.68,2.28s-6.02-.76-8.63-2.28Zm15.39-3.28c2.03-1.17,3.63-2.79,4.8-4.85,1.17-2.06,1.76-4.31,1.76-6.75s-.59-4.73-1.76-6.78c-1.17-2.04-2.77-3.65-4.8-4.83-2.03-1.17-4.27-1.76-6.71-1.76s-4.68,.59-6.71,1.78c-2.03,1.19-3.64,2.81-4.83,4.85-1.19,2.04-1.78,4.29-1.78,6.73s.59,4.69,1.78,6.73c1.19,2.05,2.8,3.66,4.83,4.85,2.03,1.19,4.25,1.78,6.66,1.78s4.72-.59,6.75-1.76Z"></path>
      <path class="cls-2" d="M65.68,93.85c-2-1.19-3.58-2.81-4.73-4.85-1.16-2.05-1.74-4.29-1.74-6.73s.58-4.73,1.74-6.78c1.16-2.05,2.73-3.66,4.73-4.85s4.23-1.78,6.71-1.78,4.64,.59,6.59,1.78c1.95,1.19,3.47,2.8,4.57,4.83,1.09,2.03,1.64,4.3,1.64,6.8s-.55,4.72-1.64,6.75c-1.09,2.03-2.62,3.64-4.57,4.83-1.95,1.19-4.15,1.78-6.59,1.78s-4.71-.59-6.71-1.78Zm11.94-2.93c1.49-.89,2.66-2.08,3.52-3.59,.86-1.51,1.28-3.19,1.28-5.06s-.43-3.61-1.28-5.11c-.86-1.51-2.03-2.7-3.52-3.59-1.49-.89-3.14-1.33-4.95-1.33s-3.51,.44-5.02,1.33c-1.51,.89-2.69,2.08-3.54,3.59-.86,1.51-1.28,3.21-1.28,5.11s.43,3.56,1.28,5.06c.86,1.51,2.04,2.7,3.54,3.59,1.51,.89,3.18,1.33,5.02,1.33s3.46-.44,4.95-1.33Zm4.76-30.91h3.57l.05,35.1h-3.52l-.09-35.1Z"></path>
      <path class="cls-2" d="M100.49,93.59l-.1,3-11.27-27.2h3.76l9.46,23.16h-1.24l9.51-23.16h3.76l-14.22,33.86h-3.9l4.23-9.65Z"></path>
      <path class="cls-2" d="M115.95,94.68v-3.76c1.93,.89,3.68,1.33,5.23,1.33,1.43,0,2.56-.36,3.4-1.07,.84-.71,1.26-1.74,1.26-3.07,0-.98-.36-1.82-1.07-2.52-.71-.7-1.8-1.54-3.26-2.52-1.24-.82-2.23-1.54-2.97-2.14-.75-.6-1.39-1.35-1.93-2.24-.54-.89-.81-1.89-.81-3,0-2.19,.73-3.87,2.19-5.04,1.46-1.17,3.31-1.76,5.56-1.76,1.49,0,2.96,.3,4.42,.9v3.71c-.67-.41-1.39-.73-2.16-.95-.78-.22-1.53-.33-2.26-.33-1.27,0-2.29,.29-3.07,.88-.78,.59-1.17,1.44-1.17,2.54,0,.6,.19,1.17,.57,1.69,.38,.52,.87,1.02,1.47,1.5,.6,.48,1.32,1,2.14,1.57,1.24,.86,2.24,1.61,3.02,2.26,.78,.65,1.44,1.44,2,2.38,.55,.94,.83,1.97,.83,3.12,0,2.38-.73,4.22-2.19,5.52-1.46,1.3-3.46,1.95-5.99,1.95-1.74,0-3.49-.32-5.23-.95Z"></path>
      <path class="cls-2" d="M131.74,94.68v-3.76c1.93,.89,3.68,1.33,5.23,1.33,1.43,0,2.56-.36,3.4-1.07,.84-.71,1.26-1.74,1.26-3.07,0-.98-.36-1.82-1.07-2.52-.71-.7-1.8-1.54-3.26-2.52-1.24-.82-2.23-1.54-2.97-2.14-.75-.6-1.39-1.35-1.93-2.24-.54-.89-.81-1.89-.81-3,0-2.19,.73-3.87,2.19-5.04,1.46-1.17,3.31-1.76,5.56-1.76,1.49,0,2.96,.3,4.42,.9v3.71c-.67-.41-1.39-.73-2.16-.95-.78-.22-1.53-.33-2.26-.33-1.27,0-2.29,.29-3.07,.88-.78,.59-1.17,1.44-1.17,2.54,0,.6,.19,1.17,.57,1.69,.38,.52,.87,1.02,1.47,1.5,.6,.48,1.32,1,2.14,1.57,1.24,.86,2.24,1.61,3.02,2.26,.78,.65,1.44,1.44,2,2.38,.55,.94,.83,1.97,.83,3.12,0,2.38-.73,4.22-2.19,5.52-1.46,1.3-3.46,1.95-5.99,1.95-1.74,0-3.49-.32-5.23-.95Z"></path>
      <path class="cls-2" d="M154.14,93.85c-2.06-1.19-3.69-2.81-4.88-4.85-1.19-2.05-1.78-4.29-1.78-6.73s.59-4.73,1.78-6.78c1.19-2.05,2.81-3.66,4.88-4.85,2.06-1.19,4.33-1.78,6.8-1.78s4.57,.59,6.56,1.78c2,1.19,3.57,2.81,4.73,4.85,1.16,2.04,1.74,4.3,1.74,6.78,0,.54-.06,1.08-.19,1.62l-3.38-1.62c0-1.87-.42-3.57-1.26-5.09-.84-1.52-1.99-2.73-3.45-3.61-1.46-.89-3.04-1.33-4.76-1.33-1.84,0-3.5,.44-4.99,1.33-1.49,.89-2.67,2.09-3.54,3.61-.87,1.52-1.31,3.22-1.31,5.09s.44,3.52,1.31,5.04,2.05,2.73,3.54,3.61c1.49,.89,3.15,1.33,4.99,1.33s3.46-.48,4.97-1.43c1.5-.95,2.59-2.22,3.26-3.81h4c-.83,2.57-2.35,4.65-4.59,6.23-2.24,1.59-4.78,2.38-7.63,2.38-2.47,0-4.74-.59-6.8-1.78Zm-3.38-13.2h20.31l2.71,3.23h-22.97l-.05-3.23Zm8.28-14.55l4.19-8.04h3.71l-4.52,8.04h-3.38Z"></path>
      <path class="cls-2" d="M183.15,93.85c-2.06-1.19-3.69-2.81-4.88-4.85-1.19-2.05-1.78-4.29-1.78-6.73s.59-4.73,1.78-6.78c1.19-2.05,2.81-3.66,4.88-4.85s4.33-1.78,6.8-1.78,4.57,.59,6.56,1.78c2,1.19,3.57,2.81,4.73,4.85,1.16,2.04,1.74,4.3,1.74,6.78,0,.54-.06,1.08-.19,1.62l-3.38-1.62c0-1.87-.42-3.57-1.26-5.09-.84-1.52-1.99-2.73-3.45-3.61-1.46-.89-3.04-1.33-4.76-1.33-1.84,0-3.5,.44-4.99,1.33-1.49,.89-2.67,2.09-3.54,3.61-.87,1.52-1.31,3.22-1.31,5.09s.44,3.52,1.31,5.04c.87,1.52,2.05,2.73,3.54,3.61,1.49,.89,3.15,1.33,4.99,1.33s3.46-.48,4.97-1.43c1.51-.95,2.59-2.22,3.26-3.81h4c-.82,2.57-2.35,4.65-4.59,6.23-2.24,1.59-4.78,2.38-7.63,2.38-2.47,0-4.74-.59-6.8-1.78Zm-3.38-13.2h20.31l2.71,3.23h-22.97l-.05-3.23Z"></path>
    </g>
    <g>
      <path class="cls-2" d="M274.75,25.09v6.86c-.04,.94-.11,1.91-.21,2.9-.34,3.79-1.07,7.52-2.17,11.08-4.33,14.28-13.71,23.94-20.82,29.54-1.27,1-2.54,1.94-3.77,2.78-.84,.57-1.69,1.13-2.54,1.65-1.25,.77-2.7,1.74-4.46,2.98-5.29,3.78-11.39,8.47-14.59,10.96,.05-1.8,.13-3.37,.25-5.08,.07-.95,.15-1.87,.24-2.78,1.91-20.84,8.63-30.03,8.69-30.12l.03-.04,.03-.04c.56-.87,1.15-1.74,1.79-2.65,7.96-11.22,18.19-18.4,25.37-22.44,5.34-3,9.83-4.77,12.16-5.59m1.34-1.86s-24.24,6.94-39.96,29.11c-.62,.88-1.23,1.78-1.83,2.71,0,0-6.98,9.24-8.96,30.8-.09,.91-.16,1.85-.24,2.8-.18,2.68-.28,4.92-.29,7.97,0,0,9.16-7.23,16.76-12.66,1.55-1.1,3.05-2.11,4.38-2.93,.76-.47,1.63-1.03,2.59-1.69,1.17-.8,2.47-1.74,3.84-2.83,7.3-5.75,16.84-15.61,21.27-30.2,1.08-3.51,1.85-7.29,2.22-11.35,.1-.99,.18-1.98,.22-3v-8.74h0Z"></path>
      <path class="cls-2" d="M293,32.6l-2.4,6.17c-4.65,10.83-11.28,19.77-19.7,26.6-3.43,2.78-6.78,4.9-9.81,6.51,5.93-5.96,12.02-14.27,15.32-25.17,1.07-3.49,1.8-7.11,2.19-10.78,6.46-2.35,11.7-3.1,14.4-3.33m1.99-1.45c-.42,0-7.72,.06-17.64,3.81-.37,4.06-1.14,7.85-2.21,11.35-4.43,14.6-13.96,24.45-21.27,30.2,7.99-2.79,27.03-11.76,37.98-37.24l3.17-8.13s0,0-.02,0h0Z"></path>
      <path class="cls-2" d="M231.52,121.25c-5.44,23.48-21.1,47.48-46.48,51.44-1.39,.29-3.42,.43-4.84,.6,1.43-.19,3.45-.37,4.83-.68,21.83-3.8,35.95-22.28,42.64-42.29,1.02-3.06,1.93-6.19,2.54-9.31l1.32,.25h0Z"></path>
      <circle class="cls-2" cx="218.73" cy="51.03" r=".78"></circle>
      <path class="cls-2" d="M212.73,165.4l2.06-2.99c10.61-15.38,20.33-31.44,19.59-44.69-.36-6.42-3.9-11.46-7.64-16.79-.74-1.05-1.49-2.11-2.22-3.21l-.38,.3v-.87c-1.07-1.61-2.1-3.29-3.04-5.07-1.51-2.87-2.26-9.12-2.86-14.14-.29-2.43-.63-5.19-.89-5.64-.03-.04-.1-.14-.21-.29-4.34-6.03-7.07-11.15-7.89-14.8-.19-.79-.43-2-.54-2.55-2.55-1.63-8.2-2.9-20.71-.22-.81,.17-1.3,.28-1.47-.35-.17-.63,.15-.74,1.52-1.18,5.81-1.87,22.38-5.38,23.09-5.53,0,0,.52-.14,1.13-1,1.98-2.77,5.6-4.46,9.45-4.46,5.18,.03,10.19,3.14,14.11,8.77,.3,.43,.59,.85,.87,1.27l.27,.39-.27,.38c-.66,.93-1.25,1.8-1.81,2.68-.05,.07-1.77,2.38-3.71,7.27-1.79,4.52-4.14,12.21-5.15,23.23-.09,.91-.16,1.84-.24,2.79-.14,2.16-.24,4.09-.28,6.53,2.67-2.08,9.69-7.53,15.68-11.81,1.74-1.23,3.19-2.2,4.42-2.96,.86-.53,1.73-1.1,2.57-1.67l.83-.56,.21,.98c.52,2.44,.94,4.97,1.24,7.51,1.74,14.67-.59,29.58-6.71,43.11-6.13,13.55-15.82,25.14-28.01,33.51l-3,2.06Zm12.85-68.51c.75,1.11,1.51,2.2,2.26,3.27,3.86,5.49,7.51,10.68,7.88,17.49,.7,12.73-7.8,27.75-17.66,42.35,10.53-8.01,18.94-18.56,24.45-30.71,6.03-13.31,8.31-27.97,6.6-42.4-.26-2.16-.6-4.31-1.02-6.41-.59,.39-1.19,.77-1.79,1.14-1.21,.74-2.63,1.69-4.35,2.91-6.67,4.77-14.64,11-16.38,12.36Zm-25.25-45.32c4.94,0,7.76,1.03,9.37,2.15l.22,.16,.05,.27s.34,1.77,.58,2.77c.78,3.44,3.5,8.52,7.67,14.33,.12,.17,.21,.29,.24,.34,.41,.62,.65,2.45,1.1,6.22,.56,4.65,1.33,11.02,2.72,13.67,.59,1.12,1.22,2.21,1.88,3.26,.04-2.24,.14-4.07,.27-6.11,.07-.97,.15-1.91,.24-2.83,1.94-21.19,8.61-30.49,9.07-31.12,.49-.77,1.01-1.53,1.56-2.33-.2-.29-.4-.58-.61-.88-3.66-5.26-8.29-8.17-13.01-8.19h-.06c-3.35,0-6.59,1.53-8.29,3.9-.93,1.3-1.81,1.51-1.97,1.54-.09,.02-6.66,1.41-13.01,2.91,.69-.03,1.34-.05,1.95-.05Z"></path>
    </g>
    <path class="cls-1" d="M220.89,159.19c-5.01,4.22-10.29,8.13-15.87,11.58-5.73,3.22-11.73,6.01-18,8.04-25.13,8.1-53.39,3.89-76.48-8.37-11.63-6.15-21.82-14.95-29.58-25.55,8.76,9.62,18.94,17.91,30.32,24.18,22.69,12.05,50.55,16.23,75.25,8.26,12.31-4.1,23.64-10.89,34.35-18.14h0Z"></path>
  </g>
  <rect class="cls-1" x="194.89" y="9.45" width="8.48" height="8.48" rx="2.43" ry="2.43" transform="translate(378.24 101.79) rotate(-157.74)"></rect>
  <rect class="cls-1" x="179.46" y="3.08" width="8.48" height="8.48" rx="1.59" ry="1.59" transform="translate(363.71 44.64) rotate(-170.57)"></rect>
  <rect class="cls-1" x="163.38" y=".16" width="8.48" height="8.48" transform="translate(334.94 15.4) rotate(-177.75)"></rect>
  <rect class="cls-1" x="208.45" y="18.15" width="8.48" height="8.48" rx="3.4" ry="3.4" transform="translate(385.7 148.14) rotate(-150)"></rect>
  <rect class="cls-1" x="220.46" y="29.37" width="8.48" height="8.48" rx="4.24" ry="4.24" transform="translate(398.92 179.45) rotate(-148.57)"></rect>
  <path class="cls-1" d="M154.99,8.32c-20.24-.39-40.54,7.35-56.2,20.11-11.11,9.06-19.86,20.61-26.51,33.33,10.68-25.37,29.76-45.9,55.78-55.79C136.43,2.78,145.28,.58,154.25,.06c0,0,.47-.02,.47-.02h.53s-.26,8.28-.26,8.28h0Z"></path>
</svg>
